M48
; DRILL file {KiCad (5.1.6)-1} date 09/16/20 20:02:03
; FORMAT={-:-/ absolute / inch / decimal}
; #@! TF.CreationDate,2020-09-16T20:02:03-05:00
; #@! TF.GenerationSoftware,Kicad,Pcbnew,(5.1.6)-1
FMAT,2
INCH
T1C0.0157
T2C0.0197
T3C0.0276
T4C0.0295
T5C0.0354
T6C0.0394
T7C0.0551
T8C0.0571
T9C0.1063
%
G90
G05
T1
X2.865Y-3.625
X2.87Y-3.96
X2.9125Y-2.885
X2.9125Y-3.07
X2.9125Y-3.255
X2.915Y-3.4375
X2.9525Y-3.6025
X3.0225Y-2.6875
X3.045Y-2.8475
X3.065Y-3.47
X3.08Y-3.8475
X3.0825Y-3.2425
X3.085Y-3.3275
X3.0875Y-2.965
X3.0875Y-3.0475
X3.1Y-3.175
X3.13Y-3.67
X3.155Y-3.52
X3.1775Y-2.7025
X3.1925Y-2.8475
X3.2725Y-2.7775
X3.3075Y-2.3725
X3.3089Y-2.8837
X3.3475Y-3.195
X3.3825Y-3.6825
X3.4675Y-2.5075
X3.47Y-2.3675
X3.5896Y-2.6433
X3.59Y-2.8975
X3.5975Y-3.67
X3.6075Y-2.7375
X3.635Y-2.3725
X3.64Y-2.5025
X3.79Y-2.655
X3.7975Y-2.8775
X3.8525Y-3.39
X3.9325Y-3.675
X3.98Y-2.73
X3.995Y-2.9025
X4.02Y-3.0
X4.0725Y-3.285
X4.1089Y-2.8442
X4.1175Y-3.54
X4.1275Y-3.73
X4.1325Y-3.58
X4.1975Y-2.7275
X4.205Y-3.375
X4.265Y-3.5475
X4.265Y-3.735
X4.2725Y-2.9175
X4.345Y-3.765
X4.3925Y-2.7125
X4.395Y-2.9725
X4.4675Y-3.555
X4.4725Y-3.11
X4.5125Y-4.145
X4.6475Y-3.9775
X5.0Y-2.6925
X5.06Y-3.915
X5.12Y-3.7975
T2
X3.945Y-3.48
X4.425Y-3.48
X4.105Y-3.48
X3.785Y-3.48
X4.265Y-3.48
T3
X3.785Y-3.01
X3.785Y-3.31
X4.265Y-3.01
X4.265Y-3.31
X3.24Y-3.187
X3.54Y-3.187
X3.24Y-3.359
X3.54Y-3.359
X3.24Y-3.445
X3.54Y-3.445
X3.24Y-3.273
X3.54Y-3.273
X3.24Y-3.101
X3.54Y-3.101
X3.24Y-3.015
X3.54Y-3.015
T4
X3.975Y-3.1742
X4.025Y-3.1242
X4.075Y-3.1742
T5
X2.865Y-3.344
X2.965Y-3.344
X2.865Y-2.973
X2.965Y-2.973
X2.865Y-3.5295
X2.965Y-3.5295
X2.865Y-3.715
X2.965Y-3.715
X2.865Y-3.1585
X2.965Y-3.1585
X2.865Y-2.7875
X2.965Y-2.7875
T6
X4.6975Y-3.55
X4.6975Y-3.65
X4.7975Y-3.55
X4.7975Y-3.65
X4.8975Y-3.55
X4.8975Y-3.65
X4.9975Y-3.55
X4.9975Y-3.65
X5.0975Y-3.55
X5.0975Y-3.65
X5.1975Y-3.55
X5.1975Y-3.65
X4.6975Y-3.0675
X4.6975Y-3.1675
X4.7975Y-3.0675
X4.7975Y-3.1675
X4.8975Y-3.0675
X4.8975Y-3.1675
X4.9975Y-3.0675
X4.9975Y-3.1675
X5.0975Y-3.0675
X5.0975Y-3.1675
X5.1975Y-3.0675
X5.1975Y-3.1675
X4.6975Y-3.309
X4.6975Y-3.409
X4.7975Y-3.309
X4.7975Y-3.409
X4.8975Y-3.309
X4.8975Y-3.409
X4.9975Y-3.309
X4.9975Y-3.409
X5.0975Y-3.309
X5.0975Y-3.409
X5.1975Y-3.309
X5.1975Y-3.409
X4.6975Y-2.825
X4.6975Y-2.925
X4.7975Y-2.825
X4.7975Y-2.925
X4.8975Y-2.825
X4.8975Y-2.925
X4.9975Y-2.825
X4.9975Y-2.925
X5.0975Y-2.825
X5.0975Y-2.925
X5.1975Y-2.825
X5.1975Y-2.925
T7
X3.27Y-3.87
X3.27Y-4.0865
X3.4354Y-3.87
X3.4354Y-4.0865
X3.6007Y-3.87
X3.6007Y-4.0865
X3.7661Y-3.87
X3.7661Y-4.0865
X3.9314Y-3.87
X3.9314Y-4.0865
X4.0968Y-3.87
X4.0968Y-4.0865
X4.2621Y-3.87
X4.2621Y-4.0865
X4.4275Y-3.87
X4.4275Y-4.0865
X4.5928Y-3.87
X4.5928Y-4.0865
X4.7582Y-3.87
X4.7582Y-4.0865
T8
X3.22Y-2.4225
X3.22Y-2.5879
X3.3854Y-2.4225
X3.3854Y-2.5879
X3.5507Y-2.4225
X3.5507Y-2.5879
X3.7161Y-2.4225
X3.7161Y-2.5879
X3.8814Y-2.4225
X3.8814Y-2.5879
X4.0468Y-2.4225
X4.0468Y-2.5879
X4.2121Y-2.4225
X4.2121Y-2.5879
X4.3775Y-2.4225
X4.3775Y-2.5879
X4.5428Y-2.4225
X4.5428Y-2.5879
X4.7082Y-2.4225
X4.7082Y-2.5879
X4.8735Y-2.4225
X4.8735Y-2.5879
T9
X5.14Y-2.4675
X2.9575Y-4.1161
X5.13Y-4.1175
X2.96Y-2.47
T0
M30
