%TF.GenerationSoftware,KiCad,Pcbnew,(5.1.6)-1*%
%TF.CreationDate,2020-09-16T20:02:01-05:00*%
%TF.ProjectId,asdf,61736466-2e6b-4696-9361-645f70636258,rev?*%
%TF.SameCoordinates,Original*%
%TF.FileFunction,Copper,L2,Bot*%
%TF.FilePolarity,Positive*%
%FSLAX46Y46*%
G04 Gerber Fmt 4.6, Leading zero omitted, Abs format (unit mm)*
G04 Created by KiCad (PCBNEW (5.1.6)-1) date 2020-09-16 20:02:01*
%MOMM*%
%LPD*%
G01*
G04 APERTURE LIST*
%TA.AperFunction,ComponentPad*%
%ADD10C,5.400000*%
%TD*%
%TA.AperFunction,ComponentPad*%
%ADD11O,1.700000X1.700000*%
%TD*%
%TA.AperFunction,ComponentPad*%
%ADD12R,1.700000X1.700000*%
%TD*%
%TA.AperFunction,ComponentPad*%
%ADD13C,1.000000*%
%TD*%
%TA.AperFunction,ComponentPad*%
%ADD14O,1.400000X1.400000*%
%TD*%
%TA.AperFunction,ComponentPad*%
%ADD15C,1.400000*%
%TD*%
%TA.AperFunction,ComponentPad*%
%ADD16R,1.300000X1.300000*%
%TD*%
%TA.AperFunction,ComponentPad*%
%ADD17C,1.300000*%
%TD*%
%TA.AperFunction,ComponentPad*%
%ADD18C,1.800000*%
%TD*%
%TA.AperFunction,ComponentPad*%
%ADD19R,1.800000X1.800000*%
%TD*%
%TA.AperFunction,ComponentPad*%
%ADD20C,2.175000*%
%TD*%
%TA.AperFunction,ComponentPad*%
%ADD21R,2.175000X2.175000*%
%TD*%
%TA.AperFunction,ComponentPad*%
%ADD22O,2.700000X3.300000*%
%TD*%
%TA.AperFunction,ViaPad*%
%ADD23C,0.800000*%
%TD*%
%TA.AperFunction,Conductor*%
%ADD24C,2.000000*%
%TD*%
%TA.AperFunction,Conductor*%
%ADD25C,1.000000*%
%TD*%
%TA.AperFunction,Conductor*%
%ADD26C,0.250000*%
%TD*%
%TA.AperFunction,Conductor*%
%ADD27C,0.500000*%
%TD*%
%TA.AperFunction,Conductor*%
%ADD28C,0.254000*%
%TD*%
G04 APERTURE END LIST*
D10*
%TO.P,H4,1*%
%TO.N,GND*%
X130556000Y-62674500D03*
%TD*%
%TO.P,H3,1*%
%TO.N,GND*%
X130302000Y-104584500D03*
%TD*%
%TO.P,H2,1*%
%TO.N,GND*%
X75120500Y-104549500D03*
%TD*%
%TO.P,H1,1*%
%TO.N,GND*%
X75184000Y-62738000D03*
%TD*%
D11*
%TO.P,J6,12*%
%TO.N,GND*%
X132016500Y-71755000D03*
%TO.P,J6,11*%
X132016500Y-74295000D03*
%TO.P,J6,10*%
%TO.N,Net-(J6-Pad10)*%
X129476500Y-71755000D03*
%TO.P,J6,9*%
X129476500Y-74295000D03*
%TO.P,J6,8*%
%TO.N,Net-(J6-Pad7)*%
X126936500Y-71755000D03*
%TO.P,J6,7*%
X126936500Y-74295000D03*
%TO.P,J6,6*%
%TO.N,Net-(J6-Pad5)*%
X124396500Y-71755000D03*
%TO.P,J6,5*%
X124396500Y-74295000D03*
%TO.P,J6,4*%
%TO.N,Net-(J6-Pad3)*%
X121856500Y-71755000D03*
%TO.P,J6,3*%
X121856500Y-74295000D03*
%TO.P,J6,2*%
%TO.N,+5V*%
X119316500Y-71755000D03*
D12*
%TO.P,J6,1*%
X119316500Y-74295000D03*
%TD*%
D11*
%TO.P,J5,12*%
%TO.N,GND*%
X132016500Y-77914500D03*
%TO.P,J5,11*%
X132016500Y-80454500D03*
%TO.P,J5,10*%
%TO.N,Net-(J5-Pad10)*%
X129476500Y-77914500D03*
%TO.P,J5,9*%
X129476500Y-80454500D03*
%TO.P,J5,8*%
%TO.N,Net-(J5-Pad7)*%
X126936500Y-77914500D03*
%TO.P,J5,7*%
X126936500Y-80454500D03*
%TO.P,J5,6*%
%TO.N,Net-(J5-Pad5)*%
X124396500Y-77914500D03*
%TO.P,J5,5*%
X124396500Y-80454500D03*
%TO.P,J5,4*%
%TO.N,Net-(J5-Pad3)*%
X121856500Y-77914500D03*
%TO.P,J5,3*%
X121856500Y-80454500D03*
%TO.P,J5,2*%
%TO.N,+5V*%
X119316500Y-77914500D03*
D12*
%TO.P,J5,1*%
X119316500Y-80454500D03*
%TD*%
D11*
%TO.P,J4,12*%
%TO.N,GND*%
X132016500Y-84049500D03*
%TO.P,J4,11*%
X132016500Y-86589500D03*
%TO.P,J4,10*%
%TO.N,Net-(J4-Pad10)*%
X129476500Y-84049500D03*
%TO.P,J4,9*%
X129476500Y-86589500D03*
%TO.P,J4,8*%
%TO.N,Net-(J4-Pad7)*%
X126936500Y-84049500D03*
%TO.P,J4,7*%
X126936500Y-86589500D03*
%TO.P,J4,6*%
%TO.N,Net-(J4-Pad5)*%
X124396500Y-84049500D03*
%TO.P,J4,5*%
X124396500Y-86589500D03*
%TO.P,J4,4*%
%TO.N,Net-(J4-Pad3)*%
X121856500Y-84049500D03*
%TO.P,J4,3*%
X121856500Y-86589500D03*
%TO.P,J4,2*%
%TO.N,+5V*%
X119316500Y-84049500D03*
D12*
%TO.P,J4,1*%
X119316500Y-86589500D03*
%TD*%
D11*
%TO.P,J3,12*%
%TO.N,GND*%
X132016500Y-90170000D03*
%TO.P,J3,11*%
X132016500Y-92710000D03*
%TO.P,J3,10*%
%TO.N,Net-(J3-Pad10)*%
X129476500Y-90170000D03*
%TO.P,J3,9*%
X129476500Y-92710000D03*
%TO.P,J3,8*%
%TO.N,Net-(J3-Pad7)*%
X126936500Y-90170000D03*
%TO.P,J3,7*%
X126936500Y-92710000D03*
%TO.P,J3,6*%
%TO.N,Net-(J3-Pad5)*%
X124396500Y-90170000D03*
%TO.P,J3,5*%
X124396500Y-92710000D03*
%TO.P,J3,4*%
%TO.N,Net-(J3-Pad3)*%
X121856500Y-90170000D03*
%TO.P,J3,3*%
X121856500Y-92710000D03*
%TO.P,J3,2*%
%TO.N,+5V*%
X119316500Y-90170000D03*
D12*
%TO.P,J3,1*%
X119316500Y-92710000D03*
%TD*%
D13*
%TO.P,TP5,1*%
%TO.N,GND*%
X112395000Y-88392000D03*
%TD*%
%TO.P,TP4,1*%
%TO.N,PWR_ON*%
X108331000Y-88392000D03*
%TD*%
%TO.P,TP3,1*%
%TO.N,+5VP*%
X104267000Y-88392000D03*
%TD*%
%TO.P,TP2,1*%
%TO.N,Net-(Q1-Pad2)*%
X100203000Y-88392000D03*
%TD*%
%TO.P,TP1,1*%
%TO.N,PFW*%
X96139000Y-88392000D03*
%TD*%
D14*
%TO.P,R8,2*%
%TO.N,Net-(D6-Pad1)*%
X82296000Y-76581000D03*
D15*
%TO.P,R8,1*%
%TO.N,GND*%
X89916000Y-76581000D03*
%TD*%
D14*
%TO.P,R7,2*%
%TO.N,Net-(D5-Pad1)*%
X82296000Y-78765400D03*
D15*
%TO.P,R7,1*%
%TO.N,GND*%
X89916000Y-78765400D03*
%TD*%
D14*
%TO.P,R6,2*%
%TO.N,Net-(D4-Pad1)*%
X82296000Y-80949800D03*
D15*
%TO.P,R6,1*%
%TO.N,GND*%
X89916000Y-80949800D03*
%TD*%
D14*
%TO.P,R5,2*%
%TO.N,Net-(D3-Pad1)*%
X82296000Y-83134200D03*
D15*
%TO.P,R5,1*%
%TO.N,GND*%
X89916000Y-83134200D03*
%TD*%
D14*
%TO.P,R4,2*%
%TO.N,Net-(D2-Pad1)*%
X82296000Y-85318600D03*
D15*
%TO.P,R4,1*%
%TO.N,GND*%
X89916000Y-85318600D03*
%TD*%
D14*
%TO.P,R3,2*%
%TO.N,Net-(D1-Pad1)*%
X82296000Y-87503000D03*
D15*
%TO.P,R3,1*%
%TO.N,GND*%
X89916000Y-87503000D03*
%TD*%
D14*
%TO.P,R2,2*%
%TO.N,PWR_ON*%
X108331000Y-84074000D03*
D15*
%TO.P,R2,1*%
%TO.N,+5VP*%
X108331000Y-76454000D03*
%TD*%
D14*
%TO.P,R1,2*%
%TO.N,PFW*%
X96139000Y-84074000D03*
D15*
%TO.P,R1,1*%
%TO.N,Net-(Q1-Pad2)*%
X96139000Y-76454000D03*
%TD*%
D16*
%TO.P,Q1,1*%
%TO.N,GND*%
X100965000Y-80624000D03*
D17*
%TO.P,Q1,3*%
%TO.N,PWR_ON*%
X103505000Y-80624000D03*
%TO.P,Q1,2*%
%TO.N,Net-(Q1-Pad2)*%
X102235000Y-79354000D03*
%TD*%
D18*
%TO.P,D6,2*%
%TO.N,PWR_ON*%
X75311000Y-70802500D03*
D19*
%TO.P,D6,1*%
%TO.N,Net-(D6-Pad1)*%
X72771000Y-70802500D03*
%TD*%
D18*
%TO.P,D5,2*%
%TO.N,+3V3*%
X75311000Y-75514200D03*
D19*
%TO.P,D5,1*%
%TO.N,Net-(D5-Pad1)*%
X72771000Y-75514200D03*
%TD*%
D18*
%TO.P,D4,2*%
%TO.N,+5VP*%
X75311000Y-80225900D03*
D19*
%TO.P,D4,1*%
%TO.N,Net-(D4-Pad1)*%
X72771000Y-80225900D03*
%TD*%
D18*
%TO.P,D3,2*%
%TO.N,+5V*%
X75311000Y-84937600D03*
D19*
%TO.P,D3,1*%
%TO.N,Net-(D3-Pad1)*%
X72771000Y-84937600D03*
%TD*%
D18*
%TO.P,D2,2*%
%TO.N,+12V*%
X75311000Y-89649300D03*
D19*
%TO.P,D2,1*%
%TO.N,Net-(D2-Pad1)*%
X72771000Y-89649300D03*
%TD*%
D18*
%TO.P,D1,2*%
%TO.N,PWR_OK*%
X75311000Y-94361000D03*
D19*
%TO.P,D1,1*%
%TO.N,Net-(D1-Pad1)*%
X72771000Y-94361000D03*
%TD*%
D20*
%TO.P,J2,22*%
%TO.N,+12V*%
X123788000Y-65731500D03*
%TO.P,J2,21*%
%TO.N,PFW*%
X119588000Y-65731500D03*
%TO.P,J2,20*%
%TO.N,GND*%
X115388000Y-65731500D03*
%TO.P,J2,19*%
X111188000Y-65731500D03*
%TO.P,J2,18*%
X106988000Y-65731500D03*
%TO.P,J2,17*%
X102788000Y-65731500D03*
%TO.P,J2,16*%
%TO.N,+5V*%
X98588000Y-65731500D03*
%TO.P,J2,15*%
X94388000Y-65731500D03*
%TO.P,J2,14*%
X90188000Y-65731500D03*
%TO.P,J2,13*%
X85988000Y-65731500D03*
%TO.P,J2,12*%
%TO.N,+5VP*%
X81788000Y-65731500D03*
%TO.P,J2,11*%
%TO.N,-12V*%
X123788000Y-61531500D03*
%TO.P,J2,10*%
%TO.N,Net-(J2-Pad10)*%
X119588000Y-61531500D03*
%TO.P,J2,9*%
%TO.N,GND*%
X115388000Y-61531500D03*
%TO.P,J2,8*%
X111188000Y-61531500D03*
%TO.P,J2,7*%
X106988000Y-61531500D03*
%TO.P,J2,6*%
X102788000Y-61531500D03*
%TO.P,J2,5*%
X98588000Y-61531500D03*
%TO.P,J2,4*%
%TO.N,+5V*%
X94388000Y-61531500D03*
%TO.P,J2,3*%
X90188000Y-61531500D03*
%TO.P,J2,2*%
X85988000Y-61531500D03*
D21*
%TO.P,J2,1*%
X81788000Y-61531500D03*
%TD*%
D22*
%TO.P,J1,20*%
%TO.N,+5V*%
X120858000Y-103798000D03*
%TO.P,J1,19*%
X116658000Y-103798000D03*
%TO.P,J1,18*%
%TO.N,Net-(J1-Pad18)*%
X112458000Y-103798000D03*
%TO.P,J1,17*%
%TO.N,GND*%
X108258000Y-103798000D03*
%TO.P,J1,16*%
X104058000Y-103798000D03*
%TO.P,J1,15*%
X99858000Y-103798000D03*
%TO.P,J1,14*%
%TO.N,PWR_ON*%
X95658000Y-103798000D03*
%TO.P,J1,13*%
%TO.N,GND*%
X91458000Y-103798000D03*
%TO.P,J1,12*%
%TO.N,-12V*%
X87258000Y-103798000D03*
%TO.P,J1,11*%
%TO.N,+3V3*%
X83058000Y-103798000D03*
%TO.P,J1,10*%
%TO.N,+12V*%
X120858000Y-98298000D03*
%TO.P,J1,9*%
%TO.N,+5VP*%
X116658000Y-98298000D03*
%TO.P,J1,8*%
%TO.N,PWR_OK*%
X112458000Y-98298000D03*
%TO.P,J1,7*%
%TO.N,GND*%
X108258000Y-98298000D03*
%TO.P,J1,6*%
%TO.N,+5V*%
X104058000Y-98298000D03*
%TO.P,J1,5*%
%TO.N,GND*%
X99858000Y-98298000D03*
%TO.P,J1,4*%
%TO.N,+5V*%
X95658000Y-98298000D03*
%TO.P,J1,3*%
%TO.N,GND*%
X91458000Y-98298000D03*
%TO.P,J1,2*%
%TO.N,+3V3*%
X87258000Y-98298000D03*
%TO.P,J1,1*%
%TA.AperFunction,ComponentPad*%
G36*
G01*
X81708000Y-99697999D02*
X81708000Y-96898001D01*
G75*
G02*
X81958001Y-96648000I250001J0D01*
G01*
X84157999Y-96648000D01*
G75*
G02*
X84408000Y-96898001I0J-250001D01*
G01*
X84408000Y-99697999D01*
G75*
G02*
X84157999Y-99948000I-250001J0D01*
G01*
X81958001Y-99948000D01*
G75*
G02*
X81708000Y-99697999I0J250001D01*
G01*
G37*
%TD.AperFunction*%
%TD*%
D23*
%TO.N,GND*%
X97853500Y-86106000D03*
X101473000Y-73723500D03*
X91186000Y-73596500D03*
X77343000Y-72326500D03*
X81089500Y-72326500D03*
X76771500Y-68262500D03*
X80708500Y-68643500D03*
X91376500Y-93218000D03*
X99885500Y-93345000D03*
X108331000Y-94869000D03*
X108331000Y-90106500D03*
X113474500Y-90297000D03*
X118046500Y-101028500D03*
X79502000Y-93218000D03*
X85915500Y-93535500D03*
X80137000Y-89408000D03*
X77851000Y-88138000D03*
X78422500Y-75311000D03*
X78422500Y-77406500D03*
X78740000Y-80645000D03*
X78295500Y-82359500D03*
X78359000Y-84518500D03*
X74041000Y-87312500D03*
X73977500Y-82677000D03*
X73977500Y-77978000D03*
X73977500Y-73279000D03*
X74993500Y-91503500D03*
X72771000Y-92075000D03*
X78232000Y-97726500D03*
X72898000Y-100584000D03*
X113601500Y-78994000D03*
X111569500Y-68897500D03*
X127000000Y-68389500D03*
X130048000Y-96456500D03*
X128524000Y-99441000D03*
X96456500Y-73088500D03*
X96266000Y-67437000D03*
X92456000Y-63563500D03*
X88074500Y-63690500D03*
X88138000Y-60134500D03*
X92329000Y-60261500D03*
X84010500Y-60261500D03*
X114617500Y-105283000D03*
X103441500Y-83439000D03*
X106616500Y-69278500D03*
X101092000Y-69342000D03*
X91630500Y-69532500D03*
X111633000Y-75501500D03*
X110363000Y-95631000D03*
X104838500Y-94742000D03*
X104965500Y-90932000D03*
X106807000Y-85725000D03*
%TO.N,PWR_ON*%
X83121500Y-70548500D03*
X104367126Y-72242022D03*
X104584500Y-89916000D03*
%TO.N,-12V*%
X91175062Y-67140412D03*
%TO.N,+5VP*%
X85026500Y-81153000D03*
%TO.N,+3V3*%
X84046011Y-73245274D03*
%TO.N,PFW*%
X108521500Y-74104500D03*
%TO.N,Net-(Q1-Pad2)*%
X102108000Y-76200000D03*
%TD*%
D24*
%TO.N,GND*%
X111188000Y-75056500D02*
X111633000Y-75501500D01*
X111188000Y-65731500D02*
X111188000Y-75056500D01*
X110363000Y-96193000D02*
X108258000Y-98298000D01*
X110363000Y-95631000D02*
X110363000Y-96193000D01*
D25*
%TO.N,+5V*%
X81788000Y-61531500D02*
X94388000Y-61531500D01*
X85988000Y-65731500D02*
X98588000Y-65731500D01*
X94388000Y-65731500D02*
X94388000Y-61531500D01*
X90188000Y-65731500D02*
X90188000Y-61531500D01*
X85988000Y-65731500D02*
X85988000Y-61531500D01*
X117466500Y-92710000D02*
X119316500Y-92710000D01*
X114607990Y-95568510D02*
X117466500Y-92710000D01*
X114607990Y-101747990D02*
X114607990Y-95568510D01*
X116658000Y-103798000D02*
X114607990Y-101747990D01*
X119691501Y-86964501D02*
X119316500Y-86589500D01*
X119316500Y-90176002D02*
X119691501Y-89801001D01*
X119691501Y-89801001D02*
X119691501Y-86964501D01*
X119316500Y-92710000D02*
X119316500Y-90176002D01*
X119316500Y-86589500D02*
X119316500Y-84049500D01*
X119316500Y-84049500D02*
X119316500Y-80454500D01*
X119316500Y-80454500D02*
X119316500Y-77914500D01*
X119316500Y-77914500D02*
X119316500Y-74295000D01*
X119316500Y-74295000D02*
X119316500Y-71755000D01*
D24*
X98588000Y-81707002D02*
X98588000Y-65731500D01*
X102566999Y-85686001D02*
X98588000Y-81707002D01*
X104058000Y-98298000D02*
X102566999Y-96806999D01*
X120872499Y-94760001D02*
X119316500Y-93204002D01*
X121226259Y-94760001D02*
X120872499Y-94760001D01*
X123408010Y-96941752D02*
X121226259Y-94760001D01*
X119316500Y-93204002D02*
X119316500Y-92710000D01*
X123408010Y-101247990D02*
X123408010Y-96941752D01*
X120858000Y-103798000D02*
X123408010Y-101247990D01*
D26*
X85988000Y-83143602D02*
X85988000Y-65731500D01*
X76717001Y-86343601D02*
X82788001Y-86343601D01*
X82788001Y-86343601D02*
X85988000Y-83143602D01*
X75311000Y-84937600D02*
X76717001Y-86343601D01*
D24*
X119316500Y-92710000D02*
X103822500Y-92710000D01*
X102566999Y-96806999D02*
X102566999Y-91454499D01*
X103822500Y-92710000D02*
X102566999Y-91454499D01*
X102566999Y-91454499D02*
X102566999Y-85686001D01*
D25*
X106930999Y-72536542D02*
X100125957Y-65731500D01*
X100125957Y-65731500D02*
X98588000Y-65731500D01*
X119316500Y-71755000D02*
X113217499Y-77854001D01*
X106930999Y-77126001D02*
X106930999Y-72536542D01*
X113217499Y-77854001D02*
X107658999Y-77854001D01*
X107658999Y-77854001D02*
X106930999Y-77126001D01*
D24*
X95658000Y-98298000D02*
X93916500Y-96556500D01*
X93916500Y-67513846D02*
X91943064Y-65540410D01*
X93916500Y-96556500D02*
X93916500Y-67513846D01*
X91943064Y-65540410D02*
X90379090Y-65540410D01*
X90379090Y-65540410D02*
X90188000Y-65731500D01*
D26*
%TO.N,PWR_ON*%
X108331000Y-88392000D02*
X108331000Y-84074000D01*
X106955000Y-84074000D02*
X103505000Y-80624000D01*
X108331000Y-84074000D02*
X106955000Y-84074000D01*
X75565000Y-70548500D02*
X75311000Y-70802500D01*
X83121500Y-70548500D02*
X75565000Y-70548500D01*
X103505000Y-73104148D02*
X104367126Y-72242022D01*
X103505000Y-80624000D02*
X103505000Y-73104148D01*
X106108500Y-88392000D02*
X108331000Y-88392000D01*
X104584500Y-89916000D02*
X106108500Y-88392000D01*
D27*
%TO.N,-12V*%
X87258000Y-103798000D02*
X89358010Y-101697990D01*
X89358010Y-88647012D02*
X88765999Y-88055001D01*
X88765999Y-88055001D02*
X88765999Y-69549475D01*
X88765999Y-69549475D02*
X91175062Y-67140412D01*
X89358010Y-101697990D02*
X89358010Y-88647012D01*
D26*
%TO.N,+12V*%
X119182990Y-99973010D02*
X120858000Y-98298000D01*
X82177789Y-106223020D02*
X116915980Y-106223020D01*
X119182990Y-103956010D02*
X119182990Y-99973010D01*
X74085999Y-98131230D02*
X82177789Y-106223020D01*
X74085999Y-90874301D02*
X74085999Y-98131230D01*
X116915980Y-106223020D02*
X119182990Y-103956010D01*
X75311000Y-89649300D02*
X74085999Y-90874301D01*
%TO.N,+5VP*%
X81270999Y-81407000D02*
X76492100Y-81407000D01*
X81270999Y-81441801D02*
X81270999Y-81407000D01*
X81803999Y-81974801D02*
X81270999Y-81441801D01*
X85026500Y-81153000D02*
X84772500Y-81407000D01*
X84772500Y-81407000D02*
X83321001Y-81407000D01*
X83321001Y-81407000D02*
X83321001Y-81441801D01*
X76492100Y-81407000D02*
X75311000Y-80225900D01*
X83321001Y-81441801D02*
X82788001Y-81974801D01*
X82788001Y-81974801D02*
X81803999Y-81974801D01*
%TO.N,PWR_OK*%
X75311000Y-98719821D02*
X75311000Y-94361000D01*
X82364189Y-105773010D02*
X75311000Y-98719821D01*
X108951811Y-105773010D02*
X82364189Y-105773010D01*
X109933010Y-104791811D02*
X108951811Y-105773010D01*
X109933010Y-100822990D02*
X109933010Y-104791811D01*
X112458000Y-98298000D02*
X109933010Y-100822990D01*
%TO.N,+3V3*%
X76210999Y-76414199D02*
X75311000Y-75514200D01*
X78392303Y-76414199D02*
X76210999Y-76414199D01*
X81777085Y-75514200D02*
X79292302Y-75514200D01*
X79292302Y-75514200D02*
X78392303Y-76414199D01*
X84046011Y-73245274D02*
X81777085Y-75514200D01*
%TO.N,PFW*%
X108521500Y-70110498D02*
X109347000Y-69284998D01*
X108521500Y-74104500D02*
X108521500Y-70110498D01*
X118175499Y-64318999D02*
X119588000Y-65731500D01*
X110509999Y-64318999D02*
X118175499Y-64318999D01*
X109347000Y-65481998D02*
X110509999Y-64318999D01*
X109347000Y-69284998D02*
X109347000Y-65481998D01*
%TO.N,Net-(Q1-Pad2)*%
X102235000Y-79354000D02*
X102235000Y-76327000D01*
X102235000Y-76327000D02*
X102108000Y-76200000D01*
D25*
%TO.N,Net-(J3-Pad10)*%
X129476500Y-92710000D02*
X129476500Y-90170000D01*
%TO.N,Net-(J3-Pad7)*%
X126936500Y-92710000D02*
X126936500Y-90170000D01*
%TO.N,Net-(J3-Pad5)*%
X124396500Y-92710000D02*
X124396500Y-90170000D01*
%TO.N,Net-(J3-Pad3)*%
X121856500Y-92710000D02*
X121856500Y-90170000D01*
%TO.N,Net-(J4-Pad10)*%
X129476500Y-84049500D02*
X129476500Y-86589500D01*
%TO.N,Net-(J4-Pad7)*%
X126936500Y-86589500D02*
X126936500Y-84049500D01*
%TO.N,Net-(J4-Pad5)*%
X124396500Y-86589500D02*
X124396500Y-84049500D01*
%TO.N,Net-(J4-Pad3)*%
X121856500Y-86589500D02*
X121856500Y-84049500D01*
%TO.N,Net-(J5-Pad10)*%
X129476500Y-80454500D02*
X129476500Y-77914500D01*
%TO.N,Net-(J5-Pad7)*%
X126936500Y-80454500D02*
X126936500Y-77914500D01*
%TO.N,Net-(J5-Pad5)*%
X124396500Y-80454500D02*
X124396500Y-77914500D01*
%TO.N,Net-(J5-Pad3)*%
X121856500Y-80454500D02*
X121856500Y-77914500D01*
%TO.N,Net-(J6-Pad10)*%
X129476500Y-74295000D02*
X129476500Y-71755000D01*
%TO.N,Net-(J6-Pad7)*%
X126936500Y-74295000D02*
X126936500Y-71755000D01*
%TO.N,Net-(J6-Pad5)*%
X124396500Y-74295000D02*
X124396500Y-71755000D01*
%TO.N,Net-(J6-Pad3)*%
X121856500Y-71755000D02*
X121856500Y-74295000D01*
%TD*%
D28*
%TO.N,GND*%
G36*
X98192530Y-59846451D02*
G01*
X97871393Y-59955981D01*
X97676129Y-60060352D01*
X97569804Y-60333699D01*
X98588000Y-61351895D01*
X99606196Y-60333699D01*
X99499871Y-60060352D01*
X99195342Y-59910722D01*
X98937377Y-59842000D01*
X102425965Y-59842000D01*
X102392530Y-59846451D01*
X102071393Y-59955981D01*
X101876129Y-60060352D01*
X101769804Y-60333699D01*
X102788000Y-61351895D01*
X103806196Y-60333699D01*
X103699871Y-60060352D01*
X103395342Y-59910722D01*
X103137377Y-59842000D01*
X106625965Y-59842000D01*
X106592530Y-59846451D01*
X106271393Y-59955981D01*
X106076129Y-60060352D01*
X105969804Y-60333699D01*
X106988000Y-61351895D01*
X108006196Y-60333699D01*
X107899871Y-60060352D01*
X107595342Y-59910722D01*
X107337377Y-59842000D01*
X110825965Y-59842000D01*
X110792530Y-59846451D01*
X110471393Y-59955981D01*
X110276129Y-60060352D01*
X110169804Y-60333699D01*
X111188000Y-61351895D01*
X112206196Y-60333699D01*
X112099871Y-60060352D01*
X111795342Y-59910722D01*
X111537377Y-59842000D01*
X115025965Y-59842000D01*
X114992530Y-59846451D01*
X114671393Y-59955981D01*
X114476129Y-60060352D01*
X114369804Y-60333699D01*
X115388000Y-61351895D01*
X116406196Y-60333699D01*
X116299871Y-60060352D01*
X115995342Y-59910722D01*
X115737377Y-59842000D01*
X119252447Y-59842000D01*
X119085565Y-59875195D01*
X118772091Y-60005041D01*
X118489971Y-60193547D01*
X118250047Y-60433471D01*
X118061541Y-60715591D01*
X117931695Y-61029065D01*
X117865500Y-61361849D01*
X117865500Y-61701151D01*
X117931695Y-62033935D01*
X118061541Y-62347409D01*
X118250047Y-62629529D01*
X118489971Y-62869453D01*
X118772091Y-63057959D01*
X119085565Y-63187805D01*
X119418349Y-63254000D01*
X119757651Y-63254000D01*
X120090435Y-63187805D01*
X120403909Y-63057959D01*
X120686029Y-62869453D01*
X120925953Y-62629529D01*
X121114459Y-62347409D01*
X121244305Y-62033935D01*
X121310500Y-61701151D01*
X121310500Y-61361849D01*
X121244305Y-61029065D01*
X121114459Y-60715591D01*
X120925953Y-60433471D01*
X120686029Y-60193547D01*
X120403909Y-60005041D01*
X120090435Y-59875195D01*
X119923553Y-59842000D01*
X123452447Y-59842000D01*
X123285565Y-59875195D01*
X122972091Y-60005041D01*
X122689971Y-60193547D01*
X122450047Y-60433471D01*
X122261541Y-60715591D01*
X122131695Y-61029065D01*
X122065500Y-61361849D01*
X122065500Y-61701151D01*
X122131695Y-62033935D01*
X122261541Y-62347409D01*
X122450047Y-62629529D01*
X122689971Y-62869453D01*
X122972091Y-63057959D01*
X123285565Y-63187805D01*
X123618349Y-63254000D01*
X123957651Y-63254000D01*
X124290435Y-63187805D01*
X124603909Y-63057959D01*
X124886029Y-62869453D01*
X125085551Y-62669931D01*
X127204866Y-62669931D01*
X127268366Y-63323793D01*
X127458208Y-63952703D01*
X127767096Y-64532492D01*
X127772172Y-64540089D01*
X128210626Y-64840269D01*
X130376395Y-62674500D01*
X128210626Y-60508731D01*
X127772172Y-60808911D01*
X127461704Y-61387856D01*
X127270148Y-62016246D01*
X127204866Y-62669931D01*
X125085551Y-62669931D01*
X125125953Y-62629529D01*
X125314459Y-62347409D01*
X125444305Y-62033935D01*
X125510500Y-61701151D01*
X125510500Y-61361849D01*
X125444305Y-61029065D01*
X125314459Y-60715591D01*
X125125953Y-60433471D01*
X124886029Y-60193547D01*
X124603909Y-60005041D01*
X124290435Y-59875195D01*
X124123553Y-59842000D01*
X128779839Y-59842000D01*
X128698008Y-59885596D01*
X128690411Y-59890672D01*
X128390231Y-60329126D01*
X130556000Y-62494895D01*
X132721769Y-60329126D01*
X132421589Y-59890672D01*
X132330828Y-59842000D01*
X133198000Y-59842000D01*
X133198000Y-60711811D01*
X132901374Y-60508731D01*
X130735605Y-62674500D01*
X132901374Y-64840269D01*
X133198000Y-64637189D01*
X133198000Y-70858471D01*
X133016769Y-70657412D01*
X132783420Y-70483359D01*
X132520599Y-70358175D01*
X132373390Y-70313524D01*
X132143500Y-70434845D01*
X132143500Y-71628000D01*
X132163500Y-71628000D01*
X132163500Y-71882000D01*
X132143500Y-71882000D01*
X132143500Y-74168000D01*
X132163500Y-74168000D01*
X132163500Y-74422000D01*
X132143500Y-74422000D01*
X132143500Y-75615155D01*
X132373390Y-75736476D01*
X132520599Y-75691825D01*
X132783420Y-75566641D01*
X133016769Y-75392588D01*
X133198000Y-75191529D01*
X133198000Y-77017971D01*
X133016769Y-76816912D01*
X132783420Y-76642859D01*
X132520599Y-76517675D01*
X132373390Y-76473024D01*
X132143500Y-76594345D01*
X132143500Y-77787500D01*
X132163500Y-77787500D01*
X132163500Y-78041500D01*
X132143500Y-78041500D01*
X132143500Y-80327500D01*
X132163500Y-80327500D01*
X132163500Y-80581500D01*
X132143500Y-80581500D01*
X132143500Y-81774655D01*
X132373390Y-81895976D01*
X132520599Y-81851325D01*
X132783420Y-81726141D01*
X133016769Y-81552088D01*
X133198000Y-81351029D01*
X133198000Y-83152971D01*
X133016769Y-82951912D01*
X132783420Y-82777859D01*
X132520599Y-82652675D01*
X132373390Y-82608024D01*
X132143500Y-82729345D01*
X132143500Y-83922500D01*
X132163500Y-83922500D01*
X132163500Y-84176500D01*
X132143500Y-84176500D01*
X132143500Y-86462500D01*
X132163500Y-86462500D01*
X132163500Y-86716500D01*
X132143500Y-86716500D01*
X132143500Y-87909655D01*
X132373390Y-88030976D01*
X132520599Y-87986325D01*
X132783420Y-87861141D01*
X133016769Y-87687088D01*
X133198001Y-87486029D01*
X133198001Y-89273471D01*
X133016769Y-89072412D01*
X132783420Y-88898359D01*
X132520599Y-88773175D01*
X132373390Y-88728524D01*
X132143500Y-88849845D01*
X132143500Y-90043000D01*
X132163500Y-90043000D01*
X132163500Y-90297000D01*
X132143500Y-90297000D01*
X132143500Y-92583000D01*
X132163500Y-92583000D01*
X132163500Y-92837000D01*
X132143500Y-92837000D01*
X132143500Y-94030155D01*
X132373390Y-94151476D01*
X132520599Y-94106825D01*
X132783420Y-93981641D01*
X133016769Y-93807588D01*
X133198001Y-93606529D01*
X133198001Y-102927531D01*
X133090904Y-102726508D01*
X133085828Y-102718911D01*
X132647374Y-102418731D01*
X130481605Y-104584500D01*
X132647374Y-106750269D01*
X133085828Y-106450089D01*
X133198001Y-106240915D01*
X133198001Y-107417000D01*
X132078161Y-107417000D01*
X132159992Y-107373404D01*
X132167589Y-107368328D01*
X132467769Y-106929874D01*
X130302000Y-104764105D01*
X128136231Y-106929874D01*
X128436411Y-107368328D01*
X128527172Y-107417000D01*
X76830966Y-107417000D01*
X76978492Y-107338404D01*
X76986089Y-107333328D01*
X77286269Y-106894874D01*
X75120500Y-104729105D01*
X72954731Y-106894874D01*
X73254911Y-107333328D01*
X73410938Y-107417000D01*
X72224500Y-107417000D01*
X72224500Y-106206471D01*
X72331596Y-106407492D01*
X72336672Y-106415089D01*
X72775126Y-106715269D01*
X74940895Y-104549500D01*
X72775126Y-102383731D01*
X72336672Y-102683911D01*
X72224500Y-102893084D01*
X72224500Y-95899072D01*
X73326000Y-95899072D01*
X73326000Y-98093898D01*
X73322323Y-98131230D01*
X73336997Y-98280215D01*
X73380453Y-98423476D01*
X73451025Y-98555506D01*
X73479537Y-98590247D01*
X73545999Y-98671231D01*
X73574997Y-98695029D01*
X76303611Y-101423643D01*
X75778754Y-101263648D01*
X75125069Y-101198366D01*
X74471207Y-101261866D01*
X73842297Y-101451708D01*
X73262508Y-101760596D01*
X73254911Y-101765672D01*
X72954731Y-102204126D01*
X75120500Y-104369895D01*
X75134643Y-104355753D01*
X75314248Y-104535358D01*
X75300105Y-104549500D01*
X77465874Y-106715269D01*
X77904328Y-106415089D01*
X78214796Y-105836144D01*
X78406352Y-105207754D01*
X78471634Y-104554069D01*
X78408134Y-103900207D01*
X78247273Y-103367306D01*
X81613990Y-106734023D01*
X81637788Y-106763021D01*
X81753513Y-106857994D01*
X81885542Y-106928566D01*
X82028803Y-106972023D01*
X82140456Y-106983020D01*
X82140465Y-106983020D01*
X82177788Y-106986696D01*
X82215111Y-106983020D01*
X116878658Y-106983020D01*
X116915980Y-106986696D01*
X116953302Y-106983020D01*
X116953313Y-106983020D01*
X117064966Y-106972023D01*
X117208227Y-106928566D01*
X117340256Y-106857994D01*
X117455981Y-106763021D01*
X117479784Y-106734017D01*
X119132707Y-105081094D01*
X119199547Y-105206143D01*
X119447603Y-105508398D01*
X119749858Y-105756453D01*
X120094699Y-105940774D01*
X120468873Y-106054278D01*
X120858000Y-106092604D01*
X121247128Y-106054278D01*
X121621302Y-105940774D01*
X121966143Y-105756453D01*
X122268398Y-105508398D01*
X122516453Y-105206143D01*
X122700774Y-104861302D01*
X122786126Y-104579931D01*
X126950866Y-104579931D01*
X127014366Y-105233793D01*
X127204208Y-105862703D01*
X127513096Y-106442492D01*
X127518172Y-106450089D01*
X127956626Y-106750269D01*
X130122395Y-104584500D01*
X127956626Y-102418731D01*
X127518172Y-102718911D01*
X127207704Y-103297856D01*
X127016148Y-103926246D01*
X126950866Y-104579931D01*
X122786126Y-104579931D01*
X122814278Y-104487127D01*
X122843000Y-104195509D01*
X122843000Y-104125239D01*
X124507335Y-102460905D01*
X124569724Y-102409704D01*
X124709713Y-102239126D01*
X128136231Y-102239126D01*
X130302000Y-104404895D01*
X132467769Y-102239126D01*
X132167589Y-101800672D01*
X131588644Y-101490204D01*
X130960254Y-101298648D01*
X130306569Y-101233366D01*
X129652707Y-101296866D01*
X129023797Y-101486708D01*
X128444008Y-101795596D01*
X128436411Y-101800672D01*
X128136231Y-102239126D01*
X124709713Y-102239126D01*
X124774041Y-102160742D01*
X124925862Y-101876705D01*
X124950466Y-101795596D01*
X125019353Y-101568507D01*
X125050921Y-101247990D01*
X125043010Y-101167668D01*
X125043010Y-97022074D01*
X125050921Y-96941752D01*
X125019353Y-96621235D01*
X124925862Y-96313037D01*
X124866582Y-96202132D01*
X124774041Y-96029000D01*
X124569724Y-95780038D01*
X124507328Y-95728832D01*
X122706523Y-93928027D01*
X122803132Y-93863475D01*
X123009975Y-93656632D01*
X123126500Y-93482240D01*
X123243025Y-93656632D01*
X123449868Y-93863475D01*
X123693089Y-94025990D01*
X123963342Y-94137932D01*
X124250240Y-94195000D01*
X124542760Y-94195000D01*
X124829658Y-94137932D01*
X125099911Y-94025990D01*
X125343132Y-93863475D01*
X125549975Y-93656632D01*
X125666500Y-93482240D01*
X125783025Y-93656632D01*
X125989868Y-93863475D01*
X126233089Y-94025990D01*
X126503342Y-94137932D01*
X126790240Y-94195000D01*
X127082760Y-94195000D01*
X127369658Y-94137932D01*
X127639911Y-94025990D01*
X127883132Y-93863475D01*
X128089975Y-93656632D01*
X128206500Y-93482240D01*
X128323025Y-93656632D01*
X128529868Y-93863475D01*
X128773089Y-94025990D01*
X129043342Y-94137932D01*
X129330240Y-94195000D01*
X129622760Y-94195000D01*
X129909658Y-94137932D01*
X130179911Y-94025990D01*
X130423132Y-93863475D01*
X130629975Y-93656632D01*
X130751695Y-93474466D01*
X130821322Y-93591355D01*
X131016231Y-93807588D01*
X131249580Y-93981641D01*
X131512401Y-94106825D01*
X131659610Y-94151476D01*
X131889500Y-94030155D01*
X131889500Y-92837000D01*
X131869500Y-92837000D01*
X131869500Y-92583000D01*
X131889500Y-92583000D01*
X131889500Y-90297000D01*
X131869500Y-90297000D01*
X131869500Y-90043000D01*
X131889500Y-90043000D01*
X131889500Y-88849845D01*
X131659610Y-88728524D01*
X131512401Y-88773175D01*
X131249580Y-88898359D01*
X131016231Y-89072412D01*
X130821322Y-89288645D01*
X130751695Y-89405534D01*
X130629975Y-89223368D01*
X130423132Y-89016525D01*
X130179911Y-88854010D01*
X129909658Y-88742068D01*
X129622760Y-88685000D01*
X129330240Y-88685000D01*
X129043342Y-88742068D01*
X128773089Y-88854010D01*
X128529868Y-89016525D01*
X128323025Y-89223368D01*
X128206500Y-89397760D01*
X128089975Y-89223368D01*
X127883132Y-89016525D01*
X127639911Y-88854010D01*
X127369658Y-88742068D01*
X127082760Y-88685000D01*
X126790240Y-88685000D01*
X126503342Y-88742068D01*
X126233089Y-88854010D01*
X125989868Y-89016525D01*
X125783025Y-89223368D01*
X125666500Y-89397760D01*
X125549975Y-89223368D01*
X125343132Y-89016525D01*
X125099911Y-88854010D01*
X124829658Y-88742068D01*
X124542760Y-88685000D01*
X124250240Y-88685000D01*
X123963342Y-88742068D01*
X123693089Y-88854010D01*
X123449868Y-89016525D01*
X123243025Y-89223368D01*
X123126500Y-89397760D01*
X123009975Y-89223368D01*
X122803132Y-89016525D01*
X122559911Y-88854010D01*
X122289658Y-88742068D01*
X122002760Y-88685000D01*
X121710240Y-88685000D01*
X121423342Y-88742068D01*
X121153089Y-88854010D01*
X120909868Y-89016525D01*
X120826501Y-89099892D01*
X120826501Y-87659608D01*
X120909868Y-87742975D01*
X121153089Y-87905490D01*
X121423342Y-88017432D01*
X121710240Y-88074500D01*
X122002760Y-88074500D01*
X122289658Y-88017432D01*
X122559911Y-87905490D01*
X122803132Y-87742975D01*
X123009975Y-87536132D01*
X123126500Y-87361740D01*
X123243025Y-87536132D01*
X123449868Y-87742975D01*
X123693089Y-87905490D01*
X123963342Y-88017432D01*
X124250240Y-88074500D01*
X124542760Y-88074500D01*
X124829658Y-88017432D01*
X125099911Y-87905490D01*
X125343132Y-87742975D01*
X125549975Y-87536132D01*
X125666500Y-87361740D01*
X125783025Y-87536132D01*
X125989868Y-87742975D01*
X126233089Y-87905490D01*
X126503342Y-88017432D01*
X126790240Y-88074500D01*
X127082760Y-88074500D01*
X127369658Y-88017432D01*
X127639911Y-87905490D01*
X127883132Y-87742975D01*
X128089975Y-87536132D01*
X128206500Y-87361740D01*
X128323025Y-87536132D01*
X128529868Y-87742975D01*
X128773089Y-87905490D01*
X129043342Y-88017432D01*
X129330240Y-88074500D01*
X129622760Y-88074500D01*
X129909658Y-88017432D01*
X130179911Y-87905490D01*
X130423132Y-87742975D01*
X130629975Y-87536132D01*
X130751695Y-87353966D01*
X130821322Y-87470855D01*
X131016231Y-87687088D01*
X131249580Y-87861141D01*
X131512401Y-87986325D01*
X131659610Y-88030976D01*
X131889500Y-87909655D01*
X131889500Y-86716500D01*
X131869500Y-86716500D01*
X131869500Y-86462500D01*
X131889500Y-86462500D01*
X131889500Y-84176500D01*
X131869500Y-84176500D01*
X131869500Y-83922500D01*
X131889500Y-83922500D01*
X131889500Y-82729345D01*
X131659610Y-82608024D01*
X131512401Y-82652675D01*
X131249580Y-82777859D01*
X131016231Y-82951912D01*
X130821322Y-83168145D01*
X130751695Y-83285034D01*
X130629975Y-83102868D01*
X130423132Y-82896025D01*
X130179911Y-82733510D01*
X129909658Y-82621568D01*
X129622760Y-82564500D01*
X129330240Y-82564500D01*
X129043342Y-82621568D01*
X128773089Y-82733510D01*
X128529868Y-82896025D01*
X128323025Y-83102868D01*
X128206500Y-83277260D01*
X128089975Y-83102868D01*
X127883132Y-82896025D01*
X127639911Y-82733510D01*
X127369658Y-82621568D01*
X127082760Y-82564500D01*
X126790240Y-82564500D01*
X126503342Y-82621568D01*
X126233089Y-82733510D01*
X125989868Y-82896025D01*
X125783025Y-83102868D01*
X125666500Y-83277260D01*
X125549975Y-83102868D01*
X125343132Y-82896025D01*
X125099911Y-82733510D01*
X124829658Y-82621568D01*
X124542760Y-82564500D01*
X124250240Y-82564500D01*
X123963342Y-82621568D01*
X123693089Y-82733510D01*
X123449868Y-82896025D01*
X123243025Y-83102868D01*
X123126500Y-83277260D01*
X123009975Y-83102868D01*
X122803132Y-82896025D01*
X122559911Y-82733510D01*
X122289658Y-82621568D01*
X122002760Y-82564500D01*
X121710240Y-82564500D01*
X121423342Y-82621568D01*
X121153089Y-82733510D01*
X120909868Y-82896025D01*
X120703025Y-83102868D01*
X120586500Y-83277260D01*
X120469975Y-83102868D01*
X120451500Y-83084393D01*
X120451500Y-81872183D01*
X120520994Y-81835037D01*
X120617685Y-81755685D01*
X120697037Y-81658994D01*
X120756002Y-81548680D01*
X120778013Y-81476120D01*
X120909868Y-81607975D01*
X121153089Y-81770490D01*
X121423342Y-81882432D01*
X121710240Y-81939500D01*
X122002760Y-81939500D01*
X122289658Y-81882432D01*
X122559911Y-81770490D01*
X122803132Y-81607975D01*
X123009975Y-81401132D01*
X123126500Y-81226740D01*
X123243025Y-81401132D01*
X123449868Y-81607975D01*
X123693089Y-81770490D01*
X123963342Y-81882432D01*
X124250240Y-81939500D01*
X124542760Y-81939500D01*
X124829658Y-81882432D01*
X125099911Y-81770490D01*
X125343132Y-81607975D01*
X125549975Y-81401132D01*
X125666500Y-81226740D01*
X125783025Y-81401132D01*
X125989868Y-81607975D01*
X126233089Y-81770490D01*
X126503342Y-81882432D01*
X126790240Y-81939500D01*
X127082760Y-81939500D01*
X127369658Y-81882432D01*
X127639911Y-81770490D01*
X127883132Y-81607975D01*
X128089975Y-81401132D01*
X128206500Y-81226740D01*
X128323025Y-81401132D01*
X128529868Y-81607975D01*
X128773089Y-81770490D01*
X129043342Y-81882432D01*
X129330240Y-81939500D01*
X129622760Y-81939500D01*
X129909658Y-81882432D01*
X130179911Y-81770490D01*
X130423132Y-81607975D01*
X130629975Y-81401132D01*
X130751695Y-81218966D01*
X130821322Y-81335855D01*
X131016231Y-81552088D01*
X131249580Y-81726141D01*
X131512401Y-81851325D01*
X131659610Y-81895976D01*
X131889500Y-81774655D01*
X131889500Y-80581500D01*
X131869500Y-80581500D01*
X131869500Y-80327500D01*
X131889500Y-80327500D01*
X131889500Y-78041500D01*
X131869500Y-78041500D01*
X131869500Y-77787500D01*
X131889500Y-77787500D01*
X131889500Y-76594345D01*
X131659610Y-76473024D01*
X131512401Y-76517675D01*
X131249580Y-76642859D01*
X131016231Y-76816912D01*
X130821322Y-77033145D01*
X130751695Y-77150034D01*
X130629975Y-76967868D01*
X130423132Y-76761025D01*
X130179911Y-76598510D01*
X129909658Y-76486568D01*
X129622760Y-76429500D01*
X129330240Y-76429500D01*
X129043342Y-76486568D01*
X128773089Y-76598510D01*
X128529868Y-76761025D01*
X128323025Y-76967868D01*
X128206500Y-77142260D01*
X128089975Y-76967868D01*
X127883132Y-76761025D01*
X127639911Y-76598510D01*
X127369658Y-76486568D01*
X127082760Y-76429500D01*
X126790240Y-76429500D01*
X126503342Y-76486568D01*
X126233089Y-76598510D01*
X125989868Y-76761025D01*
X125783025Y-76967868D01*
X125666500Y-77142260D01*
X125549975Y-76967868D01*
X125343132Y-76761025D01*
X125099911Y-76598510D01*
X124829658Y-76486568D01*
X124542760Y-76429500D01*
X124250240Y-76429500D01*
X123963342Y-76486568D01*
X123693089Y-76598510D01*
X123449868Y-76761025D01*
X123243025Y-76967868D01*
X123126500Y-77142260D01*
X123009975Y-76967868D01*
X122803132Y-76761025D01*
X122559911Y-76598510D01*
X122289658Y-76486568D01*
X122002760Y-76429500D01*
X121710240Y-76429500D01*
X121423342Y-76486568D01*
X121153089Y-76598510D01*
X120909868Y-76761025D01*
X120703025Y-76967868D01*
X120586500Y-77142260D01*
X120469975Y-76967868D01*
X120451500Y-76949393D01*
X120451500Y-75712683D01*
X120520994Y-75675537D01*
X120617685Y-75596185D01*
X120697037Y-75499494D01*
X120756002Y-75389180D01*
X120778013Y-75316620D01*
X120909868Y-75448475D01*
X121153089Y-75610990D01*
X121423342Y-75722932D01*
X121710240Y-75780000D01*
X122002760Y-75780000D01*
X122289658Y-75722932D01*
X122559911Y-75610990D01*
X122803132Y-75448475D01*
X123009975Y-75241632D01*
X123126500Y-75067240D01*
X123243025Y-75241632D01*
X123449868Y-75448475D01*
X123693089Y-75610990D01*
X123963342Y-75722932D01*
X124250240Y-75780000D01*
X124542760Y-75780000D01*
X124829658Y-75722932D01*
X125099911Y-75610990D01*
X125343132Y-75448475D01*
X125549975Y-75241632D01*
X125666500Y-75067240D01*
X125783025Y-75241632D01*
X125989868Y-75448475D01*
X126233089Y-75610990D01*
X126503342Y-75722932D01*
X126790240Y-75780000D01*
X127082760Y-75780000D01*
X127369658Y-75722932D01*
X127639911Y-75610990D01*
X127883132Y-75448475D01*
X128089975Y-75241632D01*
X128206500Y-75067240D01*
X128323025Y-75241632D01*
X128529868Y-75448475D01*
X128773089Y-75610990D01*
X129043342Y-75722932D01*
X129330240Y-75780000D01*
X129622760Y-75780000D01*
X129909658Y-75722932D01*
X130179911Y-75610990D01*
X130423132Y-75448475D01*
X130629975Y-75241632D01*
X130751695Y-75059466D01*
X130821322Y-75176355D01*
X131016231Y-75392588D01*
X131249580Y-75566641D01*
X131512401Y-75691825D01*
X131659610Y-75736476D01*
X131889500Y-75615155D01*
X131889500Y-74422000D01*
X131869500Y-74422000D01*
X131869500Y-74168000D01*
X131889500Y-74168000D01*
X131889500Y-71882000D01*
X131869500Y-71882000D01*
X131869500Y-71628000D01*
X131889500Y-71628000D01*
X131889500Y-70434845D01*
X131659610Y-70313524D01*
X131512401Y-70358175D01*
X131249580Y-70483359D01*
X131016231Y-70657412D01*
X130821322Y-70873645D01*
X130751695Y-70990534D01*
X130629975Y-70808368D01*
X130423132Y-70601525D01*
X130179911Y-70439010D01*
X129909658Y-70327068D01*
X129622760Y-70270000D01*
X129330240Y-70270000D01*
X129043342Y-70327068D01*
X128773089Y-70439010D01*
X128529868Y-70601525D01*
X128323025Y-70808368D01*
X128206500Y-70982760D01*
X128089975Y-70808368D01*
X127883132Y-70601525D01*
X127639911Y-70439010D01*
X127369658Y-70327068D01*
X127082760Y-70270000D01*
X126790240Y-70270000D01*
X126503342Y-70327068D01*
X126233089Y-70439010D01*
X125989868Y-70601525D01*
X125783025Y-70808368D01*
X125666500Y-70982760D01*
X125549975Y-70808368D01*
X125343132Y-70601525D01*
X125099911Y-70439010D01*
X124829658Y-70327068D01*
X124542760Y-70270000D01*
X124250240Y-70270000D01*
X123963342Y-70327068D01*
X123693089Y-70439010D01*
X123449868Y-70601525D01*
X123243025Y-70808368D01*
X123126500Y-70982760D01*
X123009975Y-70808368D01*
X122803132Y-70601525D01*
X122559911Y-70439010D01*
X122289658Y-70327068D01*
X122002760Y-70270000D01*
X121710240Y-70270000D01*
X121423342Y-70327068D01*
X121153089Y-70439010D01*
X120909868Y-70601525D01*
X120703025Y-70808368D01*
X120586500Y-70982760D01*
X120469975Y-70808368D01*
X120263132Y-70601525D01*
X120019911Y-70439010D01*
X119749658Y-70327068D01*
X119462760Y-70270000D01*
X119170240Y-70270000D01*
X118883342Y-70327068D01*
X118613089Y-70439010D01*
X118369868Y-70601525D01*
X118163025Y-70808368D01*
X118000510Y-71051589D01*
X117888568Y-71321842D01*
X117831500Y-71608740D01*
X117831500Y-71634868D01*
X112747368Y-76719001D01*
X109639442Y-76719001D01*
X109666000Y-76585486D01*
X109666000Y-76322514D01*
X109614696Y-76064595D01*
X109514061Y-75821641D01*
X109367962Y-75602987D01*
X109182013Y-75417038D01*
X108963359Y-75270939D01*
X108720405Y-75170304D01*
X108565545Y-75139500D01*
X108623439Y-75139500D01*
X108823398Y-75099726D01*
X109011756Y-75021705D01*
X109181274Y-74908437D01*
X109325437Y-74764274D01*
X109438705Y-74594756D01*
X109516726Y-74406398D01*
X109556500Y-74206439D01*
X109556500Y-74002561D01*
X109516726Y-73802602D01*
X109438705Y-73614244D01*
X109325437Y-73444726D01*
X109281500Y-73400789D01*
X109281500Y-70425299D01*
X109858004Y-69848796D01*
X109887001Y-69824999D01*
X109981974Y-69709274D01*
X110052546Y-69577245D01*
X110096003Y-69433984D01*
X110107000Y-69322331D01*
X110107000Y-69322322D01*
X110110676Y-69284999D01*
X110107000Y-69247676D01*
X110107000Y-66992108D01*
X110169805Y-66929303D01*
X110276129Y-67202648D01*
X110580658Y-67352278D01*
X110908525Y-67439622D01*
X111247134Y-67461324D01*
X111583470Y-67416549D01*
X111904607Y-67307019D01*
X112099871Y-67202648D01*
X112206196Y-66929301D01*
X114369804Y-66929301D01*
X114476129Y-67202648D01*
X114780658Y-67352278D01*
X115108525Y-67439622D01*
X115447134Y-67461324D01*
X115783470Y-67416549D01*
X116104607Y-67307019D01*
X116299871Y-67202648D01*
X116406196Y-66929301D01*
X115388000Y-65911105D01*
X114369804Y-66929301D01*
X112206196Y-66929301D01*
X111188000Y-65911105D01*
X111173858Y-65925248D01*
X110994253Y-65745643D01*
X111008395Y-65731500D01*
X110994253Y-65717358D01*
X111173858Y-65537753D01*
X111188000Y-65551895D01*
X111202143Y-65537753D01*
X111381748Y-65717358D01*
X111367605Y-65731500D01*
X112385801Y-66749696D01*
X112659148Y-66643371D01*
X112808778Y-66338842D01*
X112896122Y-66010975D01*
X112917824Y-65672366D01*
X112873049Y-65336030D01*
X112785384Y-65078999D01*
X113789411Y-65078999D01*
X113767222Y-65124158D01*
X113679878Y-65452025D01*
X113658176Y-65790634D01*
X113702951Y-66126970D01*
X113812481Y-66448107D01*
X113916852Y-66643371D01*
X114190199Y-66749696D01*
X115208395Y-65731500D01*
X115194253Y-65717358D01*
X115373858Y-65537753D01*
X115388000Y-65551895D01*
X115402143Y-65537753D01*
X115581748Y-65717358D01*
X115567605Y-65731500D01*
X116585801Y-66749696D01*
X116859148Y-66643371D01*
X117008778Y-66338842D01*
X117096122Y-66010975D01*
X117117824Y-65672366D01*
X117073049Y-65336030D01*
X116985384Y-65078999D01*
X117860698Y-65078999D01*
X117954854Y-65173155D01*
X117931695Y-65229065D01*
X117865500Y-65561849D01*
X117865500Y-65901151D01*
X117931695Y-66233935D01*
X118061541Y-66547409D01*
X118250047Y-66829529D01*
X118489971Y-67069453D01*
X118772091Y-67257959D01*
X119085565Y-67387805D01*
X119418349Y-67454000D01*
X119757651Y-67454000D01*
X120090435Y-67387805D01*
X120403909Y-67257959D01*
X120686029Y-67069453D01*
X120925953Y-66829529D01*
X121114459Y-66547409D01*
X121244305Y-66233935D01*
X121310500Y-65901151D01*
X121310500Y-65561849D01*
X122065500Y-65561849D01*
X122065500Y-65901151D01*
X122131695Y-66233935D01*
X122261541Y-66547409D01*
X122450047Y-66829529D01*
X122689971Y-67069453D01*
X122972091Y-67257959D01*
X123285565Y-67387805D01*
X123618349Y-67454000D01*
X123957651Y-67454000D01*
X124290435Y-67387805D01*
X124603909Y-67257959D01*
X124886029Y-67069453D01*
X125125953Y-66829529D01*
X125314459Y-66547409D01*
X125444305Y-66233935D01*
X125510500Y-65901151D01*
X125510500Y-65561849D01*
X125444305Y-65229065D01*
X125357655Y-65019874D01*
X128390231Y-65019874D01*
X128690411Y-65458328D01*
X129269356Y-65768796D01*
X129897746Y-65960352D01*
X130551431Y-66025634D01*
X131205293Y-65962134D01*
X131834203Y-65772292D01*
X132413992Y-65463404D01*
X132421589Y-65458328D01*
X132721769Y-65019874D01*
X130556000Y-62854105D01*
X128390231Y-65019874D01*
X125357655Y-65019874D01*
X125314459Y-64915591D01*
X125125953Y-64633471D01*
X124886029Y-64393547D01*
X124603909Y-64205041D01*
X124290435Y-64075195D01*
X123957651Y-64009000D01*
X123618349Y-64009000D01*
X123285565Y-64075195D01*
X122972091Y-64205041D01*
X122689971Y-64393547D01*
X122450047Y-64633471D01*
X122261541Y-64915591D01*
X122131695Y-65229065D01*
X122065500Y-65561849D01*
X121310500Y-65561849D01*
X121244305Y-65229065D01*
X121114459Y-64915591D01*
X120925953Y-64633471D01*
X120686029Y-64393547D01*
X120403909Y-64205041D01*
X120090435Y-64075195D01*
X119757651Y-64009000D01*
X119418349Y-64009000D01*
X119085565Y-64075195D01*
X119029655Y-64098354D01*
X118739303Y-63808002D01*
X118715500Y-63778998D01*
X118599775Y-63684025D01*
X118467746Y-63613453D01*
X118324485Y-63569996D01*
X118212832Y-63558999D01*
X118212821Y-63558999D01*
X118175499Y-63555323D01*
X118138177Y-63558999D01*
X110547322Y-63558999D01*
X110509999Y-63555323D01*
X110472676Y-63558999D01*
X110472666Y-63558999D01*
X110361013Y-63569996D01*
X110217752Y-63613453D01*
X110085722Y-63684025D01*
X110002082Y-63752667D01*
X109969998Y-63778998D01*
X109946200Y-63807996D01*
X108835998Y-64918199D01*
X108807000Y-64941997D01*
X108783202Y-64970995D01*
X108783201Y-64970996D01*
X108712026Y-65057722D01*
X108641454Y-65189752D01*
X108632842Y-65218144D01*
X108563519Y-65014893D01*
X108459148Y-64819629D01*
X108185801Y-64713304D01*
X107167605Y-65731500D01*
X108185801Y-66749696D01*
X108459148Y-66643371D01*
X108587001Y-66383163D01*
X108587000Y-68970196D01*
X108010498Y-69546699D01*
X107981500Y-69570497D01*
X107957702Y-69599495D01*
X107957701Y-69599496D01*
X107886526Y-69686222D01*
X107815954Y-69818252D01*
X107772498Y-69961513D01*
X107757824Y-70110498D01*
X107761501Y-70147830D01*
X107761501Y-71759401D01*
X107737448Y-71730093D01*
X107694145Y-71694555D01*
X103356964Y-67357375D01*
X103504607Y-67307019D01*
X103699871Y-67202648D01*
X103806196Y-66929301D01*
X105969804Y-66929301D01*
X106076129Y-67202648D01*
X106380658Y-67352278D01*
X106708525Y-67439622D01*
X107047134Y-67461324D01*
X107383470Y-67416549D01*
X107704607Y-67307019D01*
X107899871Y-67202648D01*
X108006196Y-66929301D01*
X106988000Y-65911105D01*
X105969804Y-66929301D01*
X103806196Y-66929301D01*
X102788000Y-65911105D01*
X102773858Y-65925248D01*
X102594253Y-65745643D01*
X102608395Y-65731500D01*
X102967605Y-65731500D01*
X103985801Y-66749696D01*
X104259148Y-66643371D01*
X104408778Y-66338842D01*
X104496122Y-66010975D01*
X104510244Y-65790634D01*
X105258176Y-65790634D01*
X105302951Y-66126970D01*
X105412481Y-66448107D01*
X105516852Y-66643371D01*
X105790199Y-66749696D01*
X106808395Y-65731500D01*
X105790199Y-64713304D01*
X105516852Y-64819629D01*
X105367222Y-65124158D01*
X105279878Y-65452025D01*
X105258176Y-65790634D01*
X104510244Y-65790634D01*
X104517824Y-65672366D01*
X104473049Y-65336030D01*
X104363519Y-65014893D01*
X104259148Y-64819629D01*
X103985801Y-64713304D01*
X102967605Y-65731500D01*
X102608395Y-65731500D01*
X101590199Y-64713304D01*
X101316852Y-64819629D01*
X101167222Y-65124158D01*
X101158076Y-65158488D01*
X100967953Y-64968365D01*
X100932406Y-64925051D01*
X100759580Y-64783216D01*
X100562404Y-64677824D01*
X100348456Y-64612923D01*
X100181709Y-64596500D01*
X100181708Y-64596500D01*
X100125957Y-64591009D01*
X100070206Y-64596500D01*
X99888982Y-64596500D01*
X99826181Y-64533699D01*
X101769804Y-64533699D01*
X102788000Y-65551895D01*
X103806196Y-64533699D01*
X105969804Y-64533699D01*
X106988000Y-65551895D01*
X108006196Y-64533699D01*
X107899871Y-64260352D01*
X107595342Y-64110722D01*
X107267475Y-64023378D01*
X106928866Y-64001676D01*
X106592530Y-64046451D01*
X106271393Y-64155981D01*
X106076129Y-64260352D01*
X105969804Y-64533699D01*
X103806196Y-64533699D01*
X103699871Y-64260352D01*
X103395342Y-64110722D01*
X103067475Y-64023378D01*
X102728866Y-64001676D01*
X102392530Y-64046451D01*
X102071393Y-64155981D01*
X101876129Y-64260352D01*
X101769804Y-64533699D01*
X99826181Y-64533699D01*
X99686029Y-64393547D01*
X99403909Y-64205041D01*
X99090435Y-64075195D01*
X98757651Y-64009000D01*
X98418349Y-64009000D01*
X98085565Y-64075195D01*
X97772091Y-64205041D01*
X97489971Y-64393547D01*
X97287018Y-64596500D01*
X95688982Y-64596500D01*
X95523000Y-64430518D01*
X95523000Y-62832482D01*
X95626181Y-62729301D01*
X97569804Y-62729301D01*
X97676129Y-63002648D01*
X97980658Y-63152278D01*
X98308525Y-63239622D01*
X98647134Y-63261324D01*
X98983470Y-63216549D01*
X99304607Y-63107019D01*
X99499871Y-63002648D01*
X99606196Y-62729301D01*
X101769804Y-62729301D01*
X101876129Y-63002648D01*
X102180658Y-63152278D01*
X102508525Y-63239622D01*
X102847134Y-63261324D01*
X103183470Y-63216549D01*
X103504607Y-63107019D01*
X103699871Y-63002648D01*
X103806196Y-62729301D01*
X105969804Y-62729301D01*
X106076129Y-63002648D01*
X106380658Y-63152278D01*
X106708525Y-63239622D01*
X107047134Y-63261324D01*
X107383470Y-63216549D01*
X107704607Y-63107019D01*
X107899871Y-63002648D01*
X108006196Y-62729301D01*
X110169804Y-62729301D01*
X110276129Y-63002648D01*
X110580658Y-63152278D01*
X110908525Y-63239622D01*
X111247134Y-63261324D01*
X111583470Y-63216549D01*
X111904607Y-63107019D01*
X112099871Y-63002648D01*
X112206196Y-62729301D01*
X114369804Y-62729301D01*
X114476129Y-63002648D01*
X114780658Y-63152278D01*
X115108525Y-63239622D01*
X115447134Y-63261324D01*
X115783470Y-63216549D01*
X116104607Y-63107019D01*
X116299871Y-63002648D01*
X116406196Y-62729301D01*
X115388000Y-61711105D01*
X114369804Y-62729301D01*
X112206196Y-62729301D01*
X111188000Y-61711105D01*
X110169804Y-62729301D01*
X108006196Y-62729301D01*
X106988000Y-61711105D01*
X105969804Y-62729301D01*
X103806196Y-62729301D01*
X102788000Y-61711105D01*
X101769804Y-62729301D01*
X99606196Y-62729301D01*
X98588000Y-61711105D01*
X97569804Y-62729301D01*
X95626181Y-62729301D01*
X95725953Y-62629529D01*
X95914459Y-62347409D01*
X96044305Y-62033935D01*
X96110500Y-61701151D01*
X96110500Y-61590634D01*
X96858176Y-61590634D01*
X96902951Y-61926970D01*
X97012481Y-62248107D01*
X97116852Y-62443371D01*
X97390199Y-62549696D01*
X98408395Y-61531500D01*
X98767605Y-61531500D01*
X99785801Y-62549696D01*
X100059148Y-62443371D01*
X100208778Y-62138842D01*
X100296122Y-61810975D01*
X100310244Y-61590634D01*
X101058176Y-61590634D01*
X101102951Y-61926970D01*
X101212481Y-62248107D01*
X101316852Y-62443371D01*
X101590199Y-62549696D01*
X102608395Y-61531500D01*
X102967605Y-61531500D01*
X103985801Y-62549696D01*
X104259148Y-62443371D01*
X104408778Y-62138842D01*
X104496122Y-61810975D01*
X104510244Y-61590634D01*
X105258176Y-61590634D01*
X105302951Y-61926970D01*
X105412481Y-62248107D01*
X105516852Y-62443371D01*
X105790199Y-62549696D01*
X106808395Y-61531500D01*
X107167605Y-61531500D01*
X108185801Y-62549696D01*
X108459148Y-62443371D01*
X108608778Y-62138842D01*
X108696122Y-61810975D01*
X108710244Y-61590634D01*
X109458176Y-61590634D01*
X109502951Y-61926970D01*
X109612481Y-62248107D01*
X109716852Y-62443371D01*
X109990199Y-62549696D01*
X111008395Y-61531500D01*
X111367605Y-61531500D01*
X112385801Y-62549696D01*
X112659148Y-62443371D01*
X112808778Y-62138842D01*
X112896122Y-61810975D01*
X112910244Y-61590634D01*
X113658176Y-61590634D01*
X113702951Y-61926970D01*
X113812481Y-62248107D01*
X113916852Y-62443371D01*
X114190199Y-62549696D01*
X115208395Y-61531500D01*
X115567605Y-61531500D01*
X116585801Y-62549696D01*
X116859148Y-62443371D01*
X117008778Y-62138842D01*
X117096122Y-61810975D01*
X117117824Y-61472366D01*
X117073049Y-61136030D01*
X116963519Y-60814893D01*
X116859148Y-60619629D01*
X116585801Y-60513304D01*
X115567605Y-61531500D01*
X115208395Y-61531500D01*
X114190199Y-60513304D01*
X113916852Y-60619629D01*
X113767222Y-60924158D01*
X113679878Y-61252025D01*
X113658176Y-61590634D01*
X112910244Y-61590634D01*
X112917824Y-61472366D01*
X112873049Y-61136030D01*
X112763519Y-60814893D01*
X112659148Y-60619629D01*
X112385801Y-60513304D01*
X111367605Y-61531500D01*
X111008395Y-61531500D01*
X109990199Y-60513304D01*
X109716852Y-60619629D01*
X109567222Y-60924158D01*
X109479878Y-61252025D01*
X109458176Y-61590634D01*
X108710244Y-61590634D01*
X108717824Y-61472366D01*
X108673049Y-61136030D01*
X108563519Y-60814893D01*
X108459148Y-60619629D01*
X108185801Y-60513304D01*
X107167605Y-61531500D01*
X106808395Y-61531500D01*
X105790199Y-60513304D01*
X105516852Y-60619629D01*
X105367222Y-60924158D01*
X105279878Y-61252025D01*
X105258176Y-61590634D01*
X104510244Y-61590634D01*
X104517824Y-61472366D01*
X104473049Y-61136030D01*
X104363519Y-60814893D01*
X104259148Y-60619629D01*
X103985801Y-60513304D01*
X102967605Y-61531500D01*
X102608395Y-61531500D01*
X101590199Y-60513304D01*
X101316852Y-60619629D01*
X101167222Y-60924158D01*
X101079878Y-61252025D01*
X101058176Y-61590634D01*
X100310244Y-61590634D01*
X100317824Y-61472366D01*
X100273049Y-61136030D01*
X100163519Y-60814893D01*
X100059148Y-60619629D01*
X99785801Y-60513304D01*
X98767605Y-61531500D01*
X98408395Y-61531500D01*
X97390199Y-60513304D01*
X97116852Y-60619629D01*
X96967222Y-60924158D01*
X96879878Y-61252025D01*
X96858176Y-61590634D01*
X96110500Y-61590634D01*
X96110500Y-61361849D01*
X96044305Y-61029065D01*
X95914459Y-60715591D01*
X95725953Y-60433471D01*
X95486029Y-60193547D01*
X95203909Y-60005041D01*
X94890435Y-59875195D01*
X94723553Y-59842000D01*
X98225965Y-59842000D01*
X98192530Y-59846451D01*
G37*
X98192530Y-59846451D02*
X97871393Y-59955981D01*
X97676129Y-60060352D01*
X97569804Y-60333699D01*
X98588000Y-61351895D01*
X99606196Y-60333699D01*
X99499871Y-60060352D01*
X99195342Y-59910722D01*
X98937377Y-59842000D01*
X102425965Y-59842000D01*
X102392530Y-59846451D01*
X102071393Y-59955981D01*
X101876129Y-60060352D01*
X101769804Y-60333699D01*
X102788000Y-61351895D01*
X103806196Y-60333699D01*
X103699871Y-60060352D01*
X103395342Y-59910722D01*
X103137377Y-59842000D01*
X106625965Y-59842000D01*
X106592530Y-59846451D01*
X106271393Y-59955981D01*
X106076129Y-60060352D01*
X105969804Y-60333699D01*
X106988000Y-61351895D01*
X108006196Y-60333699D01*
X107899871Y-60060352D01*
X107595342Y-59910722D01*
X107337377Y-59842000D01*
X110825965Y-59842000D01*
X110792530Y-59846451D01*
X110471393Y-59955981D01*
X110276129Y-60060352D01*
X110169804Y-60333699D01*
X111188000Y-61351895D01*
X112206196Y-60333699D01*
X112099871Y-60060352D01*
X111795342Y-59910722D01*
X111537377Y-59842000D01*
X115025965Y-59842000D01*
X114992530Y-59846451D01*
X114671393Y-59955981D01*
X114476129Y-60060352D01*
X114369804Y-60333699D01*
X115388000Y-61351895D01*
X116406196Y-60333699D01*
X116299871Y-60060352D01*
X115995342Y-59910722D01*
X115737377Y-59842000D01*
X119252447Y-59842000D01*
X119085565Y-59875195D01*
X118772091Y-60005041D01*
X118489971Y-60193547D01*
X118250047Y-60433471D01*
X118061541Y-60715591D01*
X117931695Y-61029065D01*
X117865500Y-61361849D01*
X117865500Y-61701151D01*
X117931695Y-62033935D01*
X118061541Y-62347409D01*
X118250047Y-62629529D01*
X118489971Y-62869453D01*
X118772091Y-63057959D01*
X119085565Y-63187805D01*
X119418349Y-63254000D01*
X119757651Y-63254000D01*
X120090435Y-63187805D01*
X120403909Y-63057959D01*
X120686029Y-62869453D01*
X120925953Y-62629529D01*
X121114459Y-62347409D01*
X121244305Y-62033935D01*
X121310500Y-61701151D01*
X121310500Y-61361849D01*
X121244305Y-61029065D01*
X121114459Y-60715591D01*
X120925953Y-60433471D01*
X120686029Y-60193547D01*
X120403909Y-60005041D01*
X120090435Y-59875195D01*
X119923553Y-59842000D01*
X123452447Y-59842000D01*
X123285565Y-59875195D01*
X122972091Y-60005041D01*
X122689971Y-60193547D01*
X122450047Y-60433471D01*
X122261541Y-60715591D01*
X122131695Y-61029065D01*
X122065500Y-61361849D01*
X122065500Y-61701151D01*
X122131695Y-62033935D01*
X122261541Y-62347409D01*
X122450047Y-62629529D01*
X122689971Y-62869453D01*
X122972091Y-63057959D01*
X123285565Y-63187805D01*
X123618349Y-63254000D01*
X123957651Y-63254000D01*
X124290435Y-63187805D01*
X124603909Y-63057959D01*
X124886029Y-62869453D01*
X125085551Y-62669931D01*
X127204866Y-62669931D01*
X127268366Y-63323793D01*
X127458208Y-63952703D01*
X127767096Y-64532492D01*
X127772172Y-64540089D01*
X128210626Y-64840269D01*
X130376395Y-62674500D01*
X128210626Y-60508731D01*
X127772172Y-60808911D01*
X127461704Y-61387856D01*
X127270148Y-62016246D01*
X127204866Y-62669931D01*
X125085551Y-62669931D01*
X125125953Y-62629529D01*
X125314459Y-62347409D01*
X125444305Y-62033935D01*
X125510500Y-61701151D01*
X125510500Y-61361849D01*
X125444305Y-61029065D01*
X125314459Y-60715591D01*
X125125953Y-60433471D01*
X124886029Y-60193547D01*
X124603909Y-60005041D01*
X124290435Y-59875195D01*
X124123553Y-59842000D01*
X128779839Y-59842000D01*
X128698008Y-59885596D01*
X128690411Y-59890672D01*
X128390231Y-60329126D01*
X130556000Y-62494895D01*
X132721769Y-60329126D01*
X132421589Y-59890672D01*
X132330828Y-59842000D01*
X133198000Y-59842000D01*
X133198000Y-60711811D01*
X132901374Y-60508731D01*
X130735605Y-62674500D01*
X132901374Y-64840269D01*
X133198000Y-64637189D01*
X133198000Y-70858471D01*
X133016769Y-70657412D01*
X132783420Y-70483359D01*
X132520599Y-70358175D01*
X132373390Y-70313524D01*
X132143500Y-70434845D01*
X132143500Y-71628000D01*
X132163500Y-71628000D01*
X132163500Y-71882000D01*
X132143500Y-71882000D01*
X132143500Y-74168000D01*
X132163500Y-74168000D01*
X132163500Y-74422000D01*
X132143500Y-74422000D01*
X132143500Y-75615155D01*
X132373390Y-75736476D01*
X132520599Y-75691825D01*
X132783420Y-75566641D01*
X133016769Y-75392588D01*
X133198000Y-75191529D01*
X133198000Y-77017971D01*
X133016769Y-76816912D01*
X132783420Y-76642859D01*
X132520599Y-76517675D01*
X132373390Y-76473024D01*
X132143500Y-76594345D01*
X132143500Y-77787500D01*
X132163500Y-77787500D01*
X132163500Y-78041500D01*
X132143500Y-78041500D01*
X132143500Y-80327500D01*
X132163500Y-80327500D01*
X132163500Y-80581500D01*
X132143500Y-80581500D01*
X132143500Y-81774655D01*
X132373390Y-81895976D01*
X132520599Y-81851325D01*
X132783420Y-81726141D01*
X133016769Y-81552088D01*
X133198000Y-81351029D01*
X133198000Y-83152971D01*
X133016769Y-82951912D01*
X132783420Y-82777859D01*
X132520599Y-82652675D01*
X132373390Y-82608024D01*
X132143500Y-82729345D01*
X132143500Y-83922500D01*
X132163500Y-83922500D01*
X132163500Y-84176500D01*
X132143500Y-84176500D01*
X132143500Y-86462500D01*
X132163500Y-86462500D01*
X132163500Y-86716500D01*
X132143500Y-86716500D01*
X132143500Y-87909655D01*
X132373390Y-88030976D01*
X132520599Y-87986325D01*
X132783420Y-87861141D01*
X133016769Y-87687088D01*
X133198001Y-87486029D01*
X133198001Y-89273471D01*
X133016769Y-89072412D01*
X132783420Y-88898359D01*
X132520599Y-88773175D01*
X132373390Y-88728524D01*
X132143500Y-88849845D01*
X132143500Y-90043000D01*
X132163500Y-90043000D01*
X132163500Y-90297000D01*
X132143500Y-90297000D01*
X132143500Y-92583000D01*
X132163500Y-92583000D01*
X132163500Y-92837000D01*
X132143500Y-92837000D01*
X132143500Y-94030155D01*
X132373390Y-94151476D01*
X132520599Y-94106825D01*
X132783420Y-93981641D01*
X133016769Y-93807588D01*
X133198001Y-93606529D01*
X133198001Y-102927531D01*
X133090904Y-102726508D01*
X133085828Y-102718911D01*
X132647374Y-102418731D01*
X130481605Y-104584500D01*
X132647374Y-106750269D01*
X133085828Y-106450089D01*
X133198001Y-106240915D01*
X133198001Y-107417000D01*
X132078161Y-107417000D01*
X132159992Y-107373404D01*
X132167589Y-107368328D01*
X132467769Y-106929874D01*
X130302000Y-104764105D01*
X128136231Y-106929874D01*
X128436411Y-107368328D01*
X128527172Y-107417000D01*
X76830966Y-107417000D01*
X76978492Y-107338404D01*
X76986089Y-107333328D01*
X77286269Y-106894874D01*
X75120500Y-104729105D01*
X72954731Y-106894874D01*
X73254911Y-107333328D01*
X73410938Y-107417000D01*
X72224500Y-107417000D01*
X72224500Y-106206471D01*
X72331596Y-106407492D01*
X72336672Y-106415089D01*
X72775126Y-106715269D01*
X74940895Y-104549500D01*
X72775126Y-102383731D01*
X72336672Y-102683911D01*
X72224500Y-102893084D01*
X72224500Y-95899072D01*
X73326000Y-95899072D01*
X73326000Y-98093898D01*
X73322323Y-98131230D01*
X73336997Y-98280215D01*
X73380453Y-98423476D01*
X73451025Y-98555506D01*
X73479537Y-98590247D01*
X73545999Y-98671231D01*
X73574997Y-98695029D01*
X76303611Y-101423643D01*
X75778754Y-101263648D01*
X75125069Y-101198366D01*
X74471207Y-101261866D01*
X73842297Y-101451708D01*
X73262508Y-101760596D01*
X73254911Y-101765672D01*
X72954731Y-102204126D01*
X75120500Y-104369895D01*
X75134643Y-104355753D01*
X75314248Y-104535358D01*
X75300105Y-104549500D01*
X77465874Y-106715269D01*
X77904328Y-106415089D01*
X78214796Y-105836144D01*
X78406352Y-105207754D01*
X78471634Y-104554069D01*
X78408134Y-103900207D01*
X78247273Y-103367306D01*
X81613990Y-106734023D01*
X81637788Y-106763021D01*
X81753513Y-106857994D01*
X81885542Y-106928566D01*
X82028803Y-106972023D01*
X82140456Y-106983020D01*
X82140465Y-106983020D01*
X82177788Y-106986696D01*
X82215111Y-106983020D01*
X116878658Y-106983020D01*
X116915980Y-106986696D01*
X116953302Y-106983020D01*
X116953313Y-106983020D01*
X117064966Y-106972023D01*
X117208227Y-106928566D01*
X117340256Y-106857994D01*
X117455981Y-106763021D01*
X117479784Y-106734017D01*
X119132707Y-105081094D01*
X119199547Y-105206143D01*
X119447603Y-105508398D01*
X119749858Y-105756453D01*
X120094699Y-105940774D01*
X120468873Y-106054278D01*
X120858000Y-106092604D01*
X121247128Y-106054278D01*
X121621302Y-105940774D01*
X121966143Y-105756453D01*
X122268398Y-105508398D01*
X122516453Y-105206143D01*
X122700774Y-104861302D01*
X122786126Y-104579931D01*
X126950866Y-104579931D01*
X127014366Y-105233793D01*
X127204208Y-105862703D01*
X127513096Y-106442492D01*
X127518172Y-106450089D01*
X127956626Y-106750269D01*
X130122395Y-104584500D01*
X127956626Y-102418731D01*
X127518172Y-102718911D01*
X127207704Y-103297856D01*
X127016148Y-103926246D01*
X126950866Y-104579931D01*
X122786126Y-104579931D01*
X122814278Y-104487127D01*
X122843000Y-104195509D01*
X122843000Y-104125239D01*
X124507335Y-102460905D01*
X124569724Y-102409704D01*
X124709713Y-102239126D01*
X128136231Y-102239126D01*
X130302000Y-104404895D01*
X132467769Y-102239126D01*
X132167589Y-101800672D01*
X131588644Y-101490204D01*
X130960254Y-101298648D01*
X130306569Y-101233366D01*
X129652707Y-101296866D01*
X129023797Y-101486708D01*
X128444008Y-101795596D01*
X128436411Y-101800672D01*
X128136231Y-102239126D01*
X124709713Y-102239126D01*
X124774041Y-102160742D01*
X124925862Y-101876705D01*
X124950466Y-101795596D01*
X125019353Y-101568507D01*
X125050921Y-101247990D01*
X125043010Y-101167668D01*
X125043010Y-97022074D01*
X125050921Y-96941752D01*
X125019353Y-96621235D01*
X124925862Y-96313037D01*
X124866582Y-96202132D01*
X124774041Y-96029000D01*
X124569724Y-95780038D01*
X124507328Y-95728832D01*
X122706523Y-93928027D01*
X122803132Y-93863475D01*
X123009975Y-93656632D01*
X123126500Y-93482240D01*
X123243025Y-93656632D01*
X123449868Y-93863475D01*
X123693089Y-94025990D01*
X123963342Y-94137932D01*
X124250240Y-94195000D01*
X124542760Y-94195000D01*
X124829658Y-94137932D01*
X125099911Y-94025990D01*
X125343132Y-93863475D01*
X125549975Y-93656632D01*
X125666500Y-93482240D01*
X125783025Y-93656632D01*
X125989868Y-93863475D01*
X126233089Y-94025990D01*
X126503342Y-94137932D01*
X126790240Y-94195000D01*
X127082760Y-94195000D01*
X127369658Y-94137932D01*
X127639911Y-94025990D01*
X127883132Y-93863475D01*
X128089975Y-93656632D01*
X128206500Y-93482240D01*
X128323025Y-93656632D01*
X128529868Y-93863475D01*
X128773089Y-94025990D01*
X129043342Y-94137932D01*
X129330240Y-94195000D01*
X129622760Y-94195000D01*
X129909658Y-94137932D01*
X130179911Y-94025990D01*
X130423132Y-93863475D01*
X130629975Y-93656632D01*
X130751695Y-93474466D01*
X130821322Y-93591355D01*
X131016231Y-93807588D01*
X131249580Y-93981641D01*
X131512401Y-94106825D01*
X131659610Y-94151476D01*
X131889500Y-94030155D01*
X131889500Y-92837000D01*
X131869500Y-92837000D01*
X131869500Y-92583000D01*
X131889500Y-92583000D01*
X131889500Y-90297000D01*
X131869500Y-90297000D01*
X131869500Y-90043000D01*
X131889500Y-90043000D01*
X131889500Y-88849845D01*
X131659610Y-88728524D01*
X131512401Y-88773175D01*
X131249580Y-88898359D01*
X131016231Y-89072412D01*
X130821322Y-89288645D01*
X130751695Y-89405534D01*
X130629975Y-89223368D01*
X130423132Y-89016525D01*
X130179911Y-88854010D01*
X129909658Y-88742068D01*
X129622760Y-88685000D01*
X129330240Y-88685000D01*
X129043342Y-88742068D01*
X128773089Y-88854010D01*
X128529868Y-89016525D01*
X128323025Y-89223368D01*
X128206500Y-89397760D01*
X128089975Y-89223368D01*
X127883132Y-89016525D01*
X127639911Y-88854010D01*
X127369658Y-88742068D01*
X127082760Y-88685000D01*
X126790240Y-88685000D01*
X126503342Y-88742068D01*
X126233089Y-88854010D01*
X125989868Y-89016525D01*
X125783025Y-89223368D01*
X125666500Y-89397760D01*
X125549975Y-89223368D01*
X125343132Y-89016525D01*
X125099911Y-88854010D01*
X124829658Y-88742068D01*
X124542760Y-88685000D01*
X124250240Y-88685000D01*
X123963342Y-88742068D01*
X123693089Y-88854010D01*
X123449868Y-89016525D01*
X123243025Y-89223368D01*
X123126500Y-89397760D01*
X123009975Y-89223368D01*
X122803132Y-89016525D01*
X122559911Y-88854010D01*
X122289658Y-88742068D01*
X122002760Y-88685000D01*
X121710240Y-88685000D01*
X121423342Y-88742068D01*
X121153089Y-88854010D01*
X120909868Y-89016525D01*
X120826501Y-89099892D01*
X120826501Y-87659608D01*
X120909868Y-87742975D01*
X121153089Y-87905490D01*
X121423342Y-88017432D01*
X121710240Y-88074500D01*
X122002760Y-88074500D01*
X122289658Y-88017432D01*
X122559911Y-87905490D01*
X122803132Y-87742975D01*
X123009975Y-87536132D01*
X123126500Y-87361740D01*
X123243025Y-87536132D01*
X123449868Y-87742975D01*
X123693089Y-87905490D01*
X123963342Y-88017432D01*
X124250240Y-88074500D01*
X124542760Y-88074500D01*
X124829658Y-88017432D01*
X125099911Y-87905490D01*
X125343132Y-87742975D01*
X125549975Y-87536132D01*
X125666500Y-87361740D01*
X125783025Y-87536132D01*
X125989868Y-87742975D01*
X126233089Y-87905490D01*
X126503342Y-88017432D01*
X126790240Y-88074500D01*
X127082760Y-88074500D01*
X127369658Y-88017432D01*
X127639911Y-87905490D01*
X127883132Y-87742975D01*
X128089975Y-87536132D01*
X128206500Y-87361740D01*
X128323025Y-87536132D01*
X128529868Y-87742975D01*
X128773089Y-87905490D01*
X129043342Y-88017432D01*
X129330240Y-88074500D01*
X129622760Y-88074500D01*
X129909658Y-88017432D01*
X130179911Y-87905490D01*
X130423132Y-87742975D01*
X130629975Y-87536132D01*
X130751695Y-87353966D01*
X130821322Y-87470855D01*
X131016231Y-87687088D01*
X131249580Y-87861141D01*
X131512401Y-87986325D01*
X131659610Y-88030976D01*
X131889500Y-87909655D01*
X131889500Y-86716500D01*
X131869500Y-86716500D01*
X131869500Y-86462500D01*
X131889500Y-86462500D01*
X131889500Y-84176500D01*
X131869500Y-84176500D01*
X131869500Y-83922500D01*
X131889500Y-83922500D01*
X131889500Y-82729345D01*
X131659610Y-82608024D01*
X131512401Y-82652675D01*
X131249580Y-82777859D01*
X131016231Y-82951912D01*
X130821322Y-83168145D01*
X130751695Y-83285034D01*
X130629975Y-83102868D01*
X130423132Y-82896025D01*
X130179911Y-82733510D01*
X129909658Y-82621568D01*
X129622760Y-82564500D01*
X129330240Y-82564500D01*
X129043342Y-82621568D01*
X128773089Y-82733510D01*
X128529868Y-82896025D01*
X128323025Y-83102868D01*
X128206500Y-83277260D01*
X128089975Y-83102868D01*
X127883132Y-82896025D01*
X127639911Y-82733510D01*
X127369658Y-82621568D01*
X127082760Y-82564500D01*
X126790240Y-82564500D01*
X126503342Y-82621568D01*
X126233089Y-82733510D01*
X125989868Y-82896025D01*
X125783025Y-83102868D01*
X125666500Y-83277260D01*
X125549975Y-83102868D01*
X125343132Y-82896025D01*
X125099911Y-82733510D01*
X124829658Y-82621568D01*
X124542760Y-82564500D01*
X124250240Y-82564500D01*
X123963342Y-82621568D01*
X123693089Y-82733510D01*
X123449868Y-82896025D01*
X123243025Y-83102868D01*
X123126500Y-83277260D01*
X123009975Y-83102868D01*
X122803132Y-82896025D01*
X122559911Y-82733510D01*
X122289658Y-82621568D01*
X122002760Y-82564500D01*
X121710240Y-82564500D01*
X121423342Y-82621568D01*
X121153089Y-82733510D01*
X120909868Y-82896025D01*
X120703025Y-83102868D01*
X120586500Y-83277260D01*
X120469975Y-83102868D01*
X120451500Y-83084393D01*
X120451500Y-81872183D01*
X120520994Y-81835037D01*
X120617685Y-81755685D01*
X120697037Y-81658994D01*
X120756002Y-81548680D01*
X120778013Y-81476120D01*
X120909868Y-81607975D01*
X121153089Y-81770490D01*
X121423342Y-81882432D01*
X121710240Y-81939500D01*
X122002760Y-81939500D01*
X122289658Y-81882432D01*
X122559911Y-81770490D01*
X122803132Y-81607975D01*
X123009975Y-81401132D01*
X123126500Y-81226740D01*
X123243025Y-81401132D01*
X123449868Y-81607975D01*
X123693089Y-81770490D01*
X123963342Y-81882432D01*
X124250240Y-81939500D01*
X124542760Y-81939500D01*
X124829658Y-81882432D01*
X125099911Y-81770490D01*
X125343132Y-81607975D01*
X125549975Y-81401132D01*
X125666500Y-81226740D01*
X125783025Y-81401132D01*
X125989868Y-81607975D01*
X126233089Y-81770490D01*
X126503342Y-81882432D01*
X126790240Y-81939500D01*
X127082760Y-81939500D01*
X127369658Y-81882432D01*
X127639911Y-81770490D01*
X127883132Y-81607975D01*
X128089975Y-81401132D01*
X128206500Y-81226740D01*
X128323025Y-81401132D01*
X128529868Y-81607975D01*
X128773089Y-81770490D01*
X129043342Y-81882432D01*
X129330240Y-81939500D01*
X129622760Y-81939500D01*
X129909658Y-81882432D01*
X130179911Y-81770490D01*
X130423132Y-81607975D01*
X130629975Y-81401132D01*
X130751695Y-81218966D01*
X130821322Y-81335855D01*
X131016231Y-81552088D01*
X131249580Y-81726141D01*
X131512401Y-81851325D01*
X131659610Y-81895976D01*
X131889500Y-81774655D01*
X131889500Y-80581500D01*
X131869500Y-80581500D01*
X131869500Y-80327500D01*
X131889500Y-80327500D01*
X131889500Y-78041500D01*
X131869500Y-78041500D01*
X131869500Y-77787500D01*
X131889500Y-77787500D01*
X131889500Y-76594345D01*
X131659610Y-76473024D01*
X131512401Y-76517675D01*
X131249580Y-76642859D01*
X131016231Y-76816912D01*
X130821322Y-77033145D01*
X130751695Y-77150034D01*
X130629975Y-76967868D01*
X130423132Y-76761025D01*
X130179911Y-76598510D01*
X129909658Y-76486568D01*
X129622760Y-76429500D01*
X129330240Y-76429500D01*
X129043342Y-76486568D01*
X128773089Y-76598510D01*
X128529868Y-76761025D01*
X128323025Y-76967868D01*
X128206500Y-77142260D01*
X128089975Y-76967868D01*
X127883132Y-76761025D01*
X127639911Y-76598510D01*
X127369658Y-76486568D01*
X127082760Y-76429500D01*
X126790240Y-76429500D01*
X126503342Y-76486568D01*
X126233089Y-76598510D01*
X125989868Y-76761025D01*
X125783025Y-76967868D01*
X125666500Y-77142260D01*
X125549975Y-76967868D01*
X125343132Y-76761025D01*
X125099911Y-76598510D01*
X124829658Y-76486568D01*
X124542760Y-76429500D01*
X124250240Y-76429500D01*
X123963342Y-76486568D01*
X123693089Y-76598510D01*
X123449868Y-76761025D01*
X123243025Y-76967868D01*
X123126500Y-77142260D01*
X123009975Y-76967868D01*
X122803132Y-76761025D01*
X122559911Y-76598510D01*
X122289658Y-76486568D01*
X122002760Y-76429500D01*
X121710240Y-76429500D01*
X121423342Y-76486568D01*
X121153089Y-76598510D01*
X120909868Y-76761025D01*
X120703025Y-76967868D01*
X120586500Y-77142260D01*
X120469975Y-76967868D01*
X120451500Y-76949393D01*
X120451500Y-75712683D01*
X120520994Y-75675537D01*
X120617685Y-75596185D01*
X120697037Y-75499494D01*
X120756002Y-75389180D01*
X120778013Y-75316620D01*
X120909868Y-75448475D01*
X121153089Y-75610990D01*
X121423342Y-75722932D01*
X121710240Y-75780000D01*
X122002760Y-75780000D01*
X122289658Y-75722932D01*
X122559911Y-75610990D01*
X122803132Y-75448475D01*
X123009975Y-75241632D01*
X123126500Y-75067240D01*
X123243025Y-75241632D01*
X123449868Y-75448475D01*
X123693089Y-75610990D01*
X123963342Y-75722932D01*
X124250240Y-75780000D01*
X124542760Y-75780000D01*
X124829658Y-75722932D01*
X125099911Y-75610990D01*
X125343132Y-75448475D01*
X125549975Y-75241632D01*
X125666500Y-75067240D01*
X125783025Y-75241632D01*
X125989868Y-75448475D01*
X126233089Y-75610990D01*
X126503342Y-75722932D01*
X126790240Y-75780000D01*
X127082760Y-75780000D01*
X127369658Y-75722932D01*
X127639911Y-75610990D01*
X127883132Y-75448475D01*
X128089975Y-75241632D01*
X128206500Y-75067240D01*
X128323025Y-75241632D01*
X128529868Y-75448475D01*
X128773089Y-75610990D01*
X129043342Y-75722932D01*
X129330240Y-75780000D01*
X129622760Y-75780000D01*
X129909658Y-75722932D01*
X130179911Y-75610990D01*
X130423132Y-75448475D01*
X130629975Y-75241632D01*
X130751695Y-75059466D01*
X130821322Y-75176355D01*
X131016231Y-75392588D01*
X131249580Y-75566641D01*
X131512401Y-75691825D01*
X131659610Y-75736476D01*
X131889500Y-75615155D01*
X131889500Y-74422000D01*
X131869500Y-74422000D01*
X131869500Y-74168000D01*
X131889500Y-74168000D01*
X131889500Y-71882000D01*
X131869500Y-71882000D01*
X131869500Y-71628000D01*
X131889500Y-71628000D01*
X131889500Y-70434845D01*
X131659610Y-70313524D01*
X131512401Y-70358175D01*
X131249580Y-70483359D01*
X131016231Y-70657412D01*
X130821322Y-70873645D01*
X130751695Y-70990534D01*
X130629975Y-70808368D01*
X130423132Y-70601525D01*
X130179911Y-70439010D01*
X129909658Y-70327068D01*
X129622760Y-70270000D01*
X129330240Y-70270000D01*
X129043342Y-70327068D01*
X128773089Y-70439010D01*
X128529868Y-70601525D01*
X128323025Y-70808368D01*
X128206500Y-70982760D01*
X128089975Y-70808368D01*
X127883132Y-70601525D01*
X127639911Y-70439010D01*
X127369658Y-70327068D01*
X127082760Y-70270000D01*
X126790240Y-70270000D01*
X126503342Y-70327068D01*
X126233089Y-70439010D01*
X125989868Y-70601525D01*
X125783025Y-70808368D01*
X125666500Y-70982760D01*
X125549975Y-70808368D01*
X125343132Y-70601525D01*
X125099911Y-70439010D01*
X124829658Y-70327068D01*
X124542760Y-70270000D01*
X124250240Y-70270000D01*
X123963342Y-70327068D01*
X123693089Y-70439010D01*
X123449868Y-70601525D01*
X123243025Y-70808368D01*
X123126500Y-70982760D01*
X123009975Y-70808368D01*
X122803132Y-70601525D01*
X122559911Y-70439010D01*
X122289658Y-70327068D01*
X122002760Y-70270000D01*
X121710240Y-70270000D01*
X121423342Y-70327068D01*
X121153089Y-70439010D01*
X120909868Y-70601525D01*
X120703025Y-70808368D01*
X120586500Y-70982760D01*
X120469975Y-70808368D01*
X120263132Y-70601525D01*
X120019911Y-70439010D01*
X119749658Y-70327068D01*
X119462760Y-70270000D01*
X119170240Y-70270000D01*
X118883342Y-70327068D01*
X118613089Y-70439010D01*
X118369868Y-70601525D01*
X118163025Y-70808368D01*
X118000510Y-71051589D01*
X117888568Y-71321842D01*
X117831500Y-71608740D01*
X117831500Y-71634868D01*
X112747368Y-76719001D01*
X109639442Y-76719001D01*
X109666000Y-76585486D01*
X109666000Y-76322514D01*
X109614696Y-76064595D01*
X109514061Y-75821641D01*
X109367962Y-75602987D01*
X109182013Y-75417038D01*
X108963359Y-75270939D01*
X108720405Y-75170304D01*
X108565545Y-75139500D01*
X108623439Y-75139500D01*
X108823398Y-75099726D01*
X109011756Y-75021705D01*
X109181274Y-74908437D01*
X109325437Y-74764274D01*
X109438705Y-74594756D01*
X109516726Y-74406398D01*
X109556500Y-74206439D01*
X109556500Y-74002561D01*
X109516726Y-73802602D01*
X109438705Y-73614244D01*
X109325437Y-73444726D01*
X109281500Y-73400789D01*
X109281500Y-70425299D01*
X109858004Y-69848796D01*
X109887001Y-69824999D01*
X109981974Y-69709274D01*
X110052546Y-69577245D01*
X110096003Y-69433984D01*
X110107000Y-69322331D01*
X110107000Y-69322322D01*
X110110676Y-69284999D01*
X110107000Y-69247676D01*
X110107000Y-66992108D01*
X110169805Y-66929303D01*
X110276129Y-67202648D01*
X110580658Y-67352278D01*
X110908525Y-67439622D01*
X111247134Y-67461324D01*
X111583470Y-67416549D01*
X111904607Y-67307019D01*
X112099871Y-67202648D01*
X112206196Y-66929301D01*
X114369804Y-66929301D01*
X114476129Y-67202648D01*
X114780658Y-67352278D01*
X115108525Y-67439622D01*
X115447134Y-67461324D01*
X115783470Y-67416549D01*
X116104607Y-67307019D01*
X116299871Y-67202648D01*
X116406196Y-66929301D01*
X115388000Y-65911105D01*
X114369804Y-66929301D01*
X112206196Y-66929301D01*
X111188000Y-65911105D01*
X111173858Y-65925248D01*
X110994253Y-65745643D01*
X111008395Y-65731500D01*
X110994253Y-65717358D01*
X111173858Y-65537753D01*
X111188000Y-65551895D01*
X111202143Y-65537753D01*
X111381748Y-65717358D01*
X111367605Y-65731500D01*
X112385801Y-66749696D01*
X112659148Y-66643371D01*
X112808778Y-66338842D01*
X112896122Y-66010975D01*
X112917824Y-65672366D01*
X112873049Y-65336030D01*
X112785384Y-65078999D01*
X113789411Y-65078999D01*
X113767222Y-65124158D01*
X113679878Y-65452025D01*
X113658176Y-65790634D01*
X113702951Y-66126970D01*
X113812481Y-66448107D01*
X113916852Y-66643371D01*
X114190199Y-66749696D01*
X115208395Y-65731500D01*
X115194253Y-65717358D01*
X115373858Y-65537753D01*
X115388000Y-65551895D01*
X115402143Y-65537753D01*
X115581748Y-65717358D01*
X115567605Y-65731500D01*
X116585801Y-66749696D01*
X116859148Y-66643371D01*
X117008778Y-66338842D01*
X117096122Y-66010975D01*
X117117824Y-65672366D01*
X117073049Y-65336030D01*
X116985384Y-65078999D01*
X117860698Y-65078999D01*
X117954854Y-65173155D01*
X117931695Y-65229065D01*
X117865500Y-65561849D01*
X117865500Y-65901151D01*
X117931695Y-66233935D01*
X118061541Y-66547409D01*
X118250047Y-66829529D01*
X118489971Y-67069453D01*
X118772091Y-67257959D01*
X119085565Y-67387805D01*
X119418349Y-67454000D01*
X119757651Y-67454000D01*
X120090435Y-67387805D01*
X120403909Y-67257959D01*
X120686029Y-67069453D01*
X120925953Y-66829529D01*
X121114459Y-66547409D01*
X121244305Y-66233935D01*
X121310500Y-65901151D01*
X121310500Y-65561849D01*
X122065500Y-65561849D01*
X122065500Y-65901151D01*
X122131695Y-66233935D01*
X122261541Y-66547409D01*
X122450047Y-66829529D01*
X122689971Y-67069453D01*
X122972091Y-67257959D01*
X123285565Y-67387805D01*
X123618349Y-67454000D01*
X123957651Y-67454000D01*
X124290435Y-67387805D01*
X124603909Y-67257959D01*
X124886029Y-67069453D01*
X125125953Y-66829529D01*
X125314459Y-66547409D01*
X125444305Y-66233935D01*
X125510500Y-65901151D01*
X125510500Y-65561849D01*
X125444305Y-65229065D01*
X125357655Y-65019874D01*
X128390231Y-65019874D01*
X128690411Y-65458328D01*
X129269356Y-65768796D01*
X129897746Y-65960352D01*
X130551431Y-66025634D01*
X131205293Y-65962134D01*
X131834203Y-65772292D01*
X132413992Y-65463404D01*
X132421589Y-65458328D01*
X132721769Y-65019874D01*
X130556000Y-62854105D01*
X128390231Y-65019874D01*
X125357655Y-65019874D01*
X125314459Y-64915591D01*
X125125953Y-64633471D01*
X124886029Y-64393547D01*
X124603909Y-64205041D01*
X124290435Y-64075195D01*
X123957651Y-64009000D01*
X123618349Y-64009000D01*
X123285565Y-64075195D01*
X122972091Y-64205041D01*
X122689971Y-64393547D01*
X122450047Y-64633471D01*
X122261541Y-64915591D01*
X122131695Y-65229065D01*
X122065500Y-65561849D01*
X121310500Y-65561849D01*
X121244305Y-65229065D01*
X121114459Y-64915591D01*
X120925953Y-64633471D01*
X120686029Y-64393547D01*
X120403909Y-64205041D01*
X120090435Y-64075195D01*
X119757651Y-64009000D01*
X119418349Y-64009000D01*
X119085565Y-64075195D01*
X119029655Y-64098354D01*
X118739303Y-63808002D01*
X118715500Y-63778998D01*
X118599775Y-63684025D01*
X118467746Y-63613453D01*
X118324485Y-63569996D01*
X118212832Y-63558999D01*
X118212821Y-63558999D01*
X118175499Y-63555323D01*
X118138177Y-63558999D01*
X110547322Y-63558999D01*
X110509999Y-63555323D01*
X110472676Y-63558999D01*
X110472666Y-63558999D01*
X110361013Y-63569996D01*
X110217752Y-63613453D01*
X110085722Y-63684025D01*
X110002082Y-63752667D01*
X109969998Y-63778998D01*
X109946200Y-63807996D01*
X108835998Y-64918199D01*
X108807000Y-64941997D01*
X108783202Y-64970995D01*
X108783201Y-64970996D01*
X108712026Y-65057722D01*
X108641454Y-65189752D01*
X108632842Y-65218144D01*
X108563519Y-65014893D01*
X108459148Y-64819629D01*
X108185801Y-64713304D01*
X107167605Y-65731500D01*
X108185801Y-66749696D01*
X108459148Y-66643371D01*
X108587001Y-66383163D01*
X108587000Y-68970196D01*
X108010498Y-69546699D01*
X107981500Y-69570497D01*
X107957702Y-69599495D01*
X107957701Y-69599496D01*
X107886526Y-69686222D01*
X107815954Y-69818252D01*
X107772498Y-69961513D01*
X107757824Y-70110498D01*
X107761501Y-70147830D01*
X107761501Y-71759401D01*
X107737448Y-71730093D01*
X107694145Y-71694555D01*
X103356964Y-67357375D01*
X103504607Y-67307019D01*
X103699871Y-67202648D01*
X103806196Y-66929301D01*
X105969804Y-66929301D01*
X106076129Y-67202648D01*
X106380658Y-67352278D01*
X106708525Y-67439622D01*
X107047134Y-67461324D01*
X107383470Y-67416549D01*
X107704607Y-67307019D01*
X107899871Y-67202648D01*
X108006196Y-66929301D01*
X106988000Y-65911105D01*
X105969804Y-66929301D01*
X103806196Y-66929301D01*
X102788000Y-65911105D01*
X102773858Y-65925248D01*
X102594253Y-65745643D01*
X102608395Y-65731500D01*
X102967605Y-65731500D01*
X103985801Y-66749696D01*
X104259148Y-66643371D01*
X104408778Y-66338842D01*
X104496122Y-66010975D01*
X104510244Y-65790634D01*
X105258176Y-65790634D01*
X105302951Y-66126970D01*
X105412481Y-66448107D01*
X105516852Y-66643371D01*
X105790199Y-66749696D01*
X106808395Y-65731500D01*
X105790199Y-64713304D01*
X105516852Y-64819629D01*
X105367222Y-65124158D01*
X105279878Y-65452025D01*
X105258176Y-65790634D01*
X104510244Y-65790634D01*
X104517824Y-65672366D01*
X104473049Y-65336030D01*
X104363519Y-65014893D01*
X104259148Y-64819629D01*
X103985801Y-64713304D01*
X102967605Y-65731500D01*
X102608395Y-65731500D01*
X101590199Y-64713304D01*
X101316852Y-64819629D01*
X101167222Y-65124158D01*
X101158076Y-65158488D01*
X100967953Y-64968365D01*
X100932406Y-64925051D01*
X100759580Y-64783216D01*
X100562404Y-64677824D01*
X100348456Y-64612923D01*
X100181709Y-64596500D01*
X100181708Y-64596500D01*
X100125957Y-64591009D01*
X100070206Y-64596500D01*
X99888982Y-64596500D01*
X99826181Y-64533699D01*
X101769804Y-64533699D01*
X102788000Y-65551895D01*
X103806196Y-64533699D01*
X105969804Y-64533699D01*
X106988000Y-65551895D01*
X108006196Y-64533699D01*
X107899871Y-64260352D01*
X107595342Y-64110722D01*
X107267475Y-64023378D01*
X106928866Y-64001676D01*
X106592530Y-64046451D01*
X106271393Y-64155981D01*
X106076129Y-64260352D01*
X105969804Y-64533699D01*
X103806196Y-64533699D01*
X103699871Y-64260352D01*
X103395342Y-64110722D01*
X103067475Y-64023378D01*
X102728866Y-64001676D01*
X102392530Y-64046451D01*
X102071393Y-64155981D01*
X101876129Y-64260352D01*
X101769804Y-64533699D01*
X99826181Y-64533699D01*
X99686029Y-64393547D01*
X99403909Y-64205041D01*
X99090435Y-64075195D01*
X98757651Y-64009000D01*
X98418349Y-64009000D01*
X98085565Y-64075195D01*
X97772091Y-64205041D01*
X97489971Y-64393547D01*
X97287018Y-64596500D01*
X95688982Y-64596500D01*
X95523000Y-64430518D01*
X95523000Y-62832482D01*
X95626181Y-62729301D01*
X97569804Y-62729301D01*
X97676129Y-63002648D01*
X97980658Y-63152278D01*
X98308525Y-63239622D01*
X98647134Y-63261324D01*
X98983470Y-63216549D01*
X99304607Y-63107019D01*
X99499871Y-63002648D01*
X99606196Y-62729301D01*
X101769804Y-62729301D01*
X101876129Y-63002648D01*
X102180658Y-63152278D01*
X102508525Y-63239622D01*
X102847134Y-63261324D01*
X103183470Y-63216549D01*
X103504607Y-63107019D01*
X103699871Y-63002648D01*
X103806196Y-62729301D01*
X105969804Y-62729301D01*
X106076129Y-63002648D01*
X106380658Y-63152278D01*
X106708525Y-63239622D01*
X107047134Y-63261324D01*
X107383470Y-63216549D01*
X107704607Y-63107019D01*
X107899871Y-63002648D01*
X108006196Y-62729301D01*
X110169804Y-62729301D01*
X110276129Y-63002648D01*
X110580658Y-63152278D01*
X110908525Y-63239622D01*
X111247134Y-63261324D01*
X111583470Y-63216549D01*
X111904607Y-63107019D01*
X112099871Y-63002648D01*
X112206196Y-62729301D01*
X114369804Y-62729301D01*
X114476129Y-63002648D01*
X114780658Y-63152278D01*
X115108525Y-63239622D01*
X115447134Y-63261324D01*
X115783470Y-63216549D01*
X116104607Y-63107019D01*
X116299871Y-63002648D01*
X116406196Y-62729301D01*
X115388000Y-61711105D01*
X114369804Y-62729301D01*
X112206196Y-62729301D01*
X111188000Y-61711105D01*
X110169804Y-62729301D01*
X108006196Y-62729301D01*
X106988000Y-61711105D01*
X105969804Y-62729301D01*
X103806196Y-62729301D01*
X102788000Y-61711105D01*
X101769804Y-62729301D01*
X99606196Y-62729301D01*
X98588000Y-61711105D01*
X97569804Y-62729301D01*
X95626181Y-62729301D01*
X95725953Y-62629529D01*
X95914459Y-62347409D01*
X96044305Y-62033935D01*
X96110500Y-61701151D01*
X96110500Y-61590634D01*
X96858176Y-61590634D01*
X96902951Y-61926970D01*
X97012481Y-62248107D01*
X97116852Y-62443371D01*
X97390199Y-62549696D01*
X98408395Y-61531500D01*
X98767605Y-61531500D01*
X99785801Y-62549696D01*
X100059148Y-62443371D01*
X100208778Y-62138842D01*
X100296122Y-61810975D01*
X100310244Y-61590634D01*
X101058176Y-61590634D01*
X101102951Y-61926970D01*
X101212481Y-62248107D01*
X101316852Y-62443371D01*
X101590199Y-62549696D01*
X102608395Y-61531500D01*
X102967605Y-61531500D01*
X103985801Y-62549696D01*
X104259148Y-62443371D01*
X104408778Y-62138842D01*
X104496122Y-61810975D01*
X104510244Y-61590634D01*
X105258176Y-61590634D01*
X105302951Y-61926970D01*
X105412481Y-62248107D01*
X105516852Y-62443371D01*
X105790199Y-62549696D01*
X106808395Y-61531500D01*
X107167605Y-61531500D01*
X108185801Y-62549696D01*
X108459148Y-62443371D01*
X108608778Y-62138842D01*
X108696122Y-61810975D01*
X108710244Y-61590634D01*
X109458176Y-61590634D01*
X109502951Y-61926970D01*
X109612481Y-62248107D01*
X109716852Y-62443371D01*
X109990199Y-62549696D01*
X111008395Y-61531500D01*
X111367605Y-61531500D01*
X112385801Y-62549696D01*
X112659148Y-62443371D01*
X112808778Y-62138842D01*
X112896122Y-61810975D01*
X112910244Y-61590634D01*
X113658176Y-61590634D01*
X113702951Y-61926970D01*
X113812481Y-62248107D01*
X113916852Y-62443371D01*
X114190199Y-62549696D01*
X115208395Y-61531500D01*
X115567605Y-61531500D01*
X116585801Y-62549696D01*
X116859148Y-62443371D01*
X117008778Y-62138842D01*
X117096122Y-61810975D01*
X117117824Y-61472366D01*
X117073049Y-61136030D01*
X116963519Y-60814893D01*
X116859148Y-60619629D01*
X116585801Y-60513304D01*
X115567605Y-61531500D01*
X115208395Y-61531500D01*
X114190199Y-60513304D01*
X113916852Y-60619629D01*
X113767222Y-60924158D01*
X113679878Y-61252025D01*
X113658176Y-61590634D01*
X112910244Y-61590634D01*
X112917824Y-61472366D01*
X112873049Y-61136030D01*
X112763519Y-60814893D01*
X112659148Y-60619629D01*
X112385801Y-60513304D01*
X111367605Y-61531500D01*
X111008395Y-61531500D01*
X109990199Y-60513304D01*
X109716852Y-60619629D01*
X109567222Y-60924158D01*
X109479878Y-61252025D01*
X109458176Y-61590634D01*
X108710244Y-61590634D01*
X108717824Y-61472366D01*
X108673049Y-61136030D01*
X108563519Y-60814893D01*
X108459148Y-60619629D01*
X108185801Y-60513304D01*
X107167605Y-61531500D01*
X106808395Y-61531500D01*
X105790199Y-60513304D01*
X105516852Y-60619629D01*
X105367222Y-60924158D01*
X105279878Y-61252025D01*
X105258176Y-61590634D01*
X104510244Y-61590634D01*
X104517824Y-61472366D01*
X104473049Y-61136030D01*
X104363519Y-60814893D01*
X104259148Y-60619629D01*
X103985801Y-60513304D01*
X102967605Y-61531500D01*
X102608395Y-61531500D01*
X101590199Y-60513304D01*
X101316852Y-60619629D01*
X101167222Y-60924158D01*
X101079878Y-61252025D01*
X101058176Y-61590634D01*
X100310244Y-61590634D01*
X100317824Y-61472366D01*
X100273049Y-61136030D01*
X100163519Y-60814893D01*
X100059148Y-60619629D01*
X99785801Y-60513304D01*
X98767605Y-61531500D01*
X98408395Y-61531500D01*
X97390199Y-60513304D01*
X97116852Y-60619629D01*
X96967222Y-60924158D01*
X96879878Y-61252025D01*
X96858176Y-61590634D01*
X96110500Y-61590634D01*
X96110500Y-61361849D01*
X96044305Y-61029065D01*
X95914459Y-60715591D01*
X95725953Y-60433471D01*
X95486029Y-60193547D01*
X95203909Y-60005041D01*
X94890435Y-59875195D01*
X94723553Y-59842000D01*
X98225965Y-59842000D01*
X98192530Y-59846451D01*
G36*
X114673000Y-103418131D02*
G01*
X114673000Y-104195510D01*
X114701722Y-104487128D01*
X114815226Y-104861302D01*
X114999547Y-105206143D01*
X115210362Y-105463020D01*
X113905639Y-105463020D01*
X114116453Y-105206143D01*
X114300774Y-104861302D01*
X114414278Y-104487127D01*
X114443000Y-104195509D01*
X114443000Y-103400490D01*
X114419799Y-103164931D01*
X114673000Y-103418131D01*
G37*
X114673000Y-103418131D02*
X114673000Y-104195510D01*
X114701722Y-104487128D01*
X114815226Y-104861302D01*
X114999547Y-105206143D01*
X115210362Y-105463020D01*
X113905639Y-105463020D01*
X114116453Y-105206143D01*
X114300774Y-104861302D01*
X114414278Y-104487127D01*
X114443000Y-104195509D01*
X114443000Y-103400490D01*
X114419799Y-103164931D01*
X114673000Y-103418131D01*
G36*
X89089971Y-67069453D02*
G01*
X89372091Y-67257959D01*
X89678865Y-67385030D01*
X88170950Y-68892946D01*
X88137183Y-68920658D01*
X88109470Y-68954426D01*
X88109467Y-68954429D01*
X88026589Y-69055416D01*
X87944411Y-69209162D01*
X87893804Y-69375985D01*
X87876718Y-69549475D01*
X87881000Y-69592954D01*
X87880999Y-88011532D01*
X87876718Y-88055001D01*
X87880999Y-88098470D01*
X87880999Y-88098477D01*
X87887039Y-88159798D01*
X87893804Y-88228491D01*
X87909156Y-88279097D01*
X87944410Y-88395313D01*
X88026588Y-88549059D01*
X88137182Y-88683818D01*
X88170955Y-88711535D01*
X88473011Y-89013591D01*
X88473010Y-96427251D01*
X88366143Y-96339547D01*
X88021301Y-96155226D01*
X87647127Y-96041722D01*
X87258000Y-96003396D01*
X86868872Y-96041722D01*
X86494698Y-96155226D01*
X86149857Y-96339547D01*
X85847602Y-96587602D01*
X85599547Y-96889857D01*
X85415226Y-97234699D01*
X85301722Y-97608873D01*
X85273000Y-97900491D01*
X85273000Y-98695510D01*
X85301722Y-98987128D01*
X85415226Y-99361302D01*
X85599547Y-99706143D01*
X85847603Y-100008398D01*
X86149858Y-100256453D01*
X86494699Y-100440774D01*
X86868873Y-100554278D01*
X87258000Y-100592604D01*
X87647128Y-100554278D01*
X88021302Y-100440774D01*
X88366143Y-100256453D01*
X88473010Y-100168749D01*
X88473010Y-101331411D01*
X88104646Y-101699775D01*
X88021301Y-101655226D01*
X87647127Y-101541722D01*
X87258000Y-101503396D01*
X86868872Y-101541722D01*
X86494698Y-101655226D01*
X86149857Y-101839547D01*
X85847602Y-102087602D01*
X85599547Y-102389857D01*
X85415226Y-102734699D01*
X85301722Y-103108873D01*
X85273000Y-103400491D01*
X85273000Y-104195510D01*
X85301722Y-104487128D01*
X85415226Y-104861302D01*
X85496315Y-105013010D01*
X84819685Y-105013010D01*
X84900774Y-104861302D01*
X85014278Y-104487127D01*
X85043000Y-104195509D01*
X85043000Y-103400490D01*
X85014278Y-103108872D01*
X84900774Y-102734698D01*
X84716453Y-102389857D01*
X84468398Y-102087602D01*
X84166143Y-101839547D01*
X83821301Y-101655226D01*
X83447127Y-101541722D01*
X83058000Y-101503396D01*
X82668872Y-101541722D01*
X82294698Y-101655226D01*
X81949857Y-101839547D01*
X81647602Y-102087602D01*
X81399547Y-102389857D01*
X81215226Y-102734699D01*
X81101722Y-103108873D01*
X81073000Y-103400491D01*
X81073000Y-103407019D01*
X76071000Y-98405020D01*
X76071000Y-96898001D01*
X81069928Y-96898001D01*
X81069928Y-99697999D01*
X81086992Y-99871253D01*
X81137529Y-100037850D01*
X81219595Y-100191386D01*
X81330039Y-100325961D01*
X81464614Y-100436405D01*
X81618150Y-100518471D01*
X81784747Y-100569008D01*
X81958001Y-100586072D01*
X84157999Y-100586072D01*
X84331253Y-100569008D01*
X84497850Y-100518471D01*
X84651386Y-100436405D01*
X84785961Y-100325961D01*
X84896405Y-100191386D01*
X84978471Y-100037850D01*
X85029008Y-99871253D01*
X85046072Y-99697999D01*
X85046072Y-96898001D01*
X85029008Y-96724747D01*
X84978471Y-96558150D01*
X84896405Y-96404614D01*
X84785961Y-96270039D01*
X84651386Y-96159595D01*
X84497850Y-96077529D01*
X84331253Y-96026992D01*
X84157999Y-96009928D01*
X81958001Y-96009928D01*
X81784747Y-96026992D01*
X81618150Y-96077529D01*
X81464614Y-96159595D01*
X81330039Y-96270039D01*
X81219595Y-96404614D01*
X81137529Y-96558150D01*
X81086992Y-96724747D01*
X81069928Y-96898001D01*
X76071000Y-96898001D01*
X76071000Y-95699313D01*
X76289505Y-95553312D01*
X76503312Y-95339505D01*
X76671299Y-95088095D01*
X76787011Y-94808743D01*
X76846000Y-94512184D01*
X76846000Y-94209816D01*
X76787011Y-93913257D01*
X76671299Y-93633905D01*
X76503312Y-93382495D01*
X76289505Y-93168688D01*
X76038095Y-93000701D01*
X75758743Y-92884989D01*
X75462184Y-92826000D01*
X75159816Y-92826000D01*
X74863257Y-92884989D01*
X74845999Y-92892138D01*
X74845999Y-91189102D01*
X74902070Y-91133031D01*
X75159816Y-91184300D01*
X75462184Y-91184300D01*
X75758743Y-91125311D01*
X76038095Y-91009599D01*
X76289505Y-90841612D01*
X76503312Y-90627805D01*
X76671299Y-90376395D01*
X76787011Y-90097043D01*
X76846000Y-89800484D01*
X76846000Y-89498116D01*
X76787011Y-89201557D01*
X76671299Y-88922205D01*
X76503312Y-88670795D01*
X76289505Y-88456988D01*
X76038095Y-88289001D01*
X75758743Y-88173289D01*
X75462184Y-88114300D01*
X75159816Y-88114300D01*
X74863257Y-88173289D01*
X74583905Y-88289001D01*
X74332495Y-88456988D01*
X74266056Y-88523427D01*
X74260502Y-88505120D01*
X74201537Y-88394806D01*
X74122185Y-88298115D01*
X74025494Y-88218763D01*
X73915180Y-88159798D01*
X73795482Y-88123488D01*
X73671000Y-88111228D01*
X72224500Y-88111228D01*
X72224500Y-86475672D01*
X73671000Y-86475672D01*
X73795482Y-86463412D01*
X73915180Y-86427102D01*
X74025494Y-86368137D01*
X74122185Y-86288785D01*
X74201537Y-86192094D01*
X74260502Y-86081780D01*
X74266056Y-86063473D01*
X74332495Y-86129912D01*
X74583905Y-86297899D01*
X74863257Y-86413611D01*
X75159816Y-86472600D01*
X75462184Y-86472600D01*
X75719930Y-86421331D01*
X76153202Y-86854604D01*
X76177000Y-86883602D01*
X76292725Y-86978575D01*
X76424754Y-87049147D01*
X76568015Y-87092604D01*
X76679668Y-87103601D01*
X76679676Y-87103601D01*
X76717001Y-87107277D01*
X76754326Y-87103601D01*
X81016444Y-87103601D01*
X81012304Y-87113595D01*
X80961000Y-87371514D01*
X80961000Y-87634486D01*
X81012304Y-87892405D01*
X81112939Y-88135359D01*
X81259038Y-88354013D01*
X81444987Y-88539962D01*
X81663641Y-88686061D01*
X81906595Y-88786696D01*
X82164514Y-88838000D01*
X82427486Y-88838000D01*
X82685405Y-88786696D01*
X82928359Y-88686061D01*
X83147013Y-88539962D01*
X83332962Y-88354013D01*
X83479061Y-88135359D01*
X83579696Y-87892405D01*
X83631000Y-87634486D01*
X83631000Y-87371514D01*
X83579696Y-87113595D01*
X83479061Y-86870641D01*
X83421664Y-86784739D01*
X86499004Y-83707400D01*
X86528001Y-83683603D01*
X86585900Y-83613053D01*
X86622974Y-83567879D01*
X86693546Y-83435849D01*
X86703632Y-83402600D01*
X86737003Y-83292588D01*
X86748000Y-83180935D01*
X86748000Y-83180925D01*
X86751676Y-83143602D01*
X86748000Y-83106280D01*
X86748000Y-67281117D01*
X86803909Y-67257959D01*
X87086029Y-67069453D01*
X87288982Y-66866500D01*
X88887018Y-66866500D01*
X89089971Y-67069453D01*
G37*
X89089971Y-67069453D02*
X89372091Y-67257959D01*
X89678865Y-67385030D01*
X88170950Y-68892946D01*
X88137183Y-68920658D01*
X88109470Y-68954426D01*
X88109467Y-68954429D01*
X88026589Y-69055416D01*
X87944411Y-69209162D01*
X87893804Y-69375985D01*
X87876718Y-69549475D01*
X87881000Y-69592954D01*
X87880999Y-88011532D01*
X87876718Y-88055001D01*
X87880999Y-88098470D01*
X87880999Y-88098477D01*
X87887039Y-88159798D01*
X87893804Y-88228491D01*
X87909156Y-88279097D01*
X87944410Y-88395313D01*
X88026588Y-88549059D01*
X88137182Y-88683818D01*
X88170955Y-88711535D01*
X88473011Y-89013591D01*
X88473010Y-96427251D01*
X88366143Y-96339547D01*
X88021301Y-96155226D01*
X87647127Y-96041722D01*
X87258000Y-96003396D01*
X86868872Y-96041722D01*
X86494698Y-96155226D01*
X86149857Y-96339547D01*
X85847602Y-96587602D01*
X85599547Y-96889857D01*
X85415226Y-97234699D01*
X85301722Y-97608873D01*
X85273000Y-97900491D01*
X85273000Y-98695510D01*
X85301722Y-98987128D01*
X85415226Y-99361302D01*
X85599547Y-99706143D01*
X85847603Y-100008398D01*
X86149858Y-100256453D01*
X86494699Y-100440774D01*
X86868873Y-100554278D01*
X87258000Y-100592604D01*
X87647128Y-100554278D01*
X88021302Y-100440774D01*
X88366143Y-100256453D01*
X88473010Y-100168749D01*
X88473010Y-101331411D01*
X88104646Y-101699775D01*
X88021301Y-101655226D01*
X87647127Y-101541722D01*
X87258000Y-101503396D01*
X86868872Y-101541722D01*
X86494698Y-101655226D01*
X86149857Y-101839547D01*
X85847602Y-102087602D01*
X85599547Y-102389857D01*
X85415226Y-102734699D01*
X85301722Y-103108873D01*
X85273000Y-103400491D01*
X85273000Y-104195510D01*
X85301722Y-104487128D01*
X85415226Y-104861302D01*
X85496315Y-105013010D01*
X84819685Y-105013010D01*
X84900774Y-104861302D01*
X85014278Y-104487127D01*
X85043000Y-104195509D01*
X85043000Y-103400490D01*
X85014278Y-103108872D01*
X84900774Y-102734698D01*
X84716453Y-102389857D01*
X84468398Y-102087602D01*
X84166143Y-101839547D01*
X83821301Y-101655226D01*
X83447127Y-101541722D01*
X83058000Y-101503396D01*
X82668872Y-101541722D01*
X82294698Y-101655226D01*
X81949857Y-101839547D01*
X81647602Y-102087602D01*
X81399547Y-102389857D01*
X81215226Y-102734699D01*
X81101722Y-103108873D01*
X81073000Y-103400491D01*
X81073000Y-103407019D01*
X76071000Y-98405020D01*
X76071000Y-96898001D01*
X81069928Y-96898001D01*
X81069928Y-99697999D01*
X81086992Y-99871253D01*
X81137529Y-100037850D01*
X81219595Y-100191386D01*
X81330039Y-100325961D01*
X81464614Y-100436405D01*
X81618150Y-100518471D01*
X81784747Y-100569008D01*
X81958001Y-100586072D01*
X84157999Y-100586072D01*
X84331253Y-100569008D01*
X84497850Y-100518471D01*
X84651386Y-100436405D01*
X84785961Y-100325961D01*
X84896405Y-100191386D01*
X84978471Y-100037850D01*
X85029008Y-99871253D01*
X85046072Y-99697999D01*
X85046072Y-96898001D01*
X85029008Y-96724747D01*
X84978471Y-96558150D01*
X84896405Y-96404614D01*
X84785961Y-96270039D01*
X84651386Y-96159595D01*
X84497850Y-96077529D01*
X84331253Y-96026992D01*
X84157999Y-96009928D01*
X81958001Y-96009928D01*
X81784747Y-96026992D01*
X81618150Y-96077529D01*
X81464614Y-96159595D01*
X81330039Y-96270039D01*
X81219595Y-96404614D01*
X81137529Y-96558150D01*
X81086992Y-96724747D01*
X81069928Y-96898001D01*
X76071000Y-96898001D01*
X76071000Y-95699313D01*
X76289505Y-95553312D01*
X76503312Y-95339505D01*
X76671299Y-95088095D01*
X76787011Y-94808743D01*
X76846000Y-94512184D01*
X76846000Y-94209816D01*
X76787011Y-93913257D01*
X76671299Y-93633905D01*
X76503312Y-93382495D01*
X76289505Y-93168688D01*
X76038095Y-93000701D01*
X75758743Y-92884989D01*
X75462184Y-92826000D01*
X75159816Y-92826000D01*
X74863257Y-92884989D01*
X74845999Y-92892138D01*
X74845999Y-91189102D01*
X74902070Y-91133031D01*
X75159816Y-91184300D01*
X75462184Y-91184300D01*
X75758743Y-91125311D01*
X76038095Y-91009599D01*
X76289505Y-90841612D01*
X76503312Y-90627805D01*
X76671299Y-90376395D01*
X76787011Y-90097043D01*
X76846000Y-89800484D01*
X76846000Y-89498116D01*
X76787011Y-89201557D01*
X76671299Y-88922205D01*
X76503312Y-88670795D01*
X76289505Y-88456988D01*
X76038095Y-88289001D01*
X75758743Y-88173289D01*
X75462184Y-88114300D01*
X75159816Y-88114300D01*
X74863257Y-88173289D01*
X74583905Y-88289001D01*
X74332495Y-88456988D01*
X74266056Y-88523427D01*
X74260502Y-88505120D01*
X74201537Y-88394806D01*
X74122185Y-88298115D01*
X74025494Y-88218763D01*
X73915180Y-88159798D01*
X73795482Y-88123488D01*
X73671000Y-88111228D01*
X72224500Y-88111228D01*
X72224500Y-86475672D01*
X73671000Y-86475672D01*
X73795482Y-86463412D01*
X73915180Y-86427102D01*
X74025494Y-86368137D01*
X74122185Y-86288785D01*
X74201537Y-86192094D01*
X74260502Y-86081780D01*
X74266056Y-86063473D01*
X74332495Y-86129912D01*
X74583905Y-86297899D01*
X74863257Y-86413611D01*
X75159816Y-86472600D01*
X75462184Y-86472600D01*
X75719930Y-86421331D01*
X76153202Y-86854604D01*
X76177000Y-86883602D01*
X76292725Y-86978575D01*
X76424754Y-87049147D01*
X76568015Y-87092604D01*
X76679668Y-87103601D01*
X76679676Y-87103601D01*
X76717001Y-87107277D01*
X76754326Y-87103601D01*
X81016444Y-87103601D01*
X81012304Y-87113595D01*
X80961000Y-87371514D01*
X80961000Y-87634486D01*
X81012304Y-87892405D01*
X81112939Y-88135359D01*
X81259038Y-88354013D01*
X81444987Y-88539962D01*
X81663641Y-88686061D01*
X81906595Y-88786696D01*
X82164514Y-88838000D01*
X82427486Y-88838000D01*
X82685405Y-88786696D01*
X82928359Y-88686061D01*
X83147013Y-88539962D01*
X83332962Y-88354013D01*
X83479061Y-88135359D01*
X83579696Y-87892405D01*
X83631000Y-87634486D01*
X83631000Y-87371514D01*
X83579696Y-87113595D01*
X83479061Y-86870641D01*
X83421664Y-86784739D01*
X86499004Y-83707400D01*
X86528001Y-83683603D01*
X86585900Y-83613053D01*
X86622974Y-83567879D01*
X86693546Y-83435849D01*
X86703632Y-83402600D01*
X86737003Y-83292588D01*
X86748000Y-83180935D01*
X86748000Y-83180925D01*
X86751676Y-83143602D01*
X86748000Y-83106280D01*
X86748000Y-67281117D01*
X86803909Y-67257959D01*
X87086029Y-67069453D01*
X87288982Y-66866500D01*
X88887018Y-66866500D01*
X89089971Y-67069453D01*
G36*
X92281501Y-68191086D02*
G01*
X92281500Y-96197942D01*
X92100295Y-96115499D01*
X91893323Y-96061323D01*
X91585000Y-96176171D01*
X91585000Y-98171000D01*
X91605000Y-98171000D01*
X91605000Y-98425000D01*
X91585000Y-98425000D01*
X91585000Y-100419829D01*
X91893323Y-100534677D01*
X92100295Y-100480501D01*
X92455211Y-100319024D01*
X92771805Y-100091409D01*
X93037910Y-99806403D01*
X93243300Y-99474959D01*
X93380082Y-99109814D01*
X93443000Y-98725000D01*
X93443000Y-98395238D01*
X93673000Y-98625239D01*
X93673000Y-98695510D01*
X93701722Y-98987128D01*
X93815226Y-99361302D01*
X93999547Y-99706143D01*
X94247603Y-100008398D01*
X94549858Y-100256453D01*
X94894699Y-100440774D01*
X95268873Y-100554278D01*
X95658000Y-100592604D01*
X96047128Y-100554278D01*
X96421302Y-100440774D01*
X96766143Y-100256453D01*
X97068398Y-100008398D01*
X97316453Y-99706143D01*
X97500774Y-99361302D01*
X97614278Y-98987127D01*
X97643000Y-98695509D01*
X97643000Y-98425000D01*
X97873000Y-98425000D01*
X97873000Y-98725000D01*
X97935918Y-99109814D01*
X98072700Y-99474959D01*
X98278090Y-99806403D01*
X98544195Y-100091409D01*
X98860789Y-100319024D01*
X99215705Y-100480501D01*
X99422677Y-100534677D01*
X99731000Y-100419829D01*
X99731000Y-98425000D01*
X97873000Y-98425000D01*
X97643000Y-98425000D01*
X97643000Y-97900490D01*
X97640096Y-97871000D01*
X97873000Y-97871000D01*
X97873000Y-98171000D01*
X99731000Y-98171000D01*
X99731000Y-96176171D01*
X99422677Y-96061323D01*
X99215705Y-96115499D01*
X98860789Y-96276976D01*
X98544195Y-96504591D01*
X98278090Y-96789597D01*
X98072700Y-97121041D01*
X97935918Y-97486186D01*
X97873000Y-97871000D01*
X97640096Y-97871000D01*
X97614278Y-97608872D01*
X97500774Y-97234698D01*
X97316453Y-96889857D01*
X97068398Y-96587602D01*
X96766143Y-96339547D01*
X96421301Y-96155226D01*
X96047127Y-96041722D01*
X95677561Y-96005323D01*
X95551500Y-95879262D01*
X95551500Y-89364498D01*
X95601376Y-89397824D01*
X95807933Y-89483383D01*
X96027212Y-89527000D01*
X96250788Y-89527000D01*
X96470067Y-89483383D01*
X96676624Y-89397824D01*
X96862520Y-89273612D01*
X97020612Y-89115520D01*
X97144824Y-88929624D01*
X97230383Y-88723067D01*
X97274000Y-88503788D01*
X97274000Y-88280212D01*
X97230383Y-88060933D01*
X97144824Y-87854376D01*
X97020612Y-87668480D01*
X96862520Y-87510388D01*
X96676624Y-87386176D01*
X96470067Y-87300617D01*
X96250788Y-87257000D01*
X96027212Y-87257000D01*
X95807933Y-87300617D01*
X95601376Y-87386176D01*
X95551500Y-87419502D01*
X95551500Y-85275642D01*
X95749595Y-85357696D01*
X96007514Y-85409000D01*
X96270486Y-85409000D01*
X96528405Y-85357696D01*
X96771359Y-85257061D01*
X96990013Y-85110962D01*
X97175962Y-84925013D01*
X97322061Y-84706359D01*
X97422696Y-84463405D01*
X97474000Y-84205486D01*
X97474000Y-83942514D01*
X97422696Y-83684595D01*
X97322061Y-83441641D01*
X97175962Y-83222987D01*
X96990013Y-83037038D01*
X96771359Y-82890939D01*
X96528405Y-82790304D01*
X96270486Y-82739000D01*
X96007514Y-82739000D01*
X95749595Y-82790304D01*
X95551500Y-82872358D01*
X95551500Y-77655642D01*
X95749595Y-77737696D01*
X96007514Y-77789000D01*
X96270486Y-77789000D01*
X96528405Y-77737696D01*
X96771359Y-77637061D01*
X96953000Y-77515693D01*
X96953000Y-81626683D01*
X96945089Y-81707002D01*
X96953000Y-81787321D01*
X96953000Y-81787323D01*
X96976657Y-82027517D01*
X97070148Y-82335716D01*
X97221969Y-82619753D01*
X97426286Y-82868716D01*
X97488687Y-82919927D01*
X100932000Y-86363241D01*
X100932000Y-87515868D01*
X100926520Y-87510388D01*
X100740624Y-87386176D01*
X100534067Y-87300617D01*
X100314788Y-87257000D01*
X100091212Y-87257000D01*
X99871933Y-87300617D01*
X99665376Y-87386176D01*
X99479480Y-87510388D01*
X99321388Y-87668480D01*
X99197176Y-87854376D01*
X99111617Y-88060933D01*
X99068000Y-88280212D01*
X99068000Y-88503788D01*
X99111617Y-88723067D01*
X99197176Y-88929624D01*
X99321388Y-89115520D01*
X99479480Y-89273612D01*
X99665376Y-89397824D01*
X99871933Y-89483383D01*
X100091212Y-89527000D01*
X100314788Y-89527000D01*
X100534067Y-89483383D01*
X100740624Y-89397824D01*
X100926520Y-89273612D01*
X100931999Y-89268133D01*
X100931999Y-91374177D01*
X100924088Y-91454499D01*
X100931999Y-91534818D01*
X100931999Y-91534820D01*
X100932000Y-91534830D01*
X100931999Y-96332183D01*
X100855211Y-96276976D01*
X100500295Y-96115499D01*
X100293323Y-96061323D01*
X99985000Y-96176171D01*
X99985000Y-98171000D01*
X100005000Y-98171000D01*
X100005000Y-98425000D01*
X99985000Y-98425000D01*
X99985000Y-100419829D01*
X100293323Y-100534677D01*
X100500295Y-100480501D01*
X100855211Y-100319024D01*
X101171805Y-100091409D01*
X101437910Y-99806403D01*
X101643300Y-99474959D01*
X101780082Y-99109814D01*
X101843000Y-98725000D01*
X101843000Y-98395238D01*
X102073000Y-98625238D01*
X102073000Y-98695510D01*
X102101722Y-98987128D01*
X102215226Y-99361302D01*
X102399547Y-99706143D01*
X102647603Y-100008398D01*
X102949858Y-100256453D01*
X103294699Y-100440774D01*
X103668873Y-100554278D01*
X104058000Y-100592604D01*
X104447128Y-100554278D01*
X104821302Y-100440774D01*
X105166143Y-100256453D01*
X105468398Y-100008398D01*
X105716453Y-99706143D01*
X105900774Y-99361302D01*
X106014278Y-98987127D01*
X106043000Y-98695509D01*
X106043000Y-98425000D01*
X106273000Y-98425000D01*
X106273000Y-98725000D01*
X106335918Y-99109814D01*
X106472700Y-99474959D01*
X106678090Y-99806403D01*
X106944195Y-100091409D01*
X107260789Y-100319024D01*
X107615705Y-100480501D01*
X107822677Y-100534677D01*
X108131000Y-100419829D01*
X108131000Y-98425000D01*
X108385000Y-98425000D01*
X108385000Y-100419829D01*
X108693323Y-100534677D01*
X108900295Y-100480501D01*
X109255211Y-100319024D01*
X109571805Y-100091409D01*
X109837910Y-99806403D01*
X110043300Y-99474959D01*
X110180082Y-99109814D01*
X110243000Y-98725000D01*
X110243000Y-98425000D01*
X108385000Y-98425000D01*
X108131000Y-98425000D01*
X106273000Y-98425000D01*
X106043000Y-98425000D01*
X106043000Y-97900490D01*
X106040096Y-97871000D01*
X106273000Y-97871000D01*
X106273000Y-98171000D01*
X108131000Y-98171000D01*
X108131000Y-96176171D01*
X108385000Y-96176171D01*
X108385000Y-98171000D01*
X110243000Y-98171000D01*
X110243000Y-97871000D01*
X110180082Y-97486186D01*
X110043300Y-97121041D01*
X109837910Y-96789597D01*
X109571805Y-96504591D01*
X109255211Y-96276976D01*
X108900295Y-96115499D01*
X108693323Y-96061323D01*
X108385000Y-96176171D01*
X108131000Y-96176171D01*
X107822677Y-96061323D01*
X107615705Y-96115499D01*
X107260789Y-96276976D01*
X106944195Y-96504591D01*
X106678090Y-96789597D01*
X106472700Y-97121041D01*
X106335918Y-97486186D01*
X106273000Y-97871000D01*
X106040096Y-97871000D01*
X106014278Y-97608872D01*
X105900774Y-97234698D01*
X105716453Y-96889857D01*
X105468398Y-96587602D01*
X105166143Y-96339547D01*
X104821301Y-96155226D01*
X104447127Y-96041722D01*
X104201999Y-96017579D01*
X104201999Y-94345000D01*
X114226369Y-94345000D01*
X113844850Y-94726519D01*
X113801542Y-94762061D01*
X113659707Y-94934887D01*
X113604246Y-95038648D01*
X113554314Y-95132064D01*
X113489413Y-95346012D01*
X113467499Y-95568510D01*
X113472991Y-95624271D01*
X113472991Y-96289756D01*
X113221301Y-96155226D01*
X112847127Y-96041722D01*
X112458000Y-96003396D01*
X112068872Y-96041722D01*
X111694698Y-96155226D01*
X111349857Y-96339547D01*
X111047602Y-96587602D01*
X110799547Y-96889857D01*
X110615226Y-97234699D01*
X110501722Y-97608873D01*
X110473000Y-97900491D01*
X110473000Y-98695510D01*
X110501722Y-98987128D01*
X110546490Y-99134709D01*
X109422013Y-100259186D01*
X109393009Y-100282989D01*
X109350130Y-100335238D01*
X109298036Y-100398714D01*
X109254320Y-100480501D01*
X109227464Y-100530744D01*
X109184007Y-100674005D01*
X109173010Y-100785658D01*
X109173010Y-100785668D01*
X109169334Y-100822990D01*
X109173010Y-100860313D01*
X109173010Y-101739577D01*
X108900295Y-101615499D01*
X108693323Y-101561323D01*
X108385000Y-101676171D01*
X108385000Y-103671000D01*
X108405000Y-103671000D01*
X108405000Y-103925000D01*
X108385000Y-103925000D01*
X108385000Y-103945000D01*
X108131000Y-103945000D01*
X108131000Y-103925000D01*
X106273000Y-103925000D01*
X106273000Y-104225000D01*
X106335918Y-104609814D01*
X106472700Y-104974959D01*
X106496280Y-105013010D01*
X105819720Y-105013010D01*
X105843300Y-104974959D01*
X105980082Y-104609814D01*
X106043000Y-104225000D01*
X106043000Y-103925000D01*
X104185000Y-103925000D01*
X104185000Y-103945000D01*
X103931000Y-103945000D01*
X103931000Y-103925000D01*
X102073000Y-103925000D01*
X102073000Y-104225000D01*
X102135918Y-104609814D01*
X102272700Y-104974959D01*
X102296280Y-105013010D01*
X101619720Y-105013010D01*
X101643300Y-104974959D01*
X101780082Y-104609814D01*
X101843000Y-104225000D01*
X101843000Y-103925000D01*
X99985000Y-103925000D01*
X99985000Y-103945000D01*
X99731000Y-103945000D01*
X99731000Y-103925000D01*
X97873000Y-103925000D01*
X97873000Y-104225000D01*
X97935918Y-104609814D01*
X98072700Y-104974959D01*
X98096280Y-105013010D01*
X97419685Y-105013010D01*
X97500774Y-104861302D01*
X97614278Y-104487127D01*
X97643000Y-104195509D01*
X97643000Y-103400490D01*
X97640096Y-103371000D01*
X97873000Y-103371000D01*
X97873000Y-103671000D01*
X99731000Y-103671000D01*
X99731000Y-101676171D01*
X99985000Y-101676171D01*
X99985000Y-103671000D01*
X101843000Y-103671000D01*
X101843000Y-103371000D01*
X102073000Y-103371000D01*
X102073000Y-103671000D01*
X103931000Y-103671000D01*
X103931000Y-101676171D01*
X104185000Y-101676171D01*
X104185000Y-103671000D01*
X106043000Y-103671000D01*
X106043000Y-103371000D01*
X106273000Y-103371000D01*
X106273000Y-103671000D01*
X108131000Y-103671000D01*
X108131000Y-101676171D01*
X107822677Y-101561323D01*
X107615705Y-101615499D01*
X107260789Y-101776976D01*
X106944195Y-102004591D01*
X106678090Y-102289597D01*
X106472700Y-102621041D01*
X106335918Y-102986186D01*
X106273000Y-103371000D01*
X106043000Y-103371000D01*
X105980082Y-102986186D01*
X105843300Y-102621041D01*
X105637910Y-102289597D01*
X105371805Y-102004591D01*
X105055211Y-101776976D01*
X104700295Y-101615499D01*
X104493323Y-101561323D01*
X104185000Y-101676171D01*
X103931000Y-101676171D01*
X103622677Y-101561323D01*
X103415705Y-101615499D01*
X103060789Y-101776976D01*
X102744195Y-102004591D01*
X102478090Y-102289597D01*
X102272700Y-102621041D01*
X102135918Y-102986186D01*
X102073000Y-103371000D01*
X101843000Y-103371000D01*
X101780082Y-102986186D01*
X101643300Y-102621041D01*
X101437910Y-102289597D01*
X101171805Y-102004591D01*
X100855211Y-101776976D01*
X100500295Y-101615499D01*
X100293323Y-101561323D01*
X99985000Y-101676171D01*
X99731000Y-101676171D01*
X99422677Y-101561323D01*
X99215705Y-101615499D01*
X98860789Y-101776976D01*
X98544195Y-102004591D01*
X98278090Y-102289597D01*
X98072700Y-102621041D01*
X97935918Y-102986186D01*
X97873000Y-103371000D01*
X97640096Y-103371000D01*
X97614278Y-103108872D01*
X97500774Y-102734698D01*
X97316453Y-102389857D01*
X97068398Y-102087602D01*
X96766143Y-101839547D01*
X96421301Y-101655226D01*
X96047127Y-101541722D01*
X95658000Y-101503396D01*
X95268872Y-101541722D01*
X94894698Y-101655226D01*
X94549857Y-101839547D01*
X94247602Y-102087602D01*
X93999547Y-102389857D01*
X93815226Y-102734699D01*
X93701722Y-103108873D01*
X93673000Y-103400491D01*
X93673000Y-104195510D01*
X93701722Y-104487128D01*
X93815226Y-104861302D01*
X93896315Y-105013010D01*
X93219720Y-105013010D01*
X93243300Y-104974959D01*
X93380082Y-104609814D01*
X93443000Y-104225000D01*
X93443000Y-103925000D01*
X91585000Y-103925000D01*
X91585000Y-103945000D01*
X91331000Y-103945000D01*
X91331000Y-103925000D01*
X89473000Y-103925000D01*
X89473000Y-104225000D01*
X89535918Y-104609814D01*
X89672700Y-104974959D01*
X89696280Y-105013010D01*
X89019685Y-105013010D01*
X89100774Y-104861302D01*
X89214278Y-104487127D01*
X89243000Y-104195509D01*
X89243000Y-103400490D01*
X89214278Y-103108872D01*
X89210654Y-103096925D01*
X89664412Y-102643167D01*
X89535918Y-102986186D01*
X89473000Y-103371000D01*
X89473000Y-103671000D01*
X91331000Y-103671000D01*
X91331000Y-101676171D01*
X91585000Y-101676171D01*
X91585000Y-103671000D01*
X93443000Y-103671000D01*
X93443000Y-103371000D01*
X93380082Y-102986186D01*
X93243300Y-102621041D01*
X93037910Y-102289597D01*
X92771805Y-102004591D01*
X92455211Y-101776976D01*
X92100295Y-101615499D01*
X91893323Y-101561323D01*
X91585000Y-101676171D01*
X91331000Y-101676171D01*
X91022677Y-101561323D01*
X90815705Y-101615499D01*
X90460789Y-101776976D01*
X90202553Y-101962634D01*
X90230205Y-101871480D01*
X90233350Y-101839547D01*
X90243010Y-101741467D01*
X90243010Y-101741459D01*
X90247291Y-101697990D01*
X90243010Y-101654521D01*
X90243010Y-100162452D01*
X90460789Y-100319024D01*
X90815705Y-100480501D01*
X91022677Y-100534677D01*
X91331000Y-100419829D01*
X91331000Y-98425000D01*
X91311000Y-98425000D01*
X91311000Y-98171000D01*
X91331000Y-98171000D01*
X91331000Y-96176171D01*
X91022677Y-96061323D01*
X90815705Y-96115499D01*
X90460789Y-96276976D01*
X90243010Y-96433548D01*
X90243010Y-88803261D01*
X90250344Y-88802125D01*
X90497366Y-88711935D01*
X90598203Y-88658037D01*
X90657664Y-88424269D01*
X89916000Y-87682605D01*
X89901858Y-87696748D01*
X89722253Y-87517143D01*
X89736395Y-87503000D01*
X90095605Y-87503000D01*
X90837269Y-88244664D01*
X91071037Y-88185203D01*
X91181934Y-87946758D01*
X91244183Y-87691260D01*
X91255390Y-87428527D01*
X91215125Y-87168656D01*
X91124935Y-86921634D01*
X91071037Y-86820797D01*
X90837269Y-86761336D01*
X90095605Y-87503000D01*
X89736395Y-87503000D01*
X89722253Y-87488858D01*
X89901858Y-87309253D01*
X89916000Y-87323395D01*
X90657664Y-86581731D01*
X90614186Y-86410800D01*
X90657664Y-86239869D01*
X89916000Y-85498205D01*
X89901858Y-85512348D01*
X89722253Y-85332743D01*
X89736395Y-85318600D01*
X90095605Y-85318600D01*
X90837269Y-86060264D01*
X91071037Y-86000803D01*
X91181934Y-85762358D01*
X91244183Y-85506860D01*
X91255390Y-85244127D01*
X91215125Y-84984256D01*
X91124935Y-84737234D01*
X91071037Y-84636397D01*
X90837269Y-84576936D01*
X90095605Y-85318600D01*
X89736395Y-85318600D01*
X89722253Y-85304458D01*
X89901858Y-85124853D01*
X89916000Y-85138995D01*
X90657664Y-84397331D01*
X90614186Y-84226400D01*
X90657664Y-84055469D01*
X89916000Y-83313805D01*
X89901858Y-83327948D01*
X89722253Y-83148343D01*
X89736395Y-83134200D01*
X90095605Y-83134200D01*
X90837269Y-83875864D01*
X91071037Y-83816403D01*
X91181934Y-83577958D01*
X91244183Y-83322460D01*
X91255390Y-83059727D01*
X91215125Y-82799856D01*
X91124935Y-82552834D01*
X91071037Y-82451997D01*
X90837269Y-82392536D01*
X90095605Y-83134200D01*
X89736395Y-83134200D01*
X89722253Y-83120058D01*
X89901858Y-82940453D01*
X89916000Y-82954595D01*
X90657664Y-82212931D01*
X90614186Y-82042000D01*
X90657664Y-81871069D01*
X89916000Y-81129405D01*
X89901858Y-81143548D01*
X89722253Y-80963943D01*
X89736395Y-80949800D01*
X90095605Y-80949800D01*
X90837269Y-81691464D01*
X91071037Y-81632003D01*
X91181934Y-81393558D01*
X91244183Y-81138060D01*
X91255390Y-80875327D01*
X91215125Y-80615456D01*
X91124935Y-80368434D01*
X91071037Y-80267597D01*
X90837269Y-80208136D01*
X90095605Y-80949800D01*
X89736395Y-80949800D01*
X89722253Y-80935658D01*
X89901858Y-80756053D01*
X89916000Y-80770195D01*
X90657664Y-80028531D01*
X90614186Y-79857600D01*
X90657664Y-79686669D01*
X89916000Y-78945005D01*
X89901858Y-78959148D01*
X89722253Y-78779543D01*
X89736395Y-78765400D01*
X90095605Y-78765400D01*
X90837269Y-79507064D01*
X91071037Y-79447603D01*
X91181934Y-79209158D01*
X91244183Y-78953660D01*
X91255390Y-78690927D01*
X91215125Y-78431056D01*
X91124935Y-78184034D01*
X91071037Y-78083197D01*
X90837269Y-78023736D01*
X90095605Y-78765400D01*
X89736395Y-78765400D01*
X89722253Y-78751258D01*
X89901858Y-78571653D01*
X89916000Y-78585795D01*
X90657664Y-77844131D01*
X90614186Y-77673200D01*
X90657664Y-77502269D01*
X89916000Y-76760605D01*
X89901858Y-76774748D01*
X89722253Y-76595143D01*
X89736395Y-76581000D01*
X90095605Y-76581000D01*
X90837269Y-77322664D01*
X91071037Y-77263203D01*
X91181934Y-77024758D01*
X91244183Y-76769260D01*
X91255390Y-76506527D01*
X91215125Y-76246656D01*
X91124935Y-75999634D01*
X91071037Y-75898797D01*
X90837269Y-75839336D01*
X90095605Y-76581000D01*
X89736395Y-76581000D01*
X89722253Y-76566858D01*
X89901858Y-76387253D01*
X89916000Y-76401395D01*
X90657664Y-75659731D01*
X90598203Y-75425963D01*
X90359758Y-75315066D01*
X90104260Y-75252817D01*
X89841527Y-75241610D01*
X89650999Y-75271131D01*
X89650999Y-69916053D01*
X91420106Y-68146947D01*
X91476960Y-68135638D01*
X91665318Y-68057617D01*
X91834836Y-67944349D01*
X91934800Y-67844385D01*
X92281501Y-68191086D01*
G37*
X92281501Y-68191086D02*
X92281500Y-96197942D01*
X92100295Y-96115499D01*
X91893323Y-96061323D01*
X91585000Y-96176171D01*
X91585000Y-98171000D01*
X91605000Y-98171000D01*
X91605000Y-98425000D01*
X91585000Y-98425000D01*
X91585000Y-100419829D01*
X91893323Y-100534677D01*
X92100295Y-100480501D01*
X92455211Y-100319024D01*
X92771805Y-100091409D01*
X93037910Y-99806403D01*
X93243300Y-99474959D01*
X93380082Y-99109814D01*
X93443000Y-98725000D01*
X93443000Y-98395238D01*
X93673000Y-98625239D01*
X93673000Y-98695510D01*
X93701722Y-98987128D01*
X93815226Y-99361302D01*
X93999547Y-99706143D01*
X94247603Y-100008398D01*
X94549858Y-100256453D01*
X94894699Y-100440774D01*
X95268873Y-100554278D01*
X95658000Y-100592604D01*
X96047128Y-100554278D01*
X96421302Y-100440774D01*
X96766143Y-100256453D01*
X97068398Y-100008398D01*
X97316453Y-99706143D01*
X97500774Y-99361302D01*
X97614278Y-98987127D01*
X97643000Y-98695509D01*
X97643000Y-98425000D01*
X97873000Y-98425000D01*
X97873000Y-98725000D01*
X97935918Y-99109814D01*
X98072700Y-99474959D01*
X98278090Y-99806403D01*
X98544195Y-100091409D01*
X98860789Y-100319024D01*
X99215705Y-100480501D01*
X99422677Y-100534677D01*
X99731000Y-100419829D01*
X99731000Y-98425000D01*
X97873000Y-98425000D01*
X97643000Y-98425000D01*
X97643000Y-97900490D01*
X97640096Y-97871000D01*
X97873000Y-97871000D01*
X97873000Y-98171000D01*
X99731000Y-98171000D01*
X99731000Y-96176171D01*
X99422677Y-96061323D01*
X99215705Y-96115499D01*
X98860789Y-96276976D01*
X98544195Y-96504591D01*
X98278090Y-96789597D01*
X98072700Y-97121041D01*
X97935918Y-97486186D01*
X97873000Y-97871000D01*
X97640096Y-97871000D01*
X97614278Y-97608872D01*
X97500774Y-97234698D01*
X97316453Y-96889857D01*
X97068398Y-96587602D01*
X96766143Y-96339547D01*
X96421301Y-96155226D01*
X96047127Y-96041722D01*
X95677561Y-96005323D01*
X95551500Y-95879262D01*
X95551500Y-89364498D01*
X95601376Y-89397824D01*
X95807933Y-89483383D01*
X96027212Y-89527000D01*
X96250788Y-89527000D01*
X96470067Y-89483383D01*
X96676624Y-89397824D01*
X96862520Y-89273612D01*
X97020612Y-89115520D01*
X97144824Y-88929624D01*
X97230383Y-88723067D01*
X97274000Y-88503788D01*
X97274000Y-88280212D01*
X97230383Y-88060933D01*
X97144824Y-87854376D01*
X97020612Y-87668480D01*
X96862520Y-87510388D01*
X96676624Y-87386176D01*
X96470067Y-87300617D01*
X96250788Y-87257000D01*
X96027212Y-87257000D01*
X95807933Y-87300617D01*
X95601376Y-87386176D01*
X95551500Y-87419502D01*
X95551500Y-85275642D01*
X95749595Y-85357696D01*
X96007514Y-85409000D01*
X96270486Y-85409000D01*
X96528405Y-85357696D01*
X96771359Y-85257061D01*
X96990013Y-85110962D01*
X97175962Y-84925013D01*
X97322061Y-84706359D01*
X97422696Y-84463405D01*
X97474000Y-84205486D01*
X97474000Y-83942514D01*
X97422696Y-83684595D01*
X97322061Y-83441641D01*
X97175962Y-83222987D01*
X96990013Y-83037038D01*
X96771359Y-82890939D01*
X96528405Y-82790304D01*
X96270486Y-82739000D01*
X96007514Y-82739000D01*
X95749595Y-82790304D01*
X95551500Y-82872358D01*
X95551500Y-77655642D01*
X95749595Y-77737696D01*
X96007514Y-77789000D01*
X96270486Y-77789000D01*
X96528405Y-77737696D01*
X96771359Y-77637061D01*
X96953000Y-77515693D01*
X96953000Y-81626683D01*
X96945089Y-81707002D01*
X96953000Y-81787321D01*
X96953000Y-81787323D01*
X96976657Y-82027517D01*
X97070148Y-82335716D01*
X97221969Y-82619753D01*
X97426286Y-82868716D01*
X97488687Y-82919927D01*
X100932000Y-86363241D01*
X100932000Y-87515868D01*
X100926520Y-87510388D01*
X100740624Y-87386176D01*
X100534067Y-87300617D01*
X100314788Y-87257000D01*
X100091212Y-87257000D01*
X99871933Y-87300617D01*
X99665376Y-87386176D01*
X99479480Y-87510388D01*
X99321388Y-87668480D01*
X99197176Y-87854376D01*
X99111617Y-88060933D01*
X99068000Y-88280212D01*
X99068000Y-88503788D01*
X99111617Y-88723067D01*
X99197176Y-88929624D01*
X99321388Y-89115520D01*
X99479480Y-89273612D01*
X99665376Y-89397824D01*
X99871933Y-89483383D01*
X100091212Y-89527000D01*
X100314788Y-89527000D01*
X100534067Y-89483383D01*
X100740624Y-89397824D01*
X100926520Y-89273612D01*
X100931999Y-89268133D01*
X100931999Y-91374177D01*
X100924088Y-91454499D01*
X100931999Y-91534818D01*
X100931999Y-91534820D01*
X100932000Y-91534830D01*
X100931999Y-96332183D01*
X100855211Y-96276976D01*
X100500295Y-96115499D01*
X100293323Y-96061323D01*
X99985000Y-96176171D01*
X99985000Y-98171000D01*
X100005000Y-98171000D01*
X100005000Y-98425000D01*
X99985000Y-98425000D01*
X99985000Y-100419829D01*
X100293323Y-100534677D01*
X100500295Y-100480501D01*
X100855211Y-100319024D01*
X101171805Y-100091409D01*
X101437910Y-99806403D01*
X101643300Y-99474959D01*
X101780082Y-99109814D01*
X101843000Y-98725000D01*
X101843000Y-98395238D01*
X102073000Y-98625238D01*
X102073000Y-98695510D01*
X102101722Y-98987128D01*
X102215226Y-99361302D01*
X102399547Y-99706143D01*
X102647603Y-100008398D01*
X102949858Y-100256453D01*
X103294699Y-100440774D01*
X103668873Y-100554278D01*
X104058000Y-100592604D01*
X104447128Y-100554278D01*
X104821302Y-100440774D01*
X105166143Y-100256453D01*
X105468398Y-100008398D01*
X105716453Y-99706143D01*
X105900774Y-99361302D01*
X106014278Y-98987127D01*
X106043000Y-98695509D01*
X106043000Y-98425000D01*
X106273000Y-98425000D01*
X106273000Y-98725000D01*
X106335918Y-99109814D01*
X106472700Y-99474959D01*
X106678090Y-99806403D01*
X106944195Y-100091409D01*
X107260789Y-100319024D01*
X107615705Y-100480501D01*
X107822677Y-100534677D01*
X108131000Y-100419829D01*
X108131000Y-98425000D01*
X108385000Y-98425000D01*
X108385000Y-100419829D01*
X108693323Y-100534677D01*
X108900295Y-100480501D01*
X109255211Y-100319024D01*
X109571805Y-100091409D01*
X109837910Y-99806403D01*
X110043300Y-99474959D01*
X110180082Y-99109814D01*
X110243000Y-98725000D01*
X110243000Y-98425000D01*
X108385000Y-98425000D01*
X108131000Y-98425000D01*
X106273000Y-98425000D01*
X106043000Y-98425000D01*
X106043000Y-97900490D01*
X106040096Y-97871000D01*
X106273000Y-97871000D01*
X106273000Y-98171000D01*
X108131000Y-98171000D01*
X108131000Y-96176171D01*
X108385000Y-96176171D01*
X108385000Y-98171000D01*
X110243000Y-98171000D01*
X110243000Y-97871000D01*
X110180082Y-97486186D01*
X110043300Y-97121041D01*
X109837910Y-96789597D01*
X109571805Y-96504591D01*
X109255211Y-96276976D01*
X108900295Y-96115499D01*
X108693323Y-96061323D01*
X108385000Y-96176171D01*
X108131000Y-96176171D01*
X107822677Y-96061323D01*
X107615705Y-96115499D01*
X107260789Y-96276976D01*
X106944195Y-96504591D01*
X106678090Y-96789597D01*
X106472700Y-97121041D01*
X106335918Y-97486186D01*
X106273000Y-97871000D01*
X106040096Y-97871000D01*
X106014278Y-97608872D01*
X105900774Y-97234698D01*
X105716453Y-96889857D01*
X105468398Y-96587602D01*
X105166143Y-96339547D01*
X104821301Y-96155226D01*
X104447127Y-96041722D01*
X104201999Y-96017579D01*
X104201999Y-94345000D01*
X114226369Y-94345000D01*
X113844850Y-94726519D01*
X113801542Y-94762061D01*
X113659707Y-94934887D01*
X113604246Y-95038648D01*
X113554314Y-95132064D01*
X113489413Y-95346012D01*
X113467499Y-95568510D01*
X113472991Y-95624271D01*
X113472991Y-96289756D01*
X113221301Y-96155226D01*
X112847127Y-96041722D01*
X112458000Y-96003396D01*
X112068872Y-96041722D01*
X111694698Y-96155226D01*
X111349857Y-96339547D01*
X111047602Y-96587602D01*
X110799547Y-96889857D01*
X110615226Y-97234699D01*
X110501722Y-97608873D01*
X110473000Y-97900491D01*
X110473000Y-98695510D01*
X110501722Y-98987128D01*
X110546490Y-99134709D01*
X109422013Y-100259186D01*
X109393009Y-100282989D01*
X109350130Y-100335238D01*
X109298036Y-100398714D01*
X109254320Y-100480501D01*
X109227464Y-100530744D01*
X109184007Y-100674005D01*
X109173010Y-100785658D01*
X109173010Y-100785668D01*
X109169334Y-100822990D01*
X109173010Y-100860313D01*
X109173010Y-101739577D01*
X108900295Y-101615499D01*
X108693323Y-101561323D01*
X108385000Y-101676171D01*
X108385000Y-103671000D01*
X108405000Y-103671000D01*
X108405000Y-103925000D01*
X108385000Y-103925000D01*
X108385000Y-103945000D01*
X108131000Y-103945000D01*
X108131000Y-103925000D01*
X106273000Y-103925000D01*
X106273000Y-104225000D01*
X106335918Y-104609814D01*
X106472700Y-104974959D01*
X106496280Y-105013010D01*
X105819720Y-105013010D01*
X105843300Y-104974959D01*
X105980082Y-104609814D01*
X106043000Y-104225000D01*
X106043000Y-103925000D01*
X104185000Y-103925000D01*
X104185000Y-103945000D01*
X103931000Y-103945000D01*
X103931000Y-103925000D01*
X102073000Y-103925000D01*
X102073000Y-104225000D01*
X102135918Y-104609814D01*
X102272700Y-104974959D01*
X102296280Y-105013010D01*
X101619720Y-105013010D01*
X101643300Y-104974959D01*
X101780082Y-104609814D01*
X101843000Y-104225000D01*
X101843000Y-103925000D01*
X99985000Y-103925000D01*
X99985000Y-103945000D01*
X99731000Y-103945000D01*
X99731000Y-103925000D01*
X97873000Y-103925000D01*
X97873000Y-104225000D01*
X97935918Y-104609814D01*
X98072700Y-104974959D01*
X98096280Y-105013010D01*
X97419685Y-105013010D01*
X97500774Y-104861302D01*
X97614278Y-104487127D01*
X97643000Y-104195509D01*
X97643000Y-103400490D01*
X97640096Y-103371000D01*
X97873000Y-103371000D01*
X97873000Y-103671000D01*
X99731000Y-103671000D01*
X99731000Y-101676171D01*
X99985000Y-101676171D01*
X99985000Y-103671000D01*
X101843000Y-103671000D01*
X101843000Y-103371000D01*
X102073000Y-103371000D01*
X102073000Y-103671000D01*
X103931000Y-103671000D01*
X103931000Y-101676171D01*
X104185000Y-101676171D01*
X104185000Y-103671000D01*
X106043000Y-103671000D01*
X106043000Y-103371000D01*
X106273000Y-103371000D01*
X106273000Y-103671000D01*
X108131000Y-103671000D01*
X108131000Y-101676171D01*
X107822677Y-101561323D01*
X107615705Y-101615499D01*
X107260789Y-101776976D01*
X106944195Y-102004591D01*
X106678090Y-102289597D01*
X106472700Y-102621041D01*
X106335918Y-102986186D01*
X106273000Y-103371000D01*
X106043000Y-103371000D01*
X105980082Y-102986186D01*
X105843300Y-102621041D01*
X105637910Y-102289597D01*
X105371805Y-102004591D01*
X105055211Y-101776976D01*
X104700295Y-101615499D01*
X104493323Y-101561323D01*
X104185000Y-101676171D01*
X103931000Y-101676171D01*
X103622677Y-101561323D01*
X103415705Y-101615499D01*
X103060789Y-101776976D01*
X102744195Y-102004591D01*
X102478090Y-102289597D01*
X102272700Y-102621041D01*
X102135918Y-102986186D01*
X102073000Y-103371000D01*
X101843000Y-103371000D01*
X101780082Y-102986186D01*
X101643300Y-102621041D01*
X101437910Y-102289597D01*
X101171805Y-102004591D01*
X100855211Y-101776976D01*
X100500295Y-101615499D01*
X100293323Y-101561323D01*
X99985000Y-101676171D01*
X99731000Y-101676171D01*
X99422677Y-101561323D01*
X99215705Y-101615499D01*
X98860789Y-101776976D01*
X98544195Y-102004591D01*
X98278090Y-102289597D01*
X98072700Y-102621041D01*
X97935918Y-102986186D01*
X97873000Y-103371000D01*
X97640096Y-103371000D01*
X97614278Y-103108872D01*
X97500774Y-102734698D01*
X97316453Y-102389857D01*
X97068398Y-102087602D01*
X96766143Y-101839547D01*
X96421301Y-101655226D01*
X96047127Y-101541722D01*
X95658000Y-101503396D01*
X95268872Y-101541722D01*
X94894698Y-101655226D01*
X94549857Y-101839547D01*
X94247602Y-102087602D01*
X93999547Y-102389857D01*
X93815226Y-102734699D01*
X93701722Y-103108873D01*
X93673000Y-103400491D01*
X93673000Y-104195510D01*
X93701722Y-104487128D01*
X93815226Y-104861302D01*
X93896315Y-105013010D01*
X93219720Y-105013010D01*
X93243300Y-104974959D01*
X93380082Y-104609814D01*
X93443000Y-104225000D01*
X93443000Y-103925000D01*
X91585000Y-103925000D01*
X91585000Y-103945000D01*
X91331000Y-103945000D01*
X91331000Y-103925000D01*
X89473000Y-103925000D01*
X89473000Y-104225000D01*
X89535918Y-104609814D01*
X89672700Y-104974959D01*
X89696280Y-105013010D01*
X89019685Y-105013010D01*
X89100774Y-104861302D01*
X89214278Y-104487127D01*
X89243000Y-104195509D01*
X89243000Y-103400490D01*
X89214278Y-103108872D01*
X89210654Y-103096925D01*
X89664412Y-102643167D01*
X89535918Y-102986186D01*
X89473000Y-103371000D01*
X89473000Y-103671000D01*
X91331000Y-103671000D01*
X91331000Y-101676171D01*
X91585000Y-101676171D01*
X91585000Y-103671000D01*
X93443000Y-103671000D01*
X93443000Y-103371000D01*
X93380082Y-102986186D01*
X93243300Y-102621041D01*
X93037910Y-102289597D01*
X92771805Y-102004591D01*
X92455211Y-101776976D01*
X92100295Y-101615499D01*
X91893323Y-101561323D01*
X91585000Y-101676171D01*
X91331000Y-101676171D01*
X91022677Y-101561323D01*
X90815705Y-101615499D01*
X90460789Y-101776976D01*
X90202553Y-101962634D01*
X90230205Y-101871480D01*
X90233350Y-101839547D01*
X90243010Y-101741467D01*
X90243010Y-101741459D01*
X90247291Y-101697990D01*
X90243010Y-101654521D01*
X90243010Y-100162452D01*
X90460789Y-100319024D01*
X90815705Y-100480501D01*
X91022677Y-100534677D01*
X91331000Y-100419829D01*
X91331000Y-98425000D01*
X91311000Y-98425000D01*
X91311000Y-98171000D01*
X91331000Y-98171000D01*
X91331000Y-96176171D01*
X91022677Y-96061323D01*
X90815705Y-96115499D01*
X90460789Y-96276976D01*
X90243010Y-96433548D01*
X90243010Y-88803261D01*
X90250344Y-88802125D01*
X90497366Y-88711935D01*
X90598203Y-88658037D01*
X90657664Y-88424269D01*
X89916000Y-87682605D01*
X89901858Y-87696748D01*
X89722253Y-87517143D01*
X89736395Y-87503000D01*
X90095605Y-87503000D01*
X90837269Y-88244664D01*
X91071037Y-88185203D01*
X91181934Y-87946758D01*
X91244183Y-87691260D01*
X91255390Y-87428527D01*
X91215125Y-87168656D01*
X91124935Y-86921634D01*
X91071037Y-86820797D01*
X90837269Y-86761336D01*
X90095605Y-87503000D01*
X89736395Y-87503000D01*
X89722253Y-87488858D01*
X89901858Y-87309253D01*
X89916000Y-87323395D01*
X90657664Y-86581731D01*
X90614186Y-86410800D01*
X90657664Y-86239869D01*
X89916000Y-85498205D01*
X89901858Y-85512348D01*
X89722253Y-85332743D01*
X89736395Y-85318600D01*
X90095605Y-85318600D01*
X90837269Y-86060264D01*
X91071037Y-86000803D01*
X91181934Y-85762358D01*
X91244183Y-85506860D01*
X91255390Y-85244127D01*
X91215125Y-84984256D01*
X91124935Y-84737234D01*
X91071037Y-84636397D01*
X90837269Y-84576936D01*
X90095605Y-85318600D01*
X89736395Y-85318600D01*
X89722253Y-85304458D01*
X89901858Y-85124853D01*
X89916000Y-85138995D01*
X90657664Y-84397331D01*
X90614186Y-84226400D01*
X90657664Y-84055469D01*
X89916000Y-83313805D01*
X89901858Y-83327948D01*
X89722253Y-83148343D01*
X89736395Y-83134200D01*
X90095605Y-83134200D01*
X90837269Y-83875864D01*
X91071037Y-83816403D01*
X91181934Y-83577958D01*
X91244183Y-83322460D01*
X91255390Y-83059727D01*
X91215125Y-82799856D01*
X91124935Y-82552834D01*
X91071037Y-82451997D01*
X90837269Y-82392536D01*
X90095605Y-83134200D01*
X89736395Y-83134200D01*
X89722253Y-83120058D01*
X89901858Y-82940453D01*
X89916000Y-82954595D01*
X90657664Y-82212931D01*
X90614186Y-82042000D01*
X90657664Y-81871069D01*
X89916000Y-81129405D01*
X89901858Y-81143548D01*
X89722253Y-80963943D01*
X89736395Y-80949800D01*
X90095605Y-80949800D01*
X90837269Y-81691464D01*
X91071037Y-81632003D01*
X91181934Y-81393558D01*
X91244183Y-81138060D01*
X91255390Y-80875327D01*
X91215125Y-80615456D01*
X91124935Y-80368434D01*
X91071037Y-80267597D01*
X90837269Y-80208136D01*
X90095605Y-80949800D01*
X89736395Y-80949800D01*
X89722253Y-80935658D01*
X89901858Y-80756053D01*
X89916000Y-80770195D01*
X90657664Y-80028531D01*
X90614186Y-79857600D01*
X90657664Y-79686669D01*
X89916000Y-78945005D01*
X89901858Y-78959148D01*
X89722253Y-78779543D01*
X89736395Y-78765400D01*
X90095605Y-78765400D01*
X90837269Y-79507064D01*
X91071037Y-79447603D01*
X91181934Y-79209158D01*
X91244183Y-78953660D01*
X91255390Y-78690927D01*
X91215125Y-78431056D01*
X91124935Y-78184034D01*
X91071037Y-78083197D01*
X90837269Y-78023736D01*
X90095605Y-78765400D01*
X89736395Y-78765400D01*
X89722253Y-78751258D01*
X89901858Y-78571653D01*
X89916000Y-78585795D01*
X90657664Y-77844131D01*
X90614186Y-77673200D01*
X90657664Y-77502269D01*
X89916000Y-76760605D01*
X89901858Y-76774748D01*
X89722253Y-76595143D01*
X89736395Y-76581000D01*
X90095605Y-76581000D01*
X90837269Y-77322664D01*
X91071037Y-77263203D01*
X91181934Y-77024758D01*
X91244183Y-76769260D01*
X91255390Y-76506527D01*
X91215125Y-76246656D01*
X91124935Y-75999634D01*
X91071037Y-75898797D01*
X90837269Y-75839336D01*
X90095605Y-76581000D01*
X89736395Y-76581000D01*
X89722253Y-76566858D01*
X89901858Y-76387253D01*
X89916000Y-76401395D01*
X90657664Y-75659731D01*
X90598203Y-75425963D01*
X90359758Y-75315066D01*
X90104260Y-75252817D01*
X89841527Y-75241610D01*
X89650999Y-75271131D01*
X89650999Y-69916053D01*
X91420106Y-68146947D01*
X91476960Y-68135638D01*
X91665318Y-68057617D01*
X91834836Y-67944349D01*
X91934800Y-67844385D01*
X92281501Y-68191086D01*
G36*
X118154786Y-94365716D02*
G01*
X118217186Y-94416927D01*
X119659578Y-95859319D01*
X119710785Y-95921715D01*
X119959747Y-96126032D01*
X120054532Y-96176695D01*
X119749857Y-96339547D01*
X119447602Y-96587602D01*
X119199547Y-96889857D01*
X119015226Y-97234699D01*
X118901722Y-97608873D01*
X118873000Y-97900491D01*
X118873000Y-98695510D01*
X118901722Y-98987128D01*
X118946490Y-99134709D01*
X118671988Y-99409211D01*
X118642990Y-99433009D01*
X118619192Y-99462007D01*
X118619191Y-99462008D01*
X118548016Y-99548734D01*
X118477444Y-99680764D01*
X118433988Y-99824025D01*
X118419314Y-99973010D01*
X118422991Y-100010342D01*
X118422990Y-102589175D01*
X118316453Y-102389857D01*
X118068398Y-102087602D01*
X117766143Y-101839547D01*
X117421301Y-101655226D01*
X117047127Y-101541722D01*
X116658000Y-101503396D01*
X116268872Y-101541722D01*
X116067837Y-101602705D01*
X115742990Y-101277859D01*
X115742990Y-100359684D01*
X115894699Y-100440774D01*
X116268873Y-100554278D01*
X116658000Y-100592604D01*
X117047128Y-100554278D01*
X117421302Y-100440774D01*
X117766143Y-100256453D01*
X118068398Y-100008398D01*
X118316453Y-99706143D01*
X118500774Y-99361302D01*
X118614278Y-98987127D01*
X118643000Y-98695509D01*
X118643000Y-97900490D01*
X118614278Y-97608872D01*
X118500774Y-97234698D01*
X118316453Y-96889857D01*
X118068398Y-96587602D01*
X117766143Y-96339547D01*
X117421301Y-96155226D01*
X117047127Y-96041722D01*
X116658000Y-96003396D01*
X116268872Y-96041722D01*
X115894698Y-96155226D01*
X115742990Y-96236315D01*
X115742990Y-96038641D01*
X117436632Y-94345000D01*
X118137785Y-94345000D01*
X118154786Y-94365716D01*
G37*
X118154786Y-94365716D02*
X118217186Y-94416927D01*
X119659578Y-95859319D01*
X119710785Y-95921715D01*
X119959747Y-96126032D01*
X120054532Y-96176695D01*
X119749857Y-96339547D01*
X119447602Y-96587602D01*
X119199547Y-96889857D01*
X119015226Y-97234699D01*
X118901722Y-97608873D01*
X118873000Y-97900491D01*
X118873000Y-98695510D01*
X118901722Y-98987128D01*
X118946490Y-99134709D01*
X118671988Y-99409211D01*
X118642990Y-99433009D01*
X118619192Y-99462007D01*
X118619191Y-99462008D01*
X118548016Y-99548734D01*
X118477444Y-99680764D01*
X118433988Y-99824025D01*
X118419314Y-99973010D01*
X118422991Y-100010342D01*
X118422990Y-102589175D01*
X118316453Y-102389857D01*
X118068398Y-102087602D01*
X117766143Y-101839547D01*
X117421301Y-101655226D01*
X117047127Y-101541722D01*
X116658000Y-101503396D01*
X116268872Y-101541722D01*
X116067837Y-101602705D01*
X115742990Y-101277859D01*
X115742990Y-100359684D01*
X115894699Y-100440774D01*
X116268873Y-100554278D01*
X116658000Y-100592604D01*
X117047128Y-100554278D01*
X117421302Y-100440774D01*
X117766143Y-100256453D01*
X118068398Y-100008398D01*
X118316453Y-99706143D01*
X118500774Y-99361302D01*
X118614278Y-98987127D01*
X118643000Y-98695509D01*
X118643000Y-97900490D01*
X118614278Y-97608872D01*
X118500774Y-97234698D01*
X118316453Y-96889857D01*
X118068398Y-96587602D01*
X117766143Y-96339547D01*
X117421301Y-96155226D01*
X117047127Y-96041722D01*
X116658000Y-96003396D01*
X116268872Y-96041722D01*
X115894698Y-96155226D01*
X115742990Y-96236315D01*
X115742990Y-96038641D01*
X117436632Y-94345000D01*
X118137785Y-94345000D01*
X118154786Y-94365716D01*
G36*
X73325999Y-92822928D02*
G01*
X72224500Y-92822928D01*
X72224500Y-91187372D01*
X73325999Y-91187372D01*
X73325999Y-92822928D01*
G37*
X73325999Y-92822928D02*
X72224500Y-92822928D01*
X72224500Y-91187372D01*
X73325999Y-91187372D01*
X73325999Y-92822928D01*
G36*
X105796000Y-73006676D02*
G01*
X105795999Y-77070249D01*
X105790508Y-77126001D01*
X105795999Y-77181752D01*
X105812422Y-77348499D01*
X105877323Y-77562447D01*
X105982715Y-77759624D01*
X106124550Y-77932450D01*
X106167864Y-77967997D01*
X106817003Y-78617136D01*
X106852550Y-78660450D01*
X107025376Y-78802285D01*
X107222552Y-78907677D01*
X107436500Y-78972578D01*
X107603247Y-78989001D01*
X107603256Y-78989001D01*
X107658998Y-78994491D01*
X107714740Y-78989001D01*
X113161748Y-78989001D01*
X113217499Y-78994492D01*
X113273250Y-78989001D01*
X113273251Y-78989001D01*
X113439998Y-78972578D01*
X113653946Y-78907677D01*
X113851122Y-78802285D01*
X114023948Y-78660450D01*
X114059495Y-78617136D01*
X117828428Y-74848204D01*
X117828428Y-75145000D01*
X117840688Y-75269482D01*
X117876998Y-75389180D01*
X117935963Y-75499494D01*
X118015315Y-75596185D01*
X118112006Y-75675537D01*
X118181501Y-75712683D01*
X118181500Y-76949393D01*
X118163025Y-76967868D01*
X118000510Y-77211089D01*
X117888568Y-77481342D01*
X117831500Y-77768240D01*
X117831500Y-78060760D01*
X117888568Y-78347658D01*
X118000510Y-78617911D01*
X118163025Y-78861132D01*
X118181501Y-78879608D01*
X118181501Y-79036817D01*
X118112006Y-79073963D01*
X118015315Y-79153315D01*
X117935963Y-79250006D01*
X117876998Y-79360320D01*
X117840688Y-79480018D01*
X117828428Y-79604500D01*
X117828428Y-81304500D01*
X117840688Y-81428982D01*
X117876998Y-81548680D01*
X117935963Y-81658994D01*
X118015315Y-81755685D01*
X118112006Y-81835037D01*
X118181501Y-81872183D01*
X118181500Y-83084393D01*
X118163025Y-83102868D01*
X118000510Y-83346089D01*
X117888568Y-83616342D01*
X117831500Y-83903240D01*
X117831500Y-84195760D01*
X117888568Y-84482658D01*
X118000510Y-84752911D01*
X118163025Y-84996132D01*
X118181501Y-85014608D01*
X118181501Y-85171817D01*
X118112006Y-85208963D01*
X118015315Y-85288315D01*
X117935963Y-85385006D01*
X117876998Y-85495320D01*
X117840688Y-85615018D01*
X117828428Y-85739500D01*
X117828428Y-87439500D01*
X117840688Y-87563982D01*
X117876998Y-87683680D01*
X117935963Y-87793994D01*
X118015315Y-87890685D01*
X118112006Y-87970037D01*
X118222320Y-88029002D01*
X118342018Y-88065312D01*
X118466500Y-88077572D01*
X118556502Y-88077572D01*
X118556501Y-88891821D01*
X118369868Y-89016525D01*
X118163025Y-89223368D01*
X118000510Y-89466589D01*
X117888568Y-89736842D01*
X117831500Y-90023740D01*
X117831500Y-90316260D01*
X117888568Y-90603158D01*
X118000510Y-90873411D01*
X118135207Y-91075000D01*
X104499739Y-91075000D01*
X104349215Y-90924476D01*
X104482561Y-90951000D01*
X104686439Y-90951000D01*
X104886398Y-90911226D01*
X105074756Y-90833205D01*
X105244274Y-90719937D01*
X105388437Y-90575774D01*
X105501705Y-90406256D01*
X105579726Y-90217898D01*
X105619500Y-90017939D01*
X105619500Y-89955802D01*
X106423303Y-89152000D01*
X107485868Y-89152000D01*
X107607480Y-89273612D01*
X107793376Y-89397824D01*
X107999933Y-89483383D01*
X108219212Y-89527000D01*
X108442788Y-89527000D01*
X108662067Y-89483383D01*
X108868624Y-89397824D01*
X109054520Y-89273612D01*
X109157966Y-89170166D01*
X111796439Y-89170166D01*
X111831550Y-89383588D01*
X112035826Y-89474458D01*
X112253905Y-89523731D01*
X112477406Y-89529511D01*
X112697740Y-89491577D01*
X112906440Y-89411387D01*
X112958450Y-89383588D01*
X112993561Y-89170166D01*
X112395000Y-88571605D01*
X111796439Y-89170166D01*
X109157966Y-89170166D01*
X109212612Y-89115520D01*
X109336824Y-88929624D01*
X109422383Y-88723067D01*
X109466000Y-88503788D01*
X109466000Y-88474406D01*
X111257489Y-88474406D01*
X111295423Y-88694740D01*
X111375613Y-88903440D01*
X111403412Y-88955450D01*
X111616834Y-88990561D01*
X112215395Y-88392000D01*
X112574605Y-88392000D01*
X113173166Y-88990561D01*
X113386588Y-88955450D01*
X113477458Y-88751174D01*
X113526731Y-88533095D01*
X113532511Y-88309594D01*
X113494577Y-88089260D01*
X113414387Y-87880560D01*
X113386588Y-87828550D01*
X113173166Y-87793439D01*
X112574605Y-88392000D01*
X112215395Y-88392000D01*
X111616834Y-87793439D01*
X111403412Y-87828550D01*
X111312542Y-88032826D01*
X111263269Y-88250905D01*
X111257489Y-88474406D01*
X109466000Y-88474406D01*
X109466000Y-88280212D01*
X109422383Y-88060933D01*
X109336824Y-87854376D01*
X109212612Y-87668480D01*
X109157966Y-87613834D01*
X111796439Y-87613834D01*
X112395000Y-88212395D01*
X112993561Y-87613834D01*
X112958450Y-87400412D01*
X112754174Y-87309542D01*
X112536095Y-87260269D01*
X112312594Y-87254489D01*
X112092260Y-87292423D01*
X111883560Y-87372613D01*
X111831550Y-87400412D01*
X111796439Y-87613834D01*
X109157966Y-87613834D01*
X109091000Y-87546868D01*
X109091000Y-85171775D01*
X109182013Y-85110962D01*
X109367962Y-84925013D01*
X109514061Y-84706359D01*
X109614696Y-84463405D01*
X109666000Y-84205486D01*
X109666000Y-83942514D01*
X109614696Y-83684595D01*
X109514061Y-83441641D01*
X109367962Y-83222987D01*
X109182013Y-83037038D01*
X108963359Y-82890939D01*
X108720405Y-82790304D01*
X108462486Y-82739000D01*
X108199514Y-82739000D01*
X107941595Y-82790304D01*
X107698641Y-82890939D01*
X107479987Y-83037038D01*
X107294038Y-83222987D01*
X107247876Y-83292074D01*
X104776124Y-80820323D01*
X104790000Y-80750561D01*
X104790000Y-80497439D01*
X104740619Y-80249179D01*
X104643753Y-80015324D01*
X104503125Y-79804860D01*
X104324140Y-79625875D01*
X104265000Y-79586359D01*
X104265000Y-73418949D01*
X104406927Y-73277022D01*
X104469065Y-73277022D01*
X104669024Y-73237248D01*
X104857382Y-73159227D01*
X105026900Y-73045959D01*
X105171063Y-72901796D01*
X105284331Y-72732278D01*
X105353826Y-72564502D01*
X105796000Y-73006676D01*
G37*
X105796000Y-73006676D02*
X105795999Y-77070249D01*
X105790508Y-77126001D01*
X105795999Y-77181752D01*
X105812422Y-77348499D01*
X105877323Y-77562447D01*
X105982715Y-77759624D01*
X106124550Y-77932450D01*
X106167864Y-77967997D01*
X106817003Y-78617136D01*
X106852550Y-78660450D01*
X107025376Y-78802285D01*
X107222552Y-78907677D01*
X107436500Y-78972578D01*
X107603247Y-78989001D01*
X107603256Y-78989001D01*
X107658998Y-78994491D01*
X107714740Y-78989001D01*
X113161748Y-78989001D01*
X113217499Y-78994492D01*
X113273250Y-78989001D01*
X113273251Y-78989001D01*
X113439998Y-78972578D01*
X113653946Y-78907677D01*
X113851122Y-78802285D01*
X114023948Y-78660450D01*
X114059495Y-78617136D01*
X117828428Y-74848204D01*
X117828428Y-75145000D01*
X117840688Y-75269482D01*
X117876998Y-75389180D01*
X117935963Y-75499494D01*
X118015315Y-75596185D01*
X118112006Y-75675537D01*
X118181501Y-75712683D01*
X118181500Y-76949393D01*
X118163025Y-76967868D01*
X118000510Y-77211089D01*
X117888568Y-77481342D01*
X117831500Y-77768240D01*
X117831500Y-78060760D01*
X117888568Y-78347658D01*
X118000510Y-78617911D01*
X118163025Y-78861132D01*
X118181501Y-78879608D01*
X118181501Y-79036817D01*
X118112006Y-79073963D01*
X118015315Y-79153315D01*
X117935963Y-79250006D01*
X117876998Y-79360320D01*
X117840688Y-79480018D01*
X117828428Y-79604500D01*
X117828428Y-81304500D01*
X117840688Y-81428982D01*
X117876998Y-81548680D01*
X117935963Y-81658994D01*
X118015315Y-81755685D01*
X118112006Y-81835037D01*
X118181501Y-81872183D01*
X118181500Y-83084393D01*
X118163025Y-83102868D01*
X118000510Y-83346089D01*
X117888568Y-83616342D01*
X117831500Y-83903240D01*
X117831500Y-84195760D01*
X117888568Y-84482658D01*
X118000510Y-84752911D01*
X118163025Y-84996132D01*
X118181501Y-85014608D01*
X118181501Y-85171817D01*
X118112006Y-85208963D01*
X118015315Y-85288315D01*
X117935963Y-85385006D01*
X117876998Y-85495320D01*
X117840688Y-85615018D01*
X117828428Y-85739500D01*
X117828428Y-87439500D01*
X117840688Y-87563982D01*
X117876998Y-87683680D01*
X117935963Y-87793994D01*
X118015315Y-87890685D01*
X118112006Y-87970037D01*
X118222320Y-88029002D01*
X118342018Y-88065312D01*
X118466500Y-88077572D01*
X118556502Y-88077572D01*
X118556501Y-88891821D01*
X118369868Y-89016525D01*
X118163025Y-89223368D01*
X118000510Y-89466589D01*
X117888568Y-89736842D01*
X117831500Y-90023740D01*
X117831500Y-90316260D01*
X117888568Y-90603158D01*
X118000510Y-90873411D01*
X118135207Y-91075000D01*
X104499739Y-91075000D01*
X104349215Y-90924476D01*
X104482561Y-90951000D01*
X104686439Y-90951000D01*
X104886398Y-90911226D01*
X105074756Y-90833205D01*
X105244274Y-90719937D01*
X105388437Y-90575774D01*
X105501705Y-90406256D01*
X105579726Y-90217898D01*
X105619500Y-90017939D01*
X105619500Y-89955802D01*
X106423303Y-89152000D01*
X107485868Y-89152000D01*
X107607480Y-89273612D01*
X107793376Y-89397824D01*
X107999933Y-89483383D01*
X108219212Y-89527000D01*
X108442788Y-89527000D01*
X108662067Y-89483383D01*
X108868624Y-89397824D01*
X109054520Y-89273612D01*
X109157966Y-89170166D01*
X111796439Y-89170166D01*
X111831550Y-89383588D01*
X112035826Y-89474458D01*
X112253905Y-89523731D01*
X112477406Y-89529511D01*
X112697740Y-89491577D01*
X112906440Y-89411387D01*
X112958450Y-89383588D01*
X112993561Y-89170166D01*
X112395000Y-88571605D01*
X111796439Y-89170166D01*
X109157966Y-89170166D01*
X109212612Y-89115520D01*
X109336824Y-88929624D01*
X109422383Y-88723067D01*
X109466000Y-88503788D01*
X109466000Y-88474406D01*
X111257489Y-88474406D01*
X111295423Y-88694740D01*
X111375613Y-88903440D01*
X111403412Y-88955450D01*
X111616834Y-88990561D01*
X112215395Y-88392000D01*
X112574605Y-88392000D01*
X113173166Y-88990561D01*
X113386588Y-88955450D01*
X113477458Y-88751174D01*
X113526731Y-88533095D01*
X113532511Y-88309594D01*
X113494577Y-88089260D01*
X113414387Y-87880560D01*
X113386588Y-87828550D01*
X113173166Y-87793439D01*
X112574605Y-88392000D01*
X112215395Y-88392000D01*
X111616834Y-87793439D01*
X111403412Y-87828550D01*
X111312542Y-88032826D01*
X111263269Y-88250905D01*
X111257489Y-88474406D01*
X109466000Y-88474406D01*
X109466000Y-88280212D01*
X109422383Y-88060933D01*
X109336824Y-87854376D01*
X109212612Y-87668480D01*
X109157966Y-87613834D01*
X111796439Y-87613834D01*
X112395000Y-88212395D01*
X112993561Y-87613834D01*
X112958450Y-87400412D01*
X112754174Y-87309542D01*
X112536095Y-87260269D01*
X112312594Y-87254489D01*
X112092260Y-87292423D01*
X111883560Y-87372613D01*
X111831550Y-87400412D01*
X111796439Y-87613834D01*
X109157966Y-87613834D01*
X109091000Y-87546868D01*
X109091000Y-85171775D01*
X109182013Y-85110962D01*
X109367962Y-84925013D01*
X109514061Y-84706359D01*
X109614696Y-84463405D01*
X109666000Y-84205486D01*
X109666000Y-83942514D01*
X109614696Y-83684595D01*
X109514061Y-83441641D01*
X109367962Y-83222987D01*
X109182013Y-83037038D01*
X108963359Y-82890939D01*
X108720405Y-82790304D01*
X108462486Y-82739000D01*
X108199514Y-82739000D01*
X107941595Y-82790304D01*
X107698641Y-82890939D01*
X107479987Y-83037038D01*
X107294038Y-83222987D01*
X107247876Y-83292074D01*
X104776124Y-80820323D01*
X104790000Y-80750561D01*
X104790000Y-80497439D01*
X104740619Y-80249179D01*
X104643753Y-80015324D01*
X104503125Y-79804860D01*
X104324140Y-79625875D01*
X104265000Y-79586359D01*
X104265000Y-73418949D01*
X104406927Y-73277022D01*
X104469065Y-73277022D01*
X104669024Y-73237248D01*
X104857382Y-73159227D01*
X105026900Y-73045959D01*
X105171063Y-72901796D01*
X105284331Y-72732278D01*
X105353826Y-72564502D01*
X105796000Y-73006676D01*
G36*
X102269381Y-80998821D02*
G01*
X102366247Y-81232676D01*
X102506875Y-81443140D01*
X102685860Y-81622125D01*
X102896324Y-81762753D01*
X103130179Y-81859619D01*
X103378439Y-81909000D01*
X103631561Y-81909000D01*
X103701323Y-81895124D01*
X106391201Y-84585003D01*
X106414999Y-84614001D01*
X106530724Y-84708974D01*
X106662753Y-84779546D01*
X106806014Y-84823003D01*
X106917667Y-84834000D01*
X106917675Y-84834000D01*
X106955000Y-84837676D01*
X106992325Y-84834000D01*
X107233225Y-84834000D01*
X107294038Y-84925013D01*
X107479987Y-85110962D01*
X107571001Y-85171775D01*
X107571000Y-87546868D01*
X107485868Y-87632000D01*
X106145822Y-87632000D01*
X106108499Y-87628324D01*
X106071176Y-87632000D01*
X106071167Y-87632000D01*
X105959514Y-87642997D01*
X105816253Y-87686454D01*
X105684224Y-87757026D01*
X105684222Y-87757027D01*
X105684223Y-87757027D01*
X105597496Y-87828201D01*
X105597492Y-87828205D01*
X105568499Y-87851999D01*
X105544705Y-87880992D01*
X105359442Y-88066256D01*
X105358383Y-88060933D01*
X105272824Y-87854376D01*
X105148612Y-87668480D01*
X104990520Y-87510388D01*
X104804624Y-87386176D01*
X104598067Y-87300617D01*
X104378788Y-87257000D01*
X104201999Y-87257000D01*
X104201999Y-85766320D01*
X104209910Y-85686000D01*
X104201999Y-85605679D01*
X104178342Y-85365485D01*
X104084851Y-85057286D01*
X103933030Y-84773249D01*
X103728713Y-84524287D01*
X103666318Y-84473081D01*
X101092002Y-81898766D01*
X101092002Y-81750252D01*
X101250750Y-81909000D01*
X101615000Y-81912072D01*
X101739482Y-81899812D01*
X101859180Y-81863502D01*
X101969494Y-81804537D01*
X102066185Y-81725185D01*
X102145537Y-81628494D01*
X102204502Y-81518180D01*
X102240812Y-81398482D01*
X102253072Y-81274000D01*
X102250000Y-80909750D01*
X102091252Y-80751002D01*
X102220088Y-80751002D01*
X102269381Y-80998821D01*
G37*
X102269381Y-80998821D02*
X102366247Y-81232676D01*
X102506875Y-81443140D01*
X102685860Y-81622125D01*
X102896324Y-81762753D01*
X103130179Y-81859619D01*
X103378439Y-81909000D01*
X103631561Y-81909000D01*
X103701323Y-81895124D01*
X106391201Y-84585003D01*
X106414999Y-84614001D01*
X106530724Y-84708974D01*
X106662753Y-84779546D01*
X106806014Y-84823003D01*
X106917667Y-84834000D01*
X106917675Y-84834000D01*
X106955000Y-84837676D01*
X106992325Y-84834000D01*
X107233225Y-84834000D01*
X107294038Y-84925013D01*
X107479987Y-85110962D01*
X107571001Y-85171775D01*
X107571000Y-87546868D01*
X107485868Y-87632000D01*
X106145822Y-87632000D01*
X106108499Y-87628324D01*
X106071176Y-87632000D01*
X106071167Y-87632000D01*
X105959514Y-87642997D01*
X105816253Y-87686454D01*
X105684224Y-87757026D01*
X105684222Y-87757027D01*
X105684223Y-87757027D01*
X105597496Y-87828201D01*
X105597492Y-87828205D01*
X105568499Y-87851999D01*
X105544705Y-87880992D01*
X105359442Y-88066256D01*
X105358383Y-88060933D01*
X105272824Y-87854376D01*
X105148612Y-87668480D01*
X104990520Y-87510388D01*
X104804624Y-87386176D01*
X104598067Y-87300617D01*
X104378788Y-87257000D01*
X104201999Y-87257000D01*
X104201999Y-85766320D01*
X104209910Y-85686000D01*
X104201999Y-85605679D01*
X104178342Y-85365485D01*
X104084851Y-85057286D01*
X103933030Y-84773249D01*
X103728713Y-84524287D01*
X103666318Y-84473081D01*
X101092002Y-81898766D01*
X101092002Y-81750252D01*
X101250750Y-81909000D01*
X101615000Y-81912072D01*
X101739482Y-81899812D01*
X101859180Y-81863502D01*
X101969494Y-81804537D01*
X102066185Y-81725185D01*
X102145537Y-81628494D01*
X102204502Y-81518180D01*
X102240812Y-81398482D01*
X102253072Y-81274000D01*
X102250000Y-80909750D01*
X102091252Y-80751002D01*
X102220088Y-80751002D01*
X102269381Y-80998821D01*
G36*
X74332495Y-81418212D02*
G01*
X74583905Y-81586199D01*
X74863257Y-81701911D01*
X75159816Y-81760900D01*
X75462184Y-81760900D01*
X75719930Y-81709631D01*
X75928301Y-81918003D01*
X75952099Y-81947001D01*
X76067824Y-82041974D01*
X76199853Y-82112546D01*
X76343114Y-82156003D01*
X76454767Y-82167000D01*
X76454775Y-82167000D01*
X76492100Y-82170676D01*
X76529425Y-82167000D01*
X80921397Y-82167000D01*
X81170336Y-82415940D01*
X81112939Y-82501841D01*
X81012304Y-82744795D01*
X80961000Y-83002714D01*
X80961000Y-83265686D01*
X81012304Y-83523605D01*
X81112939Y-83766559D01*
X81259038Y-83985213D01*
X81444987Y-84171162D01*
X81527657Y-84226400D01*
X81444987Y-84281638D01*
X81259038Y-84467587D01*
X81112939Y-84686241D01*
X81012304Y-84929195D01*
X80961000Y-85187114D01*
X80961000Y-85450086D01*
X80987558Y-85583601D01*
X77031803Y-85583601D01*
X76794731Y-85346530D01*
X76846000Y-85088784D01*
X76846000Y-84786416D01*
X76787011Y-84489857D01*
X76671299Y-84210505D01*
X76503312Y-83959095D01*
X76289505Y-83745288D01*
X76038095Y-83577301D01*
X75758743Y-83461589D01*
X75462184Y-83402600D01*
X75159816Y-83402600D01*
X74863257Y-83461589D01*
X74583905Y-83577301D01*
X74332495Y-83745288D01*
X74266056Y-83811727D01*
X74260502Y-83793420D01*
X74201537Y-83683106D01*
X74122185Y-83586415D01*
X74025494Y-83507063D01*
X73915180Y-83448098D01*
X73795482Y-83411788D01*
X73671000Y-83399528D01*
X72224500Y-83399528D01*
X72224500Y-81763972D01*
X73671000Y-81763972D01*
X73795482Y-81751712D01*
X73915180Y-81715402D01*
X74025494Y-81656437D01*
X74122185Y-81577085D01*
X74201537Y-81480394D01*
X74260502Y-81370080D01*
X74266056Y-81351773D01*
X74332495Y-81418212D01*
G37*
X74332495Y-81418212D02*
X74583905Y-81586199D01*
X74863257Y-81701911D01*
X75159816Y-81760900D01*
X75462184Y-81760900D01*
X75719930Y-81709631D01*
X75928301Y-81918003D01*
X75952099Y-81947001D01*
X76067824Y-82041974D01*
X76199853Y-82112546D01*
X76343114Y-82156003D01*
X76454767Y-82167000D01*
X76454775Y-82167000D01*
X76492100Y-82170676D01*
X76529425Y-82167000D01*
X80921397Y-82167000D01*
X81170336Y-82415940D01*
X81112939Y-82501841D01*
X81012304Y-82744795D01*
X80961000Y-83002714D01*
X80961000Y-83265686D01*
X81012304Y-83523605D01*
X81112939Y-83766559D01*
X81259038Y-83985213D01*
X81444987Y-84171162D01*
X81527657Y-84226400D01*
X81444987Y-84281638D01*
X81259038Y-84467587D01*
X81112939Y-84686241D01*
X81012304Y-84929195D01*
X80961000Y-85187114D01*
X80961000Y-85450086D01*
X80987558Y-85583601D01*
X77031803Y-85583601D01*
X76794731Y-85346530D01*
X76846000Y-85088784D01*
X76846000Y-84786416D01*
X76787011Y-84489857D01*
X76671299Y-84210505D01*
X76503312Y-83959095D01*
X76289505Y-83745288D01*
X76038095Y-83577301D01*
X75758743Y-83461589D01*
X75462184Y-83402600D01*
X75159816Y-83402600D01*
X74863257Y-83461589D01*
X74583905Y-83577301D01*
X74332495Y-83745288D01*
X74266056Y-83811727D01*
X74260502Y-83793420D01*
X74201537Y-83683106D01*
X74122185Y-83586415D01*
X74025494Y-83507063D01*
X73915180Y-83448098D01*
X73795482Y-83411788D01*
X73671000Y-83399528D01*
X72224500Y-83399528D01*
X72224500Y-81763972D01*
X73671000Y-81763972D01*
X73795482Y-81751712D01*
X73915180Y-81715402D01*
X74025494Y-81656437D01*
X74122185Y-81577085D01*
X74201537Y-81480394D01*
X74260502Y-81370080D01*
X74266056Y-81351773D01*
X74332495Y-81418212D01*
G36*
X101092000Y-80497000D02*
G01*
X101112000Y-80497000D01*
X101112000Y-80751000D01*
X101092000Y-80751000D01*
X101092000Y-80771000D01*
X100838000Y-80771000D01*
X100838000Y-80751000D01*
X100818000Y-80751000D01*
X100818000Y-80497000D01*
X100838000Y-80497000D01*
X100838000Y-80477000D01*
X101092000Y-80477000D01*
X101092000Y-80497000D01*
G37*
X101092000Y-80497000D02*
X101112000Y-80497000D01*
X101112000Y-80751000D01*
X101092000Y-80751000D01*
X101092000Y-80771000D01*
X100838000Y-80771000D01*
X100838000Y-80751000D01*
X100818000Y-80751000D01*
X100818000Y-80497000D01*
X100838000Y-80497000D01*
X100838000Y-80477000D01*
X101092000Y-80477000D01*
X101092000Y-80497000D01*
G36*
X73326008Y-59949096D02*
G01*
X73318411Y-59954172D01*
X73018231Y-60392626D01*
X75184000Y-62558395D01*
X77349769Y-60392626D01*
X77049589Y-59954172D01*
X76840416Y-59842000D01*
X80497520Y-59842000D01*
X80456320Y-59854498D01*
X80346006Y-59913463D01*
X80249315Y-59992815D01*
X80169963Y-60089506D01*
X80110998Y-60199820D01*
X80074688Y-60319518D01*
X80062428Y-60444000D01*
X80062428Y-62619000D01*
X80074688Y-62743482D01*
X80110998Y-62863180D01*
X80169963Y-62973494D01*
X80249315Y-63070185D01*
X80346006Y-63149537D01*
X80456320Y-63208502D01*
X80576018Y-63244812D01*
X80700500Y-63257072D01*
X82875500Y-63257072D01*
X82999982Y-63244812D01*
X83119680Y-63208502D01*
X83229994Y-63149537D01*
X83326685Y-63070185D01*
X83406037Y-62973494D01*
X83465002Y-62863180D01*
X83501312Y-62743482D01*
X83508894Y-62666500D01*
X84687018Y-62666500D01*
X84853001Y-62832483D01*
X84853000Y-64430518D01*
X84650047Y-64633471D01*
X84461541Y-64915591D01*
X84331695Y-65229065D01*
X84265500Y-65561849D01*
X84265500Y-65901151D01*
X84331695Y-66233935D01*
X84461541Y-66547409D01*
X84650047Y-66829529D01*
X84889971Y-67069453D01*
X85172091Y-67257959D01*
X85228001Y-67281118D01*
X85228000Y-80137804D01*
X85128439Y-80118000D01*
X84924561Y-80118000D01*
X84724602Y-80157774D01*
X84536244Y-80235795D01*
X84366726Y-80349063D01*
X84222563Y-80493226D01*
X84119815Y-80647000D01*
X83596923Y-80647000D01*
X83579696Y-80560395D01*
X83479061Y-80317441D01*
X83332962Y-80098787D01*
X83147013Y-79912838D01*
X83064343Y-79857600D01*
X83147013Y-79802362D01*
X83332962Y-79616413D01*
X83479061Y-79397759D01*
X83579696Y-79154805D01*
X83631000Y-78896886D01*
X83631000Y-78633914D01*
X83579696Y-78375995D01*
X83479061Y-78133041D01*
X83332962Y-77914387D01*
X83147013Y-77728438D01*
X83064343Y-77673200D01*
X83147013Y-77617962D01*
X83332962Y-77432013D01*
X83479061Y-77213359D01*
X83579696Y-76970405D01*
X83631000Y-76712486D01*
X83631000Y-76449514D01*
X83579696Y-76191595D01*
X83479061Y-75948641D01*
X83332962Y-75729987D01*
X83147013Y-75544038D01*
X82952210Y-75413876D01*
X84085813Y-74280274D01*
X84147950Y-74280274D01*
X84347909Y-74240500D01*
X84536267Y-74162479D01*
X84705785Y-74049211D01*
X84849948Y-73905048D01*
X84963216Y-73735530D01*
X85041237Y-73547172D01*
X85081011Y-73347213D01*
X85081011Y-73143335D01*
X85041237Y-72943376D01*
X84963216Y-72755018D01*
X84849948Y-72585500D01*
X84705785Y-72441337D01*
X84536267Y-72328069D01*
X84347909Y-72250048D01*
X84147950Y-72210274D01*
X83944072Y-72210274D01*
X83744113Y-72250048D01*
X83555755Y-72328069D01*
X83386237Y-72441337D01*
X83242074Y-72585500D01*
X83128806Y-72755018D01*
X83050785Y-72943376D01*
X83011011Y-73143335D01*
X83011011Y-73205472D01*
X81462284Y-74754200D01*
X79329627Y-74754200D01*
X79292302Y-74750524D01*
X79254977Y-74754200D01*
X79254969Y-74754200D01*
X79143316Y-74765197D01*
X79000055Y-74808654D01*
X78868026Y-74879226D01*
X78752301Y-74974199D01*
X78728503Y-75003197D01*
X78077502Y-75654199D01*
X76846000Y-75654199D01*
X76846000Y-75363016D01*
X76787011Y-75066457D01*
X76671299Y-74787105D01*
X76503312Y-74535695D01*
X76289505Y-74321888D01*
X76038095Y-74153901D01*
X75758743Y-74038189D01*
X75462184Y-73979200D01*
X75159816Y-73979200D01*
X74863257Y-74038189D01*
X74583905Y-74153901D01*
X74332495Y-74321888D01*
X74266056Y-74388327D01*
X74260502Y-74370020D01*
X74201537Y-74259706D01*
X74122185Y-74163015D01*
X74025494Y-74083663D01*
X73915180Y-74024698D01*
X73795482Y-73988388D01*
X73671000Y-73976128D01*
X72224500Y-73976128D01*
X72224500Y-72340572D01*
X73671000Y-72340572D01*
X73795482Y-72328312D01*
X73915180Y-72292002D01*
X74025494Y-72233037D01*
X74122185Y-72153685D01*
X74201537Y-72056994D01*
X74260502Y-71946680D01*
X74266056Y-71928373D01*
X74332495Y-71994812D01*
X74583905Y-72162799D01*
X74863257Y-72278511D01*
X75159816Y-72337500D01*
X75462184Y-72337500D01*
X75758743Y-72278511D01*
X76038095Y-72162799D01*
X76289505Y-71994812D01*
X76503312Y-71781005D01*
X76671299Y-71529595D01*
X76762880Y-71308500D01*
X82417789Y-71308500D01*
X82461726Y-71352437D01*
X82631244Y-71465705D01*
X82819602Y-71543726D01*
X83019561Y-71583500D01*
X83223439Y-71583500D01*
X83423398Y-71543726D01*
X83611756Y-71465705D01*
X83781274Y-71352437D01*
X83925437Y-71208274D01*
X84038705Y-71038756D01*
X84116726Y-70850398D01*
X84156500Y-70650439D01*
X84156500Y-70446561D01*
X84116726Y-70246602D01*
X84038705Y-70058244D01*
X83925437Y-69888726D01*
X83781274Y-69744563D01*
X83611756Y-69631295D01*
X83423398Y-69553274D01*
X83223439Y-69513500D01*
X83019561Y-69513500D01*
X82819602Y-69553274D01*
X82631244Y-69631295D01*
X82461726Y-69744563D01*
X82417789Y-69788500D01*
X76467817Y-69788500D01*
X76289505Y-69610188D01*
X76038095Y-69442201D01*
X75758743Y-69326489D01*
X75462184Y-69267500D01*
X75159816Y-69267500D01*
X74863257Y-69326489D01*
X74583905Y-69442201D01*
X74332495Y-69610188D01*
X74266056Y-69676627D01*
X74260502Y-69658320D01*
X74201537Y-69548006D01*
X74122185Y-69451315D01*
X74025494Y-69371963D01*
X73915180Y-69312998D01*
X73795482Y-69276688D01*
X73671000Y-69264428D01*
X72224500Y-69264428D01*
X72224500Y-65083374D01*
X73018231Y-65083374D01*
X73318411Y-65521828D01*
X73897356Y-65832296D01*
X74525746Y-66023852D01*
X75179431Y-66089134D01*
X75833293Y-66025634D01*
X76462203Y-65835792D01*
X76976399Y-65561849D01*
X80065500Y-65561849D01*
X80065500Y-65901151D01*
X80131695Y-66233935D01*
X80261541Y-66547409D01*
X80450047Y-66829529D01*
X80689971Y-67069453D01*
X80972091Y-67257959D01*
X81285565Y-67387805D01*
X81618349Y-67454000D01*
X81957651Y-67454000D01*
X82290435Y-67387805D01*
X82603909Y-67257959D01*
X82886029Y-67069453D01*
X83125953Y-66829529D01*
X83314459Y-66547409D01*
X83444305Y-66233935D01*
X83510500Y-65901151D01*
X83510500Y-65561849D01*
X83444305Y-65229065D01*
X83314459Y-64915591D01*
X83125953Y-64633471D01*
X82886029Y-64393547D01*
X82603909Y-64205041D01*
X82290435Y-64075195D01*
X81957651Y-64009000D01*
X81618349Y-64009000D01*
X81285565Y-64075195D01*
X80972091Y-64205041D01*
X80689971Y-64393547D01*
X80450047Y-64633471D01*
X80261541Y-64915591D01*
X80131695Y-65229065D01*
X80065500Y-65561849D01*
X76976399Y-65561849D01*
X77041992Y-65526904D01*
X77049589Y-65521828D01*
X77349769Y-65083374D01*
X75184000Y-62917605D01*
X73018231Y-65083374D01*
X72224500Y-65083374D01*
X72224500Y-64275780D01*
X72395096Y-64595992D01*
X72400172Y-64603589D01*
X72838626Y-64903769D01*
X75004395Y-62738000D01*
X75363605Y-62738000D01*
X77529374Y-64903769D01*
X77967828Y-64603589D01*
X78278296Y-64024644D01*
X78469852Y-63396254D01*
X78535134Y-62742569D01*
X78471634Y-62088707D01*
X78281792Y-61459797D01*
X77972904Y-60880008D01*
X77967828Y-60872411D01*
X77529374Y-60572231D01*
X75363605Y-62738000D01*
X75004395Y-62738000D01*
X72838626Y-60572231D01*
X72400172Y-60872411D01*
X72224500Y-61199995D01*
X72224500Y-59842000D01*
X73527029Y-59842000D01*
X73326008Y-59949096D01*
G37*
X73326008Y-59949096D02*
X73318411Y-59954172D01*
X73018231Y-60392626D01*
X75184000Y-62558395D01*
X77349769Y-60392626D01*
X77049589Y-59954172D01*
X76840416Y-59842000D01*
X80497520Y-59842000D01*
X80456320Y-59854498D01*
X80346006Y-59913463D01*
X80249315Y-59992815D01*
X80169963Y-60089506D01*
X80110998Y-60199820D01*
X80074688Y-60319518D01*
X80062428Y-60444000D01*
X80062428Y-62619000D01*
X80074688Y-62743482D01*
X80110998Y-62863180D01*
X80169963Y-62973494D01*
X80249315Y-63070185D01*
X80346006Y-63149537D01*
X80456320Y-63208502D01*
X80576018Y-63244812D01*
X80700500Y-63257072D01*
X82875500Y-63257072D01*
X82999982Y-63244812D01*
X83119680Y-63208502D01*
X83229994Y-63149537D01*
X83326685Y-63070185D01*
X83406037Y-62973494D01*
X83465002Y-62863180D01*
X83501312Y-62743482D01*
X83508894Y-62666500D01*
X84687018Y-62666500D01*
X84853001Y-62832483D01*
X84853000Y-64430518D01*
X84650047Y-64633471D01*
X84461541Y-64915591D01*
X84331695Y-65229065D01*
X84265500Y-65561849D01*
X84265500Y-65901151D01*
X84331695Y-66233935D01*
X84461541Y-66547409D01*
X84650047Y-66829529D01*
X84889971Y-67069453D01*
X85172091Y-67257959D01*
X85228001Y-67281118D01*
X85228000Y-80137804D01*
X85128439Y-80118000D01*
X84924561Y-80118000D01*
X84724602Y-80157774D01*
X84536244Y-80235795D01*
X84366726Y-80349063D01*
X84222563Y-80493226D01*
X84119815Y-80647000D01*
X83596923Y-80647000D01*
X83579696Y-80560395D01*
X83479061Y-80317441D01*
X83332962Y-80098787D01*
X83147013Y-79912838D01*
X83064343Y-79857600D01*
X83147013Y-79802362D01*
X83332962Y-79616413D01*
X83479061Y-79397759D01*
X83579696Y-79154805D01*
X83631000Y-78896886D01*
X83631000Y-78633914D01*
X83579696Y-78375995D01*
X83479061Y-78133041D01*
X83332962Y-77914387D01*
X83147013Y-77728438D01*
X83064343Y-77673200D01*
X83147013Y-77617962D01*
X83332962Y-77432013D01*
X83479061Y-77213359D01*
X83579696Y-76970405D01*
X83631000Y-76712486D01*
X83631000Y-76449514D01*
X83579696Y-76191595D01*
X83479061Y-75948641D01*
X83332962Y-75729987D01*
X83147013Y-75544038D01*
X82952210Y-75413876D01*
X84085813Y-74280274D01*
X84147950Y-74280274D01*
X84347909Y-74240500D01*
X84536267Y-74162479D01*
X84705785Y-74049211D01*
X84849948Y-73905048D01*
X84963216Y-73735530D01*
X85041237Y-73547172D01*
X85081011Y-73347213D01*
X85081011Y-73143335D01*
X85041237Y-72943376D01*
X84963216Y-72755018D01*
X84849948Y-72585500D01*
X84705785Y-72441337D01*
X84536267Y-72328069D01*
X84347909Y-72250048D01*
X84147950Y-72210274D01*
X83944072Y-72210274D01*
X83744113Y-72250048D01*
X83555755Y-72328069D01*
X83386237Y-72441337D01*
X83242074Y-72585500D01*
X83128806Y-72755018D01*
X83050785Y-72943376D01*
X83011011Y-73143335D01*
X83011011Y-73205472D01*
X81462284Y-74754200D01*
X79329627Y-74754200D01*
X79292302Y-74750524D01*
X79254977Y-74754200D01*
X79254969Y-74754200D01*
X79143316Y-74765197D01*
X79000055Y-74808654D01*
X78868026Y-74879226D01*
X78752301Y-74974199D01*
X78728503Y-75003197D01*
X78077502Y-75654199D01*
X76846000Y-75654199D01*
X76846000Y-75363016D01*
X76787011Y-75066457D01*
X76671299Y-74787105D01*
X76503312Y-74535695D01*
X76289505Y-74321888D01*
X76038095Y-74153901D01*
X75758743Y-74038189D01*
X75462184Y-73979200D01*
X75159816Y-73979200D01*
X74863257Y-74038189D01*
X74583905Y-74153901D01*
X74332495Y-74321888D01*
X74266056Y-74388327D01*
X74260502Y-74370020D01*
X74201537Y-74259706D01*
X74122185Y-74163015D01*
X74025494Y-74083663D01*
X73915180Y-74024698D01*
X73795482Y-73988388D01*
X73671000Y-73976128D01*
X72224500Y-73976128D01*
X72224500Y-72340572D01*
X73671000Y-72340572D01*
X73795482Y-72328312D01*
X73915180Y-72292002D01*
X74025494Y-72233037D01*
X74122185Y-72153685D01*
X74201537Y-72056994D01*
X74260502Y-71946680D01*
X74266056Y-71928373D01*
X74332495Y-71994812D01*
X74583905Y-72162799D01*
X74863257Y-72278511D01*
X75159816Y-72337500D01*
X75462184Y-72337500D01*
X75758743Y-72278511D01*
X76038095Y-72162799D01*
X76289505Y-71994812D01*
X76503312Y-71781005D01*
X76671299Y-71529595D01*
X76762880Y-71308500D01*
X82417789Y-71308500D01*
X82461726Y-71352437D01*
X82631244Y-71465705D01*
X82819602Y-71543726D01*
X83019561Y-71583500D01*
X83223439Y-71583500D01*
X83423398Y-71543726D01*
X83611756Y-71465705D01*
X83781274Y-71352437D01*
X83925437Y-71208274D01*
X84038705Y-71038756D01*
X84116726Y-70850398D01*
X84156500Y-70650439D01*
X84156500Y-70446561D01*
X84116726Y-70246602D01*
X84038705Y-70058244D01*
X83925437Y-69888726D01*
X83781274Y-69744563D01*
X83611756Y-69631295D01*
X83423398Y-69553274D01*
X83223439Y-69513500D01*
X83019561Y-69513500D01*
X82819602Y-69553274D01*
X82631244Y-69631295D01*
X82461726Y-69744563D01*
X82417789Y-69788500D01*
X76467817Y-69788500D01*
X76289505Y-69610188D01*
X76038095Y-69442201D01*
X75758743Y-69326489D01*
X75462184Y-69267500D01*
X75159816Y-69267500D01*
X74863257Y-69326489D01*
X74583905Y-69442201D01*
X74332495Y-69610188D01*
X74266056Y-69676627D01*
X74260502Y-69658320D01*
X74201537Y-69548006D01*
X74122185Y-69451315D01*
X74025494Y-69371963D01*
X73915180Y-69312998D01*
X73795482Y-69276688D01*
X73671000Y-69264428D01*
X72224500Y-69264428D01*
X72224500Y-65083374D01*
X73018231Y-65083374D01*
X73318411Y-65521828D01*
X73897356Y-65832296D01*
X74525746Y-66023852D01*
X75179431Y-66089134D01*
X75833293Y-66025634D01*
X76462203Y-65835792D01*
X76976399Y-65561849D01*
X80065500Y-65561849D01*
X80065500Y-65901151D01*
X80131695Y-66233935D01*
X80261541Y-66547409D01*
X80450047Y-66829529D01*
X80689971Y-67069453D01*
X80972091Y-67257959D01*
X81285565Y-67387805D01*
X81618349Y-67454000D01*
X81957651Y-67454000D01*
X82290435Y-67387805D01*
X82603909Y-67257959D01*
X82886029Y-67069453D01*
X83125953Y-66829529D01*
X83314459Y-66547409D01*
X83444305Y-66233935D01*
X83510500Y-65901151D01*
X83510500Y-65561849D01*
X83444305Y-65229065D01*
X83314459Y-64915591D01*
X83125953Y-64633471D01*
X82886029Y-64393547D01*
X82603909Y-64205041D01*
X82290435Y-64075195D01*
X81957651Y-64009000D01*
X81618349Y-64009000D01*
X81285565Y-64075195D01*
X80972091Y-64205041D01*
X80689971Y-64393547D01*
X80450047Y-64633471D01*
X80261541Y-64915591D01*
X80131695Y-65229065D01*
X80065500Y-65561849D01*
X76976399Y-65561849D01*
X77041992Y-65526904D01*
X77049589Y-65521828D01*
X77349769Y-65083374D01*
X75184000Y-62917605D01*
X73018231Y-65083374D01*
X72224500Y-65083374D01*
X72224500Y-64275780D01*
X72395096Y-64595992D01*
X72400172Y-64603589D01*
X72838626Y-64903769D01*
X75004395Y-62738000D01*
X75363605Y-62738000D01*
X77529374Y-64903769D01*
X77967828Y-64603589D01*
X78278296Y-64024644D01*
X78469852Y-63396254D01*
X78535134Y-62742569D01*
X78471634Y-62088707D01*
X78281792Y-61459797D01*
X77972904Y-60880008D01*
X77967828Y-60872411D01*
X77529374Y-60572231D01*
X75363605Y-62738000D01*
X75004395Y-62738000D01*
X72838626Y-60572231D01*
X72400172Y-60872411D01*
X72224500Y-61199995D01*
X72224500Y-59842000D01*
X73527029Y-59842000D01*
X73326008Y-59949096D01*
G36*
X80961000Y-76449514D02*
G01*
X80961000Y-76712486D01*
X81012304Y-76970405D01*
X81112939Y-77213359D01*
X81259038Y-77432013D01*
X81444987Y-77617962D01*
X81527657Y-77673200D01*
X81444987Y-77728438D01*
X81259038Y-77914387D01*
X81112939Y-78133041D01*
X81012304Y-78375995D01*
X80961000Y-78633914D01*
X80961000Y-78896886D01*
X81012304Y-79154805D01*
X81112939Y-79397759D01*
X81259038Y-79616413D01*
X81444987Y-79802362D01*
X81527657Y-79857600D01*
X81444987Y-79912838D01*
X81259038Y-80098787D01*
X81112939Y-80317441D01*
X81012304Y-80560395D01*
X80995077Y-80647000D01*
X76806902Y-80647000D01*
X76794731Y-80634830D01*
X76846000Y-80377084D01*
X76846000Y-80074716D01*
X76787011Y-79778157D01*
X76671299Y-79498805D01*
X76503312Y-79247395D01*
X76289505Y-79033588D01*
X76038095Y-78865601D01*
X75758743Y-78749889D01*
X75462184Y-78690900D01*
X75159816Y-78690900D01*
X74863257Y-78749889D01*
X74583905Y-78865601D01*
X74332495Y-79033588D01*
X74266056Y-79100027D01*
X74260502Y-79081720D01*
X74201537Y-78971406D01*
X74122185Y-78874715D01*
X74025494Y-78795363D01*
X73915180Y-78736398D01*
X73795482Y-78700088D01*
X73671000Y-78687828D01*
X72224500Y-78687828D01*
X72224500Y-77052272D01*
X73671000Y-77052272D01*
X73795482Y-77040012D01*
X73915180Y-77003702D01*
X74025494Y-76944737D01*
X74122185Y-76865385D01*
X74201537Y-76768694D01*
X74260502Y-76658380D01*
X74266056Y-76640073D01*
X74332495Y-76706512D01*
X74583905Y-76874499D01*
X74863257Y-76990211D01*
X75159816Y-77049200D01*
X75462184Y-77049200D01*
X75723435Y-76997234D01*
X75786723Y-77049173D01*
X75918752Y-77119745D01*
X76062013Y-77163202D01*
X76173666Y-77174199D01*
X76173674Y-77174199D01*
X76210999Y-77177875D01*
X76248324Y-77174199D01*
X78354981Y-77174199D01*
X78392303Y-77177875D01*
X78429625Y-77174199D01*
X78429636Y-77174199D01*
X78541289Y-77163202D01*
X78684550Y-77119745D01*
X78816579Y-77049173D01*
X78932304Y-76954200D01*
X78956106Y-76925197D01*
X79607104Y-76274200D01*
X80995873Y-76274200D01*
X80961000Y-76449514D01*
G37*
X80961000Y-76449514D02*
X80961000Y-76712486D01*
X81012304Y-76970405D01*
X81112939Y-77213359D01*
X81259038Y-77432013D01*
X81444987Y-77617962D01*
X81527657Y-77673200D01*
X81444987Y-77728438D01*
X81259038Y-77914387D01*
X81112939Y-78133041D01*
X81012304Y-78375995D01*
X80961000Y-78633914D01*
X80961000Y-78896886D01*
X81012304Y-79154805D01*
X81112939Y-79397759D01*
X81259038Y-79616413D01*
X81444987Y-79802362D01*
X81527657Y-79857600D01*
X81444987Y-79912838D01*
X81259038Y-80098787D01*
X81112939Y-80317441D01*
X81012304Y-80560395D01*
X80995077Y-80647000D01*
X76806902Y-80647000D01*
X76794731Y-80634830D01*
X76846000Y-80377084D01*
X76846000Y-80074716D01*
X76787011Y-79778157D01*
X76671299Y-79498805D01*
X76503312Y-79247395D01*
X76289505Y-79033588D01*
X76038095Y-78865601D01*
X75758743Y-78749889D01*
X75462184Y-78690900D01*
X75159816Y-78690900D01*
X74863257Y-78749889D01*
X74583905Y-78865601D01*
X74332495Y-79033588D01*
X74266056Y-79100027D01*
X74260502Y-79081720D01*
X74201537Y-78971406D01*
X74122185Y-78874715D01*
X74025494Y-78795363D01*
X73915180Y-78736398D01*
X73795482Y-78700088D01*
X73671000Y-78687828D01*
X72224500Y-78687828D01*
X72224500Y-77052272D01*
X73671000Y-77052272D01*
X73795482Y-77040012D01*
X73915180Y-77003702D01*
X74025494Y-76944737D01*
X74122185Y-76865385D01*
X74201537Y-76768694D01*
X74260502Y-76658380D01*
X74266056Y-76640073D01*
X74332495Y-76706512D01*
X74583905Y-76874499D01*
X74863257Y-76990211D01*
X75159816Y-77049200D01*
X75462184Y-77049200D01*
X75723435Y-76997234D01*
X75786723Y-77049173D01*
X75918752Y-77119745D01*
X76062013Y-77163202D01*
X76173666Y-77174199D01*
X76173674Y-77174199D01*
X76210999Y-77177875D01*
X76248324Y-77174199D01*
X78354981Y-77174199D01*
X78392303Y-77177875D01*
X78429625Y-77174199D01*
X78429636Y-77174199D01*
X78541289Y-77163202D01*
X78684550Y-77119745D01*
X78816579Y-77049173D01*
X78932304Y-76954200D01*
X78956106Y-76925197D01*
X79607104Y-76274200D01*
X80995873Y-76274200D01*
X80961000Y-76449514D01*
G36*
X104044646Y-71255321D02*
G01*
X103876870Y-71324817D01*
X103707352Y-71438085D01*
X103563189Y-71582248D01*
X103449921Y-71751766D01*
X103371900Y-71940124D01*
X103332126Y-72140083D01*
X103332126Y-72202221D01*
X102993998Y-72540349D01*
X102965000Y-72564147D01*
X102941202Y-72593145D01*
X102941201Y-72593146D01*
X102870026Y-72679872D01*
X102799454Y-72811902D01*
X102772186Y-72901796D01*
X102756646Y-72953028D01*
X102755998Y-72955163D01*
X102741324Y-73104148D01*
X102745001Y-73141480D01*
X102745001Y-75380846D01*
X102598256Y-75282795D01*
X102409898Y-75204774D01*
X102209939Y-75165000D01*
X102006061Y-75165000D01*
X101806102Y-75204774D01*
X101617744Y-75282795D01*
X101448226Y-75396063D01*
X101304063Y-75540226D01*
X101190795Y-75709744D01*
X101112774Y-75898102D01*
X101073000Y-76098061D01*
X101073000Y-76301939D01*
X101112774Y-76501898D01*
X101190795Y-76690256D01*
X101304063Y-76859774D01*
X101448226Y-77003937D01*
X101475001Y-77021827D01*
X101475000Y-78316359D01*
X101415860Y-78355875D01*
X101236875Y-78534860D01*
X101096247Y-78745324D01*
X100999381Y-78979179D01*
X100950000Y-79227439D01*
X100950000Y-79339000D01*
X100837998Y-79339000D01*
X100837998Y-79497748D01*
X100679250Y-79339000D01*
X100315000Y-79335928D01*
X100223000Y-79344989D01*
X100223000Y-67433674D01*
X104044646Y-71255321D01*
G37*
X104044646Y-71255321D02*
X103876870Y-71324817D01*
X103707352Y-71438085D01*
X103563189Y-71582248D01*
X103449921Y-71751766D01*
X103371900Y-71940124D01*
X103332126Y-72140083D01*
X103332126Y-72202221D01*
X102993998Y-72540349D01*
X102965000Y-72564147D01*
X102941202Y-72593145D01*
X102941201Y-72593146D01*
X102870026Y-72679872D01*
X102799454Y-72811902D01*
X102772186Y-72901796D01*
X102756646Y-72953028D01*
X102755998Y-72955163D01*
X102741324Y-73104148D01*
X102745001Y-73141480D01*
X102745001Y-75380846D01*
X102598256Y-75282795D01*
X102409898Y-75204774D01*
X102209939Y-75165000D01*
X102006061Y-75165000D01*
X101806102Y-75204774D01*
X101617744Y-75282795D01*
X101448226Y-75396063D01*
X101304063Y-75540226D01*
X101190795Y-75709744D01*
X101112774Y-75898102D01*
X101073000Y-76098061D01*
X101073000Y-76301939D01*
X101112774Y-76501898D01*
X101190795Y-76690256D01*
X101304063Y-76859774D01*
X101448226Y-77003937D01*
X101475001Y-77021827D01*
X101475000Y-78316359D01*
X101415860Y-78355875D01*
X101236875Y-78534860D01*
X101096247Y-78745324D01*
X100999381Y-78979179D01*
X100950000Y-79227439D01*
X100950000Y-79339000D01*
X100837998Y-79339000D01*
X100837998Y-79497748D01*
X100679250Y-79339000D01*
X100315000Y-79335928D01*
X100223000Y-79344989D01*
X100223000Y-67433674D01*
X104044646Y-71255321D01*
G36*
X96953000Y-75392307D02*
G01*
X96771359Y-75270939D01*
X96528405Y-75170304D01*
X96270486Y-75119000D01*
X96007514Y-75119000D01*
X95749595Y-75170304D01*
X95551500Y-75252358D01*
X95551500Y-67594165D01*
X95559411Y-67513846D01*
X95546997Y-67387805D01*
X95527843Y-67193330D01*
X95489279Y-67066203D01*
X95688982Y-66866500D01*
X96953001Y-66866500D01*
X96953000Y-75392307D01*
G37*
X96953000Y-75392307D02*
X96771359Y-75270939D01*
X96528405Y-75170304D01*
X96270486Y-75119000D01*
X96007514Y-75119000D01*
X95749595Y-75170304D01*
X95551500Y-75252358D01*
X95551500Y-67594165D01*
X95559411Y-67513846D01*
X95546997Y-67387805D01*
X95527843Y-67193330D01*
X95489279Y-67066203D01*
X95688982Y-66866500D01*
X96953001Y-66866500D01*
X96953000Y-75392307D01*
G36*
X89053001Y-62832483D02*
G01*
X89053000Y-64430518D01*
X88887018Y-64596500D01*
X87288982Y-64596500D01*
X87123000Y-64430518D01*
X87123000Y-62832482D01*
X87288982Y-62666500D01*
X88887018Y-62666500D01*
X89053001Y-62832483D01*
G37*
X89053001Y-62832483D02*
X89053000Y-64430518D01*
X88887018Y-64596500D01*
X87288982Y-64596500D01*
X87123000Y-64430518D01*
X87123000Y-62832482D01*
X87288982Y-62666500D01*
X88887018Y-62666500D01*
X89053001Y-62832483D01*
G36*
X93253001Y-62832483D02*
G01*
X93253000Y-64430518D01*
X93199205Y-64484313D01*
X93155989Y-64441097D01*
X93104778Y-64378696D01*
X92855816Y-64174379D01*
X92571779Y-64022558D01*
X92263580Y-63929067D01*
X92023386Y-63905410D01*
X92023383Y-63905410D01*
X91943064Y-63897499D01*
X91862745Y-63905410D01*
X91323000Y-63905410D01*
X91323000Y-62832482D01*
X91488982Y-62666500D01*
X93087018Y-62666500D01*
X93253001Y-62832483D01*
G37*
X93253001Y-62832483D02*
X93253000Y-64430518D01*
X93199205Y-64484313D01*
X93155989Y-64441097D01*
X93104778Y-64378696D01*
X92855816Y-64174379D01*
X92571779Y-64022558D01*
X92263580Y-63929067D01*
X92023386Y-63905410D01*
X92023383Y-63905410D01*
X91943064Y-63897499D01*
X91862745Y-63905410D01*
X91323000Y-63905410D01*
X91323000Y-62832482D01*
X91488982Y-62666500D01*
X93087018Y-62666500D01*
X93253001Y-62832483D01*
G36*
X85485565Y-59875195D02*
G01*
X85172091Y-60005041D01*
X84889971Y-60193547D01*
X84687018Y-60396500D01*
X83508894Y-60396500D01*
X83501312Y-60319518D01*
X83465002Y-60199820D01*
X83406037Y-60089506D01*
X83326685Y-59992815D01*
X83229994Y-59913463D01*
X83119680Y-59854498D01*
X83078480Y-59842000D01*
X85652447Y-59842000D01*
X85485565Y-59875195D01*
G37*
X85485565Y-59875195D02*
X85172091Y-60005041D01*
X84889971Y-60193547D01*
X84687018Y-60396500D01*
X83508894Y-60396500D01*
X83501312Y-60319518D01*
X83465002Y-60199820D01*
X83406037Y-60089506D01*
X83326685Y-59992815D01*
X83229994Y-59913463D01*
X83119680Y-59854498D01*
X83078480Y-59842000D01*
X85652447Y-59842000D01*
X85485565Y-59875195D01*
G36*
X89685565Y-59875195D02*
G01*
X89372091Y-60005041D01*
X89089971Y-60193547D01*
X88887018Y-60396500D01*
X87288982Y-60396500D01*
X87086029Y-60193547D01*
X86803909Y-60005041D01*
X86490435Y-59875195D01*
X86323553Y-59842000D01*
X89852447Y-59842000D01*
X89685565Y-59875195D01*
G37*
X89685565Y-59875195D02*
X89372091Y-60005041D01*
X89089971Y-60193547D01*
X88887018Y-60396500D01*
X87288982Y-60396500D01*
X87086029Y-60193547D01*
X86803909Y-60005041D01*
X86490435Y-59875195D01*
X86323553Y-59842000D01*
X89852447Y-59842000D01*
X89685565Y-59875195D01*
G36*
X93885565Y-59875195D02*
G01*
X93572091Y-60005041D01*
X93289971Y-60193547D01*
X93087018Y-60396500D01*
X91488982Y-60396500D01*
X91286029Y-60193547D01*
X91003909Y-60005041D01*
X90690435Y-59875195D01*
X90523553Y-59842000D01*
X94052447Y-59842000D01*
X93885565Y-59875195D01*
G37*
X93885565Y-59875195D02*
X93572091Y-60005041D01*
X93289971Y-60193547D01*
X93087018Y-60396500D01*
X91488982Y-60396500D01*
X91286029Y-60193547D01*
X91003909Y-60005041D01*
X90690435Y-59875195D01*
X90523553Y-59842000D01*
X94052447Y-59842000D01*
X93885565Y-59875195D01*
%TD*%
M02*
