%TF.GenerationSoftware,KiCad,Pcbnew,(5.1.4)-1*%
%TF.CreationDate,2020-09-17T17:05:27-05:00*%
%TF.ProjectId,mAcTX_Quadra_840av,6d416354-585f-4517-9561-6472615f3834,rev?*%
%TF.SameCoordinates,Original*%
%TF.FileFunction,Copper,L1,Top*%
%TF.FilePolarity,Positive*%
%FSLAX46Y46*%
G04 Gerber Fmt 4.6, Leading zero omitted, Abs format (unit mm)*
G04 Created by KiCad (PCBNEW (5.1.4)-1) date 2020-09-17 17:05:27*
%MOMM*%
%LPD*%
G04 APERTURE LIST*
%TA.AperFunction,EtchedComponent*%
%ADD10C,0.381000*%
%TD*%
%TA.AperFunction,ComponentPad*%
%ADD11O,1.400000X1.400000*%
%TD*%
%TA.AperFunction,ComponentPad*%
%ADD12C,1.400000*%
%TD*%
%TA.AperFunction,ComponentPad*%
%ADD13O,2.700000X3.300000*%
%TD*%
%TA.AperFunction,Conductor*%
%ADD14C,0.100000*%
%TD*%
%TA.AperFunction,ComponentPad*%
%ADD15C,2.700000*%
%TD*%
%TA.AperFunction,ComponentPad*%
%ADD16R,1.500000X1.500000*%
%TD*%
%TA.AperFunction,ComponentPad*%
%ADD17C,1.500000*%
%TD*%
%TA.AperFunction,ComponentPad*%
%ADD18C,1.000000*%
%TD*%
%TA.AperFunction,ComponentPad*%
%ADD19C,1.800000*%
%TD*%
%TA.AperFunction,ComponentPad*%
%ADD20R,1.800000X1.800000*%
%TD*%
%TA.AperFunction,ViaPad*%
%ADD21C,0.800000*%
%TD*%
%TA.AperFunction,ViaPad*%
%ADD22C,1.600000*%
%TD*%
%TA.AperFunction,Conductor*%
%ADD23C,1.000000*%
%TD*%
%TA.AperFunction,Conductor*%
%ADD24C,0.250000*%
%TD*%
%TA.AperFunction,Conductor*%
%ADD25C,2.000000*%
%TD*%
%TA.AperFunction,Conductor*%
%ADD26C,0.254000*%
%TD*%
G04 APERTURE END LIST*
D10*
%TO.C,REF\002A\002A*%
X51443000Y-110514000D02*
X51316000Y-110006000D01*
X52586000Y-108228000D02*
X51443000Y-110514000D01*
X51189000Y-108228000D02*
X52586000Y-108228000D01*
X52713000Y-105942000D02*
X51189000Y-108228000D01*
X52967000Y-106323000D02*
X52840000Y-105815000D01*
X53729000Y-105815000D02*
X52967000Y-106323000D01*
X51951000Y-107847000D02*
X53729000Y-105815000D01*
X53221000Y-107847000D02*
X51951000Y-107847000D01*
X51443000Y-110641000D02*
X53221000Y-107847000D01*
X51951000Y-110387000D02*
X51443000Y-110641000D01*
X51189000Y-111022000D02*
X51951000Y-110387000D01*
X51316000Y-110006000D02*
X51189000Y-111022000D01*
X51570000Y-108101000D02*
X52840000Y-108101000D01*
X52967000Y-106196000D02*
X51570000Y-108101000D01*
%TD*%
D11*
%TO.P,R2,2*%
%TO.N,PWR_ON*%
X106230000Y-79010000D03*
D12*
%TO.P,R2,1*%
%TO.N,+5VP*%
X106230000Y-86630000D03*
%TD*%
D13*
%TO.P,J2,22*%
%TO.N,+12V*%
X100990000Y-83180000D03*
%TO.P,J2,21*%
%TO.N,PFW*%
X96790000Y-83180000D03*
%TO.P,J2,20*%
%TO.N,GND*%
X92590000Y-83180000D03*
%TO.P,J2,19*%
X88390000Y-83180000D03*
%TO.P,J2,18*%
X84190000Y-83180000D03*
%TO.P,J2,17*%
X79990000Y-83180000D03*
%TO.P,J2,16*%
%TO.N,+5V*%
X75790000Y-83180000D03*
%TO.P,J2,15*%
X71590000Y-83180000D03*
%TO.P,J2,14*%
X67390000Y-83180000D03*
%TO.P,J2,13*%
X63190000Y-83180000D03*
%TO.P,J2,12*%
%TO.N,+5VP*%
X58990000Y-83180000D03*
%TO.P,J2,11*%
%TO.N,-12V*%
X100990000Y-77680000D03*
%TO.P,J2,10*%
%TO.N,N/C*%
X96790000Y-77680000D03*
%TO.P,J2,9*%
%TO.N,GND*%
X92590000Y-77680000D03*
%TO.P,J2,8*%
X88390000Y-77680000D03*
%TO.P,J2,7*%
X84190000Y-77680000D03*
%TO.P,J2,6*%
X79990000Y-77680000D03*
%TO.P,J2,5*%
X75790000Y-77680000D03*
%TO.P,J2,4*%
%TO.N,+5V*%
X71590000Y-77680000D03*
%TO.P,J2,3*%
X67390000Y-77680000D03*
%TO.P,J2,2*%
X63190000Y-77680000D03*
D14*
%TD*%
%TO.N,+5V*%
%TO.C,J2*%
G36*
X60114503Y-76031204D02*
G01*
X60138772Y-76034804D01*
X60162570Y-76040765D01*
X60185670Y-76049030D01*
X60207849Y-76059520D01*
X60228892Y-76072133D01*
X60248598Y-76086748D01*
X60266776Y-76103224D01*
X60283252Y-76121402D01*
X60297867Y-76141108D01*
X60310480Y-76162151D01*
X60320970Y-76184330D01*
X60329235Y-76207430D01*
X60335196Y-76231228D01*
X60338796Y-76255497D01*
X60340000Y-76280001D01*
X60340000Y-79079999D01*
X60338796Y-79104503D01*
X60335196Y-79128772D01*
X60329235Y-79152570D01*
X60320970Y-79175670D01*
X60310480Y-79197849D01*
X60297867Y-79218892D01*
X60283252Y-79238598D01*
X60266776Y-79256776D01*
X60248598Y-79273252D01*
X60228892Y-79287867D01*
X60207849Y-79300480D01*
X60185670Y-79310970D01*
X60162570Y-79319235D01*
X60138772Y-79325196D01*
X60114503Y-79328796D01*
X60089999Y-79330000D01*
X57890001Y-79330000D01*
X57865497Y-79328796D01*
X57841228Y-79325196D01*
X57817430Y-79319235D01*
X57794330Y-79310970D01*
X57772151Y-79300480D01*
X57751108Y-79287867D01*
X57731402Y-79273252D01*
X57713224Y-79256776D01*
X57696748Y-79238598D01*
X57682133Y-79218892D01*
X57669520Y-79197849D01*
X57659030Y-79175670D01*
X57650765Y-79152570D01*
X57644804Y-79128772D01*
X57641204Y-79104503D01*
X57640000Y-79079999D01*
X57640000Y-76280001D01*
X57641204Y-76255497D01*
X57644804Y-76231228D01*
X57650765Y-76207430D01*
X57659030Y-76184330D01*
X57669520Y-76162151D01*
X57682133Y-76141108D01*
X57696748Y-76121402D01*
X57713224Y-76103224D01*
X57731402Y-76086748D01*
X57751108Y-76072133D01*
X57772151Y-76059520D01*
X57794330Y-76049030D01*
X57817430Y-76040765D01*
X57841228Y-76034804D01*
X57865497Y-76031204D01*
X57890001Y-76030000D01*
X60089999Y-76030000D01*
X60114503Y-76031204D01*
X60114503Y-76031204D01*
G37*
D15*
%TO.P,J2,1*%
%TO.N,+5V*%
X58990000Y-77680000D03*
%TD*%
D13*
%TO.P,J1,24*%
%TO.N,GND*%
X103110000Y-110290000D03*
%TO.P,J1,23*%
%TO.N,+5V*%
X98910000Y-110290000D03*
%TO.P,J1,22*%
X94710000Y-110290000D03*
%TO.P,J1,21*%
X90510000Y-110290000D03*
%TO.P,J1,20*%
%TO.N,N/C*%
X86310000Y-110290000D03*
%TO.P,J1,19*%
%TO.N,GND*%
X82110000Y-110290000D03*
%TO.P,J1,18*%
X77910000Y-110290000D03*
%TO.P,J1,17*%
X73710000Y-110290000D03*
%TO.P,J1,16*%
%TO.N,PWR_ON*%
X69510000Y-110290000D03*
%TO.P,J1,15*%
%TO.N,GND*%
X65310000Y-110290000D03*
%TO.P,J1,14*%
%TO.N,-12V*%
X61110000Y-110290000D03*
%TO.P,J1,13*%
%TO.N,N/C*%
X56910000Y-110290000D03*
%TO.P,J1,12*%
X103110000Y-104790000D03*
%TO.P,J1,11*%
%TO.N,+12V*%
X98910000Y-104790000D03*
%TO.P,J1,10*%
X94710000Y-104790000D03*
%TO.P,J1,9*%
%TO.N,+5VP*%
X90510000Y-104790000D03*
%TO.P,J1,8*%
%TO.N,PWR_OK*%
X86310000Y-104790000D03*
%TO.P,J1,7*%
%TO.N,GND*%
X82110000Y-104790000D03*
%TO.P,J1,6*%
%TO.N,+5V*%
X77910000Y-104790000D03*
%TO.P,J1,5*%
%TO.N,GND*%
X73710000Y-104790000D03*
%TO.P,J1,4*%
%TO.N,+5V*%
X69510000Y-104790000D03*
%TO.P,J1,3*%
%TO.N,GND*%
X65310000Y-104790000D03*
%TO.P,J1,2*%
%TO.N,N/C*%
X61110000Y-104790000D03*
D14*
%TD*%
%TO.N,N/C*%
%TO.C,J1*%
G36*
X58034503Y-103141204D02*
G01*
X58058772Y-103144804D01*
X58082570Y-103150765D01*
X58105670Y-103159030D01*
X58127849Y-103169520D01*
X58148892Y-103182133D01*
X58168598Y-103196748D01*
X58186776Y-103213224D01*
X58203252Y-103231402D01*
X58217867Y-103251108D01*
X58230480Y-103272151D01*
X58240970Y-103294330D01*
X58249235Y-103317430D01*
X58255196Y-103341228D01*
X58258796Y-103365497D01*
X58260000Y-103390001D01*
X58260000Y-106189999D01*
X58258796Y-106214503D01*
X58255196Y-106238772D01*
X58249235Y-106262570D01*
X58240970Y-106285670D01*
X58230480Y-106307849D01*
X58217867Y-106328892D01*
X58203252Y-106348598D01*
X58186776Y-106366776D01*
X58168598Y-106383252D01*
X58148892Y-106397867D01*
X58127849Y-106410480D01*
X58105670Y-106420970D01*
X58082570Y-106429235D01*
X58058772Y-106435196D01*
X58034503Y-106438796D01*
X58009999Y-106440000D01*
X55810001Y-106440000D01*
X55785497Y-106438796D01*
X55761228Y-106435196D01*
X55737430Y-106429235D01*
X55714330Y-106420970D01*
X55692151Y-106410480D01*
X55671108Y-106397867D01*
X55651402Y-106383252D01*
X55633224Y-106366776D01*
X55616748Y-106348598D01*
X55602133Y-106328892D01*
X55589520Y-106307849D01*
X55579030Y-106285670D01*
X55570765Y-106262570D01*
X55564804Y-106238772D01*
X55561204Y-106214503D01*
X55560000Y-106189999D01*
X55560000Y-103390001D01*
X55561204Y-103365497D01*
X55564804Y-103341228D01*
X55570765Y-103317430D01*
X55579030Y-103294330D01*
X55589520Y-103272151D01*
X55602133Y-103251108D01*
X55616748Y-103231402D01*
X55633224Y-103213224D01*
X55651402Y-103196748D01*
X55671108Y-103182133D01*
X55692151Y-103169520D01*
X55714330Y-103159030D01*
X55737430Y-103150765D01*
X55761228Y-103144804D01*
X55785497Y-103141204D01*
X55810001Y-103140000D01*
X58009999Y-103140000D01*
X58034503Y-103141204D01*
X58034503Y-103141204D01*
G37*
D15*
%TO.P,J1,1*%
%TO.N,N/C*%
X56910000Y-104790000D03*
%TD*%
D16*
%TO.P,Q1,1*%
%TO.N,GND*%
X107380000Y-93690000D03*
D17*
%TO.P,Q1,3*%
%TO.N,PWR_ON*%
X107380000Y-88610000D03*
%TO.P,Q1,2*%
%TO.N,Net-(Q1-Pad2)*%
X104840000Y-91150000D03*
%TD*%
D18*
%TO.P,TP5,1*%
%TO.N,GND*%
X108490000Y-97240000D03*
%TD*%
%TO.P,TP4,1*%
%TO.N,PWR_ON*%
X108490000Y-101075250D03*
%TD*%
%TO.P,TP3,1*%
%TO.N,+5VP*%
X108490000Y-104910500D03*
%TD*%
%TO.P,TP2,1*%
%TO.N,Net-(Q1-Pad2)*%
X108490000Y-108745750D03*
%TD*%
%TO.P,TP1,1*%
%TO.N,PFW*%
X108490000Y-112581000D03*
%TD*%
D11*
%TO.P,R8,2*%
%TO.N,Net-(D6-Pad1)*%
X61806000Y-88690000D03*
D12*
%TO.P,R8,1*%
%TO.N,GND*%
X69426000Y-88690000D03*
%TD*%
D11*
%TO.P,R6,2*%
%TO.N,Net-(D4-Pad1)*%
X61806000Y-90890750D03*
D12*
%TO.P,R6,1*%
%TO.N,GND*%
X69426000Y-90890750D03*
%TD*%
D11*
%TO.P,R5,2*%
%TO.N,Net-(D3-Pad1)*%
X61806000Y-93091500D03*
D12*
%TO.P,R5,1*%
%TO.N,GND*%
X69426000Y-93091500D03*
%TD*%
D11*
%TO.P,R4,2*%
%TO.N,Net-(D2-Pad1)*%
X61806000Y-95292250D03*
D12*
%TO.P,R4,1*%
%TO.N,GND*%
X69426000Y-95292250D03*
%TD*%
D11*
%TO.P,R3,2*%
%TO.N,Net-(D1-Pad1)*%
X61806000Y-97493000D03*
D12*
%TO.P,R3,1*%
%TO.N,GND*%
X69426000Y-97493000D03*
%TD*%
D11*
%TO.P,R1,2*%
%TO.N,PFW*%
X108340000Y-86630000D03*
D12*
%TO.P,R1,1*%
%TO.N,Net-(Q1-Pad2)*%
X108340000Y-79010000D03*
%TD*%
D19*
%TO.P,D6,2*%
%TO.N,PWR_ON*%
X54221000Y-79472500D03*
D20*
%TO.P,D6,1*%
%TO.N,Net-(D6-Pad1)*%
X51681000Y-79472500D03*
%TD*%
D19*
%TO.P,D4,2*%
%TO.N,+5VP*%
X54221000Y-84547125D03*
D20*
%TO.P,D4,1*%
%TO.N,Net-(D4-Pad1)*%
X51681000Y-84547125D03*
%TD*%
D19*
%TO.P,D3,2*%
%TO.N,+5V*%
X54221000Y-89621750D03*
D20*
%TO.P,D3,1*%
%TO.N,Net-(D3-Pad1)*%
X51681000Y-89621750D03*
%TD*%
D19*
%TO.P,D2,2*%
%TO.N,+12V*%
X54221000Y-94696375D03*
D20*
%TO.P,D2,1*%
%TO.N,Net-(D2-Pad1)*%
X51681000Y-94696375D03*
%TD*%
D19*
%TO.P,D1,2*%
%TO.N,PWR_OK*%
X54221000Y-99771000D03*
D20*
%TO.P,D1,1*%
%TO.N,Net-(D1-Pad1)*%
X51681000Y-99771000D03*
%TD*%
D21*
%TO.N,GND*%
X104060000Y-92850000D03*
X104060000Y-98870000D03*
X107840000Y-91920000D03*
X104900000Y-89070000D03*
X56360000Y-97400000D03*
X56430000Y-92130000D03*
X56330000Y-88490000D03*
X55260000Y-82130000D03*
X51460000Y-87360000D03*
X51370000Y-82010000D03*
X51490000Y-92190000D03*
X64420000Y-95210000D03*
X94640000Y-100060000D03*
X106040000Y-83200000D03*
X108440000Y-81390000D03*
%TO.N,+5V*%
X67390000Y-89730000D03*
%TO.N,PWR_ON*%
X71200000Y-86820000D03*
X107255001Y-84555001D03*
%TO.N,+12V*%
X98910000Y-94370000D03*
D22*
%TO.N,+5VP*%
X61290000Y-100360000D03*
D21*
%TO.N,PWR_OK*%
X86120000Y-96670000D03*
%TD*%
D23*
%TO.N,+5V*%
X90510000Y-109990000D02*
X90510000Y-110290000D01*
X88160000Y-107640000D02*
X90510000Y-109990000D01*
X80460000Y-107640000D02*
X88160000Y-107640000D01*
X77910000Y-105090000D02*
X80460000Y-107640000D01*
X77910000Y-104790000D02*
X77910000Y-105090000D01*
D24*
X64139998Y-89730000D02*
X67390000Y-89730000D01*
X62831001Y-90520000D02*
X63349998Y-90520000D01*
X62831001Y-90398749D02*
X62831001Y-90520000D01*
X62298001Y-89865749D02*
X62831001Y-90398749D01*
X55493792Y-89621750D02*
X56312782Y-90440740D01*
X54221000Y-89621750D02*
X55493792Y-89621750D01*
X56312782Y-90440740D02*
X60780999Y-90440740D01*
X60780999Y-90440740D02*
X60780999Y-90398749D01*
X63349998Y-90520000D02*
X64139998Y-89730000D01*
X60780999Y-90398749D02*
X61313999Y-89865749D01*
X61313999Y-89865749D02*
X62298001Y-89865749D01*
%TO.N,PWR_ON*%
X69065010Y-84685009D02*
X71200000Y-86820000D01*
X69065010Y-82186189D02*
X69065010Y-84685009D01*
X68083811Y-81204990D02*
X69065010Y-82186189D01*
X54221000Y-79472500D02*
X55953490Y-81204990D01*
X55953490Y-81204990D02*
X68083811Y-81204990D01*
X106654992Y-85155010D02*
X104084990Y-85155010D01*
X107255001Y-84555001D02*
X106654992Y-85155010D01*
X102420000Y-86820000D02*
X71200000Y-86820000D01*
X104084990Y-85155010D02*
X102420000Y-86820000D01*
X105710000Y-98295250D02*
X107990001Y-100575251D01*
X106620000Y-92364998D02*
X105710000Y-93274998D01*
X106620000Y-89370000D02*
X106620000Y-92364998D01*
X107990001Y-100575251D02*
X108490000Y-101075250D01*
X105710000Y-93274998D02*
X105710000Y-98295250D01*
X107380000Y-88610000D02*
X106620000Y-89370000D01*
D25*
%TO.N,+12V*%
X94710000Y-104790000D02*
X98910000Y-104790000D01*
D24*
X98807249Y-94267249D02*
X98910000Y-94370000D01*
X55922918Y-94267249D02*
X98807249Y-94267249D01*
X55493792Y-94696375D02*
X55922918Y-94267249D01*
X54221000Y-94696375D02*
X55493792Y-94696375D01*
D25*
%TO.N,+5VP*%
X90510000Y-103160000D02*
X90510000Y-104790000D01*
X61290000Y-100360000D02*
X87710000Y-100360000D01*
X87710000Y-100360000D02*
X90510000Y-103160000D01*
D24*
X57622875Y-84547125D02*
X58990000Y-83180000D01*
X54221000Y-84547125D02*
X57622875Y-84547125D01*
X107990001Y-104410501D02*
X108490000Y-104910500D01*
X107990001Y-102140001D02*
X107990001Y-104410501D01*
X107400000Y-101550000D02*
X107990001Y-102140001D01*
X107400000Y-100760000D02*
X107400000Y-101550000D01*
X106230000Y-87619949D02*
X106030000Y-87819949D01*
X106230000Y-86630000D02*
X106230000Y-87619949D01*
X106030000Y-87819949D02*
X106030000Y-92318587D01*
X106030000Y-92318587D02*
X105259989Y-93088598D01*
X105259989Y-93088598D02*
X105259989Y-98619989D01*
X105259989Y-98619989D02*
X107400000Y-100760000D01*
X107990001Y-105410499D02*
X108490000Y-104910500D01*
X106050500Y-107350000D02*
X107990001Y-105410499D01*
X92770000Y-107350000D02*
X106050500Y-107350000D01*
X90510000Y-104790000D02*
X90510000Y-105090000D01*
X90510000Y-105090000D02*
X92770000Y-107350000D01*
%TO.N,PWR_OK*%
X84200000Y-94750000D02*
X86120000Y-96670000D01*
X69918001Y-96317251D02*
X71485252Y-94750000D01*
X68933999Y-96317251D02*
X69918001Y-96317251D01*
X71485252Y-94750000D02*
X84200000Y-94750000D01*
X68696748Y-96080000D02*
X68933999Y-96317251D01*
X54790000Y-100340000D02*
X58090000Y-100340000D01*
X62298001Y-96317251D02*
X62535252Y-96080000D01*
X58090000Y-100340000D02*
X60780999Y-97649001D01*
X60780999Y-97649001D02*
X60780999Y-97000999D01*
X54221000Y-99771000D02*
X54790000Y-100340000D01*
X60780999Y-97000999D02*
X61464747Y-96317251D01*
X62535252Y-96080000D02*
X68696748Y-96080000D01*
X61464747Y-96317251D02*
X62298001Y-96317251D01*
%TO.N,Net-(D1-Pad1)*%
X61106001Y-98192999D02*
X61806000Y-97493000D01*
X58302999Y-100996001D02*
X61106001Y-98192999D01*
X51756001Y-100996001D02*
X58302999Y-100996001D01*
X51681000Y-100921000D02*
X51756001Y-100996001D01*
X51681000Y-99771000D02*
X51681000Y-100921000D01*
%TO.N,Net-(D2-Pad1)*%
X61273750Y-94760000D02*
X61806000Y-95292250D01*
X56460000Y-94760000D02*
X61273750Y-94760000D01*
X55298624Y-95921376D02*
X56460000Y-94760000D01*
X51756001Y-95921376D02*
X55298624Y-95921376D01*
X51681000Y-94696375D02*
X51681000Y-95846375D01*
X51681000Y-95846375D02*
X51756001Y-95921376D01*
%TO.N,Net-(D3-Pad1)*%
X51681000Y-90771750D02*
X54069250Y-93160000D01*
X60816051Y-93091500D02*
X61806000Y-93091500D01*
X51681000Y-89621750D02*
X51681000Y-90771750D01*
X54069250Y-93160000D02*
X54930000Y-93160000D01*
X55570000Y-93800000D02*
X60107551Y-93800000D01*
X54930000Y-93160000D02*
X55570000Y-93800000D01*
X60107551Y-93800000D02*
X60816051Y-93091500D01*
%TO.N,Net-(D4-Pad1)*%
X60816051Y-90890750D02*
X61806000Y-90890750D01*
X53676998Y-90890750D02*
X60816051Y-90890750D01*
X52995999Y-90209751D02*
X53676998Y-90890750D01*
X52995999Y-87012124D02*
X52995999Y-90209751D01*
X51681000Y-85697125D02*
X52995999Y-87012124D01*
X51681000Y-84547125D02*
X51681000Y-85697125D01*
%TO.N,Net-(D6-Pad1)*%
X60816051Y-88690000D02*
X61806000Y-88690000D01*
X51681000Y-80622500D02*
X52995999Y-81937499D01*
X51681000Y-79472500D02*
X51681000Y-80622500D01*
X52995999Y-81937499D02*
X52995999Y-85135126D01*
X52995999Y-85135126D02*
X55040873Y-87180000D01*
X55040873Y-87180000D02*
X59306051Y-87180000D01*
X59306051Y-87180000D02*
X60816051Y-88690000D01*
%TO.N,PFW*%
X96790000Y-83180000D02*
X96790000Y-82820000D01*
X98405010Y-81204990D02*
X106234990Y-81204990D01*
X96790000Y-82820000D02*
X98405010Y-81204990D01*
X108340000Y-83310000D02*
X108340000Y-86630000D01*
X106234990Y-81204990D02*
X108340000Y-83310000D01*
X108989999Y-112081001D02*
X108490000Y-112581000D01*
X109315001Y-111755999D02*
X108989999Y-112081001D01*
X109315001Y-88594950D02*
X109315001Y-111755999D01*
X108340000Y-87619949D02*
X109315001Y-88594950D01*
X108340000Y-86630000D02*
X108340000Y-87619949D01*
%TD*%
D26*
%TO.N,GND*%
G36*
X59772148Y-100988715D02*
G01*
X59923969Y-101272752D01*
X60128286Y-101521714D01*
X60377248Y-101726031D01*
X60661285Y-101877852D01*
X60969484Y-101971343D01*
X61209678Y-101995000D01*
X87032762Y-101995000D01*
X88701095Y-103663334D01*
X88667226Y-103726699D01*
X88553722Y-104100873D01*
X88525000Y-104392491D01*
X88525000Y-105187510D01*
X88553722Y-105479128D01*
X88667226Y-105853302D01*
X88851547Y-106198143D01*
X89099603Y-106500398D01*
X89401858Y-106748453D01*
X89746699Y-106932774D01*
X90120873Y-107046278D01*
X90510000Y-107084604D01*
X90899128Y-107046278D01*
X91273302Y-106932774D01*
X91276346Y-106931147D01*
X92206201Y-107861003D01*
X92229999Y-107890001D01*
X92345724Y-107984974D01*
X92477753Y-108055546D01*
X92621014Y-108099003D01*
X92732667Y-108110000D01*
X92732675Y-108110000D01*
X92770000Y-108113676D01*
X92807325Y-108110000D01*
X94069416Y-108110000D01*
X93946698Y-108147226D01*
X93601857Y-108331547D01*
X93299602Y-108579602D01*
X93051547Y-108881857D01*
X92867226Y-109226699D01*
X92753722Y-109600873D01*
X92725000Y-109892491D01*
X92725000Y-110687510D01*
X92753722Y-110979128D01*
X92867226Y-111353302D01*
X93051547Y-111698143D01*
X93299603Y-112000398D01*
X93601858Y-112248453D01*
X93946699Y-112432774D01*
X94320873Y-112546278D01*
X94710000Y-112584604D01*
X95099128Y-112546278D01*
X95473302Y-112432774D01*
X95818143Y-112248453D01*
X96120398Y-112000398D01*
X96368453Y-111698143D01*
X96552774Y-111353302D01*
X96666278Y-110979127D01*
X96695000Y-110687509D01*
X96695000Y-109892490D01*
X96666278Y-109600872D01*
X96552774Y-109226698D01*
X96368453Y-108881857D01*
X96120398Y-108579602D01*
X95818143Y-108331547D01*
X95473301Y-108147226D01*
X95350583Y-108110000D01*
X98269416Y-108110000D01*
X98146698Y-108147226D01*
X97801857Y-108331547D01*
X97499602Y-108579602D01*
X97251547Y-108881857D01*
X97067226Y-109226699D01*
X96953722Y-109600873D01*
X96925000Y-109892491D01*
X96925000Y-110687510D01*
X96953722Y-110979128D01*
X97067226Y-111353302D01*
X97251547Y-111698143D01*
X97499603Y-112000398D01*
X97801858Y-112248453D01*
X98146699Y-112432774D01*
X98520873Y-112546278D01*
X98910000Y-112584604D01*
X99299128Y-112546278D01*
X99673302Y-112432774D01*
X100018143Y-112248453D01*
X100320398Y-112000398D01*
X100568453Y-111698143D01*
X100752774Y-111353302D01*
X100810217Y-111163936D01*
X101231449Y-111163936D01*
X101379514Y-111519395D01*
X101594081Y-111839138D01*
X101866904Y-112110877D01*
X102187498Y-112324170D01*
X102246751Y-112377464D01*
X102537000Y-112324030D01*
X102537000Y-110863000D01*
X103683000Y-110863000D01*
X103683000Y-112324030D01*
X103973249Y-112377464D01*
X104032502Y-112324170D01*
X104353096Y-112110877D01*
X104625919Y-111839138D01*
X104840486Y-111519395D01*
X104988551Y-111163936D01*
X104896456Y-110863000D01*
X103683000Y-110863000D01*
X102537000Y-110863000D01*
X101323544Y-110863000D01*
X101231449Y-111163936D01*
X100810217Y-111163936D01*
X100866278Y-110979127D01*
X100895000Y-110687509D01*
X100895000Y-109892490D01*
X100866278Y-109600872D01*
X100752774Y-109226698D01*
X100568453Y-108881857D01*
X100320398Y-108579602D01*
X100018143Y-108331547D01*
X99673301Y-108147226D01*
X99550583Y-108110000D01*
X102536998Y-108110000D01*
X102536998Y-108255970D01*
X102246751Y-108202536D01*
X102187498Y-108255830D01*
X101866904Y-108469123D01*
X101594081Y-108740862D01*
X101379514Y-109060605D01*
X101231449Y-109416064D01*
X101323544Y-109717000D01*
X102537000Y-109717000D01*
X102537000Y-109697000D01*
X103683000Y-109697000D01*
X103683000Y-109717000D01*
X104896456Y-109717000D01*
X104988551Y-109416064D01*
X104840486Y-109060605D01*
X104625919Y-108740862D01*
X104353096Y-108469123D01*
X104032502Y-108255830D01*
X103973249Y-108202536D01*
X103683002Y-108255970D01*
X103683002Y-108110000D01*
X106013178Y-108110000D01*
X106050500Y-108113676D01*
X106087822Y-108110000D01*
X106087833Y-108110000D01*
X106199486Y-108099003D01*
X106342747Y-108055546D01*
X106474776Y-107984974D01*
X106590501Y-107890001D01*
X106614304Y-107860997D01*
X108429802Y-106045500D01*
X108555002Y-106045500D01*
X108555002Y-107610750D01*
X108378212Y-107610750D01*
X108158933Y-107654367D01*
X107952376Y-107739926D01*
X107766480Y-107864138D01*
X107608388Y-108022230D01*
X107484176Y-108208126D01*
X107398617Y-108414683D01*
X107355000Y-108633962D01*
X107355000Y-108857538D01*
X107398617Y-109076817D01*
X107484176Y-109283374D01*
X107608388Y-109469270D01*
X107766480Y-109627362D01*
X107952376Y-109751574D01*
X108158933Y-109837133D01*
X108378212Y-109880750D01*
X108555002Y-109880750D01*
X108555002Y-111441197D01*
X108550199Y-111446000D01*
X108378212Y-111446000D01*
X108158933Y-111489617D01*
X107952376Y-111575176D01*
X107766480Y-111699388D01*
X107608388Y-111857480D01*
X107484176Y-112043376D01*
X107398617Y-112249933D01*
X107355000Y-112469212D01*
X107355000Y-112692788D01*
X107398617Y-112912067D01*
X107484176Y-113118624D01*
X107608388Y-113304520D01*
X107766480Y-113462612D01*
X107952376Y-113586824D01*
X108158933Y-113672383D01*
X108378212Y-113716000D01*
X108601788Y-113716000D01*
X108821067Y-113672383D01*
X109027624Y-113586824D01*
X109213520Y-113462612D01*
X109340001Y-113336131D01*
X109340001Y-116967711D01*
X109292330Y-117453894D01*
X109160512Y-117890497D01*
X108946399Y-118293186D01*
X108658150Y-118646613D01*
X108306739Y-118937327D01*
X107905564Y-119154240D01*
X107469886Y-119289106D01*
X106985664Y-119340000D01*
X53032279Y-119340000D01*
X52546106Y-119292330D01*
X52109503Y-119160512D01*
X51706814Y-118946399D01*
X51353387Y-118658150D01*
X51062673Y-118306739D01*
X50845760Y-117905564D01*
X50710894Y-117469886D01*
X50660000Y-116985664D01*
X50660000Y-116804495D01*
X51015000Y-116804495D01*
X51015000Y-117195505D01*
X51091282Y-117579003D01*
X51240915Y-117940250D01*
X51458149Y-118265364D01*
X51734636Y-118541851D01*
X52059750Y-118759085D01*
X52420997Y-118908718D01*
X52804495Y-118985000D01*
X53195505Y-118985000D01*
X53579003Y-118908718D01*
X53940250Y-118759085D01*
X54265364Y-118541851D01*
X54541851Y-118265364D01*
X54759085Y-117940250D01*
X54908718Y-117579003D01*
X54985000Y-117195505D01*
X54985000Y-116804495D01*
X105015000Y-116804495D01*
X105015000Y-117195505D01*
X105091282Y-117579003D01*
X105240915Y-117940250D01*
X105458149Y-118265364D01*
X105734636Y-118541851D01*
X106059750Y-118759085D01*
X106420997Y-118908718D01*
X106804495Y-118985000D01*
X107195505Y-118985000D01*
X107579003Y-118908718D01*
X107940250Y-118759085D01*
X108265364Y-118541851D01*
X108541851Y-118265364D01*
X108759085Y-117940250D01*
X108908718Y-117579003D01*
X108985000Y-117195505D01*
X108985000Y-116804495D01*
X108908718Y-116420997D01*
X108759085Y-116059750D01*
X108541851Y-115734636D01*
X108265364Y-115458149D01*
X107940250Y-115240915D01*
X107579003Y-115091282D01*
X107195505Y-115015000D01*
X106804495Y-115015000D01*
X106420997Y-115091282D01*
X106059750Y-115240915D01*
X105734636Y-115458149D01*
X105458149Y-115734636D01*
X105240915Y-116059750D01*
X105091282Y-116420997D01*
X105015000Y-116804495D01*
X54985000Y-116804495D01*
X54908718Y-116420997D01*
X54759085Y-116059750D01*
X54541851Y-115734636D01*
X54265364Y-115458149D01*
X53940250Y-115240915D01*
X53579003Y-115091282D01*
X53195505Y-115015000D01*
X52804495Y-115015000D01*
X52420997Y-115091282D01*
X52059750Y-115240915D01*
X51734636Y-115458149D01*
X51458149Y-115734636D01*
X51240915Y-116059750D01*
X51091282Y-116420997D01*
X51015000Y-116804495D01*
X50660000Y-116804495D01*
X50660000Y-111659649D01*
X50667608Y-111667144D01*
X50723931Y-111704169D01*
X50778963Y-111743062D01*
X50791774Y-111748766D01*
X50803488Y-111756466D01*
X50865938Y-111781785D01*
X50927515Y-111809201D01*
X50941191Y-111812295D01*
X50954183Y-111817563D01*
X51020378Y-111830213D01*
X51086114Y-111845088D01*
X51100130Y-111845455D01*
X51113902Y-111848087D01*
X51181292Y-111847581D01*
X51248667Y-111849345D01*
X51262487Y-111846970D01*
X51276505Y-111846865D01*
X51342500Y-111833221D01*
X51408928Y-111821807D01*
X51422018Y-111816782D01*
X51435747Y-111813944D01*
X51497822Y-111787684D01*
X51560736Y-111763533D01*
X51572592Y-111756053D01*
X51585507Y-111750589D01*
X51641263Y-111712725D01*
X51698260Y-111676763D01*
X51737921Y-111639126D01*
X52437274Y-111056333D01*
X52459574Y-111042295D01*
X52499575Y-111004415D01*
X52510626Y-110995206D01*
X52529048Y-110976505D01*
X52577644Y-110930486D01*
X52585995Y-110918696D01*
X52596144Y-110908393D01*
X52632951Y-110852401D01*
X52671632Y-110797790D01*
X52677521Y-110784601D01*
X52685467Y-110772513D01*
X52710637Y-110710430D01*
X52737927Y-110649309D01*
X52741132Y-110635214D01*
X52746563Y-110621818D01*
X52759133Y-110556044D01*
X52773980Y-110490747D01*
X52774374Y-110476297D01*
X52777087Y-110462099D01*
X52776584Y-110395142D01*
X52778407Y-110328199D01*
X52775974Y-110313948D01*
X52775865Y-110299494D01*
X52762307Y-110233913D01*
X52751037Y-110167909D01*
X52745872Y-110154412D01*
X52742945Y-110140253D01*
X52741821Y-110137595D01*
X52897796Y-109892491D01*
X54925000Y-109892491D01*
X54925000Y-110687510D01*
X54953722Y-110979128D01*
X55067226Y-111353302D01*
X55251547Y-111698143D01*
X55499603Y-112000398D01*
X55801858Y-112248453D01*
X56146699Y-112432774D01*
X56520873Y-112546278D01*
X56910000Y-112584604D01*
X57299128Y-112546278D01*
X57673302Y-112432774D01*
X58018143Y-112248453D01*
X58320398Y-112000398D01*
X58568453Y-111698143D01*
X58752774Y-111353302D01*
X58866278Y-110979127D01*
X58895000Y-110687509D01*
X58895000Y-109892491D01*
X59125000Y-109892491D01*
X59125000Y-110687510D01*
X59153722Y-110979128D01*
X59267226Y-111353302D01*
X59451547Y-111698143D01*
X59699603Y-112000398D01*
X60001858Y-112248453D01*
X60346699Y-112432774D01*
X60720873Y-112546278D01*
X61110000Y-112584604D01*
X61499128Y-112546278D01*
X61873302Y-112432774D01*
X62218143Y-112248453D01*
X62520398Y-112000398D01*
X62768453Y-111698143D01*
X62952774Y-111353302D01*
X63010217Y-111163936D01*
X63431449Y-111163936D01*
X63579514Y-111519395D01*
X63794081Y-111839138D01*
X64066904Y-112110877D01*
X64387498Y-112324170D01*
X64446751Y-112377464D01*
X64737000Y-112324030D01*
X64737000Y-110863000D01*
X65883000Y-110863000D01*
X65883000Y-112324030D01*
X66173249Y-112377464D01*
X66232502Y-112324170D01*
X66553096Y-112110877D01*
X66825919Y-111839138D01*
X67040486Y-111519395D01*
X67188551Y-111163936D01*
X67096456Y-110863000D01*
X65883000Y-110863000D01*
X64737000Y-110863000D01*
X63523544Y-110863000D01*
X63431449Y-111163936D01*
X63010217Y-111163936D01*
X63066278Y-110979127D01*
X63095000Y-110687509D01*
X63095000Y-109892491D01*
X67525000Y-109892491D01*
X67525000Y-110687510D01*
X67553722Y-110979128D01*
X67667226Y-111353302D01*
X67851547Y-111698143D01*
X68099603Y-112000398D01*
X68401858Y-112248453D01*
X68746699Y-112432774D01*
X69120873Y-112546278D01*
X69510000Y-112584604D01*
X69899128Y-112546278D01*
X70273302Y-112432774D01*
X70618143Y-112248453D01*
X70920398Y-112000398D01*
X71168453Y-111698143D01*
X71352774Y-111353302D01*
X71410217Y-111163936D01*
X71831449Y-111163936D01*
X71979514Y-111519395D01*
X72194081Y-111839138D01*
X72466904Y-112110877D01*
X72787498Y-112324170D01*
X72846751Y-112377464D01*
X73137000Y-112324030D01*
X73137000Y-110863000D01*
X74283000Y-110863000D01*
X74283000Y-112324030D01*
X74573249Y-112377464D01*
X74632502Y-112324170D01*
X74953096Y-112110877D01*
X75225919Y-111839138D01*
X75440486Y-111519395D01*
X75588551Y-111163936D01*
X76031449Y-111163936D01*
X76179514Y-111519395D01*
X76394081Y-111839138D01*
X76666904Y-112110877D01*
X76987498Y-112324170D01*
X77046751Y-112377464D01*
X77337000Y-112324030D01*
X77337000Y-110863000D01*
X78483000Y-110863000D01*
X78483000Y-112324030D01*
X78773249Y-112377464D01*
X78832502Y-112324170D01*
X79153096Y-112110877D01*
X79425919Y-111839138D01*
X79640486Y-111519395D01*
X79788551Y-111163936D01*
X80231449Y-111163936D01*
X80379514Y-111519395D01*
X80594081Y-111839138D01*
X80866904Y-112110877D01*
X81187498Y-112324170D01*
X81246751Y-112377464D01*
X81537000Y-112324030D01*
X81537000Y-110863000D01*
X82683000Y-110863000D01*
X82683000Y-112324030D01*
X82973249Y-112377464D01*
X83032502Y-112324170D01*
X83353096Y-112110877D01*
X83625919Y-111839138D01*
X83840486Y-111519395D01*
X83988551Y-111163936D01*
X83896456Y-110863000D01*
X82683000Y-110863000D01*
X81537000Y-110863000D01*
X80323544Y-110863000D01*
X80231449Y-111163936D01*
X79788551Y-111163936D01*
X79696456Y-110863000D01*
X78483000Y-110863000D01*
X77337000Y-110863000D01*
X76123544Y-110863000D01*
X76031449Y-111163936D01*
X75588551Y-111163936D01*
X75496456Y-110863000D01*
X74283000Y-110863000D01*
X73137000Y-110863000D01*
X71923544Y-110863000D01*
X71831449Y-111163936D01*
X71410217Y-111163936D01*
X71466278Y-110979127D01*
X71495000Y-110687509D01*
X71495000Y-109892490D01*
X71466278Y-109600872D01*
X71410218Y-109416064D01*
X71831449Y-109416064D01*
X71923544Y-109717000D01*
X73137000Y-109717000D01*
X73137000Y-108255970D01*
X74283000Y-108255970D01*
X74283000Y-109717000D01*
X75496456Y-109717000D01*
X75588551Y-109416064D01*
X76031449Y-109416064D01*
X76123544Y-109717000D01*
X77337000Y-109717000D01*
X77337000Y-108255970D01*
X78483000Y-108255970D01*
X78483000Y-109717000D01*
X79696456Y-109717000D01*
X79788551Y-109416064D01*
X79640486Y-109060605D01*
X79425919Y-108740862D01*
X79153096Y-108469123D01*
X78832502Y-108255830D01*
X78773249Y-108202536D01*
X78483000Y-108255970D01*
X77337000Y-108255970D01*
X77046751Y-108202536D01*
X76987498Y-108255830D01*
X76666904Y-108469123D01*
X76394081Y-108740862D01*
X76179514Y-109060605D01*
X76031449Y-109416064D01*
X75588551Y-109416064D01*
X75440486Y-109060605D01*
X75225919Y-108740862D01*
X74953096Y-108469123D01*
X74632502Y-108255830D01*
X74573249Y-108202536D01*
X74283000Y-108255970D01*
X73137000Y-108255970D01*
X72846751Y-108202536D01*
X72787498Y-108255830D01*
X72466904Y-108469123D01*
X72194081Y-108740862D01*
X71979514Y-109060605D01*
X71831449Y-109416064D01*
X71410218Y-109416064D01*
X71352774Y-109226698D01*
X71168453Y-108881857D01*
X70920398Y-108579602D01*
X70618143Y-108331547D01*
X70273301Y-108147226D01*
X69899127Y-108033722D01*
X69510000Y-107995396D01*
X69120872Y-108033722D01*
X68746698Y-108147226D01*
X68401857Y-108331547D01*
X68099602Y-108579602D01*
X67851547Y-108881857D01*
X67667226Y-109226699D01*
X67553722Y-109600873D01*
X67525000Y-109892491D01*
X63095000Y-109892491D01*
X63095000Y-109892490D01*
X63066278Y-109600872D01*
X63010218Y-109416064D01*
X63431449Y-109416064D01*
X63523544Y-109717000D01*
X64737000Y-109717000D01*
X64737000Y-108255970D01*
X65883000Y-108255970D01*
X65883000Y-109717000D01*
X67096456Y-109717000D01*
X67188551Y-109416064D01*
X67040486Y-109060605D01*
X66825919Y-108740862D01*
X66553096Y-108469123D01*
X66232502Y-108255830D01*
X66173249Y-108202536D01*
X65883000Y-108255970D01*
X64737000Y-108255970D01*
X64446751Y-108202536D01*
X64387498Y-108255830D01*
X64066904Y-108469123D01*
X63794081Y-108740862D01*
X63579514Y-109060605D01*
X63431449Y-109416064D01*
X63010218Y-109416064D01*
X62952774Y-109226698D01*
X62768453Y-108881857D01*
X62520398Y-108579602D01*
X62218143Y-108331547D01*
X61873301Y-108147226D01*
X61499127Y-108033722D01*
X61110000Y-107995396D01*
X60720872Y-108033722D01*
X60346698Y-108147226D01*
X60001857Y-108331547D01*
X59699602Y-108579602D01*
X59451547Y-108881857D01*
X59267226Y-109226699D01*
X59153722Y-109600873D01*
X59125000Y-109892491D01*
X58895000Y-109892491D01*
X58895000Y-109892490D01*
X58866278Y-109600872D01*
X58752774Y-109226698D01*
X58568453Y-108881857D01*
X58320398Y-108579602D01*
X58018143Y-108331547D01*
X57673301Y-108147226D01*
X57299127Y-108033722D01*
X56910000Y-107995396D01*
X56520872Y-108033722D01*
X56146698Y-108147226D01*
X55801857Y-108331547D01*
X55499602Y-108579602D01*
X55251547Y-108881857D01*
X55067226Y-109226699D01*
X54953722Y-109600873D01*
X54925000Y-109892491D01*
X52897796Y-109892491D01*
X53890709Y-108332200D01*
X53910699Y-108307842D01*
X53934260Y-108263762D01*
X53939214Y-108255978D01*
X53953362Y-108228026D01*
X53987353Y-108164434D01*
X53990051Y-108155540D01*
X53994246Y-108147252D01*
X54013628Y-108077817D01*
X54034556Y-108008826D01*
X54035467Y-107999581D01*
X54037965Y-107990630D01*
X54043428Y-107918746D01*
X54050494Y-107847000D01*
X54049583Y-107837751D01*
X54050287Y-107828488D01*
X54041625Y-107756948D01*
X54034556Y-107685174D01*
X54031857Y-107676278D01*
X54030741Y-107667058D01*
X54008293Y-107598595D01*
X53987353Y-107529566D01*
X53982970Y-107521366D01*
X53980077Y-107512543D01*
X53944688Y-107449747D01*
X53910699Y-107386158D01*
X53904807Y-107378978D01*
X53900243Y-107370880D01*
X53853273Y-107316184D01*
X53807541Y-107260459D01*
X53800356Y-107254562D01*
X53794304Y-107247515D01*
X53737578Y-107203042D01*
X53681842Y-107157301D01*
X53673647Y-107152921D01*
X53666335Y-107147188D01*
X53662106Y-107145048D01*
X54305089Y-106410210D01*
X54314927Y-106402154D01*
X54358557Y-106349104D01*
X54376956Y-106328077D01*
X54384303Y-106317799D01*
X54418217Y-106276564D01*
X54431488Y-106251797D01*
X54447826Y-106228944D01*
X54469807Y-106180287D01*
X54495019Y-106133236D01*
X54503201Y-106106367D01*
X54514771Y-106080754D01*
X54526837Y-106028739D01*
X54542385Y-105977678D01*
X54545168Y-105949720D01*
X54551517Y-105922352D01*
X54553204Y-105868993D01*
X54558493Y-105815868D01*
X54555769Y-105787908D01*
X54556657Y-105759823D01*
X54547901Y-105707157D01*
X54542724Y-105654025D01*
X54534595Y-105627126D01*
X54529988Y-105599416D01*
X54511131Y-105549482D01*
X54495684Y-105498368D01*
X54482466Y-105473576D01*
X54472540Y-105447293D01*
X54444294Y-105401984D01*
X54419180Y-105354880D01*
X54401381Y-105333145D01*
X54386516Y-105309300D01*
X54349980Y-105270379D01*
X54316154Y-105229073D01*
X54294449Y-105211222D01*
X54275225Y-105190743D01*
X54231806Y-105159703D01*
X54190563Y-105125783D01*
X54165796Y-105112511D01*
X54142943Y-105096174D01*
X54094286Y-105074193D01*
X54047235Y-105048981D01*
X54020364Y-105040799D01*
X53994753Y-105029229D01*
X53942748Y-105017165D01*
X53891677Y-105001614D01*
X53863711Y-104998830D01*
X53836350Y-104992483D01*
X53782997Y-104990796D01*
X53729867Y-104985507D01*
X53701907Y-104988231D01*
X53673822Y-104987343D01*
X53621156Y-104996099D01*
X53568024Y-105001276D01*
X53541125Y-105009405D01*
X53513415Y-105014012D01*
X53463481Y-105032869D01*
X53412367Y-105048316D01*
X53387575Y-105061535D01*
X53361292Y-105071460D01*
X53315984Y-105099705D01*
X53304837Y-105105648D01*
X53286153Y-105118104D01*
X53266771Y-105103715D01*
X53119805Y-105034124D01*
X52962088Y-104994540D01*
X52799678Y-104986487D01*
X52638819Y-105010273D01*
X52485690Y-105064984D01*
X52346176Y-105148518D01*
X52225642Y-105257665D01*
X52194509Y-105299602D01*
X52125845Y-105356074D01*
X52048637Y-105450353D01*
X50660000Y-107533310D01*
X50660000Y-103390001D01*
X54921928Y-103390001D01*
X54921928Y-106189999D01*
X54938992Y-106363253D01*
X54989529Y-106529850D01*
X55071595Y-106683386D01*
X55182039Y-106817961D01*
X55316614Y-106928405D01*
X55470150Y-107010471D01*
X55636747Y-107061008D01*
X55810001Y-107078072D01*
X58009999Y-107078072D01*
X58183253Y-107061008D01*
X58349850Y-107010471D01*
X58503386Y-106928405D01*
X58637961Y-106817961D01*
X58748405Y-106683386D01*
X58830471Y-106529850D01*
X58881008Y-106363253D01*
X58898072Y-106189999D01*
X58898072Y-104392491D01*
X59125000Y-104392491D01*
X59125000Y-105187510D01*
X59153722Y-105479128D01*
X59267226Y-105853302D01*
X59451547Y-106198143D01*
X59699603Y-106500398D01*
X60001858Y-106748453D01*
X60346699Y-106932774D01*
X60720873Y-107046278D01*
X61110000Y-107084604D01*
X61499128Y-107046278D01*
X61873302Y-106932774D01*
X62218143Y-106748453D01*
X62520398Y-106500398D01*
X62768453Y-106198143D01*
X62952774Y-105853302D01*
X63010217Y-105663936D01*
X63431449Y-105663936D01*
X63579514Y-106019395D01*
X63794081Y-106339138D01*
X64066904Y-106610877D01*
X64387498Y-106824170D01*
X64446751Y-106877464D01*
X64737000Y-106824030D01*
X64737000Y-105363000D01*
X65883000Y-105363000D01*
X65883000Y-106824030D01*
X66173249Y-106877464D01*
X66232502Y-106824170D01*
X66553096Y-106610877D01*
X66825919Y-106339138D01*
X67040486Y-106019395D01*
X67188551Y-105663936D01*
X67096456Y-105363000D01*
X65883000Y-105363000D01*
X64737000Y-105363000D01*
X63523544Y-105363000D01*
X63431449Y-105663936D01*
X63010217Y-105663936D01*
X63066278Y-105479127D01*
X63095000Y-105187509D01*
X63095000Y-104392491D01*
X67525000Y-104392491D01*
X67525000Y-105187510D01*
X67553722Y-105479128D01*
X67667226Y-105853302D01*
X67851547Y-106198143D01*
X68099603Y-106500398D01*
X68401858Y-106748453D01*
X68746699Y-106932774D01*
X69120873Y-107046278D01*
X69510000Y-107084604D01*
X69899128Y-107046278D01*
X70273302Y-106932774D01*
X70618143Y-106748453D01*
X70920398Y-106500398D01*
X71168453Y-106198143D01*
X71352774Y-105853302D01*
X71410217Y-105663936D01*
X71831449Y-105663936D01*
X71979514Y-106019395D01*
X72194081Y-106339138D01*
X72466904Y-106610877D01*
X72787498Y-106824170D01*
X72846751Y-106877464D01*
X73137000Y-106824030D01*
X73137000Y-105363000D01*
X74283000Y-105363000D01*
X74283000Y-106824030D01*
X74573249Y-106877464D01*
X74632502Y-106824170D01*
X74953096Y-106610877D01*
X75225919Y-106339138D01*
X75440486Y-106019395D01*
X75588551Y-105663936D01*
X75496456Y-105363000D01*
X74283000Y-105363000D01*
X73137000Y-105363000D01*
X71923544Y-105363000D01*
X71831449Y-105663936D01*
X71410217Y-105663936D01*
X71466278Y-105479127D01*
X71495000Y-105187509D01*
X71495000Y-104392491D01*
X75925000Y-104392491D01*
X75925000Y-105187510D01*
X75953722Y-105479128D01*
X76067226Y-105853302D01*
X76251547Y-106198143D01*
X76499603Y-106500398D01*
X76801858Y-106748453D01*
X77146699Y-106932774D01*
X77520873Y-107046278D01*
X77910000Y-107084604D01*
X78264552Y-107049684D01*
X79618013Y-108403146D01*
X79653551Y-108446449D01*
X79696854Y-108481987D01*
X79696856Y-108481989D01*
X79826377Y-108588284D01*
X80023553Y-108693676D01*
X80237501Y-108758577D01*
X80460000Y-108780491D01*
X80515752Y-108775000D01*
X80571172Y-108775000D01*
X80379514Y-109060605D01*
X80231449Y-109416064D01*
X80323544Y-109717000D01*
X81537000Y-109717000D01*
X81537000Y-109697000D01*
X82683000Y-109697000D01*
X82683000Y-109717000D01*
X83896456Y-109717000D01*
X83988551Y-109416064D01*
X83840486Y-109060605D01*
X83648828Y-108775000D01*
X84739243Y-108775000D01*
X84651547Y-108881857D01*
X84467226Y-109226699D01*
X84353722Y-109600873D01*
X84325000Y-109892491D01*
X84325000Y-110687510D01*
X84353722Y-110979128D01*
X84467226Y-111353302D01*
X84651547Y-111698143D01*
X84899603Y-112000398D01*
X85201858Y-112248453D01*
X85546699Y-112432774D01*
X85920873Y-112546278D01*
X86310000Y-112584604D01*
X86699128Y-112546278D01*
X87073302Y-112432774D01*
X87418143Y-112248453D01*
X87720398Y-112000398D01*
X87968453Y-111698143D01*
X88152774Y-111353302D01*
X88266278Y-110979127D01*
X88295000Y-110687509D01*
X88295000Y-109892490D01*
X88266278Y-109600872D01*
X88157654Y-109242785D01*
X88550317Y-109635448D01*
X88525000Y-109892491D01*
X88525000Y-110687510D01*
X88553722Y-110979128D01*
X88667226Y-111353302D01*
X88851547Y-111698143D01*
X89099603Y-112000398D01*
X89401858Y-112248453D01*
X89746699Y-112432774D01*
X90120873Y-112546278D01*
X90510000Y-112584604D01*
X90899128Y-112546278D01*
X91273302Y-112432774D01*
X91618143Y-112248453D01*
X91920398Y-112000398D01*
X92168453Y-111698143D01*
X92352774Y-111353302D01*
X92466278Y-110979127D01*
X92495000Y-110687509D01*
X92495000Y-109892490D01*
X92466278Y-109600872D01*
X92352774Y-109226698D01*
X92168453Y-108881857D01*
X91920398Y-108579602D01*
X91618143Y-108331547D01*
X91273301Y-108147226D01*
X90899127Y-108033722D01*
X90510000Y-107995396D01*
X90155448Y-108030317D01*
X89001996Y-106876865D01*
X88966449Y-106833551D01*
X88793623Y-106691716D01*
X88596447Y-106586324D01*
X88382499Y-106521423D01*
X88215752Y-106505000D01*
X88215751Y-106505000D01*
X88160000Y-106499509D01*
X88104249Y-106505000D01*
X87714790Y-106505000D01*
X87720398Y-106500398D01*
X87968453Y-106198143D01*
X88152774Y-105853302D01*
X88266278Y-105479127D01*
X88295000Y-105187509D01*
X88295000Y-104392490D01*
X88266278Y-104100872D01*
X88152774Y-103726698D01*
X87968453Y-103381857D01*
X87720398Y-103079602D01*
X87418143Y-102831547D01*
X87073301Y-102647226D01*
X86699127Y-102533722D01*
X86310000Y-102495396D01*
X85920872Y-102533722D01*
X85546698Y-102647226D01*
X85201857Y-102831547D01*
X84899602Y-103079602D01*
X84651547Y-103381857D01*
X84467226Y-103726699D01*
X84353722Y-104100873D01*
X84325000Y-104392491D01*
X84325000Y-105187510D01*
X84353722Y-105479128D01*
X84467226Y-105853302D01*
X84651547Y-106198143D01*
X84899603Y-106500398D01*
X84905211Y-106505000D01*
X83459395Y-106505000D01*
X83625919Y-106339138D01*
X83840486Y-106019395D01*
X83988551Y-105663936D01*
X83896456Y-105363000D01*
X82683000Y-105363000D01*
X82683000Y-105383000D01*
X81537000Y-105383000D01*
X81537000Y-105363000D01*
X80323544Y-105363000D01*
X80231449Y-105663936D01*
X80333099Y-105907967D01*
X79869683Y-105444551D01*
X79895000Y-105187509D01*
X79895000Y-104392490D01*
X79866278Y-104100872D01*
X79810218Y-103916064D01*
X80231449Y-103916064D01*
X80323544Y-104217000D01*
X81537000Y-104217000D01*
X81537000Y-102755970D01*
X82683000Y-102755970D01*
X82683000Y-104217000D01*
X83896456Y-104217000D01*
X83988551Y-103916064D01*
X83840486Y-103560605D01*
X83625919Y-103240862D01*
X83353096Y-102969123D01*
X83032502Y-102755830D01*
X82973249Y-102702536D01*
X82683000Y-102755970D01*
X81537000Y-102755970D01*
X81246751Y-102702536D01*
X81187498Y-102755830D01*
X80866904Y-102969123D01*
X80594081Y-103240862D01*
X80379514Y-103560605D01*
X80231449Y-103916064D01*
X79810218Y-103916064D01*
X79752774Y-103726698D01*
X79568453Y-103381857D01*
X79320398Y-103079602D01*
X79018143Y-102831547D01*
X78673301Y-102647226D01*
X78299127Y-102533722D01*
X77910000Y-102495396D01*
X77520872Y-102533722D01*
X77146698Y-102647226D01*
X76801857Y-102831547D01*
X76499602Y-103079602D01*
X76251547Y-103381857D01*
X76067226Y-103726699D01*
X75953722Y-104100873D01*
X75925000Y-104392491D01*
X71495000Y-104392491D01*
X71495000Y-104392490D01*
X71466278Y-104100872D01*
X71410218Y-103916064D01*
X71831449Y-103916064D01*
X71923544Y-104217000D01*
X73137000Y-104217000D01*
X73137000Y-102755970D01*
X74283000Y-102755970D01*
X74283000Y-104217000D01*
X75496456Y-104217000D01*
X75588551Y-103916064D01*
X75440486Y-103560605D01*
X75225919Y-103240862D01*
X74953096Y-102969123D01*
X74632502Y-102755830D01*
X74573249Y-102702536D01*
X74283000Y-102755970D01*
X73137000Y-102755970D01*
X72846751Y-102702536D01*
X72787498Y-102755830D01*
X72466904Y-102969123D01*
X72194081Y-103240862D01*
X71979514Y-103560605D01*
X71831449Y-103916064D01*
X71410218Y-103916064D01*
X71352774Y-103726698D01*
X71168453Y-103381857D01*
X70920398Y-103079602D01*
X70618143Y-102831547D01*
X70273301Y-102647226D01*
X69899127Y-102533722D01*
X69510000Y-102495396D01*
X69120872Y-102533722D01*
X68746698Y-102647226D01*
X68401857Y-102831547D01*
X68099602Y-103079602D01*
X67851547Y-103381857D01*
X67667226Y-103726699D01*
X67553722Y-104100873D01*
X67525000Y-104392491D01*
X63095000Y-104392491D01*
X63095000Y-104392490D01*
X63066278Y-104100872D01*
X63010218Y-103916064D01*
X63431449Y-103916064D01*
X63523544Y-104217000D01*
X64737000Y-104217000D01*
X64737000Y-102755970D01*
X65883000Y-102755970D01*
X65883000Y-104217000D01*
X67096456Y-104217000D01*
X67188551Y-103916064D01*
X67040486Y-103560605D01*
X66825919Y-103240862D01*
X66553096Y-102969123D01*
X66232502Y-102755830D01*
X66173249Y-102702536D01*
X65883000Y-102755970D01*
X64737000Y-102755970D01*
X64446751Y-102702536D01*
X64387498Y-102755830D01*
X64066904Y-102969123D01*
X63794081Y-103240862D01*
X63579514Y-103560605D01*
X63431449Y-103916064D01*
X63010218Y-103916064D01*
X62952774Y-103726698D01*
X62768453Y-103381857D01*
X62520398Y-103079602D01*
X62218143Y-102831547D01*
X61873301Y-102647226D01*
X61499127Y-102533722D01*
X61110000Y-102495396D01*
X60720872Y-102533722D01*
X60346698Y-102647226D01*
X60001857Y-102831547D01*
X59699602Y-103079602D01*
X59451547Y-103381857D01*
X59267226Y-103726699D01*
X59153722Y-104100873D01*
X59125000Y-104392491D01*
X58898072Y-104392491D01*
X58898072Y-103390001D01*
X58881008Y-103216747D01*
X58830471Y-103050150D01*
X58748405Y-102896614D01*
X58637961Y-102762039D01*
X58503386Y-102651595D01*
X58349850Y-102569529D01*
X58183253Y-102518992D01*
X58009999Y-102501928D01*
X55810001Y-102501928D01*
X55636747Y-102518992D01*
X55470150Y-102569529D01*
X55316614Y-102651595D01*
X55182039Y-102762039D01*
X55071595Y-102896614D01*
X54989529Y-103050150D01*
X54938992Y-103216747D01*
X54921928Y-103390001D01*
X50660000Y-103390001D01*
X50660000Y-101297155D01*
X50781000Y-101309072D01*
X51026674Y-101309072D01*
X51046026Y-101345276D01*
X51117201Y-101432002D01*
X51141000Y-101461001D01*
X51169996Y-101484797D01*
X51192200Y-101507002D01*
X51216000Y-101536002D01*
X51331725Y-101630975D01*
X51463754Y-101701547D01*
X51607015Y-101745004D01*
X51718668Y-101756001D01*
X51718678Y-101756001D01*
X51756000Y-101759677D01*
X51793323Y-101756001D01*
X58265677Y-101756001D01*
X58302999Y-101759677D01*
X58340321Y-101756001D01*
X58340332Y-101756001D01*
X58451985Y-101745004D01*
X58595246Y-101701547D01*
X58727275Y-101630975D01*
X58843000Y-101536002D01*
X58866803Y-101506998D01*
X59682062Y-100691740D01*
X59772148Y-100988715D01*
X59772148Y-100988715D01*
G37*
X59772148Y-100988715D02*
X59923969Y-101272752D01*
X60128286Y-101521714D01*
X60377248Y-101726031D01*
X60661285Y-101877852D01*
X60969484Y-101971343D01*
X61209678Y-101995000D01*
X87032762Y-101995000D01*
X88701095Y-103663334D01*
X88667226Y-103726699D01*
X88553722Y-104100873D01*
X88525000Y-104392491D01*
X88525000Y-105187510D01*
X88553722Y-105479128D01*
X88667226Y-105853302D01*
X88851547Y-106198143D01*
X89099603Y-106500398D01*
X89401858Y-106748453D01*
X89746699Y-106932774D01*
X90120873Y-107046278D01*
X90510000Y-107084604D01*
X90899128Y-107046278D01*
X91273302Y-106932774D01*
X91276346Y-106931147D01*
X92206201Y-107861003D01*
X92229999Y-107890001D01*
X92345724Y-107984974D01*
X92477753Y-108055546D01*
X92621014Y-108099003D01*
X92732667Y-108110000D01*
X92732675Y-108110000D01*
X92770000Y-108113676D01*
X92807325Y-108110000D01*
X94069416Y-108110000D01*
X93946698Y-108147226D01*
X93601857Y-108331547D01*
X93299602Y-108579602D01*
X93051547Y-108881857D01*
X92867226Y-109226699D01*
X92753722Y-109600873D01*
X92725000Y-109892491D01*
X92725000Y-110687510D01*
X92753722Y-110979128D01*
X92867226Y-111353302D01*
X93051547Y-111698143D01*
X93299603Y-112000398D01*
X93601858Y-112248453D01*
X93946699Y-112432774D01*
X94320873Y-112546278D01*
X94710000Y-112584604D01*
X95099128Y-112546278D01*
X95473302Y-112432774D01*
X95818143Y-112248453D01*
X96120398Y-112000398D01*
X96368453Y-111698143D01*
X96552774Y-111353302D01*
X96666278Y-110979127D01*
X96695000Y-110687509D01*
X96695000Y-109892490D01*
X96666278Y-109600872D01*
X96552774Y-109226698D01*
X96368453Y-108881857D01*
X96120398Y-108579602D01*
X95818143Y-108331547D01*
X95473301Y-108147226D01*
X95350583Y-108110000D01*
X98269416Y-108110000D01*
X98146698Y-108147226D01*
X97801857Y-108331547D01*
X97499602Y-108579602D01*
X97251547Y-108881857D01*
X97067226Y-109226699D01*
X96953722Y-109600873D01*
X96925000Y-109892491D01*
X96925000Y-110687510D01*
X96953722Y-110979128D01*
X97067226Y-111353302D01*
X97251547Y-111698143D01*
X97499603Y-112000398D01*
X97801858Y-112248453D01*
X98146699Y-112432774D01*
X98520873Y-112546278D01*
X98910000Y-112584604D01*
X99299128Y-112546278D01*
X99673302Y-112432774D01*
X100018143Y-112248453D01*
X100320398Y-112000398D01*
X100568453Y-111698143D01*
X100752774Y-111353302D01*
X100810217Y-111163936D01*
X101231449Y-111163936D01*
X101379514Y-111519395D01*
X101594081Y-111839138D01*
X101866904Y-112110877D01*
X102187498Y-112324170D01*
X102246751Y-112377464D01*
X102537000Y-112324030D01*
X102537000Y-110863000D01*
X103683000Y-110863000D01*
X103683000Y-112324030D01*
X103973249Y-112377464D01*
X104032502Y-112324170D01*
X104353096Y-112110877D01*
X104625919Y-111839138D01*
X104840486Y-111519395D01*
X104988551Y-111163936D01*
X104896456Y-110863000D01*
X103683000Y-110863000D01*
X102537000Y-110863000D01*
X101323544Y-110863000D01*
X101231449Y-111163936D01*
X100810217Y-111163936D01*
X100866278Y-110979127D01*
X100895000Y-110687509D01*
X100895000Y-109892490D01*
X100866278Y-109600872D01*
X100752774Y-109226698D01*
X100568453Y-108881857D01*
X100320398Y-108579602D01*
X100018143Y-108331547D01*
X99673301Y-108147226D01*
X99550583Y-108110000D01*
X102536998Y-108110000D01*
X102536998Y-108255970D01*
X102246751Y-108202536D01*
X102187498Y-108255830D01*
X101866904Y-108469123D01*
X101594081Y-108740862D01*
X101379514Y-109060605D01*
X101231449Y-109416064D01*
X101323544Y-109717000D01*
X102537000Y-109717000D01*
X102537000Y-109697000D01*
X103683000Y-109697000D01*
X103683000Y-109717000D01*
X104896456Y-109717000D01*
X104988551Y-109416064D01*
X104840486Y-109060605D01*
X104625919Y-108740862D01*
X104353096Y-108469123D01*
X104032502Y-108255830D01*
X103973249Y-108202536D01*
X103683002Y-108255970D01*
X103683002Y-108110000D01*
X106013178Y-108110000D01*
X106050500Y-108113676D01*
X106087822Y-108110000D01*
X106087833Y-108110000D01*
X106199486Y-108099003D01*
X106342747Y-108055546D01*
X106474776Y-107984974D01*
X106590501Y-107890001D01*
X106614304Y-107860997D01*
X108429802Y-106045500D01*
X108555002Y-106045500D01*
X108555002Y-107610750D01*
X108378212Y-107610750D01*
X108158933Y-107654367D01*
X107952376Y-107739926D01*
X107766480Y-107864138D01*
X107608388Y-108022230D01*
X107484176Y-108208126D01*
X107398617Y-108414683D01*
X107355000Y-108633962D01*
X107355000Y-108857538D01*
X107398617Y-109076817D01*
X107484176Y-109283374D01*
X107608388Y-109469270D01*
X107766480Y-109627362D01*
X107952376Y-109751574D01*
X108158933Y-109837133D01*
X108378212Y-109880750D01*
X108555002Y-109880750D01*
X108555002Y-111441197D01*
X108550199Y-111446000D01*
X108378212Y-111446000D01*
X108158933Y-111489617D01*
X107952376Y-111575176D01*
X107766480Y-111699388D01*
X107608388Y-111857480D01*
X107484176Y-112043376D01*
X107398617Y-112249933D01*
X107355000Y-112469212D01*
X107355000Y-112692788D01*
X107398617Y-112912067D01*
X107484176Y-113118624D01*
X107608388Y-113304520D01*
X107766480Y-113462612D01*
X107952376Y-113586824D01*
X108158933Y-113672383D01*
X108378212Y-113716000D01*
X108601788Y-113716000D01*
X108821067Y-113672383D01*
X109027624Y-113586824D01*
X109213520Y-113462612D01*
X109340001Y-113336131D01*
X109340001Y-116967711D01*
X109292330Y-117453894D01*
X109160512Y-117890497D01*
X108946399Y-118293186D01*
X108658150Y-118646613D01*
X108306739Y-118937327D01*
X107905564Y-119154240D01*
X107469886Y-119289106D01*
X106985664Y-119340000D01*
X53032279Y-119340000D01*
X52546106Y-119292330D01*
X52109503Y-119160512D01*
X51706814Y-118946399D01*
X51353387Y-118658150D01*
X51062673Y-118306739D01*
X50845760Y-117905564D01*
X50710894Y-117469886D01*
X50660000Y-116985664D01*
X50660000Y-116804495D01*
X51015000Y-116804495D01*
X51015000Y-117195505D01*
X51091282Y-117579003D01*
X51240915Y-117940250D01*
X51458149Y-118265364D01*
X51734636Y-118541851D01*
X52059750Y-118759085D01*
X52420997Y-118908718D01*
X52804495Y-118985000D01*
X53195505Y-118985000D01*
X53579003Y-118908718D01*
X53940250Y-118759085D01*
X54265364Y-118541851D01*
X54541851Y-118265364D01*
X54759085Y-117940250D01*
X54908718Y-117579003D01*
X54985000Y-117195505D01*
X54985000Y-116804495D01*
X105015000Y-116804495D01*
X105015000Y-117195505D01*
X105091282Y-117579003D01*
X105240915Y-117940250D01*
X105458149Y-118265364D01*
X105734636Y-118541851D01*
X106059750Y-118759085D01*
X106420997Y-118908718D01*
X106804495Y-118985000D01*
X107195505Y-118985000D01*
X107579003Y-118908718D01*
X107940250Y-118759085D01*
X108265364Y-118541851D01*
X108541851Y-118265364D01*
X108759085Y-117940250D01*
X108908718Y-117579003D01*
X108985000Y-117195505D01*
X108985000Y-116804495D01*
X108908718Y-116420997D01*
X108759085Y-116059750D01*
X108541851Y-115734636D01*
X108265364Y-115458149D01*
X107940250Y-115240915D01*
X107579003Y-115091282D01*
X107195505Y-115015000D01*
X106804495Y-115015000D01*
X106420997Y-115091282D01*
X106059750Y-115240915D01*
X105734636Y-115458149D01*
X105458149Y-115734636D01*
X105240915Y-116059750D01*
X105091282Y-116420997D01*
X105015000Y-116804495D01*
X54985000Y-116804495D01*
X54908718Y-116420997D01*
X54759085Y-116059750D01*
X54541851Y-115734636D01*
X54265364Y-115458149D01*
X53940250Y-115240915D01*
X53579003Y-115091282D01*
X53195505Y-115015000D01*
X52804495Y-115015000D01*
X52420997Y-115091282D01*
X52059750Y-115240915D01*
X51734636Y-115458149D01*
X51458149Y-115734636D01*
X51240915Y-116059750D01*
X51091282Y-116420997D01*
X51015000Y-116804495D01*
X50660000Y-116804495D01*
X50660000Y-111659649D01*
X50667608Y-111667144D01*
X50723931Y-111704169D01*
X50778963Y-111743062D01*
X50791774Y-111748766D01*
X50803488Y-111756466D01*
X50865938Y-111781785D01*
X50927515Y-111809201D01*
X50941191Y-111812295D01*
X50954183Y-111817563D01*
X51020378Y-111830213D01*
X51086114Y-111845088D01*
X51100130Y-111845455D01*
X51113902Y-111848087D01*
X51181292Y-111847581D01*
X51248667Y-111849345D01*
X51262487Y-111846970D01*
X51276505Y-111846865D01*
X51342500Y-111833221D01*
X51408928Y-111821807D01*
X51422018Y-111816782D01*
X51435747Y-111813944D01*
X51497822Y-111787684D01*
X51560736Y-111763533D01*
X51572592Y-111756053D01*
X51585507Y-111750589D01*
X51641263Y-111712725D01*
X51698260Y-111676763D01*
X51737921Y-111639126D01*
X52437274Y-111056333D01*
X52459574Y-111042295D01*
X52499575Y-111004415D01*
X52510626Y-110995206D01*
X52529048Y-110976505D01*
X52577644Y-110930486D01*
X52585995Y-110918696D01*
X52596144Y-110908393D01*
X52632951Y-110852401D01*
X52671632Y-110797790D01*
X52677521Y-110784601D01*
X52685467Y-110772513D01*
X52710637Y-110710430D01*
X52737927Y-110649309D01*
X52741132Y-110635214D01*
X52746563Y-110621818D01*
X52759133Y-110556044D01*
X52773980Y-110490747D01*
X52774374Y-110476297D01*
X52777087Y-110462099D01*
X52776584Y-110395142D01*
X52778407Y-110328199D01*
X52775974Y-110313948D01*
X52775865Y-110299494D01*
X52762307Y-110233913D01*
X52751037Y-110167909D01*
X52745872Y-110154412D01*
X52742945Y-110140253D01*
X52741821Y-110137595D01*
X52897796Y-109892491D01*
X54925000Y-109892491D01*
X54925000Y-110687510D01*
X54953722Y-110979128D01*
X55067226Y-111353302D01*
X55251547Y-111698143D01*
X55499603Y-112000398D01*
X55801858Y-112248453D01*
X56146699Y-112432774D01*
X56520873Y-112546278D01*
X56910000Y-112584604D01*
X57299128Y-112546278D01*
X57673302Y-112432774D01*
X58018143Y-112248453D01*
X58320398Y-112000398D01*
X58568453Y-111698143D01*
X58752774Y-111353302D01*
X58866278Y-110979127D01*
X58895000Y-110687509D01*
X58895000Y-109892491D01*
X59125000Y-109892491D01*
X59125000Y-110687510D01*
X59153722Y-110979128D01*
X59267226Y-111353302D01*
X59451547Y-111698143D01*
X59699603Y-112000398D01*
X60001858Y-112248453D01*
X60346699Y-112432774D01*
X60720873Y-112546278D01*
X61110000Y-112584604D01*
X61499128Y-112546278D01*
X61873302Y-112432774D01*
X62218143Y-112248453D01*
X62520398Y-112000398D01*
X62768453Y-111698143D01*
X62952774Y-111353302D01*
X63010217Y-111163936D01*
X63431449Y-111163936D01*
X63579514Y-111519395D01*
X63794081Y-111839138D01*
X64066904Y-112110877D01*
X64387498Y-112324170D01*
X64446751Y-112377464D01*
X64737000Y-112324030D01*
X64737000Y-110863000D01*
X65883000Y-110863000D01*
X65883000Y-112324030D01*
X66173249Y-112377464D01*
X66232502Y-112324170D01*
X66553096Y-112110877D01*
X66825919Y-111839138D01*
X67040486Y-111519395D01*
X67188551Y-111163936D01*
X67096456Y-110863000D01*
X65883000Y-110863000D01*
X64737000Y-110863000D01*
X63523544Y-110863000D01*
X63431449Y-111163936D01*
X63010217Y-111163936D01*
X63066278Y-110979127D01*
X63095000Y-110687509D01*
X63095000Y-109892491D01*
X67525000Y-109892491D01*
X67525000Y-110687510D01*
X67553722Y-110979128D01*
X67667226Y-111353302D01*
X67851547Y-111698143D01*
X68099603Y-112000398D01*
X68401858Y-112248453D01*
X68746699Y-112432774D01*
X69120873Y-112546278D01*
X69510000Y-112584604D01*
X69899128Y-112546278D01*
X70273302Y-112432774D01*
X70618143Y-112248453D01*
X70920398Y-112000398D01*
X71168453Y-111698143D01*
X71352774Y-111353302D01*
X71410217Y-111163936D01*
X71831449Y-111163936D01*
X71979514Y-111519395D01*
X72194081Y-111839138D01*
X72466904Y-112110877D01*
X72787498Y-112324170D01*
X72846751Y-112377464D01*
X73137000Y-112324030D01*
X73137000Y-110863000D01*
X74283000Y-110863000D01*
X74283000Y-112324030D01*
X74573249Y-112377464D01*
X74632502Y-112324170D01*
X74953096Y-112110877D01*
X75225919Y-111839138D01*
X75440486Y-111519395D01*
X75588551Y-111163936D01*
X76031449Y-111163936D01*
X76179514Y-111519395D01*
X76394081Y-111839138D01*
X76666904Y-112110877D01*
X76987498Y-112324170D01*
X77046751Y-112377464D01*
X77337000Y-112324030D01*
X77337000Y-110863000D01*
X78483000Y-110863000D01*
X78483000Y-112324030D01*
X78773249Y-112377464D01*
X78832502Y-112324170D01*
X79153096Y-112110877D01*
X79425919Y-111839138D01*
X79640486Y-111519395D01*
X79788551Y-111163936D01*
X80231449Y-111163936D01*
X80379514Y-111519395D01*
X80594081Y-111839138D01*
X80866904Y-112110877D01*
X81187498Y-112324170D01*
X81246751Y-112377464D01*
X81537000Y-112324030D01*
X81537000Y-110863000D01*
X82683000Y-110863000D01*
X82683000Y-112324030D01*
X82973249Y-112377464D01*
X83032502Y-112324170D01*
X83353096Y-112110877D01*
X83625919Y-111839138D01*
X83840486Y-111519395D01*
X83988551Y-111163936D01*
X83896456Y-110863000D01*
X82683000Y-110863000D01*
X81537000Y-110863000D01*
X80323544Y-110863000D01*
X80231449Y-111163936D01*
X79788551Y-111163936D01*
X79696456Y-110863000D01*
X78483000Y-110863000D01*
X77337000Y-110863000D01*
X76123544Y-110863000D01*
X76031449Y-111163936D01*
X75588551Y-111163936D01*
X75496456Y-110863000D01*
X74283000Y-110863000D01*
X73137000Y-110863000D01*
X71923544Y-110863000D01*
X71831449Y-111163936D01*
X71410217Y-111163936D01*
X71466278Y-110979127D01*
X71495000Y-110687509D01*
X71495000Y-109892490D01*
X71466278Y-109600872D01*
X71410218Y-109416064D01*
X71831449Y-109416064D01*
X71923544Y-109717000D01*
X73137000Y-109717000D01*
X73137000Y-108255970D01*
X74283000Y-108255970D01*
X74283000Y-109717000D01*
X75496456Y-109717000D01*
X75588551Y-109416064D01*
X76031449Y-109416064D01*
X76123544Y-109717000D01*
X77337000Y-109717000D01*
X77337000Y-108255970D01*
X78483000Y-108255970D01*
X78483000Y-109717000D01*
X79696456Y-109717000D01*
X79788551Y-109416064D01*
X79640486Y-109060605D01*
X79425919Y-108740862D01*
X79153096Y-108469123D01*
X78832502Y-108255830D01*
X78773249Y-108202536D01*
X78483000Y-108255970D01*
X77337000Y-108255970D01*
X77046751Y-108202536D01*
X76987498Y-108255830D01*
X76666904Y-108469123D01*
X76394081Y-108740862D01*
X76179514Y-109060605D01*
X76031449Y-109416064D01*
X75588551Y-109416064D01*
X75440486Y-109060605D01*
X75225919Y-108740862D01*
X74953096Y-108469123D01*
X74632502Y-108255830D01*
X74573249Y-108202536D01*
X74283000Y-108255970D01*
X73137000Y-108255970D01*
X72846751Y-108202536D01*
X72787498Y-108255830D01*
X72466904Y-108469123D01*
X72194081Y-108740862D01*
X71979514Y-109060605D01*
X71831449Y-109416064D01*
X71410218Y-109416064D01*
X71352774Y-109226698D01*
X71168453Y-108881857D01*
X70920398Y-108579602D01*
X70618143Y-108331547D01*
X70273301Y-108147226D01*
X69899127Y-108033722D01*
X69510000Y-107995396D01*
X69120872Y-108033722D01*
X68746698Y-108147226D01*
X68401857Y-108331547D01*
X68099602Y-108579602D01*
X67851547Y-108881857D01*
X67667226Y-109226699D01*
X67553722Y-109600873D01*
X67525000Y-109892491D01*
X63095000Y-109892491D01*
X63095000Y-109892490D01*
X63066278Y-109600872D01*
X63010218Y-109416064D01*
X63431449Y-109416064D01*
X63523544Y-109717000D01*
X64737000Y-109717000D01*
X64737000Y-108255970D01*
X65883000Y-108255970D01*
X65883000Y-109717000D01*
X67096456Y-109717000D01*
X67188551Y-109416064D01*
X67040486Y-109060605D01*
X66825919Y-108740862D01*
X66553096Y-108469123D01*
X66232502Y-108255830D01*
X66173249Y-108202536D01*
X65883000Y-108255970D01*
X64737000Y-108255970D01*
X64446751Y-108202536D01*
X64387498Y-108255830D01*
X64066904Y-108469123D01*
X63794081Y-108740862D01*
X63579514Y-109060605D01*
X63431449Y-109416064D01*
X63010218Y-109416064D01*
X62952774Y-109226698D01*
X62768453Y-108881857D01*
X62520398Y-108579602D01*
X62218143Y-108331547D01*
X61873301Y-108147226D01*
X61499127Y-108033722D01*
X61110000Y-107995396D01*
X60720872Y-108033722D01*
X60346698Y-108147226D01*
X60001857Y-108331547D01*
X59699602Y-108579602D01*
X59451547Y-108881857D01*
X59267226Y-109226699D01*
X59153722Y-109600873D01*
X59125000Y-109892491D01*
X58895000Y-109892491D01*
X58895000Y-109892490D01*
X58866278Y-109600872D01*
X58752774Y-109226698D01*
X58568453Y-108881857D01*
X58320398Y-108579602D01*
X58018143Y-108331547D01*
X57673301Y-108147226D01*
X57299127Y-108033722D01*
X56910000Y-107995396D01*
X56520872Y-108033722D01*
X56146698Y-108147226D01*
X55801857Y-108331547D01*
X55499602Y-108579602D01*
X55251547Y-108881857D01*
X55067226Y-109226699D01*
X54953722Y-109600873D01*
X54925000Y-109892491D01*
X52897796Y-109892491D01*
X53890709Y-108332200D01*
X53910699Y-108307842D01*
X53934260Y-108263762D01*
X53939214Y-108255978D01*
X53953362Y-108228026D01*
X53987353Y-108164434D01*
X53990051Y-108155540D01*
X53994246Y-108147252D01*
X54013628Y-108077817D01*
X54034556Y-108008826D01*
X54035467Y-107999581D01*
X54037965Y-107990630D01*
X54043428Y-107918746D01*
X54050494Y-107847000D01*
X54049583Y-107837751D01*
X54050287Y-107828488D01*
X54041625Y-107756948D01*
X54034556Y-107685174D01*
X54031857Y-107676278D01*
X54030741Y-107667058D01*
X54008293Y-107598595D01*
X53987353Y-107529566D01*
X53982970Y-107521366D01*
X53980077Y-107512543D01*
X53944688Y-107449747D01*
X53910699Y-107386158D01*
X53904807Y-107378978D01*
X53900243Y-107370880D01*
X53853273Y-107316184D01*
X53807541Y-107260459D01*
X53800356Y-107254562D01*
X53794304Y-107247515D01*
X53737578Y-107203042D01*
X53681842Y-107157301D01*
X53673647Y-107152921D01*
X53666335Y-107147188D01*
X53662106Y-107145048D01*
X54305089Y-106410210D01*
X54314927Y-106402154D01*
X54358557Y-106349104D01*
X54376956Y-106328077D01*
X54384303Y-106317799D01*
X54418217Y-106276564D01*
X54431488Y-106251797D01*
X54447826Y-106228944D01*
X54469807Y-106180287D01*
X54495019Y-106133236D01*
X54503201Y-106106367D01*
X54514771Y-106080754D01*
X54526837Y-106028739D01*
X54542385Y-105977678D01*
X54545168Y-105949720D01*
X54551517Y-105922352D01*
X54553204Y-105868993D01*
X54558493Y-105815868D01*
X54555769Y-105787908D01*
X54556657Y-105759823D01*
X54547901Y-105707157D01*
X54542724Y-105654025D01*
X54534595Y-105627126D01*
X54529988Y-105599416D01*
X54511131Y-105549482D01*
X54495684Y-105498368D01*
X54482466Y-105473576D01*
X54472540Y-105447293D01*
X54444294Y-105401984D01*
X54419180Y-105354880D01*
X54401381Y-105333145D01*
X54386516Y-105309300D01*
X54349980Y-105270379D01*
X54316154Y-105229073D01*
X54294449Y-105211222D01*
X54275225Y-105190743D01*
X54231806Y-105159703D01*
X54190563Y-105125783D01*
X54165796Y-105112511D01*
X54142943Y-105096174D01*
X54094286Y-105074193D01*
X54047235Y-105048981D01*
X54020364Y-105040799D01*
X53994753Y-105029229D01*
X53942748Y-105017165D01*
X53891677Y-105001614D01*
X53863711Y-104998830D01*
X53836350Y-104992483D01*
X53782997Y-104990796D01*
X53729867Y-104985507D01*
X53701907Y-104988231D01*
X53673822Y-104987343D01*
X53621156Y-104996099D01*
X53568024Y-105001276D01*
X53541125Y-105009405D01*
X53513415Y-105014012D01*
X53463481Y-105032869D01*
X53412367Y-105048316D01*
X53387575Y-105061535D01*
X53361292Y-105071460D01*
X53315984Y-105099705D01*
X53304837Y-105105648D01*
X53286153Y-105118104D01*
X53266771Y-105103715D01*
X53119805Y-105034124D01*
X52962088Y-104994540D01*
X52799678Y-104986487D01*
X52638819Y-105010273D01*
X52485690Y-105064984D01*
X52346176Y-105148518D01*
X52225642Y-105257665D01*
X52194509Y-105299602D01*
X52125845Y-105356074D01*
X52048637Y-105450353D01*
X50660000Y-107533310D01*
X50660000Y-103390001D01*
X54921928Y-103390001D01*
X54921928Y-106189999D01*
X54938992Y-106363253D01*
X54989529Y-106529850D01*
X55071595Y-106683386D01*
X55182039Y-106817961D01*
X55316614Y-106928405D01*
X55470150Y-107010471D01*
X55636747Y-107061008D01*
X55810001Y-107078072D01*
X58009999Y-107078072D01*
X58183253Y-107061008D01*
X58349850Y-107010471D01*
X58503386Y-106928405D01*
X58637961Y-106817961D01*
X58748405Y-106683386D01*
X58830471Y-106529850D01*
X58881008Y-106363253D01*
X58898072Y-106189999D01*
X58898072Y-104392491D01*
X59125000Y-104392491D01*
X59125000Y-105187510D01*
X59153722Y-105479128D01*
X59267226Y-105853302D01*
X59451547Y-106198143D01*
X59699603Y-106500398D01*
X60001858Y-106748453D01*
X60346699Y-106932774D01*
X60720873Y-107046278D01*
X61110000Y-107084604D01*
X61499128Y-107046278D01*
X61873302Y-106932774D01*
X62218143Y-106748453D01*
X62520398Y-106500398D01*
X62768453Y-106198143D01*
X62952774Y-105853302D01*
X63010217Y-105663936D01*
X63431449Y-105663936D01*
X63579514Y-106019395D01*
X63794081Y-106339138D01*
X64066904Y-106610877D01*
X64387498Y-106824170D01*
X64446751Y-106877464D01*
X64737000Y-106824030D01*
X64737000Y-105363000D01*
X65883000Y-105363000D01*
X65883000Y-106824030D01*
X66173249Y-106877464D01*
X66232502Y-106824170D01*
X66553096Y-106610877D01*
X66825919Y-106339138D01*
X67040486Y-106019395D01*
X67188551Y-105663936D01*
X67096456Y-105363000D01*
X65883000Y-105363000D01*
X64737000Y-105363000D01*
X63523544Y-105363000D01*
X63431449Y-105663936D01*
X63010217Y-105663936D01*
X63066278Y-105479127D01*
X63095000Y-105187509D01*
X63095000Y-104392491D01*
X67525000Y-104392491D01*
X67525000Y-105187510D01*
X67553722Y-105479128D01*
X67667226Y-105853302D01*
X67851547Y-106198143D01*
X68099603Y-106500398D01*
X68401858Y-106748453D01*
X68746699Y-106932774D01*
X69120873Y-107046278D01*
X69510000Y-107084604D01*
X69899128Y-107046278D01*
X70273302Y-106932774D01*
X70618143Y-106748453D01*
X70920398Y-106500398D01*
X71168453Y-106198143D01*
X71352774Y-105853302D01*
X71410217Y-105663936D01*
X71831449Y-105663936D01*
X71979514Y-106019395D01*
X72194081Y-106339138D01*
X72466904Y-106610877D01*
X72787498Y-106824170D01*
X72846751Y-106877464D01*
X73137000Y-106824030D01*
X73137000Y-105363000D01*
X74283000Y-105363000D01*
X74283000Y-106824030D01*
X74573249Y-106877464D01*
X74632502Y-106824170D01*
X74953096Y-106610877D01*
X75225919Y-106339138D01*
X75440486Y-106019395D01*
X75588551Y-105663936D01*
X75496456Y-105363000D01*
X74283000Y-105363000D01*
X73137000Y-105363000D01*
X71923544Y-105363000D01*
X71831449Y-105663936D01*
X71410217Y-105663936D01*
X71466278Y-105479127D01*
X71495000Y-105187509D01*
X71495000Y-104392491D01*
X75925000Y-104392491D01*
X75925000Y-105187510D01*
X75953722Y-105479128D01*
X76067226Y-105853302D01*
X76251547Y-106198143D01*
X76499603Y-106500398D01*
X76801858Y-106748453D01*
X77146699Y-106932774D01*
X77520873Y-107046278D01*
X77910000Y-107084604D01*
X78264552Y-107049684D01*
X79618013Y-108403146D01*
X79653551Y-108446449D01*
X79696854Y-108481987D01*
X79696856Y-108481989D01*
X79826377Y-108588284D01*
X80023553Y-108693676D01*
X80237501Y-108758577D01*
X80460000Y-108780491D01*
X80515752Y-108775000D01*
X80571172Y-108775000D01*
X80379514Y-109060605D01*
X80231449Y-109416064D01*
X80323544Y-109717000D01*
X81537000Y-109717000D01*
X81537000Y-109697000D01*
X82683000Y-109697000D01*
X82683000Y-109717000D01*
X83896456Y-109717000D01*
X83988551Y-109416064D01*
X83840486Y-109060605D01*
X83648828Y-108775000D01*
X84739243Y-108775000D01*
X84651547Y-108881857D01*
X84467226Y-109226699D01*
X84353722Y-109600873D01*
X84325000Y-109892491D01*
X84325000Y-110687510D01*
X84353722Y-110979128D01*
X84467226Y-111353302D01*
X84651547Y-111698143D01*
X84899603Y-112000398D01*
X85201858Y-112248453D01*
X85546699Y-112432774D01*
X85920873Y-112546278D01*
X86310000Y-112584604D01*
X86699128Y-112546278D01*
X87073302Y-112432774D01*
X87418143Y-112248453D01*
X87720398Y-112000398D01*
X87968453Y-111698143D01*
X88152774Y-111353302D01*
X88266278Y-110979127D01*
X88295000Y-110687509D01*
X88295000Y-109892490D01*
X88266278Y-109600872D01*
X88157654Y-109242785D01*
X88550317Y-109635448D01*
X88525000Y-109892491D01*
X88525000Y-110687510D01*
X88553722Y-110979128D01*
X88667226Y-111353302D01*
X88851547Y-111698143D01*
X89099603Y-112000398D01*
X89401858Y-112248453D01*
X89746699Y-112432774D01*
X90120873Y-112546278D01*
X90510000Y-112584604D01*
X90899128Y-112546278D01*
X91273302Y-112432774D01*
X91618143Y-112248453D01*
X91920398Y-112000398D01*
X92168453Y-111698143D01*
X92352774Y-111353302D01*
X92466278Y-110979127D01*
X92495000Y-110687509D01*
X92495000Y-109892490D01*
X92466278Y-109600872D01*
X92352774Y-109226698D01*
X92168453Y-108881857D01*
X91920398Y-108579602D01*
X91618143Y-108331547D01*
X91273301Y-108147226D01*
X90899127Y-108033722D01*
X90510000Y-107995396D01*
X90155448Y-108030317D01*
X89001996Y-106876865D01*
X88966449Y-106833551D01*
X88793623Y-106691716D01*
X88596447Y-106586324D01*
X88382499Y-106521423D01*
X88215752Y-106505000D01*
X88215751Y-106505000D01*
X88160000Y-106499509D01*
X88104249Y-106505000D01*
X87714790Y-106505000D01*
X87720398Y-106500398D01*
X87968453Y-106198143D01*
X88152774Y-105853302D01*
X88266278Y-105479127D01*
X88295000Y-105187509D01*
X88295000Y-104392490D01*
X88266278Y-104100872D01*
X88152774Y-103726698D01*
X87968453Y-103381857D01*
X87720398Y-103079602D01*
X87418143Y-102831547D01*
X87073301Y-102647226D01*
X86699127Y-102533722D01*
X86310000Y-102495396D01*
X85920872Y-102533722D01*
X85546698Y-102647226D01*
X85201857Y-102831547D01*
X84899602Y-103079602D01*
X84651547Y-103381857D01*
X84467226Y-103726699D01*
X84353722Y-104100873D01*
X84325000Y-104392491D01*
X84325000Y-105187510D01*
X84353722Y-105479128D01*
X84467226Y-105853302D01*
X84651547Y-106198143D01*
X84899603Y-106500398D01*
X84905211Y-106505000D01*
X83459395Y-106505000D01*
X83625919Y-106339138D01*
X83840486Y-106019395D01*
X83988551Y-105663936D01*
X83896456Y-105363000D01*
X82683000Y-105363000D01*
X82683000Y-105383000D01*
X81537000Y-105383000D01*
X81537000Y-105363000D01*
X80323544Y-105363000D01*
X80231449Y-105663936D01*
X80333099Y-105907967D01*
X79869683Y-105444551D01*
X79895000Y-105187509D01*
X79895000Y-104392490D01*
X79866278Y-104100872D01*
X79810218Y-103916064D01*
X80231449Y-103916064D01*
X80323544Y-104217000D01*
X81537000Y-104217000D01*
X81537000Y-102755970D01*
X82683000Y-102755970D01*
X82683000Y-104217000D01*
X83896456Y-104217000D01*
X83988551Y-103916064D01*
X83840486Y-103560605D01*
X83625919Y-103240862D01*
X83353096Y-102969123D01*
X83032502Y-102755830D01*
X82973249Y-102702536D01*
X82683000Y-102755970D01*
X81537000Y-102755970D01*
X81246751Y-102702536D01*
X81187498Y-102755830D01*
X80866904Y-102969123D01*
X80594081Y-103240862D01*
X80379514Y-103560605D01*
X80231449Y-103916064D01*
X79810218Y-103916064D01*
X79752774Y-103726698D01*
X79568453Y-103381857D01*
X79320398Y-103079602D01*
X79018143Y-102831547D01*
X78673301Y-102647226D01*
X78299127Y-102533722D01*
X77910000Y-102495396D01*
X77520872Y-102533722D01*
X77146698Y-102647226D01*
X76801857Y-102831547D01*
X76499602Y-103079602D01*
X76251547Y-103381857D01*
X76067226Y-103726699D01*
X75953722Y-104100873D01*
X75925000Y-104392491D01*
X71495000Y-104392491D01*
X71495000Y-104392490D01*
X71466278Y-104100872D01*
X71410218Y-103916064D01*
X71831449Y-103916064D01*
X71923544Y-104217000D01*
X73137000Y-104217000D01*
X73137000Y-102755970D01*
X74283000Y-102755970D01*
X74283000Y-104217000D01*
X75496456Y-104217000D01*
X75588551Y-103916064D01*
X75440486Y-103560605D01*
X75225919Y-103240862D01*
X74953096Y-102969123D01*
X74632502Y-102755830D01*
X74573249Y-102702536D01*
X74283000Y-102755970D01*
X73137000Y-102755970D01*
X72846751Y-102702536D01*
X72787498Y-102755830D01*
X72466904Y-102969123D01*
X72194081Y-103240862D01*
X71979514Y-103560605D01*
X71831449Y-103916064D01*
X71410218Y-103916064D01*
X71352774Y-103726698D01*
X71168453Y-103381857D01*
X70920398Y-103079602D01*
X70618143Y-102831547D01*
X70273301Y-102647226D01*
X69899127Y-102533722D01*
X69510000Y-102495396D01*
X69120872Y-102533722D01*
X68746698Y-102647226D01*
X68401857Y-102831547D01*
X68099602Y-103079602D01*
X67851547Y-103381857D01*
X67667226Y-103726699D01*
X67553722Y-104100873D01*
X67525000Y-104392491D01*
X63095000Y-104392491D01*
X63095000Y-104392490D01*
X63066278Y-104100872D01*
X63010218Y-103916064D01*
X63431449Y-103916064D01*
X63523544Y-104217000D01*
X64737000Y-104217000D01*
X64737000Y-102755970D01*
X65883000Y-102755970D01*
X65883000Y-104217000D01*
X67096456Y-104217000D01*
X67188551Y-103916064D01*
X67040486Y-103560605D01*
X66825919Y-103240862D01*
X66553096Y-102969123D01*
X66232502Y-102755830D01*
X66173249Y-102702536D01*
X65883000Y-102755970D01*
X64737000Y-102755970D01*
X64446751Y-102702536D01*
X64387498Y-102755830D01*
X64066904Y-102969123D01*
X63794081Y-103240862D01*
X63579514Y-103560605D01*
X63431449Y-103916064D01*
X63010218Y-103916064D01*
X62952774Y-103726698D01*
X62768453Y-103381857D01*
X62520398Y-103079602D01*
X62218143Y-102831547D01*
X61873301Y-102647226D01*
X61499127Y-102533722D01*
X61110000Y-102495396D01*
X60720872Y-102533722D01*
X60346698Y-102647226D01*
X60001857Y-102831547D01*
X59699602Y-103079602D01*
X59451547Y-103381857D01*
X59267226Y-103726699D01*
X59153722Y-104100873D01*
X59125000Y-104392491D01*
X58898072Y-104392491D01*
X58898072Y-103390001D01*
X58881008Y-103216747D01*
X58830471Y-103050150D01*
X58748405Y-102896614D01*
X58637961Y-102762039D01*
X58503386Y-102651595D01*
X58349850Y-102569529D01*
X58183253Y-102518992D01*
X58009999Y-102501928D01*
X55810001Y-102501928D01*
X55636747Y-102518992D01*
X55470150Y-102569529D01*
X55316614Y-102651595D01*
X55182039Y-102762039D01*
X55071595Y-102896614D01*
X54989529Y-103050150D01*
X54938992Y-103216747D01*
X54921928Y-103390001D01*
X50660000Y-103390001D01*
X50660000Y-101297155D01*
X50781000Y-101309072D01*
X51026674Y-101309072D01*
X51046026Y-101345276D01*
X51117201Y-101432002D01*
X51141000Y-101461001D01*
X51169996Y-101484797D01*
X51192200Y-101507002D01*
X51216000Y-101536002D01*
X51331725Y-101630975D01*
X51463754Y-101701547D01*
X51607015Y-101745004D01*
X51718668Y-101756001D01*
X51718678Y-101756001D01*
X51756000Y-101759677D01*
X51793323Y-101756001D01*
X58265677Y-101756001D01*
X58302999Y-101759677D01*
X58340321Y-101756001D01*
X58340332Y-101756001D01*
X58451985Y-101745004D01*
X58595246Y-101701547D01*
X58727275Y-101630975D01*
X58843000Y-101536002D01*
X58866803Y-101506998D01*
X59682062Y-100691740D01*
X59772148Y-100988715D01*
G36*
X61347226Y-82116699D02*
G01*
X61233722Y-82490873D01*
X61205000Y-82782491D01*
X61205000Y-83577510D01*
X61233722Y-83869128D01*
X61347226Y-84243302D01*
X61531547Y-84588143D01*
X61779603Y-84890398D01*
X62081858Y-85138453D01*
X62426699Y-85322774D01*
X62800873Y-85436278D01*
X63190000Y-85474604D01*
X63579128Y-85436278D01*
X63953302Y-85322774D01*
X64298143Y-85138453D01*
X64600398Y-84890398D01*
X64848453Y-84588143D01*
X65032774Y-84243302D01*
X65146278Y-83869127D01*
X65175000Y-83577509D01*
X65175000Y-82782490D01*
X65146278Y-82490872D01*
X65032774Y-82116698D01*
X64951685Y-81964990D01*
X65628316Y-81964990D01*
X65547226Y-82116699D01*
X65433722Y-82490873D01*
X65405000Y-82782491D01*
X65405000Y-83577510D01*
X65433722Y-83869128D01*
X65547226Y-84243302D01*
X65731547Y-84588143D01*
X65979603Y-84890398D01*
X66281858Y-85138453D01*
X66626699Y-85322774D01*
X67000873Y-85436278D01*
X67390000Y-85474604D01*
X67779128Y-85436278D01*
X68153302Y-85322774D01*
X68467442Y-85154863D01*
X68489794Y-85182099D01*
X68525010Y-85225010D01*
X68554008Y-85248808D01*
X70165000Y-86859802D01*
X70165000Y-86921939D01*
X70204774Y-87121898D01*
X70282795Y-87310256D01*
X70396063Y-87479774D01*
X70540226Y-87623937D01*
X70709744Y-87737205D01*
X70898102Y-87815226D01*
X71098061Y-87855000D01*
X71301939Y-87855000D01*
X71501898Y-87815226D01*
X71690256Y-87737205D01*
X71859774Y-87623937D01*
X71903711Y-87580000D01*
X102382678Y-87580000D01*
X102420000Y-87583676D01*
X102457322Y-87580000D01*
X102457333Y-87580000D01*
X102568986Y-87569003D01*
X102712247Y-87525546D01*
X102844276Y-87454974D01*
X102960001Y-87360001D01*
X102983803Y-87330998D01*
X104399793Y-85915010D01*
X105102151Y-85915010D01*
X105046939Y-85997641D01*
X104946304Y-86240595D01*
X104895000Y-86498514D01*
X104895000Y-86761486D01*
X104946304Y-87019405D01*
X105046939Y-87262359D01*
X105193038Y-87481013D01*
X105304735Y-87592710D01*
X105280997Y-87670964D01*
X105270000Y-87782617D01*
X105270000Y-87782627D01*
X105266324Y-87819949D01*
X105270000Y-87857272D01*
X105270000Y-89828999D01*
X105243989Y-89818225D01*
X104976411Y-89765000D01*
X104703589Y-89765000D01*
X104436011Y-89818225D01*
X104183957Y-89922629D01*
X103957114Y-90074201D01*
X103764201Y-90267114D01*
X103612629Y-90493957D01*
X103508225Y-90746011D01*
X103455000Y-91013589D01*
X103455000Y-91286411D01*
X103508225Y-91553989D01*
X103612629Y-91806043D01*
X103764201Y-92032886D01*
X103957114Y-92225799D01*
X104183957Y-92377371D01*
X104436011Y-92481775D01*
X104703589Y-92535000D01*
X104736556Y-92535000D01*
X104719988Y-92548597D01*
X104689698Y-92585506D01*
X104625015Y-92664322D01*
X104608179Y-92695820D01*
X104554443Y-92796352D01*
X104510986Y-92939613D01*
X104499989Y-93051266D01*
X104499989Y-93051276D01*
X104496313Y-93088598D01*
X104499989Y-93125921D01*
X104499990Y-98582657D01*
X104496313Y-98619989D01*
X104510987Y-98768974D01*
X104554443Y-98912235D01*
X104625015Y-99044265D01*
X104696190Y-99130991D01*
X104719989Y-99159990D01*
X104748987Y-99183788D01*
X106640000Y-101074802D01*
X106640000Y-101512678D01*
X106636324Y-101550000D01*
X106640000Y-101587322D01*
X106640000Y-101587333D01*
X106650997Y-101698986D01*
X106669408Y-101759677D01*
X106694454Y-101842246D01*
X106765026Y-101974276D01*
X106836201Y-102061002D01*
X106860000Y-102090001D01*
X106888997Y-102113798D01*
X107230001Y-102454803D01*
X107230002Y-104373169D01*
X107226325Y-104410501D01*
X107230002Y-104447834D01*
X107240999Y-104559487D01*
X107254181Y-104602943D01*
X107284455Y-104702747D01*
X107355000Y-104834726D01*
X107355000Y-104970698D01*
X105735699Y-106590000D01*
X104411218Y-106590000D01*
X104520398Y-106500398D01*
X104768453Y-106198143D01*
X104952774Y-105853302D01*
X105066278Y-105479127D01*
X105095000Y-105187509D01*
X105095000Y-104392490D01*
X105066278Y-104100872D01*
X104952774Y-103726698D01*
X104768453Y-103381857D01*
X104520398Y-103079602D01*
X104218143Y-102831547D01*
X103873301Y-102647226D01*
X103499127Y-102533722D01*
X103110000Y-102495396D01*
X102720872Y-102533722D01*
X102346698Y-102647226D01*
X102001857Y-102831547D01*
X101699602Y-103079602D01*
X101451547Y-103381857D01*
X101267226Y-103726699D01*
X101153722Y-104100873D01*
X101125000Y-104392491D01*
X101125000Y-105187510D01*
X101153722Y-105479128D01*
X101267226Y-105853302D01*
X101451547Y-106198143D01*
X101699603Y-106500398D01*
X101808783Y-106590000D01*
X100211218Y-106590000D01*
X100320398Y-106500398D01*
X100568453Y-106198143D01*
X100752774Y-105853302D01*
X100866278Y-105479127D01*
X100895000Y-105187509D01*
X100895000Y-104392490D01*
X100866278Y-104100872D01*
X100752774Y-103726698D01*
X100568453Y-103381857D01*
X100320398Y-103079602D01*
X100018143Y-102831547D01*
X99673301Y-102647226D01*
X99299127Y-102533722D01*
X98910000Y-102495396D01*
X98520872Y-102533722D01*
X98146698Y-102647226D01*
X97801857Y-102831547D01*
X97499602Y-103079602D01*
X97437724Y-103155000D01*
X96182276Y-103155000D01*
X96120398Y-103079602D01*
X95818143Y-102831547D01*
X95473301Y-102647226D01*
X95099127Y-102533722D01*
X94710000Y-102495396D01*
X94320872Y-102533722D01*
X93946698Y-102647226D01*
X93601857Y-102831547D01*
X93299602Y-103079602D01*
X93051547Y-103381857D01*
X92867226Y-103726699D01*
X92753722Y-104100873D01*
X92725000Y-104392491D01*
X92725000Y-105187510D01*
X92753722Y-105479128D01*
X92867226Y-105853302D01*
X93051547Y-106198143D01*
X93299603Y-106500398D01*
X93408783Y-106590000D01*
X93084802Y-106590000D01*
X92351147Y-105856346D01*
X92352774Y-105853302D01*
X92466278Y-105479127D01*
X92495000Y-105187509D01*
X92495000Y-104392490D01*
X92466278Y-104100872D01*
X92352774Y-103726698D01*
X92168453Y-103381857D01*
X92145000Y-103353280D01*
X92145000Y-103240319D01*
X92152911Y-103160000D01*
X92145000Y-103079678D01*
X92121343Y-102839484D01*
X92027852Y-102531285D01*
X91876031Y-102247248D01*
X91671714Y-101998286D01*
X91609320Y-101947081D01*
X88922925Y-99260687D01*
X88871714Y-99198286D01*
X88622752Y-98993969D01*
X88338715Y-98842148D01*
X88030516Y-98748657D01*
X87790322Y-98725000D01*
X87790319Y-98725000D01*
X87710000Y-98717089D01*
X87629681Y-98725000D01*
X69711954Y-98725000D01*
X69752426Y-98629770D01*
X69426000Y-98303344D01*
X69099574Y-98629770D01*
X69140046Y-98725000D01*
X62333099Y-98725000D01*
X62551275Y-98608382D01*
X62754555Y-98441555D01*
X62921382Y-98238275D01*
X63045347Y-98006354D01*
X63121683Y-97754706D01*
X63147459Y-97493000D01*
X63121683Y-97231294D01*
X63045347Y-96979646D01*
X62970704Y-96840000D01*
X68182759Y-96840000D01*
X68072706Y-96950053D01*
X68289228Y-97166575D01*
X68107924Y-97243628D01*
X68084600Y-97505564D01*
X68107924Y-97742372D01*
X68289230Y-97819426D01*
X68615656Y-97493000D01*
X68601514Y-97478858D01*
X69003120Y-97077251D01*
X69848880Y-97077251D01*
X70250487Y-97478858D01*
X70236344Y-97493000D01*
X70562770Y-97819426D01*
X70744076Y-97742372D01*
X70767400Y-97480436D01*
X70744076Y-97243628D01*
X70562772Y-97166575D01*
X70779294Y-96950053D01*
X70569647Y-96740406D01*
X71800054Y-95510000D01*
X83885199Y-95510000D01*
X85085000Y-96709802D01*
X85085000Y-96771939D01*
X85124774Y-96971898D01*
X85202795Y-97160256D01*
X85316063Y-97329774D01*
X85460226Y-97473937D01*
X85629744Y-97587205D01*
X85818102Y-97665226D01*
X86018061Y-97705000D01*
X86221939Y-97705000D01*
X86421898Y-97665226D01*
X86610256Y-97587205D01*
X86779774Y-97473937D01*
X86923937Y-97329774D01*
X87037205Y-97160256D01*
X87115226Y-96971898D01*
X87155000Y-96771939D01*
X87155000Y-96568061D01*
X87115226Y-96368102D01*
X87037205Y-96179744D01*
X86923937Y-96010226D01*
X86779774Y-95866063D01*
X86610256Y-95752795D01*
X86421898Y-95674774D01*
X86221939Y-95635000D01*
X86159802Y-95635000D01*
X85552050Y-95027249D01*
X98104376Y-95027249D01*
X98106063Y-95029774D01*
X98250226Y-95173937D01*
X98419744Y-95287205D01*
X98608102Y-95365226D01*
X98808061Y-95405000D01*
X99011939Y-95405000D01*
X99211898Y-95365226D01*
X99400256Y-95287205D01*
X99569774Y-95173937D01*
X99713937Y-95029774D01*
X99827205Y-94860256D01*
X99905226Y-94671898D01*
X99945000Y-94471939D01*
X99945000Y-94268061D01*
X99905226Y-94068102D01*
X99827205Y-93879744D01*
X99713937Y-93710226D01*
X99569774Y-93566063D01*
X99400256Y-93452795D01*
X99211898Y-93374774D01*
X99011939Y-93335000D01*
X98808061Y-93335000D01*
X98608102Y-93374774D01*
X98419744Y-93452795D01*
X98338248Y-93507249D01*
X70652096Y-93507249D01*
X70562772Y-93417925D01*
X70744076Y-93340872D01*
X70767400Y-93078936D01*
X70744076Y-92842128D01*
X70562770Y-92765074D01*
X70236344Y-93091500D01*
X70250487Y-93105643D01*
X69848880Y-93507249D01*
X69003120Y-93507249D01*
X68601514Y-93105643D01*
X68615656Y-93091500D01*
X68289230Y-92765074D01*
X68107924Y-92842128D01*
X68084600Y-93104064D01*
X68107924Y-93340872D01*
X68289228Y-93417925D01*
X68199904Y-93507249D01*
X63074955Y-93507249D01*
X63121683Y-93353206D01*
X63147459Y-93091500D01*
X63121683Y-92829794D01*
X63045347Y-92578146D01*
X62921382Y-92346225D01*
X62754555Y-92142945D01*
X62569561Y-91991125D01*
X62613908Y-91954730D01*
X69099574Y-91954730D01*
X69135969Y-91991125D01*
X69099574Y-92027520D01*
X69176628Y-92208826D01*
X69370976Y-92226132D01*
X69426000Y-92281156D01*
X69478987Y-92228169D01*
X69675372Y-92208826D01*
X69752426Y-92027520D01*
X69716031Y-91991125D01*
X69752426Y-91954730D01*
X69675372Y-91773424D01*
X69481024Y-91756118D01*
X69426000Y-91701094D01*
X69373013Y-91754081D01*
X69176628Y-91773424D01*
X69099574Y-91954730D01*
X62613908Y-91954730D01*
X62754555Y-91839305D01*
X62921382Y-91636025D01*
X63045347Y-91404104D01*
X63082993Y-91280000D01*
X63312676Y-91280000D01*
X63349998Y-91283676D01*
X63387320Y-91280000D01*
X63387331Y-91280000D01*
X63498984Y-91269003D01*
X63642245Y-91225546D01*
X63774274Y-91154974D01*
X63889999Y-91060001D01*
X63913801Y-91030998D01*
X64041485Y-90903314D01*
X68084600Y-90903314D01*
X68107924Y-91140122D01*
X68289230Y-91217176D01*
X68615656Y-90890750D01*
X70236344Y-90890750D01*
X70562770Y-91217176D01*
X70744076Y-91140122D01*
X70767400Y-90878186D01*
X70744076Y-90641378D01*
X70562770Y-90564324D01*
X70236344Y-90890750D01*
X68615656Y-90890750D01*
X68289230Y-90564324D01*
X68107924Y-90641378D01*
X68084600Y-90903314D01*
X64041485Y-90903314D01*
X64454800Y-90490000D01*
X66686289Y-90490000D01*
X66730226Y-90533937D01*
X66899744Y-90647205D01*
X67088102Y-90725226D01*
X67288061Y-90765000D01*
X67491939Y-90765000D01*
X67691898Y-90725226D01*
X67880256Y-90647205D01*
X68049774Y-90533937D01*
X68193937Y-90389774D01*
X68307205Y-90220256D01*
X68385226Y-90031898D01*
X68425000Y-89831939D01*
X68425000Y-89753980D01*
X69099574Y-89753980D01*
X69135969Y-89790375D01*
X69099574Y-89826770D01*
X69176628Y-90008076D01*
X69370976Y-90025382D01*
X69426000Y-90080406D01*
X69478987Y-90027419D01*
X69675372Y-90008076D01*
X69752426Y-89826770D01*
X69716031Y-89790375D01*
X69752426Y-89753980D01*
X69675372Y-89572674D01*
X69481024Y-89555368D01*
X69426000Y-89500344D01*
X69373013Y-89553331D01*
X69176628Y-89572674D01*
X69099574Y-89753980D01*
X68425000Y-89753980D01*
X68425000Y-89628061D01*
X68385226Y-89428102D01*
X68307205Y-89239744D01*
X68193937Y-89070226D01*
X68049774Y-88926063D01*
X67880256Y-88812795D01*
X67691898Y-88734774D01*
X67529967Y-88702564D01*
X68084600Y-88702564D01*
X68107924Y-88939372D01*
X68289230Y-89016426D01*
X68615656Y-88690000D01*
X70236344Y-88690000D01*
X70562770Y-89016426D01*
X70744076Y-88939372D01*
X70767400Y-88677436D01*
X70744076Y-88440628D01*
X70562770Y-88363574D01*
X70236344Y-88690000D01*
X68615656Y-88690000D01*
X68289230Y-88363574D01*
X68107924Y-88440628D01*
X68084600Y-88702564D01*
X67529967Y-88702564D01*
X67491939Y-88695000D01*
X67288061Y-88695000D01*
X67088102Y-88734774D01*
X66899744Y-88812795D01*
X66730226Y-88926063D01*
X66686289Y-88970000D01*
X64177323Y-88970000D01*
X64139998Y-88966324D01*
X64102673Y-88970000D01*
X64102665Y-88970000D01*
X63991012Y-88980997D01*
X63847751Y-89024454D01*
X63715722Y-89095026D01*
X63599997Y-89189999D01*
X63576199Y-89218998D01*
X63151125Y-89644071D01*
X62928678Y-89421625D01*
X63045347Y-89203354D01*
X63121683Y-88951706D01*
X63147459Y-88690000D01*
X63121683Y-88428294D01*
X63045347Y-88176646D01*
X62921382Y-87944725D01*
X62754555Y-87741445D01*
X62551275Y-87574618D01*
X62511262Y-87553230D01*
X69099574Y-87553230D01*
X69426000Y-87879656D01*
X69752426Y-87553230D01*
X69675372Y-87371924D01*
X69413436Y-87348600D01*
X69176628Y-87371924D01*
X69099574Y-87553230D01*
X62511262Y-87553230D01*
X62319354Y-87450653D01*
X62067706Y-87374317D01*
X61871579Y-87355000D01*
X61740421Y-87355000D01*
X61544294Y-87374317D01*
X61292646Y-87450653D01*
X61060725Y-87574618D01*
X60904050Y-87703197D01*
X59869854Y-86669002D01*
X59846052Y-86639999D01*
X59730327Y-86545026D01*
X59598298Y-86474454D01*
X59455037Y-86430997D01*
X59343384Y-86420000D01*
X59343373Y-86420000D01*
X59306051Y-86416324D01*
X59268729Y-86420000D01*
X55355675Y-86420000D01*
X54873851Y-85938177D01*
X54948095Y-85907424D01*
X55199505Y-85739437D01*
X55413312Y-85525630D01*
X55559313Y-85307125D01*
X57585553Y-85307125D01*
X57622875Y-85310801D01*
X57660197Y-85307125D01*
X57660208Y-85307125D01*
X57771861Y-85296128D01*
X57915122Y-85252671D01*
X58005333Y-85204452D01*
X58226699Y-85322774D01*
X58600873Y-85436278D01*
X58990000Y-85474604D01*
X59379128Y-85436278D01*
X59753302Y-85322774D01*
X60098143Y-85138453D01*
X60400398Y-84890398D01*
X60648453Y-84588143D01*
X60832774Y-84243302D01*
X60946278Y-83869127D01*
X60975000Y-83577509D01*
X60975000Y-82782490D01*
X60946278Y-82490872D01*
X60832774Y-82116698D01*
X60751685Y-81964990D01*
X61428316Y-81964990D01*
X61347226Y-82116699D01*
X61347226Y-82116699D01*
G37*
X61347226Y-82116699D02*
X61233722Y-82490873D01*
X61205000Y-82782491D01*
X61205000Y-83577510D01*
X61233722Y-83869128D01*
X61347226Y-84243302D01*
X61531547Y-84588143D01*
X61779603Y-84890398D01*
X62081858Y-85138453D01*
X62426699Y-85322774D01*
X62800873Y-85436278D01*
X63190000Y-85474604D01*
X63579128Y-85436278D01*
X63953302Y-85322774D01*
X64298143Y-85138453D01*
X64600398Y-84890398D01*
X64848453Y-84588143D01*
X65032774Y-84243302D01*
X65146278Y-83869127D01*
X65175000Y-83577509D01*
X65175000Y-82782490D01*
X65146278Y-82490872D01*
X65032774Y-82116698D01*
X64951685Y-81964990D01*
X65628316Y-81964990D01*
X65547226Y-82116699D01*
X65433722Y-82490873D01*
X65405000Y-82782491D01*
X65405000Y-83577510D01*
X65433722Y-83869128D01*
X65547226Y-84243302D01*
X65731547Y-84588143D01*
X65979603Y-84890398D01*
X66281858Y-85138453D01*
X66626699Y-85322774D01*
X67000873Y-85436278D01*
X67390000Y-85474604D01*
X67779128Y-85436278D01*
X68153302Y-85322774D01*
X68467442Y-85154863D01*
X68489794Y-85182099D01*
X68525010Y-85225010D01*
X68554008Y-85248808D01*
X70165000Y-86859802D01*
X70165000Y-86921939D01*
X70204774Y-87121898D01*
X70282795Y-87310256D01*
X70396063Y-87479774D01*
X70540226Y-87623937D01*
X70709744Y-87737205D01*
X70898102Y-87815226D01*
X71098061Y-87855000D01*
X71301939Y-87855000D01*
X71501898Y-87815226D01*
X71690256Y-87737205D01*
X71859774Y-87623937D01*
X71903711Y-87580000D01*
X102382678Y-87580000D01*
X102420000Y-87583676D01*
X102457322Y-87580000D01*
X102457333Y-87580000D01*
X102568986Y-87569003D01*
X102712247Y-87525546D01*
X102844276Y-87454974D01*
X102960001Y-87360001D01*
X102983803Y-87330998D01*
X104399793Y-85915010D01*
X105102151Y-85915010D01*
X105046939Y-85997641D01*
X104946304Y-86240595D01*
X104895000Y-86498514D01*
X104895000Y-86761486D01*
X104946304Y-87019405D01*
X105046939Y-87262359D01*
X105193038Y-87481013D01*
X105304735Y-87592710D01*
X105280997Y-87670964D01*
X105270000Y-87782617D01*
X105270000Y-87782627D01*
X105266324Y-87819949D01*
X105270000Y-87857272D01*
X105270000Y-89828999D01*
X105243989Y-89818225D01*
X104976411Y-89765000D01*
X104703589Y-89765000D01*
X104436011Y-89818225D01*
X104183957Y-89922629D01*
X103957114Y-90074201D01*
X103764201Y-90267114D01*
X103612629Y-90493957D01*
X103508225Y-90746011D01*
X103455000Y-91013589D01*
X103455000Y-91286411D01*
X103508225Y-91553989D01*
X103612629Y-91806043D01*
X103764201Y-92032886D01*
X103957114Y-92225799D01*
X104183957Y-92377371D01*
X104436011Y-92481775D01*
X104703589Y-92535000D01*
X104736556Y-92535000D01*
X104719988Y-92548597D01*
X104689698Y-92585506D01*
X104625015Y-92664322D01*
X104608179Y-92695820D01*
X104554443Y-92796352D01*
X104510986Y-92939613D01*
X104499989Y-93051266D01*
X104499989Y-93051276D01*
X104496313Y-93088598D01*
X104499989Y-93125921D01*
X104499990Y-98582657D01*
X104496313Y-98619989D01*
X104510987Y-98768974D01*
X104554443Y-98912235D01*
X104625015Y-99044265D01*
X104696190Y-99130991D01*
X104719989Y-99159990D01*
X104748987Y-99183788D01*
X106640000Y-101074802D01*
X106640000Y-101512678D01*
X106636324Y-101550000D01*
X106640000Y-101587322D01*
X106640000Y-101587333D01*
X106650997Y-101698986D01*
X106669408Y-101759677D01*
X106694454Y-101842246D01*
X106765026Y-101974276D01*
X106836201Y-102061002D01*
X106860000Y-102090001D01*
X106888997Y-102113798D01*
X107230001Y-102454803D01*
X107230002Y-104373169D01*
X107226325Y-104410501D01*
X107230002Y-104447834D01*
X107240999Y-104559487D01*
X107254181Y-104602943D01*
X107284455Y-104702747D01*
X107355000Y-104834726D01*
X107355000Y-104970698D01*
X105735699Y-106590000D01*
X104411218Y-106590000D01*
X104520398Y-106500398D01*
X104768453Y-106198143D01*
X104952774Y-105853302D01*
X105066278Y-105479127D01*
X105095000Y-105187509D01*
X105095000Y-104392490D01*
X105066278Y-104100872D01*
X104952774Y-103726698D01*
X104768453Y-103381857D01*
X104520398Y-103079602D01*
X104218143Y-102831547D01*
X103873301Y-102647226D01*
X103499127Y-102533722D01*
X103110000Y-102495396D01*
X102720872Y-102533722D01*
X102346698Y-102647226D01*
X102001857Y-102831547D01*
X101699602Y-103079602D01*
X101451547Y-103381857D01*
X101267226Y-103726699D01*
X101153722Y-104100873D01*
X101125000Y-104392491D01*
X101125000Y-105187510D01*
X101153722Y-105479128D01*
X101267226Y-105853302D01*
X101451547Y-106198143D01*
X101699603Y-106500398D01*
X101808783Y-106590000D01*
X100211218Y-106590000D01*
X100320398Y-106500398D01*
X100568453Y-106198143D01*
X100752774Y-105853302D01*
X100866278Y-105479127D01*
X100895000Y-105187509D01*
X100895000Y-104392490D01*
X100866278Y-104100872D01*
X100752774Y-103726698D01*
X100568453Y-103381857D01*
X100320398Y-103079602D01*
X100018143Y-102831547D01*
X99673301Y-102647226D01*
X99299127Y-102533722D01*
X98910000Y-102495396D01*
X98520872Y-102533722D01*
X98146698Y-102647226D01*
X97801857Y-102831547D01*
X97499602Y-103079602D01*
X97437724Y-103155000D01*
X96182276Y-103155000D01*
X96120398Y-103079602D01*
X95818143Y-102831547D01*
X95473301Y-102647226D01*
X95099127Y-102533722D01*
X94710000Y-102495396D01*
X94320872Y-102533722D01*
X93946698Y-102647226D01*
X93601857Y-102831547D01*
X93299602Y-103079602D01*
X93051547Y-103381857D01*
X92867226Y-103726699D01*
X92753722Y-104100873D01*
X92725000Y-104392491D01*
X92725000Y-105187510D01*
X92753722Y-105479128D01*
X92867226Y-105853302D01*
X93051547Y-106198143D01*
X93299603Y-106500398D01*
X93408783Y-106590000D01*
X93084802Y-106590000D01*
X92351147Y-105856346D01*
X92352774Y-105853302D01*
X92466278Y-105479127D01*
X92495000Y-105187509D01*
X92495000Y-104392490D01*
X92466278Y-104100872D01*
X92352774Y-103726698D01*
X92168453Y-103381857D01*
X92145000Y-103353280D01*
X92145000Y-103240319D01*
X92152911Y-103160000D01*
X92145000Y-103079678D01*
X92121343Y-102839484D01*
X92027852Y-102531285D01*
X91876031Y-102247248D01*
X91671714Y-101998286D01*
X91609320Y-101947081D01*
X88922925Y-99260687D01*
X88871714Y-99198286D01*
X88622752Y-98993969D01*
X88338715Y-98842148D01*
X88030516Y-98748657D01*
X87790322Y-98725000D01*
X87790319Y-98725000D01*
X87710000Y-98717089D01*
X87629681Y-98725000D01*
X69711954Y-98725000D01*
X69752426Y-98629770D01*
X69426000Y-98303344D01*
X69099574Y-98629770D01*
X69140046Y-98725000D01*
X62333099Y-98725000D01*
X62551275Y-98608382D01*
X62754555Y-98441555D01*
X62921382Y-98238275D01*
X63045347Y-98006354D01*
X63121683Y-97754706D01*
X63147459Y-97493000D01*
X63121683Y-97231294D01*
X63045347Y-96979646D01*
X62970704Y-96840000D01*
X68182759Y-96840000D01*
X68072706Y-96950053D01*
X68289228Y-97166575D01*
X68107924Y-97243628D01*
X68084600Y-97505564D01*
X68107924Y-97742372D01*
X68289230Y-97819426D01*
X68615656Y-97493000D01*
X68601514Y-97478858D01*
X69003120Y-97077251D01*
X69848880Y-97077251D01*
X70250487Y-97478858D01*
X70236344Y-97493000D01*
X70562770Y-97819426D01*
X70744076Y-97742372D01*
X70767400Y-97480436D01*
X70744076Y-97243628D01*
X70562772Y-97166575D01*
X70779294Y-96950053D01*
X70569647Y-96740406D01*
X71800054Y-95510000D01*
X83885199Y-95510000D01*
X85085000Y-96709802D01*
X85085000Y-96771939D01*
X85124774Y-96971898D01*
X85202795Y-97160256D01*
X85316063Y-97329774D01*
X85460226Y-97473937D01*
X85629744Y-97587205D01*
X85818102Y-97665226D01*
X86018061Y-97705000D01*
X86221939Y-97705000D01*
X86421898Y-97665226D01*
X86610256Y-97587205D01*
X86779774Y-97473937D01*
X86923937Y-97329774D01*
X87037205Y-97160256D01*
X87115226Y-96971898D01*
X87155000Y-96771939D01*
X87155000Y-96568061D01*
X87115226Y-96368102D01*
X87037205Y-96179744D01*
X86923937Y-96010226D01*
X86779774Y-95866063D01*
X86610256Y-95752795D01*
X86421898Y-95674774D01*
X86221939Y-95635000D01*
X86159802Y-95635000D01*
X85552050Y-95027249D01*
X98104376Y-95027249D01*
X98106063Y-95029774D01*
X98250226Y-95173937D01*
X98419744Y-95287205D01*
X98608102Y-95365226D01*
X98808061Y-95405000D01*
X99011939Y-95405000D01*
X99211898Y-95365226D01*
X99400256Y-95287205D01*
X99569774Y-95173937D01*
X99713937Y-95029774D01*
X99827205Y-94860256D01*
X99905226Y-94671898D01*
X99945000Y-94471939D01*
X99945000Y-94268061D01*
X99905226Y-94068102D01*
X99827205Y-93879744D01*
X99713937Y-93710226D01*
X99569774Y-93566063D01*
X99400256Y-93452795D01*
X99211898Y-93374774D01*
X99011939Y-93335000D01*
X98808061Y-93335000D01*
X98608102Y-93374774D01*
X98419744Y-93452795D01*
X98338248Y-93507249D01*
X70652096Y-93507249D01*
X70562772Y-93417925D01*
X70744076Y-93340872D01*
X70767400Y-93078936D01*
X70744076Y-92842128D01*
X70562770Y-92765074D01*
X70236344Y-93091500D01*
X70250487Y-93105643D01*
X69848880Y-93507249D01*
X69003120Y-93507249D01*
X68601514Y-93105643D01*
X68615656Y-93091500D01*
X68289230Y-92765074D01*
X68107924Y-92842128D01*
X68084600Y-93104064D01*
X68107924Y-93340872D01*
X68289228Y-93417925D01*
X68199904Y-93507249D01*
X63074955Y-93507249D01*
X63121683Y-93353206D01*
X63147459Y-93091500D01*
X63121683Y-92829794D01*
X63045347Y-92578146D01*
X62921382Y-92346225D01*
X62754555Y-92142945D01*
X62569561Y-91991125D01*
X62613908Y-91954730D01*
X69099574Y-91954730D01*
X69135969Y-91991125D01*
X69099574Y-92027520D01*
X69176628Y-92208826D01*
X69370976Y-92226132D01*
X69426000Y-92281156D01*
X69478987Y-92228169D01*
X69675372Y-92208826D01*
X69752426Y-92027520D01*
X69716031Y-91991125D01*
X69752426Y-91954730D01*
X69675372Y-91773424D01*
X69481024Y-91756118D01*
X69426000Y-91701094D01*
X69373013Y-91754081D01*
X69176628Y-91773424D01*
X69099574Y-91954730D01*
X62613908Y-91954730D01*
X62754555Y-91839305D01*
X62921382Y-91636025D01*
X63045347Y-91404104D01*
X63082993Y-91280000D01*
X63312676Y-91280000D01*
X63349998Y-91283676D01*
X63387320Y-91280000D01*
X63387331Y-91280000D01*
X63498984Y-91269003D01*
X63642245Y-91225546D01*
X63774274Y-91154974D01*
X63889999Y-91060001D01*
X63913801Y-91030998D01*
X64041485Y-90903314D01*
X68084600Y-90903314D01*
X68107924Y-91140122D01*
X68289230Y-91217176D01*
X68615656Y-90890750D01*
X70236344Y-90890750D01*
X70562770Y-91217176D01*
X70744076Y-91140122D01*
X70767400Y-90878186D01*
X70744076Y-90641378D01*
X70562770Y-90564324D01*
X70236344Y-90890750D01*
X68615656Y-90890750D01*
X68289230Y-90564324D01*
X68107924Y-90641378D01*
X68084600Y-90903314D01*
X64041485Y-90903314D01*
X64454800Y-90490000D01*
X66686289Y-90490000D01*
X66730226Y-90533937D01*
X66899744Y-90647205D01*
X67088102Y-90725226D01*
X67288061Y-90765000D01*
X67491939Y-90765000D01*
X67691898Y-90725226D01*
X67880256Y-90647205D01*
X68049774Y-90533937D01*
X68193937Y-90389774D01*
X68307205Y-90220256D01*
X68385226Y-90031898D01*
X68425000Y-89831939D01*
X68425000Y-89753980D01*
X69099574Y-89753980D01*
X69135969Y-89790375D01*
X69099574Y-89826770D01*
X69176628Y-90008076D01*
X69370976Y-90025382D01*
X69426000Y-90080406D01*
X69478987Y-90027419D01*
X69675372Y-90008076D01*
X69752426Y-89826770D01*
X69716031Y-89790375D01*
X69752426Y-89753980D01*
X69675372Y-89572674D01*
X69481024Y-89555368D01*
X69426000Y-89500344D01*
X69373013Y-89553331D01*
X69176628Y-89572674D01*
X69099574Y-89753980D01*
X68425000Y-89753980D01*
X68425000Y-89628061D01*
X68385226Y-89428102D01*
X68307205Y-89239744D01*
X68193937Y-89070226D01*
X68049774Y-88926063D01*
X67880256Y-88812795D01*
X67691898Y-88734774D01*
X67529967Y-88702564D01*
X68084600Y-88702564D01*
X68107924Y-88939372D01*
X68289230Y-89016426D01*
X68615656Y-88690000D01*
X70236344Y-88690000D01*
X70562770Y-89016426D01*
X70744076Y-88939372D01*
X70767400Y-88677436D01*
X70744076Y-88440628D01*
X70562770Y-88363574D01*
X70236344Y-88690000D01*
X68615656Y-88690000D01*
X68289230Y-88363574D01*
X68107924Y-88440628D01*
X68084600Y-88702564D01*
X67529967Y-88702564D01*
X67491939Y-88695000D01*
X67288061Y-88695000D01*
X67088102Y-88734774D01*
X66899744Y-88812795D01*
X66730226Y-88926063D01*
X66686289Y-88970000D01*
X64177323Y-88970000D01*
X64139998Y-88966324D01*
X64102673Y-88970000D01*
X64102665Y-88970000D01*
X63991012Y-88980997D01*
X63847751Y-89024454D01*
X63715722Y-89095026D01*
X63599997Y-89189999D01*
X63576199Y-89218998D01*
X63151125Y-89644071D01*
X62928678Y-89421625D01*
X63045347Y-89203354D01*
X63121683Y-88951706D01*
X63147459Y-88690000D01*
X63121683Y-88428294D01*
X63045347Y-88176646D01*
X62921382Y-87944725D01*
X62754555Y-87741445D01*
X62551275Y-87574618D01*
X62511262Y-87553230D01*
X69099574Y-87553230D01*
X69426000Y-87879656D01*
X69752426Y-87553230D01*
X69675372Y-87371924D01*
X69413436Y-87348600D01*
X69176628Y-87371924D01*
X69099574Y-87553230D01*
X62511262Y-87553230D01*
X62319354Y-87450653D01*
X62067706Y-87374317D01*
X61871579Y-87355000D01*
X61740421Y-87355000D01*
X61544294Y-87374317D01*
X61292646Y-87450653D01*
X61060725Y-87574618D01*
X60904050Y-87703197D01*
X59869854Y-86669002D01*
X59846052Y-86639999D01*
X59730327Y-86545026D01*
X59598298Y-86474454D01*
X59455037Y-86430997D01*
X59343384Y-86420000D01*
X59343373Y-86420000D01*
X59306051Y-86416324D01*
X59268729Y-86420000D01*
X55355675Y-86420000D01*
X54873851Y-85938177D01*
X54948095Y-85907424D01*
X55199505Y-85739437D01*
X55413312Y-85525630D01*
X55559313Y-85307125D01*
X57585553Y-85307125D01*
X57622875Y-85310801D01*
X57660197Y-85307125D01*
X57660208Y-85307125D01*
X57771861Y-85296128D01*
X57915122Y-85252671D01*
X58005333Y-85204452D01*
X58226699Y-85322774D01*
X58600873Y-85436278D01*
X58990000Y-85474604D01*
X59379128Y-85436278D01*
X59753302Y-85322774D01*
X60098143Y-85138453D01*
X60400398Y-84890398D01*
X60648453Y-84588143D01*
X60832774Y-84243302D01*
X60946278Y-83869127D01*
X60975000Y-83577509D01*
X60975000Y-82782490D01*
X60946278Y-82490872D01*
X60832774Y-82116698D01*
X60751685Y-81964990D01*
X61428316Y-81964990D01*
X61347226Y-82116699D01*
G36*
X107953000Y-93117000D02*
G01*
X107973000Y-93117000D01*
X107973000Y-94263000D01*
X107953000Y-94263000D01*
X107953000Y-94916250D01*
X108111750Y-95075000D01*
X108130000Y-95078072D01*
X108254482Y-95065812D01*
X108374180Y-95029502D01*
X108484494Y-94970537D01*
X108555001Y-94912673D01*
X108555001Y-96105040D01*
X108378907Y-96104932D01*
X108159601Y-96148415D01*
X108158264Y-96148820D01*
X108111610Y-96334109D01*
X108490000Y-96712498D01*
X108555001Y-96647497D01*
X108555001Y-97832503D01*
X108490000Y-97767502D01*
X108111610Y-98145891D01*
X108158264Y-98331180D01*
X108377517Y-98374931D01*
X108555001Y-98375040D01*
X108555001Y-99940250D01*
X108429802Y-99940250D01*
X106470000Y-97980449D01*
X106470000Y-97351093D01*
X107354932Y-97351093D01*
X107398415Y-97570399D01*
X107398820Y-97571736D01*
X107584109Y-97618390D01*
X107962498Y-97240000D01*
X107584109Y-96861610D01*
X107398820Y-96908264D01*
X107355069Y-97127517D01*
X107354932Y-97351093D01*
X106470000Y-97351093D01*
X106470000Y-95055038D01*
X106505518Y-95065812D01*
X106630000Y-95078072D01*
X106648250Y-95075000D01*
X106807000Y-94916250D01*
X106807000Y-94263000D01*
X106787000Y-94263000D01*
X106787000Y-93272799D01*
X106962800Y-93097000D01*
X107953000Y-93097000D01*
X107953000Y-93117000D01*
X107953000Y-93117000D01*
G37*
X107953000Y-93117000D02*
X107973000Y-93117000D01*
X107973000Y-94263000D01*
X107953000Y-94263000D01*
X107953000Y-94916250D01*
X108111750Y-95075000D01*
X108130000Y-95078072D01*
X108254482Y-95065812D01*
X108374180Y-95029502D01*
X108484494Y-94970537D01*
X108555001Y-94912673D01*
X108555001Y-96105040D01*
X108378907Y-96104932D01*
X108159601Y-96148415D01*
X108158264Y-96148820D01*
X108111610Y-96334109D01*
X108490000Y-96712498D01*
X108555001Y-96647497D01*
X108555001Y-97832503D01*
X108490000Y-97767502D01*
X108111610Y-98145891D01*
X108158264Y-98331180D01*
X108377517Y-98374931D01*
X108555001Y-98375040D01*
X108555001Y-99940250D01*
X108429802Y-99940250D01*
X106470000Y-97980449D01*
X106470000Y-97351093D01*
X107354932Y-97351093D01*
X107398415Y-97570399D01*
X107398820Y-97571736D01*
X107584109Y-97618390D01*
X107962498Y-97240000D01*
X107584109Y-96861610D01*
X107398820Y-96908264D01*
X107355069Y-97127517D01*
X107354932Y-97351093D01*
X106470000Y-97351093D01*
X106470000Y-95055038D01*
X106505518Y-95065812D01*
X106630000Y-95078072D01*
X106648250Y-95075000D01*
X106807000Y-94916250D01*
X106807000Y-94263000D01*
X106787000Y-94263000D01*
X106787000Y-93272799D01*
X106962800Y-93097000D01*
X107953000Y-93097000D01*
X107953000Y-93117000D01*
G36*
X60490317Y-95553956D02*
G01*
X60566653Y-95805604D01*
X60683322Y-96023875D01*
X60269997Y-96437200D01*
X60240999Y-96460998D01*
X60217201Y-96489996D01*
X60217200Y-96489997D01*
X60146025Y-96576723D01*
X60119193Y-96626922D01*
X60075453Y-96708752D01*
X60031996Y-96852013D01*
X60020999Y-96963666D01*
X60020999Y-96963677D01*
X60017323Y-97000999D01*
X60020999Y-97038321D01*
X60020999Y-97334199D01*
X57775199Y-99580000D01*
X55748080Y-99580000D01*
X55697011Y-99323257D01*
X55581299Y-99043905D01*
X55413312Y-98792495D01*
X55199505Y-98578688D01*
X54948095Y-98410701D01*
X54668743Y-98294989D01*
X54372184Y-98236000D01*
X54069816Y-98236000D01*
X53773257Y-98294989D01*
X53493905Y-98410701D01*
X53242495Y-98578688D01*
X53176056Y-98645127D01*
X53170502Y-98626820D01*
X53111537Y-98516506D01*
X53032185Y-98419815D01*
X52935494Y-98340463D01*
X52825180Y-98281498D01*
X52705482Y-98245188D01*
X52581000Y-98232928D01*
X50781000Y-98232928D01*
X50660000Y-98244845D01*
X50660000Y-96222530D01*
X50781000Y-96234447D01*
X51026674Y-96234447D01*
X51046026Y-96270651D01*
X51116260Y-96356230D01*
X51141000Y-96386376D01*
X51169996Y-96410172D01*
X51192200Y-96432377D01*
X51216000Y-96461377D01*
X51331725Y-96556350D01*
X51463754Y-96626922D01*
X51607015Y-96670379D01*
X51718668Y-96681376D01*
X51718678Y-96681376D01*
X51756000Y-96685052D01*
X51793323Y-96681376D01*
X55261302Y-96681376D01*
X55298624Y-96685052D01*
X55335946Y-96681376D01*
X55335957Y-96681376D01*
X55447610Y-96670379D01*
X55590871Y-96626922D01*
X55722900Y-96556350D01*
X55838625Y-96461377D01*
X55862428Y-96432373D01*
X56774802Y-95520000D01*
X60486973Y-95520000D01*
X60490317Y-95553956D01*
X60490317Y-95553956D01*
G37*
X60490317Y-95553956D02*
X60566653Y-95805604D01*
X60683322Y-96023875D01*
X60269997Y-96437200D01*
X60240999Y-96460998D01*
X60217201Y-96489996D01*
X60217200Y-96489997D01*
X60146025Y-96576723D01*
X60119193Y-96626922D01*
X60075453Y-96708752D01*
X60031996Y-96852013D01*
X60020999Y-96963666D01*
X60020999Y-96963677D01*
X60017323Y-97000999D01*
X60020999Y-97038321D01*
X60020999Y-97334199D01*
X57775199Y-99580000D01*
X55748080Y-99580000D01*
X55697011Y-99323257D01*
X55581299Y-99043905D01*
X55413312Y-98792495D01*
X55199505Y-98578688D01*
X54948095Y-98410701D01*
X54668743Y-98294989D01*
X54372184Y-98236000D01*
X54069816Y-98236000D01*
X53773257Y-98294989D01*
X53493905Y-98410701D01*
X53242495Y-98578688D01*
X53176056Y-98645127D01*
X53170502Y-98626820D01*
X53111537Y-98516506D01*
X53032185Y-98419815D01*
X52935494Y-98340463D01*
X52825180Y-98281498D01*
X52705482Y-98245188D01*
X52581000Y-98232928D01*
X50781000Y-98232928D01*
X50660000Y-98244845D01*
X50660000Y-96222530D01*
X50781000Y-96234447D01*
X51026674Y-96234447D01*
X51046026Y-96270651D01*
X51116260Y-96356230D01*
X51141000Y-96386376D01*
X51169996Y-96410172D01*
X51192200Y-96432377D01*
X51216000Y-96461377D01*
X51331725Y-96556350D01*
X51463754Y-96626922D01*
X51607015Y-96670379D01*
X51718668Y-96681376D01*
X51718678Y-96681376D01*
X51756000Y-96685052D01*
X51793323Y-96681376D01*
X55261302Y-96681376D01*
X55298624Y-96685052D01*
X55335946Y-96681376D01*
X55335957Y-96681376D01*
X55447610Y-96670379D01*
X55590871Y-96626922D01*
X55722900Y-96556350D01*
X55838625Y-96461377D01*
X55862428Y-96432373D01*
X56774802Y-95520000D01*
X60486973Y-95520000D01*
X60490317Y-95553956D01*
G36*
X70066415Y-95094036D02*
G01*
X69603200Y-95557251D01*
X69250907Y-95557251D01*
X69236749Y-95539999D01*
X69121024Y-95445026D01*
X68988995Y-95374454D01*
X68845734Y-95330997D01*
X68734081Y-95320000D01*
X68734070Y-95320000D01*
X68696748Y-95316324D01*
X68659426Y-95320000D01*
X68615121Y-95320000D01*
X68601514Y-95306393D01*
X68615656Y-95292250D01*
X68601514Y-95278108D01*
X68852372Y-95027249D01*
X69999628Y-95027249D01*
X70066415Y-95094036D01*
X70066415Y-95094036D01*
G37*
X70066415Y-95094036D02*
X69603200Y-95557251D01*
X69250907Y-95557251D01*
X69236749Y-95539999D01*
X69121024Y-95445026D01*
X68988995Y-95374454D01*
X68845734Y-95330997D01*
X68734081Y-95320000D01*
X68734070Y-95320000D01*
X68696748Y-95316324D01*
X68659426Y-95320000D01*
X68615121Y-95320000D01*
X68601514Y-95306393D01*
X68615656Y-95292250D01*
X68601514Y-95278108D01*
X68852372Y-95027249D01*
X69999628Y-95027249D01*
X70066415Y-95094036D01*
G36*
X68107924Y-95042878D02*
G01*
X68084600Y-95304814D01*
X68086096Y-95320000D01*
X63144726Y-95320000D01*
X63147459Y-95292250D01*
X63121683Y-95030544D01*
X63120683Y-95027249D01*
X68144699Y-95027249D01*
X68107924Y-95042878D01*
X68107924Y-95042878D01*
G37*
X68107924Y-95042878D02*
X68084600Y-95304814D01*
X68086096Y-95320000D01*
X63144726Y-95320000D01*
X63147459Y-95292250D01*
X63121683Y-95030544D01*
X63120683Y-95027249D01*
X68144699Y-95027249D01*
X68107924Y-95042878D01*
G36*
X50781000Y-91159822D02*
G01*
X51026674Y-91159822D01*
X51046026Y-91196026D01*
X51117201Y-91282752D01*
X51141000Y-91311751D01*
X51169998Y-91335549D01*
X53300052Y-93465604D01*
X53242495Y-93504063D01*
X53176056Y-93570502D01*
X53170502Y-93552195D01*
X53111537Y-93441881D01*
X53032185Y-93345190D01*
X52935494Y-93265838D01*
X52825180Y-93206873D01*
X52705482Y-93170563D01*
X52581000Y-93158303D01*
X50781000Y-93158303D01*
X50660000Y-93170220D01*
X50660000Y-91147905D01*
X50781000Y-91159822D01*
X50781000Y-91159822D01*
G37*
X50781000Y-91159822D02*
X51026674Y-91159822D01*
X51046026Y-91196026D01*
X51117201Y-91282752D01*
X51141000Y-91311751D01*
X51169998Y-91335549D01*
X53300052Y-93465604D01*
X53242495Y-93504063D01*
X53176056Y-93570502D01*
X53170502Y-93552195D01*
X53111537Y-93441881D01*
X53032185Y-93345190D01*
X52935494Y-93265838D01*
X52825180Y-93206873D01*
X52705482Y-93170563D01*
X52581000Y-93158303D01*
X50781000Y-93158303D01*
X50660000Y-93170220D01*
X50660000Y-91147905D01*
X50781000Y-91159822D01*
G36*
X53639665Y-91650750D02*
G01*
X53639675Y-91650750D01*
X53676997Y-91654426D01*
X53714320Y-91650750D01*
X60702702Y-91650750D01*
X60857445Y-91839305D01*
X61042439Y-91991125D01*
X60857445Y-92142945D01*
X60696018Y-92339645D01*
X60667065Y-92342497D01*
X60523804Y-92385954D01*
X60391775Y-92456526D01*
X60276050Y-92551499D01*
X60252252Y-92580498D01*
X59792750Y-93040000D01*
X55884802Y-93040000D01*
X55493803Y-92649002D01*
X55470001Y-92619999D01*
X55354276Y-92525026D01*
X55222247Y-92454454D01*
X55078986Y-92410997D01*
X54967333Y-92400000D01*
X54967322Y-92400000D01*
X54930000Y-92396324D01*
X54892678Y-92400000D01*
X54384052Y-92400000D01*
X53634270Y-91650219D01*
X53639665Y-91650750D01*
X53639665Y-91650750D01*
G37*
X53639665Y-91650750D02*
X53639675Y-91650750D01*
X53676997Y-91654426D01*
X53714320Y-91650750D01*
X60702702Y-91650750D01*
X60857445Y-91839305D01*
X61042439Y-91991125D01*
X60857445Y-92142945D01*
X60696018Y-92339645D01*
X60667065Y-92342497D01*
X60523804Y-92385954D01*
X60391775Y-92456526D01*
X60276050Y-92551499D01*
X60252252Y-92580498D01*
X59792750Y-93040000D01*
X55884802Y-93040000D01*
X55493803Y-92649002D01*
X55470001Y-92619999D01*
X55354276Y-92525026D01*
X55222247Y-92454454D01*
X55078986Y-92410997D01*
X54967333Y-92400000D01*
X54967322Y-92400000D01*
X54930000Y-92396324D01*
X54892678Y-92400000D01*
X54384052Y-92400000D01*
X53634270Y-91650219D01*
X53639665Y-91650750D01*
G36*
X108555001Y-92467327D02*
G01*
X108484494Y-92409463D01*
X108374180Y-92350498D01*
X108254482Y-92314188D01*
X108130000Y-92301928D01*
X108111750Y-92305000D01*
X107953002Y-92463748D01*
X107953002Y-92305000D01*
X107380000Y-92305000D01*
X107380000Y-89995000D01*
X107516411Y-89995000D01*
X107783989Y-89941775D01*
X108036043Y-89837371D01*
X108262886Y-89685799D01*
X108455799Y-89492886D01*
X108555001Y-89344420D01*
X108555001Y-92467327D01*
X108555001Y-92467327D01*
G37*
X108555001Y-92467327D02*
X108484494Y-92409463D01*
X108374180Y-92350498D01*
X108254482Y-92314188D01*
X108130000Y-92301928D01*
X108111750Y-92305000D01*
X107953002Y-92463748D01*
X107953002Y-92305000D01*
X107380000Y-92305000D01*
X107380000Y-89995000D01*
X107516411Y-89995000D01*
X107783989Y-89941775D01*
X108036043Y-89837371D01*
X108262886Y-89685799D01*
X108455799Y-89492886D01*
X108555001Y-89344420D01*
X108555001Y-92467327D01*
G36*
X54477073Y-87691002D02*
G01*
X54500872Y-87720001D01*
X54529870Y-87743799D01*
X54616597Y-87814974D01*
X54748626Y-87885546D01*
X54891887Y-87929003D01*
X55040873Y-87943677D01*
X55078206Y-87940000D01*
X58991250Y-87940000D01*
X60252256Y-89201008D01*
X60276050Y-89230001D01*
X60305043Y-89253795D01*
X60305047Y-89253799D01*
X60319967Y-89266043D01*
X60391775Y-89324974D01*
X60523804Y-89395546D01*
X60666204Y-89438742D01*
X60424207Y-89680740D01*
X56627584Y-89680740D01*
X56057595Y-89110752D01*
X56033793Y-89081749D01*
X55918068Y-88986776D01*
X55786039Y-88916204D01*
X55642778Y-88872747D01*
X55561298Y-88864722D01*
X55413312Y-88643245D01*
X55199505Y-88429438D01*
X54948095Y-88261451D01*
X54668743Y-88145739D01*
X54372184Y-88086750D01*
X54069816Y-88086750D01*
X53773257Y-88145739D01*
X53755999Y-88152888D01*
X53755999Y-87049446D01*
X53759675Y-87012123D01*
X53755999Y-86974800D01*
X53755999Y-86974791D01*
X53755468Y-86969396D01*
X54477073Y-87691002D01*
X54477073Y-87691002D01*
G37*
X54477073Y-87691002D02*
X54500872Y-87720001D01*
X54529870Y-87743799D01*
X54616597Y-87814974D01*
X54748626Y-87885546D01*
X54891887Y-87929003D01*
X55040873Y-87943677D01*
X55078206Y-87940000D01*
X58991250Y-87940000D01*
X60252256Y-89201008D01*
X60276050Y-89230001D01*
X60305043Y-89253795D01*
X60305047Y-89253799D01*
X60319967Y-89266043D01*
X60391775Y-89324974D01*
X60523804Y-89395546D01*
X60666204Y-89438742D01*
X60424207Y-89680740D01*
X56627584Y-89680740D01*
X56057595Y-89110752D01*
X56033793Y-89081749D01*
X55918068Y-88986776D01*
X55786039Y-88916204D01*
X55642778Y-88872747D01*
X55561298Y-88864722D01*
X55413312Y-88643245D01*
X55199505Y-88429438D01*
X54948095Y-88261451D01*
X54668743Y-88145739D01*
X54372184Y-88086750D01*
X54069816Y-88086750D01*
X53773257Y-88145739D01*
X53755999Y-88152888D01*
X53755999Y-87049446D01*
X53759675Y-87012123D01*
X53755999Y-86974800D01*
X53755999Y-86974791D01*
X53755468Y-86969396D01*
X54477073Y-87691002D01*
G36*
X50781000Y-86085197D02*
G01*
X51026674Y-86085197D01*
X51046026Y-86121401D01*
X51115229Y-86205724D01*
X51141000Y-86237126D01*
X51169998Y-86260924D01*
X52235999Y-87326927D01*
X52235999Y-88083678D01*
X50781000Y-88083678D01*
X50660000Y-88095595D01*
X50660000Y-86073280D01*
X50781000Y-86085197D01*
X50781000Y-86085197D01*
G37*
X50781000Y-86085197D02*
X51026674Y-86085197D01*
X51046026Y-86121401D01*
X51115229Y-86205724D01*
X51141000Y-86237126D01*
X51169998Y-86260924D01*
X52235999Y-87326927D01*
X52235999Y-88083678D01*
X50781000Y-88083678D01*
X50660000Y-88095595D01*
X50660000Y-86073280D01*
X50781000Y-86085197D01*
G36*
X107453893Y-71707670D02*
G01*
X107890498Y-71839489D01*
X108293185Y-72053600D01*
X108646612Y-72341848D01*
X108937327Y-72693261D01*
X109154242Y-73094439D01*
X109289106Y-73530113D01*
X109340000Y-74014344D01*
X109340000Y-78122025D01*
X109191013Y-77973038D01*
X108972359Y-77826939D01*
X108729405Y-77726304D01*
X108471486Y-77675000D01*
X108208514Y-77675000D01*
X107950595Y-77726304D01*
X107707641Y-77826939D01*
X107488987Y-77973038D01*
X107303038Y-78158987D01*
X107283097Y-78188831D01*
X107178555Y-78061445D01*
X106975275Y-77894618D01*
X106743354Y-77770653D01*
X106491706Y-77694317D01*
X106295579Y-77675000D01*
X106164421Y-77675000D01*
X105968294Y-77694317D01*
X105716646Y-77770653D01*
X105484725Y-77894618D01*
X105281445Y-78061445D01*
X105114618Y-78264725D01*
X104990653Y-78496646D01*
X104914317Y-78748294D01*
X104888541Y-79010000D01*
X104914317Y-79271706D01*
X104990653Y-79523354D01*
X105114618Y-79755275D01*
X105281445Y-79958555D01*
X105484725Y-80125382D01*
X105716646Y-80249347D01*
X105968294Y-80325683D01*
X106164421Y-80345000D01*
X106295579Y-80345000D01*
X106491706Y-80325683D01*
X106743354Y-80249347D01*
X106975275Y-80125382D01*
X107178555Y-79958555D01*
X107283097Y-79831169D01*
X107303038Y-79861013D01*
X107488987Y-80046962D01*
X107707641Y-80193061D01*
X107950595Y-80293696D01*
X108208514Y-80345000D01*
X108471486Y-80345000D01*
X108729405Y-80293696D01*
X108972359Y-80193061D01*
X109191013Y-80046962D01*
X109340000Y-79897975D01*
X109340000Y-85744131D01*
X109288555Y-85681445D01*
X109100000Y-85526702D01*
X109100000Y-83347325D01*
X109103676Y-83310000D01*
X109100000Y-83272675D01*
X109100000Y-83272667D01*
X109089003Y-83161014D01*
X109045546Y-83017753D01*
X108974974Y-82885724D01*
X108880001Y-82769999D01*
X108851004Y-82746202D01*
X106798794Y-80693993D01*
X106774991Y-80664989D01*
X106659266Y-80570016D01*
X106527237Y-80499444D01*
X106383976Y-80455987D01*
X106272323Y-80444990D01*
X106272312Y-80444990D01*
X106234990Y-80441314D01*
X106197668Y-80444990D01*
X98442332Y-80444990D01*
X98405009Y-80441314D01*
X98367686Y-80444990D01*
X98367677Y-80444990D01*
X98256024Y-80455987D01*
X98120879Y-80496982D01*
X98112763Y-80499444D01*
X97980733Y-80570016D01*
X97916782Y-80622500D01*
X97865009Y-80664989D01*
X97841211Y-80693987D01*
X97510850Y-81024349D01*
X97179127Y-80923722D01*
X96790000Y-80885396D01*
X96400872Y-80923722D01*
X96026698Y-81037226D01*
X95681857Y-81221547D01*
X95379602Y-81469602D01*
X95131547Y-81771857D01*
X94947226Y-82116699D01*
X94833722Y-82490873D01*
X94805000Y-82782491D01*
X94805000Y-83577510D01*
X94833722Y-83869128D01*
X94947226Y-84243302D01*
X95131547Y-84588143D01*
X95379603Y-84890398D01*
X95681858Y-85138453D01*
X96026699Y-85322774D01*
X96400873Y-85436278D01*
X96790000Y-85474604D01*
X97179128Y-85436278D01*
X97553302Y-85322774D01*
X97898143Y-85138453D01*
X98200398Y-84890398D01*
X98448453Y-84588143D01*
X98632774Y-84243302D01*
X98746278Y-83869127D01*
X98775000Y-83577509D01*
X98775000Y-82782490D01*
X98746278Y-82490872D01*
X98632774Y-82116698D01*
X98610248Y-82074554D01*
X98719812Y-81964990D01*
X99228316Y-81964990D01*
X99147226Y-82116699D01*
X99033722Y-82490873D01*
X99005000Y-82782491D01*
X99005000Y-83577510D01*
X99033722Y-83869128D01*
X99147226Y-84243302D01*
X99331547Y-84588143D01*
X99579603Y-84890398D01*
X99881858Y-85138453D01*
X100226699Y-85322774D01*
X100600873Y-85436278D01*
X100990000Y-85474604D01*
X101379128Y-85436278D01*
X101753302Y-85322774D01*
X102098143Y-85138453D01*
X102400398Y-84890398D01*
X102648453Y-84588143D01*
X102832774Y-84243302D01*
X102946278Y-83869127D01*
X102975000Y-83577509D01*
X102975000Y-82782490D01*
X102946278Y-82490872D01*
X102832774Y-82116698D01*
X102751685Y-81964990D01*
X105920189Y-81964990D01*
X107504563Y-83549365D01*
X107356940Y-83520001D01*
X107153062Y-83520001D01*
X106953103Y-83559775D01*
X106764745Y-83637796D01*
X106595227Y-83751064D01*
X106451064Y-83895227D01*
X106337796Y-84064745D01*
X106259775Y-84253103D01*
X106231548Y-84395010D01*
X104122312Y-84395010D01*
X104084989Y-84391334D01*
X104047666Y-84395010D01*
X104047657Y-84395010D01*
X103936004Y-84406007D01*
X103792743Y-84449464D01*
X103660714Y-84520036D01*
X103660712Y-84520037D01*
X103660713Y-84520037D01*
X103573986Y-84591211D01*
X103573982Y-84591215D01*
X103544989Y-84615009D01*
X103521195Y-84644002D01*
X102105199Y-86060000D01*
X71903711Y-86060000D01*
X71859774Y-86016063D01*
X71690256Y-85902795D01*
X71501898Y-85824774D01*
X71301939Y-85785000D01*
X71239803Y-85785000D01*
X70721170Y-85266368D01*
X70826699Y-85322774D01*
X71200873Y-85436278D01*
X71590000Y-85474604D01*
X71979128Y-85436278D01*
X72353302Y-85322774D01*
X72698143Y-85138453D01*
X73000398Y-84890398D01*
X73248453Y-84588143D01*
X73432774Y-84243302D01*
X73546278Y-83869127D01*
X73575000Y-83577509D01*
X73575000Y-82782491D01*
X73805000Y-82782491D01*
X73805000Y-83577510D01*
X73833722Y-83869128D01*
X73947226Y-84243302D01*
X74131547Y-84588143D01*
X74379603Y-84890398D01*
X74681858Y-85138453D01*
X75026699Y-85322774D01*
X75400873Y-85436278D01*
X75790000Y-85474604D01*
X76179128Y-85436278D01*
X76553302Y-85322774D01*
X76898143Y-85138453D01*
X77200398Y-84890398D01*
X77448453Y-84588143D01*
X77632774Y-84243302D01*
X77690217Y-84053936D01*
X78111449Y-84053936D01*
X78259514Y-84409395D01*
X78474081Y-84729138D01*
X78746904Y-85000877D01*
X79067498Y-85214170D01*
X79126751Y-85267464D01*
X79417000Y-85214030D01*
X79417000Y-83753000D01*
X80563000Y-83753000D01*
X80563000Y-85214030D01*
X80853249Y-85267464D01*
X80912502Y-85214170D01*
X81233096Y-85000877D01*
X81505919Y-84729138D01*
X81720486Y-84409395D01*
X81868551Y-84053936D01*
X82311449Y-84053936D01*
X82459514Y-84409395D01*
X82674081Y-84729138D01*
X82946904Y-85000877D01*
X83267498Y-85214170D01*
X83326751Y-85267464D01*
X83617000Y-85214030D01*
X83617000Y-83753000D01*
X84763000Y-83753000D01*
X84763000Y-85214030D01*
X85053249Y-85267464D01*
X85112502Y-85214170D01*
X85433096Y-85000877D01*
X85705919Y-84729138D01*
X85920486Y-84409395D01*
X86068551Y-84053936D01*
X86511449Y-84053936D01*
X86659514Y-84409395D01*
X86874081Y-84729138D01*
X87146904Y-85000877D01*
X87467498Y-85214170D01*
X87526751Y-85267464D01*
X87817000Y-85214030D01*
X87817000Y-83753000D01*
X88963000Y-83753000D01*
X88963000Y-85214030D01*
X89253249Y-85267464D01*
X89312502Y-85214170D01*
X89633096Y-85000877D01*
X89905919Y-84729138D01*
X90120486Y-84409395D01*
X90268551Y-84053936D01*
X90711449Y-84053936D01*
X90859514Y-84409395D01*
X91074081Y-84729138D01*
X91346904Y-85000877D01*
X91667498Y-85214170D01*
X91726751Y-85267464D01*
X92017000Y-85214030D01*
X92017000Y-83753000D01*
X93163000Y-83753000D01*
X93163000Y-85214030D01*
X93453249Y-85267464D01*
X93512502Y-85214170D01*
X93833096Y-85000877D01*
X94105919Y-84729138D01*
X94320486Y-84409395D01*
X94468551Y-84053936D01*
X94376456Y-83753000D01*
X93163000Y-83753000D01*
X92017000Y-83753000D01*
X90803544Y-83753000D01*
X90711449Y-84053936D01*
X90268551Y-84053936D01*
X90176456Y-83753000D01*
X88963000Y-83753000D01*
X87817000Y-83753000D01*
X86603544Y-83753000D01*
X86511449Y-84053936D01*
X86068551Y-84053936D01*
X85976456Y-83753000D01*
X84763000Y-83753000D01*
X83617000Y-83753000D01*
X82403544Y-83753000D01*
X82311449Y-84053936D01*
X81868551Y-84053936D01*
X81776456Y-83753000D01*
X80563000Y-83753000D01*
X79417000Y-83753000D01*
X78203544Y-83753000D01*
X78111449Y-84053936D01*
X77690217Y-84053936D01*
X77746278Y-83869127D01*
X77775000Y-83577509D01*
X77775000Y-82782490D01*
X77746278Y-82490872D01*
X77690218Y-82306064D01*
X78111449Y-82306064D01*
X78203544Y-82607000D01*
X79417000Y-82607000D01*
X79417000Y-81145970D01*
X80563000Y-81145970D01*
X80563000Y-82607000D01*
X81776456Y-82607000D01*
X81868551Y-82306064D01*
X82311449Y-82306064D01*
X82403544Y-82607000D01*
X83617000Y-82607000D01*
X83617000Y-81145970D01*
X84763000Y-81145970D01*
X84763000Y-82607000D01*
X85976456Y-82607000D01*
X86068551Y-82306064D01*
X86511449Y-82306064D01*
X86603544Y-82607000D01*
X87817000Y-82607000D01*
X87817000Y-81145970D01*
X88963000Y-81145970D01*
X88963000Y-82607000D01*
X90176456Y-82607000D01*
X90268551Y-82306064D01*
X90711449Y-82306064D01*
X90803544Y-82607000D01*
X92017000Y-82607000D01*
X92017000Y-81145970D01*
X93163000Y-81145970D01*
X93163000Y-82607000D01*
X94376456Y-82607000D01*
X94468551Y-82306064D01*
X94320486Y-81950605D01*
X94105919Y-81630862D01*
X93833096Y-81359123D01*
X93512502Y-81145830D01*
X93453249Y-81092536D01*
X93163000Y-81145970D01*
X92017000Y-81145970D01*
X91726751Y-81092536D01*
X91667498Y-81145830D01*
X91346904Y-81359123D01*
X91074081Y-81630862D01*
X90859514Y-81950605D01*
X90711449Y-82306064D01*
X90268551Y-82306064D01*
X90120486Y-81950605D01*
X89905919Y-81630862D01*
X89633096Y-81359123D01*
X89312502Y-81145830D01*
X89253249Y-81092536D01*
X88963000Y-81145970D01*
X87817000Y-81145970D01*
X87526751Y-81092536D01*
X87467498Y-81145830D01*
X87146904Y-81359123D01*
X86874081Y-81630862D01*
X86659514Y-81950605D01*
X86511449Y-82306064D01*
X86068551Y-82306064D01*
X85920486Y-81950605D01*
X85705919Y-81630862D01*
X85433096Y-81359123D01*
X85112502Y-81145830D01*
X85053249Y-81092536D01*
X84763000Y-81145970D01*
X83617000Y-81145970D01*
X83326751Y-81092536D01*
X83267498Y-81145830D01*
X82946904Y-81359123D01*
X82674081Y-81630862D01*
X82459514Y-81950605D01*
X82311449Y-82306064D01*
X81868551Y-82306064D01*
X81720486Y-81950605D01*
X81505919Y-81630862D01*
X81233096Y-81359123D01*
X80912502Y-81145830D01*
X80853249Y-81092536D01*
X80563000Y-81145970D01*
X79417000Y-81145970D01*
X79126751Y-81092536D01*
X79067498Y-81145830D01*
X78746904Y-81359123D01*
X78474081Y-81630862D01*
X78259514Y-81950605D01*
X78111449Y-82306064D01*
X77690218Y-82306064D01*
X77632774Y-82116698D01*
X77448453Y-81771857D01*
X77200398Y-81469602D01*
X76898143Y-81221547D01*
X76553301Y-81037226D01*
X76179127Y-80923722D01*
X75790000Y-80885396D01*
X75400872Y-80923722D01*
X75026698Y-81037226D01*
X74681857Y-81221547D01*
X74379602Y-81469602D01*
X74131547Y-81771857D01*
X73947226Y-82116699D01*
X73833722Y-82490873D01*
X73805000Y-82782491D01*
X73575000Y-82782491D01*
X73575000Y-82782490D01*
X73546278Y-82490872D01*
X73432774Y-82116698D01*
X73248453Y-81771857D01*
X73000398Y-81469602D01*
X72698143Y-81221547D01*
X72353301Y-81037226D01*
X71979127Y-80923722D01*
X71590000Y-80885396D01*
X71200872Y-80923722D01*
X70826698Y-81037226D01*
X70481857Y-81221547D01*
X70179602Y-81469602D01*
X69931547Y-81771857D01*
X69805217Y-82008205D01*
X69770556Y-81893942D01*
X69714203Y-81788514D01*
X69699984Y-81761912D01*
X69628809Y-81675186D01*
X69605011Y-81646188D01*
X69576014Y-81622391D01*
X68647615Y-80693992D01*
X68623812Y-80664989D01*
X68508087Y-80570016D01*
X68376058Y-80499444D01*
X68232797Y-80455987D01*
X68121144Y-80444990D01*
X68121133Y-80444990D01*
X68083811Y-80441314D01*
X68046489Y-80444990D01*
X56268292Y-80444990D01*
X55704731Y-79881430D01*
X55756000Y-79623684D01*
X55756000Y-79321316D01*
X55697011Y-79024757D01*
X55581299Y-78745405D01*
X55413312Y-78493995D01*
X55199505Y-78280188D01*
X54948095Y-78112201D01*
X54668743Y-77996489D01*
X54372184Y-77937500D01*
X54069816Y-77937500D01*
X53773257Y-77996489D01*
X53493905Y-78112201D01*
X53242495Y-78280188D01*
X53176056Y-78346627D01*
X53170502Y-78328320D01*
X53111537Y-78218006D01*
X53032185Y-78121315D01*
X52935494Y-78041963D01*
X52825180Y-77982998D01*
X52705482Y-77946688D01*
X52581000Y-77934428D01*
X50781000Y-77934428D01*
X50660000Y-77946345D01*
X50660000Y-76280001D01*
X57001928Y-76280001D01*
X57001928Y-79079999D01*
X57018992Y-79253253D01*
X57069529Y-79419850D01*
X57151595Y-79573386D01*
X57262039Y-79707961D01*
X57396614Y-79818405D01*
X57550150Y-79900471D01*
X57716747Y-79951008D01*
X57890001Y-79968072D01*
X60089999Y-79968072D01*
X60263253Y-79951008D01*
X60429850Y-79900471D01*
X60583386Y-79818405D01*
X60717961Y-79707961D01*
X60828405Y-79573386D01*
X60910471Y-79419850D01*
X60961008Y-79253253D01*
X60978072Y-79079999D01*
X60978072Y-77282491D01*
X61205000Y-77282491D01*
X61205000Y-78077510D01*
X61233722Y-78369128D01*
X61347226Y-78743302D01*
X61531547Y-79088143D01*
X61779603Y-79390398D01*
X62081858Y-79638453D01*
X62426699Y-79822774D01*
X62800873Y-79936278D01*
X63190000Y-79974604D01*
X63579128Y-79936278D01*
X63953302Y-79822774D01*
X64298143Y-79638453D01*
X64600398Y-79390398D01*
X64848453Y-79088143D01*
X65032774Y-78743302D01*
X65146278Y-78369127D01*
X65175000Y-78077509D01*
X65175000Y-77282491D01*
X65405000Y-77282491D01*
X65405000Y-78077510D01*
X65433722Y-78369128D01*
X65547226Y-78743302D01*
X65731547Y-79088143D01*
X65979603Y-79390398D01*
X66281858Y-79638453D01*
X66626699Y-79822774D01*
X67000873Y-79936278D01*
X67390000Y-79974604D01*
X67779128Y-79936278D01*
X68153302Y-79822774D01*
X68498143Y-79638453D01*
X68800398Y-79390398D01*
X69048453Y-79088143D01*
X69232774Y-78743302D01*
X69346278Y-78369127D01*
X69375000Y-78077509D01*
X69375000Y-77282491D01*
X69605000Y-77282491D01*
X69605000Y-78077510D01*
X69633722Y-78369128D01*
X69747226Y-78743302D01*
X69931547Y-79088143D01*
X70179603Y-79390398D01*
X70481858Y-79638453D01*
X70826699Y-79822774D01*
X71200873Y-79936278D01*
X71590000Y-79974604D01*
X71979128Y-79936278D01*
X72353302Y-79822774D01*
X72698143Y-79638453D01*
X73000398Y-79390398D01*
X73248453Y-79088143D01*
X73432774Y-78743302D01*
X73490217Y-78553936D01*
X73911449Y-78553936D01*
X74059514Y-78909395D01*
X74274081Y-79229138D01*
X74546904Y-79500877D01*
X74867498Y-79714170D01*
X74926751Y-79767464D01*
X75217000Y-79714030D01*
X75217000Y-78253000D01*
X76363000Y-78253000D01*
X76363000Y-79714030D01*
X76653249Y-79767464D01*
X76712502Y-79714170D01*
X77033096Y-79500877D01*
X77305919Y-79229138D01*
X77520486Y-78909395D01*
X77668551Y-78553936D01*
X78111449Y-78553936D01*
X78259514Y-78909395D01*
X78474081Y-79229138D01*
X78746904Y-79500877D01*
X79067498Y-79714170D01*
X79126751Y-79767464D01*
X79417000Y-79714030D01*
X79417000Y-78253000D01*
X80563000Y-78253000D01*
X80563000Y-79714030D01*
X80853249Y-79767464D01*
X80912502Y-79714170D01*
X81233096Y-79500877D01*
X81505919Y-79229138D01*
X81720486Y-78909395D01*
X81868551Y-78553936D01*
X82311449Y-78553936D01*
X82459514Y-78909395D01*
X82674081Y-79229138D01*
X82946904Y-79500877D01*
X83267498Y-79714170D01*
X83326751Y-79767464D01*
X83617000Y-79714030D01*
X83617000Y-78253000D01*
X84763000Y-78253000D01*
X84763000Y-79714030D01*
X85053249Y-79767464D01*
X85112502Y-79714170D01*
X85433096Y-79500877D01*
X85705919Y-79229138D01*
X85920486Y-78909395D01*
X86068551Y-78553936D01*
X86511449Y-78553936D01*
X86659514Y-78909395D01*
X86874081Y-79229138D01*
X87146904Y-79500877D01*
X87467498Y-79714170D01*
X87526751Y-79767464D01*
X87817000Y-79714030D01*
X87817000Y-78253000D01*
X88963000Y-78253000D01*
X88963000Y-79714030D01*
X89253249Y-79767464D01*
X89312502Y-79714170D01*
X89633096Y-79500877D01*
X89905919Y-79229138D01*
X90120486Y-78909395D01*
X90268551Y-78553936D01*
X90711449Y-78553936D01*
X90859514Y-78909395D01*
X91074081Y-79229138D01*
X91346904Y-79500877D01*
X91667498Y-79714170D01*
X91726751Y-79767464D01*
X92017000Y-79714030D01*
X92017000Y-78253000D01*
X93163000Y-78253000D01*
X93163000Y-79714030D01*
X93453249Y-79767464D01*
X93512502Y-79714170D01*
X93833096Y-79500877D01*
X94105919Y-79229138D01*
X94320486Y-78909395D01*
X94468551Y-78553936D01*
X94376456Y-78253000D01*
X93163000Y-78253000D01*
X92017000Y-78253000D01*
X90803544Y-78253000D01*
X90711449Y-78553936D01*
X90268551Y-78553936D01*
X90176456Y-78253000D01*
X88963000Y-78253000D01*
X87817000Y-78253000D01*
X86603544Y-78253000D01*
X86511449Y-78553936D01*
X86068551Y-78553936D01*
X85976456Y-78253000D01*
X84763000Y-78253000D01*
X83617000Y-78253000D01*
X82403544Y-78253000D01*
X82311449Y-78553936D01*
X81868551Y-78553936D01*
X81776456Y-78253000D01*
X80563000Y-78253000D01*
X79417000Y-78253000D01*
X78203544Y-78253000D01*
X78111449Y-78553936D01*
X77668551Y-78553936D01*
X77576456Y-78253000D01*
X76363000Y-78253000D01*
X75217000Y-78253000D01*
X74003544Y-78253000D01*
X73911449Y-78553936D01*
X73490217Y-78553936D01*
X73546278Y-78369127D01*
X73575000Y-78077509D01*
X73575000Y-77282491D01*
X94805000Y-77282491D01*
X94805000Y-78077510D01*
X94833722Y-78369128D01*
X94947226Y-78743302D01*
X95131547Y-79088143D01*
X95379603Y-79390398D01*
X95681858Y-79638453D01*
X96026699Y-79822774D01*
X96400873Y-79936278D01*
X96790000Y-79974604D01*
X97179128Y-79936278D01*
X97553302Y-79822774D01*
X97898143Y-79638453D01*
X98200398Y-79390398D01*
X98448453Y-79088143D01*
X98632774Y-78743302D01*
X98746278Y-78369127D01*
X98775000Y-78077509D01*
X98775000Y-77282491D01*
X99005000Y-77282491D01*
X99005000Y-78077510D01*
X99033722Y-78369128D01*
X99147226Y-78743302D01*
X99331547Y-79088143D01*
X99579603Y-79390398D01*
X99881858Y-79638453D01*
X100226699Y-79822774D01*
X100600873Y-79936278D01*
X100990000Y-79974604D01*
X101379128Y-79936278D01*
X101753302Y-79822774D01*
X102098143Y-79638453D01*
X102400398Y-79390398D01*
X102648453Y-79088143D01*
X102832774Y-78743302D01*
X102946278Y-78369127D01*
X102975000Y-78077509D01*
X102975000Y-77282490D01*
X102946278Y-76990872D01*
X102832774Y-76616698D01*
X102648453Y-76271857D01*
X102400398Y-75969602D01*
X102098143Y-75721547D01*
X101753301Y-75537226D01*
X101379127Y-75423722D01*
X100990000Y-75385396D01*
X100600872Y-75423722D01*
X100226698Y-75537226D01*
X99881857Y-75721547D01*
X99579602Y-75969602D01*
X99331547Y-76271857D01*
X99147226Y-76616699D01*
X99033722Y-76990873D01*
X99005000Y-77282491D01*
X98775000Y-77282491D01*
X98775000Y-77282490D01*
X98746278Y-76990872D01*
X98632774Y-76616698D01*
X98448453Y-76271857D01*
X98200398Y-75969602D01*
X97898143Y-75721547D01*
X97553301Y-75537226D01*
X97179127Y-75423722D01*
X96790000Y-75385396D01*
X96400872Y-75423722D01*
X96026698Y-75537226D01*
X95681857Y-75721547D01*
X95379602Y-75969602D01*
X95131547Y-76271857D01*
X94947226Y-76616699D01*
X94833722Y-76990873D01*
X94805000Y-77282491D01*
X73575000Y-77282491D01*
X73575000Y-77282490D01*
X73546278Y-76990872D01*
X73490218Y-76806064D01*
X73911449Y-76806064D01*
X74003544Y-77107000D01*
X75217000Y-77107000D01*
X75217000Y-75645970D01*
X76363000Y-75645970D01*
X76363000Y-77107000D01*
X77576456Y-77107000D01*
X77668551Y-76806064D01*
X78111449Y-76806064D01*
X78203544Y-77107000D01*
X79417000Y-77107000D01*
X79417000Y-75645970D01*
X80563000Y-75645970D01*
X80563000Y-77107000D01*
X81776456Y-77107000D01*
X81868551Y-76806064D01*
X82311449Y-76806064D01*
X82403544Y-77107000D01*
X83617000Y-77107000D01*
X83617000Y-75645970D01*
X84763000Y-75645970D01*
X84763000Y-77107000D01*
X85976456Y-77107000D01*
X86068551Y-76806064D01*
X86511449Y-76806064D01*
X86603544Y-77107000D01*
X87817000Y-77107000D01*
X87817000Y-75645970D01*
X88963000Y-75645970D01*
X88963000Y-77107000D01*
X90176456Y-77107000D01*
X90268551Y-76806064D01*
X90711449Y-76806064D01*
X90803544Y-77107000D01*
X92017000Y-77107000D01*
X92017000Y-75645970D01*
X93163000Y-75645970D01*
X93163000Y-77107000D01*
X94376456Y-77107000D01*
X94468551Y-76806064D01*
X94320486Y-76450605D01*
X94105919Y-76130862D01*
X93833096Y-75859123D01*
X93512502Y-75645830D01*
X93453249Y-75592536D01*
X93163000Y-75645970D01*
X92017000Y-75645970D01*
X91726751Y-75592536D01*
X91667498Y-75645830D01*
X91346904Y-75859123D01*
X91074081Y-76130862D01*
X90859514Y-76450605D01*
X90711449Y-76806064D01*
X90268551Y-76806064D01*
X90120486Y-76450605D01*
X89905919Y-76130862D01*
X89633096Y-75859123D01*
X89312502Y-75645830D01*
X89253249Y-75592536D01*
X88963000Y-75645970D01*
X87817000Y-75645970D01*
X87526751Y-75592536D01*
X87467498Y-75645830D01*
X87146904Y-75859123D01*
X86874081Y-76130862D01*
X86659514Y-76450605D01*
X86511449Y-76806064D01*
X86068551Y-76806064D01*
X85920486Y-76450605D01*
X85705919Y-76130862D01*
X85433096Y-75859123D01*
X85112502Y-75645830D01*
X85053249Y-75592536D01*
X84763000Y-75645970D01*
X83617000Y-75645970D01*
X83326751Y-75592536D01*
X83267498Y-75645830D01*
X82946904Y-75859123D01*
X82674081Y-76130862D01*
X82459514Y-76450605D01*
X82311449Y-76806064D01*
X81868551Y-76806064D01*
X81720486Y-76450605D01*
X81505919Y-76130862D01*
X81233096Y-75859123D01*
X80912502Y-75645830D01*
X80853249Y-75592536D01*
X80563000Y-75645970D01*
X79417000Y-75645970D01*
X79126751Y-75592536D01*
X79067498Y-75645830D01*
X78746904Y-75859123D01*
X78474081Y-76130862D01*
X78259514Y-76450605D01*
X78111449Y-76806064D01*
X77668551Y-76806064D01*
X77520486Y-76450605D01*
X77305919Y-76130862D01*
X77033096Y-75859123D01*
X76712502Y-75645830D01*
X76653249Y-75592536D01*
X76363000Y-75645970D01*
X75217000Y-75645970D01*
X74926751Y-75592536D01*
X74867498Y-75645830D01*
X74546904Y-75859123D01*
X74274081Y-76130862D01*
X74059514Y-76450605D01*
X73911449Y-76806064D01*
X73490218Y-76806064D01*
X73432774Y-76616698D01*
X73248453Y-76271857D01*
X73000398Y-75969602D01*
X72698143Y-75721547D01*
X72353301Y-75537226D01*
X71979127Y-75423722D01*
X71590000Y-75385396D01*
X71200872Y-75423722D01*
X70826698Y-75537226D01*
X70481857Y-75721547D01*
X70179602Y-75969602D01*
X69931547Y-76271857D01*
X69747226Y-76616699D01*
X69633722Y-76990873D01*
X69605000Y-77282491D01*
X69375000Y-77282491D01*
X69375000Y-77282490D01*
X69346278Y-76990872D01*
X69232774Y-76616698D01*
X69048453Y-76271857D01*
X68800398Y-75969602D01*
X68498143Y-75721547D01*
X68153301Y-75537226D01*
X67779127Y-75423722D01*
X67390000Y-75385396D01*
X67000872Y-75423722D01*
X66626698Y-75537226D01*
X66281857Y-75721547D01*
X65979602Y-75969602D01*
X65731547Y-76271857D01*
X65547226Y-76616699D01*
X65433722Y-76990873D01*
X65405000Y-77282491D01*
X65175000Y-77282491D01*
X65175000Y-77282490D01*
X65146278Y-76990872D01*
X65032774Y-76616698D01*
X64848453Y-76271857D01*
X64600398Y-75969602D01*
X64298143Y-75721547D01*
X63953301Y-75537226D01*
X63579127Y-75423722D01*
X63190000Y-75385396D01*
X62800872Y-75423722D01*
X62426698Y-75537226D01*
X62081857Y-75721547D01*
X61779602Y-75969602D01*
X61531547Y-76271857D01*
X61347226Y-76616699D01*
X61233722Y-76990873D01*
X61205000Y-77282491D01*
X60978072Y-77282491D01*
X60978072Y-76280001D01*
X60961008Y-76106747D01*
X60910471Y-75940150D01*
X60828405Y-75786614D01*
X60717961Y-75652039D01*
X60583386Y-75541595D01*
X60429850Y-75459529D01*
X60263253Y-75408992D01*
X60089999Y-75391928D01*
X57890001Y-75391928D01*
X57716747Y-75408992D01*
X57550150Y-75459529D01*
X57396614Y-75541595D01*
X57262039Y-75652039D01*
X57151595Y-75786614D01*
X57069529Y-75940150D01*
X57018992Y-76106747D01*
X57001928Y-76280001D01*
X50660000Y-76280001D01*
X50660000Y-74032279D01*
X50682334Y-73804495D01*
X51015000Y-73804495D01*
X51015000Y-74195505D01*
X51091282Y-74579003D01*
X51240915Y-74940250D01*
X51458149Y-75265364D01*
X51734636Y-75541851D01*
X52059750Y-75759085D01*
X52420997Y-75908718D01*
X52804495Y-75985000D01*
X53195505Y-75985000D01*
X53579003Y-75908718D01*
X53940250Y-75759085D01*
X54265364Y-75541851D01*
X54541851Y-75265364D01*
X54759085Y-74940250D01*
X54908718Y-74579003D01*
X54985000Y-74195505D01*
X54985000Y-73804495D01*
X54973066Y-73744495D01*
X104975000Y-73744495D01*
X104975000Y-74135505D01*
X105051282Y-74519003D01*
X105200915Y-74880250D01*
X105418149Y-75205364D01*
X105694636Y-75481851D01*
X106019750Y-75699085D01*
X106380997Y-75848718D01*
X106764495Y-75925000D01*
X107155505Y-75925000D01*
X107539003Y-75848718D01*
X107900250Y-75699085D01*
X108225364Y-75481851D01*
X108501851Y-75205364D01*
X108719085Y-74880250D01*
X108868718Y-74519003D01*
X108945000Y-74135505D01*
X108945000Y-73744495D01*
X108868718Y-73360997D01*
X108719085Y-72999750D01*
X108501851Y-72674636D01*
X108225364Y-72398149D01*
X107900250Y-72180915D01*
X107539003Y-72031282D01*
X107155505Y-71955000D01*
X106764495Y-71955000D01*
X106380997Y-72031282D01*
X106019750Y-72180915D01*
X105694636Y-72398149D01*
X105418149Y-72674636D01*
X105200915Y-72999750D01*
X105051282Y-73360997D01*
X104975000Y-73744495D01*
X54973066Y-73744495D01*
X54908718Y-73420997D01*
X54759085Y-73059750D01*
X54541851Y-72734636D01*
X54265364Y-72458149D01*
X53940250Y-72240915D01*
X53579003Y-72091282D01*
X53195505Y-72015000D01*
X52804495Y-72015000D01*
X52420997Y-72091282D01*
X52059750Y-72240915D01*
X51734636Y-72458149D01*
X51458149Y-72734636D01*
X51240915Y-73059750D01*
X51091282Y-73420997D01*
X51015000Y-73804495D01*
X50682334Y-73804495D01*
X50707670Y-73546107D01*
X50839489Y-73109502D01*
X51053600Y-72706815D01*
X51341848Y-72353388D01*
X51693261Y-72062673D01*
X52094439Y-71845758D01*
X52530113Y-71710894D01*
X53014344Y-71660000D01*
X106967721Y-71660000D01*
X107453893Y-71707670D01*
X107453893Y-71707670D01*
G37*
X107453893Y-71707670D02*
X107890498Y-71839489D01*
X108293185Y-72053600D01*
X108646612Y-72341848D01*
X108937327Y-72693261D01*
X109154242Y-73094439D01*
X109289106Y-73530113D01*
X109340000Y-74014344D01*
X109340000Y-78122025D01*
X109191013Y-77973038D01*
X108972359Y-77826939D01*
X108729405Y-77726304D01*
X108471486Y-77675000D01*
X108208514Y-77675000D01*
X107950595Y-77726304D01*
X107707641Y-77826939D01*
X107488987Y-77973038D01*
X107303038Y-78158987D01*
X107283097Y-78188831D01*
X107178555Y-78061445D01*
X106975275Y-77894618D01*
X106743354Y-77770653D01*
X106491706Y-77694317D01*
X106295579Y-77675000D01*
X106164421Y-77675000D01*
X105968294Y-77694317D01*
X105716646Y-77770653D01*
X105484725Y-77894618D01*
X105281445Y-78061445D01*
X105114618Y-78264725D01*
X104990653Y-78496646D01*
X104914317Y-78748294D01*
X104888541Y-79010000D01*
X104914317Y-79271706D01*
X104990653Y-79523354D01*
X105114618Y-79755275D01*
X105281445Y-79958555D01*
X105484725Y-80125382D01*
X105716646Y-80249347D01*
X105968294Y-80325683D01*
X106164421Y-80345000D01*
X106295579Y-80345000D01*
X106491706Y-80325683D01*
X106743354Y-80249347D01*
X106975275Y-80125382D01*
X107178555Y-79958555D01*
X107283097Y-79831169D01*
X107303038Y-79861013D01*
X107488987Y-80046962D01*
X107707641Y-80193061D01*
X107950595Y-80293696D01*
X108208514Y-80345000D01*
X108471486Y-80345000D01*
X108729405Y-80293696D01*
X108972359Y-80193061D01*
X109191013Y-80046962D01*
X109340000Y-79897975D01*
X109340000Y-85744131D01*
X109288555Y-85681445D01*
X109100000Y-85526702D01*
X109100000Y-83347325D01*
X109103676Y-83310000D01*
X109100000Y-83272675D01*
X109100000Y-83272667D01*
X109089003Y-83161014D01*
X109045546Y-83017753D01*
X108974974Y-82885724D01*
X108880001Y-82769999D01*
X108851004Y-82746202D01*
X106798794Y-80693993D01*
X106774991Y-80664989D01*
X106659266Y-80570016D01*
X106527237Y-80499444D01*
X106383976Y-80455987D01*
X106272323Y-80444990D01*
X106272312Y-80444990D01*
X106234990Y-80441314D01*
X106197668Y-80444990D01*
X98442332Y-80444990D01*
X98405009Y-80441314D01*
X98367686Y-80444990D01*
X98367677Y-80444990D01*
X98256024Y-80455987D01*
X98120879Y-80496982D01*
X98112763Y-80499444D01*
X97980733Y-80570016D01*
X97916782Y-80622500D01*
X97865009Y-80664989D01*
X97841211Y-80693987D01*
X97510850Y-81024349D01*
X97179127Y-80923722D01*
X96790000Y-80885396D01*
X96400872Y-80923722D01*
X96026698Y-81037226D01*
X95681857Y-81221547D01*
X95379602Y-81469602D01*
X95131547Y-81771857D01*
X94947226Y-82116699D01*
X94833722Y-82490873D01*
X94805000Y-82782491D01*
X94805000Y-83577510D01*
X94833722Y-83869128D01*
X94947226Y-84243302D01*
X95131547Y-84588143D01*
X95379603Y-84890398D01*
X95681858Y-85138453D01*
X96026699Y-85322774D01*
X96400873Y-85436278D01*
X96790000Y-85474604D01*
X97179128Y-85436278D01*
X97553302Y-85322774D01*
X97898143Y-85138453D01*
X98200398Y-84890398D01*
X98448453Y-84588143D01*
X98632774Y-84243302D01*
X98746278Y-83869127D01*
X98775000Y-83577509D01*
X98775000Y-82782490D01*
X98746278Y-82490872D01*
X98632774Y-82116698D01*
X98610248Y-82074554D01*
X98719812Y-81964990D01*
X99228316Y-81964990D01*
X99147226Y-82116699D01*
X99033722Y-82490873D01*
X99005000Y-82782491D01*
X99005000Y-83577510D01*
X99033722Y-83869128D01*
X99147226Y-84243302D01*
X99331547Y-84588143D01*
X99579603Y-84890398D01*
X99881858Y-85138453D01*
X100226699Y-85322774D01*
X100600873Y-85436278D01*
X100990000Y-85474604D01*
X101379128Y-85436278D01*
X101753302Y-85322774D01*
X102098143Y-85138453D01*
X102400398Y-84890398D01*
X102648453Y-84588143D01*
X102832774Y-84243302D01*
X102946278Y-83869127D01*
X102975000Y-83577509D01*
X102975000Y-82782490D01*
X102946278Y-82490872D01*
X102832774Y-82116698D01*
X102751685Y-81964990D01*
X105920189Y-81964990D01*
X107504563Y-83549365D01*
X107356940Y-83520001D01*
X107153062Y-83520001D01*
X106953103Y-83559775D01*
X106764745Y-83637796D01*
X106595227Y-83751064D01*
X106451064Y-83895227D01*
X106337796Y-84064745D01*
X106259775Y-84253103D01*
X106231548Y-84395010D01*
X104122312Y-84395010D01*
X104084989Y-84391334D01*
X104047666Y-84395010D01*
X104047657Y-84395010D01*
X103936004Y-84406007D01*
X103792743Y-84449464D01*
X103660714Y-84520036D01*
X103660712Y-84520037D01*
X103660713Y-84520037D01*
X103573986Y-84591211D01*
X103573982Y-84591215D01*
X103544989Y-84615009D01*
X103521195Y-84644002D01*
X102105199Y-86060000D01*
X71903711Y-86060000D01*
X71859774Y-86016063D01*
X71690256Y-85902795D01*
X71501898Y-85824774D01*
X71301939Y-85785000D01*
X71239803Y-85785000D01*
X70721170Y-85266368D01*
X70826699Y-85322774D01*
X71200873Y-85436278D01*
X71590000Y-85474604D01*
X71979128Y-85436278D01*
X72353302Y-85322774D01*
X72698143Y-85138453D01*
X73000398Y-84890398D01*
X73248453Y-84588143D01*
X73432774Y-84243302D01*
X73546278Y-83869127D01*
X73575000Y-83577509D01*
X73575000Y-82782491D01*
X73805000Y-82782491D01*
X73805000Y-83577510D01*
X73833722Y-83869128D01*
X73947226Y-84243302D01*
X74131547Y-84588143D01*
X74379603Y-84890398D01*
X74681858Y-85138453D01*
X75026699Y-85322774D01*
X75400873Y-85436278D01*
X75790000Y-85474604D01*
X76179128Y-85436278D01*
X76553302Y-85322774D01*
X76898143Y-85138453D01*
X77200398Y-84890398D01*
X77448453Y-84588143D01*
X77632774Y-84243302D01*
X77690217Y-84053936D01*
X78111449Y-84053936D01*
X78259514Y-84409395D01*
X78474081Y-84729138D01*
X78746904Y-85000877D01*
X79067498Y-85214170D01*
X79126751Y-85267464D01*
X79417000Y-85214030D01*
X79417000Y-83753000D01*
X80563000Y-83753000D01*
X80563000Y-85214030D01*
X80853249Y-85267464D01*
X80912502Y-85214170D01*
X81233096Y-85000877D01*
X81505919Y-84729138D01*
X81720486Y-84409395D01*
X81868551Y-84053936D01*
X82311449Y-84053936D01*
X82459514Y-84409395D01*
X82674081Y-84729138D01*
X82946904Y-85000877D01*
X83267498Y-85214170D01*
X83326751Y-85267464D01*
X83617000Y-85214030D01*
X83617000Y-83753000D01*
X84763000Y-83753000D01*
X84763000Y-85214030D01*
X85053249Y-85267464D01*
X85112502Y-85214170D01*
X85433096Y-85000877D01*
X85705919Y-84729138D01*
X85920486Y-84409395D01*
X86068551Y-84053936D01*
X86511449Y-84053936D01*
X86659514Y-84409395D01*
X86874081Y-84729138D01*
X87146904Y-85000877D01*
X87467498Y-85214170D01*
X87526751Y-85267464D01*
X87817000Y-85214030D01*
X87817000Y-83753000D01*
X88963000Y-83753000D01*
X88963000Y-85214030D01*
X89253249Y-85267464D01*
X89312502Y-85214170D01*
X89633096Y-85000877D01*
X89905919Y-84729138D01*
X90120486Y-84409395D01*
X90268551Y-84053936D01*
X90711449Y-84053936D01*
X90859514Y-84409395D01*
X91074081Y-84729138D01*
X91346904Y-85000877D01*
X91667498Y-85214170D01*
X91726751Y-85267464D01*
X92017000Y-85214030D01*
X92017000Y-83753000D01*
X93163000Y-83753000D01*
X93163000Y-85214030D01*
X93453249Y-85267464D01*
X93512502Y-85214170D01*
X93833096Y-85000877D01*
X94105919Y-84729138D01*
X94320486Y-84409395D01*
X94468551Y-84053936D01*
X94376456Y-83753000D01*
X93163000Y-83753000D01*
X92017000Y-83753000D01*
X90803544Y-83753000D01*
X90711449Y-84053936D01*
X90268551Y-84053936D01*
X90176456Y-83753000D01*
X88963000Y-83753000D01*
X87817000Y-83753000D01*
X86603544Y-83753000D01*
X86511449Y-84053936D01*
X86068551Y-84053936D01*
X85976456Y-83753000D01*
X84763000Y-83753000D01*
X83617000Y-83753000D01*
X82403544Y-83753000D01*
X82311449Y-84053936D01*
X81868551Y-84053936D01*
X81776456Y-83753000D01*
X80563000Y-83753000D01*
X79417000Y-83753000D01*
X78203544Y-83753000D01*
X78111449Y-84053936D01*
X77690217Y-84053936D01*
X77746278Y-83869127D01*
X77775000Y-83577509D01*
X77775000Y-82782490D01*
X77746278Y-82490872D01*
X77690218Y-82306064D01*
X78111449Y-82306064D01*
X78203544Y-82607000D01*
X79417000Y-82607000D01*
X79417000Y-81145970D01*
X80563000Y-81145970D01*
X80563000Y-82607000D01*
X81776456Y-82607000D01*
X81868551Y-82306064D01*
X82311449Y-82306064D01*
X82403544Y-82607000D01*
X83617000Y-82607000D01*
X83617000Y-81145970D01*
X84763000Y-81145970D01*
X84763000Y-82607000D01*
X85976456Y-82607000D01*
X86068551Y-82306064D01*
X86511449Y-82306064D01*
X86603544Y-82607000D01*
X87817000Y-82607000D01*
X87817000Y-81145970D01*
X88963000Y-81145970D01*
X88963000Y-82607000D01*
X90176456Y-82607000D01*
X90268551Y-82306064D01*
X90711449Y-82306064D01*
X90803544Y-82607000D01*
X92017000Y-82607000D01*
X92017000Y-81145970D01*
X93163000Y-81145970D01*
X93163000Y-82607000D01*
X94376456Y-82607000D01*
X94468551Y-82306064D01*
X94320486Y-81950605D01*
X94105919Y-81630862D01*
X93833096Y-81359123D01*
X93512502Y-81145830D01*
X93453249Y-81092536D01*
X93163000Y-81145970D01*
X92017000Y-81145970D01*
X91726751Y-81092536D01*
X91667498Y-81145830D01*
X91346904Y-81359123D01*
X91074081Y-81630862D01*
X90859514Y-81950605D01*
X90711449Y-82306064D01*
X90268551Y-82306064D01*
X90120486Y-81950605D01*
X89905919Y-81630862D01*
X89633096Y-81359123D01*
X89312502Y-81145830D01*
X89253249Y-81092536D01*
X88963000Y-81145970D01*
X87817000Y-81145970D01*
X87526751Y-81092536D01*
X87467498Y-81145830D01*
X87146904Y-81359123D01*
X86874081Y-81630862D01*
X86659514Y-81950605D01*
X86511449Y-82306064D01*
X86068551Y-82306064D01*
X85920486Y-81950605D01*
X85705919Y-81630862D01*
X85433096Y-81359123D01*
X85112502Y-81145830D01*
X85053249Y-81092536D01*
X84763000Y-81145970D01*
X83617000Y-81145970D01*
X83326751Y-81092536D01*
X83267498Y-81145830D01*
X82946904Y-81359123D01*
X82674081Y-81630862D01*
X82459514Y-81950605D01*
X82311449Y-82306064D01*
X81868551Y-82306064D01*
X81720486Y-81950605D01*
X81505919Y-81630862D01*
X81233096Y-81359123D01*
X80912502Y-81145830D01*
X80853249Y-81092536D01*
X80563000Y-81145970D01*
X79417000Y-81145970D01*
X79126751Y-81092536D01*
X79067498Y-81145830D01*
X78746904Y-81359123D01*
X78474081Y-81630862D01*
X78259514Y-81950605D01*
X78111449Y-82306064D01*
X77690218Y-82306064D01*
X77632774Y-82116698D01*
X77448453Y-81771857D01*
X77200398Y-81469602D01*
X76898143Y-81221547D01*
X76553301Y-81037226D01*
X76179127Y-80923722D01*
X75790000Y-80885396D01*
X75400872Y-80923722D01*
X75026698Y-81037226D01*
X74681857Y-81221547D01*
X74379602Y-81469602D01*
X74131547Y-81771857D01*
X73947226Y-82116699D01*
X73833722Y-82490873D01*
X73805000Y-82782491D01*
X73575000Y-82782491D01*
X73575000Y-82782490D01*
X73546278Y-82490872D01*
X73432774Y-82116698D01*
X73248453Y-81771857D01*
X73000398Y-81469602D01*
X72698143Y-81221547D01*
X72353301Y-81037226D01*
X71979127Y-80923722D01*
X71590000Y-80885396D01*
X71200872Y-80923722D01*
X70826698Y-81037226D01*
X70481857Y-81221547D01*
X70179602Y-81469602D01*
X69931547Y-81771857D01*
X69805217Y-82008205D01*
X69770556Y-81893942D01*
X69714203Y-81788514D01*
X69699984Y-81761912D01*
X69628809Y-81675186D01*
X69605011Y-81646188D01*
X69576014Y-81622391D01*
X68647615Y-80693992D01*
X68623812Y-80664989D01*
X68508087Y-80570016D01*
X68376058Y-80499444D01*
X68232797Y-80455987D01*
X68121144Y-80444990D01*
X68121133Y-80444990D01*
X68083811Y-80441314D01*
X68046489Y-80444990D01*
X56268292Y-80444990D01*
X55704731Y-79881430D01*
X55756000Y-79623684D01*
X55756000Y-79321316D01*
X55697011Y-79024757D01*
X55581299Y-78745405D01*
X55413312Y-78493995D01*
X55199505Y-78280188D01*
X54948095Y-78112201D01*
X54668743Y-77996489D01*
X54372184Y-77937500D01*
X54069816Y-77937500D01*
X53773257Y-77996489D01*
X53493905Y-78112201D01*
X53242495Y-78280188D01*
X53176056Y-78346627D01*
X53170502Y-78328320D01*
X53111537Y-78218006D01*
X53032185Y-78121315D01*
X52935494Y-78041963D01*
X52825180Y-77982998D01*
X52705482Y-77946688D01*
X52581000Y-77934428D01*
X50781000Y-77934428D01*
X50660000Y-77946345D01*
X50660000Y-76280001D01*
X57001928Y-76280001D01*
X57001928Y-79079999D01*
X57018992Y-79253253D01*
X57069529Y-79419850D01*
X57151595Y-79573386D01*
X57262039Y-79707961D01*
X57396614Y-79818405D01*
X57550150Y-79900471D01*
X57716747Y-79951008D01*
X57890001Y-79968072D01*
X60089999Y-79968072D01*
X60263253Y-79951008D01*
X60429850Y-79900471D01*
X60583386Y-79818405D01*
X60717961Y-79707961D01*
X60828405Y-79573386D01*
X60910471Y-79419850D01*
X60961008Y-79253253D01*
X60978072Y-79079999D01*
X60978072Y-77282491D01*
X61205000Y-77282491D01*
X61205000Y-78077510D01*
X61233722Y-78369128D01*
X61347226Y-78743302D01*
X61531547Y-79088143D01*
X61779603Y-79390398D01*
X62081858Y-79638453D01*
X62426699Y-79822774D01*
X62800873Y-79936278D01*
X63190000Y-79974604D01*
X63579128Y-79936278D01*
X63953302Y-79822774D01*
X64298143Y-79638453D01*
X64600398Y-79390398D01*
X64848453Y-79088143D01*
X65032774Y-78743302D01*
X65146278Y-78369127D01*
X65175000Y-78077509D01*
X65175000Y-77282491D01*
X65405000Y-77282491D01*
X65405000Y-78077510D01*
X65433722Y-78369128D01*
X65547226Y-78743302D01*
X65731547Y-79088143D01*
X65979603Y-79390398D01*
X66281858Y-79638453D01*
X66626699Y-79822774D01*
X67000873Y-79936278D01*
X67390000Y-79974604D01*
X67779128Y-79936278D01*
X68153302Y-79822774D01*
X68498143Y-79638453D01*
X68800398Y-79390398D01*
X69048453Y-79088143D01*
X69232774Y-78743302D01*
X69346278Y-78369127D01*
X69375000Y-78077509D01*
X69375000Y-77282491D01*
X69605000Y-77282491D01*
X69605000Y-78077510D01*
X69633722Y-78369128D01*
X69747226Y-78743302D01*
X69931547Y-79088143D01*
X70179603Y-79390398D01*
X70481858Y-79638453D01*
X70826699Y-79822774D01*
X71200873Y-79936278D01*
X71590000Y-79974604D01*
X71979128Y-79936278D01*
X72353302Y-79822774D01*
X72698143Y-79638453D01*
X73000398Y-79390398D01*
X73248453Y-79088143D01*
X73432774Y-78743302D01*
X73490217Y-78553936D01*
X73911449Y-78553936D01*
X74059514Y-78909395D01*
X74274081Y-79229138D01*
X74546904Y-79500877D01*
X74867498Y-79714170D01*
X74926751Y-79767464D01*
X75217000Y-79714030D01*
X75217000Y-78253000D01*
X76363000Y-78253000D01*
X76363000Y-79714030D01*
X76653249Y-79767464D01*
X76712502Y-79714170D01*
X77033096Y-79500877D01*
X77305919Y-79229138D01*
X77520486Y-78909395D01*
X77668551Y-78553936D01*
X78111449Y-78553936D01*
X78259514Y-78909395D01*
X78474081Y-79229138D01*
X78746904Y-79500877D01*
X79067498Y-79714170D01*
X79126751Y-79767464D01*
X79417000Y-79714030D01*
X79417000Y-78253000D01*
X80563000Y-78253000D01*
X80563000Y-79714030D01*
X80853249Y-79767464D01*
X80912502Y-79714170D01*
X81233096Y-79500877D01*
X81505919Y-79229138D01*
X81720486Y-78909395D01*
X81868551Y-78553936D01*
X82311449Y-78553936D01*
X82459514Y-78909395D01*
X82674081Y-79229138D01*
X82946904Y-79500877D01*
X83267498Y-79714170D01*
X83326751Y-79767464D01*
X83617000Y-79714030D01*
X83617000Y-78253000D01*
X84763000Y-78253000D01*
X84763000Y-79714030D01*
X85053249Y-79767464D01*
X85112502Y-79714170D01*
X85433096Y-79500877D01*
X85705919Y-79229138D01*
X85920486Y-78909395D01*
X86068551Y-78553936D01*
X86511449Y-78553936D01*
X86659514Y-78909395D01*
X86874081Y-79229138D01*
X87146904Y-79500877D01*
X87467498Y-79714170D01*
X87526751Y-79767464D01*
X87817000Y-79714030D01*
X87817000Y-78253000D01*
X88963000Y-78253000D01*
X88963000Y-79714030D01*
X89253249Y-79767464D01*
X89312502Y-79714170D01*
X89633096Y-79500877D01*
X89905919Y-79229138D01*
X90120486Y-78909395D01*
X90268551Y-78553936D01*
X90711449Y-78553936D01*
X90859514Y-78909395D01*
X91074081Y-79229138D01*
X91346904Y-79500877D01*
X91667498Y-79714170D01*
X91726751Y-79767464D01*
X92017000Y-79714030D01*
X92017000Y-78253000D01*
X93163000Y-78253000D01*
X93163000Y-79714030D01*
X93453249Y-79767464D01*
X93512502Y-79714170D01*
X93833096Y-79500877D01*
X94105919Y-79229138D01*
X94320486Y-78909395D01*
X94468551Y-78553936D01*
X94376456Y-78253000D01*
X93163000Y-78253000D01*
X92017000Y-78253000D01*
X90803544Y-78253000D01*
X90711449Y-78553936D01*
X90268551Y-78553936D01*
X90176456Y-78253000D01*
X88963000Y-78253000D01*
X87817000Y-78253000D01*
X86603544Y-78253000D01*
X86511449Y-78553936D01*
X86068551Y-78553936D01*
X85976456Y-78253000D01*
X84763000Y-78253000D01*
X83617000Y-78253000D01*
X82403544Y-78253000D01*
X82311449Y-78553936D01*
X81868551Y-78553936D01*
X81776456Y-78253000D01*
X80563000Y-78253000D01*
X79417000Y-78253000D01*
X78203544Y-78253000D01*
X78111449Y-78553936D01*
X77668551Y-78553936D01*
X77576456Y-78253000D01*
X76363000Y-78253000D01*
X75217000Y-78253000D01*
X74003544Y-78253000D01*
X73911449Y-78553936D01*
X73490217Y-78553936D01*
X73546278Y-78369127D01*
X73575000Y-78077509D01*
X73575000Y-77282491D01*
X94805000Y-77282491D01*
X94805000Y-78077510D01*
X94833722Y-78369128D01*
X94947226Y-78743302D01*
X95131547Y-79088143D01*
X95379603Y-79390398D01*
X95681858Y-79638453D01*
X96026699Y-79822774D01*
X96400873Y-79936278D01*
X96790000Y-79974604D01*
X97179128Y-79936278D01*
X97553302Y-79822774D01*
X97898143Y-79638453D01*
X98200398Y-79390398D01*
X98448453Y-79088143D01*
X98632774Y-78743302D01*
X98746278Y-78369127D01*
X98775000Y-78077509D01*
X98775000Y-77282491D01*
X99005000Y-77282491D01*
X99005000Y-78077510D01*
X99033722Y-78369128D01*
X99147226Y-78743302D01*
X99331547Y-79088143D01*
X99579603Y-79390398D01*
X99881858Y-79638453D01*
X100226699Y-79822774D01*
X100600873Y-79936278D01*
X100990000Y-79974604D01*
X101379128Y-79936278D01*
X101753302Y-79822774D01*
X102098143Y-79638453D01*
X102400398Y-79390398D01*
X102648453Y-79088143D01*
X102832774Y-78743302D01*
X102946278Y-78369127D01*
X102975000Y-78077509D01*
X102975000Y-77282490D01*
X102946278Y-76990872D01*
X102832774Y-76616698D01*
X102648453Y-76271857D01*
X102400398Y-75969602D01*
X102098143Y-75721547D01*
X101753301Y-75537226D01*
X101379127Y-75423722D01*
X100990000Y-75385396D01*
X100600872Y-75423722D01*
X100226698Y-75537226D01*
X99881857Y-75721547D01*
X99579602Y-75969602D01*
X99331547Y-76271857D01*
X99147226Y-76616699D01*
X99033722Y-76990873D01*
X99005000Y-77282491D01*
X98775000Y-77282491D01*
X98775000Y-77282490D01*
X98746278Y-76990872D01*
X98632774Y-76616698D01*
X98448453Y-76271857D01*
X98200398Y-75969602D01*
X97898143Y-75721547D01*
X97553301Y-75537226D01*
X97179127Y-75423722D01*
X96790000Y-75385396D01*
X96400872Y-75423722D01*
X96026698Y-75537226D01*
X95681857Y-75721547D01*
X95379602Y-75969602D01*
X95131547Y-76271857D01*
X94947226Y-76616699D01*
X94833722Y-76990873D01*
X94805000Y-77282491D01*
X73575000Y-77282491D01*
X73575000Y-77282490D01*
X73546278Y-76990872D01*
X73490218Y-76806064D01*
X73911449Y-76806064D01*
X74003544Y-77107000D01*
X75217000Y-77107000D01*
X75217000Y-75645970D01*
X76363000Y-75645970D01*
X76363000Y-77107000D01*
X77576456Y-77107000D01*
X77668551Y-76806064D01*
X78111449Y-76806064D01*
X78203544Y-77107000D01*
X79417000Y-77107000D01*
X79417000Y-75645970D01*
X80563000Y-75645970D01*
X80563000Y-77107000D01*
X81776456Y-77107000D01*
X81868551Y-76806064D01*
X82311449Y-76806064D01*
X82403544Y-77107000D01*
X83617000Y-77107000D01*
X83617000Y-75645970D01*
X84763000Y-75645970D01*
X84763000Y-77107000D01*
X85976456Y-77107000D01*
X86068551Y-76806064D01*
X86511449Y-76806064D01*
X86603544Y-77107000D01*
X87817000Y-77107000D01*
X87817000Y-75645970D01*
X88963000Y-75645970D01*
X88963000Y-77107000D01*
X90176456Y-77107000D01*
X90268551Y-76806064D01*
X90711449Y-76806064D01*
X90803544Y-77107000D01*
X92017000Y-77107000D01*
X92017000Y-75645970D01*
X93163000Y-75645970D01*
X93163000Y-77107000D01*
X94376456Y-77107000D01*
X94468551Y-76806064D01*
X94320486Y-76450605D01*
X94105919Y-76130862D01*
X93833096Y-75859123D01*
X93512502Y-75645830D01*
X93453249Y-75592536D01*
X93163000Y-75645970D01*
X92017000Y-75645970D01*
X91726751Y-75592536D01*
X91667498Y-75645830D01*
X91346904Y-75859123D01*
X91074081Y-76130862D01*
X90859514Y-76450605D01*
X90711449Y-76806064D01*
X90268551Y-76806064D01*
X90120486Y-76450605D01*
X89905919Y-76130862D01*
X89633096Y-75859123D01*
X89312502Y-75645830D01*
X89253249Y-75592536D01*
X88963000Y-75645970D01*
X87817000Y-75645970D01*
X87526751Y-75592536D01*
X87467498Y-75645830D01*
X87146904Y-75859123D01*
X86874081Y-76130862D01*
X86659514Y-76450605D01*
X86511449Y-76806064D01*
X86068551Y-76806064D01*
X85920486Y-76450605D01*
X85705919Y-76130862D01*
X85433096Y-75859123D01*
X85112502Y-75645830D01*
X85053249Y-75592536D01*
X84763000Y-75645970D01*
X83617000Y-75645970D01*
X83326751Y-75592536D01*
X83267498Y-75645830D01*
X82946904Y-75859123D01*
X82674081Y-76130862D01*
X82459514Y-76450605D01*
X82311449Y-76806064D01*
X81868551Y-76806064D01*
X81720486Y-76450605D01*
X81505919Y-76130862D01*
X81233096Y-75859123D01*
X80912502Y-75645830D01*
X80853249Y-75592536D01*
X80563000Y-75645970D01*
X79417000Y-75645970D01*
X79126751Y-75592536D01*
X79067498Y-75645830D01*
X78746904Y-75859123D01*
X78474081Y-76130862D01*
X78259514Y-76450605D01*
X78111449Y-76806064D01*
X77668551Y-76806064D01*
X77520486Y-76450605D01*
X77305919Y-76130862D01*
X77033096Y-75859123D01*
X76712502Y-75645830D01*
X76653249Y-75592536D01*
X76363000Y-75645970D01*
X75217000Y-75645970D01*
X74926751Y-75592536D01*
X74867498Y-75645830D01*
X74546904Y-75859123D01*
X74274081Y-76130862D01*
X74059514Y-76450605D01*
X73911449Y-76806064D01*
X73490218Y-76806064D01*
X73432774Y-76616698D01*
X73248453Y-76271857D01*
X73000398Y-75969602D01*
X72698143Y-75721547D01*
X72353301Y-75537226D01*
X71979127Y-75423722D01*
X71590000Y-75385396D01*
X71200872Y-75423722D01*
X70826698Y-75537226D01*
X70481857Y-75721547D01*
X70179602Y-75969602D01*
X69931547Y-76271857D01*
X69747226Y-76616699D01*
X69633722Y-76990873D01*
X69605000Y-77282491D01*
X69375000Y-77282491D01*
X69375000Y-77282490D01*
X69346278Y-76990872D01*
X69232774Y-76616698D01*
X69048453Y-76271857D01*
X68800398Y-75969602D01*
X68498143Y-75721547D01*
X68153301Y-75537226D01*
X67779127Y-75423722D01*
X67390000Y-75385396D01*
X67000872Y-75423722D01*
X66626698Y-75537226D01*
X66281857Y-75721547D01*
X65979602Y-75969602D01*
X65731547Y-76271857D01*
X65547226Y-76616699D01*
X65433722Y-76990873D01*
X65405000Y-77282491D01*
X65175000Y-77282491D01*
X65175000Y-77282490D01*
X65146278Y-76990872D01*
X65032774Y-76616698D01*
X64848453Y-76271857D01*
X64600398Y-75969602D01*
X64298143Y-75721547D01*
X63953301Y-75537226D01*
X63579127Y-75423722D01*
X63190000Y-75385396D01*
X62800872Y-75423722D01*
X62426698Y-75537226D01*
X62081857Y-75721547D01*
X61779602Y-75969602D01*
X61531547Y-76271857D01*
X61347226Y-76616699D01*
X61233722Y-76990873D01*
X61205000Y-77282491D01*
X60978072Y-77282491D01*
X60978072Y-76280001D01*
X60961008Y-76106747D01*
X60910471Y-75940150D01*
X60828405Y-75786614D01*
X60717961Y-75652039D01*
X60583386Y-75541595D01*
X60429850Y-75459529D01*
X60263253Y-75408992D01*
X60089999Y-75391928D01*
X57890001Y-75391928D01*
X57716747Y-75408992D01*
X57550150Y-75459529D01*
X57396614Y-75541595D01*
X57262039Y-75652039D01*
X57151595Y-75786614D01*
X57069529Y-75940150D01*
X57018992Y-76106747D01*
X57001928Y-76280001D01*
X50660000Y-76280001D01*
X50660000Y-74032279D01*
X50682334Y-73804495D01*
X51015000Y-73804495D01*
X51015000Y-74195505D01*
X51091282Y-74579003D01*
X51240915Y-74940250D01*
X51458149Y-75265364D01*
X51734636Y-75541851D01*
X52059750Y-75759085D01*
X52420997Y-75908718D01*
X52804495Y-75985000D01*
X53195505Y-75985000D01*
X53579003Y-75908718D01*
X53940250Y-75759085D01*
X54265364Y-75541851D01*
X54541851Y-75265364D01*
X54759085Y-74940250D01*
X54908718Y-74579003D01*
X54985000Y-74195505D01*
X54985000Y-73804495D01*
X54973066Y-73744495D01*
X104975000Y-73744495D01*
X104975000Y-74135505D01*
X105051282Y-74519003D01*
X105200915Y-74880250D01*
X105418149Y-75205364D01*
X105694636Y-75481851D01*
X106019750Y-75699085D01*
X106380997Y-75848718D01*
X106764495Y-75925000D01*
X107155505Y-75925000D01*
X107539003Y-75848718D01*
X107900250Y-75699085D01*
X108225364Y-75481851D01*
X108501851Y-75205364D01*
X108719085Y-74880250D01*
X108868718Y-74519003D01*
X108945000Y-74135505D01*
X108945000Y-73744495D01*
X108868718Y-73360997D01*
X108719085Y-72999750D01*
X108501851Y-72674636D01*
X108225364Y-72398149D01*
X107900250Y-72180915D01*
X107539003Y-72031282D01*
X107155505Y-71955000D01*
X106764495Y-71955000D01*
X106380997Y-72031282D01*
X106019750Y-72180915D01*
X105694636Y-72398149D01*
X105418149Y-72674636D01*
X105200915Y-72999750D01*
X105051282Y-73360997D01*
X104975000Y-73744495D01*
X54973066Y-73744495D01*
X54908718Y-73420997D01*
X54759085Y-73059750D01*
X54541851Y-72734636D01*
X54265364Y-72458149D01*
X53940250Y-72240915D01*
X53579003Y-72091282D01*
X53195505Y-72015000D01*
X52804495Y-72015000D01*
X52420997Y-72091282D01*
X52059750Y-72240915D01*
X51734636Y-72458149D01*
X51458149Y-72734636D01*
X51240915Y-73059750D01*
X51091282Y-73420997D01*
X51015000Y-73804495D01*
X50682334Y-73804495D01*
X50707670Y-73546107D01*
X50839489Y-73109502D01*
X51053600Y-72706815D01*
X51341848Y-72353388D01*
X51693261Y-72062673D01*
X52094439Y-71845758D01*
X52530113Y-71710894D01*
X53014344Y-71660000D01*
X106967721Y-71660000D01*
X107453893Y-71707670D01*
G36*
X53242495Y-80664812D02*
G01*
X53493905Y-80832799D01*
X53773257Y-80948511D01*
X54069816Y-81007500D01*
X54372184Y-81007500D01*
X54629930Y-80956231D01*
X55389690Y-81715992D01*
X55413489Y-81744991D01*
X55529214Y-81839964D01*
X55661243Y-81910536D01*
X55804504Y-81953993D01*
X55916157Y-81964990D01*
X55916167Y-81964990D01*
X55953490Y-81968666D01*
X55990813Y-81964990D01*
X57228316Y-81964990D01*
X57147226Y-82116699D01*
X57033722Y-82490873D01*
X57005000Y-82782491D01*
X57005000Y-83577510D01*
X57025645Y-83787125D01*
X55559313Y-83787125D01*
X55413312Y-83568620D01*
X55199505Y-83354813D01*
X54948095Y-83186826D01*
X54668743Y-83071114D01*
X54372184Y-83012125D01*
X54069816Y-83012125D01*
X53773257Y-83071114D01*
X53755999Y-83078263D01*
X53755999Y-81974821D01*
X53759675Y-81937498D01*
X53755999Y-81900175D01*
X53755999Y-81900166D01*
X53745002Y-81788513D01*
X53701545Y-81645252D01*
X53630973Y-81513223D01*
X53595174Y-81469602D01*
X53559798Y-81426495D01*
X53559794Y-81426491D01*
X53536000Y-81397498D01*
X53507008Y-81373705D01*
X52990883Y-80857581D01*
X53032185Y-80823685D01*
X53111537Y-80726994D01*
X53170502Y-80616680D01*
X53176056Y-80598373D01*
X53242495Y-80664812D01*
X53242495Y-80664812D01*
G37*
X53242495Y-80664812D02*
X53493905Y-80832799D01*
X53773257Y-80948511D01*
X54069816Y-81007500D01*
X54372184Y-81007500D01*
X54629930Y-80956231D01*
X55389690Y-81715992D01*
X55413489Y-81744991D01*
X55529214Y-81839964D01*
X55661243Y-81910536D01*
X55804504Y-81953993D01*
X55916157Y-81964990D01*
X55916167Y-81964990D01*
X55953490Y-81968666D01*
X55990813Y-81964990D01*
X57228316Y-81964990D01*
X57147226Y-82116699D01*
X57033722Y-82490873D01*
X57005000Y-82782491D01*
X57005000Y-83577510D01*
X57025645Y-83787125D01*
X55559313Y-83787125D01*
X55413312Y-83568620D01*
X55199505Y-83354813D01*
X54948095Y-83186826D01*
X54668743Y-83071114D01*
X54372184Y-83012125D01*
X54069816Y-83012125D01*
X53773257Y-83071114D01*
X53755999Y-83078263D01*
X53755999Y-81974821D01*
X53759675Y-81937498D01*
X53755999Y-81900175D01*
X53755999Y-81900166D01*
X53745002Y-81788513D01*
X53701545Y-81645252D01*
X53630973Y-81513223D01*
X53595174Y-81469602D01*
X53559798Y-81426495D01*
X53559794Y-81426491D01*
X53536000Y-81397498D01*
X53507008Y-81373705D01*
X52990883Y-80857581D01*
X53032185Y-80823685D01*
X53111537Y-80726994D01*
X53170502Y-80616680D01*
X53176056Y-80598373D01*
X53242495Y-80664812D01*
G36*
X50781000Y-81010572D02*
G01*
X51026674Y-81010572D01*
X51046026Y-81046776D01*
X51083581Y-81092536D01*
X51141000Y-81162501D01*
X51169998Y-81186299D01*
X52235999Y-82252302D01*
X52235999Y-83009053D01*
X50781000Y-83009053D01*
X50660000Y-83020970D01*
X50660000Y-80998655D01*
X50781000Y-81010572D01*
X50781000Y-81010572D01*
G37*
X50781000Y-81010572D02*
X51026674Y-81010572D01*
X51046026Y-81046776D01*
X51083581Y-81092536D01*
X51141000Y-81162501D01*
X51169998Y-81186299D01*
X52235999Y-82252302D01*
X52235999Y-83009053D01*
X50781000Y-83009053D01*
X50660000Y-83020970D01*
X50660000Y-80998655D01*
X50781000Y-81010572D01*
%TD*%
M02*
