%TF.GenerationSoftware,KiCad,Pcbnew,(5.1.4)-1*%
%TF.CreationDate,2020-09-17T17:05:27-05:00*%
%TF.ProjectId,mAcTX_Quadra_840av,6d416354-585f-4517-9561-6472615f3834,rev?*%
%TF.SameCoordinates,Original*%
%TF.FileFunction,Soldermask,Top*%
%TF.FilePolarity,Negative*%
%FSLAX46Y46*%
G04 Gerber Fmt 4.6, Leading zero omitted, Abs format (unit mm)*
G04 Created by KiCad (PCBNEW (5.1.4)-1) date 2020-09-17 17:05:27*
%MOMM*%
%LPD*%
G04 APERTURE LIST*
%ADD10O,1.500000X1.500000*%
%ADD11C,1.500000*%
%ADD12O,2.800000X3.400000*%
%ADD13C,0.100000*%
%ADD14C,2.800000*%
%ADD15R,1.600000X1.600000*%
%ADD16C,1.600000*%
%ADD17C,1.100000*%
%ADD18C,1.900000*%
%ADD19R,1.900000X1.900000*%
G04 APERTURE END LIST*
D10*
%TO.C,R2*%
X106230000Y-79010000D03*
D11*
X106230000Y-86630000D03*
%TD*%
D12*
%TO.C,J2*%
X100990000Y-83180000D03*
X96790000Y-83180000D03*
X92590000Y-83180000D03*
X88390000Y-83180000D03*
X84190000Y-83180000D03*
X79990000Y-83180000D03*
X75790000Y-83180000D03*
X71590000Y-83180000D03*
X67390000Y-83180000D03*
X63190000Y-83180000D03*
X58990000Y-83180000D03*
X100990000Y-77680000D03*
X96790000Y-77680000D03*
X92590000Y-77680000D03*
X88390000Y-77680000D03*
X84190000Y-77680000D03*
X79990000Y-77680000D03*
X75790000Y-77680000D03*
X71590000Y-77680000D03*
X67390000Y-77680000D03*
X63190000Y-77680000D03*
D13*
G36*
X60156152Y-75981248D02*
G01*
X60181319Y-75984982D01*
X60205999Y-75991164D01*
X60229955Y-75999735D01*
X60252954Y-76010613D01*
X60274777Y-76023693D01*
X60295213Y-76038849D01*
X60314065Y-76055935D01*
X60331151Y-76074787D01*
X60346307Y-76095223D01*
X60359387Y-76117046D01*
X60370265Y-76140045D01*
X60378836Y-76164001D01*
X60385018Y-76188681D01*
X60388752Y-76213848D01*
X60390000Y-76239260D01*
X60390000Y-79120740D01*
X60388752Y-79146152D01*
X60385018Y-79171319D01*
X60378836Y-79195999D01*
X60370265Y-79219955D01*
X60359387Y-79242954D01*
X60346307Y-79264777D01*
X60331151Y-79285213D01*
X60314065Y-79304065D01*
X60295213Y-79321151D01*
X60274777Y-79336307D01*
X60252954Y-79349387D01*
X60229955Y-79360265D01*
X60205999Y-79368836D01*
X60181319Y-79375018D01*
X60156152Y-79378752D01*
X60130740Y-79380000D01*
X57849260Y-79380000D01*
X57823848Y-79378752D01*
X57798681Y-79375018D01*
X57774001Y-79368836D01*
X57750045Y-79360265D01*
X57727046Y-79349387D01*
X57705223Y-79336307D01*
X57684787Y-79321151D01*
X57665935Y-79304065D01*
X57648849Y-79285213D01*
X57633693Y-79264777D01*
X57620613Y-79242954D01*
X57609735Y-79219955D01*
X57601164Y-79195999D01*
X57594982Y-79171319D01*
X57591248Y-79146152D01*
X57590000Y-79120740D01*
X57590000Y-76239260D01*
X57591248Y-76213848D01*
X57594982Y-76188681D01*
X57601164Y-76164001D01*
X57609735Y-76140045D01*
X57620613Y-76117046D01*
X57633693Y-76095223D01*
X57648849Y-76074787D01*
X57665935Y-76055935D01*
X57684787Y-76038849D01*
X57705223Y-76023693D01*
X57727046Y-76010613D01*
X57750045Y-75999735D01*
X57774001Y-75991164D01*
X57798681Y-75984982D01*
X57823848Y-75981248D01*
X57849260Y-75980000D01*
X60130740Y-75980000D01*
X60156152Y-75981248D01*
X60156152Y-75981248D01*
G37*
D14*
X58990000Y-77680000D03*
%TD*%
D12*
%TO.C,J1*%
X103110000Y-110290000D03*
X98910000Y-110290000D03*
X94710000Y-110290000D03*
X90510000Y-110290000D03*
X86310000Y-110290000D03*
X82110000Y-110290000D03*
X77910000Y-110290000D03*
X73710000Y-110290000D03*
X69510000Y-110290000D03*
X65310000Y-110290000D03*
X61110000Y-110290000D03*
X56910000Y-110290000D03*
X103110000Y-104790000D03*
X98910000Y-104790000D03*
X94710000Y-104790000D03*
X90510000Y-104790000D03*
X86310000Y-104790000D03*
X82110000Y-104790000D03*
X77910000Y-104790000D03*
X73710000Y-104790000D03*
X69510000Y-104790000D03*
X65310000Y-104790000D03*
X61110000Y-104790000D03*
D13*
G36*
X58076152Y-103091248D02*
G01*
X58101319Y-103094982D01*
X58125999Y-103101164D01*
X58149955Y-103109735D01*
X58172954Y-103120613D01*
X58194777Y-103133693D01*
X58215213Y-103148849D01*
X58234065Y-103165935D01*
X58251151Y-103184787D01*
X58266307Y-103205223D01*
X58279387Y-103227046D01*
X58290265Y-103250045D01*
X58298836Y-103274001D01*
X58305018Y-103298681D01*
X58308752Y-103323848D01*
X58310000Y-103349260D01*
X58310000Y-106230740D01*
X58308752Y-106256152D01*
X58305018Y-106281319D01*
X58298836Y-106305999D01*
X58290265Y-106329955D01*
X58279387Y-106352954D01*
X58266307Y-106374777D01*
X58251151Y-106395213D01*
X58234065Y-106414065D01*
X58215213Y-106431151D01*
X58194777Y-106446307D01*
X58172954Y-106459387D01*
X58149955Y-106470265D01*
X58125999Y-106478836D01*
X58101319Y-106485018D01*
X58076152Y-106488752D01*
X58050740Y-106490000D01*
X55769260Y-106490000D01*
X55743848Y-106488752D01*
X55718681Y-106485018D01*
X55694001Y-106478836D01*
X55670045Y-106470265D01*
X55647046Y-106459387D01*
X55625223Y-106446307D01*
X55604787Y-106431151D01*
X55585935Y-106414065D01*
X55568849Y-106395213D01*
X55553693Y-106374777D01*
X55540613Y-106352954D01*
X55529735Y-106329955D01*
X55521164Y-106305999D01*
X55514982Y-106281319D01*
X55511248Y-106256152D01*
X55510000Y-106230740D01*
X55510000Y-103349260D01*
X55511248Y-103323848D01*
X55514982Y-103298681D01*
X55521164Y-103274001D01*
X55529735Y-103250045D01*
X55540613Y-103227046D01*
X55553693Y-103205223D01*
X55568849Y-103184787D01*
X55585935Y-103165935D01*
X55604787Y-103148849D01*
X55625223Y-103133693D01*
X55647046Y-103120613D01*
X55670045Y-103109735D01*
X55694001Y-103101164D01*
X55718681Y-103094982D01*
X55743848Y-103091248D01*
X55769260Y-103090000D01*
X58050740Y-103090000D01*
X58076152Y-103091248D01*
X58076152Y-103091248D01*
G37*
D14*
X56910000Y-104790000D03*
%TD*%
D15*
%TO.C,Q1*%
X107380000Y-93690000D03*
D16*
X107380000Y-88610000D03*
X104840000Y-91150000D03*
%TD*%
D14*
%TO.C,H4*%
X106960000Y-73940000D03*
%TD*%
%TO.C,H3*%
X107000000Y-117000000D03*
%TD*%
%TO.C,H2*%
X53000000Y-117000000D03*
%TD*%
%TO.C,H1*%
X53000000Y-74000000D03*
%TD*%
D17*
%TO.C,TP5*%
X108490000Y-97240000D03*
%TD*%
%TO.C,TP4*%
X108490000Y-101075250D03*
%TD*%
%TO.C,TP3*%
X108490000Y-104910500D03*
%TD*%
%TO.C,TP2*%
X108490000Y-108745750D03*
%TD*%
%TO.C,TP1*%
X108490000Y-112581000D03*
%TD*%
D10*
%TO.C,R8*%
X61806000Y-88690000D03*
D11*
X69426000Y-88690000D03*
%TD*%
D10*
%TO.C,R6*%
X61806000Y-90890750D03*
D11*
X69426000Y-90890750D03*
%TD*%
D10*
%TO.C,R5*%
X61806000Y-93091500D03*
D11*
X69426000Y-93091500D03*
%TD*%
D10*
%TO.C,R4*%
X61806000Y-95292250D03*
D11*
X69426000Y-95292250D03*
%TD*%
D10*
%TO.C,R3*%
X61806000Y-97493000D03*
D11*
X69426000Y-97493000D03*
%TD*%
D10*
%TO.C,R1*%
X108340000Y-86630000D03*
D11*
X108340000Y-79010000D03*
%TD*%
D18*
%TO.C,D6*%
X54221000Y-79472500D03*
D19*
X51681000Y-79472500D03*
%TD*%
D18*
%TO.C,D4*%
X54221000Y-84547125D03*
D19*
X51681000Y-84547125D03*
%TD*%
D18*
%TO.C,D3*%
X54221000Y-89621750D03*
D19*
X51681000Y-89621750D03*
%TD*%
D18*
%TO.C,D2*%
X54221000Y-94696375D03*
D19*
X51681000Y-94696375D03*
%TD*%
D18*
%TO.C,D1*%
X54221000Y-99771000D03*
D19*
X51681000Y-99771000D03*
%TD*%
M02*
