%TF.GenerationSoftware,KiCad,Pcbnew,(5.1.4)-1*%
%TF.CreationDate,2020-09-17T17:05:27-05:00*%
%TF.ProjectId,mAcTX_Quadra_840av,6d416354-585f-4517-9561-6472615f3834,rev?*%
%TF.SameCoordinates,Original*%
%TF.FileFunction,Legend,Top*%
%TF.FilePolarity,Positive*%
%FSLAX46Y46*%
G04 Gerber Fmt 4.6, Leading zero omitted, Abs format (unit mm)*
G04 Created by KiCad (PCBNEW (5.1.4)-1) date 2020-09-17 17:05:27*
%MOMM*%
%LPD*%
G04 APERTURE LIST*
%ADD10C,0.150000*%
%ADD11C,0.010000*%
%ADD12C,0.120000*%
G04 APERTURE END LIST*
D10*
X95459523Y-73662380D02*
X95792857Y-74662380D01*
X96126190Y-73662380D01*
X96840476Y-74614761D02*
X96745238Y-74662380D01*
X96554761Y-74662380D01*
X96459523Y-74614761D01*
X96411904Y-74519523D01*
X96411904Y-74138571D01*
X96459523Y-74043333D01*
X96554761Y-73995714D01*
X96745238Y-73995714D01*
X96840476Y-74043333D01*
X96888095Y-74138571D01*
X96888095Y-74233809D01*
X96411904Y-74329047D01*
X97316666Y-74662380D02*
X97316666Y-73995714D01*
X97316666Y-74186190D02*
X97364285Y-74090952D01*
X97411904Y-74043333D01*
X97507142Y-73995714D01*
X97602380Y-73995714D01*
X97888095Y-74614761D02*
X97983333Y-74662380D01*
X98173809Y-74662380D01*
X98269047Y-74614761D01*
X98316666Y-74519523D01*
X98316666Y-74471904D01*
X98269047Y-74376666D01*
X98173809Y-74329047D01*
X98030952Y-74329047D01*
X97935714Y-74281428D01*
X97888095Y-74186190D01*
X97888095Y-74138571D01*
X97935714Y-74043333D01*
X98030952Y-73995714D01*
X98173809Y-73995714D01*
X98269047Y-74043333D01*
X98745238Y-74662380D02*
X98745238Y-73995714D01*
X98745238Y-73662380D02*
X98697619Y-73710000D01*
X98745238Y-73757619D01*
X98792857Y-73710000D01*
X98745238Y-73662380D01*
X98745238Y-73757619D01*
X99364285Y-74662380D02*
X99269047Y-74614761D01*
X99221428Y-74567142D01*
X99173809Y-74471904D01*
X99173809Y-74186190D01*
X99221428Y-74090952D01*
X99269047Y-74043333D01*
X99364285Y-73995714D01*
X99507142Y-73995714D01*
X99602380Y-74043333D01*
X99650000Y-74090952D01*
X99697619Y-74186190D01*
X99697619Y-74471904D01*
X99650000Y-74567142D01*
X99602380Y-74614761D01*
X99507142Y-74662380D01*
X99364285Y-74662380D01*
X100126190Y-73995714D02*
X100126190Y-74662380D01*
X100126190Y-74090952D02*
X100173809Y-74043333D01*
X100269047Y-73995714D01*
X100411904Y-73995714D01*
X100507142Y-74043333D01*
X100554761Y-74138571D01*
X100554761Y-74662380D01*
X102316666Y-74662380D02*
X101745238Y-74662380D01*
X102030952Y-74662380D02*
X102030952Y-73662380D01*
X101935714Y-73805238D01*
X101840476Y-73900476D01*
X101745238Y-73948095D01*
X102745238Y-74567142D02*
X102792857Y-74614761D01*
X102745238Y-74662380D01*
X102697619Y-74614761D01*
X102745238Y-74567142D01*
X102745238Y-74662380D01*
X103411904Y-73662380D02*
X103507142Y-73662380D01*
X103602380Y-73710000D01*
X103650000Y-73757619D01*
X103697619Y-73852857D01*
X103745238Y-74043333D01*
X103745238Y-74281428D01*
X103697619Y-74471904D01*
X103650000Y-74567142D01*
X103602380Y-74614761D01*
X103507142Y-74662380D01*
X103411904Y-74662380D01*
X103316666Y-74614761D01*
X103269047Y-74567142D01*
X103221428Y-74471904D01*
X103173809Y-74281428D01*
X103173809Y-74043333D01*
X103221428Y-73852857D01*
X103269047Y-73757619D01*
X103316666Y-73710000D01*
X103411904Y-73662380D01*
X61374761Y-116662380D02*
X61374761Y-115662380D01*
X61803333Y-116662380D02*
X61803333Y-116138571D01*
X61755714Y-116043333D01*
X61660476Y-115995714D01*
X61517619Y-115995714D01*
X61422380Y-116043333D01*
X61374761Y-116090952D01*
X62136666Y-115995714D02*
X62517619Y-115995714D01*
X62279523Y-115662380D02*
X62279523Y-116519523D01*
X62327142Y-116614761D01*
X62422380Y-116662380D01*
X62517619Y-116662380D01*
X62708095Y-115995714D02*
X63089047Y-115995714D01*
X62850952Y-115662380D02*
X62850952Y-116519523D01*
X62898571Y-116614761D01*
X62993809Y-116662380D01*
X63089047Y-116662380D01*
X63422380Y-115995714D02*
X63422380Y-116995714D01*
X63422380Y-116043333D02*
X63517619Y-115995714D01*
X63708095Y-115995714D01*
X63803333Y-116043333D01*
X63850952Y-116090952D01*
X63898571Y-116186190D01*
X63898571Y-116471904D01*
X63850952Y-116567142D01*
X63803333Y-116614761D01*
X63708095Y-116662380D01*
X63517619Y-116662380D01*
X63422380Y-116614761D01*
X64279523Y-116614761D02*
X64374761Y-116662380D01*
X64565238Y-116662380D01*
X64660476Y-116614761D01*
X64708095Y-116519523D01*
X64708095Y-116471904D01*
X64660476Y-116376666D01*
X64565238Y-116329047D01*
X64422380Y-116329047D01*
X64327142Y-116281428D01*
X64279523Y-116186190D01*
X64279523Y-116138571D01*
X64327142Y-116043333D01*
X64422380Y-115995714D01*
X64565238Y-115995714D01*
X64660476Y-116043333D01*
X65136666Y-116567142D02*
X65184285Y-116614761D01*
X65136666Y-116662380D01*
X65089047Y-116614761D01*
X65136666Y-116567142D01*
X65136666Y-116662380D01*
X65136666Y-116043333D02*
X65184285Y-116090952D01*
X65136666Y-116138571D01*
X65089047Y-116090952D01*
X65136666Y-116043333D01*
X65136666Y-116138571D01*
X66327142Y-115614761D02*
X65470000Y-116900476D01*
X67374761Y-115614761D02*
X66517619Y-116900476D01*
X68136666Y-115995714D02*
X68136666Y-116805238D01*
X68089047Y-116900476D01*
X68041428Y-116948095D01*
X67946190Y-116995714D01*
X67803333Y-116995714D01*
X67708095Y-116948095D01*
X68136666Y-116614761D02*
X68041428Y-116662380D01*
X67850952Y-116662380D01*
X67755714Y-116614761D01*
X67708095Y-116567142D01*
X67660476Y-116471904D01*
X67660476Y-116186190D01*
X67708095Y-116090952D01*
X67755714Y-116043333D01*
X67850952Y-115995714D01*
X68041428Y-115995714D01*
X68136666Y-116043333D01*
X68612857Y-116662380D02*
X68612857Y-115995714D01*
X68612857Y-115662380D02*
X68565238Y-115710000D01*
X68612857Y-115757619D01*
X68660476Y-115710000D01*
X68612857Y-115662380D01*
X68612857Y-115757619D01*
X68946190Y-115995714D02*
X69327142Y-115995714D01*
X69089047Y-115662380D02*
X69089047Y-116519523D01*
X69136666Y-116614761D01*
X69231904Y-116662380D01*
X69327142Y-116662380D01*
X69660476Y-116662380D02*
X69660476Y-115662380D01*
X70089047Y-116662380D02*
X70089047Y-116138571D01*
X70041428Y-116043333D01*
X69946190Y-115995714D01*
X69803333Y-115995714D01*
X69708095Y-116043333D01*
X69660476Y-116090952D01*
X70993809Y-115995714D02*
X70993809Y-116662380D01*
X70565238Y-115995714D02*
X70565238Y-116519523D01*
X70612857Y-116614761D01*
X70708095Y-116662380D01*
X70850952Y-116662380D01*
X70946190Y-116614761D01*
X70993809Y-116567142D01*
X71470000Y-116662380D02*
X71470000Y-115662380D01*
X71470000Y-116043333D02*
X71565238Y-115995714D01*
X71755714Y-115995714D01*
X71850952Y-116043333D01*
X71898571Y-116090952D01*
X71946190Y-116186190D01*
X71946190Y-116471904D01*
X71898571Y-116567142D01*
X71850952Y-116614761D01*
X71755714Y-116662380D01*
X71565238Y-116662380D01*
X71470000Y-116614761D01*
X72374761Y-116567142D02*
X72422380Y-116614761D01*
X72374761Y-116662380D01*
X72327142Y-116614761D01*
X72374761Y-116567142D01*
X72374761Y-116662380D01*
X73279523Y-116614761D02*
X73184285Y-116662380D01*
X72993809Y-116662380D01*
X72898571Y-116614761D01*
X72850952Y-116567142D01*
X72803333Y-116471904D01*
X72803333Y-116186190D01*
X72850952Y-116090952D01*
X72898571Y-116043333D01*
X72993809Y-115995714D01*
X73184285Y-115995714D01*
X73279523Y-116043333D01*
X73850952Y-116662380D02*
X73755714Y-116614761D01*
X73708095Y-116567142D01*
X73660476Y-116471904D01*
X73660476Y-116186190D01*
X73708095Y-116090952D01*
X73755714Y-116043333D01*
X73850952Y-115995714D01*
X73993809Y-115995714D01*
X74089047Y-116043333D01*
X74136666Y-116090952D01*
X74184285Y-116186190D01*
X74184285Y-116471904D01*
X74136666Y-116567142D01*
X74089047Y-116614761D01*
X73993809Y-116662380D01*
X73850952Y-116662380D01*
X74612857Y-116662380D02*
X74612857Y-115995714D01*
X74612857Y-116090952D02*
X74660476Y-116043333D01*
X74755714Y-115995714D01*
X74898571Y-115995714D01*
X74993809Y-116043333D01*
X75041428Y-116138571D01*
X75041428Y-116662380D01*
X75041428Y-116138571D02*
X75089047Y-116043333D01*
X75184285Y-115995714D01*
X75327142Y-115995714D01*
X75422380Y-116043333D01*
X75470000Y-116138571D01*
X75470000Y-116662380D01*
X76660476Y-115614761D02*
X75803333Y-116900476D01*
X77422380Y-116662380D02*
X77422380Y-116138571D01*
X77374761Y-116043333D01*
X77279523Y-115995714D01*
X77089047Y-115995714D01*
X76993809Y-116043333D01*
X77422380Y-116614761D02*
X77327142Y-116662380D01*
X77089047Y-116662380D01*
X76993809Y-116614761D01*
X76946190Y-116519523D01*
X76946190Y-116424285D01*
X76993809Y-116329047D01*
X77089047Y-116281428D01*
X77327142Y-116281428D01*
X77422380Y-116233809D01*
X77898571Y-116662380D02*
X77898571Y-115662380D01*
X77993809Y-116281428D02*
X78279523Y-116662380D01*
X78279523Y-115995714D02*
X77898571Y-116376666D01*
X79136666Y-115995714D02*
X79136666Y-116662380D01*
X78708095Y-115995714D02*
X78708095Y-116519523D01*
X78755714Y-116614761D01*
X78850952Y-116662380D01*
X78993809Y-116662380D01*
X79089047Y-116614761D01*
X79136666Y-116567142D01*
X79612857Y-116662380D02*
X79612857Y-115662380D01*
X79708095Y-116281428D02*
X79993809Y-116662380D01*
X79993809Y-115995714D02*
X79612857Y-116376666D01*
X80803333Y-116614761D02*
X80708095Y-116662380D01*
X80517619Y-116662380D01*
X80422380Y-116614761D01*
X80374761Y-116519523D01*
X80374761Y-116138571D01*
X80422380Y-116043333D01*
X80517619Y-115995714D01*
X80708095Y-115995714D01*
X80803333Y-116043333D01*
X80850952Y-116138571D01*
X80850952Y-116233809D01*
X80374761Y-116329047D01*
X81279523Y-116662380D02*
X81279523Y-115995714D01*
X81279523Y-116186190D02*
X81327142Y-116090952D01*
X81374761Y-116043333D01*
X81470000Y-115995714D01*
X81565238Y-115995714D01*
X82612857Y-115614761D02*
X81755714Y-116900476D01*
X82946190Y-116662380D02*
X82946190Y-115995714D01*
X82946190Y-116090952D02*
X82993809Y-116043333D01*
X83089047Y-115995714D01*
X83231904Y-115995714D01*
X83327142Y-116043333D01*
X83374761Y-116138571D01*
X83374761Y-116662380D01*
X83374761Y-116138571D02*
X83422380Y-116043333D01*
X83517619Y-115995714D01*
X83660476Y-115995714D01*
X83755714Y-116043333D01*
X83803333Y-116138571D01*
X83803333Y-116662380D01*
X84231904Y-116376666D02*
X84708095Y-116376666D01*
X84136666Y-116662380D02*
X84470000Y-115662380D01*
X84803333Y-116662380D01*
X85565238Y-116614761D02*
X85470000Y-116662380D01*
X85279523Y-116662380D01*
X85184285Y-116614761D01*
X85136666Y-116567142D01*
X85089047Y-116471904D01*
X85089047Y-116186190D01*
X85136666Y-116090952D01*
X85184285Y-116043333D01*
X85279523Y-115995714D01*
X85470000Y-115995714D01*
X85565238Y-116043333D01*
X85850952Y-115662380D02*
X86422380Y-115662380D01*
X86136666Y-116662380D02*
X86136666Y-115662380D01*
X86660476Y-115662380D02*
X87327142Y-116662380D01*
X87327142Y-115662380D02*
X86660476Y-116662380D01*
X87470000Y-116757619D02*
X88231904Y-116757619D01*
X89136666Y-116757619D02*
X89041428Y-116710000D01*
X88946190Y-116614761D01*
X88803333Y-116471904D01*
X88708095Y-116424285D01*
X88612857Y-116424285D01*
X88660476Y-116662380D02*
X88565238Y-116614761D01*
X88470000Y-116519523D01*
X88422380Y-116329047D01*
X88422380Y-115995714D01*
X88470000Y-115805238D01*
X88565238Y-115710000D01*
X88660476Y-115662380D01*
X88850952Y-115662380D01*
X88946190Y-115710000D01*
X89041428Y-115805238D01*
X89089047Y-115995714D01*
X89089047Y-116329047D01*
X89041428Y-116519523D01*
X88946190Y-116614761D01*
X88850952Y-116662380D01*
X88660476Y-116662380D01*
X89946190Y-115995714D02*
X89946190Y-116662380D01*
X89517619Y-115995714D02*
X89517619Y-116519523D01*
X89565238Y-116614761D01*
X89660476Y-116662380D01*
X89803333Y-116662380D01*
X89898571Y-116614761D01*
X89946190Y-116567142D01*
X90850952Y-116662380D02*
X90850952Y-116138571D01*
X90803333Y-116043333D01*
X90708095Y-115995714D01*
X90517619Y-115995714D01*
X90422380Y-116043333D01*
X90850952Y-116614761D02*
X90755714Y-116662380D01*
X90517619Y-116662380D01*
X90422380Y-116614761D01*
X90374761Y-116519523D01*
X90374761Y-116424285D01*
X90422380Y-116329047D01*
X90517619Y-116281428D01*
X90755714Y-116281428D01*
X90850952Y-116233809D01*
X91755714Y-116662380D02*
X91755714Y-115662380D01*
X91755714Y-116614761D02*
X91660476Y-116662380D01*
X91470000Y-116662380D01*
X91374761Y-116614761D01*
X91327142Y-116567142D01*
X91279523Y-116471904D01*
X91279523Y-116186190D01*
X91327142Y-116090952D01*
X91374761Y-116043333D01*
X91470000Y-115995714D01*
X91660476Y-115995714D01*
X91755714Y-116043333D01*
X92231904Y-116662380D02*
X92231904Y-115995714D01*
X92231904Y-116186190D02*
X92279523Y-116090952D01*
X92327142Y-116043333D01*
X92422380Y-115995714D01*
X92517619Y-115995714D01*
X93279523Y-116662380D02*
X93279523Y-116138571D01*
X93231904Y-116043333D01*
X93136666Y-115995714D01*
X92946190Y-115995714D01*
X92850952Y-116043333D01*
X93279523Y-116614761D02*
X93184285Y-116662380D01*
X92946190Y-116662380D01*
X92850952Y-116614761D01*
X92803333Y-116519523D01*
X92803333Y-116424285D01*
X92850952Y-116329047D01*
X92946190Y-116281428D01*
X93184285Y-116281428D01*
X93279523Y-116233809D01*
X93517619Y-116757619D02*
X94279523Y-116757619D01*
X94660476Y-116090952D02*
X94565238Y-116043333D01*
X94517619Y-115995714D01*
X94470000Y-115900476D01*
X94470000Y-115852857D01*
X94517619Y-115757619D01*
X94565238Y-115710000D01*
X94660476Y-115662380D01*
X94850952Y-115662380D01*
X94946190Y-115710000D01*
X94993809Y-115757619D01*
X95041428Y-115852857D01*
X95041428Y-115900476D01*
X94993809Y-115995714D01*
X94946190Y-116043333D01*
X94850952Y-116090952D01*
X94660476Y-116090952D01*
X94565238Y-116138571D01*
X94517619Y-116186190D01*
X94470000Y-116281428D01*
X94470000Y-116471904D01*
X94517619Y-116567142D01*
X94565238Y-116614761D01*
X94660476Y-116662380D01*
X94850952Y-116662380D01*
X94946190Y-116614761D01*
X94993809Y-116567142D01*
X95041428Y-116471904D01*
X95041428Y-116281428D01*
X94993809Y-116186190D01*
X94946190Y-116138571D01*
X94850952Y-116090952D01*
X95898571Y-115995714D02*
X95898571Y-116662380D01*
X95660476Y-115614761D02*
X95422380Y-116329047D01*
X96041428Y-116329047D01*
X96612857Y-115662380D02*
X96708095Y-115662380D01*
X96803333Y-115710000D01*
X96850952Y-115757619D01*
X96898571Y-115852857D01*
X96946190Y-116043333D01*
X96946190Y-116281428D01*
X96898571Y-116471904D01*
X96850952Y-116567142D01*
X96803333Y-116614761D01*
X96708095Y-116662380D01*
X96612857Y-116662380D01*
X96517619Y-116614761D01*
X96470000Y-116567142D01*
X96422380Y-116471904D01*
X96374761Y-116281428D01*
X96374761Y-116043333D01*
X96422380Y-115852857D01*
X96470000Y-115757619D01*
X96517619Y-115710000D01*
X96612857Y-115662380D01*
X97803333Y-116662380D02*
X97803333Y-116138571D01*
X97755714Y-116043333D01*
X97660476Y-115995714D01*
X97470000Y-115995714D01*
X97374761Y-116043333D01*
X97803333Y-116614761D02*
X97708095Y-116662380D01*
X97470000Y-116662380D01*
X97374761Y-116614761D01*
X97327142Y-116519523D01*
X97327142Y-116424285D01*
X97374761Y-116329047D01*
X97470000Y-116281428D01*
X97708095Y-116281428D01*
X97803333Y-116233809D01*
X98184285Y-115995714D02*
X98422380Y-116662380D01*
X98660476Y-115995714D01*
X64045238Y-73182619D02*
X63949999Y-73135000D01*
X63854761Y-73039761D01*
X63711904Y-72896904D01*
X63616666Y-72849285D01*
X63521428Y-72849285D01*
X63569047Y-73087380D02*
X63473809Y-73039761D01*
X63378571Y-72944523D01*
X63330952Y-72754047D01*
X63330952Y-72420714D01*
X63378571Y-72230238D01*
X63473809Y-72135000D01*
X63569047Y-72087380D01*
X63759523Y-72087380D01*
X63854761Y-72135000D01*
X63949999Y-72230238D01*
X63997619Y-72420714D01*
X63997619Y-72754047D01*
X63949999Y-72944523D01*
X63854761Y-73039761D01*
X63759523Y-73087380D01*
X63569047Y-73087380D01*
X64569047Y-72515952D02*
X64473809Y-72468333D01*
X64426190Y-72420714D01*
X64378571Y-72325476D01*
X64378571Y-72277857D01*
X64426190Y-72182619D01*
X64473809Y-72135000D01*
X64569047Y-72087380D01*
X64759523Y-72087380D01*
X64854761Y-72135000D01*
X64902380Y-72182619D01*
X64949999Y-72277857D01*
X64949999Y-72325476D01*
X64902380Y-72420714D01*
X64854761Y-72468333D01*
X64759523Y-72515952D01*
X64569047Y-72515952D01*
X64473809Y-72563571D01*
X64426190Y-72611190D01*
X64378571Y-72706428D01*
X64378571Y-72896904D01*
X64426190Y-72992142D01*
X64473809Y-73039761D01*
X64569047Y-73087380D01*
X64759523Y-73087380D01*
X64854761Y-73039761D01*
X64902380Y-72992142D01*
X64949999Y-72896904D01*
X64949999Y-72706428D01*
X64902380Y-72611190D01*
X64854761Y-72563571D01*
X64759523Y-72515952D01*
X65569047Y-72087380D02*
X65664285Y-72087380D01*
X65759523Y-72135000D01*
X65807142Y-72182619D01*
X65854761Y-72277857D01*
X65902380Y-72468333D01*
X65902380Y-72706428D01*
X65854761Y-72896904D01*
X65807142Y-72992142D01*
X65759523Y-73039761D01*
X65664285Y-73087380D01*
X65569047Y-73087380D01*
X65473809Y-73039761D01*
X65426190Y-72992142D01*
X65378571Y-72896904D01*
X65330952Y-72706428D01*
X65330952Y-72468333D01*
X65378571Y-72277857D01*
X65426190Y-72182619D01*
X65473809Y-72135000D01*
X65569047Y-72087380D01*
X66521428Y-72087380D02*
X66616666Y-72087380D01*
X66711904Y-72135000D01*
X66759523Y-72182619D01*
X66807142Y-72277857D01*
X66854761Y-72468333D01*
X66854761Y-72706428D01*
X66807142Y-72896904D01*
X66759523Y-72992142D01*
X66711904Y-73039761D01*
X66616666Y-73087380D01*
X66521428Y-73087380D01*
X66426190Y-73039761D01*
X66378571Y-72992142D01*
X66330952Y-72896904D01*
X66283333Y-72706428D01*
X66283333Y-72468333D01*
X66330952Y-72277857D01*
X66378571Y-72182619D01*
X66426190Y-72135000D01*
X66521428Y-72087380D01*
X68711904Y-73182619D02*
X68616666Y-73135000D01*
X68521428Y-73039761D01*
X68378571Y-72896904D01*
X68283333Y-72849285D01*
X68188095Y-72849285D01*
X68235714Y-73087380D02*
X68140476Y-73039761D01*
X68045238Y-72944523D01*
X67997619Y-72754047D01*
X67997619Y-72420714D01*
X68045238Y-72230238D01*
X68140476Y-72135000D01*
X68235714Y-72087380D01*
X68426190Y-72087380D01*
X68521428Y-72135000D01*
X68616666Y-72230238D01*
X68664285Y-72420714D01*
X68664285Y-72754047D01*
X68616666Y-72944523D01*
X68521428Y-73039761D01*
X68426190Y-73087380D01*
X68235714Y-73087380D01*
X69235714Y-72515952D02*
X69140476Y-72468333D01*
X69092857Y-72420714D01*
X69045238Y-72325476D01*
X69045238Y-72277857D01*
X69092857Y-72182619D01*
X69140476Y-72135000D01*
X69235714Y-72087380D01*
X69426190Y-72087380D01*
X69521428Y-72135000D01*
X69569047Y-72182619D01*
X69616666Y-72277857D01*
X69616666Y-72325476D01*
X69569047Y-72420714D01*
X69521428Y-72468333D01*
X69426190Y-72515952D01*
X69235714Y-72515952D01*
X69140476Y-72563571D01*
X69092857Y-72611190D01*
X69045238Y-72706428D01*
X69045238Y-72896904D01*
X69092857Y-72992142D01*
X69140476Y-73039761D01*
X69235714Y-73087380D01*
X69426190Y-73087380D01*
X69521428Y-73039761D01*
X69569047Y-72992142D01*
X69616666Y-72896904D01*
X69616666Y-72706428D01*
X69569047Y-72611190D01*
X69521428Y-72563571D01*
X69426190Y-72515952D01*
X70473809Y-72420714D02*
X70473809Y-73087380D01*
X70235714Y-72039761D02*
X69997619Y-72754047D01*
X70616666Y-72754047D01*
X71188095Y-72087380D02*
X71283333Y-72087380D01*
X71378571Y-72135000D01*
X71426190Y-72182619D01*
X71473809Y-72277857D01*
X71521428Y-72468333D01*
X71521428Y-72706428D01*
X71473809Y-72896904D01*
X71426190Y-72992142D01*
X71378571Y-73039761D01*
X71283333Y-73087380D01*
X71188095Y-73087380D01*
X71092857Y-73039761D01*
X71045238Y-72992142D01*
X70997619Y-72896904D01*
X70950000Y-72706428D01*
X70950000Y-72468333D01*
X70997619Y-72277857D01*
X71045238Y-72182619D01*
X71092857Y-72135000D01*
X71188095Y-72087380D01*
X72378571Y-73087380D02*
X72378571Y-72563571D01*
X72330952Y-72468333D01*
X72235714Y-72420714D01*
X72045238Y-72420714D01*
X71950000Y-72468333D01*
X72378571Y-73039761D02*
X72283333Y-73087380D01*
X72045238Y-73087380D01*
X71950000Y-73039761D01*
X71902380Y-72944523D01*
X71902380Y-72849285D01*
X71950000Y-72754047D01*
X72045238Y-72706428D01*
X72283333Y-72706428D01*
X72378571Y-72658809D01*
X72759523Y-72420714D02*
X72997619Y-73087380D01*
X73235714Y-72420714D01*
X74378571Y-73087380D02*
X74378571Y-72087380D01*
X74759523Y-72087380D01*
X74854761Y-72135000D01*
X74902380Y-72182619D01*
X74950000Y-72277857D01*
X74950000Y-72420714D01*
X74902380Y-72515952D01*
X74854761Y-72563571D01*
X74759523Y-72611190D01*
X74378571Y-72611190D01*
X75378571Y-73087380D02*
X75378571Y-72087380D01*
X75711904Y-72801666D01*
X76045238Y-72087380D01*
X76045238Y-73087380D01*
X76950000Y-73087380D02*
X76950000Y-72563571D01*
X76902380Y-72468333D01*
X76807142Y-72420714D01*
X76616666Y-72420714D01*
X76521428Y-72468333D01*
X76950000Y-73039761D02*
X76854761Y-73087380D01*
X76616666Y-73087380D01*
X76521428Y-73039761D01*
X76473809Y-72944523D01*
X76473809Y-72849285D01*
X76521428Y-72754047D01*
X76616666Y-72706428D01*
X76854761Y-72706428D01*
X76950000Y-72658809D01*
X77854761Y-73039761D02*
X77759523Y-73087380D01*
X77569047Y-73087380D01*
X77473809Y-73039761D01*
X77426190Y-72992142D01*
X77378571Y-72896904D01*
X77378571Y-72611190D01*
X77426190Y-72515952D01*
X77473809Y-72468333D01*
X77569047Y-72420714D01*
X77759523Y-72420714D01*
X77854761Y-72468333D01*
X78426190Y-72515952D02*
X78330952Y-72468333D01*
X78283333Y-72420714D01*
X78235714Y-72325476D01*
X78235714Y-72277857D01*
X78283333Y-72182619D01*
X78330952Y-72135000D01*
X78426190Y-72087380D01*
X78616666Y-72087380D01*
X78711904Y-72135000D01*
X78759523Y-72182619D01*
X78807142Y-72277857D01*
X78807142Y-72325476D01*
X78759523Y-72420714D01*
X78711904Y-72468333D01*
X78616666Y-72515952D01*
X78426190Y-72515952D01*
X78330952Y-72563571D01*
X78283333Y-72611190D01*
X78235714Y-72706428D01*
X78235714Y-72896904D01*
X78283333Y-72992142D01*
X78330952Y-73039761D01*
X78426190Y-73087380D01*
X78616666Y-73087380D01*
X78711904Y-73039761D01*
X78759523Y-72992142D01*
X78807142Y-72896904D01*
X78807142Y-72706428D01*
X78759523Y-72611190D01*
X78711904Y-72563571D01*
X78616666Y-72515952D01*
X79759523Y-73087380D02*
X79188095Y-73087380D01*
X79473809Y-73087380D02*
X79473809Y-72087380D01*
X79378571Y-72230238D01*
X79283333Y-72325476D01*
X79188095Y-72373095D01*
X80378571Y-72087380D02*
X80473809Y-72087380D01*
X80569047Y-72135000D01*
X80616666Y-72182619D01*
X80664285Y-72277857D01*
X80711904Y-72468333D01*
X80711904Y-72706428D01*
X80664285Y-72896904D01*
X80616666Y-72992142D01*
X80569047Y-73039761D01*
X80473809Y-73087380D01*
X80378571Y-73087380D01*
X80283333Y-73039761D01*
X80235714Y-72992142D01*
X80188095Y-72896904D01*
X80140476Y-72706428D01*
X80140476Y-72468333D01*
X80188095Y-72277857D01*
X80235714Y-72182619D01*
X80283333Y-72135000D01*
X80378571Y-72087380D01*
X81330952Y-72087380D02*
X81426190Y-72087380D01*
X81521428Y-72135000D01*
X81569047Y-72182619D01*
X81616666Y-72277857D01*
X81664285Y-72468333D01*
X81664285Y-72706428D01*
X81616666Y-72896904D01*
X81569047Y-72992142D01*
X81521428Y-73039761D01*
X81426190Y-73087380D01*
X81330952Y-73087380D01*
X81235714Y-73039761D01*
X81188095Y-72992142D01*
X81140476Y-72896904D01*
X81092857Y-72706428D01*
X81092857Y-72468333D01*
X81140476Y-72277857D01*
X81188095Y-72182619D01*
X81235714Y-72135000D01*
X81330952Y-72087380D01*
X82807142Y-72801666D02*
X83283333Y-72801666D01*
X82711904Y-73087380D02*
X83045238Y-72087380D01*
X83378571Y-73087380D01*
X83569047Y-72087380D02*
X84140476Y-72087380D01*
X83854761Y-73087380D02*
X83854761Y-72087380D01*
X84378571Y-72087380D02*
X85045238Y-73087380D01*
X85045238Y-72087380D02*
X84378571Y-73087380D01*
X86188095Y-73087380D02*
X86188095Y-72087380D01*
X86569047Y-72087380D01*
X86664285Y-72135000D01*
X86711904Y-72182619D01*
X86759523Y-72277857D01*
X86759523Y-72420714D01*
X86711904Y-72515952D01*
X86664285Y-72563571D01*
X86569047Y-72611190D01*
X86188095Y-72611190D01*
X87330952Y-73087380D02*
X87235714Y-73039761D01*
X87188095Y-72992142D01*
X87140476Y-72896904D01*
X87140476Y-72611190D01*
X87188095Y-72515952D01*
X87235714Y-72468333D01*
X87330952Y-72420714D01*
X87473809Y-72420714D01*
X87569047Y-72468333D01*
X87616666Y-72515952D01*
X87664285Y-72611190D01*
X87664285Y-72896904D01*
X87616666Y-72992142D01*
X87569047Y-73039761D01*
X87473809Y-73087380D01*
X87330952Y-73087380D01*
X87997619Y-72420714D02*
X88188095Y-73087380D01*
X88378571Y-72611190D01*
X88569047Y-73087380D01*
X88759523Y-72420714D01*
X89521428Y-73039761D02*
X89426190Y-73087380D01*
X89235714Y-73087380D01*
X89140476Y-73039761D01*
X89092857Y-72944523D01*
X89092857Y-72563571D01*
X89140476Y-72468333D01*
X89235714Y-72420714D01*
X89426190Y-72420714D01*
X89521428Y-72468333D01*
X89569047Y-72563571D01*
X89569047Y-72658809D01*
X89092857Y-72754047D01*
X89997619Y-73087380D02*
X89997619Y-72420714D01*
X89997619Y-72611190D02*
X90045238Y-72515952D01*
X90092857Y-72468333D01*
X90188095Y-72420714D01*
X90283333Y-72420714D01*
X91330952Y-72801666D02*
X91807142Y-72801666D01*
X91235714Y-73087380D02*
X91569047Y-72087380D01*
X91902380Y-73087380D01*
X92664285Y-73087380D02*
X92664285Y-72087380D01*
X92664285Y-73039761D02*
X92569047Y-73087380D01*
X92378571Y-73087380D01*
X92283333Y-73039761D01*
X92235714Y-72992142D01*
X92188095Y-72896904D01*
X92188095Y-72611190D01*
X92235714Y-72515952D01*
X92283333Y-72468333D01*
X92378571Y-72420714D01*
X92569047Y-72420714D01*
X92664285Y-72468333D01*
X93569047Y-73087380D02*
X93569047Y-72563571D01*
X93521428Y-72468333D01*
X93426190Y-72420714D01*
X93235714Y-72420714D01*
X93140476Y-72468333D01*
X93569047Y-73039761D02*
X93473809Y-73087380D01*
X93235714Y-73087380D01*
X93140476Y-73039761D01*
X93092857Y-72944523D01*
X93092857Y-72849285D01*
X93140476Y-72754047D01*
X93235714Y-72706428D01*
X93473809Y-72706428D01*
X93569047Y-72658809D01*
X94045238Y-72420714D02*
X94045238Y-73420714D01*
X94045238Y-72468333D02*
X94140476Y-72420714D01*
X94330952Y-72420714D01*
X94426190Y-72468333D01*
X94473809Y-72515952D01*
X94521428Y-72611190D01*
X94521428Y-72896904D01*
X94473809Y-72992142D01*
X94426190Y-73039761D01*
X94330952Y-73087380D01*
X94140476Y-73087380D01*
X94045238Y-73039761D01*
X94807142Y-72420714D02*
X95188095Y-72420714D01*
X94949999Y-72087380D02*
X94949999Y-72944523D01*
X94997619Y-73039761D01*
X95092857Y-73087380D01*
X95188095Y-73087380D01*
X95902380Y-73039761D02*
X95807142Y-73087380D01*
X95616666Y-73087380D01*
X95521428Y-73039761D01*
X95473809Y-72944523D01*
X95473809Y-72563571D01*
X95521428Y-72468333D01*
X95616666Y-72420714D01*
X95807142Y-72420714D01*
X95902380Y-72468333D01*
X95949999Y-72563571D01*
X95949999Y-72658809D01*
X95473809Y-72754047D01*
X96378571Y-73087380D02*
X96378571Y-72420714D01*
X96378571Y-72611190D02*
X96426190Y-72515952D01*
X96473809Y-72468333D01*
X96569047Y-72420714D01*
X96664285Y-72420714D01*
X74259523Y-75118333D02*
X74211904Y-75070714D01*
X74116666Y-74927857D01*
X74069047Y-74832619D01*
X74021428Y-74689761D01*
X73973809Y-74451666D01*
X73973809Y-74261190D01*
X74021428Y-74023095D01*
X74069047Y-73880238D01*
X74116666Y-73785000D01*
X74211904Y-73642142D01*
X74259523Y-73594523D01*
X75069047Y-74689761D02*
X74973809Y-74737380D01*
X74783333Y-74737380D01*
X74688095Y-74689761D01*
X74640476Y-74642142D01*
X74592857Y-74546904D01*
X74592857Y-74261190D01*
X74640476Y-74165952D01*
X74688095Y-74118333D01*
X74783333Y-74070714D01*
X74973809Y-74070714D01*
X75069047Y-74118333D01*
X75402380Y-75118333D02*
X75450000Y-75070714D01*
X75545238Y-74927857D01*
X75592857Y-74832619D01*
X75640476Y-74689761D01*
X75688095Y-74451666D01*
X75688095Y-74261190D01*
X75640476Y-74023095D01*
X75592857Y-73880238D01*
X75545238Y-73785000D01*
X75450000Y-73642142D01*
X75402380Y-73594523D01*
X77354761Y-74737380D02*
X77354761Y-74213571D01*
X77307142Y-74118333D01*
X77211904Y-74070714D01*
X77021428Y-74070714D01*
X76926190Y-74118333D01*
X77354761Y-74689761D02*
X77259523Y-74737380D01*
X77021428Y-74737380D01*
X76926190Y-74689761D01*
X76878571Y-74594523D01*
X76878571Y-74499285D01*
X76926190Y-74404047D01*
X77021428Y-74356428D01*
X77259523Y-74356428D01*
X77354761Y-74308809D01*
X77830952Y-74737380D02*
X77830952Y-73737380D01*
X77926190Y-74356428D02*
X78211904Y-74737380D01*
X78211904Y-74070714D02*
X77830952Y-74451666D01*
X79069047Y-74070714D02*
X79069047Y-74737380D01*
X78640476Y-74070714D02*
X78640476Y-74594523D01*
X78688095Y-74689761D01*
X78783333Y-74737380D01*
X78926190Y-74737380D01*
X79021428Y-74689761D01*
X79069047Y-74642142D01*
X79545238Y-74737380D02*
X79545238Y-73737380D01*
X79640476Y-74356428D02*
X79926190Y-74737380D01*
X79926190Y-74070714D02*
X79545238Y-74451666D01*
X80735714Y-74689761D02*
X80640476Y-74737380D01*
X80450000Y-74737380D01*
X80354761Y-74689761D01*
X80307142Y-74594523D01*
X80307142Y-74213571D01*
X80354761Y-74118333D01*
X80450000Y-74070714D01*
X80640476Y-74070714D01*
X80735714Y-74118333D01*
X80783333Y-74213571D01*
X80783333Y-74308809D01*
X80307142Y-74404047D01*
X81211904Y-74737380D02*
X81211904Y-74070714D01*
X81211904Y-74261190D02*
X81259523Y-74165952D01*
X81307142Y-74118333D01*
X81402380Y-74070714D01*
X81497619Y-74070714D01*
X82545238Y-73832619D02*
X82592857Y-73785000D01*
X82688095Y-73737380D01*
X82926190Y-73737380D01*
X83021428Y-73785000D01*
X83069047Y-73832619D01*
X83116666Y-73927857D01*
X83116666Y-74023095D01*
X83069047Y-74165952D01*
X82497619Y-74737380D01*
X83116666Y-74737380D01*
X83735714Y-73737380D02*
X83830952Y-73737380D01*
X83926190Y-73785000D01*
X83973809Y-73832619D01*
X84021428Y-73927857D01*
X84069047Y-74118333D01*
X84069047Y-74356428D01*
X84021428Y-74546904D01*
X83973809Y-74642142D01*
X83926190Y-74689761D01*
X83830952Y-74737380D01*
X83735714Y-74737380D01*
X83640476Y-74689761D01*
X83592857Y-74642142D01*
X83545238Y-74546904D01*
X83497619Y-74356428D01*
X83497619Y-74118333D01*
X83545238Y-73927857D01*
X83592857Y-73832619D01*
X83640476Y-73785000D01*
X83735714Y-73737380D01*
X84450000Y-73832619D02*
X84497619Y-73785000D01*
X84592857Y-73737380D01*
X84830952Y-73737380D01*
X84926190Y-73785000D01*
X84973809Y-73832619D01*
X85021428Y-73927857D01*
X85021428Y-74023095D01*
X84973809Y-74165952D01*
X84402380Y-74737380D01*
X85021428Y-74737380D01*
X85640476Y-73737380D02*
X85735714Y-73737380D01*
X85830952Y-73785000D01*
X85878571Y-73832619D01*
X85926190Y-73927857D01*
X85973809Y-74118333D01*
X85973809Y-74356428D01*
X85926190Y-74546904D01*
X85878571Y-74642142D01*
X85830952Y-74689761D01*
X85735714Y-74737380D01*
X85640476Y-74737380D01*
X85545238Y-74689761D01*
X85497619Y-74642142D01*
X85450000Y-74546904D01*
X85402380Y-74356428D01*
X85402380Y-74118333D01*
X85450000Y-73927857D01*
X85497619Y-73832619D01*
X85545238Y-73785000D01*
X85640476Y-73737380D01*
X55981904Y-100282380D02*
X55981904Y-99282380D01*
X56362857Y-99282380D01*
X56458095Y-99330000D01*
X56505714Y-99377619D01*
X56553333Y-99472857D01*
X56553333Y-99615714D01*
X56505714Y-99710952D01*
X56458095Y-99758571D01*
X56362857Y-99806190D01*
X55981904Y-99806190D01*
X56886666Y-99282380D02*
X57124761Y-100282380D01*
X57315238Y-99568095D01*
X57505714Y-100282380D01*
X57743809Y-99282380D01*
X58696190Y-100282380D02*
X58362857Y-99806190D01*
X58124761Y-100282380D02*
X58124761Y-99282380D01*
X58505714Y-99282380D01*
X58600952Y-99330000D01*
X58648571Y-99377619D01*
X58696190Y-99472857D01*
X58696190Y-99615714D01*
X58648571Y-99710952D01*
X58600952Y-99758571D01*
X58505714Y-99806190D01*
X58124761Y-99806190D01*
X60077142Y-99282380D02*
X60267619Y-99282380D01*
X60362857Y-99330000D01*
X60458095Y-99425238D01*
X60505714Y-99615714D01*
X60505714Y-99949047D01*
X60458095Y-100139523D01*
X60362857Y-100234761D01*
X60267619Y-100282380D01*
X60077142Y-100282380D01*
X59981904Y-100234761D01*
X59886666Y-100139523D01*
X59839047Y-99949047D01*
X59839047Y-99615714D01*
X59886666Y-99425238D01*
X59981904Y-99330000D01*
X60077142Y-99282380D01*
X60934285Y-100282380D02*
X60934285Y-99282380D01*
X61505714Y-100282380D02*
X61077142Y-99710952D01*
X61505714Y-99282380D02*
X60934285Y-99853809D01*
X56398571Y-95162380D02*
X55827142Y-95162380D01*
X56112857Y-95162380D02*
X56112857Y-94162380D01*
X56017619Y-94305238D01*
X55922380Y-94400476D01*
X55827142Y-94448095D01*
X56779523Y-94257619D02*
X56827142Y-94210000D01*
X56922380Y-94162380D01*
X57160476Y-94162380D01*
X57255714Y-94210000D01*
X57303333Y-94257619D01*
X57350952Y-94352857D01*
X57350952Y-94448095D01*
X57303333Y-94590952D01*
X56731904Y-95162380D01*
X57350952Y-95162380D01*
X57684285Y-94495714D02*
X57922380Y-95162380D01*
X58160476Y-94495714D01*
X55741904Y-89691428D02*
X56503809Y-89691428D01*
X56122857Y-90072380D02*
X56122857Y-89310476D01*
X57456190Y-89072380D02*
X56980000Y-89072380D01*
X56932380Y-89548571D01*
X56980000Y-89500952D01*
X57075238Y-89453333D01*
X57313333Y-89453333D01*
X57408571Y-89500952D01*
X57456190Y-89548571D01*
X57503809Y-89643809D01*
X57503809Y-89881904D01*
X57456190Y-89977142D01*
X57408571Y-90024761D01*
X57313333Y-90072380D01*
X57075238Y-90072380D01*
X56980000Y-90024761D01*
X56932380Y-89977142D01*
X57837142Y-89405714D02*
X58075238Y-90072380D01*
X58313333Y-89405714D01*
X55834761Y-86121428D02*
X56596666Y-86121428D01*
X56215714Y-86502380D02*
X56215714Y-85740476D01*
X57549047Y-85502380D02*
X57072857Y-85502380D01*
X57025238Y-85978571D01*
X57072857Y-85930952D01*
X57168095Y-85883333D01*
X57406190Y-85883333D01*
X57501428Y-85930952D01*
X57549047Y-85978571D01*
X57596666Y-86073809D01*
X57596666Y-86311904D01*
X57549047Y-86407142D01*
X57501428Y-86454761D01*
X57406190Y-86502380D01*
X57168095Y-86502380D01*
X57072857Y-86454761D01*
X57025238Y-86407142D01*
X57930000Y-85835714D02*
X58168095Y-86502380D01*
X58406190Y-85835714D01*
X59501428Y-86454761D02*
X59644285Y-86502380D01*
X59882380Y-86502380D01*
X59977619Y-86454761D01*
X60025238Y-86407142D01*
X60072857Y-86311904D01*
X60072857Y-86216666D01*
X60025238Y-86121428D01*
X59977619Y-86073809D01*
X59882380Y-86026190D01*
X59691904Y-85978571D01*
X59596666Y-85930952D01*
X59549047Y-85883333D01*
X59501428Y-85788095D01*
X59501428Y-85692857D01*
X59549047Y-85597619D01*
X59596666Y-85550000D01*
X59691904Y-85502380D01*
X59930000Y-85502380D01*
X60072857Y-85550000D01*
X60834761Y-85978571D02*
X60977619Y-86026190D01*
X61025238Y-86073809D01*
X61072857Y-86169047D01*
X61072857Y-86311904D01*
X61025238Y-86407142D01*
X60977619Y-86454761D01*
X60882380Y-86502380D01*
X60501428Y-86502380D01*
X60501428Y-85502380D01*
X60834761Y-85502380D01*
X60930000Y-85550000D01*
X60977619Y-85597619D01*
X61025238Y-85692857D01*
X61025238Y-85788095D01*
X60977619Y-85883333D01*
X60930000Y-85930952D01*
X60834761Y-85978571D01*
X60501428Y-85978571D01*
X50218095Y-77252380D02*
X50218095Y-76252380D01*
X50599047Y-76252380D01*
X50694285Y-76300000D01*
X50741904Y-76347619D01*
X50789523Y-76442857D01*
X50789523Y-76585714D01*
X50741904Y-76680952D01*
X50694285Y-76728571D01*
X50599047Y-76776190D01*
X50218095Y-76776190D01*
X51122857Y-76252380D02*
X51360952Y-77252380D01*
X51551428Y-76538095D01*
X51741904Y-77252380D01*
X51980000Y-76252380D01*
X52932380Y-77252380D02*
X52599047Y-76776190D01*
X52360952Y-77252380D02*
X52360952Y-76252380D01*
X52741904Y-76252380D01*
X52837142Y-76300000D01*
X52884761Y-76347619D01*
X52932380Y-76442857D01*
X52932380Y-76585714D01*
X52884761Y-76680952D01*
X52837142Y-76728571D01*
X52741904Y-76776190D01*
X52360952Y-76776190D01*
X54313333Y-76252380D02*
X54503809Y-76252380D01*
X54599047Y-76300000D01*
X54694285Y-76395238D01*
X54741904Y-76585714D01*
X54741904Y-76919047D01*
X54694285Y-77109523D01*
X54599047Y-77204761D01*
X54503809Y-77252380D01*
X54313333Y-77252380D01*
X54218095Y-77204761D01*
X54122857Y-77109523D01*
X54075238Y-76919047D01*
X54075238Y-76585714D01*
X54122857Y-76395238D01*
X54218095Y-76300000D01*
X54313333Y-76252380D01*
X55170476Y-77252380D02*
X55170476Y-76252380D01*
X55741904Y-77252380D01*
X55741904Y-76252380D01*
D11*
%TO.C,G\002A\002A\002A*%
G36*
X59237818Y-113814818D02*
G01*
X59241680Y-113869117D01*
X59261267Y-113891388D01*
X59307091Y-113895636D01*
X59356157Y-113901358D01*
X59374241Y-113928347D01*
X59376364Y-113964909D01*
X59380869Y-114011451D01*
X59403721Y-114030540D01*
X59457182Y-114034182D01*
X59538000Y-114034182D01*
X59538000Y-117636364D01*
X59376364Y-117636364D01*
X59376364Y-118352182D01*
X56074364Y-118352182D01*
X56074364Y-117774909D01*
X56212909Y-117774909D01*
X56212909Y-118213636D01*
X59237818Y-118213636D01*
X59237818Y-117774909D01*
X56212909Y-117774909D01*
X56074364Y-117774909D01*
X56074364Y-117636364D01*
X55912727Y-117636364D01*
X55912727Y-114034182D01*
X55993546Y-114034182D01*
X56074364Y-114034182D01*
X56074364Y-117636364D01*
X59376364Y-117636364D01*
X59376364Y-114034182D01*
X59307091Y-114034182D01*
X59258025Y-114028460D01*
X59239940Y-114001471D01*
X59237818Y-113964909D01*
X59237818Y-113895636D01*
X56212909Y-113895636D01*
X56212909Y-113964909D01*
X56207188Y-114013975D01*
X56180198Y-114032060D01*
X56143636Y-114034182D01*
X56074364Y-114034182D01*
X55993546Y-114034182D01*
X56047844Y-114030320D01*
X56070115Y-114010733D01*
X56074364Y-113964909D01*
X56080085Y-113915843D01*
X56107075Y-113897759D01*
X56143636Y-113895636D01*
X56190178Y-113891131D01*
X56209268Y-113868279D01*
X56212909Y-113814818D01*
X56212909Y-113734000D01*
X59237818Y-113734000D01*
X59237818Y-113814818D01*
X59237818Y-113814818D01*
G37*
X59237818Y-113814818D02*
X59241680Y-113869117D01*
X59261267Y-113891388D01*
X59307091Y-113895636D01*
X59356157Y-113901358D01*
X59374241Y-113928347D01*
X59376364Y-113964909D01*
X59380869Y-114011451D01*
X59403721Y-114030540D01*
X59457182Y-114034182D01*
X59538000Y-114034182D01*
X59538000Y-117636364D01*
X59376364Y-117636364D01*
X59376364Y-118352182D01*
X56074364Y-118352182D01*
X56074364Y-117774909D01*
X56212909Y-117774909D01*
X56212909Y-118213636D01*
X59237818Y-118213636D01*
X59237818Y-117774909D01*
X56212909Y-117774909D01*
X56074364Y-117774909D01*
X56074364Y-117636364D01*
X55912727Y-117636364D01*
X55912727Y-114034182D01*
X55993546Y-114034182D01*
X56074364Y-114034182D01*
X56074364Y-117636364D01*
X59376364Y-117636364D01*
X59376364Y-114034182D01*
X59307091Y-114034182D01*
X59258025Y-114028460D01*
X59239940Y-114001471D01*
X59237818Y-113964909D01*
X59237818Y-113895636D01*
X56212909Y-113895636D01*
X56212909Y-113964909D01*
X56207188Y-114013975D01*
X56180198Y-114032060D01*
X56143636Y-114034182D01*
X56074364Y-114034182D01*
X55993546Y-114034182D01*
X56047844Y-114030320D01*
X56070115Y-114010733D01*
X56074364Y-113964909D01*
X56080085Y-113915843D01*
X56107075Y-113897759D01*
X56143636Y-113895636D01*
X56190178Y-113891131D01*
X56209268Y-113868279D01*
X56212909Y-113814818D01*
X56212909Y-113734000D01*
X59237818Y-113734000D01*
X59237818Y-113814818D01*
G36*
X56651636Y-117197636D02*
G01*
X56351455Y-117197636D01*
X56351455Y-117059091D01*
X56651636Y-117059091D01*
X56651636Y-117197636D01*
X56651636Y-117197636D01*
G37*
X56651636Y-117197636D02*
X56351455Y-117197636D01*
X56351455Y-117059091D01*
X56651636Y-117059091D01*
X56651636Y-117197636D01*
G36*
X58960727Y-117059091D02*
G01*
X58083273Y-117059091D01*
X58083273Y-116920546D01*
X58960727Y-116920546D01*
X58960727Y-117059091D01*
X58960727Y-117059091D01*
G37*
X58960727Y-117059091D02*
X58083273Y-117059091D01*
X58083273Y-116920546D01*
X58960727Y-116920546D01*
X58960727Y-117059091D01*
G36*
X58960727Y-114242000D02*
G01*
X58966449Y-114291066D01*
X58993438Y-114309151D01*
X59030000Y-114311273D01*
X59099273Y-114311273D01*
X59099273Y-116204727D01*
X59030000Y-116204727D01*
X58980934Y-116210449D01*
X58962850Y-116237438D01*
X58960727Y-116274000D01*
X58960727Y-116343273D01*
X56490000Y-116343273D01*
X56490000Y-116274000D01*
X56484278Y-116224934D01*
X56457289Y-116206850D01*
X56420727Y-116204727D01*
X56351455Y-116204727D01*
X56351455Y-114311273D01*
X56420727Y-114311273D01*
X56490000Y-114311273D01*
X56490000Y-116204727D01*
X58960727Y-116204727D01*
X58960727Y-114311273D01*
X56490000Y-114311273D01*
X56420727Y-114311273D01*
X56469793Y-114305551D01*
X56487878Y-114278562D01*
X56490000Y-114242000D01*
X56490000Y-114172727D01*
X58960727Y-114172727D01*
X58960727Y-114242000D01*
X58960727Y-114242000D01*
G37*
X58960727Y-114242000D02*
X58966449Y-114291066D01*
X58993438Y-114309151D01*
X59030000Y-114311273D01*
X59099273Y-114311273D01*
X59099273Y-116204727D01*
X59030000Y-116204727D01*
X58980934Y-116210449D01*
X58962850Y-116237438D01*
X58960727Y-116274000D01*
X58960727Y-116343273D01*
X56490000Y-116343273D01*
X56490000Y-116274000D01*
X56484278Y-116224934D01*
X56457289Y-116206850D01*
X56420727Y-116204727D01*
X56351455Y-116204727D01*
X56351455Y-114311273D01*
X56420727Y-114311273D01*
X56490000Y-114311273D01*
X56490000Y-116204727D01*
X58960727Y-116204727D01*
X58960727Y-114311273D01*
X56490000Y-114311273D01*
X56420727Y-114311273D01*
X56469793Y-114305551D01*
X56487878Y-114278562D01*
X56490000Y-114242000D01*
X56490000Y-114172727D01*
X58960727Y-114172727D01*
X58960727Y-114242000D01*
G36*
X58063066Y-115633176D02*
G01*
X58081151Y-115660165D01*
X58083273Y-115696727D01*
X58077551Y-115745793D01*
X58050562Y-115763878D01*
X58014000Y-115766000D01*
X57964934Y-115771722D01*
X57946850Y-115798711D01*
X57944727Y-115835273D01*
X57944727Y-115904546D01*
X57367455Y-115904546D01*
X57367455Y-115835273D01*
X57361733Y-115786207D01*
X57334744Y-115768122D01*
X57298182Y-115766000D01*
X57249116Y-115760278D01*
X57231031Y-115733289D01*
X57228909Y-115696727D01*
X57234631Y-115647661D01*
X57261620Y-115629577D01*
X57298182Y-115627455D01*
X57347248Y-115633176D01*
X57365332Y-115660165D01*
X57367455Y-115696727D01*
X57367455Y-115766000D01*
X57944727Y-115766000D01*
X57944727Y-115696727D01*
X57950449Y-115647661D01*
X57977438Y-115629577D01*
X58014000Y-115627455D01*
X58063066Y-115633176D01*
X58063066Y-115633176D01*
G37*
X58063066Y-115633176D02*
X58081151Y-115660165D01*
X58083273Y-115696727D01*
X58077551Y-115745793D01*
X58050562Y-115763878D01*
X58014000Y-115766000D01*
X57964934Y-115771722D01*
X57946850Y-115798711D01*
X57944727Y-115835273D01*
X57944727Y-115904546D01*
X57367455Y-115904546D01*
X57367455Y-115835273D01*
X57361733Y-115786207D01*
X57334744Y-115768122D01*
X57298182Y-115766000D01*
X57249116Y-115760278D01*
X57231031Y-115733289D01*
X57228909Y-115696727D01*
X57234631Y-115647661D01*
X57261620Y-115629577D01*
X57298182Y-115627455D01*
X57347248Y-115633176D01*
X57365332Y-115660165D01*
X57367455Y-115696727D01*
X57367455Y-115766000D01*
X57944727Y-115766000D01*
X57944727Y-115696727D01*
X57950449Y-115647661D01*
X57977438Y-115629577D01*
X58014000Y-115627455D01*
X58063066Y-115633176D01*
G36*
X57806182Y-115465818D02*
G01*
X57506000Y-115465818D01*
X57506000Y-115396546D01*
X57511722Y-115347480D01*
X57538711Y-115329395D01*
X57575273Y-115327273D01*
X57644546Y-115327273D01*
X57644546Y-114750000D01*
X57806182Y-114750000D01*
X57806182Y-115465818D01*
X57806182Y-115465818D01*
G37*
X57806182Y-115465818D02*
X57506000Y-115465818D01*
X57506000Y-115396546D01*
X57511722Y-115347480D01*
X57538711Y-115329395D01*
X57575273Y-115327273D01*
X57644546Y-115327273D01*
X57644546Y-114750000D01*
X57806182Y-114750000D01*
X57806182Y-115465818D01*
G36*
X57228909Y-115050182D02*
G01*
X57067273Y-115050182D01*
X57067273Y-114750000D01*
X57228909Y-114750000D01*
X57228909Y-115050182D01*
X57228909Y-115050182D01*
G37*
X57228909Y-115050182D02*
X57067273Y-115050182D01*
X57067273Y-114750000D01*
X57228909Y-114750000D01*
X57228909Y-115050182D01*
G36*
X58221818Y-115050182D02*
G01*
X58083273Y-115050182D01*
X58083273Y-114750000D01*
X58221818Y-114750000D01*
X58221818Y-115050182D01*
X58221818Y-115050182D01*
G37*
X58221818Y-115050182D02*
X58083273Y-115050182D01*
X58083273Y-114750000D01*
X58221818Y-114750000D01*
X58221818Y-115050182D01*
G36*
X103377818Y-113814818D02*
G01*
X103381680Y-113869117D01*
X103401267Y-113891388D01*
X103447091Y-113895636D01*
X103496157Y-113901358D01*
X103514241Y-113928347D01*
X103516364Y-113964909D01*
X103520869Y-114011451D01*
X103543721Y-114030540D01*
X103597182Y-114034182D01*
X103678000Y-114034182D01*
X103678000Y-117636364D01*
X103516364Y-117636364D01*
X103516364Y-118352182D01*
X100214364Y-118352182D01*
X100214364Y-117774909D01*
X100352909Y-117774909D01*
X100352909Y-118213636D01*
X103377818Y-118213636D01*
X103377818Y-117774909D01*
X100352909Y-117774909D01*
X100214364Y-117774909D01*
X100214364Y-117636364D01*
X100052727Y-117636364D01*
X100052727Y-114034182D01*
X100133546Y-114034182D01*
X100214364Y-114034182D01*
X100214364Y-117636364D01*
X103516364Y-117636364D01*
X103516364Y-114034182D01*
X103447091Y-114034182D01*
X103398025Y-114028460D01*
X103379940Y-114001471D01*
X103377818Y-113964909D01*
X103377818Y-113895636D01*
X100352909Y-113895636D01*
X100352909Y-113964909D01*
X100347188Y-114013975D01*
X100320198Y-114032060D01*
X100283636Y-114034182D01*
X100214364Y-114034182D01*
X100133546Y-114034182D01*
X100187844Y-114030320D01*
X100210115Y-114010733D01*
X100214364Y-113964909D01*
X100220085Y-113915843D01*
X100247075Y-113897759D01*
X100283636Y-113895636D01*
X100330178Y-113891131D01*
X100349268Y-113868279D01*
X100352909Y-113814818D01*
X100352909Y-113734000D01*
X103377818Y-113734000D01*
X103377818Y-113814818D01*
X103377818Y-113814818D01*
G37*
X103377818Y-113814818D02*
X103381680Y-113869117D01*
X103401267Y-113891388D01*
X103447091Y-113895636D01*
X103496157Y-113901358D01*
X103514241Y-113928347D01*
X103516364Y-113964909D01*
X103520869Y-114011451D01*
X103543721Y-114030540D01*
X103597182Y-114034182D01*
X103678000Y-114034182D01*
X103678000Y-117636364D01*
X103516364Y-117636364D01*
X103516364Y-118352182D01*
X100214364Y-118352182D01*
X100214364Y-117774909D01*
X100352909Y-117774909D01*
X100352909Y-118213636D01*
X103377818Y-118213636D01*
X103377818Y-117774909D01*
X100352909Y-117774909D01*
X100214364Y-117774909D01*
X100214364Y-117636364D01*
X100052727Y-117636364D01*
X100052727Y-114034182D01*
X100133546Y-114034182D01*
X100214364Y-114034182D01*
X100214364Y-117636364D01*
X103516364Y-117636364D01*
X103516364Y-114034182D01*
X103447091Y-114034182D01*
X103398025Y-114028460D01*
X103379940Y-114001471D01*
X103377818Y-113964909D01*
X103377818Y-113895636D01*
X100352909Y-113895636D01*
X100352909Y-113964909D01*
X100347188Y-114013975D01*
X100320198Y-114032060D01*
X100283636Y-114034182D01*
X100214364Y-114034182D01*
X100133546Y-114034182D01*
X100187844Y-114030320D01*
X100210115Y-114010733D01*
X100214364Y-113964909D01*
X100220085Y-113915843D01*
X100247075Y-113897759D01*
X100283636Y-113895636D01*
X100330178Y-113891131D01*
X100349268Y-113868279D01*
X100352909Y-113814818D01*
X100352909Y-113734000D01*
X103377818Y-113734000D01*
X103377818Y-113814818D01*
G36*
X100791636Y-117197636D02*
G01*
X100491455Y-117197636D01*
X100491455Y-117059091D01*
X100791636Y-117059091D01*
X100791636Y-117197636D01*
X100791636Y-117197636D01*
G37*
X100791636Y-117197636D02*
X100491455Y-117197636D01*
X100491455Y-117059091D01*
X100791636Y-117059091D01*
X100791636Y-117197636D01*
G36*
X103100727Y-117059091D02*
G01*
X102223273Y-117059091D01*
X102223273Y-116920546D01*
X103100727Y-116920546D01*
X103100727Y-117059091D01*
X103100727Y-117059091D01*
G37*
X103100727Y-117059091D02*
X102223273Y-117059091D01*
X102223273Y-116920546D01*
X103100727Y-116920546D01*
X103100727Y-117059091D01*
G36*
X103100727Y-114242000D02*
G01*
X103106449Y-114291066D01*
X103133438Y-114309151D01*
X103170000Y-114311273D01*
X103239273Y-114311273D01*
X103239273Y-116204727D01*
X103170000Y-116204727D01*
X103120934Y-116210449D01*
X103102850Y-116237438D01*
X103100727Y-116274000D01*
X103100727Y-116343273D01*
X100630000Y-116343273D01*
X100630000Y-116274000D01*
X100624278Y-116224934D01*
X100597289Y-116206850D01*
X100560727Y-116204727D01*
X100491455Y-116204727D01*
X100491455Y-114311273D01*
X100560727Y-114311273D01*
X100630000Y-114311273D01*
X100630000Y-116204727D01*
X103100727Y-116204727D01*
X103100727Y-114311273D01*
X100630000Y-114311273D01*
X100560727Y-114311273D01*
X100609793Y-114305551D01*
X100627878Y-114278562D01*
X100630000Y-114242000D01*
X100630000Y-114172727D01*
X103100727Y-114172727D01*
X103100727Y-114242000D01*
X103100727Y-114242000D01*
G37*
X103100727Y-114242000D02*
X103106449Y-114291066D01*
X103133438Y-114309151D01*
X103170000Y-114311273D01*
X103239273Y-114311273D01*
X103239273Y-116204727D01*
X103170000Y-116204727D01*
X103120934Y-116210449D01*
X103102850Y-116237438D01*
X103100727Y-116274000D01*
X103100727Y-116343273D01*
X100630000Y-116343273D01*
X100630000Y-116274000D01*
X100624278Y-116224934D01*
X100597289Y-116206850D01*
X100560727Y-116204727D01*
X100491455Y-116204727D01*
X100491455Y-114311273D01*
X100560727Y-114311273D01*
X100630000Y-114311273D01*
X100630000Y-116204727D01*
X103100727Y-116204727D01*
X103100727Y-114311273D01*
X100630000Y-114311273D01*
X100560727Y-114311273D01*
X100609793Y-114305551D01*
X100627878Y-114278562D01*
X100630000Y-114242000D01*
X100630000Y-114172727D01*
X103100727Y-114172727D01*
X103100727Y-114242000D01*
G36*
X102203066Y-115633176D02*
G01*
X102221151Y-115660165D01*
X102223273Y-115696727D01*
X102217551Y-115745793D01*
X102190562Y-115763878D01*
X102154000Y-115766000D01*
X102104934Y-115771722D01*
X102086850Y-115798711D01*
X102084727Y-115835273D01*
X102084727Y-115904546D01*
X101507455Y-115904546D01*
X101507455Y-115835273D01*
X101501733Y-115786207D01*
X101474744Y-115768122D01*
X101438182Y-115766000D01*
X101389116Y-115760278D01*
X101371031Y-115733289D01*
X101368909Y-115696727D01*
X101374631Y-115647661D01*
X101401620Y-115629577D01*
X101438182Y-115627455D01*
X101487248Y-115633176D01*
X101505332Y-115660165D01*
X101507455Y-115696727D01*
X101507455Y-115766000D01*
X102084727Y-115766000D01*
X102084727Y-115696727D01*
X102090449Y-115647661D01*
X102117438Y-115629577D01*
X102154000Y-115627455D01*
X102203066Y-115633176D01*
X102203066Y-115633176D01*
G37*
X102203066Y-115633176D02*
X102221151Y-115660165D01*
X102223273Y-115696727D01*
X102217551Y-115745793D01*
X102190562Y-115763878D01*
X102154000Y-115766000D01*
X102104934Y-115771722D01*
X102086850Y-115798711D01*
X102084727Y-115835273D01*
X102084727Y-115904546D01*
X101507455Y-115904546D01*
X101507455Y-115835273D01*
X101501733Y-115786207D01*
X101474744Y-115768122D01*
X101438182Y-115766000D01*
X101389116Y-115760278D01*
X101371031Y-115733289D01*
X101368909Y-115696727D01*
X101374631Y-115647661D01*
X101401620Y-115629577D01*
X101438182Y-115627455D01*
X101487248Y-115633176D01*
X101505332Y-115660165D01*
X101507455Y-115696727D01*
X101507455Y-115766000D01*
X102084727Y-115766000D01*
X102084727Y-115696727D01*
X102090449Y-115647661D01*
X102117438Y-115629577D01*
X102154000Y-115627455D01*
X102203066Y-115633176D01*
G36*
X101946182Y-115465818D02*
G01*
X101646000Y-115465818D01*
X101646000Y-115396546D01*
X101651722Y-115347480D01*
X101678711Y-115329395D01*
X101715273Y-115327273D01*
X101784546Y-115327273D01*
X101784546Y-114750000D01*
X101946182Y-114750000D01*
X101946182Y-115465818D01*
X101946182Y-115465818D01*
G37*
X101946182Y-115465818D02*
X101646000Y-115465818D01*
X101646000Y-115396546D01*
X101651722Y-115347480D01*
X101678711Y-115329395D01*
X101715273Y-115327273D01*
X101784546Y-115327273D01*
X101784546Y-114750000D01*
X101946182Y-114750000D01*
X101946182Y-115465818D01*
G36*
X101368909Y-115050182D02*
G01*
X101207273Y-115050182D01*
X101207273Y-114750000D01*
X101368909Y-114750000D01*
X101368909Y-115050182D01*
X101368909Y-115050182D01*
G37*
X101368909Y-115050182D02*
X101207273Y-115050182D01*
X101207273Y-114750000D01*
X101368909Y-114750000D01*
X101368909Y-115050182D01*
G36*
X102361818Y-115050182D02*
G01*
X102223273Y-115050182D01*
X102223273Y-114750000D01*
X102361818Y-114750000D01*
X102361818Y-115050182D01*
X102361818Y-115050182D01*
G37*
X102361818Y-115050182D02*
X102223273Y-115050182D01*
X102223273Y-114750000D01*
X102361818Y-114750000D01*
X102361818Y-115050182D01*
G36*
X76489333Y-91384134D02*
G01*
X76286133Y-91384134D01*
X76286133Y-91180934D01*
X76489333Y-91180934D01*
X76489333Y-91384134D01*
X76489333Y-91384134D01*
G37*
X76489333Y-91384134D02*
X76286133Y-91384134D01*
X76286133Y-91180934D01*
X76489333Y-91180934D01*
X76489333Y-91384134D01*
G36*
X77522267Y-91790534D02*
G01*
X77522267Y-91605310D01*
X77314833Y-91600555D01*
X77107400Y-91595801D01*
X77102871Y-91176700D01*
X77098342Y-90757601D01*
X77522267Y-90757601D01*
X77522267Y-91604267D01*
X77725467Y-91604267D01*
X77725467Y-91790534D01*
X77522267Y-91790534D01*
X77522267Y-91790534D01*
G37*
X77522267Y-91790534D02*
X77522267Y-91605310D01*
X77314833Y-91600555D01*
X77107400Y-91595801D01*
X77102871Y-91176700D01*
X77098342Y-90757601D01*
X77522267Y-90757601D01*
X77522267Y-91604267D01*
X77725467Y-91604267D01*
X77725467Y-91790534D01*
X77522267Y-91790534D01*
G36*
X77522267Y-90351201D02*
G01*
X77098933Y-90351201D01*
X77098933Y-90148001D01*
X77725467Y-90148001D01*
X77725467Y-90757601D01*
X77522267Y-90757601D01*
X77522267Y-90351201D01*
X77522267Y-90351201D01*
G37*
X77522267Y-90351201D02*
X77098933Y-90351201D01*
X77098933Y-90148001D01*
X77725467Y-90148001D01*
X77725467Y-90757601D01*
X77522267Y-90757601D01*
X77522267Y-90351201D01*
G36*
X75253200Y-91790534D02*
G01*
X74829867Y-91790534D01*
X74829867Y-91604267D01*
X75253200Y-91604267D01*
X75253200Y-91790534D01*
X75253200Y-91790534D01*
G37*
X75253200Y-91790534D02*
X74829867Y-91790534D01*
X74829867Y-91604267D01*
X75253200Y-91604267D01*
X75253200Y-91790534D01*
G36*
X74829867Y-92417067D02*
G01*
X74626667Y-92417067D01*
X74626667Y-91790534D01*
X74829867Y-91790534D01*
X74829867Y-92417067D01*
X74829867Y-92417067D01*
G37*
X74829867Y-92417067D02*
X74626667Y-92417067D01*
X74626667Y-91790534D01*
X74829867Y-91790534D01*
X74829867Y-92417067D01*
G36*
X76489333Y-92417067D02*
G01*
X76489333Y-92618651D01*
X76595166Y-92623692D01*
X76701000Y-92628734D01*
X76705624Y-92929301D01*
X76710248Y-93229867D01*
X77097317Y-93229867D01*
X77102358Y-93335701D01*
X77107400Y-93441534D01*
X77314833Y-93446288D01*
X77522267Y-93451043D01*
X77522267Y-94262800D01*
X77098933Y-94262800D01*
X77098933Y-94466001D01*
X76896097Y-94466001D01*
X76887267Y-95913801D01*
X76798367Y-95918919D01*
X76709466Y-95924037D01*
X76709466Y-96311734D01*
X76489333Y-96311734D01*
X76489333Y-95922267D01*
X76709466Y-95922267D01*
X76709466Y-93231483D01*
X76497800Y-93221401D01*
X76488552Y-92620267D01*
X74829867Y-92620267D01*
X74829867Y-92417067D01*
X76489333Y-92417067D01*
X76489333Y-92417067D01*
G37*
X76489333Y-92417067D02*
X76489333Y-92618651D01*
X76595166Y-92623692D01*
X76701000Y-92628734D01*
X76705624Y-92929301D01*
X76710248Y-93229867D01*
X77097317Y-93229867D01*
X77102358Y-93335701D01*
X77107400Y-93441534D01*
X77314833Y-93446288D01*
X77522267Y-93451043D01*
X77522267Y-94262800D01*
X77098933Y-94262800D01*
X77098933Y-94466001D01*
X76896097Y-94466001D01*
X76887267Y-95913801D01*
X76798367Y-95918919D01*
X76709466Y-95924037D01*
X76709466Y-96311734D01*
X76489333Y-96311734D01*
X76489333Y-95922267D01*
X76709466Y-95922267D01*
X76709466Y-93231483D01*
X76497800Y-93221401D01*
X76488552Y-92620267D01*
X74829867Y-92620267D01*
X74829867Y-92417067D01*
X76489333Y-92417067D01*
G36*
X76489333Y-96514934D02*
G01*
X76286133Y-96514934D01*
X76286133Y-96311734D01*
X76489333Y-96311734D01*
X76489333Y-96514934D01*
X76489333Y-96514934D01*
G37*
X76489333Y-96514934D02*
X76286133Y-96514934D01*
X76286133Y-96311734D01*
X76489333Y-96311734D01*
X76489333Y-96514934D01*
G36*
X77098933Y-96514934D02*
G01*
X77098933Y-96311734D01*
X77522267Y-96311734D01*
X77522267Y-96514934D01*
X77100549Y-96514934D01*
X77090467Y-96726600D01*
X76801575Y-96731220D01*
X76705887Y-96732087D01*
X76622196Y-96731587D01*
X76556287Y-96729857D01*
X76513945Y-96727033D01*
X76501008Y-96724164D01*
X76494702Y-96702101D01*
X76490463Y-96657102D01*
X76489333Y-96613712D01*
X76489333Y-96514934D01*
X77098933Y-96514934D01*
X77098933Y-96514934D01*
G37*
X77098933Y-96514934D02*
X77098933Y-96311734D01*
X77522267Y-96311734D01*
X77522267Y-96514934D01*
X77100549Y-96514934D01*
X77090467Y-96726600D01*
X76801575Y-96731220D01*
X76705887Y-96732087D01*
X76622196Y-96731587D01*
X76556287Y-96729857D01*
X76513945Y-96727033D01*
X76501008Y-96724164D01*
X76494702Y-96702101D01*
X76490463Y-96657102D01*
X76489333Y-96613712D01*
X76489333Y-96514934D01*
X77098933Y-96514934D01*
G36*
X77522267Y-95922267D02*
G01*
X77725467Y-95922267D01*
X77725467Y-96311734D01*
X77522267Y-96311734D01*
X77522267Y-95922267D01*
X77522267Y-95922267D01*
G37*
X77522267Y-95922267D02*
X77725467Y-95922267D01*
X77725467Y-96311734D01*
X77522267Y-96311734D01*
X77522267Y-95922267D01*
G36*
X77725467Y-94669201D02*
G01*
X77926976Y-94669201D01*
X77932055Y-94571834D01*
X77937133Y-94474467D01*
X80807333Y-94465809D01*
X80807333Y-94668158D01*
X81014767Y-94672913D01*
X81222200Y-94677667D01*
X81227241Y-94783501D01*
X81232283Y-94889334D01*
X81416933Y-94889334D01*
X81416933Y-95278801D01*
X81230666Y-95278801D01*
X81230666Y-94889334D01*
X80807333Y-94889334D01*
X80807333Y-94669201D01*
X77928666Y-94669201D01*
X77928666Y-95922267D01*
X77725467Y-95922267D01*
X77725467Y-94669201D01*
X77725467Y-94669201D01*
G37*
X77725467Y-94669201D02*
X77926976Y-94669201D01*
X77932055Y-94571834D01*
X77937133Y-94474467D01*
X80807333Y-94465809D01*
X80807333Y-94668158D01*
X81014767Y-94672913D01*
X81222200Y-94677667D01*
X81227241Y-94783501D01*
X81232283Y-94889334D01*
X81416933Y-94889334D01*
X81416933Y-95278801D01*
X81230666Y-95278801D01*
X81230666Y-94889334D01*
X80807333Y-94889334D01*
X80807333Y-94669201D01*
X77928666Y-94669201D01*
X77928666Y-95922267D01*
X77725467Y-95922267D01*
X77725467Y-94669201D01*
G36*
X78131866Y-91790534D02*
G01*
X78131866Y-92196934D01*
X77725467Y-92196934D01*
X77725467Y-91790534D01*
X78131866Y-91790534D01*
X78131866Y-91790534D01*
G37*
X78131866Y-91790534D02*
X78131866Y-92196934D01*
X77725467Y-92196934D01*
X77725467Y-91790534D01*
X78131866Y-91790534D01*
G36*
X82856266Y-92417067D02*
G01*
X82653066Y-92417067D01*
X82653066Y-92196934D01*
X82856266Y-92196934D01*
X82856266Y-92417067D01*
X82856266Y-92417067D01*
G37*
X82856266Y-92417067D02*
X82653066Y-92417067D01*
X82653066Y-92196934D01*
X82856266Y-92196934D01*
X82856266Y-92417067D01*
G36*
X82653066Y-92806534D02*
G01*
X82466800Y-92806534D01*
X82466800Y-92417067D01*
X82653066Y-92417067D01*
X82653066Y-92806534D01*
X82653066Y-92806534D01*
G37*
X82653066Y-92806534D02*
X82466800Y-92806534D01*
X82466800Y-92417067D01*
X82653066Y-92417067D01*
X82653066Y-92806534D01*
G36*
X82466800Y-94262800D02*
G01*
X82263600Y-94262800D01*
X82263600Y-92806534D01*
X82466800Y-92806534D01*
X82466800Y-94262800D01*
X82466800Y-94262800D01*
G37*
X82466800Y-94262800D02*
X82263600Y-94262800D01*
X82263600Y-92806534D01*
X82466800Y-92806534D01*
X82466800Y-94262800D01*
G36*
X82653066Y-94262800D02*
G01*
X82653066Y-95922267D01*
X82466800Y-95922267D01*
X82466800Y-94262800D01*
X82653066Y-94262800D01*
X82653066Y-94262800D01*
G37*
X82653066Y-94262800D02*
X82653066Y-95922267D01*
X82466800Y-95922267D01*
X82466800Y-94262800D01*
X82653066Y-94262800D01*
G36*
X82466800Y-96311734D02*
G01*
X82263600Y-96311734D01*
X82263600Y-95922267D01*
X82466800Y-95922267D01*
X82466800Y-96311734D01*
X82466800Y-96311734D01*
G37*
X82466800Y-96311734D02*
X82263600Y-96311734D01*
X82263600Y-95922267D01*
X82466800Y-95922267D01*
X82466800Y-96311734D01*
G36*
X82263600Y-96514934D02*
G01*
X81841883Y-96514934D01*
X81836841Y-96620767D01*
X81831800Y-96726600D01*
X81239133Y-96726600D01*
X81234092Y-96620767D01*
X81229050Y-96514934D01*
X80807333Y-96514934D01*
X80807333Y-96311734D01*
X81230666Y-96311734D01*
X81230666Y-96514934D01*
X81840266Y-96514934D01*
X81840266Y-96311734D01*
X82263600Y-96311734D01*
X82263600Y-96514934D01*
X82263600Y-96514934D01*
G37*
X82263600Y-96514934D02*
X81841883Y-96514934D01*
X81836841Y-96620767D01*
X81831800Y-96726600D01*
X81239133Y-96726600D01*
X81234092Y-96620767D01*
X81229050Y-96514934D01*
X80807333Y-96514934D01*
X80807333Y-96311734D01*
X81230666Y-96311734D01*
X81230666Y-96514934D01*
X81840266Y-96514934D01*
X81840266Y-96311734D01*
X82263600Y-96311734D01*
X82263600Y-96514934D01*
G36*
X81230666Y-95922267D02*
G01*
X81416933Y-95922267D01*
X81416933Y-95278801D01*
X81505833Y-95279060D01*
X81560604Y-95281687D01*
X81602756Y-95288114D01*
X81616303Y-95293008D01*
X81624365Y-95306604D01*
X81629937Y-95337999D01*
X81633218Y-95390950D01*
X81634409Y-95469218D01*
X81633711Y-95576561D01*
X81633236Y-95610249D01*
X81628600Y-95913801D01*
X81522766Y-95918842D01*
X81416933Y-95923883D01*
X81416933Y-96311734D01*
X81230666Y-96311734D01*
X81230666Y-95922267D01*
X81230666Y-95922267D01*
G37*
X81230666Y-95922267D02*
X81416933Y-95922267D01*
X81416933Y-95278801D01*
X81505833Y-95279060D01*
X81560604Y-95281687D01*
X81602756Y-95288114D01*
X81616303Y-95293008D01*
X81624365Y-95306604D01*
X81629937Y-95337999D01*
X81633218Y-95390950D01*
X81634409Y-95469218D01*
X81633711Y-95576561D01*
X81633236Y-95610249D01*
X81628600Y-95913801D01*
X81522766Y-95918842D01*
X81416933Y-95923883D01*
X81416933Y-96311734D01*
X81230666Y-96311734D01*
X81230666Y-95922267D01*
G36*
X75253200Y-91384134D02*
G01*
X75464866Y-91384196D01*
X75453392Y-91180934D01*
X75676533Y-91180934D01*
X75676533Y-90351201D01*
X75862800Y-90351201D01*
X75862800Y-90148001D01*
X76286133Y-90148001D01*
X76286133Y-90351201D01*
X75863402Y-90351201D01*
X75858868Y-90761834D01*
X75854333Y-91172467D01*
X75765433Y-91177585D01*
X75676533Y-91182704D01*
X75676533Y-91382518D01*
X75570700Y-91387559D01*
X75464866Y-91392601D01*
X75454784Y-91604267D01*
X75253200Y-91604267D01*
X75253200Y-91384134D01*
X75253200Y-91384134D01*
G37*
X75253200Y-91384134D02*
X75464866Y-91384196D01*
X75453392Y-91180934D01*
X75676533Y-91180934D01*
X75676533Y-90351201D01*
X75862800Y-90351201D01*
X75862800Y-90148001D01*
X76286133Y-90148001D01*
X76286133Y-90351201D01*
X75863402Y-90351201D01*
X75858868Y-90761834D01*
X75854333Y-91172467D01*
X75765433Y-91177585D01*
X75676533Y-91182704D01*
X75676533Y-91382518D01*
X75570700Y-91387559D01*
X75464866Y-91392601D01*
X75454784Y-91604267D01*
X75253200Y-91604267D01*
X75253200Y-91384134D01*
G36*
X77098933Y-90537467D02*
G01*
X76897349Y-90537467D01*
X76892308Y-90643300D01*
X76887267Y-90749134D01*
X76286133Y-90758382D01*
X76286133Y-90351201D01*
X76489333Y-90351201D01*
X76489333Y-90537467D01*
X76895733Y-90537467D01*
X76895733Y-90351201D01*
X77098933Y-90351201D01*
X77098933Y-90537467D01*
X77098933Y-90537467D01*
G37*
X77098933Y-90537467D02*
X76897349Y-90537467D01*
X76892308Y-90643300D01*
X76887267Y-90749134D01*
X76286133Y-90758382D01*
X76286133Y-90351201D01*
X76489333Y-90351201D01*
X76489333Y-90537467D01*
X76895733Y-90537467D01*
X76895733Y-90351201D01*
X77098933Y-90351201D01*
X77098933Y-90537467D01*
G36*
X82856266Y-91180934D02*
G01*
X82653066Y-91180934D01*
X82653066Y-91384134D01*
X82468416Y-91384134D01*
X82463375Y-91489967D01*
X82458333Y-91595801D01*
X82361823Y-91600853D01*
X82265313Y-91605906D01*
X82260223Y-91693987D01*
X82255133Y-91782067D01*
X82047700Y-91786822D01*
X81840266Y-91791576D01*
X81840266Y-92196934D01*
X81628600Y-92196872D01*
X81628600Y-92408601D01*
X81429633Y-92413371D01*
X81230666Y-92418142D01*
X81230666Y-92805491D01*
X80815800Y-92815001D01*
X80811045Y-93022434D01*
X80806291Y-93229867D01*
X79571200Y-93229867D01*
X79571200Y-92806534D01*
X79147867Y-92806534D01*
X79147867Y-92620267D01*
X78961600Y-92620267D01*
X78961600Y-92417067D01*
X78131866Y-92417067D01*
X78131866Y-92197092D01*
X79880233Y-92192780D01*
X81628600Y-92188467D01*
X81633371Y-91989500D01*
X81638141Y-91790534D01*
X81840266Y-91790534D01*
X81840266Y-91604267D01*
X82263600Y-91604267D01*
X82263600Y-91384134D01*
X82466800Y-91384134D01*
X82466800Y-91180934D01*
X82652319Y-91180934D01*
X82661533Y-90545934D01*
X82758071Y-90540880D01*
X82854608Y-90535827D01*
X82859671Y-90642480D01*
X82864733Y-90749134D01*
X82966333Y-90757601D01*
X83067933Y-90766067D01*
X83072350Y-91481501D01*
X83076767Y-92196934D01*
X82856266Y-92196934D01*
X82856266Y-91180934D01*
X82856266Y-91180934D01*
G37*
X82856266Y-91180934D02*
X82653066Y-91180934D01*
X82653066Y-91384134D01*
X82468416Y-91384134D01*
X82463375Y-91489967D01*
X82458333Y-91595801D01*
X82361823Y-91600853D01*
X82265313Y-91605906D01*
X82260223Y-91693987D01*
X82255133Y-91782067D01*
X82047700Y-91786822D01*
X81840266Y-91791576D01*
X81840266Y-92196934D01*
X81628600Y-92196872D01*
X81628600Y-92408601D01*
X81429633Y-92413371D01*
X81230666Y-92418142D01*
X81230666Y-92805491D01*
X80815800Y-92815001D01*
X80811045Y-93022434D01*
X80806291Y-93229867D01*
X79571200Y-93229867D01*
X79571200Y-92806534D01*
X79147867Y-92806534D01*
X79147867Y-92620267D01*
X78961600Y-92620267D01*
X78961600Y-92417067D01*
X78131866Y-92417067D01*
X78131866Y-92197092D01*
X79880233Y-92192780D01*
X81628600Y-92188467D01*
X81633371Y-91989500D01*
X81638141Y-91790534D01*
X81840266Y-91790534D01*
X81840266Y-91604267D01*
X82263600Y-91604267D01*
X82263600Y-91384134D01*
X82466800Y-91384134D01*
X82466800Y-91180934D01*
X82652319Y-91180934D01*
X82661533Y-90545934D01*
X82758071Y-90540880D01*
X82854608Y-90535827D01*
X82859671Y-90642480D01*
X82864733Y-90749134D01*
X82966333Y-90757601D01*
X83067933Y-90766067D01*
X83072350Y-91481501D01*
X83076767Y-92196934D01*
X82856266Y-92196934D01*
X82856266Y-91180934D01*
D12*
%TO.C,R2*%
X105310000Y-84740000D02*
X107150000Y-84740000D01*
X107150000Y-84740000D02*
X107150000Y-80900000D01*
X107150000Y-80900000D02*
X105310000Y-80900000D01*
X105310000Y-80900000D02*
X105310000Y-84740000D01*
X106230000Y-85690000D02*
X106230000Y-84740000D01*
X106230000Y-79950000D02*
X106230000Y-80900000D01*
%TO.C,J2*%
X55940000Y-75080000D02*
X55940000Y-77930000D01*
X58790000Y-75080000D02*
X55940000Y-75080000D01*
X81800000Y-86540000D02*
X79990000Y-86540000D01*
X81800000Y-85140000D02*
X81800000Y-86540000D01*
X103800000Y-85140000D02*
X81800000Y-85140000D01*
X103800000Y-75320000D02*
X103800000Y-85140000D01*
X79990000Y-75320000D02*
X103800000Y-75320000D01*
X78180000Y-86540000D02*
X79990000Y-86540000D01*
X78180000Y-85140000D02*
X78180000Y-86540000D01*
X56180000Y-85140000D02*
X78180000Y-85140000D01*
X56180000Y-75320000D02*
X56180000Y-85140000D01*
X79990000Y-75320000D02*
X56180000Y-75320000D01*
%TO.C,J1*%
X53860000Y-102190000D02*
X53860000Y-105040000D01*
X56710000Y-102190000D02*
X53860000Y-102190000D01*
X81820000Y-113650000D02*
X80010000Y-113650000D01*
X81820000Y-112250000D02*
X81820000Y-113650000D01*
X105920000Y-112250000D02*
X81820000Y-112250000D01*
X105920000Y-102430000D02*
X105920000Y-112250000D01*
X80010000Y-102430000D02*
X105920000Y-102430000D01*
X78200000Y-113650000D02*
X80010000Y-113650000D01*
X78200000Y-112250000D02*
X78200000Y-113650000D01*
X54100000Y-112250000D02*
X78200000Y-112250000D01*
X54100000Y-102430000D02*
X54100000Y-112250000D01*
X80010000Y-102430000D02*
X54100000Y-102430000D01*
%TO.C,Q1*%
X108502795Y-88825816D02*
G75*
G02X109230000Y-89350000I-1122795J-2324184D01*
G01*
X106281629Y-88794543D02*
G75*
G03X105030000Y-90040000I1098371J-2355457D01*
G01*
X106276158Y-93517199D02*
G75*
G02X105030000Y-92290000I1103842J2367199D01*
G01*
X108502795Y-93474184D02*
G75*
G03X109230000Y-92950000I-1122795J2324184D01*
G01*
X109230000Y-92950000D02*
X109230000Y-89350000D01*
%TO.C,TP5*%
X109190000Y-97240000D02*
G75*
G03X109190000Y-97240000I-700000J0D01*
G01*
%TO.C,TP4*%
X109190000Y-101075250D02*
G75*
G03X109190000Y-101075250I-700000J0D01*
G01*
%TO.C,TP3*%
X109190000Y-104910500D02*
G75*
G03X109190000Y-104910500I-700000J0D01*
G01*
%TO.C,TP2*%
X109190000Y-108745750D02*
G75*
G03X109190000Y-108745750I-700000J0D01*
G01*
%TO.C,TP1*%
X109190000Y-112581000D02*
G75*
G03X109190000Y-112581000I-700000J0D01*
G01*
%TO.C,R8*%
X67536000Y-89610000D02*
X67536000Y-87770000D01*
X67536000Y-87770000D02*
X63696000Y-87770000D01*
X63696000Y-87770000D02*
X63696000Y-89610000D01*
X63696000Y-89610000D02*
X67536000Y-89610000D01*
X68486000Y-88690000D02*
X67536000Y-88690000D01*
X62746000Y-88690000D02*
X63696000Y-88690000D01*
%TO.C,R6*%
X67536000Y-91810750D02*
X67536000Y-89970750D01*
X67536000Y-89970750D02*
X63696000Y-89970750D01*
X63696000Y-89970750D02*
X63696000Y-91810750D01*
X63696000Y-91810750D02*
X67536000Y-91810750D01*
X68486000Y-90890750D02*
X67536000Y-90890750D01*
X62746000Y-90890750D02*
X63696000Y-90890750D01*
%TO.C,R5*%
X67536000Y-94011500D02*
X67536000Y-92171500D01*
X67536000Y-92171500D02*
X63696000Y-92171500D01*
X63696000Y-92171500D02*
X63696000Y-94011500D01*
X63696000Y-94011500D02*
X67536000Y-94011500D01*
X68486000Y-93091500D02*
X67536000Y-93091500D01*
X62746000Y-93091500D02*
X63696000Y-93091500D01*
%TO.C,R4*%
X67536000Y-96212250D02*
X67536000Y-94372250D01*
X67536000Y-94372250D02*
X63696000Y-94372250D01*
X63696000Y-94372250D02*
X63696000Y-96212250D01*
X63696000Y-96212250D02*
X67536000Y-96212250D01*
X68486000Y-95292250D02*
X67536000Y-95292250D01*
X62746000Y-95292250D02*
X63696000Y-95292250D01*
%TO.C,R3*%
X67536000Y-98413000D02*
X67536000Y-96573000D01*
X67536000Y-96573000D02*
X63696000Y-96573000D01*
X63696000Y-96573000D02*
X63696000Y-98413000D01*
X63696000Y-98413000D02*
X67536000Y-98413000D01*
X68486000Y-97493000D02*
X67536000Y-97493000D01*
X62746000Y-97493000D02*
X63696000Y-97493000D01*
%TO.C,R1*%
X109260000Y-80900000D02*
X107420000Y-80900000D01*
X107420000Y-80900000D02*
X107420000Y-84740000D01*
X107420000Y-84740000D02*
X109260000Y-84740000D01*
X109260000Y-84740000D02*
X109260000Y-80900000D01*
X108340000Y-79950000D02*
X108340000Y-80900000D01*
X108340000Y-85690000D02*
X108340000Y-84740000D01*
%TO.C,D6*%
X53992130Y-80552337D02*
G75*
G02X51910039Y-80552500I-1041130J1079837D01*
G01*
X53992130Y-78392663D02*
G75*
G03X51910039Y-78392500I-1041130J-1079837D01*
G01*
X54623335Y-80551108D02*
G75*
G02X51391000Y-80708016I-1672335J1078608D01*
G01*
X54623335Y-78393892D02*
G75*
G03X51391000Y-78236984I-1672335J-1078608D01*
G01*
X51391000Y-78236500D02*
X51391000Y-78392500D01*
X51391000Y-80552500D02*
X51391000Y-80708500D01*
%TO.C,D4*%
X53992130Y-85626962D02*
G75*
G02X51910039Y-85627125I-1041130J1079837D01*
G01*
X53992130Y-83467288D02*
G75*
G03X51910039Y-83467125I-1041130J-1079837D01*
G01*
X54623335Y-85625733D02*
G75*
G02X51391000Y-85782641I-1672335J1078608D01*
G01*
X54623335Y-83468517D02*
G75*
G03X51391000Y-83311609I-1672335J-1078608D01*
G01*
X51391000Y-83311125D02*
X51391000Y-83467125D01*
X51391000Y-85627125D02*
X51391000Y-85783125D01*
%TO.C,D3*%
X53992130Y-90701587D02*
G75*
G02X51910039Y-90701750I-1041130J1079837D01*
G01*
X53992130Y-88541913D02*
G75*
G03X51910039Y-88541750I-1041130J-1079837D01*
G01*
X54623335Y-90700358D02*
G75*
G02X51391000Y-90857266I-1672335J1078608D01*
G01*
X54623335Y-88543142D02*
G75*
G03X51391000Y-88386234I-1672335J-1078608D01*
G01*
X51391000Y-88385750D02*
X51391000Y-88541750D01*
X51391000Y-90701750D02*
X51391000Y-90857750D01*
%TO.C,D2*%
X53992130Y-95776212D02*
G75*
G02X51910039Y-95776375I-1041130J1079837D01*
G01*
X53992130Y-93616538D02*
G75*
G03X51910039Y-93616375I-1041130J-1079837D01*
G01*
X54623335Y-95774983D02*
G75*
G02X51391000Y-95931891I-1672335J1078608D01*
G01*
X54623335Y-93617767D02*
G75*
G03X51391000Y-93460859I-1672335J-1078608D01*
G01*
X51391000Y-93460375D02*
X51391000Y-93616375D01*
X51391000Y-95776375D02*
X51391000Y-95932375D01*
%TO.C,D1*%
X53992130Y-100850837D02*
G75*
G02X51910039Y-100851000I-1041130J1079837D01*
G01*
X53992130Y-98691163D02*
G75*
G03X51910039Y-98691000I-1041130J-1079837D01*
G01*
X54623335Y-100849608D02*
G75*
G02X51391000Y-101006516I-1672335J1078608D01*
G01*
X54623335Y-98692392D02*
G75*
G03X51391000Y-98535484I-1672335J-1078608D01*
G01*
X51391000Y-98535000D02*
X51391000Y-98691000D01*
X51391000Y-100851000D02*
X51391000Y-101007000D01*
%TO.C,REF\002A\002A*%
D10*
X51252666Y-104235380D02*
X50919333Y-103759190D01*
X50681238Y-104235380D02*
X50681238Y-103235380D01*
X51062190Y-103235380D01*
X51157428Y-103283000D01*
X51205047Y-103330619D01*
X51252666Y-103425857D01*
X51252666Y-103568714D01*
X51205047Y-103663952D01*
X51157428Y-103711571D01*
X51062190Y-103759190D01*
X50681238Y-103759190D01*
X51681238Y-103711571D02*
X52014571Y-103711571D01*
X52157428Y-104235380D02*
X51681238Y-104235380D01*
X51681238Y-103235380D01*
X52157428Y-103235380D01*
X52919333Y-103711571D02*
X52586000Y-103711571D01*
X52586000Y-104235380D02*
X52586000Y-103235380D01*
X53062190Y-103235380D01*
X53586000Y-103235380D02*
X53586000Y-103473476D01*
X53347904Y-103378238D02*
X53586000Y-103473476D01*
X53824095Y-103378238D01*
X53443142Y-103663952D02*
X53586000Y-103473476D01*
X53728857Y-103663952D01*
X54347904Y-103235380D02*
X54347904Y-103473476D01*
X54109809Y-103378238D02*
X54347904Y-103473476D01*
X54586000Y-103378238D01*
X54205047Y-103663952D02*
X54347904Y-103473476D01*
X54490761Y-103663952D01*
%TO.C,R2*%
X104762380Y-82986666D02*
X104286190Y-83320000D01*
X104762380Y-83558095D02*
X103762380Y-83558095D01*
X103762380Y-83177142D01*
X103810000Y-83081904D01*
X103857619Y-83034285D01*
X103952857Y-82986666D01*
X104095714Y-82986666D01*
X104190952Y-83034285D01*
X104238571Y-83081904D01*
X104286190Y-83177142D01*
X104286190Y-83558095D01*
X103857619Y-82605714D02*
X103810000Y-82558095D01*
X103762380Y-82462857D01*
X103762380Y-82224761D01*
X103810000Y-82129523D01*
X103857619Y-82081904D01*
X103952857Y-82034285D01*
X104048095Y-82034285D01*
X104190952Y-82081904D01*
X104762380Y-82653333D01*
X104762380Y-82034285D01*
%TO.C,J2*%
X59906666Y-73762380D02*
X59906666Y-74476666D01*
X59859047Y-74619523D01*
X59763809Y-74714761D01*
X59620952Y-74762380D01*
X59525714Y-74762380D01*
X60335238Y-73857619D02*
X60382857Y-73810000D01*
X60478095Y-73762380D01*
X60716190Y-73762380D01*
X60811428Y-73810000D01*
X60859047Y-73857619D01*
X60906666Y-73952857D01*
X60906666Y-74048095D01*
X60859047Y-74190952D01*
X60287619Y-74762380D01*
X60906666Y-74762380D01*
%TO.C,J1*%
X79676666Y-100792380D02*
X79676666Y-101506666D01*
X79629047Y-101649523D01*
X79533809Y-101744761D01*
X79390952Y-101792380D01*
X79295714Y-101792380D01*
X80676666Y-101792380D02*
X80105238Y-101792380D01*
X80390952Y-101792380D02*
X80390952Y-100792380D01*
X80295714Y-100935238D01*
X80200476Y-101030476D01*
X80105238Y-101078095D01*
%TO.C,Q1*%
X103737619Y-91235238D02*
X103690000Y-91330476D01*
X103594761Y-91425714D01*
X103451904Y-91568571D01*
X103404285Y-91663809D01*
X103404285Y-91759047D01*
X103642380Y-91711428D02*
X103594761Y-91806666D01*
X103499523Y-91901904D01*
X103309047Y-91949523D01*
X102975714Y-91949523D01*
X102785238Y-91901904D01*
X102690000Y-91806666D01*
X102642380Y-91711428D01*
X102642380Y-91520952D01*
X102690000Y-91425714D01*
X102785238Y-91330476D01*
X102975714Y-91282857D01*
X103309047Y-91282857D01*
X103499523Y-91330476D01*
X103594761Y-91425714D01*
X103642380Y-91520952D01*
X103642380Y-91711428D01*
X103642380Y-90330476D02*
X103642380Y-90901904D01*
X103642380Y-90616190D02*
X102642380Y-90616190D01*
X102785238Y-90711428D01*
X102880476Y-90806666D01*
X102928095Y-90901904D01*
%TO.C,TP5*%
X106494380Y-98501904D02*
X106494380Y-97930476D01*
X107494380Y-98216190D02*
X106494380Y-98216190D01*
X107494380Y-97597142D02*
X106494380Y-97597142D01*
X106494380Y-97216190D01*
X106542000Y-97120952D01*
X106589619Y-97073333D01*
X106684857Y-97025714D01*
X106827714Y-97025714D01*
X106922952Y-97073333D01*
X106970571Y-97120952D01*
X107018190Y-97216190D01*
X107018190Y-97597142D01*
X106494380Y-96120952D02*
X106494380Y-96597142D01*
X106970571Y-96644761D01*
X106922952Y-96597142D01*
X106875333Y-96501904D01*
X106875333Y-96263809D01*
X106922952Y-96168571D01*
X106970571Y-96120952D01*
X107065809Y-96073333D01*
X107303904Y-96073333D01*
X107399142Y-96120952D01*
X107446761Y-96168571D01*
X107494380Y-96263809D01*
X107494380Y-96501904D01*
X107446761Y-96597142D01*
X107399142Y-96644761D01*
%TO.C,TP4*%
X106494380Y-102337154D02*
X106494380Y-101765726D01*
X107494380Y-102051440D02*
X106494380Y-102051440D01*
X107494380Y-101432392D02*
X106494380Y-101432392D01*
X106494380Y-101051440D01*
X106542000Y-100956202D01*
X106589619Y-100908583D01*
X106684857Y-100860964D01*
X106827714Y-100860964D01*
X106922952Y-100908583D01*
X106970571Y-100956202D01*
X107018190Y-101051440D01*
X107018190Y-101432392D01*
X106827714Y-100003821D02*
X107494380Y-100003821D01*
X106446761Y-100241916D02*
X107161047Y-100480011D01*
X107161047Y-99860964D01*
%TO.C,TP3*%
X106494380Y-106172404D02*
X106494380Y-105600976D01*
X107494380Y-105886690D02*
X106494380Y-105886690D01*
X107494380Y-105267642D02*
X106494380Y-105267642D01*
X106494380Y-104886690D01*
X106542000Y-104791452D01*
X106589619Y-104743833D01*
X106684857Y-104696214D01*
X106827714Y-104696214D01*
X106922952Y-104743833D01*
X106970571Y-104791452D01*
X107018190Y-104886690D01*
X107018190Y-105267642D01*
X106494380Y-104362880D02*
X106494380Y-103743833D01*
X106875333Y-104077166D01*
X106875333Y-103934309D01*
X106922952Y-103839071D01*
X106970571Y-103791452D01*
X107065809Y-103743833D01*
X107303904Y-103743833D01*
X107399142Y-103791452D01*
X107446761Y-103839071D01*
X107494380Y-103934309D01*
X107494380Y-104220023D01*
X107446761Y-104315261D01*
X107399142Y-104362880D01*
%TO.C,TP2*%
X106494380Y-110007654D02*
X106494380Y-109436226D01*
X107494380Y-109721940D02*
X106494380Y-109721940D01*
X107494380Y-109102892D02*
X106494380Y-109102892D01*
X106494380Y-108721940D01*
X106542000Y-108626702D01*
X106589619Y-108579083D01*
X106684857Y-108531464D01*
X106827714Y-108531464D01*
X106922952Y-108579083D01*
X106970571Y-108626702D01*
X107018190Y-108721940D01*
X107018190Y-109102892D01*
X106589619Y-108150511D02*
X106542000Y-108102892D01*
X106494380Y-108007654D01*
X106494380Y-107769559D01*
X106542000Y-107674321D01*
X106589619Y-107626702D01*
X106684857Y-107579083D01*
X106780095Y-107579083D01*
X106922952Y-107626702D01*
X107494380Y-108198130D01*
X107494380Y-107579083D01*
%TO.C,TP1*%
X106494380Y-113842904D02*
X106494380Y-113271476D01*
X107494380Y-113557190D02*
X106494380Y-113557190D01*
X107494380Y-112938142D02*
X106494380Y-112938142D01*
X106494380Y-112557190D01*
X106542000Y-112461952D01*
X106589619Y-112414333D01*
X106684857Y-112366714D01*
X106827714Y-112366714D01*
X106922952Y-112414333D01*
X106970571Y-112461952D01*
X107018190Y-112557190D01*
X107018190Y-112938142D01*
X107494380Y-111414333D02*
X107494380Y-111985761D01*
X107494380Y-111700047D02*
X106494380Y-111700047D01*
X106637238Y-111795285D01*
X106732476Y-111890523D01*
X106780095Y-111985761D01*
%TO.C,R8*%
X70973833Y-89078880D02*
X70640500Y-88602690D01*
X70402404Y-89078880D02*
X70402404Y-88078880D01*
X70783357Y-88078880D01*
X70878595Y-88126500D01*
X70926214Y-88174119D01*
X70973833Y-88269357D01*
X70973833Y-88412214D01*
X70926214Y-88507452D01*
X70878595Y-88555071D01*
X70783357Y-88602690D01*
X70402404Y-88602690D01*
X71545261Y-88507452D02*
X71450023Y-88459833D01*
X71402404Y-88412214D01*
X71354785Y-88316976D01*
X71354785Y-88269357D01*
X71402404Y-88174119D01*
X71450023Y-88126500D01*
X71545261Y-88078880D01*
X71735738Y-88078880D01*
X71830976Y-88126500D01*
X71878595Y-88174119D01*
X71926214Y-88269357D01*
X71926214Y-88316976D01*
X71878595Y-88412214D01*
X71830976Y-88459833D01*
X71735738Y-88507452D01*
X71545261Y-88507452D01*
X71450023Y-88555071D01*
X71402404Y-88602690D01*
X71354785Y-88697928D01*
X71354785Y-88888404D01*
X71402404Y-88983642D01*
X71450023Y-89031261D01*
X71545261Y-89078880D01*
X71735738Y-89078880D01*
X71830976Y-89031261D01*
X71878595Y-88983642D01*
X71926214Y-88888404D01*
X71926214Y-88697928D01*
X71878595Y-88602690D01*
X71830976Y-88555071D01*
X71735738Y-88507452D01*
%TO.C,R6*%
X71037333Y-91355830D02*
X70704000Y-90879640D01*
X70465904Y-91355830D02*
X70465904Y-90355830D01*
X70846857Y-90355830D01*
X70942095Y-90403450D01*
X70989714Y-90451069D01*
X71037333Y-90546307D01*
X71037333Y-90689164D01*
X70989714Y-90784402D01*
X70942095Y-90832021D01*
X70846857Y-90879640D01*
X70465904Y-90879640D01*
X71894476Y-90355830D02*
X71704000Y-90355830D01*
X71608761Y-90403450D01*
X71561142Y-90451069D01*
X71465904Y-90593926D01*
X71418285Y-90784402D01*
X71418285Y-91165354D01*
X71465904Y-91260592D01*
X71513523Y-91308211D01*
X71608761Y-91355830D01*
X71799238Y-91355830D01*
X71894476Y-91308211D01*
X71942095Y-91260592D01*
X71989714Y-91165354D01*
X71989714Y-90927259D01*
X71942095Y-90832021D01*
X71894476Y-90784402D01*
X71799238Y-90736783D01*
X71608761Y-90736783D01*
X71513523Y-90784402D01*
X71465904Y-90832021D01*
X71418285Y-90927259D01*
%TO.C,R5*%
X71227833Y-93594680D02*
X70894500Y-93118490D01*
X70656404Y-93594680D02*
X70656404Y-92594680D01*
X71037357Y-92594680D01*
X71132595Y-92642300D01*
X71180214Y-92689919D01*
X71227833Y-92785157D01*
X71227833Y-92928014D01*
X71180214Y-93023252D01*
X71132595Y-93070871D01*
X71037357Y-93118490D01*
X70656404Y-93118490D01*
X72132595Y-92594680D02*
X71656404Y-92594680D01*
X71608785Y-93070871D01*
X71656404Y-93023252D01*
X71751642Y-92975633D01*
X71989738Y-92975633D01*
X72084976Y-93023252D01*
X72132595Y-93070871D01*
X72180214Y-93166109D01*
X72180214Y-93404204D01*
X72132595Y-93499442D01*
X72084976Y-93547061D01*
X71989738Y-93594680D01*
X71751642Y-93594680D01*
X71656404Y-93547061D01*
X71608785Y-93499442D01*
%TO.C,R4*%
X71354833Y-95706530D02*
X71021500Y-95230340D01*
X70783404Y-95706530D02*
X70783404Y-94706530D01*
X71164357Y-94706530D01*
X71259595Y-94754150D01*
X71307214Y-94801769D01*
X71354833Y-94897007D01*
X71354833Y-95039864D01*
X71307214Y-95135102D01*
X71259595Y-95182721D01*
X71164357Y-95230340D01*
X70783404Y-95230340D01*
X72211976Y-95039864D02*
X72211976Y-95706530D01*
X71973880Y-94658911D02*
X71735785Y-95373197D01*
X72354833Y-95373197D01*
%TO.C,R3*%
X71481833Y-98008880D02*
X71148500Y-97532690D01*
X70910404Y-98008880D02*
X70910404Y-97008880D01*
X71291357Y-97008880D01*
X71386595Y-97056500D01*
X71434214Y-97104119D01*
X71481833Y-97199357D01*
X71481833Y-97342214D01*
X71434214Y-97437452D01*
X71386595Y-97485071D01*
X71291357Y-97532690D01*
X70910404Y-97532690D01*
X71815166Y-97008880D02*
X72434214Y-97008880D01*
X72100880Y-97389833D01*
X72243738Y-97389833D01*
X72338976Y-97437452D01*
X72386595Y-97485071D01*
X72434214Y-97580309D01*
X72434214Y-97818404D01*
X72386595Y-97913642D01*
X72338976Y-97961261D01*
X72243738Y-98008880D01*
X71958023Y-98008880D01*
X71862785Y-97961261D01*
X71815166Y-97913642D01*
%TO.C,R1*%
X110712380Y-82986666D02*
X110236190Y-83320000D01*
X110712380Y-83558095D02*
X109712380Y-83558095D01*
X109712380Y-83177142D01*
X109760000Y-83081904D01*
X109807619Y-83034285D01*
X109902857Y-82986666D01*
X110045714Y-82986666D01*
X110140952Y-83034285D01*
X110188571Y-83081904D01*
X110236190Y-83177142D01*
X110236190Y-83558095D01*
X110712380Y-82034285D02*
X110712380Y-82605714D01*
X110712380Y-82320000D02*
X109712380Y-82320000D01*
X109855238Y-82415238D01*
X109950476Y-82510476D01*
X109998095Y-82605714D01*
%TO.C,D6*%
X50836523Y-82183904D02*
X50836523Y-81383904D01*
X51027000Y-81383904D01*
X51141285Y-81422000D01*
X51217476Y-81498190D01*
X51255571Y-81574380D01*
X51293666Y-81726761D01*
X51293666Y-81841047D01*
X51255571Y-81993428D01*
X51217476Y-82069619D01*
X51141285Y-82145809D01*
X51027000Y-82183904D01*
X50836523Y-82183904D01*
X51979380Y-81383904D02*
X51827000Y-81383904D01*
X51750809Y-81422000D01*
X51712714Y-81460095D01*
X51636523Y-81574380D01*
X51598428Y-81726761D01*
X51598428Y-82031523D01*
X51636523Y-82107714D01*
X51674619Y-82145809D01*
X51750809Y-82183904D01*
X51903190Y-82183904D01*
X51979380Y-82145809D01*
X52017476Y-82107714D01*
X52055571Y-82031523D01*
X52055571Y-81841047D01*
X52017476Y-81764857D01*
X51979380Y-81726761D01*
X51903190Y-81688666D01*
X51750809Y-81688666D01*
X51674619Y-81726761D01*
X51636523Y-81764857D01*
X51598428Y-81841047D01*
%TO.C,D4*%
X50836523Y-87296629D02*
X50836523Y-86496629D01*
X51027000Y-86496629D01*
X51141285Y-86534725D01*
X51217476Y-86610915D01*
X51255571Y-86687105D01*
X51293666Y-86839486D01*
X51293666Y-86953772D01*
X51255571Y-87106153D01*
X51217476Y-87182344D01*
X51141285Y-87258534D01*
X51027000Y-87296629D01*
X50836523Y-87296629D01*
X51979380Y-86763296D02*
X51979380Y-87296629D01*
X51788904Y-86458534D02*
X51598428Y-87029963D01*
X52093666Y-87029963D01*
%TO.C,D3*%
X50836523Y-92422054D02*
X50836523Y-91622054D01*
X51027000Y-91622054D01*
X51141285Y-91660150D01*
X51217476Y-91736340D01*
X51255571Y-91812530D01*
X51293666Y-91964911D01*
X51293666Y-92079197D01*
X51255571Y-92231578D01*
X51217476Y-92307769D01*
X51141285Y-92383959D01*
X51027000Y-92422054D01*
X50836523Y-92422054D01*
X51560333Y-91622054D02*
X52055571Y-91622054D01*
X51788904Y-91926816D01*
X51903190Y-91926816D01*
X51979380Y-91964911D01*
X52017476Y-92003007D01*
X52055571Y-92079197D01*
X52055571Y-92269673D01*
X52017476Y-92345864D01*
X51979380Y-92383959D01*
X51903190Y-92422054D01*
X51674619Y-92422054D01*
X51598428Y-92383959D01*
X51560333Y-92345864D01*
%TO.C,D2*%
X50963523Y-97483979D02*
X50963523Y-96683979D01*
X51154000Y-96683979D01*
X51268285Y-96722075D01*
X51344476Y-96798265D01*
X51382571Y-96874455D01*
X51420666Y-97026836D01*
X51420666Y-97141122D01*
X51382571Y-97293503D01*
X51344476Y-97369694D01*
X51268285Y-97445884D01*
X51154000Y-97483979D01*
X50963523Y-97483979D01*
X51725428Y-96760170D02*
X51763523Y-96722075D01*
X51839714Y-96683979D01*
X52030190Y-96683979D01*
X52106380Y-96722075D01*
X52144476Y-96760170D01*
X52182571Y-96836360D01*
X52182571Y-96912551D01*
X52144476Y-97026836D01*
X51687333Y-97483979D01*
X52182571Y-97483979D01*
%TO.C,D1*%
X51027023Y-102228404D02*
X51027023Y-101428404D01*
X51217500Y-101428404D01*
X51331785Y-101466500D01*
X51407976Y-101542690D01*
X51446071Y-101618880D01*
X51484166Y-101771261D01*
X51484166Y-101885547D01*
X51446071Y-102037928D01*
X51407976Y-102114119D01*
X51331785Y-102190309D01*
X51217500Y-102228404D01*
X51027023Y-102228404D01*
X52246071Y-102228404D02*
X51788928Y-102228404D01*
X52017500Y-102228404D02*
X52017500Y-101428404D01*
X51941309Y-101542690D01*
X51865119Y-101618880D01*
X51788928Y-101656976D01*
%TD*%
M02*
