%TF.GenerationSoftware,KiCad,Pcbnew,(5.1.4)-1*%
%TF.CreationDate,2020-09-17T17:05:27-05:00*%
%TF.ProjectId,mAcTX_Quadra_840av,6d416354-585f-4517-9561-6472615f3834,rev?*%
%TF.SameCoordinates,Original*%
%TF.FileFunction,Copper,L2,Bot*%
%TF.FilePolarity,Positive*%
%FSLAX46Y46*%
G04 Gerber Fmt 4.6, Leading zero omitted, Abs format (unit mm)*
G04 Created by KiCad (PCBNEW (5.1.4)-1) date 2020-09-17 17:05:27*
%MOMM*%
%LPD*%
G04 APERTURE LIST*
%TA.AperFunction,NonConductor*%
%ADD10C,0.300000*%
%TD*%
%TA.AperFunction,ComponentPad*%
%ADD11O,1.400000X1.400000*%
%TD*%
%TA.AperFunction,ComponentPad*%
%ADD12C,1.400000*%
%TD*%
%TA.AperFunction,ComponentPad*%
%ADD13O,2.700000X3.300000*%
%TD*%
%TA.AperFunction,Conductor*%
%ADD14C,0.100000*%
%TD*%
%TA.AperFunction,ComponentPad*%
%ADD15C,2.700000*%
%TD*%
%TA.AperFunction,ComponentPad*%
%ADD16R,1.500000X1.500000*%
%TD*%
%TA.AperFunction,ComponentPad*%
%ADD17C,1.500000*%
%TD*%
%TA.AperFunction,ComponentPad*%
%ADD18C,1.000000*%
%TD*%
%TA.AperFunction,ComponentPad*%
%ADD19C,1.800000*%
%TD*%
%TA.AperFunction,ComponentPad*%
%ADD20R,1.800000X1.800000*%
%TD*%
%TA.AperFunction,ViaPad*%
%ADD21C,0.800000*%
%TD*%
%TA.AperFunction,ViaPad*%
%ADD22C,1.600000*%
%TD*%
%TA.AperFunction,Conductor*%
%ADD23C,2.000000*%
%TD*%
%TA.AperFunction,Conductor*%
%ADD24C,1.000000*%
%TD*%
%TA.AperFunction,Conductor*%
%ADD25C,0.250000*%
%TD*%
%TA.AperFunction,Conductor*%
%ADD26C,0.254000*%
%TD*%
G04 APERTURE END LIST*
D10*
X51552857Y-103280000D02*
X51624285Y-103494285D01*
X51695714Y-103565714D01*
X51838571Y-103637142D01*
X52052857Y-103637142D01*
X52195714Y-103565714D01*
X52267142Y-103494285D01*
X52338571Y-103351428D01*
X52338571Y-102780000D01*
X50838571Y-102780000D01*
X50838571Y-103280000D01*
X50910000Y-103422857D01*
X50981428Y-103494285D01*
X51124285Y-103565714D01*
X51267142Y-103565714D01*
X51410000Y-103494285D01*
X51481428Y-103422857D01*
X51552857Y-103280000D01*
X51552857Y-102780000D01*
X51910000Y-104208571D02*
X51910000Y-104922857D01*
X52338571Y-104065714D02*
X50838571Y-104565714D01*
X52338571Y-105065714D01*
X52338571Y-105565714D02*
X50838571Y-105565714D01*
X50838571Y-105922857D01*
X50910000Y-106137142D01*
X51052857Y-106280000D01*
X51195714Y-106351428D01*
X51481428Y-106422857D01*
X51695714Y-106422857D01*
X51981428Y-106351428D01*
X52124285Y-106280000D01*
X52267142Y-106137142D01*
X52338571Y-105922857D01*
X52338571Y-105565714D01*
X50838571Y-108065714D02*
X52338571Y-108422857D01*
X51267142Y-108708571D01*
X52338571Y-108994285D01*
X50838571Y-109351428D01*
X50838571Y-110208571D02*
X50838571Y-110494285D01*
X50910000Y-110637142D01*
X51052857Y-110780000D01*
X51338571Y-110851428D01*
X51838571Y-110851428D01*
X52124285Y-110780000D01*
X52267142Y-110637142D01*
X52338571Y-110494285D01*
X52338571Y-110208571D01*
X52267142Y-110065714D01*
X52124285Y-109922857D01*
X51838571Y-109851428D01*
X51338571Y-109851428D01*
X51052857Y-109922857D01*
X50910000Y-110065714D01*
X50838571Y-110208571D01*
X52338571Y-112208571D02*
X52338571Y-111494285D01*
X50838571Y-111494285D01*
X51552857Y-113208571D02*
X51552857Y-112708571D01*
X52338571Y-112708571D02*
X50838571Y-112708571D01*
X50838571Y-113422857D01*
D11*
%TO.P,R2,2*%
%TO.N,PWR_ON*%
X106230000Y-79010000D03*
D12*
%TO.P,R2,1*%
%TO.N,+5VP*%
X106230000Y-86630000D03*
%TD*%
D13*
%TO.P,J2,22*%
%TO.N,+12V*%
X100990000Y-83180000D03*
%TO.P,J2,21*%
%TO.N,PFW*%
X96790000Y-83180000D03*
%TO.P,J2,20*%
%TO.N,GND*%
X92590000Y-83180000D03*
%TO.P,J2,19*%
X88390000Y-83180000D03*
%TO.P,J2,18*%
X84190000Y-83180000D03*
%TO.P,J2,17*%
X79990000Y-83180000D03*
%TO.P,J2,16*%
%TO.N,+5V*%
X75790000Y-83180000D03*
%TO.P,J2,15*%
X71590000Y-83180000D03*
%TO.P,J2,14*%
X67390000Y-83180000D03*
%TO.P,J2,13*%
X63190000Y-83180000D03*
%TO.P,J2,12*%
%TO.N,+5VP*%
X58990000Y-83180000D03*
%TO.P,J2,11*%
%TO.N,-12V*%
X100990000Y-77680000D03*
%TO.P,J2,10*%
%TO.N,N/C*%
X96790000Y-77680000D03*
%TO.P,J2,9*%
%TO.N,GND*%
X92590000Y-77680000D03*
%TO.P,J2,8*%
X88390000Y-77680000D03*
%TO.P,J2,7*%
X84190000Y-77680000D03*
%TO.P,J2,6*%
X79990000Y-77680000D03*
%TO.P,J2,5*%
X75790000Y-77680000D03*
%TO.P,J2,4*%
%TO.N,+5V*%
X71590000Y-77680000D03*
%TO.P,J2,3*%
X67390000Y-77680000D03*
%TO.P,J2,2*%
X63190000Y-77680000D03*
D14*
%TD*%
%TO.N,+5V*%
%TO.C,J2*%
G36*
X60114503Y-76031204D02*
G01*
X60138772Y-76034804D01*
X60162570Y-76040765D01*
X60185670Y-76049030D01*
X60207849Y-76059520D01*
X60228892Y-76072133D01*
X60248598Y-76086748D01*
X60266776Y-76103224D01*
X60283252Y-76121402D01*
X60297867Y-76141108D01*
X60310480Y-76162151D01*
X60320970Y-76184330D01*
X60329235Y-76207430D01*
X60335196Y-76231228D01*
X60338796Y-76255497D01*
X60340000Y-76280001D01*
X60340000Y-79079999D01*
X60338796Y-79104503D01*
X60335196Y-79128772D01*
X60329235Y-79152570D01*
X60320970Y-79175670D01*
X60310480Y-79197849D01*
X60297867Y-79218892D01*
X60283252Y-79238598D01*
X60266776Y-79256776D01*
X60248598Y-79273252D01*
X60228892Y-79287867D01*
X60207849Y-79300480D01*
X60185670Y-79310970D01*
X60162570Y-79319235D01*
X60138772Y-79325196D01*
X60114503Y-79328796D01*
X60089999Y-79330000D01*
X57890001Y-79330000D01*
X57865497Y-79328796D01*
X57841228Y-79325196D01*
X57817430Y-79319235D01*
X57794330Y-79310970D01*
X57772151Y-79300480D01*
X57751108Y-79287867D01*
X57731402Y-79273252D01*
X57713224Y-79256776D01*
X57696748Y-79238598D01*
X57682133Y-79218892D01*
X57669520Y-79197849D01*
X57659030Y-79175670D01*
X57650765Y-79152570D01*
X57644804Y-79128772D01*
X57641204Y-79104503D01*
X57640000Y-79079999D01*
X57640000Y-76280001D01*
X57641204Y-76255497D01*
X57644804Y-76231228D01*
X57650765Y-76207430D01*
X57659030Y-76184330D01*
X57669520Y-76162151D01*
X57682133Y-76141108D01*
X57696748Y-76121402D01*
X57713224Y-76103224D01*
X57731402Y-76086748D01*
X57751108Y-76072133D01*
X57772151Y-76059520D01*
X57794330Y-76049030D01*
X57817430Y-76040765D01*
X57841228Y-76034804D01*
X57865497Y-76031204D01*
X57890001Y-76030000D01*
X60089999Y-76030000D01*
X60114503Y-76031204D01*
X60114503Y-76031204D01*
G37*
D15*
%TO.P,J2,1*%
%TO.N,+5V*%
X58990000Y-77680000D03*
%TD*%
D13*
%TO.P,J1,24*%
%TO.N,GND*%
X103110000Y-110290000D03*
%TO.P,J1,23*%
%TO.N,+5V*%
X98910000Y-110290000D03*
%TO.P,J1,22*%
X94710000Y-110290000D03*
%TO.P,J1,21*%
X90510000Y-110290000D03*
%TO.P,J1,20*%
%TO.N,N/C*%
X86310000Y-110290000D03*
%TO.P,J1,19*%
%TO.N,GND*%
X82110000Y-110290000D03*
%TO.P,J1,18*%
X77910000Y-110290000D03*
%TO.P,J1,17*%
X73710000Y-110290000D03*
%TO.P,J1,16*%
%TO.N,PWR_ON*%
X69510000Y-110290000D03*
%TO.P,J1,15*%
%TO.N,GND*%
X65310000Y-110290000D03*
%TO.P,J1,14*%
%TO.N,-12V*%
X61110000Y-110290000D03*
%TO.P,J1,13*%
%TO.N,N/C*%
X56910000Y-110290000D03*
%TO.P,J1,12*%
X103110000Y-104790000D03*
%TO.P,J1,11*%
%TO.N,+12V*%
X98910000Y-104790000D03*
%TO.P,J1,10*%
X94710000Y-104790000D03*
%TO.P,J1,9*%
%TO.N,+5VP*%
X90510000Y-104790000D03*
%TO.P,J1,8*%
%TO.N,PWR_OK*%
X86310000Y-104790000D03*
%TO.P,J1,7*%
%TO.N,GND*%
X82110000Y-104790000D03*
%TO.P,J1,6*%
%TO.N,+5V*%
X77910000Y-104790000D03*
%TO.P,J1,5*%
%TO.N,GND*%
X73710000Y-104790000D03*
%TO.P,J1,4*%
%TO.N,+5V*%
X69510000Y-104790000D03*
%TO.P,J1,3*%
%TO.N,GND*%
X65310000Y-104790000D03*
%TO.P,J1,2*%
%TO.N,N/C*%
X61110000Y-104790000D03*
D14*
%TD*%
%TO.N,N/C*%
%TO.C,J1*%
G36*
X58034503Y-103141204D02*
G01*
X58058772Y-103144804D01*
X58082570Y-103150765D01*
X58105670Y-103159030D01*
X58127849Y-103169520D01*
X58148892Y-103182133D01*
X58168598Y-103196748D01*
X58186776Y-103213224D01*
X58203252Y-103231402D01*
X58217867Y-103251108D01*
X58230480Y-103272151D01*
X58240970Y-103294330D01*
X58249235Y-103317430D01*
X58255196Y-103341228D01*
X58258796Y-103365497D01*
X58260000Y-103390001D01*
X58260000Y-106189999D01*
X58258796Y-106214503D01*
X58255196Y-106238772D01*
X58249235Y-106262570D01*
X58240970Y-106285670D01*
X58230480Y-106307849D01*
X58217867Y-106328892D01*
X58203252Y-106348598D01*
X58186776Y-106366776D01*
X58168598Y-106383252D01*
X58148892Y-106397867D01*
X58127849Y-106410480D01*
X58105670Y-106420970D01*
X58082570Y-106429235D01*
X58058772Y-106435196D01*
X58034503Y-106438796D01*
X58009999Y-106440000D01*
X55810001Y-106440000D01*
X55785497Y-106438796D01*
X55761228Y-106435196D01*
X55737430Y-106429235D01*
X55714330Y-106420970D01*
X55692151Y-106410480D01*
X55671108Y-106397867D01*
X55651402Y-106383252D01*
X55633224Y-106366776D01*
X55616748Y-106348598D01*
X55602133Y-106328892D01*
X55589520Y-106307849D01*
X55579030Y-106285670D01*
X55570765Y-106262570D01*
X55564804Y-106238772D01*
X55561204Y-106214503D01*
X55560000Y-106189999D01*
X55560000Y-103390001D01*
X55561204Y-103365497D01*
X55564804Y-103341228D01*
X55570765Y-103317430D01*
X55579030Y-103294330D01*
X55589520Y-103272151D01*
X55602133Y-103251108D01*
X55616748Y-103231402D01*
X55633224Y-103213224D01*
X55651402Y-103196748D01*
X55671108Y-103182133D01*
X55692151Y-103169520D01*
X55714330Y-103159030D01*
X55737430Y-103150765D01*
X55761228Y-103144804D01*
X55785497Y-103141204D01*
X55810001Y-103140000D01*
X58009999Y-103140000D01*
X58034503Y-103141204D01*
X58034503Y-103141204D01*
G37*
D15*
%TO.P,J1,1*%
%TO.N,N/C*%
X56910000Y-104790000D03*
%TD*%
D16*
%TO.P,Q1,1*%
%TO.N,GND*%
X107380000Y-93690000D03*
D17*
%TO.P,Q1,3*%
%TO.N,PWR_ON*%
X107380000Y-88610000D03*
%TO.P,Q1,2*%
%TO.N,Net-(Q1-Pad2)*%
X104840000Y-91150000D03*
%TD*%
D18*
%TO.P,TP5,1*%
%TO.N,GND*%
X108490000Y-97240000D03*
%TD*%
%TO.P,TP4,1*%
%TO.N,PWR_ON*%
X108490000Y-101075250D03*
%TD*%
%TO.P,TP3,1*%
%TO.N,+5VP*%
X108490000Y-104910500D03*
%TD*%
%TO.P,TP2,1*%
%TO.N,Net-(Q1-Pad2)*%
X108490000Y-108745750D03*
%TD*%
%TO.P,TP1,1*%
%TO.N,PFW*%
X108490000Y-112581000D03*
%TD*%
D11*
%TO.P,R8,2*%
%TO.N,Net-(D6-Pad1)*%
X61806000Y-88690000D03*
D12*
%TO.P,R8,1*%
%TO.N,GND*%
X69426000Y-88690000D03*
%TD*%
D11*
%TO.P,R6,2*%
%TO.N,Net-(D4-Pad1)*%
X61806000Y-90890750D03*
D12*
%TO.P,R6,1*%
%TO.N,GND*%
X69426000Y-90890750D03*
%TD*%
D11*
%TO.P,R5,2*%
%TO.N,Net-(D3-Pad1)*%
X61806000Y-93091500D03*
D12*
%TO.P,R5,1*%
%TO.N,GND*%
X69426000Y-93091500D03*
%TD*%
D11*
%TO.P,R4,2*%
%TO.N,Net-(D2-Pad1)*%
X61806000Y-95292250D03*
D12*
%TO.P,R4,1*%
%TO.N,GND*%
X69426000Y-95292250D03*
%TD*%
D11*
%TO.P,R3,2*%
%TO.N,Net-(D1-Pad1)*%
X61806000Y-97493000D03*
D12*
%TO.P,R3,1*%
%TO.N,GND*%
X69426000Y-97493000D03*
%TD*%
D11*
%TO.P,R1,2*%
%TO.N,PFW*%
X108340000Y-86630000D03*
D12*
%TO.P,R1,1*%
%TO.N,Net-(Q1-Pad2)*%
X108340000Y-79010000D03*
%TD*%
D19*
%TO.P,D6,2*%
%TO.N,PWR_ON*%
X54221000Y-79472500D03*
D20*
%TO.P,D6,1*%
%TO.N,Net-(D6-Pad1)*%
X51681000Y-79472500D03*
%TD*%
D19*
%TO.P,D4,2*%
%TO.N,+5VP*%
X54221000Y-84547125D03*
D20*
%TO.P,D4,1*%
%TO.N,Net-(D4-Pad1)*%
X51681000Y-84547125D03*
%TD*%
D19*
%TO.P,D3,2*%
%TO.N,+5V*%
X54221000Y-89621750D03*
D20*
%TO.P,D3,1*%
%TO.N,Net-(D3-Pad1)*%
X51681000Y-89621750D03*
%TD*%
D19*
%TO.P,D2,2*%
%TO.N,+12V*%
X54221000Y-94696375D03*
D20*
%TO.P,D2,1*%
%TO.N,Net-(D2-Pad1)*%
X51681000Y-94696375D03*
%TD*%
D19*
%TO.P,D1,2*%
%TO.N,PWR_OK*%
X54221000Y-99771000D03*
D20*
%TO.P,D1,1*%
%TO.N,Net-(D1-Pad1)*%
X51681000Y-99771000D03*
%TD*%
D21*
%TO.N,GND*%
X104060000Y-92850000D03*
X104060000Y-98870000D03*
X107840000Y-91920000D03*
X104900000Y-89070000D03*
X56360000Y-97400000D03*
X56430000Y-92130000D03*
X56330000Y-88490000D03*
X55260000Y-82130000D03*
X51460000Y-87360000D03*
X51370000Y-82010000D03*
X51490000Y-92190000D03*
X64420000Y-95210000D03*
X94640000Y-100060000D03*
X106040000Y-83200000D03*
X108440000Y-81390000D03*
%TO.N,+5V*%
X67390000Y-89730000D03*
%TO.N,PWR_ON*%
X71200000Y-86820000D03*
X107255001Y-84555001D03*
%TO.N,+12V*%
X98910000Y-94370000D03*
D22*
%TO.N,+5VP*%
X61290000Y-100360000D03*
D21*
%TO.N,PWR_OK*%
X86120000Y-96670000D03*
%TD*%
D23*
%TO.N,+5V*%
X98910000Y-110290000D02*
X90510000Y-110290000D01*
X67390000Y-86830000D02*
X67390000Y-83180000D01*
X69510000Y-101140000D02*
X67390000Y-99020000D01*
X69510000Y-104790000D02*
X69510000Y-101140000D01*
X75790000Y-102370000D02*
X75790000Y-83180000D01*
X77910000Y-104790000D02*
X77910000Y-104490000D01*
X77910000Y-104490000D02*
X75790000Y-102370000D01*
X63190000Y-83180000D02*
X75790000Y-83180000D01*
X58990000Y-77680000D02*
X71590000Y-77680000D01*
X63190000Y-77680000D02*
X63190000Y-83180000D01*
X71590000Y-77680000D02*
X71590000Y-83180000D01*
X67390000Y-83180000D02*
X67390000Y-77680000D01*
X67390000Y-99020000D02*
X67390000Y-89730000D01*
X67390000Y-89730000D02*
X67390000Y-86830000D01*
D24*
X94710000Y-110290000D02*
X92659990Y-108239990D01*
X75790000Y-83480000D02*
X75790000Y-83180000D01*
X96859990Y-97879990D02*
X92659990Y-93679990D01*
X96859990Y-108239990D02*
X96859990Y-97879990D01*
X98910000Y-110290000D02*
X96859990Y-108239990D01*
D23*
X75790000Y-83480000D02*
X80810000Y-88500000D01*
X86810000Y-88500000D02*
X92659990Y-94349990D01*
X80810000Y-88500000D02*
X86810000Y-88500000D01*
D24*
X92659990Y-108239990D02*
X92659990Y-94349990D01*
X92659990Y-94349990D02*
X92659990Y-93679990D01*
D25*
%TO.N,PWR_ON*%
X69510000Y-109990000D02*
X69510000Y-110290000D01*
X71200000Y-108300000D02*
X69510000Y-109990000D01*
X71200000Y-86820000D02*
X71200000Y-108300000D01*
X106929999Y-79709999D02*
X106230000Y-79010000D01*
X107255001Y-80035001D02*
X106929999Y-79709999D01*
X107380000Y-87549340D02*
X107255001Y-87424341D01*
X107380000Y-88610000D02*
X107380000Y-87549340D01*
X107255001Y-84874999D02*
X107255001Y-84555001D01*
X107255001Y-84555001D02*
X107255001Y-80035001D01*
X107255001Y-87424341D02*
X107255001Y-84874999D01*
D23*
%TO.N,-12V*%
X61110000Y-110590000D02*
X61110000Y-110290000D01*
X66080000Y-115560000D02*
X61110000Y-110590000D01*
X101746258Y-115560000D02*
X66080000Y-115560000D01*
X105660010Y-103433752D02*
X105660010Y-111646248D01*
X105660010Y-111646248D02*
X101746258Y-115560000D01*
X100990000Y-77980000D02*
X104100000Y-81090000D01*
X100990000Y-77680000D02*
X100990000Y-77980000D01*
X104100000Y-81090000D02*
X104100000Y-84960000D01*
X104100000Y-84960000D02*
X101930000Y-87130000D01*
X101930000Y-87130000D02*
X101930000Y-99703742D01*
X101930000Y-99703742D02*
X105660010Y-103433752D01*
%TO.N,+12V*%
X98910000Y-104790000D02*
X98910000Y-85260000D01*
X98910000Y-85260000D02*
X100990000Y-83180000D01*
%TO.N,+5VP*%
X58990000Y-83180000D02*
X58990000Y-98060000D01*
X58990000Y-98060000D02*
X61290000Y-100360000D01*
D25*
%TO.N,PWR_OK*%
X86120000Y-104600000D02*
X86310000Y-104790000D01*
X86120000Y-96670000D02*
X86120000Y-104600000D01*
%TO.N,Net-(Q1-Pad2)*%
X105900660Y-91150000D02*
X104840000Y-91150000D01*
X109365001Y-91150000D02*
X105900660Y-91150000D01*
X109365001Y-81024950D02*
X109365001Y-91150000D01*
X108340000Y-79010000D02*
X108340000Y-79999949D01*
X108340000Y-79999949D02*
X109365001Y-81024950D01*
X109315001Y-91150000D02*
X105900660Y-91150000D01*
X108490000Y-108745750D02*
X109315001Y-107920749D01*
X109315001Y-107920749D02*
X109315001Y-91150000D01*
%TD*%
D26*
%TO.N,GND*%
G36*
X107453893Y-71707670D02*
G01*
X107890498Y-71839489D01*
X108293185Y-72053600D01*
X108646612Y-72341848D01*
X108937327Y-72693261D01*
X109154242Y-73094439D01*
X109289106Y-73530113D01*
X109340000Y-74014344D01*
X109340000Y-78122025D01*
X109191013Y-77973038D01*
X108972359Y-77826939D01*
X108729405Y-77726304D01*
X108471486Y-77675000D01*
X108208514Y-77675000D01*
X107950595Y-77726304D01*
X107707641Y-77826939D01*
X107488987Y-77973038D01*
X107303038Y-78158987D01*
X107283097Y-78188831D01*
X107178555Y-78061445D01*
X106975275Y-77894618D01*
X106743354Y-77770653D01*
X106491706Y-77694317D01*
X106295579Y-77675000D01*
X106164421Y-77675000D01*
X105968294Y-77694317D01*
X105716646Y-77770653D01*
X105484725Y-77894618D01*
X105281445Y-78061445D01*
X105114618Y-78264725D01*
X104990653Y-78496646D01*
X104914317Y-78748294D01*
X104888541Y-79010000D01*
X104914317Y-79271706D01*
X104990653Y-79523354D01*
X105114618Y-79755275D01*
X105246063Y-79915441D01*
X105199320Y-79877081D01*
X102975000Y-77652762D01*
X102975000Y-77282490D01*
X102946278Y-76990872D01*
X102832774Y-76616698D01*
X102648453Y-76271857D01*
X102400398Y-75969602D01*
X102098143Y-75721547D01*
X101753301Y-75537226D01*
X101379127Y-75423722D01*
X100990000Y-75385396D01*
X100600872Y-75423722D01*
X100226698Y-75537226D01*
X99881857Y-75721547D01*
X99579602Y-75969602D01*
X99331547Y-76271857D01*
X99147226Y-76616699D01*
X99033722Y-76990873D01*
X99005000Y-77282491D01*
X99005000Y-78077510D01*
X99033722Y-78369128D01*
X99147226Y-78743302D01*
X99331547Y-79088143D01*
X99579603Y-79390398D01*
X99881858Y-79638453D01*
X100226699Y-79822774D01*
X100600873Y-79936278D01*
X100637663Y-79939902D01*
X101727013Y-81029252D01*
X101379127Y-80923722D01*
X100990000Y-80885396D01*
X100600872Y-80923722D01*
X100226698Y-81037226D01*
X99881857Y-81221547D01*
X99579602Y-81469602D01*
X99331547Y-81771857D01*
X99147226Y-82116699D01*
X99033722Y-82490873D01*
X99005000Y-82782491D01*
X99005000Y-82852761D01*
X98775000Y-83082762D01*
X98775000Y-82782490D01*
X98746278Y-82490872D01*
X98632774Y-82116698D01*
X98448453Y-81771857D01*
X98200398Y-81469602D01*
X97898143Y-81221547D01*
X97553301Y-81037226D01*
X97179127Y-80923722D01*
X96790000Y-80885396D01*
X96400872Y-80923722D01*
X96026698Y-81037226D01*
X95681857Y-81221547D01*
X95379602Y-81469602D01*
X95131547Y-81771857D01*
X94947226Y-82116699D01*
X94833722Y-82490873D01*
X94805000Y-82782491D01*
X94805000Y-83577510D01*
X94833722Y-83869128D01*
X94947226Y-84243302D01*
X95131547Y-84588143D01*
X95379603Y-84890398D01*
X95681858Y-85138453D01*
X96026699Y-85322774D01*
X96400873Y-85436278D01*
X96790000Y-85474604D01*
X97179128Y-85436278D01*
X97275001Y-85407195D01*
X97275000Y-96689869D01*
X94030213Y-93445082D01*
X94026020Y-93437237D01*
X93872905Y-93250666D01*
X88022925Y-87400687D01*
X87971714Y-87338286D01*
X87722752Y-87133969D01*
X87438715Y-86982148D01*
X87130516Y-86888657D01*
X86890322Y-86865000D01*
X86890319Y-86865000D01*
X86810000Y-86857089D01*
X86729681Y-86865000D01*
X81487239Y-86865000D01*
X80087238Y-85465000D01*
X80563002Y-85465000D01*
X80563002Y-85214030D01*
X80853249Y-85267464D01*
X80912502Y-85214170D01*
X81233096Y-85000877D01*
X81505919Y-84729138D01*
X81720486Y-84409395D01*
X81868551Y-84053936D01*
X82311449Y-84053936D01*
X82459514Y-84409395D01*
X82674081Y-84729138D01*
X82946904Y-85000877D01*
X83267498Y-85214170D01*
X83326751Y-85267464D01*
X83617000Y-85214030D01*
X83617000Y-83753000D01*
X84763000Y-83753000D01*
X84763000Y-85214030D01*
X85053249Y-85267464D01*
X85112502Y-85214170D01*
X85433096Y-85000877D01*
X85705919Y-84729138D01*
X85920486Y-84409395D01*
X86068551Y-84053936D01*
X86511449Y-84053936D01*
X86659514Y-84409395D01*
X86874081Y-84729138D01*
X87146904Y-85000877D01*
X87467498Y-85214170D01*
X87526751Y-85267464D01*
X87817000Y-85214030D01*
X87817000Y-83753000D01*
X88963000Y-83753000D01*
X88963000Y-85214030D01*
X89253249Y-85267464D01*
X89312502Y-85214170D01*
X89633096Y-85000877D01*
X89905919Y-84729138D01*
X90120486Y-84409395D01*
X90268551Y-84053936D01*
X90711449Y-84053936D01*
X90859514Y-84409395D01*
X91074081Y-84729138D01*
X91346904Y-85000877D01*
X91667498Y-85214170D01*
X91726751Y-85267464D01*
X92017000Y-85214030D01*
X92017000Y-83753000D01*
X93163000Y-83753000D01*
X93163000Y-85214030D01*
X93453249Y-85267464D01*
X93512502Y-85214170D01*
X93833096Y-85000877D01*
X94105919Y-84729138D01*
X94320486Y-84409395D01*
X94468551Y-84053936D01*
X94376456Y-83753000D01*
X93163000Y-83753000D01*
X92017000Y-83753000D01*
X90803544Y-83753000D01*
X90711449Y-84053936D01*
X90268551Y-84053936D01*
X90176456Y-83753000D01*
X88963000Y-83753000D01*
X87817000Y-83753000D01*
X86603544Y-83753000D01*
X86511449Y-84053936D01*
X86068551Y-84053936D01*
X85976456Y-83753000D01*
X84763000Y-83753000D01*
X83617000Y-83753000D01*
X82403544Y-83753000D01*
X82311449Y-84053936D01*
X81868551Y-84053936D01*
X81776456Y-83753000D01*
X80563000Y-83753000D01*
X80563000Y-83773000D01*
X79417000Y-83773000D01*
X79417000Y-83753000D01*
X78375238Y-83753000D01*
X77775000Y-83152762D01*
X77775000Y-82782490D01*
X77746278Y-82490872D01*
X77690218Y-82306064D01*
X78111449Y-82306064D01*
X78203544Y-82607000D01*
X79417000Y-82607000D01*
X79417000Y-81145970D01*
X80563000Y-81145970D01*
X80563000Y-82607000D01*
X81776456Y-82607000D01*
X81868551Y-82306064D01*
X82311449Y-82306064D01*
X82403544Y-82607000D01*
X83617000Y-82607000D01*
X83617000Y-81145970D01*
X84763000Y-81145970D01*
X84763000Y-82607000D01*
X85976456Y-82607000D01*
X86068551Y-82306064D01*
X86511449Y-82306064D01*
X86603544Y-82607000D01*
X87817000Y-82607000D01*
X87817000Y-81145970D01*
X88963000Y-81145970D01*
X88963000Y-82607000D01*
X90176456Y-82607000D01*
X90268551Y-82306064D01*
X90711449Y-82306064D01*
X90803544Y-82607000D01*
X92017000Y-82607000D01*
X92017000Y-81145970D01*
X93163000Y-81145970D01*
X93163000Y-82607000D01*
X94376456Y-82607000D01*
X94468551Y-82306064D01*
X94320486Y-81950605D01*
X94105919Y-81630862D01*
X93833096Y-81359123D01*
X93512502Y-81145830D01*
X93453249Y-81092536D01*
X93163000Y-81145970D01*
X92017000Y-81145970D01*
X91726751Y-81092536D01*
X91667498Y-81145830D01*
X91346904Y-81359123D01*
X91074081Y-81630862D01*
X90859514Y-81950605D01*
X90711449Y-82306064D01*
X90268551Y-82306064D01*
X90120486Y-81950605D01*
X89905919Y-81630862D01*
X89633096Y-81359123D01*
X89312502Y-81145830D01*
X89253249Y-81092536D01*
X88963000Y-81145970D01*
X87817000Y-81145970D01*
X87526751Y-81092536D01*
X87467498Y-81145830D01*
X87146904Y-81359123D01*
X86874081Y-81630862D01*
X86659514Y-81950605D01*
X86511449Y-82306064D01*
X86068551Y-82306064D01*
X85920486Y-81950605D01*
X85705919Y-81630862D01*
X85433096Y-81359123D01*
X85112502Y-81145830D01*
X85053249Y-81092536D01*
X84763000Y-81145970D01*
X83617000Y-81145970D01*
X83326751Y-81092536D01*
X83267498Y-81145830D01*
X82946904Y-81359123D01*
X82674081Y-81630862D01*
X82459514Y-81950605D01*
X82311449Y-82306064D01*
X81868551Y-82306064D01*
X81720486Y-81950605D01*
X81505919Y-81630862D01*
X81233096Y-81359123D01*
X80912502Y-81145830D01*
X80853249Y-81092536D01*
X80563000Y-81145970D01*
X79417000Y-81145970D01*
X79126751Y-81092536D01*
X79067498Y-81145830D01*
X78746904Y-81359123D01*
X78474081Y-81630862D01*
X78259514Y-81950605D01*
X78111449Y-82306064D01*
X77690218Y-82306064D01*
X77632774Y-82116698D01*
X77448453Y-81771857D01*
X77200398Y-81469602D01*
X76898143Y-81221547D01*
X76553301Y-81037226D01*
X76179127Y-80923722D01*
X75790000Y-80885396D01*
X75400872Y-80923722D01*
X75026698Y-81037226D01*
X74681857Y-81221547D01*
X74379602Y-81469602D01*
X74317724Y-81545000D01*
X73225000Y-81545000D01*
X73225000Y-79116720D01*
X73248453Y-79088143D01*
X73432774Y-78743302D01*
X73490217Y-78553936D01*
X73911449Y-78553936D01*
X74059514Y-78909395D01*
X74274081Y-79229138D01*
X74546904Y-79500877D01*
X74867498Y-79714170D01*
X74926751Y-79767464D01*
X75217000Y-79714030D01*
X75217000Y-78253000D01*
X76363000Y-78253000D01*
X76363000Y-79714030D01*
X76653249Y-79767464D01*
X76712502Y-79714170D01*
X77033096Y-79500877D01*
X77305919Y-79229138D01*
X77520486Y-78909395D01*
X77668551Y-78553936D01*
X78111449Y-78553936D01*
X78259514Y-78909395D01*
X78474081Y-79229138D01*
X78746904Y-79500877D01*
X79067498Y-79714170D01*
X79126751Y-79767464D01*
X79417000Y-79714030D01*
X79417000Y-78253000D01*
X80563000Y-78253000D01*
X80563000Y-79714030D01*
X80853249Y-79767464D01*
X80912502Y-79714170D01*
X81233096Y-79500877D01*
X81505919Y-79229138D01*
X81720486Y-78909395D01*
X81868551Y-78553936D01*
X82311449Y-78553936D01*
X82459514Y-78909395D01*
X82674081Y-79229138D01*
X82946904Y-79500877D01*
X83267498Y-79714170D01*
X83326751Y-79767464D01*
X83617000Y-79714030D01*
X83617000Y-78253000D01*
X84763000Y-78253000D01*
X84763000Y-79714030D01*
X85053249Y-79767464D01*
X85112502Y-79714170D01*
X85433096Y-79500877D01*
X85705919Y-79229138D01*
X85920486Y-78909395D01*
X86068551Y-78553936D01*
X86511449Y-78553936D01*
X86659514Y-78909395D01*
X86874081Y-79229138D01*
X87146904Y-79500877D01*
X87467498Y-79714170D01*
X87526751Y-79767464D01*
X87817000Y-79714030D01*
X87817000Y-78253000D01*
X88963000Y-78253000D01*
X88963000Y-79714030D01*
X89253249Y-79767464D01*
X89312502Y-79714170D01*
X89633096Y-79500877D01*
X89905919Y-79229138D01*
X90120486Y-78909395D01*
X90268551Y-78553936D01*
X90711449Y-78553936D01*
X90859514Y-78909395D01*
X91074081Y-79229138D01*
X91346904Y-79500877D01*
X91667498Y-79714170D01*
X91726751Y-79767464D01*
X92017000Y-79714030D01*
X92017000Y-78253000D01*
X93163000Y-78253000D01*
X93163000Y-79714030D01*
X93453249Y-79767464D01*
X93512502Y-79714170D01*
X93833096Y-79500877D01*
X94105919Y-79229138D01*
X94320486Y-78909395D01*
X94468551Y-78553936D01*
X94376456Y-78253000D01*
X93163000Y-78253000D01*
X92017000Y-78253000D01*
X90803544Y-78253000D01*
X90711449Y-78553936D01*
X90268551Y-78553936D01*
X90176456Y-78253000D01*
X88963000Y-78253000D01*
X87817000Y-78253000D01*
X86603544Y-78253000D01*
X86511449Y-78553936D01*
X86068551Y-78553936D01*
X85976456Y-78253000D01*
X84763000Y-78253000D01*
X83617000Y-78253000D01*
X82403544Y-78253000D01*
X82311449Y-78553936D01*
X81868551Y-78553936D01*
X81776456Y-78253000D01*
X80563000Y-78253000D01*
X79417000Y-78253000D01*
X78203544Y-78253000D01*
X78111449Y-78553936D01*
X77668551Y-78553936D01*
X77576456Y-78253000D01*
X76363000Y-78253000D01*
X75217000Y-78253000D01*
X74003544Y-78253000D01*
X73911449Y-78553936D01*
X73490217Y-78553936D01*
X73546278Y-78369127D01*
X73575000Y-78077509D01*
X73575000Y-77282491D01*
X94805000Y-77282491D01*
X94805000Y-78077510D01*
X94833722Y-78369128D01*
X94947226Y-78743302D01*
X95131547Y-79088143D01*
X95379603Y-79390398D01*
X95681858Y-79638453D01*
X96026699Y-79822774D01*
X96400873Y-79936278D01*
X96790000Y-79974604D01*
X97179128Y-79936278D01*
X97553302Y-79822774D01*
X97898143Y-79638453D01*
X98200398Y-79390398D01*
X98448453Y-79088143D01*
X98632774Y-78743302D01*
X98746278Y-78369127D01*
X98775000Y-78077509D01*
X98775000Y-77282490D01*
X98746278Y-76990872D01*
X98632774Y-76616698D01*
X98448453Y-76271857D01*
X98200398Y-75969602D01*
X97898143Y-75721547D01*
X97553301Y-75537226D01*
X97179127Y-75423722D01*
X96790000Y-75385396D01*
X96400872Y-75423722D01*
X96026698Y-75537226D01*
X95681857Y-75721547D01*
X95379602Y-75969602D01*
X95131547Y-76271857D01*
X94947226Y-76616699D01*
X94833722Y-76990873D01*
X94805000Y-77282491D01*
X73575000Y-77282491D01*
X73575000Y-77282490D01*
X73546278Y-76990872D01*
X73490218Y-76806064D01*
X73911449Y-76806064D01*
X74003544Y-77107000D01*
X75217000Y-77107000D01*
X75217000Y-75645970D01*
X76363000Y-75645970D01*
X76363000Y-77107000D01*
X77576456Y-77107000D01*
X77668551Y-76806064D01*
X78111449Y-76806064D01*
X78203544Y-77107000D01*
X79417000Y-77107000D01*
X79417000Y-75645970D01*
X80563000Y-75645970D01*
X80563000Y-77107000D01*
X81776456Y-77107000D01*
X81868551Y-76806064D01*
X82311449Y-76806064D01*
X82403544Y-77107000D01*
X83617000Y-77107000D01*
X83617000Y-75645970D01*
X84763000Y-75645970D01*
X84763000Y-77107000D01*
X85976456Y-77107000D01*
X86068551Y-76806064D01*
X86511449Y-76806064D01*
X86603544Y-77107000D01*
X87817000Y-77107000D01*
X87817000Y-75645970D01*
X88963000Y-75645970D01*
X88963000Y-77107000D01*
X90176456Y-77107000D01*
X90268551Y-76806064D01*
X90711449Y-76806064D01*
X90803544Y-77107000D01*
X92017000Y-77107000D01*
X92017000Y-75645970D01*
X93163000Y-75645970D01*
X93163000Y-77107000D01*
X94376456Y-77107000D01*
X94468551Y-76806064D01*
X94320486Y-76450605D01*
X94105919Y-76130862D01*
X93833096Y-75859123D01*
X93512502Y-75645830D01*
X93453249Y-75592536D01*
X93163000Y-75645970D01*
X92017000Y-75645970D01*
X91726751Y-75592536D01*
X91667498Y-75645830D01*
X91346904Y-75859123D01*
X91074081Y-76130862D01*
X90859514Y-76450605D01*
X90711449Y-76806064D01*
X90268551Y-76806064D01*
X90120486Y-76450605D01*
X89905919Y-76130862D01*
X89633096Y-75859123D01*
X89312502Y-75645830D01*
X89253249Y-75592536D01*
X88963000Y-75645970D01*
X87817000Y-75645970D01*
X87526751Y-75592536D01*
X87467498Y-75645830D01*
X87146904Y-75859123D01*
X86874081Y-76130862D01*
X86659514Y-76450605D01*
X86511449Y-76806064D01*
X86068551Y-76806064D01*
X85920486Y-76450605D01*
X85705919Y-76130862D01*
X85433096Y-75859123D01*
X85112502Y-75645830D01*
X85053249Y-75592536D01*
X84763000Y-75645970D01*
X83617000Y-75645970D01*
X83326751Y-75592536D01*
X83267498Y-75645830D01*
X82946904Y-75859123D01*
X82674081Y-76130862D01*
X82459514Y-76450605D01*
X82311449Y-76806064D01*
X81868551Y-76806064D01*
X81720486Y-76450605D01*
X81505919Y-76130862D01*
X81233096Y-75859123D01*
X80912502Y-75645830D01*
X80853249Y-75592536D01*
X80563000Y-75645970D01*
X79417000Y-75645970D01*
X79126751Y-75592536D01*
X79067498Y-75645830D01*
X78746904Y-75859123D01*
X78474081Y-76130862D01*
X78259514Y-76450605D01*
X78111449Y-76806064D01*
X77668551Y-76806064D01*
X77520486Y-76450605D01*
X77305919Y-76130862D01*
X77033096Y-75859123D01*
X76712502Y-75645830D01*
X76653249Y-75592536D01*
X76363000Y-75645970D01*
X75217000Y-75645970D01*
X74926751Y-75592536D01*
X74867498Y-75645830D01*
X74546904Y-75859123D01*
X74274081Y-76130862D01*
X74059514Y-76450605D01*
X73911449Y-76806064D01*
X73490218Y-76806064D01*
X73432774Y-76616698D01*
X73248453Y-76271857D01*
X73000398Y-75969602D01*
X72698143Y-75721547D01*
X72353301Y-75537226D01*
X71979127Y-75423722D01*
X71590000Y-75385396D01*
X71200872Y-75423722D01*
X70826698Y-75537226D01*
X70481857Y-75721547D01*
X70179602Y-75969602D01*
X70117724Y-76045000D01*
X68862276Y-76045000D01*
X68800398Y-75969602D01*
X68498143Y-75721547D01*
X68153301Y-75537226D01*
X67779127Y-75423722D01*
X67390000Y-75385396D01*
X67000872Y-75423722D01*
X66626698Y-75537226D01*
X66281857Y-75721547D01*
X65979602Y-75969602D01*
X65917724Y-76045000D01*
X64662276Y-76045000D01*
X64600398Y-75969602D01*
X64298143Y-75721547D01*
X63953301Y-75537226D01*
X63579127Y-75423722D01*
X63190000Y-75385396D01*
X62800872Y-75423722D01*
X62426698Y-75537226D01*
X62081857Y-75721547D01*
X61779602Y-75969602D01*
X61717724Y-76045000D01*
X60942277Y-76045000D01*
X60910471Y-75940150D01*
X60828405Y-75786614D01*
X60717961Y-75652039D01*
X60583386Y-75541595D01*
X60429850Y-75459529D01*
X60263253Y-75408992D01*
X60089999Y-75391928D01*
X57890001Y-75391928D01*
X57716747Y-75408992D01*
X57550150Y-75459529D01*
X57396614Y-75541595D01*
X57262039Y-75652039D01*
X57151595Y-75786614D01*
X57069529Y-75940150D01*
X57018992Y-76106747D01*
X57001928Y-76280001D01*
X57001928Y-79079999D01*
X57018992Y-79253253D01*
X57069529Y-79419850D01*
X57151595Y-79573386D01*
X57262039Y-79707961D01*
X57396614Y-79818405D01*
X57550150Y-79900471D01*
X57716747Y-79951008D01*
X57890001Y-79968072D01*
X60089999Y-79968072D01*
X60263253Y-79951008D01*
X60429850Y-79900471D01*
X60583386Y-79818405D01*
X60717961Y-79707961D01*
X60828405Y-79573386D01*
X60910471Y-79419850D01*
X60942277Y-79315000D01*
X61555000Y-79315000D01*
X61555001Y-81743279D01*
X61531547Y-81771857D01*
X61347226Y-82116699D01*
X61233722Y-82490873D01*
X61205000Y-82782491D01*
X61205000Y-83577510D01*
X61233722Y-83869128D01*
X61347226Y-84243302D01*
X61531547Y-84588143D01*
X61779603Y-84890398D01*
X62081858Y-85138453D01*
X62426699Y-85322774D01*
X62800873Y-85436278D01*
X63190000Y-85474604D01*
X63579128Y-85436278D01*
X63953302Y-85322774D01*
X64298143Y-85138453D01*
X64600398Y-84890398D01*
X64662276Y-84815000D01*
X65755001Y-84815000D01*
X65755000Y-86910321D01*
X65755001Y-86910331D01*
X65755000Y-89810321D01*
X65755001Y-89810331D01*
X65755000Y-98939680D01*
X65747089Y-99020000D01*
X65755000Y-99100319D01*
X65755000Y-99100321D01*
X65778657Y-99340515D01*
X65872148Y-99648714D01*
X66023969Y-99932751D01*
X66228286Y-100181714D01*
X66290687Y-100232925D01*
X67875001Y-101817240D01*
X67875000Y-103353279D01*
X67851547Y-103381857D01*
X67667226Y-103726699D01*
X67553722Y-104100873D01*
X67525000Y-104392491D01*
X67525000Y-105187510D01*
X67553722Y-105479128D01*
X67667226Y-105853302D01*
X67851547Y-106198143D01*
X68099603Y-106500398D01*
X68401858Y-106748453D01*
X68746699Y-106932774D01*
X69120873Y-107046278D01*
X69510000Y-107084604D01*
X69899128Y-107046278D01*
X70273302Y-106932774D01*
X70440001Y-106843672D01*
X70440001Y-107985197D01*
X70276345Y-108148853D01*
X70273301Y-108147226D01*
X69899127Y-108033722D01*
X69510000Y-107995396D01*
X69120872Y-108033722D01*
X68746698Y-108147226D01*
X68401857Y-108331547D01*
X68099602Y-108579602D01*
X67851547Y-108881857D01*
X67667226Y-109226699D01*
X67553722Y-109600873D01*
X67525000Y-109892491D01*
X67525000Y-110687510D01*
X67553722Y-110979128D01*
X67667226Y-111353302D01*
X67851547Y-111698143D01*
X68099603Y-112000398D01*
X68401858Y-112248453D01*
X68746699Y-112432774D01*
X69120873Y-112546278D01*
X69510000Y-112584604D01*
X69899128Y-112546278D01*
X70273302Y-112432774D01*
X70618143Y-112248453D01*
X70920398Y-112000398D01*
X71168453Y-111698143D01*
X71352774Y-111353302D01*
X71410217Y-111163936D01*
X71831449Y-111163936D01*
X71979514Y-111519395D01*
X72194081Y-111839138D01*
X72466904Y-112110877D01*
X72787498Y-112324170D01*
X72846751Y-112377464D01*
X73137000Y-112324030D01*
X73137000Y-110863000D01*
X74283000Y-110863000D01*
X74283000Y-112324030D01*
X74573249Y-112377464D01*
X74632502Y-112324170D01*
X74953096Y-112110877D01*
X75225919Y-111839138D01*
X75440486Y-111519395D01*
X75588551Y-111163936D01*
X76031449Y-111163936D01*
X76179514Y-111519395D01*
X76394081Y-111839138D01*
X76666904Y-112110877D01*
X76987498Y-112324170D01*
X77046751Y-112377464D01*
X77337000Y-112324030D01*
X77337000Y-110863000D01*
X78483000Y-110863000D01*
X78483000Y-112324030D01*
X78773249Y-112377464D01*
X78832502Y-112324170D01*
X79153096Y-112110877D01*
X79425919Y-111839138D01*
X79640486Y-111519395D01*
X79788551Y-111163936D01*
X80231449Y-111163936D01*
X80379514Y-111519395D01*
X80594081Y-111839138D01*
X80866904Y-112110877D01*
X81187498Y-112324170D01*
X81246751Y-112377464D01*
X81537000Y-112324030D01*
X81537000Y-110863000D01*
X82683000Y-110863000D01*
X82683000Y-112324030D01*
X82973249Y-112377464D01*
X83032502Y-112324170D01*
X83353096Y-112110877D01*
X83625919Y-111839138D01*
X83840486Y-111519395D01*
X83988551Y-111163936D01*
X83896456Y-110863000D01*
X82683000Y-110863000D01*
X81537000Y-110863000D01*
X80323544Y-110863000D01*
X80231449Y-111163936D01*
X79788551Y-111163936D01*
X79696456Y-110863000D01*
X78483000Y-110863000D01*
X77337000Y-110863000D01*
X76123544Y-110863000D01*
X76031449Y-111163936D01*
X75588551Y-111163936D01*
X75496456Y-110863000D01*
X74283000Y-110863000D01*
X73137000Y-110863000D01*
X71923544Y-110863000D01*
X71831449Y-111163936D01*
X71410217Y-111163936D01*
X71466278Y-110979127D01*
X71495000Y-110687509D01*
X71495000Y-109892491D01*
X84325000Y-109892491D01*
X84325000Y-110687510D01*
X84353722Y-110979128D01*
X84467226Y-111353302D01*
X84651547Y-111698143D01*
X84899603Y-112000398D01*
X85201858Y-112248453D01*
X85546699Y-112432774D01*
X85920873Y-112546278D01*
X86310000Y-112584604D01*
X86699128Y-112546278D01*
X87073302Y-112432774D01*
X87418143Y-112248453D01*
X87720398Y-112000398D01*
X87968453Y-111698143D01*
X88152774Y-111353302D01*
X88266278Y-110979127D01*
X88295000Y-110687509D01*
X88295000Y-109892490D01*
X88266278Y-109600872D01*
X88152774Y-109226698D01*
X87968453Y-108881857D01*
X87720398Y-108579602D01*
X87418143Y-108331547D01*
X87073301Y-108147226D01*
X86699127Y-108033722D01*
X86310000Y-107995396D01*
X85920872Y-108033722D01*
X85546698Y-108147226D01*
X85201857Y-108331547D01*
X84899602Y-108579602D01*
X84651547Y-108881857D01*
X84467226Y-109226699D01*
X84353722Y-109600873D01*
X84325000Y-109892491D01*
X71495000Y-109892491D01*
X71495000Y-109892490D01*
X71466278Y-109600872D01*
X71410218Y-109416064D01*
X71831449Y-109416064D01*
X71923544Y-109717000D01*
X73137000Y-109717000D01*
X73137000Y-108255970D01*
X74283000Y-108255970D01*
X74283000Y-109717000D01*
X75496456Y-109717000D01*
X75588551Y-109416064D01*
X76031449Y-109416064D01*
X76123544Y-109717000D01*
X77337000Y-109717000D01*
X77337000Y-108255970D01*
X78483000Y-108255970D01*
X78483000Y-109717000D01*
X79696456Y-109717000D01*
X79788551Y-109416064D01*
X80231449Y-109416064D01*
X80323544Y-109717000D01*
X81537000Y-109717000D01*
X81537000Y-108255970D01*
X82683000Y-108255970D01*
X82683000Y-109717000D01*
X83896456Y-109717000D01*
X83988551Y-109416064D01*
X83840486Y-109060605D01*
X83625919Y-108740862D01*
X83353096Y-108469123D01*
X83032502Y-108255830D01*
X82973249Y-108202536D01*
X82683000Y-108255970D01*
X81537000Y-108255970D01*
X81246751Y-108202536D01*
X81187498Y-108255830D01*
X80866904Y-108469123D01*
X80594081Y-108740862D01*
X80379514Y-109060605D01*
X80231449Y-109416064D01*
X79788551Y-109416064D01*
X79640486Y-109060605D01*
X79425919Y-108740862D01*
X79153096Y-108469123D01*
X78832502Y-108255830D01*
X78773249Y-108202536D01*
X78483000Y-108255970D01*
X77337000Y-108255970D01*
X77046751Y-108202536D01*
X76987498Y-108255830D01*
X76666904Y-108469123D01*
X76394081Y-108740862D01*
X76179514Y-109060605D01*
X76031449Y-109416064D01*
X75588551Y-109416064D01*
X75440486Y-109060605D01*
X75225919Y-108740862D01*
X74953096Y-108469123D01*
X74632502Y-108255830D01*
X74573249Y-108202536D01*
X74283000Y-108255970D01*
X73137000Y-108255970D01*
X72846751Y-108202536D01*
X72787498Y-108255830D01*
X72466904Y-108469123D01*
X72194081Y-108740862D01*
X71979514Y-109060605D01*
X71831449Y-109416064D01*
X71410218Y-109416064D01*
X71352774Y-109226698D01*
X71351147Y-109223655D01*
X71711003Y-108863799D01*
X71740001Y-108840001D01*
X71766332Y-108807917D01*
X71834974Y-108724277D01*
X71905546Y-108592247D01*
X71916625Y-108555723D01*
X71949003Y-108448986D01*
X71960000Y-108337333D01*
X71960000Y-108337323D01*
X71963676Y-108300000D01*
X71960000Y-108262677D01*
X71960000Y-105972548D01*
X71979514Y-106019395D01*
X72194081Y-106339138D01*
X72466904Y-106610877D01*
X72787498Y-106824170D01*
X72846751Y-106877464D01*
X73137000Y-106824030D01*
X73137000Y-105363000D01*
X74283000Y-105363000D01*
X74283000Y-106824030D01*
X74573249Y-106877464D01*
X74632502Y-106824170D01*
X74953096Y-106610877D01*
X75225919Y-106339138D01*
X75440486Y-106019395D01*
X75588551Y-105663936D01*
X75496456Y-105363000D01*
X74283000Y-105363000D01*
X73137000Y-105363000D01*
X73117000Y-105363000D01*
X73117000Y-104217000D01*
X73137000Y-104217000D01*
X73137000Y-102755970D01*
X72846751Y-102702536D01*
X72787498Y-102755830D01*
X72466904Y-102969123D01*
X72194081Y-103240862D01*
X71979514Y-103560605D01*
X71960000Y-103607452D01*
X71960000Y-87523711D01*
X72003937Y-87479774D01*
X72117205Y-87310256D01*
X72195226Y-87121898D01*
X72235000Y-86921939D01*
X72235000Y-86718061D01*
X72195226Y-86518102D01*
X72117205Y-86329744D01*
X72003937Y-86160226D01*
X71859774Y-86016063D01*
X71690256Y-85902795D01*
X71501898Y-85824774D01*
X71301939Y-85785000D01*
X71098061Y-85785000D01*
X70898102Y-85824774D01*
X70709744Y-85902795D01*
X70540226Y-86016063D01*
X70396063Y-86160226D01*
X70282795Y-86329744D01*
X70204774Y-86518102D01*
X70165000Y-86718061D01*
X70165000Y-86921939D01*
X70204774Y-87121898D01*
X70282795Y-87310256D01*
X70396063Y-87479774D01*
X70440000Y-87523711D01*
X70440000Y-88486344D01*
X70236344Y-88690000D01*
X70440000Y-88893656D01*
X70440000Y-90687094D01*
X70236344Y-90890750D01*
X70440000Y-91094406D01*
X70440000Y-92887844D01*
X70236344Y-93091500D01*
X70440000Y-93295156D01*
X70440000Y-95088594D01*
X70236344Y-95292250D01*
X70440000Y-95495906D01*
X70440000Y-97289344D01*
X70236344Y-97493000D01*
X70440001Y-97696657D01*
X70440001Y-99757762D01*
X69509638Y-98827400D01*
X69675372Y-98811076D01*
X69752426Y-98629770D01*
X69426000Y-98303344D01*
X69411858Y-98317487D01*
X69025000Y-97930629D01*
X69025000Y-97055371D01*
X69411858Y-96668514D01*
X69426000Y-96682656D01*
X69478987Y-96629669D01*
X69675372Y-96610326D01*
X69752426Y-96429020D01*
X69716031Y-96392625D01*
X69752426Y-96356230D01*
X69675372Y-96174924D01*
X69481024Y-96157618D01*
X69426000Y-96102594D01*
X69411858Y-96116737D01*
X69025000Y-95729879D01*
X69025000Y-94854621D01*
X69411858Y-94467764D01*
X69426000Y-94481906D01*
X69478987Y-94428919D01*
X69675372Y-94409576D01*
X69752426Y-94228270D01*
X69716031Y-94191875D01*
X69752426Y-94155480D01*
X69675372Y-93974174D01*
X69481024Y-93956868D01*
X69426000Y-93901844D01*
X69411858Y-93915987D01*
X69025000Y-93529129D01*
X69025000Y-92653871D01*
X69411858Y-92267014D01*
X69426000Y-92281156D01*
X69478987Y-92228169D01*
X69675372Y-92208826D01*
X69752426Y-92027520D01*
X69716031Y-91991125D01*
X69752426Y-91954730D01*
X69675372Y-91773424D01*
X69481024Y-91756118D01*
X69426000Y-91701094D01*
X69411858Y-91715237D01*
X69025000Y-91328379D01*
X69025000Y-90453121D01*
X69411858Y-90066264D01*
X69426000Y-90080406D01*
X69478987Y-90027419D01*
X69675372Y-90008076D01*
X69752426Y-89826770D01*
X69716031Y-89790375D01*
X69752426Y-89753980D01*
X69675372Y-89572674D01*
X69481024Y-89555368D01*
X69426000Y-89500344D01*
X69411858Y-89514487D01*
X69025000Y-89127629D01*
X69025000Y-88252371D01*
X69411858Y-87865514D01*
X69426000Y-87879656D01*
X69752426Y-87553230D01*
X69675372Y-87371924D01*
X69413436Y-87348600D01*
X69176628Y-87371924D01*
X69099575Y-87553228D01*
X69025000Y-87478653D01*
X69025000Y-84815000D01*
X70117725Y-84815000D01*
X70179603Y-84890398D01*
X70481858Y-85138453D01*
X70826699Y-85322774D01*
X71200873Y-85436278D01*
X71590000Y-85474604D01*
X71979128Y-85436278D01*
X72353302Y-85322774D01*
X72698143Y-85138453D01*
X73000398Y-84890398D01*
X73062276Y-84815000D01*
X74155001Y-84815000D01*
X74155000Y-102289681D01*
X74147089Y-102370000D01*
X74155000Y-102450319D01*
X74155000Y-102450321D01*
X74178657Y-102690515D01*
X74272148Y-102998714D01*
X74283000Y-103019017D01*
X74283000Y-104217000D01*
X75324762Y-104217000D01*
X75925000Y-104817239D01*
X75925000Y-105187510D01*
X75953722Y-105479128D01*
X76067226Y-105853302D01*
X76251547Y-106198143D01*
X76499603Y-106500398D01*
X76801858Y-106748453D01*
X77146699Y-106932774D01*
X77520873Y-107046278D01*
X77910000Y-107084604D01*
X78299128Y-107046278D01*
X78673302Y-106932774D01*
X79018143Y-106748453D01*
X79320398Y-106500398D01*
X79568453Y-106198143D01*
X79752774Y-105853302D01*
X79810217Y-105663936D01*
X80231449Y-105663936D01*
X80379514Y-106019395D01*
X80594081Y-106339138D01*
X80866904Y-106610877D01*
X81187498Y-106824170D01*
X81246751Y-106877464D01*
X81537000Y-106824030D01*
X81537000Y-105363000D01*
X82683000Y-105363000D01*
X82683000Y-106824030D01*
X82973249Y-106877464D01*
X83032502Y-106824170D01*
X83353096Y-106610877D01*
X83625919Y-106339138D01*
X83840486Y-106019395D01*
X83988551Y-105663936D01*
X83896456Y-105363000D01*
X82683000Y-105363000D01*
X81537000Y-105363000D01*
X80323544Y-105363000D01*
X80231449Y-105663936D01*
X79810217Y-105663936D01*
X79866278Y-105479127D01*
X79895000Y-105187509D01*
X79895000Y-104392491D01*
X84325000Y-104392491D01*
X84325000Y-105187510D01*
X84353722Y-105479128D01*
X84467226Y-105853302D01*
X84651547Y-106198143D01*
X84899603Y-106500398D01*
X85201858Y-106748453D01*
X85546699Y-106932774D01*
X85920873Y-107046278D01*
X86310000Y-107084604D01*
X86699128Y-107046278D01*
X87073302Y-106932774D01*
X87418143Y-106748453D01*
X87720398Y-106500398D01*
X87968453Y-106198143D01*
X88152774Y-105853302D01*
X88266278Y-105479127D01*
X88295000Y-105187509D01*
X88295000Y-104392490D01*
X88266278Y-104100872D01*
X88152774Y-103726698D01*
X87968453Y-103381857D01*
X87720398Y-103079602D01*
X87418143Y-102831547D01*
X87073301Y-102647226D01*
X86880000Y-102588589D01*
X86880000Y-97373711D01*
X86923937Y-97329774D01*
X87037205Y-97160256D01*
X87115226Y-96971898D01*
X87155000Y-96771939D01*
X87155000Y-96568061D01*
X87115226Y-96368102D01*
X87037205Y-96179744D01*
X86923937Y-96010226D01*
X86779774Y-95866063D01*
X86610256Y-95752795D01*
X86421898Y-95674774D01*
X86221939Y-95635000D01*
X86018061Y-95635000D01*
X85818102Y-95674774D01*
X85629744Y-95752795D01*
X85460226Y-95866063D01*
X85316063Y-96010226D01*
X85202795Y-96179744D01*
X85124774Y-96368102D01*
X85085000Y-96568061D01*
X85085000Y-96771939D01*
X85124774Y-96971898D01*
X85202795Y-97160256D01*
X85316063Y-97329774D01*
X85360000Y-97373711D01*
X85360001Y-102747018D01*
X85201857Y-102831547D01*
X84899602Y-103079602D01*
X84651547Y-103381857D01*
X84467226Y-103726699D01*
X84353722Y-104100873D01*
X84325000Y-104392491D01*
X79895000Y-104392491D01*
X79895000Y-104392490D01*
X79866278Y-104100872D01*
X79810218Y-103916064D01*
X80231449Y-103916064D01*
X80323544Y-104217000D01*
X81537000Y-104217000D01*
X81537000Y-102755970D01*
X82683000Y-102755970D01*
X82683000Y-104217000D01*
X83896456Y-104217000D01*
X83988551Y-103916064D01*
X83840486Y-103560605D01*
X83625919Y-103240862D01*
X83353096Y-102969123D01*
X83032502Y-102755830D01*
X82973249Y-102702536D01*
X82683000Y-102755970D01*
X81537000Y-102755970D01*
X81246751Y-102702536D01*
X81187498Y-102755830D01*
X80866904Y-102969123D01*
X80594081Y-103240862D01*
X80379514Y-103560605D01*
X80231449Y-103916064D01*
X79810218Y-103916064D01*
X79752774Y-103726698D01*
X79568453Y-103381857D01*
X79320398Y-103079602D01*
X79018143Y-102831547D01*
X78673301Y-102647226D01*
X78299127Y-102533722D01*
X78262337Y-102530098D01*
X77425000Y-101692762D01*
X77425000Y-87427239D01*
X79597080Y-89599319D01*
X79648286Y-89661714D01*
X79897248Y-89866031D01*
X80181285Y-90017852D01*
X80489484Y-90111343D01*
X80729678Y-90135000D01*
X80729680Y-90135000D01*
X80809999Y-90142911D01*
X80890319Y-90135000D01*
X86132762Y-90135000D01*
X91524991Y-95527230D01*
X91524990Y-102781756D01*
X91273301Y-102647226D01*
X90899127Y-102533722D01*
X90510000Y-102495396D01*
X90120872Y-102533722D01*
X89746698Y-102647226D01*
X89401857Y-102831547D01*
X89099602Y-103079602D01*
X88851547Y-103381857D01*
X88667226Y-103726699D01*
X88553722Y-104100873D01*
X88525000Y-104392491D01*
X88525000Y-105187510D01*
X88553722Y-105479128D01*
X88667226Y-105853302D01*
X88851547Y-106198143D01*
X89099603Y-106500398D01*
X89401858Y-106748453D01*
X89746699Y-106932774D01*
X90120873Y-107046278D01*
X90510000Y-107084604D01*
X90899128Y-107046278D01*
X91273302Y-106932774D01*
X91524990Y-106798244D01*
X91524990Y-108184239D01*
X91519499Y-108239990D01*
X91523536Y-108280979D01*
X91273301Y-108147226D01*
X90899127Y-108033722D01*
X90510000Y-107995396D01*
X90120872Y-108033722D01*
X89746698Y-108147226D01*
X89401857Y-108331547D01*
X89099602Y-108579602D01*
X88851547Y-108881857D01*
X88667226Y-109226699D01*
X88553722Y-109600873D01*
X88525000Y-109892491D01*
X88525000Y-110687510D01*
X88553722Y-110979128D01*
X88667226Y-111353302D01*
X88851547Y-111698143D01*
X89099603Y-112000398D01*
X89401858Y-112248453D01*
X89746699Y-112432774D01*
X90120873Y-112546278D01*
X90510000Y-112584604D01*
X90899128Y-112546278D01*
X91273302Y-112432774D01*
X91618143Y-112248453D01*
X91920398Y-112000398D01*
X91982276Y-111925000D01*
X93237725Y-111925000D01*
X93299603Y-112000398D01*
X93601858Y-112248453D01*
X93946699Y-112432774D01*
X94320873Y-112546278D01*
X94710000Y-112584604D01*
X95099128Y-112546278D01*
X95473302Y-112432774D01*
X95818143Y-112248453D01*
X96120398Y-112000398D01*
X96182276Y-111925000D01*
X97437725Y-111925000D01*
X97499603Y-112000398D01*
X97801858Y-112248453D01*
X98146699Y-112432774D01*
X98520873Y-112546278D01*
X98910000Y-112584604D01*
X99299128Y-112546278D01*
X99673302Y-112432774D01*
X100018143Y-112248453D01*
X100320398Y-112000398D01*
X100568453Y-111698143D01*
X100752774Y-111353302D01*
X100866278Y-110979127D01*
X100895000Y-110687509D01*
X100895000Y-109892490D01*
X100866278Y-109600872D01*
X100810218Y-109416064D01*
X101231449Y-109416064D01*
X101323544Y-109717000D01*
X102537000Y-109717000D01*
X102537000Y-108255970D01*
X102246751Y-108202536D01*
X102187498Y-108255830D01*
X101866904Y-108469123D01*
X101594081Y-108740862D01*
X101379514Y-109060605D01*
X101231449Y-109416064D01*
X100810218Y-109416064D01*
X100752774Y-109226698D01*
X100568453Y-108881857D01*
X100320398Y-108579602D01*
X100018143Y-108331547D01*
X99673301Y-108147226D01*
X99299127Y-108033722D01*
X98910000Y-107995396D01*
X98520872Y-108033722D01*
X98319837Y-108094705D01*
X97994990Y-107769859D01*
X97994990Y-106851684D01*
X98146699Y-106932774D01*
X98520873Y-107046278D01*
X98910000Y-107084604D01*
X99299128Y-107046278D01*
X99673302Y-106932774D01*
X100018143Y-106748453D01*
X100320398Y-106500398D01*
X100568453Y-106198143D01*
X100752774Y-105853302D01*
X100866278Y-105479127D01*
X100895000Y-105187509D01*
X100895000Y-104392490D01*
X100866278Y-104100872D01*
X100752774Y-103726698D01*
X100568453Y-103381857D01*
X100545000Y-103353280D01*
X100545000Y-100581004D01*
X100563970Y-100616494D01*
X100768287Y-100865456D01*
X100830682Y-100916662D01*
X102511311Y-102597292D01*
X102346698Y-102647226D01*
X102001857Y-102831547D01*
X101699602Y-103079602D01*
X101451547Y-103381857D01*
X101267226Y-103726699D01*
X101153722Y-104100873D01*
X101125000Y-104392491D01*
X101125000Y-105187510D01*
X101153722Y-105479128D01*
X101267226Y-105853302D01*
X101451547Y-106198143D01*
X101699603Y-106500398D01*
X102001858Y-106748453D01*
X102346699Y-106932774D01*
X102720873Y-107046278D01*
X103110000Y-107084604D01*
X103499128Y-107046278D01*
X103873302Y-106932774D01*
X104025010Y-106851684D01*
X104025011Y-108249092D01*
X103973249Y-108202536D01*
X103683000Y-108255970D01*
X103683000Y-109717000D01*
X103703000Y-109717000D01*
X103703000Y-110863000D01*
X103683000Y-110863000D01*
X103683000Y-110883000D01*
X102537000Y-110883000D01*
X102537000Y-110863000D01*
X101323544Y-110863000D01*
X101231449Y-111163936D01*
X101379514Y-111519395D01*
X101594081Y-111839138D01*
X101866904Y-112110877D01*
X102187498Y-112324170D01*
X102246751Y-112377464D01*
X102536998Y-112324030D01*
X102536998Y-112457021D01*
X101069020Y-113925000D01*
X66757239Y-113925000D01*
X65407238Y-112575000D01*
X65883002Y-112575000D01*
X65883002Y-112324030D01*
X66173249Y-112377464D01*
X66232502Y-112324170D01*
X66553096Y-112110877D01*
X66825919Y-111839138D01*
X67040486Y-111519395D01*
X67188551Y-111163936D01*
X67096456Y-110863000D01*
X65883000Y-110863000D01*
X65883000Y-110883000D01*
X64737000Y-110883000D01*
X64737000Y-110863000D01*
X63695238Y-110863000D01*
X63095000Y-110262762D01*
X63095000Y-109892490D01*
X63066278Y-109600872D01*
X63010218Y-109416064D01*
X63431449Y-109416064D01*
X63523544Y-109717000D01*
X64737000Y-109717000D01*
X64737000Y-108255970D01*
X65883000Y-108255970D01*
X65883000Y-109717000D01*
X67096456Y-109717000D01*
X67188551Y-109416064D01*
X67040486Y-109060605D01*
X66825919Y-108740862D01*
X66553096Y-108469123D01*
X66232502Y-108255830D01*
X66173249Y-108202536D01*
X65883000Y-108255970D01*
X64737000Y-108255970D01*
X64446751Y-108202536D01*
X64387498Y-108255830D01*
X64066904Y-108469123D01*
X63794081Y-108740862D01*
X63579514Y-109060605D01*
X63431449Y-109416064D01*
X63010218Y-109416064D01*
X62952774Y-109226698D01*
X62768453Y-108881857D01*
X62520398Y-108579602D01*
X62218143Y-108331547D01*
X61873301Y-108147226D01*
X61499127Y-108033722D01*
X61110000Y-107995396D01*
X60720872Y-108033722D01*
X60346698Y-108147226D01*
X60001857Y-108331547D01*
X59699602Y-108579602D01*
X59451547Y-108881857D01*
X59267226Y-109226699D01*
X59153722Y-109600873D01*
X59125000Y-109892491D01*
X59125000Y-110687510D01*
X59153722Y-110979128D01*
X59267226Y-111353302D01*
X59451547Y-111698143D01*
X59699603Y-112000398D01*
X60001858Y-112248453D01*
X60346699Y-112432774D01*
X60720873Y-112546278D01*
X60757663Y-112549902D01*
X64867080Y-116659319D01*
X64918286Y-116721714D01*
X65167248Y-116926031D01*
X65451285Y-117077852D01*
X65759484Y-117171343D01*
X65999678Y-117195000D01*
X65999680Y-117195000D01*
X66079999Y-117202911D01*
X66160319Y-117195000D01*
X101665939Y-117195000D01*
X101746258Y-117202911D01*
X101826577Y-117195000D01*
X101826580Y-117195000D01*
X102066774Y-117171343D01*
X102374973Y-117077852D01*
X102659010Y-116926031D01*
X102807102Y-116804495D01*
X105015000Y-116804495D01*
X105015000Y-117195505D01*
X105091282Y-117579003D01*
X105240915Y-117940250D01*
X105458149Y-118265364D01*
X105734636Y-118541851D01*
X106059750Y-118759085D01*
X106420997Y-118908718D01*
X106804495Y-118985000D01*
X107195505Y-118985000D01*
X107579003Y-118908718D01*
X107940250Y-118759085D01*
X108265364Y-118541851D01*
X108541851Y-118265364D01*
X108759085Y-117940250D01*
X108908718Y-117579003D01*
X108985000Y-117195505D01*
X108985000Y-116804495D01*
X108908718Y-116420997D01*
X108759085Y-116059750D01*
X108541851Y-115734636D01*
X108265364Y-115458149D01*
X107940250Y-115240915D01*
X107579003Y-115091282D01*
X107195505Y-115015000D01*
X106804495Y-115015000D01*
X106420997Y-115091282D01*
X106059750Y-115240915D01*
X105734636Y-115458149D01*
X105458149Y-115734636D01*
X105240915Y-116059750D01*
X105091282Y-116420997D01*
X105015000Y-116804495D01*
X102807102Y-116804495D01*
X102907972Y-116721714D01*
X102959183Y-116659313D01*
X106759329Y-112859168D01*
X106821724Y-112807962D01*
X107026041Y-112559000D01*
X107177862Y-112274963D01*
X107271353Y-111966764D01*
X107295010Y-111726570D01*
X107295010Y-111726568D01*
X107302921Y-111646249D01*
X107295010Y-111565929D01*
X107295010Y-103514074D01*
X107302921Y-103433752D01*
X107271353Y-103113235D01*
X107177862Y-102805037D01*
X107099190Y-102657852D01*
X107026041Y-102521000D01*
X106821724Y-102272038D01*
X106759335Y-102220837D01*
X103565000Y-99026504D01*
X103565000Y-97351093D01*
X107354932Y-97351093D01*
X107398415Y-97570399D01*
X107398820Y-97571736D01*
X107584109Y-97618390D01*
X107962498Y-97240000D01*
X107584109Y-96861610D01*
X107398820Y-96908264D01*
X107355069Y-97127517D01*
X107354932Y-97351093D01*
X103565000Y-97351093D01*
X103565000Y-94440000D01*
X105991928Y-94440000D01*
X106004188Y-94564482D01*
X106040498Y-94684180D01*
X106099463Y-94794494D01*
X106178815Y-94891185D01*
X106275506Y-94970537D01*
X106385820Y-95029502D01*
X106505518Y-95065812D01*
X106630000Y-95078072D01*
X106648250Y-95075000D01*
X106807000Y-94916250D01*
X106807000Y-94263000D01*
X106153750Y-94263000D01*
X105995000Y-94421750D01*
X105991928Y-94440000D01*
X103565000Y-94440000D01*
X103565000Y-92940000D01*
X105991928Y-92940000D01*
X105995000Y-92958250D01*
X106153750Y-93117000D01*
X106807000Y-93117000D01*
X106807000Y-92463750D01*
X106648250Y-92305000D01*
X106630000Y-92301928D01*
X106505518Y-92314188D01*
X106385820Y-92350498D01*
X106275506Y-92409463D01*
X106178815Y-92488815D01*
X106099463Y-92585506D01*
X106040498Y-92695820D01*
X106004188Y-92815518D01*
X105991928Y-92940000D01*
X103565000Y-92940000D01*
X103565000Y-91691056D01*
X103612629Y-91806043D01*
X103764201Y-92032886D01*
X103957114Y-92225799D01*
X104183957Y-92377371D01*
X104436011Y-92481775D01*
X104703589Y-92535000D01*
X104976411Y-92535000D01*
X105243989Y-92481775D01*
X105496043Y-92377371D01*
X105722886Y-92225799D01*
X105915799Y-92032886D01*
X105997909Y-91910000D01*
X108555002Y-91910000D01*
X108555002Y-92467327D01*
X108484494Y-92409463D01*
X108374180Y-92350498D01*
X108254482Y-92314188D01*
X108130000Y-92301928D01*
X108111750Y-92305000D01*
X107953000Y-92463750D01*
X107953000Y-93117000D01*
X107973000Y-93117000D01*
X107973000Y-94263000D01*
X107953000Y-94263000D01*
X107953000Y-94916250D01*
X108111750Y-95075000D01*
X108130000Y-95078072D01*
X108254482Y-95065812D01*
X108374180Y-95029502D01*
X108484494Y-94970537D01*
X108555002Y-94912673D01*
X108555002Y-96105040D01*
X108378907Y-96104932D01*
X108159601Y-96148415D01*
X108158264Y-96148820D01*
X108111610Y-96334109D01*
X108490000Y-96712498D01*
X108555002Y-96647497D01*
X108555002Y-97832503D01*
X108490000Y-97767502D01*
X108111610Y-98145891D01*
X108158264Y-98331180D01*
X108377517Y-98374931D01*
X108555002Y-98375040D01*
X108555001Y-99940250D01*
X108378212Y-99940250D01*
X108158933Y-99983867D01*
X107952376Y-100069426D01*
X107766480Y-100193638D01*
X107608388Y-100351730D01*
X107484176Y-100537626D01*
X107398617Y-100744183D01*
X107355000Y-100963462D01*
X107355000Y-101187038D01*
X107398617Y-101406317D01*
X107484176Y-101612874D01*
X107608388Y-101798770D01*
X107766480Y-101956862D01*
X107952376Y-102081074D01*
X108158933Y-102166633D01*
X108378212Y-102210250D01*
X108555001Y-102210250D01*
X108555001Y-103775500D01*
X108378212Y-103775500D01*
X108158933Y-103819117D01*
X107952376Y-103904676D01*
X107766480Y-104028888D01*
X107608388Y-104186980D01*
X107484176Y-104372876D01*
X107398617Y-104579433D01*
X107355000Y-104798712D01*
X107355000Y-105022288D01*
X107398617Y-105241567D01*
X107484176Y-105448124D01*
X107608388Y-105634020D01*
X107766480Y-105792112D01*
X107952376Y-105916324D01*
X108158933Y-106001883D01*
X108378212Y-106045500D01*
X108555001Y-106045500D01*
X108555001Y-107605947D01*
X108550198Y-107610750D01*
X108378212Y-107610750D01*
X108158933Y-107654367D01*
X107952376Y-107739926D01*
X107766480Y-107864138D01*
X107608388Y-108022230D01*
X107484176Y-108208126D01*
X107398617Y-108414683D01*
X107355000Y-108633962D01*
X107355000Y-108857538D01*
X107398617Y-109076817D01*
X107484176Y-109283374D01*
X107608388Y-109469270D01*
X107766480Y-109627362D01*
X107952376Y-109751574D01*
X108158933Y-109837133D01*
X108378212Y-109880750D01*
X108601788Y-109880750D01*
X108821067Y-109837133D01*
X109027624Y-109751574D01*
X109213520Y-109627362D01*
X109340001Y-109500881D01*
X109340001Y-111825869D01*
X109213520Y-111699388D01*
X109027624Y-111575176D01*
X108821067Y-111489617D01*
X108601788Y-111446000D01*
X108378212Y-111446000D01*
X108158933Y-111489617D01*
X107952376Y-111575176D01*
X107766480Y-111699388D01*
X107608388Y-111857480D01*
X107484176Y-112043376D01*
X107398617Y-112249933D01*
X107355000Y-112469212D01*
X107355000Y-112692788D01*
X107398617Y-112912067D01*
X107484176Y-113118624D01*
X107608388Y-113304520D01*
X107766480Y-113462612D01*
X107952376Y-113586824D01*
X108158933Y-113672383D01*
X108378212Y-113716000D01*
X108601788Y-113716000D01*
X108821067Y-113672383D01*
X109027624Y-113586824D01*
X109213520Y-113462612D01*
X109340001Y-113336131D01*
X109340001Y-116967711D01*
X109292330Y-117453894D01*
X109160512Y-117890497D01*
X108946399Y-118293186D01*
X108658150Y-118646613D01*
X108306739Y-118937327D01*
X107905564Y-119154240D01*
X107469886Y-119289106D01*
X106985664Y-119340000D01*
X53032279Y-119340000D01*
X52546106Y-119292330D01*
X52109503Y-119160512D01*
X51706814Y-118946399D01*
X51353387Y-118658150D01*
X51062673Y-118306739D01*
X50845760Y-117905564D01*
X50710894Y-117469886D01*
X50660000Y-116985664D01*
X50660000Y-116804495D01*
X51015000Y-116804495D01*
X51015000Y-117195505D01*
X51091282Y-117579003D01*
X51240915Y-117940250D01*
X51458149Y-118265364D01*
X51734636Y-118541851D01*
X52059750Y-118759085D01*
X52420997Y-118908718D01*
X52804495Y-118985000D01*
X53195505Y-118985000D01*
X53579003Y-118908718D01*
X53940250Y-118759085D01*
X54265364Y-118541851D01*
X54541851Y-118265364D01*
X54759085Y-117940250D01*
X54908718Y-117579003D01*
X54985000Y-117195505D01*
X54985000Y-116804495D01*
X54908718Y-116420997D01*
X54759085Y-116059750D01*
X54541851Y-115734636D01*
X54265364Y-115458149D01*
X53940250Y-115240915D01*
X53579003Y-115091282D01*
X53195505Y-115015000D01*
X52804495Y-115015000D01*
X52420997Y-115091282D01*
X52059750Y-115240915D01*
X51734636Y-115458149D01*
X51458149Y-115734636D01*
X51240915Y-116059750D01*
X51091282Y-116420997D01*
X51015000Y-116804495D01*
X50660000Y-116804495D01*
X50660000Y-114422143D01*
X53690000Y-114422143D01*
X53690000Y-109892491D01*
X54925000Y-109892491D01*
X54925000Y-110687510D01*
X54953722Y-110979128D01*
X55067226Y-111353302D01*
X55251547Y-111698143D01*
X55499603Y-112000398D01*
X55801858Y-112248453D01*
X56146699Y-112432774D01*
X56520873Y-112546278D01*
X56910000Y-112584604D01*
X57299128Y-112546278D01*
X57673302Y-112432774D01*
X58018143Y-112248453D01*
X58320398Y-112000398D01*
X58568453Y-111698143D01*
X58752774Y-111353302D01*
X58866278Y-110979127D01*
X58895000Y-110687509D01*
X58895000Y-109892490D01*
X58866278Y-109600872D01*
X58752774Y-109226698D01*
X58568453Y-108881857D01*
X58320398Y-108579602D01*
X58018143Y-108331547D01*
X57673301Y-108147226D01*
X57299127Y-108033722D01*
X56910000Y-107995396D01*
X56520872Y-108033722D01*
X56146698Y-108147226D01*
X55801857Y-108331547D01*
X55499602Y-108579602D01*
X55251547Y-108881857D01*
X55067226Y-109226699D01*
X54953722Y-109600873D01*
X54925000Y-109892491D01*
X53690000Y-109892491D01*
X53690000Y-103390001D01*
X54921928Y-103390001D01*
X54921928Y-106189999D01*
X54938992Y-106363253D01*
X54989529Y-106529850D01*
X55071595Y-106683386D01*
X55182039Y-106817961D01*
X55316614Y-106928405D01*
X55470150Y-107010471D01*
X55636747Y-107061008D01*
X55810001Y-107078072D01*
X58009999Y-107078072D01*
X58183253Y-107061008D01*
X58349850Y-107010471D01*
X58503386Y-106928405D01*
X58637961Y-106817961D01*
X58748405Y-106683386D01*
X58830471Y-106529850D01*
X58881008Y-106363253D01*
X58898072Y-106189999D01*
X58898072Y-104392491D01*
X59125000Y-104392491D01*
X59125000Y-105187510D01*
X59153722Y-105479128D01*
X59267226Y-105853302D01*
X59451547Y-106198143D01*
X59699603Y-106500398D01*
X60001858Y-106748453D01*
X60346699Y-106932774D01*
X60720873Y-107046278D01*
X61110000Y-107084604D01*
X61499128Y-107046278D01*
X61873302Y-106932774D01*
X62218143Y-106748453D01*
X62520398Y-106500398D01*
X62768453Y-106198143D01*
X62952774Y-105853302D01*
X63010217Y-105663936D01*
X63431449Y-105663936D01*
X63579514Y-106019395D01*
X63794081Y-106339138D01*
X64066904Y-106610877D01*
X64387498Y-106824170D01*
X64446751Y-106877464D01*
X64737000Y-106824030D01*
X64737000Y-105363000D01*
X65883000Y-105363000D01*
X65883000Y-106824030D01*
X66173249Y-106877464D01*
X66232502Y-106824170D01*
X66553096Y-106610877D01*
X66825919Y-106339138D01*
X67040486Y-106019395D01*
X67188551Y-105663936D01*
X67096456Y-105363000D01*
X65883000Y-105363000D01*
X64737000Y-105363000D01*
X63523544Y-105363000D01*
X63431449Y-105663936D01*
X63010217Y-105663936D01*
X63066278Y-105479127D01*
X63095000Y-105187509D01*
X63095000Y-104392490D01*
X63066278Y-104100872D01*
X63010218Y-103916064D01*
X63431449Y-103916064D01*
X63523544Y-104217000D01*
X64737000Y-104217000D01*
X64737000Y-102755970D01*
X65883000Y-102755970D01*
X65883000Y-104217000D01*
X67096456Y-104217000D01*
X67188551Y-103916064D01*
X67040486Y-103560605D01*
X66825919Y-103240862D01*
X66553096Y-102969123D01*
X66232502Y-102755830D01*
X66173249Y-102702536D01*
X65883000Y-102755970D01*
X64737000Y-102755970D01*
X64446751Y-102702536D01*
X64387498Y-102755830D01*
X64066904Y-102969123D01*
X63794081Y-103240862D01*
X63579514Y-103560605D01*
X63431449Y-103916064D01*
X63010218Y-103916064D01*
X62952774Y-103726698D01*
X62768453Y-103381857D01*
X62520398Y-103079602D01*
X62218143Y-102831547D01*
X61873301Y-102647226D01*
X61499127Y-102533722D01*
X61110000Y-102495396D01*
X60720872Y-102533722D01*
X60346698Y-102647226D01*
X60001857Y-102831547D01*
X59699602Y-103079602D01*
X59451547Y-103381857D01*
X59267226Y-103726699D01*
X59153722Y-104100873D01*
X59125000Y-104392491D01*
X58898072Y-104392491D01*
X58898072Y-103390001D01*
X58881008Y-103216747D01*
X58830471Y-103050150D01*
X58748405Y-102896614D01*
X58637961Y-102762039D01*
X58503386Y-102651595D01*
X58349850Y-102569529D01*
X58183253Y-102518992D01*
X58009999Y-102501928D01*
X55810001Y-102501928D01*
X55636747Y-102518992D01*
X55470150Y-102569529D01*
X55316614Y-102651595D01*
X55182039Y-102762039D01*
X55071595Y-102896614D01*
X54989529Y-103050150D01*
X54938992Y-103216747D01*
X54921928Y-103390001D01*
X53690000Y-103390001D01*
X53690000Y-101637857D01*
X50660000Y-101637857D01*
X50660000Y-101297155D01*
X50781000Y-101309072D01*
X52581000Y-101309072D01*
X52705482Y-101296812D01*
X52825180Y-101260502D01*
X52935494Y-101201537D01*
X53032185Y-101122185D01*
X53111537Y-101025494D01*
X53170502Y-100915180D01*
X53176056Y-100896873D01*
X53242495Y-100963312D01*
X53493905Y-101131299D01*
X53773257Y-101247011D01*
X54069816Y-101306000D01*
X54372184Y-101306000D01*
X54668743Y-101247011D01*
X54948095Y-101131299D01*
X55199505Y-100963312D01*
X55413312Y-100749505D01*
X55581299Y-100498095D01*
X55697011Y-100218743D01*
X55756000Y-99922184D01*
X55756000Y-99619816D01*
X55697011Y-99323257D01*
X55581299Y-99043905D01*
X55413312Y-98792495D01*
X55199505Y-98578688D01*
X54948095Y-98410701D01*
X54668743Y-98294989D01*
X54372184Y-98236000D01*
X54069816Y-98236000D01*
X53773257Y-98294989D01*
X53493905Y-98410701D01*
X53242495Y-98578688D01*
X53176056Y-98645127D01*
X53170502Y-98626820D01*
X53111537Y-98516506D01*
X53032185Y-98419815D01*
X52935494Y-98340463D01*
X52825180Y-98281498D01*
X52705482Y-98245188D01*
X52581000Y-98232928D01*
X50781000Y-98232928D01*
X50660000Y-98244845D01*
X50660000Y-96222530D01*
X50781000Y-96234447D01*
X52581000Y-96234447D01*
X52705482Y-96222187D01*
X52825180Y-96185877D01*
X52935494Y-96126912D01*
X53032185Y-96047560D01*
X53111537Y-95950869D01*
X53170502Y-95840555D01*
X53176056Y-95822248D01*
X53242495Y-95888687D01*
X53493905Y-96056674D01*
X53773257Y-96172386D01*
X54069816Y-96231375D01*
X54372184Y-96231375D01*
X54668743Y-96172386D01*
X54948095Y-96056674D01*
X55199505Y-95888687D01*
X55413312Y-95674880D01*
X55581299Y-95423470D01*
X55697011Y-95144118D01*
X55756000Y-94847559D01*
X55756000Y-94545191D01*
X55697011Y-94248632D01*
X55581299Y-93969280D01*
X55413312Y-93717870D01*
X55199505Y-93504063D01*
X54948095Y-93336076D01*
X54668743Y-93220364D01*
X54372184Y-93161375D01*
X54069816Y-93161375D01*
X53773257Y-93220364D01*
X53493905Y-93336076D01*
X53242495Y-93504063D01*
X53176056Y-93570502D01*
X53170502Y-93552195D01*
X53111537Y-93441881D01*
X53032185Y-93345190D01*
X52935494Y-93265838D01*
X52825180Y-93206873D01*
X52705482Y-93170563D01*
X52581000Y-93158303D01*
X50781000Y-93158303D01*
X50660000Y-93170220D01*
X50660000Y-91147905D01*
X50781000Y-91159822D01*
X52581000Y-91159822D01*
X52705482Y-91147562D01*
X52825180Y-91111252D01*
X52935494Y-91052287D01*
X53032185Y-90972935D01*
X53111537Y-90876244D01*
X53170502Y-90765930D01*
X53176056Y-90747623D01*
X53242495Y-90814062D01*
X53493905Y-90982049D01*
X53773257Y-91097761D01*
X54069816Y-91156750D01*
X54372184Y-91156750D01*
X54668743Y-91097761D01*
X54948095Y-90982049D01*
X55199505Y-90814062D01*
X55413312Y-90600255D01*
X55581299Y-90348845D01*
X55697011Y-90069493D01*
X55756000Y-89772934D01*
X55756000Y-89470566D01*
X55697011Y-89174007D01*
X55581299Y-88894655D01*
X55413312Y-88643245D01*
X55199505Y-88429438D01*
X54948095Y-88261451D01*
X54668743Y-88145739D01*
X54372184Y-88086750D01*
X54069816Y-88086750D01*
X53773257Y-88145739D01*
X53493905Y-88261451D01*
X53242495Y-88429438D01*
X53176056Y-88495877D01*
X53170502Y-88477570D01*
X53111537Y-88367256D01*
X53032185Y-88270565D01*
X52935494Y-88191213D01*
X52825180Y-88132248D01*
X52705482Y-88095938D01*
X52581000Y-88083678D01*
X50781000Y-88083678D01*
X50660000Y-88095595D01*
X50660000Y-86073280D01*
X50781000Y-86085197D01*
X52581000Y-86085197D01*
X52705482Y-86072937D01*
X52825180Y-86036627D01*
X52935494Y-85977662D01*
X53032185Y-85898310D01*
X53111537Y-85801619D01*
X53170502Y-85691305D01*
X53176056Y-85672998D01*
X53242495Y-85739437D01*
X53493905Y-85907424D01*
X53773257Y-86023136D01*
X54069816Y-86082125D01*
X54372184Y-86082125D01*
X54668743Y-86023136D01*
X54948095Y-85907424D01*
X55199505Y-85739437D01*
X55413312Y-85525630D01*
X55581299Y-85274220D01*
X55697011Y-84994868D01*
X55756000Y-84698309D01*
X55756000Y-84395941D01*
X55697011Y-84099382D01*
X55581299Y-83820030D01*
X55413312Y-83568620D01*
X55199505Y-83354813D01*
X54948095Y-83186826D01*
X54668743Y-83071114D01*
X54372184Y-83012125D01*
X54069816Y-83012125D01*
X53773257Y-83071114D01*
X53493905Y-83186826D01*
X53242495Y-83354813D01*
X53176056Y-83421252D01*
X53170502Y-83402945D01*
X53111537Y-83292631D01*
X53032185Y-83195940D01*
X52935494Y-83116588D01*
X52825180Y-83057623D01*
X52705482Y-83021313D01*
X52581000Y-83009053D01*
X50781000Y-83009053D01*
X50660000Y-83020970D01*
X50660000Y-82782491D01*
X57005000Y-82782491D01*
X57005000Y-83577510D01*
X57033722Y-83869128D01*
X57147226Y-84243302D01*
X57331547Y-84588143D01*
X57355000Y-84616720D01*
X57355001Y-97979671D01*
X57347089Y-98060000D01*
X57378658Y-98380516D01*
X57472148Y-98688714D01*
X57536273Y-98808683D01*
X57623970Y-98972752D01*
X57828287Y-99221714D01*
X57890682Y-99272920D01*
X60190676Y-101572915D01*
X60377247Y-101726030D01*
X60661285Y-101877851D01*
X60969483Y-101971342D01*
X61289999Y-102002911D01*
X61610516Y-101971342D01*
X61918714Y-101877851D01*
X62202752Y-101726030D01*
X62451713Y-101521713D01*
X62656030Y-101272752D01*
X62807851Y-100988714D01*
X62901342Y-100680516D01*
X62932911Y-100359999D01*
X62901342Y-100039483D01*
X62807851Y-99731285D01*
X62656030Y-99447247D01*
X62502915Y-99260676D01*
X62052427Y-98810188D01*
X62067706Y-98808683D01*
X62319354Y-98732347D01*
X62551275Y-98608382D01*
X62754555Y-98441555D01*
X62921382Y-98238275D01*
X63045347Y-98006354D01*
X63121683Y-97754706D01*
X63147459Y-97493000D01*
X63121683Y-97231294D01*
X63045347Y-96979646D01*
X62921382Y-96747725D01*
X62754555Y-96544445D01*
X62569561Y-96392625D01*
X62754555Y-96240805D01*
X62921382Y-96037525D01*
X63045347Y-95805604D01*
X63121683Y-95553956D01*
X63147459Y-95292250D01*
X63121683Y-95030544D01*
X63045347Y-94778896D01*
X62921382Y-94546975D01*
X62754555Y-94343695D01*
X62569561Y-94191875D01*
X62754555Y-94040055D01*
X62921382Y-93836775D01*
X63045347Y-93604854D01*
X63121683Y-93353206D01*
X63147459Y-93091500D01*
X63121683Y-92829794D01*
X63045347Y-92578146D01*
X62921382Y-92346225D01*
X62754555Y-92142945D01*
X62569561Y-91991125D01*
X62754555Y-91839305D01*
X62921382Y-91636025D01*
X63045347Y-91404104D01*
X63121683Y-91152456D01*
X63147459Y-90890750D01*
X63121683Y-90629044D01*
X63045347Y-90377396D01*
X62921382Y-90145475D01*
X62754555Y-89942195D01*
X62569561Y-89790375D01*
X62754555Y-89638555D01*
X62921382Y-89435275D01*
X63045347Y-89203354D01*
X63121683Y-88951706D01*
X63147459Y-88690000D01*
X63121683Y-88428294D01*
X63045347Y-88176646D01*
X62921382Y-87944725D01*
X62754555Y-87741445D01*
X62551275Y-87574618D01*
X62319354Y-87450653D01*
X62067706Y-87374317D01*
X61871579Y-87355000D01*
X61740421Y-87355000D01*
X61544294Y-87374317D01*
X61292646Y-87450653D01*
X61060725Y-87574618D01*
X60857445Y-87741445D01*
X60690618Y-87944725D01*
X60625000Y-88067487D01*
X60625000Y-84616720D01*
X60648453Y-84588143D01*
X60832774Y-84243302D01*
X60946278Y-83869127D01*
X60975000Y-83577509D01*
X60975000Y-82782490D01*
X60946278Y-82490872D01*
X60832774Y-82116698D01*
X60648453Y-81771857D01*
X60400398Y-81469602D01*
X60098143Y-81221547D01*
X59753301Y-81037226D01*
X59379127Y-80923722D01*
X58990000Y-80885396D01*
X58600872Y-80923722D01*
X58226698Y-81037226D01*
X57881857Y-81221547D01*
X57579602Y-81469602D01*
X57331547Y-81771857D01*
X57147226Y-82116699D01*
X57033722Y-82490873D01*
X57005000Y-82782491D01*
X50660000Y-82782491D01*
X50660000Y-80998655D01*
X50781000Y-81010572D01*
X52581000Y-81010572D01*
X52705482Y-80998312D01*
X52825180Y-80962002D01*
X52935494Y-80903037D01*
X53032185Y-80823685D01*
X53111537Y-80726994D01*
X53170502Y-80616680D01*
X53176056Y-80598373D01*
X53242495Y-80664812D01*
X53493905Y-80832799D01*
X53773257Y-80948511D01*
X54069816Y-81007500D01*
X54372184Y-81007500D01*
X54668743Y-80948511D01*
X54948095Y-80832799D01*
X55199505Y-80664812D01*
X55413312Y-80451005D01*
X55581299Y-80199595D01*
X55697011Y-79920243D01*
X55756000Y-79623684D01*
X55756000Y-79321316D01*
X55697011Y-79024757D01*
X55581299Y-78745405D01*
X55413312Y-78493995D01*
X55199505Y-78280188D01*
X54948095Y-78112201D01*
X54668743Y-77996489D01*
X54372184Y-77937500D01*
X54069816Y-77937500D01*
X53773257Y-77996489D01*
X53493905Y-78112201D01*
X53242495Y-78280188D01*
X53176056Y-78346627D01*
X53170502Y-78328320D01*
X53111537Y-78218006D01*
X53032185Y-78121315D01*
X52935494Y-78041963D01*
X52825180Y-77982998D01*
X52705482Y-77946688D01*
X52581000Y-77934428D01*
X50781000Y-77934428D01*
X50660000Y-77946345D01*
X50660000Y-74032279D01*
X50682334Y-73804495D01*
X51015000Y-73804495D01*
X51015000Y-74195505D01*
X51091282Y-74579003D01*
X51240915Y-74940250D01*
X51458149Y-75265364D01*
X51734636Y-75541851D01*
X52059750Y-75759085D01*
X52420997Y-75908718D01*
X52804495Y-75985000D01*
X53195505Y-75985000D01*
X53579003Y-75908718D01*
X53940250Y-75759085D01*
X54265364Y-75541851D01*
X54541851Y-75265364D01*
X54759085Y-74940250D01*
X54908718Y-74579003D01*
X54985000Y-74195505D01*
X54985000Y-73804495D01*
X54973066Y-73744495D01*
X104975000Y-73744495D01*
X104975000Y-74135505D01*
X105051282Y-74519003D01*
X105200915Y-74880250D01*
X105418149Y-75205364D01*
X105694636Y-75481851D01*
X106019750Y-75699085D01*
X106380997Y-75848718D01*
X106764495Y-75925000D01*
X107155505Y-75925000D01*
X107539003Y-75848718D01*
X107900250Y-75699085D01*
X108225364Y-75481851D01*
X108501851Y-75205364D01*
X108719085Y-74880250D01*
X108868718Y-74519003D01*
X108945000Y-74135505D01*
X108945000Y-73744495D01*
X108868718Y-73360997D01*
X108719085Y-72999750D01*
X108501851Y-72674636D01*
X108225364Y-72398149D01*
X107900250Y-72180915D01*
X107539003Y-72031282D01*
X107155505Y-71955000D01*
X106764495Y-71955000D01*
X106380997Y-72031282D01*
X106019750Y-72180915D01*
X105694636Y-72398149D01*
X105418149Y-72674636D01*
X105200915Y-72999750D01*
X105051282Y-73360997D01*
X104975000Y-73744495D01*
X54973066Y-73744495D01*
X54908718Y-73420997D01*
X54759085Y-73059750D01*
X54541851Y-72734636D01*
X54265364Y-72458149D01*
X53940250Y-72240915D01*
X53579003Y-72091282D01*
X53195505Y-72015000D01*
X52804495Y-72015000D01*
X52420997Y-72091282D01*
X52059750Y-72240915D01*
X51734636Y-72458149D01*
X51458149Y-72734636D01*
X51240915Y-73059750D01*
X51091282Y-73420997D01*
X51015000Y-73804495D01*
X50682334Y-73804495D01*
X50707670Y-73546107D01*
X50839489Y-73109502D01*
X51053600Y-72706815D01*
X51341848Y-72353388D01*
X51693261Y-72062673D01*
X52094439Y-71845758D01*
X52530113Y-71710894D01*
X53014344Y-71660000D01*
X106967721Y-71660000D01*
X107453893Y-71707670D01*
X107453893Y-71707670D01*
G37*
X107453893Y-71707670D02*
X107890498Y-71839489D01*
X108293185Y-72053600D01*
X108646612Y-72341848D01*
X108937327Y-72693261D01*
X109154242Y-73094439D01*
X109289106Y-73530113D01*
X109340000Y-74014344D01*
X109340000Y-78122025D01*
X109191013Y-77973038D01*
X108972359Y-77826939D01*
X108729405Y-77726304D01*
X108471486Y-77675000D01*
X108208514Y-77675000D01*
X107950595Y-77726304D01*
X107707641Y-77826939D01*
X107488987Y-77973038D01*
X107303038Y-78158987D01*
X107283097Y-78188831D01*
X107178555Y-78061445D01*
X106975275Y-77894618D01*
X106743354Y-77770653D01*
X106491706Y-77694317D01*
X106295579Y-77675000D01*
X106164421Y-77675000D01*
X105968294Y-77694317D01*
X105716646Y-77770653D01*
X105484725Y-77894618D01*
X105281445Y-78061445D01*
X105114618Y-78264725D01*
X104990653Y-78496646D01*
X104914317Y-78748294D01*
X104888541Y-79010000D01*
X104914317Y-79271706D01*
X104990653Y-79523354D01*
X105114618Y-79755275D01*
X105246063Y-79915441D01*
X105199320Y-79877081D01*
X102975000Y-77652762D01*
X102975000Y-77282490D01*
X102946278Y-76990872D01*
X102832774Y-76616698D01*
X102648453Y-76271857D01*
X102400398Y-75969602D01*
X102098143Y-75721547D01*
X101753301Y-75537226D01*
X101379127Y-75423722D01*
X100990000Y-75385396D01*
X100600872Y-75423722D01*
X100226698Y-75537226D01*
X99881857Y-75721547D01*
X99579602Y-75969602D01*
X99331547Y-76271857D01*
X99147226Y-76616699D01*
X99033722Y-76990873D01*
X99005000Y-77282491D01*
X99005000Y-78077510D01*
X99033722Y-78369128D01*
X99147226Y-78743302D01*
X99331547Y-79088143D01*
X99579603Y-79390398D01*
X99881858Y-79638453D01*
X100226699Y-79822774D01*
X100600873Y-79936278D01*
X100637663Y-79939902D01*
X101727013Y-81029252D01*
X101379127Y-80923722D01*
X100990000Y-80885396D01*
X100600872Y-80923722D01*
X100226698Y-81037226D01*
X99881857Y-81221547D01*
X99579602Y-81469602D01*
X99331547Y-81771857D01*
X99147226Y-82116699D01*
X99033722Y-82490873D01*
X99005000Y-82782491D01*
X99005000Y-82852761D01*
X98775000Y-83082762D01*
X98775000Y-82782490D01*
X98746278Y-82490872D01*
X98632774Y-82116698D01*
X98448453Y-81771857D01*
X98200398Y-81469602D01*
X97898143Y-81221547D01*
X97553301Y-81037226D01*
X97179127Y-80923722D01*
X96790000Y-80885396D01*
X96400872Y-80923722D01*
X96026698Y-81037226D01*
X95681857Y-81221547D01*
X95379602Y-81469602D01*
X95131547Y-81771857D01*
X94947226Y-82116699D01*
X94833722Y-82490873D01*
X94805000Y-82782491D01*
X94805000Y-83577510D01*
X94833722Y-83869128D01*
X94947226Y-84243302D01*
X95131547Y-84588143D01*
X95379603Y-84890398D01*
X95681858Y-85138453D01*
X96026699Y-85322774D01*
X96400873Y-85436278D01*
X96790000Y-85474604D01*
X97179128Y-85436278D01*
X97275001Y-85407195D01*
X97275000Y-96689869D01*
X94030213Y-93445082D01*
X94026020Y-93437237D01*
X93872905Y-93250666D01*
X88022925Y-87400687D01*
X87971714Y-87338286D01*
X87722752Y-87133969D01*
X87438715Y-86982148D01*
X87130516Y-86888657D01*
X86890322Y-86865000D01*
X86890319Y-86865000D01*
X86810000Y-86857089D01*
X86729681Y-86865000D01*
X81487239Y-86865000D01*
X80087238Y-85465000D01*
X80563002Y-85465000D01*
X80563002Y-85214030D01*
X80853249Y-85267464D01*
X80912502Y-85214170D01*
X81233096Y-85000877D01*
X81505919Y-84729138D01*
X81720486Y-84409395D01*
X81868551Y-84053936D01*
X82311449Y-84053936D01*
X82459514Y-84409395D01*
X82674081Y-84729138D01*
X82946904Y-85000877D01*
X83267498Y-85214170D01*
X83326751Y-85267464D01*
X83617000Y-85214030D01*
X83617000Y-83753000D01*
X84763000Y-83753000D01*
X84763000Y-85214030D01*
X85053249Y-85267464D01*
X85112502Y-85214170D01*
X85433096Y-85000877D01*
X85705919Y-84729138D01*
X85920486Y-84409395D01*
X86068551Y-84053936D01*
X86511449Y-84053936D01*
X86659514Y-84409395D01*
X86874081Y-84729138D01*
X87146904Y-85000877D01*
X87467498Y-85214170D01*
X87526751Y-85267464D01*
X87817000Y-85214030D01*
X87817000Y-83753000D01*
X88963000Y-83753000D01*
X88963000Y-85214030D01*
X89253249Y-85267464D01*
X89312502Y-85214170D01*
X89633096Y-85000877D01*
X89905919Y-84729138D01*
X90120486Y-84409395D01*
X90268551Y-84053936D01*
X90711449Y-84053936D01*
X90859514Y-84409395D01*
X91074081Y-84729138D01*
X91346904Y-85000877D01*
X91667498Y-85214170D01*
X91726751Y-85267464D01*
X92017000Y-85214030D01*
X92017000Y-83753000D01*
X93163000Y-83753000D01*
X93163000Y-85214030D01*
X93453249Y-85267464D01*
X93512502Y-85214170D01*
X93833096Y-85000877D01*
X94105919Y-84729138D01*
X94320486Y-84409395D01*
X94468551Y-84053936D01*
X94376456Y-83753000D01*
X93163000Y-83753000D01*
X92017000Y-83753000D01*
X90803544Y-83753000D01*
X90711449Y-84053936D01*
X90268551Y-84053936D01*
X90176456Y-83753000D01*
X88963000Y-83753000D01*
X87817000Y-83753000D01*
X86603544Y-83753000D01*
X86511449Y-84053936D01*
X86068551Y-84053936D01*
X85976456Y-83753000D01*
X84763000Y-83753000D01*
X83617000Y-83753000D01*
X82403544Y-83753000D01*
X82311449Y-84053936D01*
X81868551Y-84053936D01*
X81776456Y-83753000D01*
X80563000Y-83753000D01*
X80563000Y-83773000D01*
X79417000Y-83773000D01*
X79417000Y-83753000D01*
X78375238Y-83753000D01*
X77775000Y-83152762D01*
X77775000Y-82782490D01*
X77746278Y-82490872D01*
X77690218Y-82306064D01*
X78111449Y-82306064D01*
X78203544Y-82607000D01*
X79417000Y-82607000D01*
X79417000Y-81145970D01*
X80563000Y-81145970D01*
X80563000Y-82607000D01*
X81776456Y-82607000D01*
X81868551Y-82306064D01*
X82311449Y-82306064D01*
X82403544Y-82607000D01*
X83617000Y-82607000D01*
X83617000Y-81145970D01*
X84763000Y-81145970D01*
X84763000Y-82607000D01*
X85976456Y-82607000D01*
X86068551Y-82306064D01*
X86511449Y-82306064D01*
X86603544Y-82607000D01*
X87817000Y-82607000D01*
X87817000Y-81145970D01*
X88963000Y-81145970D01*
X88963000Y-82607000D01*
X90176456Y-82607000D01*
X90268551Y-82306064D01*
X90711449Y-82306064D01*
X90803544Y-82607000D01*
X92017000Y-82607000D01*
X92017000Y-81145970D01*
X93163000Y-81145970D01*
X93163000Y-82607000D01*
X94376456Y-82607000D01*
X94468551Y-82306064D01*
X94320486Y-81950605D01*
X94105919Y-81630862D01*
X93833096Y-81359123D01*
X93512502Y-81145830D01*
X93453249Y-81092536D01*
X93163000Y-81145970D01*
X92017000Y-81145970D01*
X91726751Y-81092536D01*
X91667498Y-81145830D01*
X91346904Y-81359123D01*
X91074081Y-81630862D01*
X90859514Y-81950605D01*
X90711449Y-82306064D01*
X90268551Y-82306064D01*
X90120486Y-81950605D01*
X89905919Y-81630862D01*
X89633096Y-81359123D01*
X89312502Y-81145830D01*
X89253249Y-81092536D01*
X88963000Y-81145970D01*
X87817000Y-81145970D01*
X87526751Y-81092536D01*
X87467498Y-81145830D01*
X87146904Y-81359123D01*
X86874081Y-81630862D01*
X86659514Y-81950605D01*
X86511449Y-82306064D01*
X86068551Y-82306064D01*
X85920486Y-81950605D01*
X85705919Y-81630862D01*
X85433096Y-81359123D01*
X85112502Y-81145830D01*
X85053249Y-81092536D01*
X84763000Y-81145970D01*
X83617000Y-81145970D01*
X83326751Y-81092536D01*
X83267498Y-81145830D01*
X82946904Y-81359123D01*
X82674081Y-81630862D01*
X82459514Y-81950605D01*
X82311449Y-82306064D01*
X81868551Y-82306064D01*
X81720486Y-81950605D01*
X81505919Y-81630862D01*
X81233096Y-81359123D01*
X80912502Y-81145830D01*
X80853249Y-81092536D01*
X80563000Y-81145970D01*
X79417000Y-81145970D01*
X79126751Y-81092536D01*
X79067498Y-81145830D01*
X78746904Y-81359123D01*
X78474081Y-81630862D01*
X78259514Y-81950605D01*
X78111449Y-82306064D01*
X77690218Y-82306064D01*
X77632774Y-82116698D01*
X77448453Y-81771857D01*
X77200398Y-81469602D01*
X76898143Y-81221547D01*
X76553301Y-81037226D01*
X76179127Y-80923722D01*
X75790000Y-80885396D01*
X75400872Y-80923722D01*
X75026698Y-81037226D01*
X74681857Y-81221547D01*
X74379602Y-81469602D01*
X74317724Y-81545000D01*
X73225000Y-81545000D01*
X73225000Y-79116720D01*
X73248453Y-79088143D01*
X73432774Y-78743302D01*
X73490217Y-78553936D01*
X73911449Y-78553936D01*
X74059514Y-78909395D01*
X74274081Y-79229138D01*
X74546904Y-79500877D01*
X74867498Y-79714170D01*
X74926751Y-79767464D01*
X75217000Y-79714030D01*
X75217000Y-78253000D01*
X76363000Y-78253000D01*
X76363000Y-79714030D01*
X76653249Y-79767464D01*
X76712502Y-79714170D01*
X77033096Y-79500877D01*
X77305919Y-79229138D01*
X77520486Y-78909395D01*
X77668551Y-78553936D01*
X78111449Y-78553936D01*
X78259514Y-78909395D01*
X78474081Y-79229138D01*
X78746904Y-79500877D01*
X79067498Y-79714170D01*
X79126751Y-79767464D01*
X79417000Y-79714030D01*
X79417000Y-78253000D01*
X80563000Y-78253000D01*
X80563000Y-79714030D01*
X80853249Y-79767464D01*
X80912502Y-79714170D01*
X81233096Y-79500877D01*
X81505919Y-79229138D01*
X81720486Y-78909395D01*
X81868551Y-78553936D01*
X82311449Y-78553936D01*
X82459514Y-78909395D01*
X82674081Y-79229138D01*
X82946904Y-79500877D01*
X83267498Y-79714170D01*
X83326751Y-79767464D01*
X83617000Y-79714030D01*
X83617000Y-78253000D01*
X84763000Y-78253000D01*
X84763000Y-79714030D01*
X85053249Y-79767464D01*
X85112502Y-79714170D01*
X85433096Y-79500877D01*
X85705919Y-79229138D01*
X85920486Y-78909395D01*
X86068551Y-78553936D01*
X86511449Y-78553936D01*
X86659514Y-78909395D01*
X86874081Y-79229138D01*
X87146904Y-79500877D01*
X87467498Y-79714170D01*
X87526751Y-79767464D01*
X87817000Y-79714030D01*
X87817000Y-78253000D01*
X88963000Y-78253000D01*
X88963000Y-79714030D01*
X89253249Y-79767464D01*
X89312502Y-79714170D01*
X89633096Y-79500877D01*
X89905919Y-79229138D01*
X90120486Y-78909395D01*
X90268551Y-78553936D01*
X90711449Y-78553936D01*
X90859514Y-78909395D01*
X91074081Y-79229138D01*
X91346904Y-79500877D01*
X91667498Y-79714170D01*
X91726751Y-79767464D01*
X92017000Y-79714030D01*
X92017000Y-78253000D01*
X93163000Y-78253000D01*
X93163000Y-79714030D01*
X93453249Y-79767464D01*
X93512502Y-79714170D01*
X93833096Y-79500877D01*
X94105919Y-79229138D01*
X94320486Y-78909395D01*
X94468551Y-78553936D01*
X94376456Y-78253000D01*
X93163000Y-78253000D01*
X92017000Y-78253000D01*
X90803544Y-78253000D01*
X90711449Y-78553936D01*
X90268551Y-78553936D01*
X90176456Y-78253000D01*
X88963000Y-78253000D01*
X87817000Y-78253000D01*
X86603544Y-78253000D01*
X86511449Y-78553936D01*
X86068551Y-78553936D01*
X85976456Y-78253000D01*
X84763000Y-78253000D01*
X83617000Y-78253000D01*
X82403544Y-78253000D01*
X82311449Y-78553936D01*
X81868551Y-78553936D01*
X81776456Y-78253000D01*
X80563000Y-78253000D01*
X79417000Y-78253000D01*
X78203544Y-78253000D01*
X78111449Y-78553936D01*
X77668551Y-78553936D01*
X77576456Y-78253000D01*
X76363000Y-78253000D01*
X75217000Y-78253000D01*
X74003544Y-78253000D01*
X73911449Y-78553936D01*
X73490217Y-78553936D01*
X73546278Y-78369127D01*
X73575000Y-78077509D01*
X73575000Y-77282491D01*
X94805000Y-77282491D01*
X94805000Y-78077510D01*
X94833722Y-78369128D01*
X94947226Y-78743302D01*
X95131547Y-79088143D01*
X95379603Y-79390398D01*
X95681858Y-79638453D01*
X96026699Y-79822774D01*
X96400873Y-79936278D01*
X96790000Y-79974604D01*
X97179128Y-79936278D01*
X97553302Y-79822774D01*
X97898143Y-79638453D01*
X98200398Y-79390398D01*
X98448453Y-79088143D01*
X98632774Y-78743302D01*
X98746278Y-78369127D01*
X98775000Y-78077509D01*
X98775000Y-77282490D01*
X98746278Y-76990872D01*
X98632774Y-76616698D01*
X98448453Y-76271857D01*
X98200398Y-75969602D01*
X97898143Y-75721547D01*
X97553301Y-75537226D01*
X97179127Y-75423722D01*
X96790000Y-75385396D01*
X96400872Y-75423722D01*
X96026698Y-75537226D01*
X95681857Y-75721547D01*
X95379602Y-75969602D01*
X95131547Y-76271857D01*
X94947226Y-76616699D01*
X94833722Y-76990873D01*
X94805000Y-77282491D01*
X73575000Y-77282491D01*
X73575000Y-77282490D01*
X73546278Y-76990872D01*
X73490218Y-76806064D01*
X73911449Y-76806064D01*
X74003544Y-77107000D01*
X75217000Y-77107000D01*
X75217000Y-75645970D01*
X76363000Y-75645970D01*
X76363000Y-77107000D01*
X77576456Y-77107000D01*
X77668551Y-76806064D01*
X78111449Y-76806064D01*
X78203544Y-77107000D01*
X79417000Y-77107000D01*
X79417000Y-75645970D01*
X80563000Y-75645970D01*
X80563000Y-77107000D01*
X81776456Y-77107000D01*
X81868551Y-76806064D01*
X82311449Y-76806064D01*
X82403544Y-77107000D01*
X83617000Y-77107000D01*
X83617000Y-75645970D01*
X84763000Y-75645970D01*
X84763000Y-77107000D01*
X85976456Y-77107000D01*
X86068551Y-76806064D01*
X86511449Y-76806064D01*
X86603544Y-77107000D01*
X87817000Y-77107000D01*
X87817000Y-75645970D01*
X88963000Y-75645970D01*
X88963000Y-77107000D01*
X90176456Y-77107000D01*
X90268551Y-76806064D01*
X90711449Y-76806064D01*
X90803544Y-77107000D01*
X92017000Y-77107000D01*
X92017000Y-75645970D01*
X93163000Y-75645970D01*
X93163000Y-77107000D01*
X94376456Y-77107000D01*
X94468551Y-76806064D01*
X94320486Y-76450605D01*
X94105919Y-76130862D01*
X93833096Y-75859123D01*
X93512502Y-75645830D01*
X93453249Y-75592536D01*
X93163000Y-75645970D01*
X92017000Y-75645970D01*
X91726751Y-75592536D01*
X91667498Y-75645830D01*
X91346904Y-75859123D01*
X91074081Y-76130862D01*
X90859514Y-76450605D01*
X90711449Y-76806064D01*
X90268551Y-76806064D01*
X90120486Y-76450605D01*
X89905919Y-76130862D01*
X89633096Y-75859123D01*
X89312502Y-75645830D01*
X89253249Y-75592536D01*
X88963000Y-75645970D01*
X87817000Y-75645970D01*
X87526751Y-75592536D01*
X87467498Y-75645830D01*
X87146904Y-75859123D01*
X86874081Y-76130862D01*
X86659514Y-76450605D01*
X86511449Y-76806064D01*
X86068551Y-76806064D01*
X85920486Y-76450605D01*
X85705919Y-76130862D01*
X85433096Y-75859123D01*
X85112502Y-75645830D01*
X85053249Y-75592536D01*
X84763000Y-75645970D01*
X83617000Y-75645970D01*
X83326751Y-75592536D01*
X83267498Y-75645830D01*
X82946904Y-75859123D01*
X82674081Y-76130862D01*
X82459514Y-76450605D01*
X82311449Y-76806064D01*
X81868551Y-76806064D01*
X81720486Y-76450605D01*
X81505919Y-76130862D01*
X81233096Y-75859123D01*
X80912502Y-75645830D01*
X80853249Y-75592536D01*
X80563000Y-75645970D01*
X79417000Y-75645970D01*
X79126751Y-75592536D01*
X79067498Y-75645830D01*
X78746904Y-75859123D01*
X78474081Y-76130862D01*
X78259514Y-76450605D01*
X78111449Y-76806064D01*
X77668551Y-76806064D01*
X77520486Y-76450605D01*
X77305919Y-76130862D01*
X77033096Y-75859123D01*
X76712502Y-75645830D01*
X76653249Y-75592536D01*
X76363000Y-75645970D01*
X75217000Y-75645970D01*
X74926751Y-75592536D01*
X74867498Y-75645830D01*
X74546904Y-75859123D01*
X74274081Y-76130862D01*
X74059514Y-76450605D01*
X73911449Y-76806064D01*
X73490218Y-76806064D01*
X73432774Y-76616698D01*
X73248453Y-76271857D01*
X73000398Y-75969602D01*
X72698143Y-75721547D01*
X72353301Y-75537226D01*
X71979127Y-75423722D01*
X71590000Y-75385396D01*
X71200872Y-75423722D01*
X70826698Y-75537226D01*
X70481857Y-75721547D01*
X70179602Y-75969602D01*
X70117724Y-76045000D01*
X68862276Y-76045000D01*
X68800398Y-75969602D01*
X68498143Y-75721547D01*
X68153301Y-75537226D01*
X67779127Y-75423722D01*
X67390000Y-75385396D01*
X67000872Y-75423722D01*
X66626698Y-75537226D01*
X66281857Y-75721547D01*
X65979602Y-75969602D01*
X65917724Y-76045000D01*
X64662276Y-76045000D01*
X64600398Y-75969602D01*
X64298143Y-75721547D01*
X63953301Y-75537226D01*
X63579127Y-75423722D01*
X63190000Y-75385396D01*
X62800872Y-75423722D01*
X62426698Y-75537226D01*
X62081857Y-75721547D01*
X61779602Y-75969602D01*
X61717724Y-76045000D01*
X60942277Y-76045000D01*
X60910471Y-75940150D01*
X60828405Y-75786614D01*
X60717961Y-75652039D01*
X60583386Y-75541595D01*
X60429850Y-75459529D01*
X60263253Y-75408992D01*
X60089999Y-75391928D01*
X57890001Y-75391928D01*
X57716747Y-75408992D01*
X57550150Y-75459529D01*
X57396614Y-75541595D01*
X57262039Y-75652039D01*
X57151595Y-75786614D01*
X57069529Y-75940150D01*
X57018992Y-76106747D01*
X57001928Y-76280001D01*
X57001928Y-79079999D01*
X57018992Y-79253253D01*
X57069529Y-79419850D01*
X57151595Y-79573386D01*
X57262039Y-79707961D01*
X57396614Y-79818405D01*
X57550150Y-79900471D01*
X57716747Y-79951008D01*
X57890001Y-79968072D01*
X60089999Y-79968072D01*
X60263253Y-79951008D01*
X60429850Y-79900471D01*
X60583386Y-79818405D01*
X60717961Y-79707961D01*
X60828405Y-79573386D01*
X60910471Y-79419850D01*
X60942277Y-79315000D01*
X61555000Y-79315000D01*
X61555001Y-81743279D01*
X61531547Y-81771857D01*
X61347226Y-82116699D01*
X61233722Y-82490873D01*
X61205000Y-82782491D01*
X61205000Y-83577510D01*
X61233722Y-83869128D01*
X61347226Y-84243302D01*
X61531547Y-84588143D01*
X61779603Y-84890398D01*
X62081858Y-85138453D01*
X62426699Y-85322774D01*
X62800873Y-85436278D01*
X63190000Y-85474604D01*
X63579128Y-85436278D01*
X63953302Y-85322774D01*
X64298143Y-85138453D01*
X64600398Y-84890398D01*
X64662276Y-84815000D01*
X65755001Y-84815000D01*
X65755000Y-86910321D01*
X65755001Y-86910331D01*
X65755000Y-89810321D01*
X65755001Y-89810331D01*
X65755000Y-98939680D01*
X65747089Y-99020000D01*
X65755000Y-99100319D01*
X65755000Y-99100321D01*
X65778657Y-99340515D01*
X65872148Y-99648714D01*
X66023969Y-99932751D01*
X66228286Y-100181714D01*
X66290687Y-100232925D01*
X67875001Y-101817240D01*
X67875000Y-103353279D01*
X67851547Y-103381857D01*
X67667226Y-103726699D01*
X67553722Y-104100873D01*
X67525000Y-104392491D01*
X67525000Y-105187510D01*
X67553722Y-105479128D01*
X67667226Y-105853302D01*
X67851547Y-106198143D01*
X68099603Y-106500398D01*
X68401858Y-106748453D01*
X68746699Y-106932774D01*
X69120873Y-107046278D01*
X69510000Y-107084604D01*
X69899128Y-107046278D01*
X70273302Y-106932774D01*
X70440001Y-106843672D01*
X70440001Y-107985197D01*
X70276345Y-108148853D01*
X70273301Y-108147226D01*
X69899127Y-108033722D01*
X69510000Y-107995396D01*
X69120872Y-108033722D01*
X68746698Y-108147226D01*
X68401857Y-108331547D01*
X68099602Y-108579602D01*
X67851547Y-108881857D01*
X67667226Y-109226699D01*
X67553722Y-109600873D01*
X67525000Y-109892491D01*
X67525000Y-110687510D01*
X67553722Y-110979128D01*
X67667226Y-111353302D01*
X67851547Y-111698143D01*
X68099603Y-112000398D01*
X68401858Y-112248453D01*
X68746699Y-112432774D01*
X69120873Y-112546278D01*
X69510000Y-112584604D01*
X69899128Y-112546278D01*
X70273302Y-112432774D01*
X70618143Y-112248453D01*
X70920398Y-112000398D01*
X71168453Y-111698143D01*
X71352774Y-111353302D01*
X71410217Y-111163936D01*
X71831449Y-111163936D01*
X71979514Y-111519395D01*
X72194081Y-111839138D01*
X72466904Y-112110877D01*
X72787498Y-112324170D01*
X72846751Y-112377464D01*
X73137000Y-112324030D01*
X73137000Y-110863000D01*
X74283000Y-110863000D01*
X74283000Y-112324030D01*
X74573249Y-112377464D01*
X74632502Y-112324170D01*
X74953096Y-112110877D01*
X75225919Y-111839138D01*
X75440486Y-111519395D01*
X75588551Y-111163936D01*
X76031449Y-111163936D01*
X76179514Y-111519395D01*
X76394081Y-111839138D01*
X76666904Y-112110877D01*
X76987498Y-112324170D01*
X77046751Y-112377464D01*
X77337000Y-112324030D01*
X77337000Y-110863000D01*
X78483000Y-110863000D01*
X78483000Y-112324030D01*
X78773249Y-112377464D01*
X78832502Y-112324170D01*
X79153096Y-112110877D01*
X79425919Y-111839138D01*
X79640486Y-111519395D01*
X79788551Y-111163936D01*
X80231449Y-111163936D01*
X80379514Y-111519395D01*
X80594081Y-111839138D01*
X80866904Y-112110877D01*
X81187498Y-112324170D01*
X81246751Y-112377464D01*
X81537000Y-112324030D01*
X81537000Y-110863000D01*
X82683000Y-110863000D01*
X82683000Y-112324030D01*
X82973249Y-112377464D01*
X83032502Y-112324170D01*
X83353096Y-112110877D01*
X83625919Y-111839138D01*
X83840486Y-111519395D01*
X83988551Y-111163936D01*
X83896456Y-110863000D01*
X82683000Y-110863000D01*
X81537000Y-110863000D01*
X80323544Y-110863000D01*
X80231449Y-111163936D01*
X79788551Y-111163936D01*
X79696456Y-110863000D01*
X78483000Y-110863000D01*
X77337000Y-110863000D01*
X76123544Y-110863000D01*
X76031449Y-111163936D01*
X75588551Y-111163936D01*
X75496456Y-110863000D01*
X74283000Y-110863000D01*
X73137000Y-110863000D01*
X71923544Y-110863000D01*
X71831449Y-111163936D01*
X71410217Y-111163936D01*
X71466278Y-110979127D01*
X71495000Y-110687509D01*
X71495000Y-109892491D01*
X84325000Y-109892491D01*
X84325000Y-110687510D01*
X84353722Y-110979128D01*
X84467226Y-111353302D01*
X84651547Y-111698143D01*
X84899603Y-112000398D01*
X85201858Y-112248453D01*
X85546699Y-112432774D01*
X85920873Y-112546278D01*
X86310000Y-112584604D01*
X86699128Y-112546278D01*
X87073302Y-112432774D01*
X87418143Y-112248453D01*
X87720398Y-112000398D01*
X87968453Y-111698143D01*
X88152774Y-111353302D01*
X88266278Y-110979127D01*
X88295000Y-110687509D01*
X88295000Y-109892490D01*
X88266278Y-109600872D01*
X88152774Y-109226698D01*
X87968453Y-108881857D01*
X87720398Y-108579602D01*
X87418143Y-108331547D01*
X87073301Y-108147226D01*
X86699127Y-108033722D01*
X86310000Y-107995396D01*
X85920872Y-108033722D01*
X85546698Y-108147226D01*
X85201857Y-108331547D01*
X84899602Y-108579602D01*
X84651547Y-108881857D01*
X84467226Y-109226699D01*
X84353722Y-109600873D01*
X84325000Y-109892491D01*
X71495000Y-109892491D01*
X71495000Y-109892490D01*
X71466278Y-109600872D01*
X71410218Y-109416064D01*
X71831449Y-109416064D01*
X71923544Y-109717000D01*
X73137000Y-109717000D01*
X73137000Y-108255970D01*
X74283000Y-108255970D01*
X74283000Y-109717000D01*
X75496456Y-109717000D01*
X75588551Y-109416064D01*
X76031449Y-109416064D01*
X76123544Y-109717000D01*
X77337000Y-109717000D01*
X77337000Y-108255970D01*
X78483000Y-108255970D01*
X78483000Y-109717000D01*
X79696456Y-109717000D01*
X79788551Y-109416064D01*
X80231449Y-109416064D01*
X80323544Y-109717000D01*
X81537000Y-109717000D01*
X81537000Y-108255970D01*
X82683000Y-108255970D01*
X82683000Y-109717000D01*
X83896456Y-109717000D01*
X83988551Y-109416064D01*
X83840486Y-109060605D01*
X83625919Y-108740862D01*
X83353096Y-108469123D01*
X83032502Y-108255830D01*
X82973249Y-108202536D01*
X82683000Y-108255970D01*
X81537000Y-108255970D01*
X81246751Y-108202536D01*
X81187498Y-108255830D01*
X80866904Y-108469123D01*
X80594081Y-108740862D01*
X80379514Y-109060605D01*
X80231449Y-109416064D01*
X79788551Y-109416064D01*
X79640486Y-109060605D01*
X79425919Y-108740862D01*
X79153096Y-108469123D01*
X78832502Y-108255830D01*
X78773249Y-108202536D01*
X78483000Y-108255970D01*
X77337000Y-108255970D01*
X77046751Y-108202536D01*
X76987498Y-108255830D01*
X76666904Y-108469123D01*
X76394081Y-108740862D01*
X76179514Y-109060605D01*
X76031449Y-109416064D01*
X75588551Y-109416064D01*
X75440486Y-109060605D01*
X75225919Y-108740862D01*
X74953096Y-108469123D01*
X74632502Y-108255830D01*
X74573249Y-108202536D01*
X74283000Y-108255970D01*
X73137000Y-108255970D01*
X72846751Y-108202536D01*
X72787498Y-108255830D01*
X72466904Y-108469123D01*
X72194081Y-108740862D01*
X71979514Y-109060605D01*
X71831449Y-109416064D01*
X71410218Y-109416064D01*
X71352774Y-109226698D01*
X71351147Y-109223655D01*
X71711003Y-108863799D01*
X71740001Y-108840001D01*
X71766332Y-108807917D01*
X71834974Y-108724277D01*
X71905546Y-108592247D01*
X71916625Y-108555723D01*
X71949003Y-108448986D01*
X71960000Y-108337333D01*
X71960000Y-108337323D01*
X71963676Y-108300000D01*
X71960000Y-108262677D01*
X71960000Y-105972548D01*
X71979514Y-106019395D01*
X72194081Y-106339138D01*
X72466904Y-106610877D01*
X72787498Y-106824170D01*
X72846751Y-106877464D01*
X73137000Y-106824030D01*
X73137000Y-105363000D01*
X74283000Y-105363000D01*
X74283000Y-106824030D01*
X74573249Y-106877464D01*
X74632502Y-106824170D01*
X74953096Y-106610877D01*
X75225919Y-106339138D01*
X75440486Y-106019395D01*
X75588551Y-105663936D01*
X75496456Y-105363000D01*
X74283000Y-105363000D01*
X73137000Y-105363000D01*
X73117000Y-105363000D01*
X73117000Y-104217000D01*
X73137000Y-104217000D01*
X73137000Y-102755970D01*
X72846751Y-102702536D01*
X72787498Y-102755830D01*
X72466904Y-102969123D01*
X72194081Y-103240862D01*
X71979514Y-103560605D01*
X71960000Y-103607452D01*
X71960000Y-87523711D01*
X72003937Y-87479774D01*
X72117205Y-87310256D01*
X72195226Y-87121898D01*
X72235000Y-86921939D01*
X72235000Y-86718061D01*
X72195226Y-86518102D01*
X72117205Y-86329744D01*
X72003937Y-86160226D01*
X71859774Y-86016063D01*
X71690256Y-85902795D01*
X71501898Y-85824774D01*
X71301939Y-85785000D01*
X71098061Y-85785000D01*
X70898102Y-85824774D01*
X70709744Y-85902795D01*
X70540226Y-86016063D01*
X70396063Y-86160226D01*
X70282795Y-86329744D01*
X70204774Y-86518102D01*
X70165000Y-86718061D01*
X70165000Y-86921939D01*
X70204774Y-87121898D01*
X70282795Y-87310256D01*
X70396063Y-87479774D01*
X70440000Y-87523711D01*
X70440000Y-88486344D01*
X70236344Y-88690000D01*
X70440000Y-88893656D01*
X70440000Y-90687094D01*
X70236344Y-90890750D01*
X70440000Y-91094406D01*
X70440000Y-92887844D01*
X70236344Y-93091500D01*
X70440000Y-93295156D01*
X70440000Y-95088594D01*
X70236344Y-95292250D01*
X70440000Y-95495906D01*
X70440000Y-97289344D01*
X70236344Y-97493000D01*
X70440001Y-97696657D01*
X70440001Y-99757762D01*
X69509638Y-98827400D01*
X69675372Y-98811076D01*
X69752426Y-98629770D01*
X69426000Y-98303344D01*
X69411858Y-98317487D01*
X69025000Y-97930629D01*
X69025000Y-97055371D01*
X69411858Y-96668514D01*
X69426000Y-96682656D01*
X69478987Y-96629669D01*
X69675372Y-96610326D01*
X69752426Y-96429020D01*
X69716031Y-96392625D01*
X69752426Y-96356230D01*
X69675372Y-96174924D01*
X69481024Y-96157618D01*
X69426000Y-96102594D01*
X69411858Y-96116737D01*
X69025000Y-95729879D01*
X69025000Y-94854621D01*
X69411858Y-94467764D01*
X69426000Y-94481906D01*
X69478987Y-94428919D01*
X69675372Y-94409576D01*
X69752426Y-94228270D01*
X69716031Y-94191875D01*
X69752426Y-94155480D01*
X69675372Y-93974174D01*
X69481024Y-93956868D01*
X69426000Y-93901844D01*
X69411858Y-93915987D01*
X69025000Y-93529129D01*
X69025000Y-92653871D01*
X69411858Y-92267014D01*
X69426000Y-92281156D01*
X69478987Y-92228169D01*
X69675372Y-92208826D01*
X69752426Y-92027520D01*
X69716031Y-91991125D01*
X69752426Y-91954730D01*
X69675372Y-91773424D01*
X69481024Y-91756118D01*
X69426000Y-91701094D01*
X69411858Y-91715237D01*
X69025000Y-91328379D01*
X69025000Y-90453121D01*
X69411858Y-90066264D01*
X69426000Y-90080406D01*
X69478987Y-90027419D01*
X69675372Y-90008076D01*
X69752426Y-89826770D01*
X69716031Y-89790375D01*
X69752426Y-89753980D01*
X69675372Y-89572674D01*
X69481024Y-89555368D01*
X69426000Y-89500344D01*
X69411858Y-89514487D01*
X69025000Y-89127629D01*
X69025000Y-88252371D01*
X69411858Y-87865514D01*
X69426000Y-87879656D01*
X69752426Y-87553230D01*
X69675372Y-87371924D01*
X69413436Y-87348600D01*
X69176628Y-87371924D01*
X69099575Y-87553228D01*
X69025000Y-87478653D01*
X69025000Y-84815000D01*
X70117725Y-84815000D01*
X70179603Y-84890398D01*
X70481858Y-85138453D01*
X70826699Y-85322774D01*
X71200873Y-85436278D01*
X71590000Y-85474604D01*
X71979128Y-85436278D01*
X72353302Y-85322774D01*
X72698143Y-85138453D01*
X73000398Y-84890398D01*
X73062276Y-84815000D01*
X74155001Y-84815000D01*
X74155000Y-102289681D01*
X74147089Y-102370000D01*
X74155000Y-102450319D01*
X74155000Y-102450321D01*
X74178657Y-102690515D01*
X74272148Y-102998714D01*
X74283000Y-103019017D01*
X74283000Y-104217000D01*
X75324762Y-104217000D01*
X75925000Y-104817239D01*
X75925000Y-105187510D01*
X75953722Y-105479128D01*
X76067226Y-105853302D01*
X76251547Y-106198143D01*
X76499603Y-106500398D01*
X76801858Y-106748453D01*
X77146699Y-106932774D01*
X77520873Y-107046278D01*
X77910000Y-107084604D01*
X78299128Y-107046278D01*
X78673302Y-106932774D01*
X79018143Y-106748453D01*
X79320398Y-106500398D01*
X79568453Y-106198143D01*
X79752774Y-105853302D01*
X79810217Y-105663936D01*
X80231449Y-105663936D01*
X80379514Y-106019395D01*
X80594081Y-106339138D01*
X80866904Y-106610877D01*
X81187498Y-106824170D01*
X81246751Y-106877464D01*
X81537000Y-106824030D01*
X81537000Y-105363000D01*
X82683000Y-105363000D01*
X82683000Y-106824030D01*
X82973249Y-106877464D01*
X83032502Y-106824170D01*
X83353096Y-106610877D01*
X83625919Y-106339138D01*
X83840486Y-106019395D01*
X83988551Y-105663936D01*
X83896456Y-105363000D01*
X82683000Y-105363000D01*
X81537000Y-105363000D01*
X80323544Y-105363000D01*
X80231449Y-105663936D01*
X79810217Y-105663936D01*
X79866278Y-105479127D01*
X79895000Y-105187509D01*
X79895000Y-104392491D01*
X84325000Y-104392491D01*
X84325000Y-105187510D01*
X84353722Y-105479128D01*
X84467226Y-105853302D01*
X84651547Y-106198143D01*
X84899603Y-106500398D01*
X85201858Y-106748453D01*
X85546699Y-106932774D01*
X85920873Y-107046278D01*
X86310000Y-107084604D01*
X86699128Y-107046278D01*
X87073302Y-106932774D01*
X87418143Y-106748453D01*
X87720398Y-106500398D01*
X87968453Y-106198143D01*
X88152774Y-105853302D01*
X88266278Y-105479127D01*
X88295000Y-105187509D01*
X88295000Y-104392490D01*
X88266278Y-104100872D01*
X88152774Y-103726698D01*
X87968453Y-103381857D01*
X87720398Y-103079602D01*
X87418143Y-102831547D01*
X87073301Y-102647226D01*
X86880000Y-102588589D01*
X86880000Y-97373711D01*
X86923937Y-97329774D01*
X87037205Y-97160256D01*
X87115226Y-96971898D01*
X87155000Y-96771939D01*
X87155000Y-96568061D01*
X87115226Y-96368102D01*
X87037205Y-96179744D01*
X86923937Y-96010226D01*
X86779774Y-95866063D01*
X86610256Y-95752795D01*
X86421898Y-95674774D01*
X86221939Y-95635000D01*
X86018061Y-95635000D01*
X85818102Y-95674774D01*
X85629744Y-95752795D01*
X85460226Y-95866063D01*
X85316063Y-96010226D01*
X85202795Y-96179744D01*
X85124774Y-96368102D01*
X85085000Y-96568061D01*
X85085000Y-96771939D01*
X85124774Y-96971898D01*
X85202795Y-97160256D01*
X85316063Y-97329774D01*
X85360000Y-97373711D01*
X85360001Y-102747018D01*
X85201857Y-102831547D01*
X84899602Y-103079602D01*
X84651547Y-103381857D01*
X84467226Y-103726699D01*
X84353722Y-104100873D01*
X84325000Y-104392491D01*
X79895000Y-104392491D01*
X79895000Y-104392490D01*
X79866278Y-104100872D01*
X79810218Y-103916064D01*
X80231449Y-103916064D01*
X80323544Y-104217000D01*
X81537000Y-104217000D01*
X81537000Y-102755970D01*
X82683000Y-102755970D01*
X82683000Y-104217000D01*
X83896456Y-104217000D01*
X83988551Y-103916064D01*
X83840486Y-103560605D01*
X83625919Y-103240862D01*
X83353096Y-102969123D01*
X83032502Y-102755830D01*
X82973249Y-102702536D01*
X82683000Y-102755970D01*
X81537000Y-102755970D01*
X81246751Y-102702536D01*
X81187498Y-102755830D01*
X80866904Y-102969123D01*
X80594081Y-103240862D01*
X80379514Y-103560605D01*
X80231449Y-103916064D01*
X79810218Y-103916064D01*
X79752774Y-103726698D01*
X79568453Y-103381857D01*
X79320398Y-103079602D01*
X79018143Y-102831547D01*
X78673301Y-102647226D01*
X78299127Y-102533722D01*
X78262337Y-102530098D01*
X77425000Y-101692762D01*
X77425000Y-87427239D01*
X79597080Y-89599319D01*
X79648286Y-89661714D01*
X79897248Y-89866031D01*
X80181285Y-90017852D01*
X80489484Y-90111343D01*
X80729678Y-90135000D01*
X80729680Y-90135000D01*
X80809999Y-90142911D01*
X80890319Y-90135000D01*
X86132762Y-90135000D01*
X91524991Y-95527230D01*
X91524990Y-102781756D01*
X91273301Y-102647226D01*
X90899127Y-102533722D01*
X90510000Y-102495396D01*
X90120872Y-102533722D01*
X89746698Y-102647226D01*
X89401857Y-102831547D01*
X89099602Y-103079602D01*
X88851547Y-103381857D01*
X88667226Y-103726699D01*
X88553722Y-104100873D01*
X88525000Y-104392491D01*
X88525000Y-105187510D01*
X88553722Y-105479128D01*
X88667226Y-105853302D01*
X88851547Y-106198143D01*
X89099603Y-106500398D01*
X89401858Y-106748453D01*
X89746699Y-106932774D01*
X90120873Y-107046278D01*
X90510000Y-107084604D01*
X90899128Y-107046278D01*
X91273302Y-106932774D01*
X91524990Y-106798244D01*
X91524990Y-108184239D01*
X91519499Y-108239990D01*
X91523536Y-108280979D01*
X91273301Y-108147226D01*
X90899127Y-108033722D01*
X90510000Y-107995396D01*
X90120872Y-108033722D01*
X89746698Y-108147226D01*
X89401857Y-108331547D01*
X89099602Y-108579602D01*
X88851547Y-108881857D01*
X88667226Y-109226699D01*
X88553722Y-109600873D01*
X88525000Y-109892491D01*
X88525000Y-110687510D01*
X88553722Y-110979128D01*
X88667226Y-111353302D01*
X88851547Y-111698143D01*
X89099603Y-112000398D01*
X89401858Y-112248453D01*
X89746699Y-112432774D01*
X90120873Y-112546278D01*
X90510000Y-112584604D01*
X90899128Y-112546278D01*
X91273302Y-112432774D01*
X91618143Y-112248453D01*
X91920398Y-112000398D01*
X91982276Y-111925000D01*
X93237725Y-111925000D01*
X93299603Y-112000398D01*
X93601858Y-112248453D01*
X93946699Y-112432774D01*
X94320873Y-112546278D01*
X94710000Y-112584604D01*
X95099128Y-112546278D01*
X95473302Y-112432774D01*
X95818143Y-112248453D01*
X96120398Y-112000398D01*
X96182276Y-111925000D01*
X97437725Y-111925000D01*
X97499603Y-112000398D01*
X97801858Y-112248453D01*
X98146699Y-112432774D01*
X98520873Y-112546278D01*
X98910000Y-112584604D01*
X99299128Y-112546278D01*
X99673302Y-112432774D01*
X100018143Y-112248453D01*
X100320398Y-112000398D01*
X100568453Y-111698143D01*
X100752774Y-111353302D01*
X100866278Y-110979127D01*
X100895000Y-110687509D01*
X100895000Y-109892490D01*
X100866278Y-109600872D01*
X100810218Y-109416064D01*
X101231449Y-109416064D01*
X101323544Y-109717000D01*
X102537000Y-109717000D01*
X102537000Y-108255970D01*
X102246751Y-108202536D01*
X102187498Y-108255830D01*
X101866904Y-108469123D01*
X101594081Y-108740862D01*
X101379514Y-109060605D01*
X101231449Y-109416064D01*
X100810218Y-109416064D01*
X100752774Y-109226698D01*
X100568453Y-108881857D01*
X100320398Y-108579602D01*
X100018143Y-108331547D01*
X99673301Y-108147226D01*
X99299127Y-108033722D01*
X98910000Y-107995396D01*
X98520872Y-108033722D01*
X98319837Y-108094705D01*
X97994990Y-107769859D01*
X97994990Y-106851684D01*
X98146699Y-106932774D01*
X98520873Y-107046278D01*
X98910000Y-107084604D01*
X99299128Y-107046278D01*
X99673302Y-106932774D01*
X100018143Y-106748453D01*
X100320398Y-106500398D01*
X100568453Y-106198143D01*
X100752774Y-105853302D01*
X100866278Y-105479127D01*
X100895000Y-105187509D01*
X100895000Y-104392490D01*
X100866278Y-104100872D01*
X100752774Y-103726698D01*
X100568453Y-103381857D01*
X100545000Y-103353280D01*
X100545000Y-100581004D01*
X100563970Y-100616494D01*
X100768287Y-100865456D01*
X100830682Y-100916662D01*
X102511311Y-102597292D01*
X102346698Y-102647226D01*
X102001857Y-102831547D01*
X101699602Y-103079602D01*
X101451547Y-103381857D01*
X101267226Y-103726699D01*
X101153722Y-104100873D01*
X101125000Y-104392491D01*
X101125000Y-105187510D01*
X101153722Y-105479128D01*
X101267226Y-105853302D01*
X101451547Y-106198143D01*
X101699603Y-106500398D01*
X102001858Y-106748453D01*
X102346699Y-106932774D01*
X102720873Y-107046278D01*
X103110000Y-107084604D01*
X103499128Y-107046278D01*
X103873302Y-106932774D01*
X104025010Y-106851684D01*
X104025011Y-108249092D01*
X103973249Y-108202536D01*
X103683000Y-108255970D01*
X103683000Y-109717000D01*
X103703000Y-109717000D01*
X103703000Y-110863000D01*
X103683000Y-110863000D01*
X103683000Y-110883000D01*
X102537000Y-110883000D01*
X102537000Y-110863000D01*
X101323544Y-110863000D01*
X101231449Y-111163936D01*
X101379514Y-111519395D01*
X101594081Y-111839138D01*
X101866904Y-112110877D01*
X102187498Y-112324170D01*
X102246751Y-112377464D01*
X102536998Y-112324030D01*
X102536998Y-112457021D01*
X101069020Y-113925000D01*
X66757239Y-113925000D01*
X65407238Y-112575000D01*
X65883002Y-112575000D01*
X65883002Y-112324030D01*
X66173249Y-112377464D01*
X66232502Y-112324170D01*
X66553096Y-112110877D01*
X66825919Y-111839138D01*
X67040486Y-111519395D01*
X67188551Y-111163936D01*
X67096456Y-110863000D01*
X65883000Y-110863000D01*
X65883000Y-110883000D01*
X64737000Y-110883000D01*
X64737000Y-110863000D01*
X63695238Y-110863000D01*
X63095000Y-110262762D01*
X63095000Y-109892490D01*
X63066278Y-109600872D01*
X63010218Y-109416064D01*
X63431449Y-109416064D01*
X63523544Y-109717000D01*
X64737000Y-109717000D01*
X64737000Y-108255970D01*
X65883000Y-108255970D01*
X65883000Y-109717000D01*
X67096456Y-109717000D01*
X67188551Y-109416064D01*
X67040486Y-109060605D01*
X66825919Y-108740862D01*
X66553096Y-108469123D01*
X66232502Y-108255830D01*
X66173249Y-108202536D01*
X65883000Y-108255970D01*
X64737000Y-108255970D01*
X64446751Y-108202536D01*
X64387498Y-108255830D01*
X64066904Y-108469123D01*
X63794081Y-108740862D01*
X63579514Y-109060605D01*
X63431449Y-109416064D01*
X63010218Y-109416064D01*
X62952774Y-109226698D01*
X62768453Y-108881857D01*
X62520398Y-108579602D01*
X62218143Y-108331547D01*
X61873301Y-108147226D01*
X61499127Y-108033722D01*
X61110000Y-107995396D01*
X60720872Y-108033722D01*
X60346698Y-108147226D01*
X60001857Y-108331547D01*
X59699602Y-108579602D01*
X59451547Y-108881857D01*
X59267226Y-109226699D01*
X59153722Y-109600873D01*
X59125000Y-109892491D01*
X59125000Y-110687510D01*
X59153722Y-110979128D01*
X59267226Y-111353302D01*
X59451547Y-111698143D01*
X59699603Y-112000398D01*
X60001858Y-112248453D01*
X60346699Y-112432774D01*
X60720873Y-112546278D01*
X60757663Y-112549902D01*
X64867080Y-116659319D01*
X64918286Y-116721714D01*
X65167248Y-116926031D01*
X65451285Y-117077852D01*
X65759484Y-117171343D01*
X65999678Y-117195000D01*
X65999680Y-117195000D01*
X66079999Y-117202911D01*
X66160319Y-117195000D01*
X101665939Y-117195000D01*
X101746258Y-117202911D01*
X101826577Y-117195000D01*
X101826580Y-117195000D01*
X102066774Y-117171343D01*
X102374973Y-117077852D01*
X102659010Y-116926031D01*
X102807102Y-116804495D01*
X105015000Y-116804495D01*
X105015000Y-117195505D01*
X105091282Y-117579003D01*
X105240915Y-117940250D01*
X105458149Y-118265364D01*
X105734636Y-118541851D01*
X106059750Y-118759085D01*
X106420997Y-118908718D01*
X106804495Y-118985000D01*
X107195505Y-118985000D01*
X107579003Y-118908718D01*
X107940250Y-118759085D01*
X108265364Y-118541851D01*
X108541851Y-118265364D01*
X108759085Y-117940250D01*
X108908718Y-117579003D01*
X108985000Y-117195505D01*
X108985000Y-116804495D01*
X108908718Y-116420997D01*
X108759085Y-116059750D01*
X108541851Y-115734636D01*
X108265364Y-115458149D01*
X107940250Y-115240915D01*
X107579003Y-115091282D01*
X107195505Y-115015000D01*
X106804495Y-115015000D01*
X106420997Y-115091282D01*
X106059750Y-115240915D01*
X105734636Y-115458149D01*
X105458149Y-115734636D01*
X105240915Y-116059750D01*
X105091282Y-116420997D01*
X105015000Y-116804495D01*
X102807102Y-116804495D01*
X102907972Y-116721714D01*
X102959183Y-116659313D01*
X106759329Y-112859168D01*
X106821724Y-112807962D01*
X107026041Y-112559000D01*
X107177862Y-112274963D01*
X107271353Y-111966764D01*
X107295010Y-111726570D01*
X107295010Y-111726568D01*
X107302921Y-111646249D01*
X107295010Y-111565929D01*
X107295010Y-103514074D01*
X107302921Y-103433752D01*
X107271353Y-103113235D01*
X107177862Y-102805037D01*
X107099190Y-102657852D01*
X107026041Y-102521000D01*
X106821724Y-102272038D01*
X106759335Y-102220837D01*
X103565000Y-99026504D01*
X103565000Y-97351093D01*
X107354932Y-97351093D01*
X107398415Y-97570399D01*
X107398820Y-97571736D01*
X107584109Y-97618390D01*
X107962498Y-97240000D01*
X107584109Y-96861610D01*
X107398820Y-96908264D01*
X107355069Y-97127517D01*
X107354932Y-97351093D01*
X103565000Y-97351093D01*
X103565000Y-94440000D01*
X105991928Y-94440000D01*
X106004188Y-94564482D01*
X106040498Y-94684180D01*
X106099463Y-94794494D01*
X106178815Y-94891185D01*
X106275506Y-94970537D01*
X106385820Y-95029502D01*
X106505518Y-95065812D01*
X106630000Y-95078072D01*
X106648250Y-95075000D01*
X106807000Y-94916250D01*
X106807000Y-94263000D01*
X106153750Y-94263000D01*
X105995000Y-94421750D01*
X105991928Y-94440000D01*
X103565000Y-94440000D01*
X103565000Y-92940000D01*
X105991928Y-92940000D01*
X105995000Y-92958250D01*
X106153750Y-93117000D01*
X106807000Y-93117000D01*
X106807000Y-92463750D01*
X106648250Y-92305000D01*
X106630000Y-92301928D01*
X106505518Y-92314188D01*
X106385820Y-92350498D01*
X106275506Y-92409463D01*
X106178815Y-92488815D01*
X106099463Y-92585506D01*
X106040498Y-92695820D01*
X106004188Y-92815518D01*
X105991928Y-92940000D01*
X103565000Y-92940000D01*
X103565000Y-91691056D01*
X103612629Y-91806043D01*
X103764201Y-92032886D01*
X103957114Y-92225799D01*
X104183957Y-92377371D01*
X104436011Y-92481775D01*
X104703589Y-92535000D01*
X104976411Y-92535000D01*
X105243989Y-92481775D01*
X105496043Y-92377371D01*
X105722886Y-92225799D01*
X105915799Y-92032886D01*
X105997909Y-91910000D01*
X108555002Y-91910000D01*
X108555002Y-92467327D01*
X108484494Y-92409463D01*
X108374180Y-92350498D01*
X108254482Y-92314188D01*
X108130000Y-92301928D01*
X108111750Y-92305000D01*
X107953000Y-92463750D01*
X107953000Y-93117000D01*
X107973000Y-93117000D01*
X107973000Y-94263000D01*
X107953000Y-94263000D01*
X107953000Y-94916250D01*
X108111750Y-95075000D01*
X108130000Y-95078072D01*
X108254482Y-95065812D01*
X108374180Y-95029502D01*
X108484494Y-94970537D01*
X108555002Y-94912673D01*
X108555002Y-96105040D01*
X108378907Y-96104932D01*
X108159601Y-96148415D01*
X108158264Y-96148820D01*
X108111610Y-96334109D01*
X108490000Y-96712498D01*
X108555002Y-96647497D01*
X108555002Y-97832503D01*
X108490000Y-97767502D01*
X108111610Y-98145891D01*
X108158264Y-98331180D01*
X108377517Y-98374931D01*
X108555002Y-98375040D01*
X108555001Y-99940250D01*
X108378212Y-99940250D01*
X108158933Y-99983867D01*
X107952376Y-100069426D01*
X107766480Y-100193638D01*
X107608388Y-100351730D01*
X107484176Y-100537626D01*
X107398617Y-100744183D01*
X107355000Y-100963462D01*
X107355000Y-101187038D01*
X107398617Y-101406317D01*
X107484176Y-101612874D01*
X107608388Y-101798770D01*
X107766480Y-101956862D01*
X107952376Y-102081074D01*
X108158933Y-102166633D01*
X108378212Y-102210250D01*
X108555001Y-102210250D01*
X108555001Y-103775500D01*
X108378212Y-103775500D01*
X108158933Y-103819117D01*
X107952376Y-103904676D01*
X107766480Y-104028888D01*
X107608388Y-104186980D01*
X107484176Y-104372876D01*
X107398617Y-104579433D01*
X107355000Y-104798712D01*
X107355000Y-105022288D01*
X107398617Y-105241567D01*
X107484176Y-105448124D01*
X107608388Y-105634020D01*
X107766480Y-105792112D01*
X107952376Y-105916324D01*
X108158933Y-106001883D01*
X108378212Y-106045500D01*
X108555001Y-106045500D01*
X108555001Y-107605947D01*
X108550198Y-107610750D01*
X108378212Y-107610750D01*
X108158933Y-107654367D01*
X107952376Y-107739926D01*
X107766480Y-107864138D01*
X107608388Y-108022230D01*
X107484176Y-108208126D01*
X107398617Y-108414683D01*
X107355000Y-108633962D01*
X107355000Y-108857538D01*
X107398617Y-109076817D01*
X107484176Y-109283374D01*
X107608388Y-109469270D01*
X107766480Y-109627362D01*
X107952376Y-109751574D01*
X108158933Y-109837133D01*
X108378212Y-109880750D01*
X108601788Y-109880750D01*
X108821067Y-109837133D01*
X109027624Y-109751574D01*
X109213520Y-109627362D01*
X109340001Y-109500881D01*
X109340001Y-111825869D01*
X109213520Y-111699388D01*
X109027624Y-111575176D01*
X108821067Y-111489617D01*
X108601788Y-111446000D01*
X108378212Y-111446000D01*
X108158933Y-111489617D01*
X107952376Y-111575176D01*
X107766480Y-111699388D01*
X107608388Y-111857480D01*
X107484176Y-112043376D01*
X107398617Y-112249933D01*
X107355000Y-112469212D01*
X107355000Y-112692788D01*
X107398617Y-112912067D01*
X107484176Y-113118624D01*
X107608388Y-113304520D01*
X107766480Y-113462612D01*
X107952376Y-113586824D01*
X108158933Y-113672383D01*
X108378212Y-113716000D01*
X108601788Y-113716000D01*
X108821067Y-113672383D01*
X109027624Y-113586824D01*
X109213520Y-113462612D01*
X109340001Y-113336131D01*
X109340001Y-116967711D01*
X109292330Y-117453894D01*
X109160512Y-117890497D01*
X108946399Y-118293186D01*
X108658150Y-118646613D01*
X108306739Y-118937327D01*
X107905564Y-119154240D01*
X107469886Y-119289106D01*
X106985664Y-119340000D01*
X53032279Y-119340000D01*
X52546106Y-119292330D01*
X52109503Y-119160512D01*
X51706814Y-118946399D01*
X51353387Y-118658150D01*
X51062673Y-118306739D01*
X50845760Y-117905564D01*
X50710894Y-117469886D01*
X50660000Y-116985664D01*
X50660000Y-116804495D01*
X51015000Y-116804495D01*
X51015000Y-117195505D01*
X51091282Y-117579003D01*
X51240915Y-117940250D01*
X51458149Y-118265364D01*
X51734636Y-118541851D01*
X52059750Y-118759085D01*
X52420997Y-118908718D01*
X52804495Y-118985000D01*
X53195505Y-118985000D01*
X53579003Y-118908718D01*
X53940250Y-118759085D01*
X54265364Y-118541851D01*
X54541851Y-118265364D01*
X54759085Y-117940250D01*
X54908718Y-117579003D01*
X54985000Y-117195505D01*
X54985000Y-116804495D01*
X54908718Y-116420997D01*
X54759085Y-116059750D01*
X54541851Y-115734636D01*
X54265364Y-115458149D01*
X53940250Y-115240915D01*
X53579003Y-115091282D01*
X53195505Y-115015000D01*
X52804495Y-115015000D01*
X52420997Y-115091282D01*
X52059750Y-115240915D01*
X51734636Y-115458149D01*
X51458149Y-115734636D01*
X51240915Y-116059750D01*
X51091282Y-116420997D01*
X51015000Y-116804495D01*
X50660000Y-116804495D01*
X50660000Y-114422143D01*
X53690000Y-114422143D01*
X53690000Y-109892491D01*
X54925000Y-109892491D01*
X54925000Y-110687510D01*
X54953722Y-110979128D01*
X55067226Y-111353302D01*
X55251547Y-111698143D01*
X55499603Y-112000398D01*
X55801858Y-112248453D01*
X56146699Y-112432774D01*
X56520873Y-112546278D01*
X56910000Y-112584604D01*
X57299128Y-112546278D01*
X57673302Y-112432774D01*
X58018143Y-112248453D01*
X58320398Y-112000398D01*
X58568453Y-111698143D01*
X58752774Y-111353302D01*
X58866278Y-110979127D01*
X58895000Y-110687509D01*
X58895000Y-109892490D01*
X58866278Y-109600872D01*
X58752774Y-109226698D01*
X58568453Y-108881857D01*
X58320398Y-108579602D01*
X58018143Y-108331547D01*
X57673301Y-108147226D01*
X57299127Y-108033722D01*
X56910000Y-107995396D01*
X56520872Y-108033722D01*
X56146698Y-108147226D01*
X55801857Y-108331547D01*
X55499602Y-108579602D01*
X55251547Y-108881857D01*
X55067226Y-109226699D01*
X54953722Y-109600873D01*
X54925000Y-109892491D01*
X53690000Y-109892491D01*
X53690000Y-103390001D01*
X54921928Y-103390001D01*
X54921928Y-106189999D01*
X54938992Y-106363253D01*
X54989529Y-106529850D01*
X55071595Y-106683386D01*
X55182039Y-106817961D01*
X55316614Y-106928405D01*
X55470150Y-107010471D01*
X55636747Y-107061008D01*
X55810001Y-107078072D01*
X58009999Y-107078072D01*
X58183253Y-107061008D01*
X58349850Y-107010471D01*
X58503386Y-106928405D01*
X58637961Y-106817961D01*
X58748405Y-106683386D01*
X58830471Y-106529850D01*
X58881008Y-106363253D01*
X58898072Y-106189999D01*
X58898072Y-104392491D01*
X59125000Y-104392491D01*
X59125000Y-105187510D01*
X59153722Y-105479128D01*
X59267226Y-105853302D01*
X59451547Y-106198143D01*
X59699603Y-106500398D01*
X60001858Y-106748453D01*
X60346699Y-106932774D01*
X60720873Y-107046278D01*
X61110000Y-107084604D01*
X61499128Y-107046278D01*
X61873302Y-106932774D01*
X62218143Y-106748453D01*
X62520398Y-106500398D01*
X62768453Y-106198143D01*
X62952774Y-105853302D01*
X63010217Y-105663936D01*
X63431449Y-105663936D01*
X63579514Y-106019395D01*
X63794081Y-106339138D01*
X64066904Y-106610877D01*
X64387498Y-106824170D01*
X64446751Y-106877464D01*
X64737000Y-106824030D01*
X64737000Y-105363000D01*
X65883000Y-105363000D01*
X65883000Y-106824030D01*
X66173249Y-106877464D01*
X66232502Y-106824170D01*
X66553096Y-106610877D01*
X66825919Y-106339138D01*
X67040486Y-106019395D01*
X67188551Y-105663936D01*
X67096456Y-105363000D01*
X65883000Y-105363000D01*
X64737000Y-105363000D01*
X63523544Y-105363000D01*
X63431449Y-105663936D01*
X63010217Y-105663936D01*
X63066278Y-105479127D01*
X63095000Y-105187509D01*
X63095000Y-104392490D01*
X63066278Y-104100872D01*
X63010218Y-103916064D01*
X63431449Y-103916064D01*
X63523544Y-104217000D01*
X64737000Y-104217000D01*
X64737000Y-102755970D01*
X65883000Y-102755970D01*
X65883000Y-104217000D01*
X67096456Y-104217000D01*
X67188551Y-103916064D01*
X67040486Y-103560605D01*
X66825919Y-103240862D01*
X66553096Y-102969123D01*
X66232502Y-102755830D01*
X66173249Y-102702536D01*
X65883000Y-102755970D01*
X64737000Y-102755970D01*
X64446751Y-102702536D01*
X64387498Y-102755830D01*
X64066904Y-102969123D01*
X63794081Y-103240862D01*
X63579514Y-103560605D01*
X63431449Y-103916064D01*
X63010218Y-103916064D01*
X62952774Y-103726698D01*
X62768453Y-103381857D01*
X62520398Y-103079602D01*
X62218143Y-102831547D01*
X61873301Y-102647226D01*
X61499127Y-102533722D01*
X61110000Y-102495396D01*
X60720872Y-102533722D01*
X60346698Y-102647226D01*
X60001857Y-102831547D01*
X59699602Y-103079602D01*
X59451547Y-103381857D01*
X59267226Y-103726699D01*
X59153722Y-104100873D01*
X59125000Y-104392491D01*
X58898072Y-104392491D01*
X58898072Y-103390001D01*
X58881008Y-103216747D01*
X58830471Y-103050150D01*
X58748405Y-102896614D01*
X58637961Y-102762039D01*
X58503386Y-102651595D01*
X58349850Y-102569529D01*
X58183253Y-102518992D01*
X58009999Y-102501928D01*
X55810001Y-102501928D01*
X55636747Y-102518992D01*
X55470150Y-102569529D01*
X55316614Y-102651595D01*
X55182039Y-102762039D01*
X55071595Y-102896614D01*
X54989529Y-103050150D01*
X54938992Y-103216747D01*
X54921928Y-103390001D01*
X53690000Y-103390001D01*
X53690000Y-101637857D01*
X50660000Y-101637857D01*
X50660000Y-101297155D01*
X50781000Y-101309072D01*
X52581000Y-101309072D01*
X52705482Y-101296812D01*
X52825180Y-101260502D01*
X52935494Y-101201537D01*
X53032185Y-101122185D01*
X53111537Y-101025494D01*
X53170502Y-100915180D01*
X53176056Y-100896873D01*
X53242495Y-100963312D01*
X53493905Y-101131299D01*
X53773257Y-101247011D01*
X54069816Y-101306000D01*
X54372184Y-101306000D01*
X54668743Y-101247011D01*
X54948095Y-101131299D01*
X55199505Y-100963312D01*
X55413312Y-100749505D01*
X55581299Y-100498095D01*
X55697011Y-100218743D01*
X55756000Y-99922184D01*
X55756000Y-99619816D01*
X55697011Y-99323257D01*
X55581299Y-99043905D01*
X55413312Y-98792495D01*
X55199505Y-98578688D01*
X54948095Y-98410701D01*
X54668743Y-98294989D01*
X54372184Y-98236000D01*
X54069816Y-98236000D01*
X53773257Y-98294989D01*
X53493905Y-98410701D01*
X53242495Y-98578688D01*
X53176056Y-98645127D01*
X53170502Y-98626820D01*
X53111537Y-98516506D01*
X53032185Y-98419815D01*
X52935494Y-98340463D01*
X52825180Y-98281498D01*
X52705482Y-98245188D01*
X52581000Y-98232928D01*
X50781000Y-98232928D01*
X50660000Y-98244845D01*
X50660000Y-96222530D01*
X50781000Y-96234447D01*
X52581000Y-96234447D01*
X52705482Y-96222187D01*
X52825180Y-96185877D01*
X52935494Y-96126912D01*
X53032185Y-96047560D01*
X53111537Y-95950869D01*
X53170502Y-95840555D01*
X53176056Y-95822248D01*
X53242495Y-95888687D01*
X53493905Y-96056674D01*
X53773257Y-96172386D01*
X54069816Y-96231375D01*
X54372184Y-96231375D01*
X54668743Y-96172386D01*
X54948095Y-96056674D01*
X55199505Y-95888687D01*
X55413312Y-95674880D01*
X55581299Y-95423470D01*
X55697011Y-95144118D01*
X55756000Y-94847559D01*
X55756000Y-94545191D01*
X55697011Y-94248632D01*
X55581299Y-93969280D01*
X55413312Y-93717870D01*
X55199505Y-93504063D01*
X54948095Y-93336076D01*
X54668743Y-93220364D01*
X54372184Y-93161375D01*
X54069816Y-93161375D01*
X53773257Y-93220364D01*
X53493905Y-93336076D01*
X53242495Y-93504063D01*
X53176056Y-93570502D01*
X53170502Y-93552195D01*
X53111537Y-93441881D01*
X53032185Y-93345190D01*
X52935494Y-93265838D01*
X52825180Y-93206873D01*
X52705482Y-93170563D01*
X52581000Y-93158303D01*
X50781000Y-93158303D01*
X50660000Y-93170220D01*
X50660000Y-91147905D01*
X50781000Y-91159822D01*
X52581000Y-91159822D01*
X52705482Y-91147562D01*
X52825180Y-91111252D01*
X52935494Y-91052287D01*
X53032185Y-90972935D01*
X53111537Y-90876244D01*
X53170502Y-90765930D01*
X53176056Y-90747623D01*
X53242495Y-90814062D01*
X53493905Y-90982049D01*
X53773257Y-91097761D01*
X54069816Y-91156750D01*
X54372184Y-91156750D01*
X54668743Y-91097761D01*
X54948095Y-90982049D01*
X55199505Y-90814062D01*
X55413312Y-90600255D01*
X55581299Y-90348845D01*
X55697011Y-90069493D01*
X55756000Y-89772934D01*
X55756000Y-89470566D01*
X55697011Y-89174007D01*
X55581299Y-88894655D01*
X55413312Y-88643245D01*
X55199505Y-88429438D01*
X54948095Y-88261451D01*
X54668743Y-88145739D01*
X54372184Y-88086750D01*
X54069816Y-88086750D01*
X53773257Y-88145739D01*
X53493905Y-88261451D01*
X53242495Y-88429438D01*
X53176056Y-88495877D01*
X53170502Y-88477570D01*
X53111537Y-88367256D01*
X53032185Y-88270565D01*
X52935494Y-88191213D01*
X52825180Y-88132248D01*
X52705482Y-88095938D01*
X52581000Y-88083678D01*
X50781000Y-88083678D01*
X50660000Y-88095595D01*
X50660000Y-86073280D01*
X50781000Y-86085197D01*
X52581000Y-86085197D01*
X52705482Y-86072937D01*
X52825180Y-86036627D01*
X52935494Y-85977662D01*
X53032185Y-85898310D01*
X53111537Y-85801619D01*
X53170502Y-85691305D01*
X53176056Y-85672998D01*
X53242495Y-85739437D01*
X53493905Y-85907424D01*
X53773257Y-86023136D01*
X54069816Y-86082125D01*
X54372184Y-86082125D01*
X54668743Y-86023136D01*
X54948095Y-85907424D01*
X55199505Y-85739437D01*
X55413312Y-85525630D01*
X55581299Y-85274220D01*
X55697011Y-84994868D01*
X55756000Y-84698309D01*
X55756000Y-84395941D01*
X55697011Y-84099382D01*
X55581299Y-83820030D01*
X55413312Y-83568620D01*
X55199505Y-83354813D01*
X54948095Y-83186826D01*
X54668743Y-83071114D01*
X54372184Y-83012125D01*
X54069816Y-83012125D01*
X53773257Y-83071114D01*
X53493905Y-83186826D01*
X53242495Y-83354813D01*
X53176056Y-83421252D01*
X53170502Y-83402945D01*
X53111537Y-83292631D01*
X53032185Y-83195940D01*
X52935494Y-83116588D01*
X52825180Y-83057623D01*
X52705482Y-83021313D01*
X52581000Y-83009053D01*
X50781000Y-83009053D01*
X50660000Y-83020970D01*
X50660000Y-82782491D01*
X57005000Y-82782491D01*
X57005000Y-83577510D01*
X57033722Y-83869128D01*
X57147226Y-84243302D01*
X57331547Y-84588143D01*
X57355000Y-84616720D01*
X57355001Y-97979671D01*
X57347089Y-98060000D01*
X57378658Y-98380516D01*
X57472148Y-98688714D01*
X57536273Y-98808683D01*
X57623970Y-98972752D01*
X57828287Y-99221714D01*
X57890682Y-99272920D01*
X60190676Y-101572915D01*
X60377247Y-101726030D01*
X60661285Y-101877851D01*
X60969483Y-101971342D01*
X61289999Y-102002911D01*
X61610516Y-101971342D01*
X61918714Y-101877851D01*
X62202752Y-101726030D01*
X62451713Y-101521713D01*
X62656030Y-101272752D01*
X62807851Y-100988714D01*
X62901342Y-100680516D01*
X62932911Y-100359999D01*
X62901342Y-100039483D01*
X62807851Y-99731285D01*
X62656030Y-99447247D01*
X62502915Y-99260676D01*
X62052427Y-98810188D01*
X62067706Y-98808683D01*
X62319354Y-98732347D01*
X62551275Y-98608382D01*
X62754555Y-98441555D01*
X62921382Y-98238275D01*
X63045347Y-98006354D01*
X63121683Y-97754706D01*
X63147459Y-97493000D01*
X63121683Y-97231294D01*
X63045347Y-96979646D01*
X62921382Y-96747725D01*
X62754555Y-96544445D01*
X62569561Y-96392625D01*
X62754555Y-96240805D01*
X62921382Y-96037525D01*
X63045347Y-95805604D01*
X63121683Y-95553956D01*
X63147459Y-95292250D01*
X63121683Y-95030544D01*
X63045347Y-94778896D01*
X62921382Y-94546975D01*
X62754555Y-94343695D01*
X62569561Y-94191875D01*
X62754555Y-94040055D01*
X62921382Y-93836775D01*
X63045347Y-93604854D01*
X63121683Y-93353206D01*
X63147459Y-93091500D01*
X63121683Y-92829794D01*
X63045347Y-92578146D01*
X62921382Y-92346225D01*
X62754555Y-92142945D01*
X62569561Y-91991125D01*
X62754555Y-91839305D01*
X62921382Y-91636025D01*
X63045347Y-91404104D01*
X63121683Y-91152456D01*
X63147459Y-90890750D01*
X63121683Y-90629044D01*
X63045347Y-90377396D01*
X62921382Y-90145475D01*
X62754555Y-89942195D01*
X62569561Y-89790375D01*
X62754555Y-89638555D01*
X62921382Y-89435275D01*
X63045347Y-89203354D01*
X63121683Y-88951706D01*
X63147459Y-88690000D01*
X63121683Y-88428294D01*
X63045347Y-88176646D01*
X62921382Y-87944725D01*
X62754555Y-87741445D01*
X62551275Y-87574618D01*
X62319354Y-87450653D01*
X62067706Y-87374317D01*
X61871579Y-87355000D01*
X61740421Y-87355000D01*
X61544294Y-87374317D01*
X61292646Y-87450653D01*
X61060725Y-87574618D01*
X60857445Y-87741445D01*
X60690618Y-87944725D01*
X60625000Y-88067487D01*
X60625000Y-84616720D01*
X60648453Y-84588143D01*
X60832774Y-84243302D01*
X60946278Y-83869127D01*
X60975000Y-83577509D01*
X60975000Y-82782490D01*
X60946278Y-82490872D01*
X60832774Y-82116698D01*
X60648453Y-81771857D01*
X60400398Y-81469602D01*
X60098143Y-81221547D01*
X59753301Y-81037226D01*
X59379127Y-80923722D01*
X58990000Y-80885396D01*
X58600872Y-80923722D01*
X58226698Y-81037226D01*
X57881857Y-81221547D01*
X57579602Y-81469602D01*
X57331547Y-81771857D01*
X57147226Y-82116699D01*
X57033722Y-82490873D01*
X57005000Y-82782491D01*
X50660000Y-82782491D01*
X50660000Y-80998655D01*
X50781000Y-81010572D01*
X52581000Y-81010572D01*
X52705482Y-80998312D01*
X52825180Y-80962002D01*
X52935494Y-80903037D01*
X53032185Y-80823685D01*
X53111537Y-80726994D01*
X53170502Y-80616680D01*
X53176056Y-80598373D01*
X53242495Y-80664812D01*
X53493905Y-80832799D01*
X53773257Y-80948511D01*
X54069816Y-81007500D01*
X54372184Y-81007500D01*
X54668743Y-80948511D01*
X54948095Y-80832799D01*
X55199505Y-80664812D01*
X55413312Y-80451005D01*
X55581299Y-80199595D01*
X55697011Y-79920243D01*
X55756000Y-79623684D01*
X55756000Y-79321316D01*
X55697011Y-79024757D01*
X55581299Y-78745405D01*
X55413312Y-78493995D01*
X55199505Y-78280188D01*
X54948095Y-78112201D01*
X54668743Y-77996489D01*
X54372184Y-77937500D01*
X54069816Y-77937500D01*
X53773257Y-77996489D01*
X53493905Y-78112201D01*
X53242495Y-78280188D01*
X53176056Y-78346627D01*
X53170502Y-78328320D01*
X53111537Y-78218006D01*
X53032185Y-78121315D01*
X52935494Y-78041963D01*
X52825180Y-77982998D01*
X52705482Y-77946688D01*
X52581000Y-77934428D01*
X50781000Y-77934428D01*
X50660000Y-77946345D01*
X50660000Y-74032279D01*
X50682334Y-73804495D01*
X51015000Y-73804495D01*
X51015000Y-74195505D01*
X51091282Y-74579003D01*
X51240915Y-74940250D01*
X51458149Y-75265364D01*
X51734636Y-75541851D01*
X52059750Y-75759085D01*
X52420997Y-75908718D01*
X52804495Y-75985000D01*
X53195505Y-75985000D01*
X53579003Y-75908718D01*
X53940250Y-75759085D01*
X54265364Y-75541851D01*
X54541851Y-75265364D01*
X54759085Y-74940250D01*
X54908718Y-74579003D01*
X54985000Y-74195505D01*
X54985000Y-73804495D01*
X54973066Y-73744495D01*
X104975000Y-73744495D01*
X104975000Y-74135505D01*
X105051282Y-74519003D01*
X105200915Y-74880250D01*
X105418149Y-75205364D01*
X105694636Y-75481851D01*
X106019750Y-75699085D01*
X106380997Y-75848718D01*
X106764495Y-75925000D01*
X107155505Y-75925000D01*
X107539003Y-75848718D01*
X107900250Y-75699085D01*
X108225364Y-75481851D01*
X108501851Y-75205364D01*
X108719085Y-74880250D01*
X108868718Y-74519003D01*
X108945000Y-74135505D01*
X108945000Y-73744495D01*
X108868718Y-73360997D01*
X108719085Y-72999750D01*
X108501851Y-72674636D01*
X108225364Y-72398149D01*
X107900250Y-72180915D01*
X107539003Y-72031282D01*
X107155505Y-71955000D01*
X106764495Y-71955000D01*
X106380997Y-72031282D01*
X106019750Y-72180915D01*
X105694636Y-72398149D01*
X105418149Y-72674636D01*
X105200915Y-72999750D01*
X105051282Y-73360997D01*
X104975000Y-73744495D01*
X54973066Y-73744495D01*
X54908718Y-73420997D01*
X54759085Y-73059750D01*
X54541851Y-72734636D01*
X54265364Y-72458149D01*
X53940250Y-72240915D01*
X53579003Y-72091282D01*
X53195505Y-72015000D01*
X52804495Y-72015000D01*
X52420997Y-72091282D01*
X52059750Y-72240915D01*
X51734636Y-72458149D01*
X51458149Y-72734636D01*
X51240915Y-73059750D01*
X51091282Y-73420997D01*
X51015000Y-73804495D01*
X50682334Y-73804495D01*
X50707670Y-73546107D01*
X50839489Y-73109502D01*
X51053600Y-72706815D01*
X51341848Y-72353388D01*
X51693261Y-72062673D01*
X52094439Y-71845758D01*
X52530113Y-71710894D01*
X53014344Y-71660000D01*
X106967721Y-71660000D01*
X107453893Y-71707670D01*
G36*
X95724991Y-98350123D02*
G01*
X95724991Y-102781756D01*
X95473301Y-102647226D01*
X95099127Y-102533722D01*
X94710000Y-102495396D01*
X94320872Y-102533722D01*
X93946698Y-102647226D01*
X93794990Y-102728315D01*
X93794990Y-96420121D01*
X95724991Y-98350123D01*
X95724991Y-98350123D01*
G37*
X95724991Y-98350123D02*
X95724991Y-102781756D01*
X95473301Y-102647226D01*
X95099127Y-102533722D01*
X94710000Y-102495396D01*
X94320872Y-102533722D01*
X93946698Y-102647226D01*
X93794990Y-102728315D01*
X93794990Y-96420121D01*
X95724991Y-98350123D01*
G36*
X104895000Y-86498514D02*
G01*
X104895000Y-86761486D01*
X104946304Y-87019405D01*
X105046939Y-87262359D01*
X105193038Y-87481013D01*
X105378987Y-87666962D01*
X105597641Y-87813061D01*
X105840595Y-87913696D01*
X106098514Y-87965000D01*
X106148055Y-87965000D01*
X106048225Y-88206011D01*
X105995000Y-88473589D01*
X105995000Y-88746411D01*
X106048225Y-89013989D01*
X106152629Y-89266043D01*
X106304201Y-89492886D01*
X106497114Y-89685799D01*
X106723957Y-89837371D01*
X106976011Y-89941775D01*
X107243589Y-89995000D01*
X107516411Y-89995000D01*
X107783989Y-89941775D01*
X108036043Y-89837371D01*
X108262886Y-89685799D01*
X108455799Y-89492886D01*
X108605002Y-89269589D01*
X108605002Y-90390000D01*
X105997909Y-90390000D01*
X105915799Y-90267114D01*
X105722886Y-90074201D01*
X105496043Y-89922629D01*
X105243989Y-89818225D01*
X104976411Y-89765000D01*
X104703589Y-89765000D01*
X104436011Y-89818225D01*
X104183957Y-89922629D01*
X103957114Y-90074201D01*
X103764201Y-90267114D01*
X103612629Y-90493957D01*
X103565000Y-90608944D01*
X103565000Y-87807238D01*
X104900283Y-86471956D01*
X104895000Y-86498514D01*
X104895000Y-86498514D01*
G37*
X104895000Y-86498514D02*
X104895000Y-86761486D01*
X104946304Y-87019405D01*
X105046939Y-87262359D01*
X105193038Y-87481013D01*
X105378987Y-87666962D01*
X105597641Y-87813061D01*
X105840595Y-87913696D01*
X106098514Y-87965000D01*
X106148055Y-87965000D01*
X106048225Y-88206011D01*
X105995000Y-88473589D01*
X105995000Y-88746411D01*
X106048225Y-89013989D01*
X106152629Y-89266043D01*
X106304201Y-89492886D01*
X106497114Y-89685799D01*
X106723957Y-89837371D01*
X106976011Y-89941775D01*
X107243589Y-89995000D01*
X107516411Y-89995000D01*
X107783989Y-89941775D01*
X108036043Y-89837371D01*
X108262886Y-89685799D01*
X108455799Y-89492886D01*
X108605002Y-89269589D01*
X108605002Y-90390000D01*
X105997909Y-90390000D01*
X105915799Y-90267114D01*
X105722886Y-90074201D01*
X105496043Y-89922629D01*
X105243989Y-89818225D01*
X104976411Y-89765000D01*
X104703589Y-89765000D01*
X104436011Y-89818225D01*
X104183957Y-89922629D01*
X103957114Y-90074201D01*
X103764201Y-90267114D01*
X103612629Y-90493957D01*
X103565000Y-90608944D01*
X103565000Y-87807238D01*
X104900283Y-86471956D01*
X104895000Y-86498514D01*
G36*
X105484725Y-80125382D02*
G01*
X105716646Y-80249347D01*
X105968294Y-80325683D01*
X106164421Y-80345000D01*
X106295579Y-80345000D01*
X106472749Y-80327550D01*
X106495002Y-80349803D01*
X106495001Y-83851290D01*
X106451064Y-83895227D01*
X106337796Y-84064745D01*
X106259775Y-84253103D01*
X106220001Y-84453062D01*
X106220001Y-84656940D01*
X106259775Y-84856899D01*
X106337796Y-85045257D01*
X106451064Y-85214775D01*
X106495002Y-85258713D01*
X106495002Y-85321558D01*
X106361486Y-85295000D01*
X106098514Y-85295000D01*
X105840595Y-85346304D01*
X105669944Y-85416990D01*
X105711343Y-85280516D01*
X105735000Y-85040322D01*
X105735000Y-85040320D01*
X105742911Y-84960001D01*
X105735000Y-84879681D01*
X105735000Y-81170319D01*
X105742911Y-81089999D01*
X105734785Y-81007500D01*
X105711343Y-80769484D01*
X105617852Y-80461285D01*
X105466031Y-80177248D01*
X105297096Y-79971400D01*
X105484725Y-80125382D01*
X105484725Y-80125382D01*
G37*
X105484725Y-80125382D02*
X105716646Y-80249347D01*
X105968294Y-80325683D01*
X106164421Y-80345000D01*
X106295579Y-80345000D01*
X106472749Y-80327550D01*
X106495002Y-80349803D01*
X106495001Y-83851290D01*
X106451064Y-83895227D01*
X106337796Y-84064745D01*
X106259775Y-84253103D01*
X106220001Y-84453062D01*
X106220001Y-84656940D01*
X106259775Y-84856899D01*
X106337796Y-85045257D01*
X106451064Y-85214775D01*
X106495002Y-85258713D01*
X106495002Y-85321558D01*
X106361486Y-85295000D01*
X106098514Y-85295000D01*
X105840595Y-85346304D01*
X105669944Y-85416990D01*
X105711343Y-85280516D01*
X105735000Y-85040322D01*
X105735000Y-85040320D01*
X105742911Y-84960001D01*
X105735000Y-84879681D01*
X105735000Y-81170319D01*
X105742911Y-81089999D01*
X105734785Y-81007500D01*
X105711343Y-80769484D01*
X105617852Y-80461285D01*
X105466031Y-80177248D01*
X105297096Y-79971400D01*
X105484725Y-80125382D01*
G36*
X108605001Y-81339752D02*
G01*
X108605001Y-85315317D01*
X108601706Y-85314317D01*
X108405579Y-85295000D01*
X108274421Y-85295000D01*
X108078294Y-85314317D01*
X108015001Y-85333517D01*
X108015001Y-85258712D01*
X108058938Y-85214775D01*
X108172206Y-85045257D01*
X108250227Y-84856899D01*
X108290001Y-84656940D01*
X108290001Y-84453062D01*
X108250227Y-84253103D01*
X108172206Y-84064745D01*
X108058938Y-83895227D01*
X108015001Y-83851290D01*
X108015001Y-80749751D01*
X108605001Y-81339752D01*
X108605001Y-81339752D01*
G37*
X108605001Y-81339752D02*
X108605001Y-85315317D01*
X108601706Y-85314317D01*
X108405579Y-85295000D01*
X108274421Y-85295000D01*
X108078294Y-85314317D01*
X108015001Y-85333517D01*
X108015001Y-85258712D01*
X108058938Y-85214775D01*
X108172206Y-85045257D01*
X108250227Y-84856899D01*
X108290001Y-84656940D01*
X108290001Y-84453062D01*
X108250227Y-84253103D01*
X108172206Y-84064745D01*
X108058938Y-83895227D01*
X108015001Y-83851290D01*
X108015001Y-80749751D01*
X108605001Y-81339752D01*
%TD*%
M02*
