M48
; DRILL file {KiCad (5.1.4)-1} date 9/17/2020 5:05:30 PM
; FORMAT={-:-/ absolute / inch / decimal}
; #@! TF.CreationDate,2020-09-17T17:05:30-05:00
; #@! TF.GenerationSoftware,Kicad,Pcbnew,(5.1.4)-1
FMAT,2
INCH
T1C0.0157
T2C0.0197
T3C0.0276
T4C0.0315
T5C0.0354
T6C0.0551
T7C0.1063
%
G90
G05
T1
X2.0224Y-3.2287
X2.026Y-3.4394
X2.0272Y-3.6295
X2.1756Y-3.2335
X2.2177Y-3.4839
X2.2189Y-3.8346
X2.2217Y-3.6272
X2.5362Y-3.7484
X2.6531Y-3.5327
X2.8031Y-3.4181
X3.3906Y-3.8059
X3.726Y-3.9394
X3.8941Y-3.7154
X4.0969Y-3.6555
X4.0969Y-3.8925
X4.1299Y-3.5067
X4.1748Y-3.2756
X4.2226Y-3.3289
X4.2457Y-3.6189
X4.2693Y-3.2043
T2
X4.2713Y-3.8283
X4.2713Y-4.1303
X4.2713Y-4.4323
X4.2713Y-3.9793
X4.2713Y-4.2813
T3
X4.1823Y-3.1106
X4.1823Y-3.4106
X2.4333Y-3.5784
X2.7333Y-3.5784
X2.4333Y-3.7517
X2.7333Y-3.7517
X2.4333Y-3.4917
X2.7333Y-3.4917
X2.4333Y-3.665
X2.7333Y-3.665
X2.4333Y-3.8383
X2.7333Y-3.8383
X4.2654Y-3.1106
X4.2654Y-3.4106
T4
X2.413Y-3.9512
X4.1276Y-3.5886
X4.2276Y-3.4886
X4.2276Y-3.6886
T5
X2.0347Y-3.7282
X2.1347Y-3.7282
X2.0347Y-3.1288
X2.1347Y-3.1288
X2.0347Y-3.928
X2.1347Y-3.928
X2.0347Y-3.3286
X2.1347Y-3.3286
X2.0347Y-3.5284
X2.1347Y-3.5284
T6
X2.2406Y-4.1256
X2.2406Y-4.3421
X2.4059Y-4.1256
X2.4059Y-4.3421
X2.5713Y-4.1256
X2.5713Y-4.3421
X2.7366Y-4.1256
X2.7366Y-4.3421
X2.902Y-4.1256
X2.902Y-4.3421
X3.0673Y-4.1256
X3.0673Y-4.3421
X3.2327Y-4.1256
X3.2327Y-4.3421
X3.398Y-4.1256
X3.398Y-4.3421
X3.5634Y-4.1256
X3.5634Y-4.3421
X3.7287Y-4.1256
X3.7287Y-4.3421
X3.8941Y-4.1256
X3.8941Y-4.3421
X4.0594Y-4.1256
X4.0594Y-4.3421
X2.3224Y-3.0583
X2.3224Y-3.2748
X2.4878Y-3.0583
X2.4878Y-3.2748
X2.6531Y-3.0583
X2.6531Y-3.2748
X2.8185Y-3.0583
X2.8185Y-3.2748
X2.9839Y-3.0583
X2.9839Y-3.2748
X3.1492Y-3.0583
X3.1492Y-3.2748
X3.3146Y-3.0583
X3.3146Y-3.2748
X3.4799Y-3.0583
X3.4799Y-3.2748
X3.6453Y-3.0583
X3.6453Y-3.2748
X3.8106Y-3.0583
X3.8106Y-3.2748
X3.976Y-3.0583
X3.976Y-3.2748
T7
X2.0866Y-4.6063
X2.0866Y-2.9134
X4.2126Y-4.6063
X4.211Y-2.911
T0
M30
