%TF.GenerationSoftware,KiCad,Pcbnew,(5.1.6)-1*%
%TF.CreationDate,2020-09-16T20:02:01-05:00*%
%TF.ProjectId,asdf,61736466-2e6b-4696-9361-645f70636258,rev?*%
%TF.SameCoordinates,Original*%
%TF.FileFunction,Legend,Top*%
%TF.FilePolarity,Positive*%
%FSLAX46Y46*%
G04 Gerber Fmt 4.6, Leading zero omitted, Abs format (unit mm)*
G04 Created by KiCad (PCBNEW (5.1.6)-1) date 2020-09-16 20:02:01*
%MOMM*%
%LPD*%
G01*
G04 APERTURE LIST*
%ADD10C,0.150000*%
%ADD11C,0.120000*%
%ADD12C,0.200000*%
%ADD13C,0.254000*%
G04 APERTURE END LIST*
D10*
X82266238Y-92051619D02*
X82170999Y-92004000D01*
X82075761Y-91908761D01*
X81932904Y-91765904D01*
X81837666Y-91718285D01*
X81742428Y-91718285D01*
X81790047Y-91956380D02*
X81694809Y-91908761D01*
X81599571Y-91813523D01*
X81551952Y-91623047D01*
X81551952Y-91289714D01*
X81599571Y-91099238D01*
X81694809Y-91004000D01*
X81790047Y-90956380D01*
X81980523Y-90956380D01*
X82075761Y-91004000D01*
X82170999Y-91099238D01*
X82218619Y-91289714D01*
X82218619Y-91623047D01*
X82170999Y-91813523D01*
X82075761Y-91908761D01*
X81980523Y-91956380D01*
X81790047Y-91956380D01*
X82790047Y-91384952D02*
X82694809Y-91337333D01*
X82647190Y-91289714D01*
X82599571Y-91194476D01*
X82599571Y-91146857D01*
X82647190Y-91051619D01*
X82694809Y-91004000D01*
X82790047Y-90956380D01*
X82980523Y-90956380D01*
X83075761Y-91004000D01*
X83123380Y-91051619D01*
X83170999Y-91146857D01*
X83170999Y-91194476D01*
X83123380Y-91289714D01*
X83075761Y-91337333D01*
X82980523Y-91384952D01*
X82790047Y-91384952D01*
X82694809Y-91432571D01*
X82647190Y-91480190D01*
X82599571Y-91575428D01*
X82599571Y-91765904D01*
X82647190Y-91861142D01*
X82694809Y-91908761D01*
X82790047Y-91956380D01*
X82980523Y-91956380D01*
X83075761Y-91908761D01*
X83123380Y-91861142D01*
X83170999Y-91765904D01*
X83170999Y-91575428D01*
X83123380Y-91480190D01*
X83075761Y-91432571D01*
X82980523Y-91384952D01*
X84028142Y-91289714D02*
X84028142Y-91956380D01*
X83790047Y-90908761D02*
X83551952Y-91623047D01*
X84170999Y-91623047D01*
X84742428Y-90956380D02*
X84837666Y-90956380D01*
X84932904Y-91004000D01*
X84980523Y-91051619D01*
X85028142Y-91146857D01*
X85075761Y-91337333D01*
X85075761Y-91575428D01*
X85028142Y-91765904D01*
X84980523Y-91861142D01*
X84932904Y-91908761D01*
X84837666Y-91956380D01*
X84742428Y-91956380D01*
X84647190Y-91908761D01*
X84599571Y-91861142D01*
X84551952Y-91765904D01*
X84504333Y-91575428D01*
X84504333Y-91337333D01*
X84551952Y-91146857D01*
X84599571Y-91051619D01*
X84647190Y-91004000D01*
X84742428Y-90956380D01*
X85932904Y-91956380D02*
X85932904Y-91432571D01*
X85885285Y-91337333D01*
X85790047Y-91289714D01*
X85599571Y-91289714D01*
X85504333Y-91337333D01*
X85932904Y-91908761D02*
X85837666Y-91956380D01*
X85599571Y-91956380D01*
X85504333Y-91908761D01*
X85456714Y-91813523D01*
X85456714Y-91718285D01*
X85504333Y-91623047D01*
X85599571Y-91575428D01*
X85837666Y-91575428D01*
X85932904Y-91527809D01*
X86313857Y-91289714D02*
X86551952Y-91956380D01*
X86790047Y-91289714D01*
X88599571Y-92051619D02*
X88504333Y-92004000D01*
X88409095Y-91908761D01*
X88266238Y-91765904D01*
X88170999Y-91718285D01*
X88075761Y-91718285D01*
X88123380Y-91956380D02*
X88028142Y-91908761D01*
X87932904Y-91813523D01*
X87885285Y-91623047D01*
X87885285Y-91289714D01*
X87932904Y-91099238D01*
X88028142Y-91004000D01*
X88123380Y-90956380D01*
X88313857Y-90956380D01*
X88409095Y-91004000D01*
X88504333Y-91099238D01*
X88551952Y-91289714D01*
X88551952Y-91623047D01*
X88504333Y-91813523D01*
X88409095Y-91908761D01*
X88313857Y-91956380D01*
X88123380Y-91956380D01*
X89028142Y-91956380D02*
X89218619Y-91956380D01*
X89313857Y-91908761D01*
X89361476Y-91861142D01*
X89456714Y-91718285D01*
X89504333Y-91527809D01*
X89504333Y-91146857D01*
X89456714Y-91051619D01*
X89409095Y-91004000D01*
X89313857Y-90956380D01*
X89123380Y-90956380D01*
X89028142Y-91004000D01*
X88980523Y-91051619D01*
X88932904Y-91146857D01*
X88932904Y-91384952D01*
X88980523Y-91480190D01*
X89028142Y-91527809D01*
X89123380Y-91575428D01*
X89313857Y-91575428D01*
X89409095Y-91527809D01*
X89456714Y-91480190D01*
X89504333Y-91384952D01*
X90409095Y-90956380D02*
X89932904Y-90956380D01*
X89885285Y-91432571D01*
X89932904Y-91384952D01*
X90028142Y-91337333D01*
X90266238Y-91337333D01*
X90361476Y-91384952D01*
X90409095Y-91432571D01*
X90456714Y-91527809D01*
X90456714Y-91765904D01*
X90409095Y-91861142D01*
X90361476Y-91908761D01*
X90266238Y-91956380D01*
X90028142Y-91956380D01*
X89932904Y-91908761D01*
X89885285Y-91861142D01*
X91075761Y-90956380D02*
X91170999Y-90956380D01*
X91266238Y-91004000D01*
X91313857Y-91051619D01*
X91361476Y-91146857D01*
X91409095Y-91337333D01*
X91409095Y-91575428D01*
X91361476Y-91765904D01*
X91313857Y-91861142D01*
X91266238Y-91908761D01*
X91170999Y-91956380D01*
X91075761Y-91956380D01*
X90980523Y-91908761D01*
X90932904Y-91861142D01*
X90885285Y-91765904D01*
X90837666Y-91575428D01*
X90837666Y-91337333D01*
X90885285Y-91146857D01*
X90932904Y-91051619D01*
X90980523Y-91004000D01*
X91075761Y-90956380D01*
X92599571Y-91956380D02*
X92599571Y-90956380D01*
X92980523Y-90956380D01*
X93075761Y-91004000D01*
X93123380Y-91051619D01*
X93170999Y-91146857D01*
X93170999Y-91289714D01*
X93123380Y-91384952D01*
X93075761Y-91432571D01*
X92980523Y-91480190D01*
X92599571Y-91480190D01*
X93599571Y-91956380D02*
X93599571Y-90956380D01*
X93932904Y-91670666D01*
X94266238Y-90956380D01*
X94266238Y-91956380D01*
X95170999Y-91956380D02*
X95170999Y-91432571D01*
X95123380Y-91337333D01*
X95028142Y-91289714D01*
X94837666Y-91289714D01*
X94742428Y-91337333D01*
X95170999Y-91908761D02*
X95075761Y-91956380D01*
X94837666Y-91956380D01*
X94742428Y-91908761D01*
X94694809Y-91813523D01*
X94694809Y-91718285D01*
X94742428Y-91623047D01*
X94837666Y-91575428D01*
X95075761Y-91575428D01*
X95170999Y-91527809D01*
X96075761Y-91908761D02*
X95980523Y-91956380D01*
X95790047Y-91956380D01*
X95694809Y-91908761D01*
X95647190Y-91861142D01*
X95599571Y-91765904D01*
X95599571Y-91480190D01*
X95647190Y-91384952D01*
X95694809Y-91337333D01*
X95790047Y-91289714D01*
X95980523Y-91289714D01*
X96075761Y-91337333D01*
X96647190Y-91384952D02*
X96551952Y-91337333D01*
X96504333Y-91289714D01*
X96456714Y-91194476D01*
X96456714Y-91146857D01*
X96504333Y-91051619D01*
X96551952Y-91004000D01*
X96647190Y-90956380D01*
X96837666Y-90956380D01*
X96932904Y-91004000D01*
X96980523Y-91051619D01*
X97028142Y-91146857D01*
X97028142Y-91194476D01*
X96980523Y-91289714D01*
X96932904Y-91337333D01*
X96837666Y-91384952D01*
X96647190Y-91384952D01*
X96551952Y-91432571D01*
X96504333Y-91480190D01*
X96456714Y-91575428D01*
X96456714Y-91765904D01*
X96504333Y-91861142D01*
X96551952Y-91908761D01*
X96647190Y-91956380D01*
X96837666Y-91956380D01*
X96932904Y-91908761D01*
X96980523Y-91861142D01*
X97028142Y-91765904D01*
X97028142Y-91575428D01*
X96980523Y-91480190D01*
X96932904Y-91432571D01*
X96837666Y-91384952D01*
X97980523Y-91956380D02*
X97409095Y-91956380D01*
X97694809Y-91956380D02*
X97694809Y-90956380D01*
X97599571Y-91099238D01*
X97504333Y-91194476D01*
X97409095Y-91242095D01*
X98599571Y-90956380D02*
X98694809Y-90956380D01*
X98790047Y-91004000D01*
X98837666Y-91051619D01*
X98885285Y-91146857D01*
X98932904Y-91337333D01*
X98932904Y-91575428D01*
X98885285Y-91765904D01*
X98837666Y-91861142D01*
X98790047Y-91908761D01*
X98694809Y-91956380D01*
X98599571Y-91956380D01*
X98504333Y-91908761D01*
X98456714Y-91861142D01*
X98409095Y-91765904D01*
X98361476Y-91575428D01*
X98361476Y-91337333D01*
X98409095Y-91146857D01*
X98456714Y-91051619D01*
X98504333Y-91004000D01*
X98599571Y-90956380D01*
X99551952Y-90956380D02*
X99647190Y-90956380D01*
X99742428Y-91004000D01*
X99790047Y-91051619D01*
X99837666Y-91146857D01*
X99885285Y-91337333D01*
X99885285Y-91575428D01*
X99837666Y-91765904D01*
X99790047Y-91861142D01*
X99742428Y-91908761D01*
X99647190Y-91956380D01*
X99551952Y-91956380D01*
X99456714Y-91908761D01*
X99409095Y-91861142D01*
X99361476Y-91765904D01*
X99313857Y-91575428D01*
X99313857Y-91337333D01*
X99361476Y-91146857D01*
X99409095Y-91051619D01*
X99456714Y-91004000D01*
X99551952Y-90956380D01*
X101028142Y-91670666D02*
X101504333Y-91670666D01*
X100932904Y-91956380D02*
X101266238Y-90956380D01*
X101599571Y-91956380D01*
X101790047Y-90956380D02*
X102361476Y-90956380D01*
X102075761Y-91956380D02*
X102075761Y-90956380D01*
X102599571Y-90956380D02*
X103266238Y-91956380D01*
X103266238Y-90956380D02*
X102599571Y-91956380D01*
X104409095Y-91956380D02*
X104409095Y-90956380D01*
X104790047Y-90956380D01*
X104885285Y-91004000D01*
X104932904Y-91051619D01*
X104980523Y-91146857D01*
X104980523Y-91289714D01*
X104932904Y-91384952D01*
X104885285Y-91432571D01*
X104790047Y-91480190D01*
X104409095Y-91480190D01*
X105551952Y-91956380D02*
X105456714Y-91908761D01*
X105409095Y-91861142D01*
X105361476Y-91765904D01*
X105361476Y-91480190D01*
X105409095Y-91384952D01*
X105456714Y-91337333D01*
X105551952Y-91289714D01*
X105694809Y-91289714D01*
X105790047Y-91337333D01*
X105837666Y-91384952D01*
X105885285Y-91480190D01*
X105885285Y-91765904D01*
X105837666Y-91861142D01*
X105790047Y-91908761D01*
X105694809Y-91956380D01*
X105551952Y-91956380D01*
X106218619Y-91289714D02*
X106409095Y-91956380D01*
X106599571Y-91480190D01*
X106790047Y-91956380D01*
X106980523Y-91289714D01*
X107742428Y-91908761D02*
X107647190Y-91956380D01*
X107456714Y-91956380D01*
X107361476Y-91908761D01*
X107313857Y-91813523D01*
X107313857Y-91432571D01*
X107361476Y-91337333D01*
X107456714Y-91289714D01*
X107647190Y-91289714D01*
X107742428Y-91337333D01*
X107790047Y-91432571D01*
X107790047Y-91527809D01*
X107313857Y-91623047D01*
X108218619Y-91956380D02*
X108218619Y-91289714D01*
X108218619Y-91480190D02*
X108266238Y-91384952D01*
X108313857Y-91337333D01*
X108409095Y-91289714D01*
X108504333Y-91289714D01*
X109551952Y-91670666D02*
X110028142Y-91670666D01*
X109456714Y-91956380D02*
X109790047Y-90956380D01*
X110123380Y-91956380D01*
X110885285Y-91956380D02*
X110885285Y-90956380D01*
X110885285Y-91908761D02*
X110790047Y-91956380D01*
X110599571Y-91956380D01*
X110504333Y-91908761D01*
X110456714Y-91861142D01*
X110409095Y-91765904D01*
X110409095Y-91480190D01*
X110456714Y-91384952D01*
X110504333Y-91337333D01*
X110599571Y-91289714D01*
X110790047Y-91289714D01*
X110885285Y-91337333D01*
X111790047Y-91956380D02*
X111790047Y-91432571D01*
X111742428Y-91337333D01*
X111647190Y-91289714D01*
X111456714Y-91289714D01*
X111361476Y-91337333D01*
X111790047Y-91908761D02*
X111694809Y-91956380D01*
X111456714Y-91956380D01*
X111361476Y-91908761D01*
X111313857Y-91813523D01*
X111313857Y-91718285D01*
X111361476Y-91623047D01*
X111456714Y-91575428D01*
X111694809Y-91575428D01*
X111790047Y-91527809D01*
X112266238Y-91289714D02*
X112266238Y-92289714D01*
X112266238Y-91337333D02*
X112361476Y-91289714D01*
X112551952Y-91289714D01*
X112647190Y-91337333D01*
X112694809Y-91384952D01*
X112742428Y-91480190D01*
X112742428Y-91765904D01*
X112694809Y-91861142D01*
X112647190Y-91908761D01*
X112551952Y-91956380D01*
X112361476Y-91956380D01*
X112266238Y-91908761D01*
X113028142Y-91289714D02*
X113409095Y-91289714D01*
X113170999Y-90956380D02*
X113170999Y-91813523D01*
X113218619Y-91908761D01*
X113313857Y-91956380D01*
X113409095Y-91956380D01*
X114123380Y-91908761D02*
X114028142Y-91956380D01*
X113837666Y-91956380D01*
X113742428Y-91908761D01*
X113694809Y-91813523D01*
X113694809Y-91432571D01*
X113742428Y-91337333D01*
X113837666Y-91289714D01*
X114028142Y-91289714D01*
X114123380Y-91337333D01*
X114170999Y-91432571D01*
X114170999Y-91527809D01*
X113694809Y-91623047D01*
X114599571Y-91956380D02*
X114599571Y-91289714D01*
X114599571Y-91480190D02*
X114647190Y-91384952D01*
X114694809Y-91337333D01*
X114790047Y-91289714D01*
X114885285Y-91289714D01*
X92480523Y-93987333D02*
X92432904Y-93939714D01*
X92337666Y-93796857D01*
X92290047Y-93701619D01*
X92242428Y-93558761D01*
X92194809Y-93320666D01*
X92194809Y-93130190D01*
X92242428Y-92892095D01*
X92290047Y-92749238D01*
X92337666Y-92654000D01*
X92432904Y-92511142D01*
X92480523Y-92463523D01*
X93290047Y-93558761D02*
X93194809Y-93606380D01*
X93004333Y-93606380D01*
X92909095Y-93558761D01*
X92861476Y-93511142D01*
X92813857Y-93415904D01*
X92813857Y-93130190D01*
X92861476Y-93034952D01*
X92909095Y-92987333D01*
X93004333Y-92939714D01*
X93194809Y-92939714D01*
X93290047Y-92987333D01*
X93623380Y-93987333D02*
X93671000Y-93939714D01*
X93766238Y-93796857D01*
X93813857Y-93701619D01*
X93861476Y-93558761D01*
X93909095Y-93320666D01*
X93909095Y-93130190D01*
X93861476Y-92892095D01*
X93813857Y-92749238D01*
X93766238Y-92654000D01*
X93671000Y-92511142D01*
X93623380Y-92463523D01*
X95575761Y-93606380D02*
X95575761Y-93082571D01*
X95528142Y-92987333D01*
X95432904Y-92939714D01*
X95242428Y-92939714D01*
X95147190Y-92987333D01*
X95575761Y-93558761D02*
X95480523Y-93606380D01*
X95242428Y-93606380D01*
X95147190Y-93558761D01*
X95099571Y-93463523D01*
X95099571Y-93368285D01*
X95147190Y-93273047D01*
X95242428Y-93225428D01*
X95480523Y-93225428D01*
X95575761Y-93177809D01*
X96051952Y-93606380D02*
X96051952Y-92606380D01*
X96147190Y-93225428D02*
X96432904Y-93606380D01*
X96432904Y-92939714D02*
X96051952Y-93320666D01*
X97290047Y-92939714D02*
X97290047Y-93606380D01*
X96861476Y-92939714D02*
X96861476Y-93463523D01*
X96909095Y-93558761D01*
X97004333Y-93606380D01*
X97147190Y-93606380D01*
X97242428Y-93558761D01*
X97290047Y-93511142D01*
X97766238Y-93606380D02*
X97766238Y-92606380D01*
X97861476Y-93225428D02*
X98147190Y-93606380D01*
X98147190Y-92939714D02*
X97766238Y-93320666D01*
X98956714Y-93558761D02*
X98861476Y-93606380D01*
X98671000Y-93606380D01*
X98575761Y-93558761D01*
X98528142Y-93463523D01*
X98528142Y-93082571D01*
X98575761Y-92987333D01*
X98671000Y-92939714D01*
X98861476Y-92939714D01*
X98956714Y-92987333D01*
X99004333Y-93082571D01*
X99004333Y-93177809D01*
X98528142Y-93273047D01*
X99432904Y-93606380D02*
X99432904Y-92939714D01*
X99432904Y-93130190D02*
X99480523Y-93034952D01*
X99528142Y-92987333D01*
X99623380Y-92939714D01*
X99718619Y-92939714D01*
X100766238Y-92701619D02*
X100813857Y-92654000D01*
X100909095Y-92606380D01*
X101147190Y-92606380D01*
X101242428Y-92654000D01*
X101290047Y-92701619D01*
X101337666Y-92796857D01*
X101337666Y-92892095D01*
X101290047Y-93034952D01*
X100718619Y-93606380D01*
X101337666Y-93606380D01*
X101956714Y-92606380D02*
X102051952Y-92606380D01*
X102147190Y-92654000D01*
X102194809Y-92701619D01*
X102242428Y-92796857D01*
X102290047Y-92987333D01*
X102290047Y-93225428D01*
X102242428Y-93415904D01*
X102194809Y-93511142D01*
X102147190Y-93558761D01*
X102051952Y-93606380D01*
X101956714Y-93606380D01*
X101861476Y-93558761D01*
X101813857Y-93511142D01*
X101766238Y-93415904D01*
X101718619Y-93225428D01*
X101718619Y-92987333D01*
X101766238Y-92796857D01*
X101813857Y-92701619D01*
X101861476Y-92654000D01*
X101956714Y-92606380D01*
X102671000Y-92701619D02*
X102718619Y-92654000D01*
X102813857Y-92606380D01*
X103051952Y-92606380D01*
X103147190Y-92654000D01*
X103194809Y-92701619D01*
X103242428Y-92796857D01*
X103242428Y-92892095D01*
X103194809Y-93034952D01*
X102623380Y-93606380D01*
X103242428Y-93606380D01*
X103861476Y-92606380D02*
X103956714Y-92606380D01*
X104051952Y-92654000D01*
X104099571Y-92701619D01*
X104147190Y-92796857D01*
X104194809Y-92987333D01*
X104194809Y-93225428D01*
X104147190Y-93415904D01*
X104099571Y-93511142D01*
X104051952Y-93558761D01*
X103956714Y-93606380D01*
X103861476Y-93606380D01*
X103766238Y-93558761D01*
X103718619Y-93511142D01*
X103671000Y-93415904D01*
X103623380Y-93225428D01*
X103623380Y-92987333D01*
X103671000Y-92796857D01*
X103718619Y-92701619D01*
X103766238Y-92654000D01*
X103861476Y-92606380D01*
X76636904Y-94813380D02*
X76636904Y-93813380D01*
X77017857Y-93813380D01*
X77113095Y-93861000D01*
X77160714Y-93908619D01*
X77208333Y-94003857D01*
X77208333Y-94146714D01*
X77160714Y-94241952D01*
X77113095Y-94289571D01*
X77017857Y-94337190D01*
X76636904Y-94337190D01*
X77541666Y-93813380D02*
X77779761Y-94813380D01*
X77970238Y-94099095D01*
X78160714Y-94813380D01*
X78398809Y-93813380D01*
X79351190Y-94813380D02*
X79017857Y-94337190D01*
X78779761Y-94813380D02*
X78779761Y-93813380D01*
X79160714Y-93813380D01*
X79255952Y-93861000D01*
X79303571Y-93908619D01*
X79351190Y-94003857D01*
X79351190Y-94146714D01*
X79303571Y-94241952D01*
X79255952Y-94289571D01*
X79160714Y-94337190D01*
X78779761Y-94337190D01*
X80732142Y-93813380D02*
X80922619Y-93813380D01*
X81017857Y-93861000D01*
X81113095Y-93956238D01*
X81160714Y-94146714D01*
X81160714Y-94480047D01*
X81113095Y-94670523D01*
X81017857Y-94765761D01*
X80922619Y-94813380D01*
X80732142Y-94813380D01*
X80636904Y-94765761D01*
X80541666Y-94670523D01*
X80494047Y-94480047D01*
X80494047Y-94146714D01*
X80541666Y-93956238D01*
X80636904Y-93861000D01*
X80732142Y-93813380D01*
X81589285Y-94813380D02*
X81589285Y-93813380D01*
X82160714Y-94813380D02*
X81732142Y-94241952D01*
X82160714Y-93813380D02*
X81589285Y-94384809D01*
X77216071Y-90177880D02*
X76644642Y-90177880D01*
X76930357Y-90177880D02*
X76930357Y-89177880D01*
X76835119Y-89320738D01*
X76739880Y-89415976D01*
X76644642Y-89463595D01*
X77597023Y-89273119D02*
X77644642Y-89225500D01*
X77739880Y-89177880D01*
X77977976Y-89177880D01*
X78073214Y-89225500D01*
X78120833Y-89273119D01*
X78168452Y-89368357D01*
X78168452Y-89463595D01*
X78120833Y-89606452D01*
X77549404Y-90177880D01*
X78168452Y-90177880D01*
X78501785Y-89511214D02*
X78739880Y-90177880D01*
X78977976Y-89511214D01*
X77454142Y-84478880D02*
X76977952Y-84478880D01*
X76930333Y-84955071D01*
X76977952Y-84907452D01*
X77073190Y-84859833D01*
X77311285Y-84859833D01*
X77406523Y-84907452D01*
X77454142Y-84955071D01*
X77501761Y-85050309D01*
X77501761Y-85288404D01*
X77454142Y-85383642D01*
X77406523Y-85431261D01*
X77311285Y-85478880D01*
X77073190Y-85478880D01*
X76977952Y-85431261D01*
X76930333Y-85383642D01*
X77835095Y-84812214D02*
X78073190Y-85478880D01*
X78311285Y-84812214D01*
X77240000Y-79843380D02*
X76763809Y-79843380D01*
X76716190Y-80319571D01*
X76763809Y-80271952D01*
X76859047Y-80224333D01*
X77097142Y-80224333D01*
X77192380Y-80271952D01*
X77240000Y-80319571D01*
X77287619Y-80414809D01*
X77287619Y-80652904D01*
X77240000Y-80748142D01*
X77192380Y-80795761D01*
X77097142Y-80843380D01*
X76859047Y-80843380D01*
X76763809Y-80795761D01*
X76716190Y-80748142D01*
X77620952Y-80176714D02*
X77859047Y-80843380D01*
X78097142Y-80176714D01*
X79192380Y-80795761D02*
X79335238Y-80843380D01*
X79573333Y-80843380D01*
X79668571Y-80795761D01*
X79716190Y-80748142D01*
X79763809Y-80652904D01*
X79763809Y-80557666D01*
X79716190Y-80462428D01*
X79668571Y-80414809D01*
X79573333Y-80367190D01*
X79382857Y-80319571D01*
X79287619Y-80271952D01*
X79240000Y-80224333D01*
X79192380Y-80129095D01*
X79192380Y-80033857D01*
X79240000Y-79938619D01*
X79287619Y-79891000D01*
X79382857Y-79843380D01*
X79620952Y-79843380D01*
X79763809Y-79891000D01*
X80525714Y-80319571D02*
X80668571Y-80367190D01*
X80716190Y-80414809D01*
X80763809Y-80510047D01*
X80763809Y-80652904D01*
X80716190Y-80748142D01*
X80668571Y-80795761D01*
X80573333Y-80843380D01*
X80192380Y-80843380D01*
X80192380Y-79843380D01*
X80525714Y-79843380D01*
X80620952Y-79891000D01*
X80668571Y-79938619D01*
X80716190Y-80033857D01*
X80716190Y-80129095D01*
X80668571Y-80224333D01*
X80620952Y-80271952D01*
X80525714Y-80319571D01*
X80192380Y-80319571D01*
X76612928Y-75017380D02*
X77231976Y-75017380D01*
X76898642Y-75398333D01*
X77041500Y-75398333D01*
X77136738Y-75445952D01*
X77184357Y-75493571D01*
X77231976Y-75588809D01*
X77231976Y-75826904D01*
X77184357Y-75922142D01*
X77136738Y-75969761D01*
X77041500Y-76017380D01*
X76755785Y-76017380D01*
X76660547Y-75969761D01*
X76612928Y-75922142D01*
X77660547Y-75922142D02*
X77708166Y-75969761D01*
X77660547Y-76017380D01*
X77612928Y-75969761D01*
X77660547Y-75922142D01*
X77660547Y-76017380D01*
X78041500Y-75017380D02*
X78660547Y-75017380D01*
X78327214Y-75398333D01*
X78470071Y-75398333D01*
X78565309Y-75445952D01*
X78612928Y-75493571D01*
X78660547Y-75588809D01*
X78660547Y-75826904D01*
X78612928Y-75922142D01*
X78565309Y-75969761D01*
X78470071Y-76017380D01*
X78184357Y-76017380D01*
X78089119Y-75969761D01*
X78041500Y-75922142D01*
X78993880Y-75350714D02*
X79231976Y-76017380D01*
X79470071Y-75350714D01*
X76613095Y-71318380D02*
X76613095Y-70318380D01*
X76994047Y-70318380D01*
X77089285Y-70366000D01*
X77136904Y-70413619D01*
X77184523Y-70508857D01*
X77184523Y-70651714D01*
X77136904Y-70746952D01*
X77089285Y-70794571D01*
X76994047Y-70842190D01*
X76613095Y-70842190D01*
X77517857Y-70318380D02*
X77755952Y-71318380D01*
X77946428Y-70604095D01*
X78136904Y-71318380D01*
X78375000Y-70318380D01*
X79327380Y-71318380D02*
X78994047Y-70842190D01*
X78755952Y-71318380D02*
X78755952Y-70318380D01*
X79136904Y-70318380D01*
X79232142Y-70366000D01*
X79279761Y-70413619D01*
X79327380Y-70508857D01*
X79327380Y-70651714D01*
X79279761Y-70746952D01*
X79232142Y-70794571D01*
X79136904Y-70842190D01*
X78755952Y-70842190D01*
X80708333Y-70318380D02*
X80898809Y-70318380D01*
X80994047Y-70366000D01*
X81089285Y-70461238D01*
X81136904Y-70651714D01*
X81136904Y-70985047D01*
X81089285Y-71175523D01*
X80994047Y-71270761D01*
X80898809Y-71318380D01*
X80708333Y-71318380D01*
X80613095Y-71270761D01*
X80517857Y-71175523D01*
X80470238Y-70985047D01*
X80470238Y-70651714D01*
X80517857Y-70461238D01*
X80613095Y-70366000D01*
X80708333Y-70318380D01*
X81565476Y-71318380D02*
X81565476Y-70318380D01*
X82136904Y-71318380D01*
X82136904Y-70318380D01*
D11*
%TO.C,J6*%
X133346500Y-75625000D02*
X133346500Y-70425000D01*
X120586500Y-75625000D02*
X133346500Y-75625000D01*
X117986500Y-70425000D02*
X133346500Y-70425000D01*
X120586500Y-75625000D02*
X120586500Y-73025000D01*
X120586500Y-73025000D02*
X117986500Y-73025000D01*
X117986500Y-73025000D02*
X117986500Y-70425000D01*
X119316500Y-75625000D02*
X117986500Y-75625000D01*
X117986500Y-75625000D02*
X117986500Y-74295000D01*
%TO.C,J5*%
X133346500Y-81784500D02*
X133346500Y-76584500D01*
X120586500Y-81784500D02*
X133346500Y-81784500D01*
X117986500Y-76584500D02*
X133346500Y-76584500D01*
X120586500Y-81784500D02*
X120586500Y-79184500D01*
X120586500Y-79184500D02*
X117986500Y-79184500D01*
X117986500Y-79184500D02*
X117986500Y-76584500D01*
X119316500Y-81784500D02*
X117986500Y-81784500D01*
X117986500Y-81784500D02*
X117986500Y-80454500D01*
%TO.C,J4*%
X133346500Y-87919500D02*
X133346500Y-82719500D01*
X120586500Y-87919500D02*
X133346500Y-87919500D01*
X117986500Y-82719500D02*
X133346500Y-82719500D01*
X120586500Y-87919500D02*
X120586500Y-85319500D01*
X120586500Y-85319500D02*
X117986500Y-85319500D01*
X117986500Y-85319500D02*
X117986500Y-82719500D01*
X119316500Y-87919500D02*
X117986500Y-87919500D01*
X117986500Y-87919500D02*
X117986500Y-86589500D01*
%TO.C,J3*%
X133346500Y-94040000D02*
X133346500Y-88840000D01*
X120586500Y-94040000D02*
X133346500Y-94040000D01*
X117986500Y-88840000D02*
X133346500Y-88840000D01*
X120586500Y-94040000D02*
X120586500Y-91440000D01*
X120586500Y-91440000D02*
X117986500Y-91440000D01*
X117986500Y-91440000D02*
X117986500Y-88840000D01*
X119316500Y-94040000D02*
X117986500Y-94040000D01*
X117986500Y-94040000D02*
X117986500Y-92710000D01*
%TO.C,TP5*%
X113095000Y-88392000D02*
G75*
G03*
X113095000Y-88392000I-700000J0D01*
G01*
%TO.C,TP4*%
X109031000Y-88392000D02*
G75*
G03*
X109031000Y-88392000I-700000J0D01*
G01*
%TO.C,TP3*%
X104967000Y-88392000D02*
G75*
G03*
X104967000Y-88392000I-700000J0D01*
G01*
%TO.C,TP2*%
X100903000Y-88392000D02*
G75*
G03*
X100903000Y-88392000I-700000J0D01*
G01*
%TO.C,TP1*%
X96839000Y-88392000D02*
G75*
G03*
X96839000Y-88392000I-700000J0D01*
G01*
%TO.C,R8*%
X88026000Y-77501000D02*
X88026000Y-75661000D01*
X88026000Y-75661000D02*
X84186000Y-75661000D01*
X84186000Y-75661000D02*
X84186000Y-77501000D01*
X84186000Y-77501000D02*
X88026000Y-77501000D01*
X88976000Y-76581000D02*
X88026000Y-76581000D01*
X83236000Y-76581000D02*
X84186000Y-76581000D01*
%TO.C,R7*%
X88026000Y-79685400D02*
X88026000Y-77845400D01*
X88026000Y-77845400D02*
X84186000Y-77845400D01*
X84186000Y-77845400D02*
X84186000Y-79685400D01*
X84186000Y-79685400D02*
X88026000Y-79685400D01*
X88976000Y-78765400D02*
X88026000Y-78765400D01*
X83236000Y-78765400D02*
X84186000Y-78765400D01*
%TO.C,R6*%
X88026000Y-81869800D02*
X88026000Y-80029800D01*
X88026000Y-80029800D02*
X84186000Y-80029800D01*
X84186000Y-80029800D02*
X84186000Y-81869800D01*
X84186000Y-81869800D02*
X88026000Y-81869800D01*
X88976000Y-80949800D02*
X88026000Y-80949800D01*
X83236000Y-80949800D02*
X84186000Y-80949800D01*
%TO.C,R5*%
X88026000Y-84054200D02*
X88026000Y-82214200D01*
X88026000Y-82214200D02*
X84186000Y-82214200D01*
X84186000Y-82214200D02*
X84186000Y-84054200D01*
X84186000Y-84054200D02*
X88026000Y-84054200D01*
X88976000Y-83134200D02*
X88026000Y-83134200D01*
X83236000Y-83134200D02*
X84186000Y-83134200D01*
%TO.C,R4*%
X88026000Y-86238600D02*
X88026000Y-84398600D01*
X88026000Y-84398600D02*
X84186000Y-84398600D01*
X84186000Y-84398600D02*
X84186000Y-86238600D01*
X84186000Y-86238600D02*
X88026000Y-86238600D01*
X88976000Y-85318600D02*
X88026000Y-85318600D01*
X83236000Y-85318600D02*
X84186000Y-85318600D01*
%TO.C,R3*%
X88026000Y-88423000D02*
X88026000Y-86583000D01*
X88026000Y-86583000D02*
X84186000Y-86583000D01*
X84186000Y-86583000D02*
X84186000Y-88423000D01*
X84186000Y-88423000D02*
X88026000Y-88423000D01*
X88976000Y-87503000D02*
X88026000Y-87503000D01*
X83236000Y-87503000D02*
X84186000Y-87503000D01*
%TO.C,R2*%
X109251000Y-78344000D02*
X107411000Y-78344000D01*
X107411000Y-78344000D02*
X107411000Y-82184000D01*
X107411000Y-82184000D02*
X109251000Y-82184000D01*
X109251000Y-82184000D02*
X109251000Y-78344000D01*
X108331000Y-77394000D02*
X108331000Y-78344000D01*
X108331000Y-83134000D02*
X108331000Y-82184000D01*
%TO.C,R1*%
X97059000Y-78344000D02*
X95219000Y-78344000D01*
X95219000Y-78344000D02*
X95219000Y-82184000D01*
X95219000Y-82184000D02*
X97059000Y-82184000D01*
X97059000Y-82184000D02*
X97059000Y-78344000D01*
X96139000Y-77394000D02*
X96139000Y-78344000D01*
X96139000Y-83134000D02*
X96139000Y-82184000D01*
%TO.C,Q1*%
X104073478Y-82462478D02*
G75*
G03*
X102235000Y-78024000I-1838478J1838478D01*
G01*
X100396522Y-82462478D02*
G75*
G02*
X102235000Y-78024000I1838478J1838478D01*
G01*
X100435000Y-82474000D02*
X104035000Y-82474000D01*
%TO.C,D6*%
X75082130Y-71882337D02*
G75*
G02*
X73000039Y-71882500I-1041130J1079837D01*
G01*
X75082130Y-69722663D02*
G75*
G03*
X73000039Y-69722500I-1041130J-1079837D01*
G01*
X75713335Y-71881108D02*
G75*
G02*
X72481000Y-72038016I-1672335J1078608D01*
G01*
X75713335Y-69723892D02*
G75*
G03*
X72481000Y-69566984I-1672335J-1078608D01*
G01*
X72481000Y-69566500D02*
X72481000Y-69722500D01*
X72481000Y-71882500D02*
X72481000Y-72038500D01*
%TO.C,D5*%
X75082130Y-76594037D02*
G75*
G02*
X73000039Y-76594200I-1041130J1079837D01*
G01*
X75082130Y-74434363D02*
G75*
G03*
X73000039Y-74434200I-1041130J-1079837D01*
G01*
X75713335Y-76592808D02*
G75*
G02*
X72481000Y-76749716I-1672335J1078608D01*
G01*
X75713335Y-74435592D02*
G75*
G03*
X72481000Y-74278684I-1672335J-1078608D01*
G01*
X72481000Y-74278200D02*
X72481000Y-74434200D01*
X72481000Y-76594200D02*
X72481000Y-76750200D01*
%TO.C,D4*%
X75082130Y-81305737D02*
G75*
G02*
X73000039Y-81305900I-1041130J1079837D01*
G01*
X75082130Y-79146063D02*
G75*
G03*
X73000039Y-79145900I-1041130J-1079837D01*
G01*
X75713335Y-81304508D02*
G75*
G02*
X72481000Y-81461416I-1672335J1078608D01*
G01*
X75713335Y-79147292D02*
G75*
G03*
X72481000Y-78990384I-1672335J-1078608D01*
G01*
X72481000Y-78989900D02*
X72481000Y-79145900D01*
X72481000Y-81305900D02*
X72481000Y-81461900D01*
%TO.C,D3*%
X75082130Y-86017437D02*
G75*
G02*
X73000039Y-86017600I-1041130J1079837D01*
G01*
X75082130Y-83857763D02*
G75*
G03*
X73000039Y-83857600I-1041130J-1079837D01*
G01*
X75713335Y-86016208D02*
G75*
G02*
X72481000Y-86173116I-1672335J1078608D01*
G01*
X75713335Y-83858992D02*
G75*
G03*
X72481000Y-83702084I-1672335J-1078608D01*
G01*
X72481000Y-83701600D02*
X72481000Y-83857600D01*
X72481000Y-86017600D02*
X72481000Y-86173600D01*
%TO.C,D2*%
X75082130Y-90729137D02*
G75*
G02*
X73000039Y-90729300I-1041130J1079837D01*
G01*
X75082130Y-88569463D02*
G75*
G03*
X73000039Y-88569300I-1041130J-1079837D01*
G01*
X75713335Y-90727908D02*
G75*
G02*
X72481000Y-90884816I-1672335J1078608D01*
G01*
X75713335Y-88570692D02*
G75*
G03*
X72481000Y-88413784I-1672335J-1078608D01*
G01*
X72481000Y-88413300D02*
X72481000Y-88569300D01*
X72481000Y-90729300D02*
X72481000Y-90885300D01*
%TO.C,D1*%
X75082130Y-95440837D02*
G75*
G02*
X73000039Y-95441000I-1041130J1079837D01*
G01*
X75082130Y-93281163D02*
G75*
G03*
X73000039Y-93281000I-1041130J-1079837D01*
G01*
X75713335Y-95439608D02*
G75*
G02*
X72481000Y-95596516I-1672335J1078608D01*
G01*
X75713335Y-93282392D02*
G75*
G03*
X72481000Y-93125484I-1672335J-1078608D01*
G01*
X72481000Y-93125000D02*
X72481000Y-93281000D01*
X72481000Y-95441000D02*
X72481000Y-95597000D01*
D12*
%TO.C,J2*%
X79088000Y-69481500D02*
X79088000Y-61531500D01*
X126888000Y-69481500D02*
X79088000Y-69481500D01*
X126888000Y-59681500D02*
X126888000Y-69481500D01*
X81788000Y-59681500D02*
X126888000Y-59681500D01*
D11*
%TO.C,J1*%
X80008000Y-95698000D02*
X80008000Y-98548000D01*
X82858000Y-95698000D02*
X80008000Y-95698000D01*
X103768000Y-107158000D02*
X101958000Y-107158000D01*
X103768000Y-105758000D02*
X103768000Y-107158000D01*
X123668000Y-105758000D02*
X103768000Y-105758000D01*
X123668000Y-95938000D02*
X123668000Y-105758000D01*
X101958000Y-95938000D02*
X123668000Y-95938000D01*
X100148000Y-107158000D02*
X101958000Y-107158000D01*
X100148000Y-105758000D02*
X100148000Y-107158000D01*
X80248000Y-105758000D02*
X100148000Y-105758000D01*
X80248000Y-95938000D02*
X80248000Y-105758000D01*
X101958000Y-95938000D02*
X80248000Y-95938000D01*
%TO.C,H4*%
D10*
X129794095Y-59426880D02*
X129794095Y-58426880D01*
X129794095Y-58903071D02*
X130365523Y-58903071D01*
X130365523Y-59426880D02*
X130365523Y-58426880D01*
X131270285Y-58760214D02*
X131270285Y-59426880D01*
X131032190Y-58379261D02*
X130794095Y-59093547D01*
X131413142Y-59093547D01*
%TO.C,H3*%
X129540095Y-101336880D02*
X129540095Y-100336880D01*
X129540095Y-100813071D02*
X130111523Y-100813071D01*
X130111523Y-101336880D02*
X130111523Y-100336880D01*
X130492476Y-100336880D02*
X131111523Y-100336880D01*
X130778190Y-100717833D01*
X130921047Y-100717833D01*
X131016285Y-100765452D01*
X131063904Y-100813071D01*
X131111523Y-100908309D01*
X131111523Y-101146404D01*
X131063904Y-101241642D01*
X131016285Y-101289261D01*
X130921047Y-101336880D01*
X130635333Y-101336880D01*
X130540095Y-101289261D01*
X130492476Y-101241642D01*
%TO.C,H2*%
X74358595Y-101301880D02*
X74358595Y-100301880D01*
X74358595Y-100778071D02*
X74930023Y-100778071D01*
X74930023Y-101301880D02*
X74930023Y-100301880D01*
X75358595Y-100397119D02*
X75406214Y-100349500D01*
X75501452Y-100301880D01*
X75739547Y-100301880D01*
X75834785Y-100349500D01*
X75882404Y-100397119D01*
X75930023Y-100492357D01*
X75930023Y-100587595D01*
X75882404Y-100730452D01*
X75310976Y-101301880D01*
X75930023Y-101301880D01*
%TO.C,H1*%
X74422095Y-59490380D02*
X74422095Y-58490380D01*
X74422095Y-58966571D02*
X74993523Y-58966571D01*
X74993523Y-59490380D02*
X74993523Y-58490380D01*
X75993523Y-59490380D02*
X75422095Y-59490380D01*
X75707809Y-59490380D02*
X75707809Y-58490380D01*
X75612571Y-58633238D01*
X75517333Y-58728476D01*
X75422095Y-58776095D01*
%TO.C,J6*%
X116438880Y-73358333D02*
X117153166Y-73358333D01*
X117296023Y-73405952D01*
X117391261Y-73501190D01*
X117438880Y-73644047D01*
X117438880Y-73739285D01*
X116438880Y-72453571D02*
X116438880Y-72644047D01*
X116486500Y-72739285D01*
X116534119Y-72786904D01*
X116676976Y-72882142D01*
X116867452Y-72929761D01*
X117248404Y-72929761D01*
X117343642Y-72882142D01*
X117391261Y-72834523D01*
X117438880Y-72739285D01*
X117438880Y-72548809D01*
X117391261Y-72453571D01*
X117343642Y-72405952D01*
X117248404Y-72358333D01*
X117010309Y-72358333D01*
X116915071Y-72405952D01*
X116867452Y-72453571D01*
X116819833Y-72548809D01*
X116819833Y-72739285D01*
X116867452Y-72834523D01*
X116915071Y-72882142D01*
X117010309Y-72929761D01*
%TO.C,J5*%
X116438880Y-79517833D02*
X117153166Y-79517833D01*
X117296023Y-79565452D01*
X117391261Y-79660690D01*
X117438880Y-79803547D01*
X117438880Y-79898785D01*
X116438880Y-78565452D02*
X116438880Y-79041642D01*
X116915071Y-79089261D01*
X116867452Y-79041642D01*
X116819833Y-78946404D01*
X116819833Y-78708309D01*
X116867452Y-78613071D01*
X116915071Y-78565452D01*
X117010309Y-78517833D01*
X117248404Y-78517833D01*
X117343642Y-78565452D01*
X117391261Y-78613071D01*
X117438880Y-78708309D01*
X117438880Y-78946404D01*
X117391261Y-79041642D01*
X117343642Y-79089261D01*
%TO.C,J4*%
X116438880Y-85652833D02*
X117153166Y-85652833D01*
X117296023Y-85700452D01*
X117391261Y-85795690D01*
X117438880Y-85938547D01*
X117438880Y-86033785D01*
X116772214Y-84748071D02*
X117438880Y-84748071D01*
X116391261Y-84986166D02*
X117105547Y-85224261D01*
X117105547Y-84605214D01*
%TO.C,J3*%
X116438880Y-91773333D02*
X117153166Y-91773333D01*
X117296023Y-91820952D01*
X117391261Y-91916190D01*
X117438880Y-92059047D01*
X117438880Y-92154285D01*
X116438880Y-91392380D02*
X116438880Y-90773333D01*
X116819833Y-91106666D01*
X116819833Y-90963809D01*
X116867452Y-90868571D01*
X116915071Y-90820952D01*
X117010309Y-90773333D01*
X117248404Y-90773333D01*
X117343642Y-90820952D01*
X117391261Y-90868571D01*
X117438880Y-90963809D01*
X117438880Y-91249523D01*
X117391261Y-91344761D01*
X117343642Y-91392380D01*
%TO.C,TP5*%
X111133095Y-86396380D02*
X111704523Y-86396380D01*
X111418809Y-87396380D02*
X111418809Y-86396380D01*
X112037857Y-87396380D02*
X112037857Y-86396380D01*
X112418809Y-86396380D01*
X112514047Y-86444000D01*
X112561666Y-86491619D01*
X112609285Y-86586857D01*
X112609285Y-86729714D01*
X112561666Y-86824952D01*
X112514047Y-86872571D01*
X112418809Y-86920190D01*
X112037857Y-86920190D01*
X113514047Y-86396380D02*
X113037857Y-86396380D01*
X112990238Y-86872571D01*
X113037857Y-86824952D01*
X113133095Y-86777333D01*
X113371190Y-86777333D01*
X113466428Y-86824952D01*
X113514047Y-86872571D01*
X113561666Y-86967809D01*
X113561666Y-87205904D01*
X113514047Y-87301142D01*
X113466428Y-87348761D01*
X113371190Y-87396380D01*
X113133095Y-87396380D01*
X113037857Y-87348761D01*
X112990238Y-87301142D01*
%TO.C,TP4*%
X107069095Y-86396380D02*
X107640523Y-86396380D01*
X107354809Y-87396380D02*
X107354809Y-86396380D01*
X107973857Y-87396380D02*
X107973857Y-86396380D01*
X108354809Y-86396380D01*
X108450047Y-86444000D01*
X108497666Y-86491619D01*
X108545285Y-86586857D01*
X108545285Y-86729714D01*
X108497666Y-86824952D01*
X108450047Y-86872571D01*
X108354809Y-86920190D01*
X107973857Y-86920190D01*
X109402428Y-86729714D02*
X109402428Y-87396380D01*
X109164333Y-86348761D02*
X108926238Y-87063047D01*
X109545285Y-87063047D01*
%TO.C,TP3*%
X103005095Y-86396380D02*
X103576523Y-86396380D01*
X103290809Y-87396380D02*
X103290809Y-86396380D01*
X103909857Y-87396380D02*
X103909857Y-86396380D01*
X104290809Y-86396380D01*
X104386047Y-86444000D01*
X104433666Y-86491619D01*
X104481285Y-86586857D01*
X104481285Y-86729714D01*
X104433666Y-86824952D01*
X104386047Y-86872571D01*
X104290809Y-86920190D01*
X103909857Y-86920190D01*
X104814619Y-86396380D02*
X105433666Y-86396380D01*
X105100333Y-86777333D01*
X105243190Y-86777333D01*
X105338428Y-86824952D01*
X105386047Y-86872571D01*
X105433666Y-86967809D01*
X105433666Y-87205904D01*
X105386047Y-87301142D01*
X105338428Y-87348761D01*
X105243190Y-87396380D01*
X104957476Y-87396380D01*
X104862238Y-87348761D01*
X104814619Y-87301142D01*
%TO.C,TP2*%
X98941095Y-86396380D02*
X99512523Y-86396380D01*
X99226809Y-87396380D02*
X99226809Y-86396380D01*
X99845857Y-87396380D02*
X99845857Y-86396380D01*
X100226809Y-86396380D01*
X100322047Y-86444000D01*
X100369666Y-86491619D01*
X100417285Y-86586857D01*
X100417285Y-86729714D01*
X100369666Y-86824952D01*
X100322047Y-86872571D01*
X100226809Y-86920190D01*
X99845857Y-86920190D01*
X100798238Y-86491619D02*
X100845857Y-86444000D01*
X100941095Y-86396380D01*
X101179190Y-86396380D01*
X101274428Y-86444000D01*
X101322047Y-86491619D01*
X101369666Y-86586857D01*
X101369666Y-86682095D01*
X101322047Y-86824952D01*
X100750619Y-87396380D01*
X101369666Y-87396380D01*
%TO.C,TP1*%
X94877095Y-86396380D02*
X95448523Y-86396380D01*
X95162809Y-87396380D02*
X95162809Y-86396380D01*
X95781857Y-87396380D02*
X95781857Y-86396380D01*
X96162809Y-86396380D01*
X96258047Y-86444000D01*
X96305666Y-86491619D01*
X96353285Y-86586857D01*
X96353285Y-86729714D01*
X96305666Y-86824952D01*
X96258047Y-86872571D01*
X96162809Y-86920190D01*
X95781857Y-86920190D01*
X97305666Y-87396380D02*
X96734238Y-87396380D01*
X97019952Y-87396380D02*
X97019952Y-86396380D01*
X96924714Y-86539238D01*
X96829476Y-86634476D01*
X96734238Y-86682095D01*
%TO.C,R8*%
X91463833Y-76969880D02*
X91130500Y-76493690D01*
X90892404Y-76969880D02*
X90892404Y-75969880D01*
X91273357Y-75969880D01*
X91368595Y-76017500D01*
X91416214Y-76065119D01*
X91463833Y-76160357D01*
X91463833Y-76303214D01*
X91416214Y-76398452D01*
X91368595Y-76446071D01*
X91273357Y-76493690D01*
X90892404Y-76493690D01*
X92035261Y-76398452D02*
X91940023Y-76350833D01*
X91892404Y-76303214D01*
X91844785Y-76207976D01*
X91844785Y-76160357D01*
X91892404Y-76065119D01*
X91940023Y-76017500D01*
X92035261Y-75969880D01*
X92225738Y-75969880D01*
X92320976Y-76017500D01*
X92368595Y-76065119D01*
X92416214Y-76160357D01*
X92416214Y-76207976D01*
X92368595Y-76303214D01*
X92320976Y-76350833D01*
X92225738Y-76398452D01*
X92035261Y-76398452D01*
X91940023Y-76446071D01*
X91892404Y-76493690D01*
X91844785Y-76588928D01*
X91844785Y-76779404D01*
X91892404Y-76874642D01*
X91940023Y-76922261D01*
X92035261Y-76969880D01*
X92225738Y-76969880D01*
X92320976Y-76922261D01*
X92368595Y-76874642D01*
X92416214Y-76779404D01*
X92416214Y-76588928D01*
X92368595Y-76493690D01*
X92320976Y-76446071D01*
X92225738Y-76398452D01*
%TO.C,R7*%
X91463833Y-79128880D02*
X91130500Y-78652690D01*
X90892404Y-79128880D02*
X90892404Y-78128880D01*
X91273357Y-78128880D01*
X91368595Y-78176500D01*
X91416214Y-78224119D01*
X91463833Y-78319357D01*
X91463833Y-78462214D01*
X91416214Y-78557452D01*
X91368595Y-78605071D01*
X91273357Y-78652690D01*
X90892404Y-78652690D01*
X91797166Y-78128880D02*
X92463833Y-78128880D01*
X92035261Y-79128880D01*
%TO.C,R6*%
X91527333Y-81414880D02*
X91194000Y-80938690D01*
X90955904Y-81414880D02*
X90955904Y-80414880D01*
X91336857Y-80414880D01*
X91432095Y-80462500D01*
X91479714Y-80510119D01*
X91527333Y-80605357D01*
X91527333Y-80748214D01*
X91479714Y-80843452D01*
X91432095Y-80891071D01*
X91336857Y-80938690D01*
X90955904Y-80938690D01*
X92384476Y-80414880D02*
X92194000Y-80414880D01*
X92098761Y-80462500D01*
X92051142Y-80510119D01*
X91955904Y-80652976D01*
X91908285Y-80843452D01*
X91908285Y-81224404D01*
X91955904Y-81319642D01*
X92003523Y-81367261D01*
X92098761Y-81414880D01*
X92289238Y-81414880D01*
X92384476Y-81367261D01*
X92432095Y-81319642D01*
X92479714Y-81224404D01*
X92479714Y-80986309D01*
X92432095Y-80891071D01*
X92384476Y-80843452D01*
X92289238Y-80795833D01*
X92098761Y-80795833D01*
X92003523Y-80843452D01*
X91955904Y-80891071D01*
X91908285Y-80986309D01*
%TO.C,R5*%
X91717833Y-83637380D02*
X91384500Y-83161190D01*
X91146404Y-83637380D02*
X91146404Y-82637380D01*
X91527357Y-82637380D01*
X91622595Y-82685000D01*
X91670214Y-82732619D01*
X91717833Y-82827857D01*
X91717833Y-82970714D01*
X91670214Y-83065952D01*
X91622595Y-83113571D01*
X91527357Y-83161190D01*
X91146404Y-83161190D01*
X92622595Y-82637380D02*
X92146404Y-82637380D01*
X92098785Y-83113571D01*
X92146404Y-83065952D01*
X92241642Y-83018333D01*
X92479738Y-83018333D01*
X92574976Y-83065952D01*
X92622595Y-83113571D01*
X92670214Y-83208809D01*
X92670214Y-83446904D01*
X92622595Y-83542142D01*
X92574976Y-83589761D01*
X92479738Y-83637380D01*
X92241642Y-83637380D01*
X92146404Y-83589761D01*
X92098785Y-83542142D01*
%TO.C,R4*%
X91844833Y-85732880D02*
X91511500Y-85256690D01*
X91273404Y-85732880D02*
X91273404Y-84732880D01*
X91654357Y-84732880D01*
X91749595Y-84780500D01*
X91797214Y-84828119D01*
X91844833Y-84923357D01*
X91844833Y-85066214D01*
X91797214Y-85161452D01*
X91749595Y-85209071D01*
X91654357Y-85256690D01*
X91273404Y-85256690D01*
X92701976Y-85066214D02*
X92701976Y-85732880D01*
X92463880Y-84685261D02*
X92225785Y-85399547D01*
X92844833Y-85399547D01*
%TO.C,R3*%
X91971833Y-88018880D02*
X91638500Y-87542690D01*
X91400404Y-88018880D02*
X91400404Y-87018880D01*
X91781357Y-87018880D01*
X91876595Y-87066500D01*
X91924214Y-87114119D01*
X91971833Y-87209357D01*
X91971833Y-87352214D01*
X91924214Y-87447452D01*
X91876595Y-87495071D01*
X91781357Y-87542690D01*
X91400404Y-87542690D01*
X92305166Y-87018880D02*
X92924214Y-87018880D01*
X92590880Y-87399833D01*
X92733738Y-87399833D01*
X92828976Y-87447452D01*
X92876595Y-87495071D01*
X92924214Y-87590309D01*
X92924214Y-87828404D01*
X92876595Y-87923642D01*
X92828976Y-87971261D01*
X92733738Y-88018880D01*
X92448023Y-88018880D01*
X92352785Y-87971261D01*
X92305166Y-87923642D01*
%TO.C,R2*%
X110703380Y-80430666D02*
X110227190Y-80764000D01*
X110703380Y-81002095D02*
X109703380Y-81002095D01*
X109703380Y-80621142D01*
X109751000Y-80525904D01*
X109798619Y-80478285D01*
X109893857Y-80430666D01*
X110036714Y-80430666D01*
X110131952Y-80478285D01*
X110179571Y-80525904D01*
X110227190Y-80621142D01*
X110227190Y-81002095D01*
X109798619Y-80049714D02*
X109751000Y-80002095D01*
X109703380Y-79906857D01*
X109703380Y-79668761D01*
X109751000Y-79573523D01*
X109798619Y-79525904D01*
X109893857Y-79478285D01*
X109989095Y-79478285D01*
X110131952Y-79525904D01*
X110703380Y-80097333D01*
X110703380Y-79478285D01*
%TO.C,R1*%
X98511380Y-80430666D02*
X98035190Y-80764000D01*
X98511380Y-81002095D02*
X97511380Y-81002095D01*
X97511380Y-80621142D01*
X97559000Y-80525904D01*
X97606619Y-80478285D01*
X97701857Y-80430666D01*
X97844714Y-80430666D01*
X97939952Y-80478285D01*
X97987571Y-80525904D01*
X98035190Y-80621142D01*
X98035190Y-81002095D01*
X98511380Y-79478285D02*
X98511380Y-80049714D01*
X98511380Y-79764000D02*
X97511380Y-79764000D01*
X97654238Y-79859238D01*
X97749476Y-79954476D01*
X97797095Y-80049714D01*
%TO.C,Q1*%
X102139761Y-77611619D02*
X102044523Y-77564000D01*
X101949285Y-77468761D01*
X101806428Y-77325904D01*
X101711190Y-77278285D01*
X101615952Y-77278285D01*
X101663571Y-77516380D02*
X101568333Y-77468761D01*
X101473095Y-77373523D01*
X101425476Y-77183047D01*
X101425476Y-76849714D01*
X101473095Y-76659238D01*
X101568333Y-76564000D01*
X101663571Y-76516380D01*
X101854047Y-76516380D01*
X101949285Y-76564000D01*
X102044523Y-76659238D01*
X102092142Y-76849714D01*
X102092142Y-77183047D01*
X102044523Y-77373523D01*
X101949285Y-77468761D01*
X101854047Y-77516380D01*
X101663571Y-77516380D01*
X103044523Y-77516380D02*
X102473095Y-77516380D01*
X102758809Y-77516380D02*
X102758809Y-76516380D01*
X102663571Y-76659238D01*
X102568333Y-76754476D01*
X102473095Y-76802095D01*
%TO.C,D6*%
X71926523Y-73513904D02*
X71926523Y-72713904D01*
X72117000Y-72713904D01*
X72231285Y-72752000D01*
X72307476Y-72828190D01*
X72345571Y-72904380D01*
X72383666Y-73056761D01*
X72383666Y-73171047D01*
X72345571Y-73323428D01*
X72307476Y-73399619D01*
X72231285Y-73475809D01*
X72117000Y-73513904D01*
X71926523Y-73513904D01*
X73069380Y-72713904D02*
X72917000Y-72713904D01*
X72840809Y-72752000D01*
X72802714Y-72790095D01*
X72726523Y-72904380D01*
X72688428Y-73056761D01*
X72688428Y-73361523D01*
X72726523Y-73437714D01*
X72764619Y-73475809D01*
X72840809Y-73513904D01*
X72993190Y-73513904D01*
X73069380Y-73475809D01*
X73107476Y-73437714D01*
X73145571Y-73361523D01*
X73145571Y-73171047D01*
X73107476Y-73094857D01*
X73069380Y-73056761D01*
X72993190Y-73018666D01*
X72840809Y-73018666D01*
X72764619Y-73056761D01*
X72726523Y-73094857D01*
X72688428Y-73171047D01*
%TO.C,D5*%
X71990023Y-78276404D02*
X71990023Y-77476404D01*
X72180500Y-77476404D01*
X72294785Y-77514500D01*
X72370976Y-77590690D01*
X72409071Y-77666880D01*
X72447166Y-77819261D01*
X72447166Y-77933547D01*
X72409071Y-78085928D01*
X72370976Y-78162119D01*
X72294785Y-78238309D01*
X72180500Y-78276404D01*
X71990023Y-78276404D01*
X73170976Y-77476404D02*
X72790023Y-77476404D01*
X72751928Y-77857357D01*
X72790023Y-77819261D01*
X72866214Y-77781166D01*
X73056690Y-77781166D01*
X73132880Y-77819261D01*
X73170976Y-77857357D01*
X73209071Y-77933547D01*
X73209071Y-78124023D01*
X73170976Y-78200214D01*
X73132880Y-78238309D01*
X73056690Y-78276404D01*
X72866214Y-78276404D01*
X72790023Y-78238309D01*
X72751928Y-78200214D01*
%TO.C,D4*%
X71926523Y-82975404D02*
X71926523Y-82175404D01*
X72117000Y-82175404D01*
X72231285Y-82213500D01*
X72307476Y-82289690D01*
X72345571Y-82365880D01*
X72383666Y-82518261D01*
X72383666Y-82632547D01*
X72345571Y-82784928D01*
X72307476Y-82861119D01*
X72231285Y-82937309D01*
X72117000Y-82975404D01*
X71926523Y-82975404D01*
X73069380Y-82442071D02*
X73069380Y-82975404D01*
X72878904Y-82137309D02*
X72688428Y-82708738D01*
X73183666Y-82708738D01*
%TO.C,D3*%
X71926523Y-87737904D02*
X71926523Y-86937904D01*
X72117000Y-86937904D01*
X72231285Y-86976000D01*
X72307476Y-87052190D01*
X72345571Y-87128380D01*
X72383666Y-87280761D01*
X72383666Y-87395047D01*
X72345571Y-87547428D01*
X72307476Y-87623619D01*
X72231285Y-87699809D01*
X72117000Y-87737904D01*
X71926523Y-87737904D01*
X72650333Y-86937904D02*
X73145571Y-86937904D01*
X72878904Y-87242666D01*
X72993190Y-87242666D01*
X73069380Y-87280761D01*
X73107476Y-87318857D01*
X73145571Y-87395047D01*
X73145571Y-87585523D01*
X73107476Y-87661714D01*
X73069380Y-87699809D01*
X72993190Y-87737904D01*
X72764619Y-87737904D01*
X72688428Y-87699809D01*
X72650333Y-87661714D01*
%TO.C,D2*%
X72053523Y-92436904D02*
X72053523Y-91636904D01*
X72244000Y-91636904D01*
X72358285Y-91675000D01*
X72434476Y-91751190D01*
X72472571Y-91827380D01*
X72510666Y-91979761D01*
X72510666Y-92094047D01*
X72472571Y-92246428D01*
X72434476Y-92322619D01*
X72358285Y-92398809D01*
X72244000Y-92436904D01*
X72053523Y-92436904D01*
X72815428Y-91713095D02*
X72853523Y-91675000D01*
X72929714Y-91636904D01*
X73120190Y-91636904D01*
X73196380Y-91675000D01*
X73234476Y-91713095D01*
X73272571Y-91789285D01*
X73272571Y-91865476D01*
X73234476Y-91979761D01*
X72777333Y-92436904D01*
X73272571Y-92436904D01*
%TO.C,D1*%
X72117023Y-96818404D02*
X72117023Y-96018404D01*
X72307500Y-96018404D01*
X72421785Y-96056500D01*
X72497976Y-96132690D01*
X72536071Y-96208880D01*
X72574166Y-96361261D01*
X72574166Y-96475547D01*
X72536071Y-96627928D01*
X72497976Y-96704119D01*
X72421785Y-96780309D01*
X72307500Y-96818404D01*
X72117023Y-96818404D01*
X73336071Y-96818404D02*
X72878928Y-96818404D01*
X73107500Y-96818404D02*
X73107500Y-96018404D01*
X73031309Y-96132690D01*
X72955119Y-96208880D01*
X72878928Y-96246976D01*
%TO.C,J2*%
D13*
X81364666Y-60836023D02*
X81364666Y-61743166D01*
X81304190Y-61924595D01*
X81183238Y-62045547D01*
X81001809Y-62106023D01*
X80880857Y-62106023D01*
X81908952Y-60956976D02*
X81969428Y-60896500D01*
X82090380Y-60836023D01*
X82392761Y-60836023D01*
X82513714Y-60896500D01*
X82574190Y-60956976D01*
X82634666Y-61077928D01*
X82634666Y-61198880D01*
X82574190Y-61380309D01*
X81848476Y-62106023D01*
X82634666Y-62106023D01*
%TO.C,J1*%
D10*
X101624666Y-94300380D02*
X101624666Y-95014666D01*
X101577047Y-95157523D01*
X101481809Y-95252761D01*
X101338952Y-95300380D01*
X101243714Y-95300380D01*
X102624666Y-95300380D02*
X102053238Y-95300380D01*
X102338952Y-95300380D02*
X102338952Y-94300380D01*
X102243714Y-94443238D01*
X102148476Y-94538476D01*
X102053238Y-94586095D01*
%TD*%
M02*
